<?xml version="1.0" standalone="no"?>
<!DOCTYPE svg PUBLIC "-//W3C//DTD SVG 20010904//EN"
 "http://www.w3.org/TR/2001/REC-SVG-20010904/DTD/svg10.dtd">
<svg version="1.0" xmlns="http://www.w3.org/2000/svg"
 width="233.000000pt" height="231.000000pt" viewBox="0 0 233.000000 231.000000"
 preserveAspectRatio="xMidYMid meet">
<metadata>
Created by potrace 1.14, written by Peter Selinger 2001-2017
</metadata>
<g transform="translate(0.000000,231.000000) scale(0.100000,-0.100000)"
fill="#000000" stroke="none">
<path d="M1005 2250 c-417 -65 -764 -359 -894 -758 -43 -132 -54 -220 -48
-389 6 -177 27 -271 91 -407 60 -130 126 -225 221 -321 443 -451 1161 -446
1595 11 138 145 244 345 286 539 24 110 24 341 0 450 -92 419 -408 746 -828
855 -95 24 -323 35 -423 20z m70 -416 c33 -22 46 -63 30 -100 -20 -48 -266
-467 -288 -491 -12 -14 -32 -23 -49 -23 -33 0 -78 39 -78 69 0 26 285 522 313
543 27 22 41 22 72 2z m242 -6 c18 -20 241 -397 286 -485 23 -44 21 -76 -5
-100 -72 -64 -90 -47 -256 244 -155 272 -163 295 -116 338 33 31 64 32 91 3z
m-687 -549 c7 -58 29 -91 76 -114 44 -21 105 -16 143 13 14 10 42 45 61 78
l37 59 139 8 c76 4 170 6 209 5 l69 -3 36 -65 c63 -112 158 -139 236 -67 28
25 37 43 42 82 l7 50 104 0 c96 0 104 -2 122 -24 10 -13 19 -36 19 -53 0 -36
-40 -78 -75 -78 -14 0 -25 -2 -25 -6 0 -29 -155 -575 -168 -594 -10 -14 -34
-33 -53 -42 -31 -16 -74 -18 -454 -18 -390 0 -423 1 -455 19 -48 26 -67 55
-89 141 -20 78 -58 221 -92 350 -11 41 -24 92 -30 113 -8 30 -14 37 -35 37
-30 0 -74 41 -74 69 0 31 20 68 44 79 11 6 62 10 111 9 l90 -2 5 -46z"/>
<path d="M772 1028 c-8 -8 -12 -66 -12 -194 0 -151 3 -184 15 -194 12 -10 21
-10 40 -2 l25 12 0 183 c0 187 -4 207 -40 207 -9 0 -21 -5 -28 -12z"/>
<path d="M1004 1015 c-15 -23 -16 -46 -10 -193 4 -92 12 -173 18 -179 14 -17
33 -16 52 3 13 13 16 45 16 193 0 124 -4 181 -12 189 -19 19 -46 14 -64 -13z"/>
<path d="M1246 1024 c-13 -13 -16 -44 -16 -185 0 -156 2 -171 20 -189 16 -16
25 -18 39 -11 15 9 19 29 24 147 4 75 7 156 7 180 0 43 -19 74 -45 74 -7 0
-21 -7 -29 -16z"/>
<path d="M1487 1022 c-14 -16 -17 -44 -17 -189 0 -155 2 -171 19 -187 15 -14
24 -15 40 -6 20 10 21 18 21 195 0 172 -1 185 -19 195 -25 13 -25 13 -44 -8z"/>
</g>
</svg>
