<svg id="Flow_Chart_-_EMC_Execute" data-name="Flow Chart - EMC Execute" xmlns="http://www.w3.org/2000/svg" xmlns:xlink="http://www.w3.org/1999/xlink" width="315.5" height="295.5" viewBox="0 0 315.5 295.5">
  <defs>
    <style>
      .cls-1, .cls-3, .cls-4, .cls-5 {
        fill: #f2f2f2;
      }

      .cls-1 {
        filter: url(#filter);
      }

      .cls-2 {
        fill: #6b6b6b;
      }

      .cls-2, .cls-6 {
        fill-rule: evenodd;
      }

      .cls-3 {
        filter: url(#filter-2);
      }

      .cls-4 {
        filter: url(#filter-3);
      }

      .cls-5 {
        stroke: #01a9da;
        stroke-linejoin: round;
        stroke-opacity: 0.42;
        stroke-width: 1px;
        filter: url(#filter-4);
      }

      .cls-6 {
        fill: #01a9da;
      }
    </style>
    <filter id="filter" x="122.5" y="229.5" width="115" height="66" filterUnits="userSpaceOnUse">
      <feOffset result="offset" dx="0.5" dy="0.866" in="SourceAlpha"/>
      <feGaussianBlur result="blur" stdDeviation="2"/>
      <feFlood result="flood" flood-opacity="0.26"/>
      <feComposite result="composite" operator="in" in2="blur"/>
      <feBlend result="blend" in="SourceGraphic"/>
    </filter>
    <filter id="filter-2" x="122.5" y="136.5" width="115" height="66" filterUnits="userSpaceOnUse">
      <feOffset result="offset" dx="0.5" dy="0.866" in="SourceAlpha"/>
      <feGaussianBlur result="blur" stdDeviation="2"/>
      <feFlood result="flood" flood-opacity="0.26"/>
      <feComposite result="composite" operator="in" in2="blur"/>
      <feBlend result="blend" in="SourceGraphic"/>
    </filter>
    <filter id="filter-3" x="122.5" y="68.5" width="115" height="66" filterUnits="userSpaceOnUse">
      <feOffset result="offset" dx="0.5" dy="0.866" in="SourceAlpha"/>
      <feGaussianBlur result="blur" stdDeviation="2"/>
      <feFlood result="flood" flood-opacity="0.26"/>
      <feComposite result="composite" operator="in" in2="blur"/>
      <feBlend result="blend" in="SourceGraphic"/>
    </filter>
    <filter id="filter-4" x="0.5" y="0.5" width="126" height="78" filterUnits="userSpaceOnUse">
      <feOffset result="offset" dx="0.5" dy="0.866" in="SourceAlpha"/>
      <feGaussianBlur result="blur" stdDeviation="2"/>
      <feFlood result="flood" flood-opacity="0.13"/>
      <feComposite result="composite" operator="in" in2="blur"/>
      <feGaussianBlur result="blur-2" stdDeviation="3.333" in="SourceAlpha"/>
      <feComposite result="composite-2"/>
      <feComposite result="composite-3"/>
      <feComposite result="composite-4"/>
      <feFlood result="flood-2" flood-color="#01a9da" flood-opacity="0.09"/>
      <feComposite result="composite-5" operator="in" in2="composite-4"/>
      <feBlend result="blend" in2="composite"/>
      <feBlend result="blend-2" in="SourceGraphic"/>
    </filter>
  </defs>
  <rect id="bg_copy_5" data-name="bg copy 5" class="cls-1" x="125.375" y="231.5" width="106.875" height="59"/>
  <path id="Control_and_correct_project_plan" data-name="Control and correct project plan" class="cls-2" d="M851.174,1110.25l0.457-.93a5.679,5.679,0,0,0-2.549-.53,4.669,4.669,0,0,0-2.38.58,3.848,3.848,0,0,0-1.547,1.66,5.607,5.607,0,0,0-.535,2.52,5.13,5.13,0,0,0,1.112,3.53,4.021,4.021,0,0,0,3.16,1.25,6.589,6.589,0,0,0,2.377-.37v-0.94a8.4,8.4,0,0,1-2.212.35,3.009,3.009,0,0,1-2.431-1,4.187,4.187,0,0,1-.852-2.81,4.114,4.114,0,0,1,.884-2.79,3.025,3.025,0,0,1,2.412-1.02,4.912,4.912,0,0,1,2.1.5h0Zm7.1,1.84a2.929,2.929,0,0,0-2.317-.97,3,3,0,0,0-2.358.94,3.851,3.851,0,0,0-.85,2.65,4.357,4.357,0,0,0,.393,1.92,2.864,2.864,0,0,0,1.116,1.26,3.147,3.147,0,0,0,1.654.44,3.006,3.006,0,0,0,2.365-.96,3.848,3.848,0,0,0,.855-2.66A3.8,3.8,0,0,0,858.271,1112.09Zm-3.908.6a1.857,1.857,0,0,1,1.559-.68,1.882,1.882,0,0,1,1.582.69,3.23,3.23,0,0,1,.535,2.01,3.287,3.287,0,0,1-.535,2.04,2.125,2.125,0,0,1-3.135,0,3.341,3.341,0,0,1-.532-2.04A3.263,3.263,0,0,1,854.363,1112.69Zm12.417,5.51v-4.54a2.593,2.593,0,0,0-.633-1.94,2.656,2.656,0,0,0-1.889-.6,2.919,2.919,0,0,0-1.3.28,2.16,2.16,0,0,0-.906.79H862l-0.171-.95h-0.856v6.96h1.052v-3.65a2.973,2.973,0,0,1,.507-1.95,2.008,2.008,0,0,1,1.6-.59,1.573,1.573,0,0,1,1.211.42,1.819,1.819,0,0,1,.386,1.27v4.5h1.052Zm3.588-1.08a1.408,1.408,0,0,1-.3-0.96v-4.1h2.016v-0.82H870.07v-1.61h-0.608l-0.444,1.49-1,.43v0.51h1v4.14a1.834,1.834,0,0,0,2.016,2.13,3.415,3.415,0,0,0,.6-0.06,1.918,1.918,0,0,0,.5-0.13v-0.81a3.856,3.856,0,0,1-.412.09,4.677,4.677,0,0,1-.539.04A1.053,1.053,0,0,1,870.368,1117.12Zm5.128-5.64a3.131,3.131,0,0,0-.931,1.05h-0.051l-0.121-1.29h-0.868v6.96h1.052v-3.73a2.518,2.518,0,0,1,.6-1.71,1.847,1.847,0,0,1,1.442-.69,3.858,3.858,0,0,1,.761.1l0.146-.98a4.2,4.2,0,0,0-.831-0.07A2.131,2.131,0,0,0,875.5,1111.48Zm8.466,0.61a2.929,2.929,0,0,0-2.317-.97,3,3,0,0,0-2.358.94,3.856,3.856,0,0,0-.849,2.65,4.343,4.343,0,0,0,.393,1.92,2.861,2.861,0,0,0,1.115,1.26,3.148,3.148,0,0,0,1.655.44,3,3,0,0,0,2.364-.96,3.844,3.844,0,0,0,.856-2.66A3.8,3.8,0,0,0,883.962,1112.09Zm-3.908.6a1.858,1.858,0,0,1,1.559-.68,1.879,1.879,0,0,1,1.582.69,3.23,3.23,0,0,1,.535,2.01,3.287,3.287,0,0,1-.535,2.04,2.125,2.125,0,0,1-3.135,0,3.341,3.341,0,0,1-.532-2.04A3.263,3.263,0,0,1,880.054,1112.69Zm7.664-4.37h-1.053v9.88h1.053v-9.88Zm-49.811,25.48v-4.75a2.312,2.312,0,0,0-.6-1.77,2.634,2.634,0,0,0-1.841-.55,4.688,4.688,0,0,0-1.227.16,4.935,4.935,0,0,0-1.125.43l0.323,0.81a4.649,4.649,0,0,1,1.965-.53,1.445,1.445,0,0,1,1.125.39,1.758,1.758,0,0,1,.352,1.21v0.43l-1.179.04c-2.244.06-3.366,0.8-3.366,2.21a1.931,1.931,0,0,0,.587,1.51,2.3,2.3,0,0,0,1.619.54,3.057,3.057,0,0,0,1.29-.24,2.814,2.814,0,0,0,1.036-.88h0.051l0.209,0.99h0.78Zm-4.123-1.04a1.088,1.088,0,0,1-.346-0.87,1.18,1.18,0,0,1,.555-1.08,3.837,3.837,0,0,1,1.81-.39l1.052-.04v0.63a2.008,2.008,0,0,1-.561,1.51,2.134,2.134,0,0,1-1.544.54A1.425,1.425,0,0,1,833.784,1132.76Zm12.1,1.04v-4.54a2.589,2.589,0,0,0-.634-1.94,2.653,2.653,0,0,0-1.889-.6,2.918,2.918,0,0,0-1.3.28,2.16,2.16,0,0,0-.906.79H841.1l-0.171-.95h-0.856v6.96h1.052v-3.65a2.973,2.973,0,0,1,.507-1.95,2.008,2.008,0,0,1,1.6-.59,1.569,1.569,0,0,1,1.21.42,1.814,1.814,0,0,1,.387,1.27v4.5h1.052Zm7.03,0h0.856v-9.88h-1.052v2.83l0.025,0.49,0.044,0.5H852.7a2.824,2.824,0,0,0-4.285-.07,4.159,4.159,0,0,0-.761,2.67,4.091,4.091,0,0,0,.758,2.65,2.559,2.559,0,0,0,2.12.94,2.487,2.487,0,0,0,2.181-1.06h0.057Zm-3.676-1.44a3.417,3.417,0,0,1-.489-2.01,3.579,3.579,0,0,1,.492-2.03,1.608,1.608,0,0,1,1.416-.72,1.865,1.865,0,0,1,1.569.63,3.478,3.478,0,0,1,.492,2.11v0.22a2.989,2.989,0,0,1-.485,1.9,1.919,1.919,0,0,1-1.563.58A1.634,1.634,0,0,1,849.235,1132.36Zm14.668,1.2v-0.93a4.684,4.684,0,0,1-1.782.38,1.79,1.79,0,0,1-1.53-.69,3.222,3.222,0,0,1-.517-1.97q0-2.7,2.117-2.7a3.47,3.47,0,0,1,.729.09,5.158,5.158,0,0,1,.761.23l0.323-.89a3.521,3.521,0,0,0-.786-0.26,4.866,4.866,0,0,0-1-.1,3,3,0,0,0-2.392.95,3.934,3.934,0,0,0-.84,2.7,3.829,3.829,0,0,0,.827,2.63,2.962,2.962,0,0,0,2.336.93,3.684,3.684,0,0,0,1.756-.37h0Zm6.785-5.87a2.927,2.927,0,0,0-2.317-.97,3.007,3.007,0,0,0-2.358.94,3.856,3.856,0,0,0-.849,2.65,4.357,4.357,0,0,0,.393,1.92,2.864,2.864,0,0,0,1.116,1.26,3.145,3.145,0,0,0,1.654.44,3,3,0,0,0,2.364-.96,3.844,3.844,0,0,0,.856-2.66A3.8,3.8,0,0,0,870.688,1127.69Zm-3.908.6a2.143,2.143,0,0,1,3.141.01,3.229,3.229,0,0,1,.536,2.01,3.286,3.286,0,0,1-.536,2.04,2.124,2.124,0,0,1-3.134,0,3.34,3.34,0,0,1-.533-2.04A3.27,3.27,0,0,1,866.78,1128.29Zm8.583-1.21a3.144,3.144,0,0,0-.932,1.05h-0.05l-0.121-1.29h-0.868v6.96h1.052v-3.73a2.518,2.518,0,0,1,.6-1.71,1.845,1.845,0,0,1,1.442-.69,3.867,3.867,0,0,1,.761.1l0.146-.98a4.2,4.2,0,0,0-.831-0.07A2.131,2.131,0,0,0,875.363,1127.08Zm5.3,0a3.131,3.131,0,0,0-.931,1.05H879.68l-0.12-1.29h-0.869v6.96h1.052v-3.73a2.518,2.518,0,0,1,.6-1.71,1.847,1.847,0,0,1,1.442-.69,3.858,3.858,0,0,1,.761.1l0.146-.98a4.2,4.2,0,0,0-.83-0.07A2.132,2.132,0,0,0,880.662,1127.08Zm7.464,6.74a5.591,5.591,0,0,0,1.056-.34v-0.94a5.646,5.646,0,0,1-2.219.47,2.15,2.15,0,0,1-1.651-.64,2.747,2.747,0,0,1-.618-1.86h4.786v-0.67a3.286,3.286,0,0,0-.761-2.26,2.6,2.6,0,0,0-2.066-.86,2.746,2.746,0,0,0-2.222.99,4.03,4.03,0,0,0-.827,2.67,3.657,3.657,0,0,0,.89,2.61,3.213,3.213,0,0,0,2.431.94A5.868,5.868,0,0,0,888.126,1133.82Zm-0.218-5.69a2.3,2.3,0,0,1,.443,1.52h-3.632a2.538,2.538,0,0,1,.587-1.51,1.724,1.724,0,0,1,1.334-.54A1.542,1.542,0,0,1,887.908,1128.13Zm7.9,5.43v-0.93a4.68,4.68,0,0,1-1.781.38,1.792,1.792,0,0,1-1.531-.69,3.222,3.222,0,0,1-.517-1.97q0-2.7,2.117-2.7a3.455,3.455,0,0,1,.729.09,5.122,5.122,0,0,1,.761.23l0.323-.89a3.521,3.521,0,0,0-.786-0.26,4.856,4.856,0,0,0-1-.1,3,3,0,0,0-2.393.95,3.934,3.934,0,0,0-.84,2.7,3.834,3.834,0,0,0,.827,2.63,2.964,2.964,0,0,0,2.336.93,3.682,3.682,0,0,0,1.756-.37h0Zm3.074-.84a1.408,1.408,0,0,1-.3-0.96v-4.1H900.6v-0.82h-2.016v-1.61h-0.608l-0.444,1.49-1,.43v0.51h1v4.14a1.834,1.834,0,0,0,2.016,2.13,3.415,3.415,0,0,0,.6-0.06,1.918,1.918,0,0,0,.5-0.13v-0.81a3.856,3.856,0,0,1-.412.09,4.677,4.677,0,0,1-.539.04A1.053,1.053,0,0,1,898.88,1132.72Zm-62.193,15.86a5.046,5.046,0,0,0,.012-5.32,2.562,2.562,0,0,0-2.133-.94,2.861,2.861,0,0,0-1.236.25,2.439,2.439,0,0,0-.944.82h-0.051l-0.146-.95h-0.855v10.08h1.052v-2.86a9.457,9.457,0,0,0-.076-1.16h0.076a2.348,2.348,0,0,0,.941.78,3.122,3.122,0,0,0,1.239.25A2.579,2.579,0,0,0,836.687,1148.58Zm-0.837-4.67a3.3,3.3,0,0,1,.51,1.99,3.434,3.434,0,0,1-.51,2.01,1.619,1.619,0,0,1-1.41.73,1.857,1.857,0,0,1-1.566-.63,3.488,3.488,0,0,1-.488-2.1v-0.23a3.032,3.032,0,0,1,.488-1.88,1.873,1.873,0,0,1,1.54-.59A1.666,1.666,0,0,1,835.85,1143.91Zm5.41-1.23a3.144,3.144,0,0,0-.932,1.05h-0.05l-0.121-1.29h-0.868v6.96h1.052v-3.73a2.518,2.518,0,0,1,.6-1.71,1.847,1.847,0,0,1,1.442-.69,3.867,3.867,0,0,1,.761.1l0.146-.98a4.2,4.2,0,0,0-.831-0.07A2.131,2.131,0,0,0,841.26,1142.68Zm8.466,0.61a2.929,2.929,0,0,0-2.317-.97,3,3,0,0,0-2.358.94,3.856,3.856,0,0,0-.849,2.65,4.343,4.343,0,0,0,.393,1.92,2.855,2.855,0,0,0,1.115,1.26,3.148,3.148,0,0,0,1.655.44,3.005,3.005,0,0,0,2.364-.96,3.849,3.849,0,0,0,.856-2.66A3.8,3.8,0,0,0,849.726,1143.29Zm-3.908.6a1.858,1.858,0,0,1,1.559-.68,1.879,1.879,0,0,1,1.582.69,3.23,3.23,0,0,1,.535,2.01,3.287,3.287,0,0,1-.535,2.04,2.125,2.125,0,0,1-3.135,0,3.341,3.341,0,0,1-.532-2.04A3.263,3.263,0,0,1,845.818,1143.89Zm7.664,6.58v-8.03h-1.053v8.1a1.231,1.231,0,0,1-.231.82,0.9,0.9,0,0,1-.726.27,3.251,3.251,0,0,1-.862-0.12v0.85a2.45,2.45,0,0,0,.976.16,1.746,1.746,0,0,0,1.9-2.05h0Zm-0.964-9.38a0.656,0.656,0,0,0,.881,0,0.713,0.713,0,0,0,.184-0.53,0.683,0.683,0,0,0-.184-0.53,0.656,0.656,0,0,0-.881,0,0.7,0.7,0,0,0-.177.53A0.731,0.731,0,0,0,852.518,1141.09Zm7.331,8.33a5.583,5.583,0,0,0,1.055-.34v-0.94a5.641,5.641,0,0,1-2.218.47,2.152,2.152,0,0,1-1.652-.64,2.757,2.757,0,0,1-.618-1.86H861.2v-0.67a3.286,3.286,0,0,0-.76-2.26,2.6,2.6,0,0,0-2.067-.86,2.747,2.747,0,0,0-2.222.99,4.035,4.035,0,0,0-.827,2.67,3.653,3.653,0,0,0,.891,2.61,3.212,3.212,0,0,0,2.431.94A5.875,5.875,0,0,0,859.849,1149.42Zm-0.219-5.69a2.3,2.3,0,0,1,.444,1.52h-3.632a2.537,2.537,0,0,1,.586-1.51,1.727,1.727,0,0,1,1.334-.54A1.541,1.541,0,0,1,859.63,1143.73Zm7.9,5.43v-0.93a4.676,4.676,0,0,1-1.781.38,1.793,1.793,0,0,1-1.531-.69,3.229,3.229,0,0,1-.516-1.97q0-2.7,2.117-2.7a3.47,3.47,0,0,1,.729.09,5.158,5.158,0,0,1,.761.23l0.323-.89a3.521,3.521,0,0,0-.786-0.26,4.866,4.866,0,0,0-1-.1,3,3,0,0,0-2.393.95,3.934,3.934,0,0,0-.84,2.7,3.829,3.829,0,0,0,.828,2.63,2.962,2.962,0,0,0,2.336.93,3.677,3.677,0,0,0,1.755-.37h0Zm3.075-.84a1.4,1.4,0,0,1-.3-0.96v-4.1h2.016v-0.82h-2.016v-1.61H869.7l-0.443,1.49-1,.43v0.51h1v4.14a1.833,1.833,0,0,0,2.015,2.13,3.406,3.406,0,0,0,.6-0.06,1.918,1.918,0,0,0,.5-0.13v-0.81a3.8,3.8,0,0,1-.412.09,4.66,4.66,0,0,1-.539.04A1.051,1.051,0,0,1,870.6,1148.32Zm11.882,0.26a5.049,5.049,0,0,0,.013-5.32,2.564,2.564,0,0,0-2.133-.94,2.863,2.863,0,0,0-1.237.25,2.439,2.439,0,0,0-.944.82h-0.051l-0.146-.95h-0.855v10.08h1.052v-2.86a9.457,9.457,0,0,0-.076-1.16h0.076a2.354,2.354,0,0,0,.941.78,3.123,3.123,0,0,0,1.24.25A2.578,2.578,0,0,0,882.485,1148.58Zm-0.837-4.67a3.3,3.3,0,0,1,.51,1.99,3.434,3.434,0,0,1-.51,2.01,1.619,1.619,0,0,1-1.41.73,1.857,1.857,0,0,1-1.566-.63,3.488,3.488,0,0,1-.488-2.1v-0.23a3.032,3.032,0,0,1,.488-1.88,1.873,1.873,0,0,1,1.54-.59A1.666,1.666,0,0,1,881.648,1143.91Zm4.491-4.39h-1.052v9.88h1.052v-9.88Zm7.284,9.88v-4.75a2.312,2.312,0,0,0-.6-1.77,2.638,2.638,0,0,0-1.842-.55,4.675,4.675,0,0,0-1.226.16,4.962,4.962,0,0,0-1.126.43l0.324,0.81a4.649,4.649,0,0,1,1.965-.53,1.448,1.448,0,0,1,1.125.39,1.763,1.763,0,0,1,.352,1.21v0.43l-1.179.04c-2.244.06-3.366,0.8-3.366,2.21a1.93,1.93,0,0,0,.586,1.51,2.3,2.3,0,0,0,1.62.54,3.063,3.063,0,0,0,1.29-.24,2.822,2.822,0,0,0,1.036-.88h0.051l0.209,0.99h0.78Zm-4.124-1.04a1.091,1.091,0,0,1-.345-0.87,1.179,1.179,0,0,1,.554-1.08,3.837,3.837,0,0,1,1.81-.39l1.052-.04v0.63a2.008,2.008,0,0,1-.561,1.51,2.132,2.132,0,0,1-1.543.54A1.428,1.428,0,0,1,889.3,1148.36Zm12.1,1.04v-4.54a2.594,2.594,0,0,0-.634-1.94,2.654,2.654,0,0,0-1.889-.6,2.919,2.919,0,0,0-1.3.28,2.172,2.172,0,0,0-.906.79h-0.051l-0.171-.95H895.59v6.96h1.053v-3.65a2.973,2.973,0,0,1,.507-1.95,2.006,2.006,0,0,1,1.6-.59,1.573,1.573,0,0,1,1.211.42,1.814,1.814,0,0,1,.387,1.27v4.5H901.4Z" transform="translate(-687.5 -869.5)"/>
  <path id="Corrective_actions" data-name="Corrective actions" class="cls-2" d="M819.483,1081.25l0.457-.93a5.679,5.679,0,0,0-2.549-.53,4.669,4.669,0,0,0-2.38.58,3.848,3.848,0,0,0-1.547,1.66,5.607,5.607,0,0,0-.535,2.52,5.13,5.13,0,0,0,1.112,3.53,4.021,4.021,0,0,0,3.16,1.25,6.589,6.589,0,0,0,2.377-.37v-0.94a8.4,8.4,0,0,1-2.212.35,3.009,3.009,0,0,1-2.431-1,4.187,4.187,0,0,1-.852-2.81,4.114,4.114,0,0,1,.884-2.79,3.025,3.025,0,0,1,2.412-1.02,4.912,4.912,0,0,1,2.1.5h0Zm7.1,1.84a2.929,2.929,0,0,0-2.317-.97,3,3,0,0,0-2.358.94,3.851,3.851,0,0,0-.85,2.65,4.357,4.357,0,0,0,.393,1.92,2.864,2.864,0,0,0,1.116,1.26,3.147,3.147,0,0,0,1.654.44,3.006,3.006,0,0,0,2.365-.96,3.848,3.848,0,0,0,.855-2.66A3.8,3.8,0,0,0,826.58,1083.09Zm-3.908.6a1.857,1.857,0,0,1,1.559-.68,1.882,1.882,0,0,1,1.582.69,3.23,3.23,0,0,1,.535,2.01,3.287,3.287,0,0,1-.535,2.04,2.125,2.125,0,0,1-3.135,0,3.341,3.341,0,0,1-.532-2.04A3.263,3.263,0,0,1,822.672,1083.69Zm8.582-1.21a3.131,3.131,0,0,0-.931,1.05h-0.051l-0.121-1.29h-0.868v6.96h1.052v-3.73a2.518,2.518,0,0,1,.6-1.71,1.847,1.847,0,0,1,1.442-.69,3.858,3.858,0,0,1,.761.1l0.146-.98a4.2,4.2,0,0,0-.831-0.07A2.131,2.131,0,0,0,831.254,1082.48Zm5.3,0a3.133,3.133,0,0,0-.932,1.05h-0.051l-0.12-1.29h-0.869v6.96h1.053v-3.73a2.513,2.513,0,0,1,.6-1.71,1.845,1.845,0,0,1,1.442-.69,3.858,3.858,0,0,1,.76.1l0.146-.98a4.2,4.2,0,0,0-.83-0.07A2.126,2.126,0,0,0,836.554,1082.48Zm7.464,6.74a5.606,5.606,0,0,0,1.055-.34v-0.94a5.645,5.645,0,0,1-2.218.47,2.152,2.152,0,0,1-1.652-.64,2.747,2.747,0,0,1-.618-1.86h4.786v-0.67a3.286,3.286,0,0,0-.761-2.26,2.6,2.6,0,0,0-2.066-.86,2.747,2.747,0,0,0-2.222.99,4.035,4.035,0,0,0-.827,2.67,3.653,3.653,0,0,0,.891,2.61,3.211,3.211,0,0,0,2.43.94A5.878,5.878,0,0,0,844.018,1089.22Zm-0.219-5.69a2.3,2.3,0,0,1,.444,1.52h-3.632a2.537,2.537,0,0,1,.586-1.51,1.726,1.726,0,0,1,1.334-.54A1.541,1.541,0,0,1,843.8,1083.53Zm7.9,5.43v-0.93a4.676,4.676,0,0,1-1.781.38,1.793,1.793,0,0,1-1.531-.69,3.229,3.229,0,0,1-.516-1.97q0-2.7,2.117-2.7a3.47,3.47,0,0,1,.729.09,5.144,5.144,0,0,1,.76.23l0.324-.89a3.557,3.557,0,0,0-.786-0.26,4.866,4.866,0,0,0-1-.1,3,3,0,0,0-2.393.95,3.934,3.934,0,0,0-.84,2.7,3.834,3.834,0,0,0,.827,2.63,2.965,2.965,0,0,0,2.336.93,3.682,3.682,0,0,0,1.756-.37h0Zm3.075-.84a1.4,1.4,0,0,1-.3-0.96v-4.1h2.015v-0.82h-2.015v-1.61h-0.609l-0.444,1.49-1,.43v0.51h1v4.14a1.834,1.834,0,0,0,2.016,2.13,3.406,3.406,0,0,0,.6-0.06,1.918,1.918,0,0,0,.5-0.13v-0.81a3.8,3.8,0,0,1-.412.09,4.66,4.66,0,0,1-.539.04A1.051,1.051,0,0,1,854.772,1088.12Zm4.208-5.88h-1.052v6.96h1.052v-6.96Zm-0.963-1.35a0.63,0.63,0,0,0,.444.17,0.637,0.637,0,0,0,.437-0.17,0.713,0.713,0,0,0,.184-0.53,0.683,0.683,0,0,0-.184-0.53,0.637,0.637,0,0,0-.437-0.17,0.63,0.63,0,0,0-.444.17,0.7,0.7,0,0,0-.177.53A0.731,0.731,0,0,0,858.017,1080.89Zm5.946,8.31,2.637-6.96h-1.129q-1.293,3.555-1.663,4.61a13.792,13.792,0,0,0-.441,1.4h-0.051a18.894,18.894,0,0,0-.6-1.88l-1.5-4.13H860.1l2.637,6.96h1.23Zm7.889,0.02a5.606,5.606,0,0,0,1.055-.34v-0.94a5.646,5.646,0,0,1-2.219.47,2.15,2.15,0,0,1-1.651-.64,2.747,2.747,0,0,1-.618-1.86h4.786v-0.67a3.286,3.286,0,0,0-.761-2.26,2.6,2.6,0,0,0-2.066-.86,2.746,2.746,0,0,0-2.222.99,4.03,4.03,0,0,0-.827,2.67,3.657,3.657,0,0,0,.89,2.61,3.213,3.213,0,0,0,2.431.94A5.885,5.885,0,0,0,871.852,1089.22Zm-0.219-5.69a2.3,2.3,0,0,1,.444,1.52h-3.633a2.544,2.544,0,0,1,.587-1.51,1.724,1.724,0,0,1,1.334-.54A1.542,1.542,0,0,1,871.633,1083.53Zm11.79,5.67v-4.75a2.312,2.312,0,0,0-.6-1.77,2.634,2.634,0,0,0-1.841-.55,4.688,4.688,0,0,0-1.227.16,4.935,4.935,0,0,0-1.125.43l0.323,0.81a4.649,4.649,0,0,1,1.965-.53,1.445,1.445,0,0,1,1.125.39,1.758,1.758,0,0,1,.352,1.21v0.43l-1.179.04c-2.244.06-3.366,0.8-3.366,2.21a1.931,1.931,0,0,0,.587,1.51,2.3,2.3,0,0,0,1.619.54,3.057,3.057,0,0,0,1.29-.24,2.814,2.814,0,0,0,1.036-.88h0.051l0.209,0.99h0.78Zm-4.123-1.04a1.088,1.088,0,0,1-.346-0.87,1.18,1.18,0,0,1,.555-1.08,3.837,3.837,0,0,1,1.81-.39l1.052-.04v0.63a2.008,2.008,0,0,1-.561,1.51,2.134,2.134,0,0,1-1.544.54A1.425,1.425,0,0,1,879.3,1088.16Zm10.823,0.8v-0.93a4.676,4.676,0,0,1-1.781.38,1.793,1.793,0,0,1-1.531-.69,3.229,3.229,0,0,1-.516-1.97q0-2.7,2.117-2.7a3.47,3.47,0,0,1,.729.09,5.144,5.144,0,0,1,.76.23l0.324-.89a3.557,3.557,0,0,0-.786-0.26,4.866,4.866,0,0,0-1-.1,3,3,0,0,0-2.393.95,3.934,3.934,0,0,0-.84,2.7,3.834,3.834,0,0,0,.827,2.63,2.965,2.965,0,0,0,2.336.93,3.682,3.682,0,0,0,1.756-.37h0Zm3.075-.84a1.4,1.4,0,0,1-.3-0.96v-4.1h2.015v-0.82H892.9v-1.61h-0.609l-0.444,1.49-1,.43v0.51h1v4.14a1.834,1.834,0,0,0,2.016,2.13,3.406,3.406,0,0,0,.6-0.06,1.918,1.918,0,0,0,.5-0.13v-0.81a3.8,3.8,0,0,1-.412.09,4.66,4.66,0,0,1-.539.04A1.051,1.051,0,0,1,893.2,1088.12Zm4.209-5.88h-1.053v6.96h1.053v-6.96Zm-0.964-1.35a0.63,0.63,0,0,0,.444.17,0.637,0.637,0,0,0,.437-0.17,0.713,0.713,0,0,0,.184-0.53,0.683,0.683,0,0,0-.184-0.53,0.637,0.637,0,0,0-.437-0.17,0.63,0.63,0,0,0-.444.17,0.7,0.7,0,0,0-.177.53A0.731,0.731,0,0,0,896.443,1080.89Zm8.332,2.2a2.927,2.927,0,0,0-2.316-.97,3,3,0,0,0-2.358.94,3.851,3.851,0,0,0-.85,2.65,4.357,4.357,0,0,0,.393,1.92,2.864,2.864,0,0,0,1.116,1.26,3.147,3.147,0,0,0,1.654.44,3.006,3.006,0,0,0,2.365-.96,3.848,3.848,0,0,0,.855-2.66A3.8,3.8,0,0,0,904.775,1083.09Zm-3.907.6a1.857,1.857,0,0,1,1.559-.68,1.879,1.879,0,0,1,1.581.69,3.229,3.229,0,0,1,.536,2.01,3.286,3.286,0,0,1-.536,2.04,2.124,2.124,0,0,1-3.134,0,3.34,3.34,0,0,1-.533-2.04A3.263,3.263,0,0,1,900.868,1083.69Zm12.417,5.51v-4.54a2.589,2.589,0,0,0-.634-1.94,2.653,2.653,0,0,0-1.889-.6,2.918,2.918,0,0,0-1.3.28,2.16,2.16,0,0,0-.906.79h-0.051l-0.171-.95h-0.856v6.96h1.052v-3.65a2.973,2.973,0,0,1,.507-1.95,2.008,2.008,0,0,1,1.6-.59,1.569,1.569,0,0,1,1.21.42,1.814,1.814,0,0,1,.387,1.27v4.5h1.052Zm6.209-3.05a4.756,4.756,0,0,0-1.67-.91,9.489,9.489,0,0,1-1.217-.51,1.431,1.431,0,0,1-.46-0.37,0.791,0.791,0,0,1-.142-0.48,0.739,0.739,0,0,1,.38-0.65,2.253,2.253,0,0,1,1.128-.23,4.984,4.984,0,0,1,1.9.43l0.374-.86a5.62,5.62,0,0,0-2.194-.45,3.2,3.2,0,0,0-1.9.49,1.555,1.555,0,0,0-.691,1.34,1.6,1.6,0,0,0,.2.82,1.868,1.868,0,0,0,.608.61,7.37,7.37,0,0,0,1.379.63,5.48,5.48,0,0,1,1.372.69,0.9,0.9,0,0,1-.092,1.49,2.451,2.451,0,0,1-1.267.27,4.365,4.365,0,0,1-1.106-.15,5.318,5.318,0,0,1-1.075-.4v0.98a4.427,4.427,0,0,0,2.155.44,3.4,3.4,0,0,0,2.029-.53,1.741,1.741,0,0,0,.722-1.5A1.613,1.613,0,0,0,919.494,1086.15Z" transform="translate(-687.5 -869.5)"/>
  <rect id="bg_copy_4" data-name="bg copy 4" class="cls-3" x="125.375" y="138.5" width="106.875" height="59"/>
  <path id="Monitor_project_plan" data-name="Monitor project plan" class="cls-2" d="M848.306,1025.2l3.169-8.21h0.051c-0.059.8-.089,1.54-0.089,2.23v5.98h1.078v-9.28h-1.61l-2.96,7.65h-0.051l-2.935-7.65h-1.623v9.28h1v-5.9c0-.9-0.029-1.68-0.088-2.33h0.05l3.144,8.23h0.869Zm11.73-6.11a2.929,2.929,0,0,0-2.317-.97,3,3,0,0,0-2.358.94,3.856,3.856,0,0,0-.849,2.65,4.357,4.357,0,0,0,.393,1.92,2.868,2.868,0,0,0,1.115,1.26,3.148,3.148,0,0,0,1.655.44,3,3,0,0,0,2.364-.96,3.844,3.844,0,0,0,.856-2.66A3.8,3.8,0,0,0,860.036,1019.09Zm-3.908.6a1.86,1.86,0,0,1,1.559-.68,1.879,1.879,0,0,1,1.582.69,3.229,3.229,0,0,1,.536,2.01,3.286,3.286,0,0,1-.536,2.04,2.125,2.125,0,0,1-3.135,0,3.341,3.341,0,0,1-.532-2.04A3.263,3.263,0,0,1,856.128,1019.69Zm12.418,5.51v-4.54a2.594,2.594,0,0,0-.634-1.94,2.654,2.654,0,0,0-1.889-.6,2.919,2.919,0,0,0-1.3.28,2.172,2.172,0,0,0-.906.79h-0.051l-0.171-.95h-0.856v6.96h1.053v-3.65a2.973,2.973,0,0,1,.507-1.95,2.006,2.006,0,0,1,1.6-.59,1.573,1.573,0,0,1,1.211.42,1.814,1.814,0,0,1,.387,1.27v4.5h1.052Zm3.214-6.96h-1.053v6.96h1.053v-6.96Zm-0.964-1.35a0.656,0.656,0,0,0,.881,0,0.713,0.713,0,0,0,.184-0.53,0.683,0.683,0,0,0-.184-0.53,0.656,0.656,0,0,0-.881,0,0.7,0.7,0,0,0-.177.53A0.731,0.731,0,0,0,870.8,1016.89Zm4.621,7.23a1.4,1.4,0,0,1-.3-0.96v-4.1h2.016v-0.82h-2.016v-1.61h-0.608l-0.444,1.49-1,.43v0.51h1v4.14a1.834,1.834,0,0,0,2.016,2.13,3.415,3.415,0,0,0,.6-0.06,1.918,1.918,0,0,0,.5-0.13v-0.81a3.856,3.856,0,0,1-.412.09,4.677,4.677,0,0,1-.539.04A1.053,1.053,0,0,1,875.417,1024.12Zm8.294-5.03a2.925,2.925,0,0,0-2.316-.97,3,3,0,0,0-2.358.94,3.851,3.851,0,0,0-.85,2.65,4.357,4.357,0,0,0,.393,1.92,2.864,2.864,0,0,0,1.116,1.26,3.147,3.147,0,0,0,1.654.44,3.006,3.006,0,0,0,2.365-.96,3.848,3.848,0,0,0,.855-2.66A3.8,3.8,0,0,0,883.711,1019.09Zm-3.907.6a1.857,1.857,0,0,1,1.559-.68,1.879,1.879,0,0,1,1.581.69,3.223,3.223,0,0,1,.536,2.01,3.28,3.28,0,0,1-.536,2.04,2.124,2.124,0,0,1-3.134,0,3.34,3.34,0,0,1-.533-2.04A3.263,3.263,0,0,1,879.8,1019.69Zm8.582-1.21a3.131,3.131,0,0,0-.931,1.05H887.4l-0.121-1.29h-0.868v6.96h1.052v-3.73a2.518,2.518,0,0,1,.6-1.71,1.847,1.847,0,0,1,1.442-.69,3.858,3.858,0,0,1,.761.1l0.146-.98a4.2,4.2,0,0,0-.831-0.07A2.131,2.131,0,0,0,888.386,1018.48Zm-36.8,21.5a5.049,5.049,0,0,0,.013-5.32,2.564,2.564,0,0,0-2.133-.94,2.855,2.855,0,0,0-1.236.25,2.449,2.449,0,0,0-.945.82h-0.05l-0.146-.95h-0.856v10.08h1.052v-2.86a9.457,9.457,0,0,0-.076-1.16h0.076a2.357,2.357,0,0,0,.942.78,3.122,3.122,0,0,0,1.239.25A2.578,2.578,0,0,0,851.586,1039.98Zm-0.836-4.67a3.3,3.3,0,0,1,.51,1.99,3.434,3.434,0,0,1-.51,2.01,1.622,1.622,0,0,1-1.411.73,1.859,1.859,0,0,1-1.566-.63,3.488,3.488,0,0,1-.488-2.1v-0.23a3.038,3.038,0,0,1,.488-1.88,1.875,1.875,0,0,1,1.541-.59A1.667,1.667,0,0,1,850.75,1035.31Zm5.41-1.23a3.133,3.133,0,0,0-.932,1.05h-0.051l-0.12-1.29h-0.869v6.96h1.053v-3.73a2.513,2.513,0,0,1,.6-1.71,1.845,1.845,0,0,1,1.442-.69,3.858,3.858,0,0,1,.76.1l0.146-.98a4.2,4.2,0,0,0-.83-0.07A2.126,2.126,0,0,0,856.16,1034.08Zm8.465,0.61a2.927,2.927,0,0,0-2.317-.97,3.007,3.007,0,0,0-2.358.94,3.856,3.856,0,0,0-.849,2.65,4.357,4.357,0,0,0,.393,1.92,2.864,2.864,0,0,0,1.116,1.26,3.145,3.145,0,0,0,1.654.44,3,3,0,0,0,2.364-.96,3.844,3.844,0,0,0,.856-2.66A3.8,3.8,0,0,0,864.625,1034.69Zm-3.908.6a2.143,2.143,0,0,1,3.141.01,3.229,3.229,0,0,1,.536,2.01,3.286,3.286,0,0,1-.536,2.04,2.124,2.124,0,0,1-3.134,0,3.34,3.34,0,0,1-.533-2.04A3.27,3.27,0,0,1,860.717,1035.29Zm7.664,6.58v-8.03h-1.052v8.1a1.225,1.225,0,0,1-.232.82,0.9,0.9,0,0,1-.725.27,3.258,3.258,0,0,1-.863-0.12v0.85a2.455,2.455,0,0,0,.977.16,1.746,1.746,0,0,0,1.895-2.05h0Zm-0.964-9.38a0.633,0.633,0,0,0,.444.17,0.64,0.64,0,0,0,.438-0.17,0.717,0.717,0,0,0,.183-0.53,0.686,0.686,0,0,0-.183-0.53,0.64,0.64,0,0,0-.438-0.17,0.633,0.633,0,0,0-.444.17,0.7,0.7,0,0,0-.177.53A0.731,0.731,0,0,0,867.417,1032.49Zm7.331,8.33a5.591,5.591,0,0,0,1.056-.34v-0.94a5.646,5.646,0,0,1-2.219.47,2.15,2.15,0,0,1-1.651-.64,2.747,2.747,0,0,1-.618-1.86H876.1v-0.67a3.286,3.286,0,0,0-.761-2.26,2.6,2.6,0,0,0-2.066-.86,2.746,2.746,0,0,0-2.222.99,4.03,4.03,0,0,0-.827,2.67,3.652,3.652,0,0,0,.89,2.61,3.213,3.213,0,0,0,2.431.94A5.868,5.868,0,0,0,874.748,1040.82Zm-0.218-5.69a2.306,2.306,0,0,1,.443,1.52h-3.632a2.538,2.538,0,0,1,.587-1.51,1.724,1.724,0,0,1,1.334-.54A1.542,1.542,0,0,1,874.53,1035.13Zm7.9,5.43v-0.93a4.68,4.68,0,0,1-1.781.38,1.79,1.79,0,0,1-1.531-.69,3.222,3.222,0,0,1-.517-1.97q0-2.7,2.117-2.7a3.455,3.455,0,0,1,.729.09,5.122,5.122,0,0,1,.761.23l0.323-.89a3.521,3.521,0,0,0-.786-0.26,4.863,4.863,0,0,0-1-.1,3,3,0,0,0-2.393.95,3.934,3.934,0,0,0-.84,2.7,3.834,3.834,0,0,0,.827,2.63,2.964,2.964,0,0,0,2.336.93,3.682,3.682,0,0,0,1.756-.37h0Zm3.074-.84a1.4,1.4,0,0,1-.3-0.96v-4.1h2.016v-0.82H885.2v-1.61H884.6l-0.444,1.49-1,.43v0.51h1v4.14a1.834,1.834,0,0,0,2.016,2.13,3.415,3.415,0,0,0,.6-0.06,1.918,1.918,0,0,0,.5-0.13v-0.81a3.856,3.856,0,0,1-.412.09,4.677,4.677,0,0,1-.539.04A1.053,1.053,0,0,1,885.5,1039.72Zm-25.916,15.86a5.049,5.049,0,0,0,.013-5.32,2.564,2.564,0,0,0-2.133-.94,2.863,2.863,0,0,0-1.237.25,2.439,2.439,0,0,0-.944.82h-0.051l-0.146-.95h-0.855v10.08h1.052v-2.86a9.457,9.457,0,0,0-.076-1.16h0.076a2.354,2.354,0,0,0,.941.78,3.123,3.123,0,0,0,1.24.25A2.578,2.578,0,0,0,859.586,1055.58Zm-0.837-4.67a3.3,3.3,0,0,1,.51,1.99,3.434,3.434,0,0,1-.51,2.01,1.619,1.619,0,0,1-1.41.73,1.857,1.857,0,0,1-1.566-.63,3.488,3.488,0,0,1-.488-2.1v-0.23a3.032,3.032,0,0,1,.488-1.88,1.873,1.873,0,0,1,1.54-.59A1.666,1.666,0,0,1,858.749,1050.91Zm4.491-4.39h-1.052v9.88h1.052v-9.88Zm7.284,9.88v-4.75a2.309,2.309,0,0,0-.6-1.77,2.634,2.634,0,0,0-1.841-.55,4.688,4.688,0,0,0-1.227.16,4.972,4.972,0,0,0-1.125.43l0.324,0.81a4.649,4.649,0,0,1,1.965-.53,1.448,1.448,0,0,1,1.125.39,1.763,1.763,0,0,1,.352,1.21v0.43l-1.179.04c-2.244.06-3.366,0.8-3.366,2.21a1.93,1.93,0,0,0,.586,1.51,2.3,2.3,0,0,0,1.62.54,3.063,3.063,0,0,0,1.29-.24,2.822,2.822,0,0,0,1.036-.88h0.051l0.209,0.99h0.78Zm-4.124-1.04a1.091,1.091,0,0,1-.345-0.87,1.179,1.179,0,0,1,.554-1.08,3.837,3.837,0,0,1,1.81-.39l1.052-.04v0.63a2.008,2.008,0,0,1-.561,1.51,2.132,2.132,0,0,1-1.543.54A1.428,1.428,0,0,1,866.4,1055.36Zm12.1,1.04v-4.54a2.594,2.594,0,0,0-.634-1.94,2.654,2.654,0,0,0-1.889-.6,2.919,2.919,0,0,0-1.3.28,2.172,2.172,0,0,0-.906.79h-0.051l-0.171-.95h-0.856v6.96h1.053v-3.65a2.973,2.973,0,0,1,.507-1.95,2.006,2.006,0,0,1,1.6-.59,1.573,1.573,0,0,1,1.211.42,1.814,1.814,0,0,1,.387,1.27v4.5H878.5Z" transform="translate(-687.5 -869.5)"/>
  <rect id="bg_copy_3" data-name="bg copy 3" class="cls-4" x="125.375" y="70.5" width="106.875" height="59"/>
  <path id="Manage_communications" data-name="Manage communications" class="cls-2" d="M848.793,966l3.169-8.214h0.051q-0.089,1.206-.089,2.235V966H853v-9.28h-1.61l-2.96,7.655h-0.051l-2.935-7.655h-1.623V966h1v-5.9q0-1.345-.088-2.324h0.05L847.924,966h0.869Zm11.644,0v-4.748a2.3,2.3,0,0,0-.6-1.771,2.643,2.643,0,0,0-1.841-.552,5.038,5.038,0,0,0-2.352.6l0.323,0.807a4.574,4.574,0,0,1,1.965-.534,1.445,1.445,0,0,1,1.126.391,1.767,1.767,0,0,1,.351,1.209v0.432l-1.179.038q-3.366.1-3.366,2.209a1.947,1.947,0,0,0,.587,1.517,2.321,2.321,0,0,0,1.619.533,3.143,3.143,0,0,0,1.29-.232,2.917,2.917,0,0,0,1.037-.885h0.05l0.21,0.99h0.779Zm-4.123-1.041a1.088,1.088,0,0,1-.346-0.87,1.179,1.179,0,0,1,.555-1.076,3.837,3.837,0,0,1,1.81-.39l1.052-.044v0.628a2,2,0,0,1-.561,1.511,2.131,2.131,0,0,1-1.543.539A1.431,1.431,0,0,1,856.314,964.959Zm12.1,1.041v-4.539a2.585,2.585,0,0,0-.634-1.939,2.639,2.639,0,0,0-1.889-.606,2.947,2.947,0,0,0-1.3.282,2.148,2.148,0,0,0-.906.8h-0.051l-0.171-.952h-0.856V966h1.052v-3.65a2.98,2.98,0,0,1,.508-1.949,2,2,0,0,1,1.6-.59,1.577,1.577,0,0,1,1.211.419,1.82,1.82,0,0,1,.386,1.27V966h1.053Zm7.213,0v-4.748a2.307,2.307,0,0,0-.6-1.771,2.643,2.643,0,0,0-1.841-.552,5.038,5.038,0,0,0-2.352.6l0.323,0.807a4.574,4.574,0,0,1,1.965-.534,1.441,1.441,0,0,1,1.125.391,1.762,1.762,0,0,1,.352,1.209v0.432l-1.179.038q-3.366.1-3.366,2.209a1.947,1.947,0,0,0,.587,1.517,2.317,2.317,0,0,0,1.619.533,3.143,3.143,0,0,0,1.29-.232,2.917,2.917,0,0,0,1.037-.885h0.05l0.209,0.99h0.78Zm-4.123-1.041a1.085,1.085,0,0,1-.346-0.87,1.179,1.179,0,0,1,.555-1.076,3.837,3.837,0,0,1,1.81-.39l1.052-.044v0.628a2,2,0,0,1-.561,1.511,2.134,2.134,0,0,1-1.544.539A1.43,1.43,0,0,1,871.5,964.959Zm9.575-5.916a3.517,3.517,0,0,0-.983-0.127,2.792,2.792,0,0,0-1.94.619,2.254,2.254,0,0,0-.684,1.761,2.222,2.222,0,0,0,.339,1.219,1.881,1.881,0,0,0,.878.756,2.106,2.106,0,0,0-.64.552,1.114,1.114,0,0,0-.2.666,1,1,0,0,0,.18.591,1.106,1.106,0,0,0,.447.374,2.068,2.068,0,0,0-1.141.629,1.611,1.611,0,0,0-.405,1.1,1.64,1.64,0,0,0,.738,1.434,3.681,3.681,0,0,0,2.1.508,4.95,4.95,0,0,0,2.7-.606,1.976,1.976,0,0,0,.925-1.762,1.655,1.655,0,0,0-.605-1.383,2.749,2.749,0,0,0-1.734-.476h-1.23a1.712,1.712,0,0,1-.805-0.137,0.455,0.455,0,0,1-.234-0.422,1.037,1.037,0,0,1,.672-0.895,3.163,3.163,0,0,0,.583.051,2.807,2.807,0,0,0,1.914-.61,2.057,2.057,0,0,0,.7-1.631,2.27,2.27,0,0,0-.457-1.39l1.287-.153v-0.666h-2.4Zm-2.739,7.141a1.662,1.662,0,0,1,1.116-.343h1.261a2.7,2.7,0,0,1,1.312.219,0.852,0.852,0,0,1,.349.784,1.214,1.214,0,0,1-.637,1.076,3.8,3.8,0,0,1-1.962.4,2.627,2.627,0,0,1-1.363-.292,0.944,0.944,0,0,1-.475-0.857A1.226,1.226,0,0,1,878.338,966.184Zm0.571-6.1a1.54,1.54,0,0,1,1.141-.4,1.382,1.382,0,0,1,1.559,1.568,1.343,1.343,0,0,1-1.54,1.5,1.643,1.643,0,0,1-1.148-.375,1.417,1.417,0,0,1-.412-1.1A1.609,1.609,0,0,1,878.909,960.084Zm10.132,5.938a5.564,5.564,0,0,0,1.056-.346v-0.939a5.594,5.594,0,0,1-2.219.47,2.136,2.136,0,0,1-1.651-.635,2.758,2.758,0,0,1-.618-1.86H890.4v-0.667a3.3,3.3,0,0,0-.761-2.269,2.619,2.619,0,0,0-2.066-.86,2.746,2.746,0,0,0-2.222.99,4.035,4.035,0,0,0-.827,2.673,3.64,3.64,0,0,0,.89,2.609,3.191,3.191,0,0,0,2.431.939A5.909,5.909,0,0,0,889.041,966.022Zm-0.218-5.694a2.327,2.327,0,0,1,.443,1.527h-3.632a2.517,2.517,0,0,1,.587-1.511,1.715,1.715,0,0,1,1.334-.546A1.563,1.563,0,0,1,888.823,960.328Zm-66.694,21.037v-0.933a4.675,4.675,0,0,1-1.782.375,1.8,1.8,0,0,1-1.53-.686,3.219,3.219,0,0,1-.517-1.968q0-2.7,2.117-2.7a3.419,3.419,0,0,1,.729.092,5.039,5.039,0,0,1,.761.232l0.323-.895a3.308,3.308,0,0,0-.786-0.254,4.743,4.743,0,0,0-1-.108,3.018,3.018,0,0,0-2.392.952,3.947,3.947,0,0,0-.84,2.7,3.825,3.825,0,0,0,.827,2.631,2.962,2.962,0,0,0,2.336.93,3.8,3.8,0,0,0,1.756-.362h0Zm6.785-5.878a2.938,2.938,0,0,0-2.317-.971,3,3,0,0,0-2.358.949,3.837,3.837,0,0,0-.849,2.65,4.386,4.386,0,0,0,.393,1.917,2.888,2.888,0,0,0,1.116,1.257,3.125,3.125,0,0,0,1.654.438,3.009,3.009,0,0,0,2.364-.955A4.5,4.5,0,0,0,828.914,975.487Zm-3.908.6a1.852,1.852,0,0,1,1.56-.679,1.881,1.881,0,0,1,1.581.689,3.236,3.236,0,0,1,.536,2.015,3.292,3.292,0,0,1-.536,2.035,2.11,2.11,0,0,1-3.134,0A4.148,4.148,0,0,1,825.006,976.09Zm16.519,5.51v-4.539a2.714,2.714,0,0,0-.586-1.939,2.35,2.35,0,0,0-1.765-.606,2.8,2.8,0,0,0-1.344.317,2.22,2.22,0,0,0-.9.864h-0.051a2.064,2.064,0,0,0-2.13-1.181,2.559,2.559,0,0,0-1.214.286,2.074,2.074,0,0,0-.84.793h-0.05l-0.171-.952h-0.856V981.6h1.052v-3.65a3.208,3.208,0,0,1,.46-1.945,1.715,1.715,0,0,1,1.448-.594,1.379,1.379,0,0,1,1.109.416,1.878,1.878,0,0,1,.355,1.247V981.6H837.1v-3.885a2.686,2.686,0,0,1,.469-1.739,1.776,1.776,0,0,1,1.451-.565,1.373,1.373,0,0,1,1.1.416,1.878,1.878,0,0,1,.355,1.247V981.6h1.052Zm12.076,0v-4.539a2.719,2.719,0,0,0-.586-1.939,2.353,2.353,0,0,0-1.766-.606,2.8,2.8,0,0,0-1.344.317,2.22,2.22,0,0,0-.9.864h-0.051a2.062,2.062,0,0,0-2.129-1.181,2.556,2.556,0,0,0-1.214.286,2.061,2.061,0,0,0-.84.793H844.72l-0.171-.952h-0.856V981.6h1.053v-3.65a3.216,3.216,0,0,1,.459-1.945,1.715,1.715,0,0,1,1.448-.594,1.383,1.383,0,0,1,1.11.416,1.883,1.883,0,0,1,.355,1.247V981.6h1.052v-3.885a2.686,2.686,0,0,1,.469-1.739,1.78,1.78,0,0,1,1.452-.565,1.374,1.374,0,0,1,1.1.416,1.883,1.883,0,0,1,.355,1.247V981.6H853.6Zm2.092-6.957v4.551a2.571,2.571,0,0,0,.63,1.93,2.656,2.656,0,0,0,1.9.6,3.013,3.013,0,0,0,1.309-.273,2.1,2.1,0,0,0,.9-0.787h0.057l0.152,0.933h0.868v-6.957h-1.052V978.3a3.013,3.013,0,0,1-.5,1.949,1.973,1.973,0,0,1-1.594.6,1.577,1.577,0,0,1-1.211-.419,1.819,1.819,0,0,1-.386-1.27v-4.513h-1.065Zm13.85,6.957v-4.539a2.581,2.581,0,0,0-.634-1.939,2.636,2.636,0,0,0-1.889-.606,2.943,2.943,0,0,0-1.3.282,2.156,2.156,0,0,0-.907.8h-0.05l-0.172-.952h-0.855V981.6h1.052v-3.65A2.987,2.987,0,0,1,865.3,976a2,2,0,0,1,1.6-.59,1.575,1.575,0,0,1,1.211.419,1.816,1.816,0,0,1,.387,1.27v4.5h1.052Zm3.214-6.957h-1.052V981.6h1.052v-6.957Zm-0.964-1.355a0.645,0.645,0,0,0,.881,0,0.7,0.7,0,0,0,.184-0.53,0.686,0.686,0,0,0-.184-0.527,0.654,0.654,0,0,0-.881,0,0.7,0.7,0,0,0-.177.53A0.716,0.716,0,0,0,871.793,973.288Zm7.727,8.077v-0.933a4.666,4.666,0,0,1-1.781.375,1.8,1.8,0,0,1-1.531-.686,3.226,3.226,0,0,1-.516-1.968q0-2.7,2.117-2.7a3.419,3.419,0,0,1,.729.092,5.025,5.025,0,0,1,.76.232l0.324-.895a3.308,3.308,0,0,0-.786-0.254,4.743,4.743,0,0,0-1-.108,3.022,3.022,0,0,0-2.393.952,3.947,3.947,0,0,0-.84,2.7,3.825,3.825,0,0,0,.828,2.631,2.961,2.961,0,0,0,2.335.93,3.8,3.8,0,0,0,1.756-.362h0Zm6.7,0.235v-4.748a2.3,2.3,0,0,0-.6-1.771,2.643,2.643,0,0,0-1.841-.552,4.906,4.906,0,0,0-1.227.158,4.986,4.986,0,0,0-1.125.438l0.324,0.807a4.574,4.574,0,0,1,1.965-.534,1.444,1.444,0,0,1,1.125.391,1.767,1.767,0,0,1,.352,1.209v0.432l-1.179.038q-3.366.1-3.366,2.209a1.946,1.946,0,0,0,.586,1.517,2.321,2.321,0,0,0,1.62.533,3.15,3.15,0,0,0,1.29-.232,2.923,2.923,0,0,0,1.036-.885h0.051l0.209,0.99h0.78Zm-4.124-1.041a1.088,1.088,0,0,1-.345-0.87,1.178,1.178,0,0,1,.554-1.076,3.837,3.837,0,0,1,1.81-.39l1.052-.044v0.628a2,2,0,0,1-.561,1.511,2.131,2.131,0,0,1-1.543.539A1.433,1.433,0,0,1,882.1,980.559Zm7.718-.038a1.408,1.408,0,0,1-.3-0.965v-4.094h2.015v-0.819h-2.015v-1.612h-0.609l-0.444,1.485-1,.438v0.508h1V979.6a1.833,1.833,0,0,0,2.016,2.127,3.772,3.772,0,0,0,.6-0.054,1.924,1.924,0,0,0,.5-0.136V980.73a3.3,3.3,0,0,1-.412.086,3.374,3.374,0,0,1-.539.041A1.035,1.035,0,0,1,889.815,980.521Zm4.209-5.878h-1.053V981.6h1.053v-6.957Zm-0.964-1.355a0.645,0.645,0,0,0,.881,0,0.7,0.7,0,0,0,.184-0.53,0.686,0.686,0,0,0-.184-0.527,0.654,0.654,0,0,0-.881,0,0.7,0.7,0,0,0-.177.53A0.716,0.716,0,0,0,893.06,973.288Zm8.333,2.2a2.939,2.939,0,0,0-2.317-.971,3,3,0,0,0-2.358.949,3.832,3.832,0,0,0-.85,2.65,4.386,4.386,0,0,0,.393,1.917,2.888,2.888,0,0,0,1.116,1.257,3.128,3.128,0,0,0,1.654.438,3.013,3.013,0,0,0,2.365-.955A4.5,4.5,0,0,0,901.393,975.487Zm-3.908.6a1.848,1.848,0,0,1,1.559-.679,1.884,1.884,0,0,1,1.582.689,3.236,3.236,0,0,1,.535,2.015,3.292,3.292,0,0,1-.535,2.035,2.111,2.111,0,0,1-3.135,0A4.145,4.145,0,0,1,897.485,976.09ZM909.9,981.6v-4.539a2.585,2.585,0,0,0-.633-1.939,2.639,2.639,0,0,0-1.889-.606,2.947,2.947,0,0,0-1.3.282,2.148,2.148,0,0,0-.906.8h-0.051l-0.171-.952H904.1V981.6h1.052v-3.65a2.987,2.987,0,0,1,.507-1.949,2,2,0,0,1,1.6-.59,1.573,1.573,0,0,1,1.21.419,1.816,1.816,0,0,1,.387,1.27v4.5H909.9Zm6.209-3.047a4.543,4.543,0,0,0-1.67-.908,10.115,10.115,0,0,1-1.217-.514,1.408,1.408,0,0,1-.46-0.374,0.789,0.789,0,0,1-.142-0.476,0.729,0.729,0,0,1,.38-0.648,2.185,2.185,0,0,1,1.128-.235,5.028,5.028,0,0,1,1.9.432l0.374-.857a5.54,5.54,0,0,0-2.194-.457,3.218,3.218,0,0,0-1.895.492,1.56,1.56,0,0,0-.691,1.342,1.6,1.6,0,0,0,.2.819,1.885,1.885,0,0,0,.608.613,7.457,7.457,0,0,0,1.379.631,5.526,5.526,0,0,1,1.372.683,0.908,0.908,0,0,1-.091,1.5,2.5,2.5,0,0,1-1.268.263,4.445,4.445,0,0,1-1.106-.146,5.144,5.144,0,0,1-1.075-.4v0.978a4.406,4.406,0,0,0,2.155.438,3.4,3.4,0,0,0,2.029-.527,1.741,1.741,0,0,0,.722-1.5A1.6,1.6,0,0,0,916.111,978.553Z" transform="translate(-687.5 -869.5)"/>
  <g style="fill: #f2f2f2; filter: url(#filter-4)">
    <rect id="bg_copy_3-2" data-name="bg copy 3" class="cls-5" x="9.5" y="9.5" width="106.844" height="59" style="stroke: inherit; filter: none; fill: inherit"/>
  </g>
  <use xlink:href="#bg_copy_3-2" style="stroke: #01a9da; filter: none; fill: none"/>
  <path id="Execute_management_actions" data-name="Execute management actions" class="cls-6" d="M732.347,896.911H728.62V894h3.492v-1.269H728.62V890.2h3.727v-1.282h-5.242v9.28h5.242v-1.288Zm0.938,1.288h1.686l1.724-2.628,1.731,2.628h1.686l-2.478-3.586,2.358-3.434h-1.687l-1.61,2.456-1.6-2.456h-1.7l2.352,3.434Zm12.393,0.019a4.507,4.507,0,0,0,1.1-.368v-1.212a6.009,6.009,0,0,1-1.15.39,5.354,5.354,0,0,1-1.157.118,1.918,1.918,0,0,1-1.464-.549,2.31,2.31,0,0,1-.552-1.571h4.672v-0.807a3.227,3.227,0,0,0-.805-2.323,2.887,2.887,0,0,0-2.193-.844,2.954,2.954,0,0,0-2.352.984,3.985,3.985,0,0,0-.856,2.7,3.63,3.63,0,0,0,.923,2.631,3.387,3.387,0,0,0,2.557.955A6.756,6.756,0,0,0,745.678,898.218Zm-0.432-5.589a1.947,1.947,0,0,1,.419,1.317h-3.182a2.148,2.148,0,0,1,.51-1.313,1.494,1.494,0,0,1,1.138-.451A1.429,1.429,0,0,1,745.246,892.629Zm7.5,5.6a2.933,2.933,0,0,0,.852-0.337v-1.3a3.808,3.808,0,0,1-1.883.5,1.571,1.571,0,0,1-1.328-.593,2.9,2.9,0,0,1-.453-1.774q0-2.42,1.819-2.419a4.52,4.52,0,0,1,1.56.368l0.45-1.2a4.683,4.683,0,0,0-2-.413,3.208,3.208,0,0,0-2.5.952,4.719,4.719,0,0,0-.038,5.392,3.069,3.069,0,0,0,2.419.93A5.166,5.166,0,0,0,752.749,898.225Zm8.617-.026v-7.02h-1.5v3.5a3.107,3.107,0,0,1-.44,1.883,1.647,1.647,0,0,1-1.379.561,1.255,1.255,0,0,1-1.033-.4,1.877,1.877,0,0,1-.33-1.209v-4.329h-1.5v4.589a2.637,2.637,0,0,0,.627,1.924,2.57,2.57,0,0,0,1.9.634,2.958,2.958,0,0,0,1.309-.279,2.113,2.113,0,0,0,.884-0.768h0.076l0.209,0.92h1.173Zm4.028-1.336a1.056,1.056,0,0,1-.269-0.8v-3.758h2v-1.13h-2v-1.562h-0.919L763.7,891.1l-1.027.546v0.66h0.957v3.783a1.924,1.924,0,0,0,2.117,2.234,4.344,4.344,0,0,0,.808-0.073,2.973,2.973,0,0,0,.638-0.181v-1.123a3.63,3.63,0,0,1-1.091.171A0.981,0.981,0,0,1,765.394,896.863Zm7.534,1.355a4.5,4.5,0,0,0,1.1-.368v-1.212a6.033,6.033,0,0,1-1.15.39,5.361,5.361,0,0,1-1.157.118,1.918,1.918,0,0,1-1.464-.549,2.305,2.305,0,0,1-.552-1.571h4.672v-0.807a3.231,3.231,0,0,0-.8-2.323,2.887,2.887,0,0,0-2.193-.844,2.953,2.953,0,0,0-2.352.984,3.98,3.98,0,0,0-.856,2.7,3.629,3.629,0,0,0,.922,2.631,3.389,3.389,0,0,0,2.558.955A6.745,6.745,0,0,0,772.928,898.218Zm-0.431-5.589a1.947,1.947,0,0,1,.419,1.317h-3.183a2.143,2.143,0,0,1,.511-1.313,1.493,1.493,0,0,1,1.138-.451A1.429,1.429,0,0,1,772.5,892.629Zm-56.9,17.451a2.806,2.806,0,0,1,.4-1.667,1.479,1.479,0,0,1,1.271-.542,1.132,1.132,0,0,1,.954.4,1.952,1.952,0,0,1,.307,1.2V913.8h1.49v-4.576a2.81,2.81,0,0,0-.574-1.936,2.352,2.352,0,0,0-1.828-.635,2.772,2.772,0,0,0-1.294.292,2.144,2.144,0,0,0-.874.812h-0.1a2.132,2.132,0,0,0-2.142-1.1,2.728,2.728,0,0,0-1.221.273,1.951,1.951,0,0,0-.846.774h-0.076l-0.209-.92h-1.166v7.02h1.489v-3.5a3.3,3.3,0,0,1,.4-1.87,1.45,1.45,0,0,1,1.264-.561,1.124,1.124,0,0,1,.951.4,1.966,1.966,0,0,1,.3,1.2V913.8h1.5V910.08Zm11.955,3.719V909.07a2.288,2.288,0,0,0-.681-1.834,3.031,3.031,0,0,0-2.019-.584,5.775,5.775,0,0,0-1.28.155,5.173,5.173,0,0,0-1.249.454l0.482,1.067a7.768,7.768,0,0,1,.951-0.375,3.38,3.38,0,0,1,1.033-.158,1.28,1.28,0,0,1,.973.333,1.42,1.42,0,0,1,.314,1.006v0.374l-1.211.039a4.618,4.618,0,0,0-2.453.6,1.855,1.855,0,0,0-.805,1.637,2.091,2.091,0,0,0,.58,1.581,2.229,2.229,0,0,0,1.613.558,3.231,3.231,0,0,0,1.318-.231,2.878,2.878,0,0,0,1.021-.873h0.051l0.3,0.977h1.064Zm-4.12-1.272a0.94,0.94,0,0,1-.279-0.727,1.072,1.072,0,0,1,.479-0.962,3.077,3.077,0,0,1,1.531-.352l0.9-.038v0.609a1.649,1.649,0,0,1-.491,1.273,1.843,1.843,0,0,1-1.3.454A1.2,1.2,0,0,1,723.428,912.527Zm12.367-3.3a2.251,2.251,0,0,0-2.523-2.571,3.014,3.014,0,0,0-1.293.273,2.073,2.073,0,0,0-.9.774H731l-0.209-.92h-1.166v7.02h1.489v-3.5a3.087,3.087,0,0,1,.438-1.873,1.646,1.646,0,0,1,1.381-.558,1.261,1.261,0,0,1,1.037.4,1.892,1.892,0,0,1,.326,1.212V913.8h1.5v-4.576Zm7.524,4.576V909.07a2.288,2.288,0,0,0-.681-1.834,3.031,3.031,0,0,0-2.019-.584,5.775,5.775,0,0,0-1.28.155,5.173,5.173,0,0,0-1.249.454l0.482,1.067a7.768,7.768,0,0,1,.951-0.375,3.38,3.38,0,0,1,1.033-.158,1.28,1.28,0,0,1,.973.333,1.42,1.42,0,0,1,.314,1.006v0.374l-1.211.039a4.618,4.618,0,0,0-2.453.6,1.855,1.855,0,0,0-.8,1.637,2.091,2.091,0,0,0,.58,1.581,2.229,2.229,0,0,0,1.613.558,3.228,3.228,0,0,0,1.318-.231,2.878,2.878,0,0,0,1.021-.873h0.051l0.3,0.977h1.064Zm-4.12-1.272a0.94,0.94,0,0,1-.279-0.727,1.072,1.072,0,0,1,.479-0.962,3.077,3.077,0,0,1,1.531-.352l0.9-.038v0.609a1.649,1.649,0,0,1-.491,1.273,1.843,1.843,0,0,1-1.3.454A1.2,1.2,0,0,1,739.2,912.527Zm9.692-5.748a3.922,3.922,0,0,0-.491-0.086,5.087,5.087,0,0,0-.624-0.041,3.022,3.022,0,0,0-2.051.628,2.226,2.226,0,0,0-.719,1.771,2.252,2.252,0,0,0,.339,1.241,1.948,1.948,0,0,0,.884.765,2.559,2.559,0,0,0-.659.54,1.022,1.022,0,0,0-.222.666,1.033,1.033,0,0,0,.193.594,1.117,1.117,0,0,0,.492.409,2.191,2.191,0,0,0-1.145.613,1.543,1.543,0,0,0-.409,1.088,1.643,1.643,0,0,0,.755,1.448,3.92,3.92,0,0,0,2.187.507,5.168,5.168,0,0,0,2.84-.647,2.079,2.079,0,0,0,.982-1.841,1.744,1.744,0,0,0-.6-1.428,2.719,2.719,0,0,0-1.762-.5h-1.224a1.933,1.933,0,0,1-.827-0.121,0.388,0.388,0,0,1-.225-0.362,0.842,0.842,0,0,1,.482-0.7,3.31,3.31,0,0,0,.608.051,3.124,3.124,0,0,0,2.06-.622,2.1,2.1,0,0,0,.748-1.708,2.178,2.178,0,0,0-.107-0.685,1.935,1.935,0,0,0-.273-0.546l1.2-.222v-0.819h-2.428Zm-2.7,7.3a1.582,1.582,0,0,1,1.017-.3h1.129a2.614,2.614,0,0,1,1.213.194,0.7,0.7,0,0,1,.327.65,1.048,1.048,0,0,1-.6.927,3.68,3.68,0,0,1-1.813.349,2.387,2.387,0,0,1-1.22-.26,0.82,0.82,0,0,1-.434-0.743A0.985,0.985,0,0,1,746.188,914.076Zm0.6-6.1a1.251,1.251,0,0,1,.979-0.369,1.214,1.214,0,0,1,.973.372,1.573,1.573,0,0,1,.32,1.057,1.184,1.184,0,0,1-1.293,1.383,1.28,1.28,0,0,1-.973-0.355,1.414,1.414,0,0,1-.339-1.016A1.547,1.547,0,0,1,746.784,907.979Zm10.17,5.839a4.5,4.5,0,0,0,1.1-.368v-1.212a6.033,6.033,0,0,1-1.15.39,5.354,5.354,0,0,1-1.157.118,1.918,1.918,0,0,1-1.464-.549,2.305,2.305,0,0,1-.552-1.571h4.672v-0.807a3.227,3.227,0,0,0-.8-2.323,2.887,2.887,0,0,0-2.193-.844,2.953,2.953,0,0,0-2.352.984,3.98,3.98,0,0,0-.856,2.7,3.633,3.633,0,0,0,.922,2.631,3.389,3.389,0,0,0,2.558.955A6.745,6.745,0,0,0,756.954,913.818Zm-0.431-5.589a1.948,1.948,0,0,1,.419,1.318H753.76a2.143,2.143,0,0,1,.51-1.314,1.493,1.493,0,0,1,1.138-.451A1.429,1.429,0,0,1,756.523,908.229Zm9.483,1.851a2.8,2.8,0,0,1,.4-1.667,1.479,1.479,0,0,1,1.271-.542,1.132,1.132,0,0,1,.954.4,1.952,1.952,0,0,1,.307,1.2V913.8h1.49v-4.576a2.815,2.815,0,0,0-.574-1.936,2.353,2.353,0,0,0-1.829-.635,2.768,2.768,0,0,0-1.293.292,2.147,2.147,0,0,0-.875.812h-0.1a2.132,2.132,0,0,0-2.143-1.1,2.727,2.727,0,0,0-1.22.273,1.94,1.94,0,0,0-.846.774h-0.076l-0.209-.92H760.1v7.02h1.49v-3.5a3.3,3.3,0,0,1,.4-1.87,1.448,1.448,0,0,1,1.264-.561,1.124,1.124,0,0,1,.951.4,1.966,1.966,0,0,1,.3,1.2V913.8h1.5V910.08Zm10.84,3.738a4.528,4.528,0,0,0,1.1-.368v-1.212a6.04,6.04,0,0,1-1.151.39,5.354,5.354,0,0,1-1.157.118,1.918,1.918,0,0,1-1.464-.549,2.31,2.31,0,0,1-.552-1.571H778.3v-0.807a3.227,3.227,0,0,0-.805-2.323,2.887,2.887,0,0,0-2.193-.844,2.955,2.955,0,0,0-2.352.984,3.985,3.985,0,0,0-.856,2.7,3.63,3.63,0,0,0,.923,2.631,3.387,3.387,0,0,0,2.557.955A6.756,6.756,0,0,0,776.846,913.818Zm-0.431-5.589a1.953,1.953,0,0,1,.418,1.318h-3.182a2.149,2.149,0,0,1,.51-1.314,1.494,1.494,0,0,1,1.138-.451A1.433,1.433,0,0,1,776.415,908.229Zm9.742,0.994a2.251,2.251,0,0,0-2.523-2.571,3.014,3.014,0,0,0-1.293.273,2.079,2.079,0,0,0-.9.774h-0.076l-0.209-.92H779.99v7.02h1.489v-3.5a3.087,3.087,0,0,1,.438-1.873,1.647,1.647,0,0,1,1.382-.558,1.26,1.26,0,0,1,1.036.4,1.886,1.886,0,0,1,.326,1.212V913.8h1.5v-4.576Zm3.978,3.24a1.052,1.052,0,0,1-.269-0.8v-3.758h2v-1.13h-2v-1.562h-0.92l-0.507,1.486-1.027.546v0.66h0.958v3.783a1.924,1.924,0,0,0,2.117,2.234,4.352,4.352,0,0,0,.808-0.073,2.962,2.962,0,0,0,.637-0.181v-1.123a3.624,3.624,0,0,1-1.09.171A0.979,0.979,0,0,1,790.135,912.463ZM734.375,929.4V924.67a2.288,2.288,0,0,0-.681-1.834,3.031,3.031,0,0,0-2.019-.584,5.775,5.775,0,0,0-1.28.155,5.173,5.173,0,0,0-1.249.454l0.482,1.067a7.817,7.817,0,0,1,.95-0.375,3.387,3.387,0,0,1,1.034-.158,1.281,1.281,0,0,1,.973.333,1.42,1.42,0,0,1,.313,1.006v0.374l-1.21.038a4.627,4.627,0,0,0-2.453.6,1.855,1.855,0,0,0-.805,1.637,2.091,2.091,0,0,0,.58,1.581,2.229,2.229,0,0,0,1.613.558,3.231,3.231,0,0,0,1.318-.231,2.878,2.878,0,0,0,1.021-.873h0.051l0.3,0.977h1.065Zm-4.12-1.272a0.94,0.94,0,0,1-.279-0.727,1.072,1.072,0,0,1,.479-0.962,3.077,3.077,0,0,1,1.531-.352l0.9-.038v0.609a1.649,1.649,0,0,1-.491,1.273,1.843,1.843,0,0,1-1.3.454A1.2,1.2,0,0,1,730.255,928.127Zm10.126,1.3a2.928,2.928,0,0,0,.853-0.337v-1.3a3.808,3.808,0,0,1-1.883.5,1.57,1.57,0,0,1-1.328-.593,2.9,2.9,0,0,1-.453-1.774q0-2.419,1.819-2.419a4.52,4.52,0,0,1,1.56.368l0.45-1.2a4.683,4.683,0,0,0-2-.413,3.208,3.208,0,0,0-2.5.952,4.719,4.719,0,0,0-.038,5.392,3.069,3.069,0,0,0,2.419.93A5.15,5.15,0,0,0,740.381,929.425Zm4.406-1.362a1.052,1.052,0,0,1-.269-0.8v-3.758h2v-1.13h-2v-1.562H743.6l-0.507,1.486-1.027.546v0.66h0.958v3.783a1.924,1.924,0,0,0,2.117,2.234,4.352,4.352,0,0,0,.808-0.073,2.962,2.962,0,0,0,.637-0.181v-1.123a3.628,3.628,0,0,1-1.09.171A0.978,0.978,0,0,1,744.787,928.063Zm4.687-5.684h-1.489v7.02h1.489v-7.02Zm-1.359-1.26a0.844,0.844,0,0,0,.624.219,0.827,0.827,0,0,0,.612-0.219,0.811,0.811,0,0,0,.219-0.6,0.826,0.826,0,0,0-.219-0.616,0.838,0.838,0,0,0-.612-0.215,0.855,0.855,0,0,0-.624.215,0.826,0.826,0,0,0-.219.616A0.811,0.811,0,0,0,748.115,921.119Zm8.82,2.114a3.084,3.084,0,0,0-2.408-.981,3.172,3.172,0,0,0-2.466.958,3.811,3.811,0,0,0-.875,2.666,4.341,4.341,0,0,0,.406,1.93,2.924,2.924,0,0,0,1.16,1.276,3.358,3.358,0,0,0,1.737.444,3.156,3.156,0,0,0,2.453-.964,3.84,3.84,0,0,0,.881-2.686A3.788,3.788,0,0,0,756.935,923.233Zm-3.793.86a1.521,1.521,0,0,1,1.359-.622q1.788,0,1.788,2.4,0,2.431-1.775,2.432-1.794,0-1.794-2.432A3.16,3.16,0,0,1,753.142,924.093Zm12.56,0.73a2.251,2.251,0,0,0-2.523-2.571,3.014,3.014,0,0,0-1.293.273,2.073,2.073,0,0,0-.9.774H760.91l-0.209-.92h-1.167v7.02h1.49v-3.5a3.1,3.1,0,0,1,.437-1.873,1.648,1.648,0,0,1,1.382-.558,1.259,1.259,0,0,1,1.036.4,1.886,1.886,0,0,1,.327,1.212V929.4h1.5v-4.576Zm6.592,1.7a1.832,1.832,0,0,0-.583-0.644,6.111,6.111,0,0,0-1.261-.616,6.809,6.809,0,0,1-1.341-.628,0.678,0.678,0,0,1-.307-0.559q0-.672,1.179-0.673a5.206,5.206,0,0,1,1.908.47l0.481-1.124a5.589,5.589,0,0,0-2.339-.5,3.442,3.442,0,0,0-1.974.5,1.6,1.6,0,0,0-.726,1.4,1.742,1.742,0,0,0,.428,1.219,4.481,4.481,0,0,0,1.638.939,8.528,8.528,0,0,1,.97.432,1.778,1.778,0,0,1,.5.368,0.661,0.661,0,0,1,.152.444q0,0.832-1.375.832a5.531,5.531,0,0,1-2.3-.571V929.1a5.046,5.046,0,0,0,2.25.425,3.575,3.575,0,0,0,2.142-.549,1.837,1.837,0,0,0,.748-1.577A1.866,1.866,0,0,0,772.294,926.527Z" transform="translate(-687.5 -869.5)"/>
  <g id="Connecting_lines" data-name="Connecting lines">
    <path id="Shape_127_copy_3" data-name="Shape 127 copy 3" class="cls-6" d="M860.015,1078h-1v-10h1v10Zm-1-10h1l-5,7h-1Zm1,32h-1v-9h1v9Z" transform="translate(-687.5 -869.5)"/>
    <path id="Shape_128_copy_3" data-name="Shape 128 copy 3" class="cls-6" d="M859.015,1068H859.9l5.118,7h-1Z" transform="translate(-687.5 -869.5)"/>
    <path id="Shape_127_copy_3-2" data-name="Shape 127 copy 3" class="cls-6" d="M872.014,1091h-1v9h1v-9Zm-1,9h1l-5-7h-1Zm1-22h-1v-10h1v10Z" transform="translate(-687.5 -869.5)"/>
    <path id="Shape_128_copy_3-2" data-name="Shape 128 copy 3" class="cls-6" d="M871.014,1100H871.9l5.117-7h-1Z" transform="translate(-687.5 -869.5)"/>
    <path id="Shape_127_copy_2" data-name="Shape 127 copy 2" class="cls-6" d="M749.926,970v-1h61.961v1H749.926Zm62.29-1.376-0.658.752-7.988-7,0.657-.752Z" transform="translate(-687.5 -869.5)"/>
    <path id="Shape_128_copy_2" data-name="Shape 128 copy 2" class="cls-6" d="M810.56,968.623l0.657,0.752-7.988,7-0.658-.752Z" transform="translate(-687.5 -869.5)"/>
    <path id="Shape_127_copy_3-3" data-name="Shape 127 copy 3" class="cls-6" d="M749.926,1038v-1h61.961v1H749.926Zm62.29-1.38-0.658.76-7.989-7,0.658-.76Z" transform="translate(-687.5 -869.5)"/>
    <path id="Shape_128_copy_3-3" data-name="Shape 128 copy 3" class="cls-6" d="M810.56,1036.62l0.657,0.76-7.989,7-0.657-.76Z" transform="translate(-687.5 -869.5)"/>
    <path class="cls-6" d="M750.926,1131h-1V938h1m230.757,192v1H920.737v-1h60.946Zm0-161v1H920.737v-1h60.946Z" transform="translate(-687.5 -869.5)"/>
    <path id="Shape_127_copy_3-4" data-name="Shape 127 copy 3" class="cls-6" d="M920.737,1038v-1h81.923v1H920.737Zm82.253-1.38-0.66.76-7.991-7,0.657-.76Z" transform="translate(-687.5 -869.5)"/>
    <path id="Shape_128_copy_3-4" data-name="Shape 128 copy 3" class="cls-6" d="M1002.33,1036.62l0.66,0.76-7.992,7-0.658-.76Z" transform="translate(-687.5 -869.5)"/>
    <path class="cls-6" d="M981.683,1131h-1V969h1v162Z" transform="translate(-687.5 -869.5)"/>
    <path id="Shape_127_copy_3-5" data-name="Shape 127 copy 3" class="cls-6" d="M749.926,1131v-1h61.961v1H749.926Zm62.29-1.38-0.658.76-7.989-7,0.658-.76Z" transform="translate(-687.5 -869.5)"/>
    <path id="Shape_128_copy_3-5" data-name="Shape 128 copy 3" class="cls-6" d="M810.56,1129.62l0.657,0.76-7.989,7-0.657-.76Z" transform="translate(-687.5 -869.5)"/>
  </g>
</svg>
