<svg id="Flow_Chart_-_EMC_Introduction" data-name="Flow Chart - EMC Introduction" xmlns="http://www.w3.org/2000/svg" xmlns:xlink="http://www.w3.org/1999/xlink" width="337" height="314" viewBox="0 0 337 314">
  <defs>
    <style>
      .cls-1, .cls-3, .cls-4, .cls-5 {
        fill: #f2f2f2;
      }

      .cls-1 {
        filter: url(#filter);
      }

      .cls-2 {
        fill: #6b6b6b;
      }

      .cls-2, .cls-6 {
        fill-rule: evenodd;
      }

      .cls-3 {
        filter: url(#filter-2);
      }

      .cls-4 {
        filter: url(#filter-3);
      }

      .cls-5 {
        filter: url(#filter-4);
      }

      .cls-6 {
        fill: #01a9da;
      }
    </style>
    <filter id="filter" x="126" y="242" width="125" height="72" filterUnits="userSpaceOnUse">
      <feOffset result="offset" dx="0.5" dy="0.866" in="SourceAlpha"/>
      <feGaussianBlur result="blur" stdDeviation="2"/>
      <feFlood result="flood" flood-opacity="0.26"/>
      <feComposite result="composite" operator="in" in2="blur"/>
      <feBlend result="blend" in="SourceGraphic"/>
    </filter>
    <filter id="filter-2" x="126" y="140" width="125" height="73" filterUnits="userSpaceOnUse">
      <feOffset result="offset" dx="0.5" dy="0.866" in="SourceAlpha"/>
      <feGaussianBlur result="blur" stdDeviation="2"/>
      <feFlood result="flood" flood-opacity="0.26"/>
      <feComposite result="composite" operator="in" in2="blur"/>
      <feBlend result="blend" in="SourceGraphic"/>
    </filter>
    <filter id="filter-3" x="126" y="66" width="125" height="73" filterUnits="userSpaceOnUse">
      <feOffset result="offset" dx="0.5" dy="0.866" in="SourceAlpha"/>
      <feGaussianBlur result="blur" stdDeviation="2"/>
      <feFlood result="flood" flood-opacity="0.26"/>
      <feComposite result="composite" operator="in" in2="blur"/>
      <feBlend result="blend" in="SourceGraphic"/>
    </filter>
    <filter id="filter-4" x="0" y="0" width="124" height="72" filterUnits="userSpaceOnUse">
      <feOffset result="offset" dx="0.5" dy="0.866" in="SourceAlpha"/>
      <feGaussianBlur result="blur" stdDeviation="2"/>
      <feFlood result="flood" flood-opacity="0.26"/>
      <feComposite result="composite" operator="in" in2="blur"/>
      <feBlend result="blend" in="SourceGraphic"/>
    </filter>
  </defs>
  <rect id="bg_copy_5" data-name="bg copy 5" class="cls-1" x="128.844" y="244.531" width="117" height="64.469"/>
  <path id="Control_and_correct_project_plan" data-name="Control and correct project plan" class="cls-2" d="M791.786,414.642l0.5-1.012a6.284,6.284,0,0,0-2.79-.583,5.129,5.129,0,0,0-2.605.638A4.213,4.213,0,0,0,785.2,415.5a6.094,6.094,0,0,0-.586,2.746,5.6,5.6,0,0,0,1.218,3.863,4.4,4.4,0,0,0,3.459,1.359,7.458,7.458,0,0,0,2.6-.4v-1.033a9.1,9.1,0,0,1-2.422.381,3.32,3.32,0,0,1-2.662-1.085,4.58,4.58,0,0,1-.933-3.076,4.49,4.49,0,0,1,.968-3.048,3.319,3.319,0,0,1,2.641-1.113,5.4,5.4,0,0,1,2.3.541h0Zm7.768,2.011a3.219,3.219,0,0,0-2.536-1.061,3.292,3.292,0,0,0-2.582,1.037,4.183,4.183,0,0,0-.929,2.895,4.785,4.785,0,0,0,.43,2.1,3.164,3.164,0,0,0,1.221,1.373,3.431,3.431,0,0,0,1.811.478,3.3,3.3,0,0,0,2.589-1.043A4.907,4.907,0,0,0,799.554,416.653Zm-4.278.659a2.03,2.03,0,0,1,1.707-.742,2.061,2.061,0,0,1,1.732.753,3.526,3.526,0,0,1,.586,2.2,3.587,3.587,0,0,1-.586,2.223,2.316,2.316,0,0,1-3.432,0,3.607,3.607,0,0,1-.583-2.22A3.569,3.569,0,0,1,795.276,417.312Zm13.6,6.02v-4.959a2.818,2.818,0,0,0-.694-2.118,2.889,2.889,0,0,0-2.068-.663,3.225,3.225,0,0,0-1.423.309,2.353,2.353,0,0,0-.992.87h-0.056l-0.187-1.04h-0.937v7.6h1.152v-3.988a3.256,3.256,0,0,1,.555-2.129,2.187,2.187,0,0,1,1.749-.645,1.725,1.725,0,0,1,1.325.458,1.978,1.978,0,0,1,.424,1.387v4.917h1.152Zm3.928-1.179a1.536,1.536,0,0,1-.327-1.054v-4.473h2.207v-0.895h-2.207V413.97h-0.666l-0.486,1.622-1.089.479v0.555h1.089v4.521q0,2.324,2.207,2.323a4.178,4.178,0,0,0,.656-0.058,2.1,2.1,0,0,0,.552-0.15v-0.88a3.933,3.933,0,0,1-.451.093,3.782,3.782,0,0,1-.59.045A1.133,1.133,0,0,1,812.8,422.153ZM818.413,416a3.333,3.333,0,0,0-1.02,1.144h-0.056l-0.132-1.408h-0.951v7.6h1.152v-4.078a2.734,2.734,0,0,1,.656-1.866,2.029,2.029,0,0,1,1.579-.749,3.9,3.9,0,0,1,.833.105l0.159-1.068a4.465,4.465,0,0,0-.909-0.084A2.289,2.289,0,0,0,818.413,416Zm9.267,0.658a3.218,3.218,0,0,0-2.536-1.061,3.288,3.288,0,0,0-2.581,1.037,4.183,4.183,0,0,0-.93,2.895,4.785,4.785,0,0,0,.43,2.1,3.164,3.164,0,0,0,1.221,1.373,3.431,3.431,0,0,0,1.811.478,3.3,3.3,0,0,0,2.589-1.043A4.907,4.907,0,0,0,827.68,416.653Zm-4.278.659a2.03,2.03,0,0,1,1.707-.742,2.061,2.061,0,0,1,1.732.753,3.526,3.526,0,0,1,.586,2.2,3.587,3.587,0,0,1-.586,2.223,2.316,2.316,0,0,1-3.432,0,3.613,3.613,0,0,1-.583-2.22A3.569,3.569,0,0,1,823.4,417.312Zm8.39-4.771H830.64v10.791h1.152V412.541Zm-54.531,27.834v-5.187a2.518,2.518,0,0,0-.656-1.935,2.9,2.9,0,0,0-2.016-.6,5.322,5.322,0,0,0-1.343.173,5.442,5.442,0,0,0-1.231.478l0.354,0.881a5.022,5.022,0,0,1,2.151-.582,1.587,1.587,0,0,1,1.232.426,1.932,1.932,0,0,1,.385,1.321v0.472l-1.291.042q-3.686.111-3.685,2.413a2.122,2.122,0,0,0,.642,1.657,2.539,2.539,0,0,0,1.773.583,3.473,3.473,0,0,0,1.412-.253,3.2,3.2,0,0,0,1.135-.968h0.055l0.229,1.082h0.854Zm-4.514-1.137a1.185,1.185,0,0,1-.378-0.95,1.286,1.286,0,0,1,.607-1.176,4.188,4.188,0,0,1,1.981-.426l1.152-.049v0.687a2.181,2.181,0,0,1-.614,1.65,2.341,2.341,0,0,1-1.69.59A1.572,1.572,0,0,1,772.747,439.238Zm13.244,1.137v-4.958a2.818,2.818,0,0,0-.694-2.119,2.893,2.893,0,0,0-2.068-.662,3.238,3.238,0,0,0-1.423.308,2.354,2.354,0,0,0-.992.871h-0.055l-0.188-1.041h-0.937v7.6h1.152v-3.987a3.252,3.252,0,0,1,.555-2.129,2.188,2.188,0,0,1,1.749-.645,1.727,1.727,0,0,1,1.326.457,1.985,1.985,0,0,1,.423,1.387v4.917h1.152Zm7.7,0h0.937V429.584h-1.152v3.093l0.028,0.534,0.048,0.548h-0.09a2.767,2.767,0,0,0-2.373-1.123,2.8,2.8,0,0,0-2.318,1.04,4.562,4.562,0,0,0-.833,2.92,4.48,4.48,0,0,0,.829,2.9,2.825,2.825,0,0,0,2.322,1.02,2.708,2.708,0,0,0,2.387-1.158h0.062Zm-4.025-1.567a3.755,3.755,0,0,1-.534-2.2,3.915,3.915,0,0,1,.537-2.222,1.764,1.764,0,0,1,1.551-.787,2.044,2.044,0,0,1,1.718.69,3.815,3.815,0,0,1,.538,2.306v0.242a3.237,3.237,0,0,1-.531,2.07,2.1,2.1,0,0,1-1.711.642A1.809,1.809,0,0,1,789.662,438.808Zm16.058,1.311V439.1a5.121,5.121,0,0,1-1.95.409,1.967,1.967,0,0,1-1.676-.749,3.516,3.516,0,0,1-.565-2.15q0-2.954,2.317-2.954a3.731,3.731,0,0,1,.8.1,5.383,5.383,0,0,1,.832.253l0.354-.978a3.6,3.6,0,0,0-.86-0.277,5.181,5.181,0,0,0-1.1-.118,3.309,3.309,0,0,0-2.619,1.04,4.3,4.3,0,0,0-.92,2.947,4.176,4.176,0,0,0,.906,2.875,3.247,3.247,0,0,0,2.557,1.016,4.166,4.166,0,0,0,1.922-.395h0Zm7.429-6.422a3.216,3.216,0,0,0-2.536-1.061,3.287,3.287,0,0,0-2.582,1.037,4.183,4.183,0,0,0-.93,2.895,4.777,4.777,0,0,0,.43,2.094,3.154,3.154,0,0,0,1.222,1.373,3.429,3.429,0,0,0,1.811.479,3.3,3.3,0,0,0,2.588-1.044A4.908,4.908,0,0,0,813.149,433.7Zm-4.278.659a2.027,2.027,0,0,1,1.707-.742,2.059,2.059,0,0,1,1.731.752,3.531,3.531,0,0,1,.587,2.2,3.591,3.591,0,0,1-.587,2.223,2.314,2.314,0,0,1-3.431,0A4.525,4.525,0,0,1,808.871,434.356Zm9.4-1.318a3.342,3.342,0,0,0-1.02,1.144h-0.056l-0.132-1.408h-0.95v7.6h1.152V436.3a2.729,2.729,0,0,1,.655-1.865,2.031,2.031,0,0,1,1.579-.749,3.951,3.951,0,0,1,.833.1l0.16-1.068a4.486,4.486,0,0,0-.91-0.083A2.3,2.3,0,0,0,818.267,433.038Zm5.8,0a3.342,3.342,0,0,0-1.02,1.144h-0.055l-0.132-1.408H821.91v7.6h1.152V436.3a2.73,2.73,0,0,1,.656-1.865,2.028,2.028,0,0,1,1.579-.749,3.943,3.943,0,0,1,.832.1l0.16-1.068a4.469,4.469,0,0,0-.909-0.083A2.3,2.3,0,0,0,824.068,433.038Zm8.172,7.361a6.054,6.054,0,0,0,1.155-.378V439a6.13,6.13,0,0,1-2.429.513,2.339,2.339,0,0,1-1.807-.693,3.011,3.011,0,0,1-.677-2.032h5.239v-0.728a3.6,3.6,0,0,0-.832-2.48,2.873,2.873,0,0,0-2.263-.939,3.006,3.006,0,0,0-2.432,1.082,4.4,4.4,0,0,0-.906,2.919,3.975,3.975,0,0,0,.975,2.851,3.5,3.5,0,0,0,2.662,1.026A6.444,6.444,0,0,0,832.24,440.4Zm-0.24-6.22a2.529,2.529,0,0,1,.486,1.668H828.51a2.74,2.74,0,0,1,.642-1.651,1.883,1.883,0,0,1,1.46-.6A1.71,1.71,0,0,1,832,434.179Zm8.647,5.94V439.1a5.121,5.121,0,0,1-1.95.409,1.967,1.967,0,0,1-1.676-.749,3.516,3.516,0,0,1-.565-2.15q0-2.954,2.317-2.954a3.715,3.715,0,0,1,.8.1,5.362,5.362,0,0,1,.833.253l0.354-.978a3.6,3.6,0,0,0-.86-0.277,5.181,5.181,0,0,0-1.1-.118,3.311,3.311,0,0,0-2.62,1.04,4.305,4.305,0,0,0-.919,2.947,4.176,4.176,0,0,0,.906,2.875,3.247,3.247,0,0,0,2.557,1.016,4.166,4.166,0,0,0,1.922-.395h0Zm3.366-.923a1.534,1.534,0,0,1-.326-1.054v-4.473h2.206v-0.895h-2.206v-1.761H843.02l-0.485,1.623-1.09.478v0.555h1.09v4.522q0,2.324,2.206,2.323a4.178,4.178,0,0,0,.656-0.059,2.1,2.1,0,0,0,.552-0.149v-0.881a3.9,3.9,0,0,1-.451.094,3.782,3.782,0,0,1-.59.045A1.135,1.135,0,0,1,844.013,439.2Zm-68.088,17.325a5.5,5.5,0,0,0,.014-5.809,2.814,2.814,0,0,0-2.335-1.033,3.142,3.142,0,0,0-1.353.278,2.669,2.669,0,0,0-1.034.9h-0.056l-0.16-1.04h-0.936v11.013h1.152V457.7a10.1,10.1,0,0,0-.084-1.262h0.084a2.543,2.543,0,0,0,1.03.842,3.291,3.291,0,0,0,1.357.274A2.816,2.816,0,0,0,775.925,456.521Zm-0.916-5.105a3.644,3.644,0,0,1,.559,2.181,3.786,3.786,0,0,1-.559,2.2,1.781,1.781,0,0,1-1.544.8,2.032,2.032,0,0,1-1.714-.69,3.8,3.8,0,0,1-.534-2.292v-0.256a3.315,3.315,0,0,1,.534-2.053,2.042,2.042,0,0,1,1.686-.645A1.837,1.837,0,0,1,775.009,451.416Zm5.923-1.335a3.346,3.346,0,0,0-1.02,1.145h-0.056l-0.131-1.408h-0.951v7.6h1.152v-4.078a2.727,2.727,0,0,1,.656-1.866,2.027,2.027,0,0,1,1.578-.749,3.951,3.951,0,0,1,.833.1l0.16-1.068a4.556,4.556,0,0,0-.909-0.083A2.3,2.3,0,0,0,780.932,450.081Zm9.268,0.659a3.221,3.221,0,0,0-2.537-1.061,3.29,3.29,0,0,0-2.581,1.037,4.183,4.183,0,0,0-.93,2.895,4.785,4.785,0,0,0,.43,2.1,3.159,3.159,0,0,0,1.222,1.373,3.428,3.428,0,0,0,1.811.478,3.3,3.3,0,0,0,2.588-1.043A4.91,4.91,0,0,0,790.2,450.74Zm-4.278.659a2.027,2.027,0,0,1,1.707-.742,2.062,2.062,0,0,1,1.731.752,3.531,3.531,0,0,1,.587,2.2,3.587,3.587,0,0,1-.587,2.223,2.314,2.314,0,0,1-3.431,0A4.525,4.525,0,0,1,785.922,451.4Zm8.39,7.185v-8.766H793.16v8.849a1.352,1.352,0,0,1-.254.9,0.993,0.993,0,0,1-.794.3,3.4,3.4,0,0,1-.944-0.139v0.936a2.765,2.765,0,0,0,1.069.174q2.075,0,2.075-2.247h0Zm-1.055-10.247a0.664,0.664,0,0,0,.485.191,0.673,0.673,0,0,0,.479-0.191,0.763,0.763,0,0,0,.2-0.579,0.749,0.749,0,0,0-.2-0.575,0.717,0.717,0,0,0-.964,0,0.764,0.764,0,0,0-.195.579A0.776,0.776,0,0,0,793.257,448.337Zm8.025,9.106a6.063,6.063,0,0,0,1.156-.378v-1.026a6.134,6.134,0,0,1-2.429.513,2.34,2.34,0,0,1-1.808-.694,3.009,3.009,0,0,1-.676-2.032h5.239V453.1a3.6,3.6,0,0,0-.833-2.479,2.867,2.867,0,0,0-2.262-.94,3.008,3.008,0,0,0-2.432,1.082,4.4,4.4,0,0,0-.906,2.92,3.971,3.971,0,0,0,.975,2.85,3.5,3.5,0,0,0,2.661,1.026A6.516,6.516,0,0,0,801.282,457.443Zm-0.239-6.221a2.529,2.529,0,0,1,.486,1.668h-3.977a2.747,2.747,0,0,1,.642-1.65,1.881,1.881,0,0,1,1.461-.6A1.711,1.711,0,0,1,801.043,451.222Zm8.647,5.94v-1.019a5.148,5.148,0,0,1-1.95.409,1.968,1.968,0,0,1-1.676-.749,3.518,3.518,0,0,1-.566-2.15q0-2.955,2.318-2.954a3.723,3.723,0,0,1,.8.1,5.508,5.508,0,0,1,.833.253l0.354-.978a3.659,3.659,0,0,0-.861-0.277,5.171,5.171,0,0,0-1.1-.118,3.313,3.313,0,0,0-2.62,1.04,4.308,4.308,0,0,0-.92,2.948,4.173,4.173,0,0,0,.906,2.874,3.245,3.245,0,0,0,2.557,1.016,4.155,4.155,0,0,0,1.923-.4h0Zm3.365-.922a1.541,1.541,0,0,1-.326-1.054v-4.474h2.207v-0.894h-2.207v-1.762h-0.666l-0.486,1.623-1.089.479v0.554h1.089v4.522q0,2.324,2.207,2.323a4.071,4.071,0,0,0,.656-0.059,2.082,2.082,0,0,0,.551-0.149v-0.881a3.658,3.658,0,0,1-.451.094,3.76,3.76,0,0,1-.589.045A1.137,1.137,0,0,1,813.055,456.24Zm13.009,0.281a5.5,5.5,0,0,0,.013-5.809,2.813,2.813,0,0,0-2.335-1.033,3.142,3.142,0,0,0-1.353.278,2.676,2.676,0,0,0-1.034.9H821.3l-0.16-1.04H820.2v11.013h1.152V457.7a10.281,10.281,0,0,0-.083-1.262h0.083a2.546,2.546,0,0,0,1.031.842,3.283,3.283,0,0,0,1.356.274A2.819,2.819,0,0,0,826.064,456.521Zm-0.916-5.105a3.644,3.644,0,0,1,.558,2.181,3.786,3.786,0,0,1-.558,2.2,1.784,1.784,0,0,1-1.545.8,2.034,2.034,0,0,1-1.714-.69,3.8,3.8,0,0,1-.534-2.292v-0.256a3.315,3.315,0,0,1,.534-2.053,2.043,2.043,0,0,1,1.687-.645A1.84,1.84,0,0,1,825.148,451.416Zm4.916-4.788h-1.152v10.791h1.152V446.628Zm7.974,10.791v-5.188a2.521,2.521,0,0,0-.656-1.935,2.9,2.9,0,0,0-2.016-.6,5.368,5.368,0,0,0-1.343.173,5.471,5.471,0,0,0-1.232.479l0.354,0.881a5.018,5.018,0,0,1,2.152-.583,1.58,1.58,0,0,1,1.231.427,1.923,1.923,0,0,1,.386,1.321v0.471l-1.291.042q-3.686.111-3.685,2.413a2.125,2.125,0,0,0,.642,1.658,2.543,2.543,0,0,0,1.773.582,3.457,3.457,0,0,0,1.412-.253,3.21,3.21,0,0,0,1.135-.967h0.055l0.229,1.082h0.854Zm-4.514-1.138a1.183,1.183,0,0,1-.379-0.95,1.286,1.286,0,0,1,.608-1.175,4.2,4.2,0,0,1,1.981-.427l1.152-.048v0.686a2.182,2.182,0,0,1-.614,1.651,2.34,2.34,0,0,1-1.69.589A1.565,1.565,0,0,1,833.524,456.281Zm13.244,1.138V452.46a2.822,2.822,0,0,0-.694-2.119,2.893,2.893,0,0,0-2.068-.662,3.225,3.225,0,0,0-1.423.309,2.353,2.353,0,0,0-.992.87h-0.056l-0.187-1.04h-0.937v7.6h1.152v-3.988a3.256,3.256,0,0,1,.555-2.129,2.187,2.187,0,0,1,1.749-.645,1.725,1.725,0,0,1,1.325.458,1.978,1.978,0,0,1,.424,1.387v4.917h1.152Z" transform="translate(-621 -160)"/>
  <path id="Corrective_actions" data-name="Corrective actions" class="cls-2" d="M757.091,382.959l0.5-1.013a6.3,6.3,0,0,0-2.79-.582A5.133,5.133,0,0,0,752.2,382a4.206,4.206,0,0,0-1.693,1.817,6.091,6.091,0,0,0-.586,2.746,5.6,5.6,0,0,0,1.217,3.863,4.4,4.4,0,0,0,3.46,1.359,7.475,7.475,0,0,0,2.6-.395v-1.033a9.1,9.1,0,0,1-2.422.381,3.319,3.319,0,0,1-2.661-1.085,4.58,4.58,0,0,1-.933-3.076,4.484,4.484,0,0,1,.968-3.048,3.317,3.317,0,0,1,2.64-1.113,5.375,5.375,0,0,1,2.3.541h0Zm7.769,2.011a3.219,3.219,0,0,0-2.536-1.061,3.29,3.29,0,0,0-2.582,1.037,4.183,4.183,0,0,0-.93,2.895,4.785,4.785,0,0,0,.43,2.095,3.159,3.159,0,0,0,1.222,1.373,3.428,3.428,0,0,0,1.811.478,3.3,3.3,0,0,0,2.588-1.044A4.908,4.908,0,0,0,764.86,384.97Zm-4.278.659a2.027,2.027,0,0,1,1.707-.742,2.062,2.062,0,0,1,1.731.752,3.531,3.531,0,0,1,.587,2.2,3.587,3.587,0,0,1-.587,2.223,2.314,2.314,0,0,1-3.431,0A4.525,4.525,0,0,1,760.582,385.629Zm9.4-1.318a3.337,3.337,0,0,0-1.02,1.145H768.9l-0.132-1.408h-0.95v7.6h1.152v-4.077a2.732,2.732,0,0,1,.655-1.866,2.031,2.031,0,0,1,1.579-.749,3.951,3.951,0,0,1,.833.1l0.16-1.068a4.559,4.559,0,0,0-.91-0.083A2.3,2.3,0,0,0,769.978,384.311Zm5.8,0a3.337,3.337,0,0,0-1.02,1.145H774.7l-0.132-1.408h-0.951v7.6h1.152v-4.077a2.732,2.732,0,0,1,.656-1.866,2.028,2.028,0,0,1,1.579-.749,3.943,3.943,0,0,1,.832.1l0.16-1.068a4.541,4.541,0,0,0-.909-0.083A2.3,2.3,0,0,0,775.779,384.311Zm8.172,7.362a6.126,6.126,0,0,0,1.155-.378v-1.027a6.114,6.114,0,0,1-2.429.514,2.34,2.34,0,0,1-1.807-.694,3.011,3.011,0,0,1-.677-2.032h5.239v-0.728a3.6,3.6,0,0,0-.832-2.479,2.87,2.87,0,0,0-2.263-.94,3.009,3.009,0,0,0-2.432,1.082,4.4,4.4,0,0,0-.906,2.92,3.971,3.971,0,0,0,.975,2.85,3.5,3.5,0,0,0,2.662,1.026A6.53,6.53,0,0,0,783.951,391.673Zm-0.24-6.221a2.529,2.529,0,0,1,.486,1.668h-3.976a2.74,2.74,0,0,1,.642-1.651,1.883,1.883,0,0,1,1.46-.6A1.71,1.71,0,0,1,783.711,385.452Zm8.647,5.94v-1.02a5.123,5.123,0,0,1-1.95.41,1.969,1.969,0,0,1-1.676-.749,3.518,3.518,0,0,1-.565-2.15q0-2.955,2.317-2.955a3.715,3.715,0,0,1,.8.1,5.473,5.473,0,0,1,.833.253l0.354-.978a3.649,3.649,0,0,0-.86-0.277,5.181,5.181,0,0,0-1.1-.118,3.315,3.315,0,0,0-2.62,1.04,4.308,4.308,0,0,0-.919,2.948,4.173,4.173,0,0,0,.906,2.874,3.243,3.243,0,0,0,2.557,1.016,4.166,4.166,0,0,0,1.922-.395h0Zm3.366-.922a1.537,1.537,0,0,1-.326-1.055v-4.473H797.6v-0.894H795.4v-1.762h-0.667l-0.485,1.623-1.09.479v0.554h1.09v4.522q0,2.323,2.206,2.323a4.178,4.178,0,0,0,.656-0.059,2.1,2.1,0,0,0,.552-0.149V390.7a3.7,3.7,0,0,1-.451.094,3.782,3.782,0,0,1-.59.045A1.135,1.135,0,0,1,795.724,390.47Zm4.608-6.422H799.18v7.6h1.152v-7.6Zm-1.055-1.481a0.7,0.7,0,0,0,.964,0,0.759,0.759,0,0,0,.2-0.579,0.749,0.749,0,0,0-.2-0.576,0.719,0.719,0,0,0-.964,0,0.764,0.764,0,0,0-.2.579A0.776,0.776,0,0,0,799.277,382.567Zm6.509,9.081,2.887-7.6h-1.235q-1.416,3.884-1.822,5.038a15.419,15.419,0,0,0-.482,1.522h-0.056a21.506,21.506,0,0,0-.652-2.053l-1.638-4.507h-1.235l2.887,7.6h1.346Zm8.636,0.025a6.111,6.111,0,0,0,1.156-.378v-1.027a6.118,6.118,0,0,1-2.429.514,2.343,2.343,0,0,1-1.808-.694,3.011,3.011,0,0,1-.676-2.032H815.9v-0.728a3.6,3.6,0,0,0-.833-2.479,2.867,2.867,0,0,0-2.262-.94,3.008,3.008,0,0,0-2.432,1.082,4.4,4.4,0,0,0-.906,2.92,3.971,3.971,0,0,0,.975,2.85,3.5,3.5,0,0,0,2.661,1.026A6.516,6.516,0,0,0,814.422,391.673Zm-0.239-6.221a2.529,2.529,0,0,1,.486,1.668h-3.977a2.753,2.753,0,0,1,.642-1.651,1.883,1.883,0,0,1,1.461-.6A1.711,1.711,0,0,1,814.183,385.452Zm12.908,6.2v-5.187a2.518,2.518,0,0,0-.656-1.935,2.9,2.9,0,0,0-2.016-.6,5.362,5.362,0,0,0-1.343.173,5.424,5.424,0,0,0-1.232.479l0.354,0.881a5.018,5.018,0,0,1,2.151-.583,1.582,1.582,0,0,1,1.232.427,1.923,1.923,0,0,1,.385,1.321v0.471l-1.29.042q-3.685.111-3.685,2.413a2.125,2.125,0,0,0,.642,1.658,2.541,2.541,0,0,0,1.773.582,3.457,3.457,0,0,0,1.412-.253,3.2,3.2,0,0,0,1.134-.967h0.056l0.229,1.081h0.854Zm-4.515-1.137a1.185,1.185,0,0,1-.378-0.95,1.286,1.286,0,0,1,.607-1.175,4.191,4.191,0,0,1,1.982-.427l1.152-.048V388.6a2.18,2.18,0,0,1-.615,1.651,2.336,2.336,0,0,1-1.689.589A1.568,1.568,0,0,1,822.576,390.511Zm11.85,0.881v-1.02a5.127,5.127,0,0,1-1.95.41,1.968,1.968,0,0,1-1.676-.749,3.518,3.518,0,0,1-.566-2.15q0-2.955,2.318-2.955a3.73,3.73,0,0,1,.8.1,5.508,5.508,0,0,1,.833.253l0.354-.978a3.644,3.644,0,0,0-.861-0.277,5.171,5.171,0,0,0-1.1-.118,3.313,3.313,0,0,0-2.62,1.04,4.308,4.308,0,0,0-.919,2.948,4.173,4.173,0,0,0,.9,2.874,3.245,3.245,0,0,0,2.557,1.016,4.168,4.168,0,0,0,1.923-.395h0Zm3.365-.922a1.542,1.542,0,0,1-.326-1.055v-4.473h2.207v-0.894h-2.207v-1.762H836.8l-0.486,1.623-1.089.479v0.554h1.089v4.522q0,2.323,2.207,2.323a4.189,4.189,0,0,0,.656-0.059,2.1,2.1,0,0,0,.552-0.149V390.7a3.681,3.681,0,0,1-.452.094,3.76,3.76,0,0,1-.589.045A1.137,1.137,0,0,1,837.791,390.47Zm4.608-6.422h-1.152v7.6H842.4v-7.6Zm-1.055-1.481a0.7,0.7,0,0,0,.965,0,0.762,0.762,0,0,0,.2-0.579,0.752,0.752,0,0,0-.2-0.576,0.72,0.72,0,0,0-.965,0,0.768,0.768,0,0,0-.194.579A0.78,0.78,0,0,0,841.344,382.567Zm9.123,2.4a3.221,3.221,0,0,0-2.537-1.061,3.29,3.29,0,0,0-2.581,1.037,4.183,4.183,0,0,0-.93,2.895,4.785,4.785,0,0,0,.43,2.095,3.164,3.164,0,0,0,1.221,1.373,3.432,3.432,0,0,0,1.812.478,3.3,3.3,0,0,0,2.588-1.044A4.908,4.908,0,0,0,850.467,384.97Zm-4.279.659a2.027,2.027,0,0,1,1.707-.742,2.063,2.063,0,0,1,1.732.752,3.531,3.531,0,0,1,.586,2.2,3.587,3.587,0,0,1-.586,2.223,2.315,2.315,0,0,1-3.432,0,3.608,3.608,0,0,1-.583-2.219A3.569,3.569,0,0,1,846.188,385.629Zm13.6,6.019V386.69a2.818,2.818,0,0,0-.694-2.119,2.893,2.893,0,0,0-2.068-.662,3.225,3.225,0,0,0-1.423.309,2.346,2.346,0,0,0-.992.87H854.55l-0.187-1.04h-0.937v7.6h1.152v-3.987a3.256,3.256,0,0,1,.555-2.129,2.187,2.187,0,0,1,1.749-.645,1.724,1.724,0,0,1,1.326.458,1.983,1.983,0,0,1,.423,1.387v4.916h1.152Zm6.8-3.328a4.971,4.971,0,0,0-1.828-.992,11.2,11.2,0,0,1-1.333-.562,1.541,1.541,0,0,1-.5-0.409,0.861,0.861,0,0,1-.156-0.52,0.793,0.793,0,0,1,.416-0.707,2.393,2.393,0,0,1,1.236-.257,5.507,5.507,0,0,1,2.075.472l0.409-.937a6.072,6.072,0,0,0-2.4-.5,3.521,3.521,0,0,0-2.075.538,1.7,1.7,0,0,0-.756,1.466,1.743,1.743,0,0,0,.218.895,2.058,2.058,0,0,0,.666.669,8.105,8.105,0,0,0,1.51.69,6.043,6.043,0,0,1,1.5.746,0.99,0.99,0,0,1-.1,1.636,2.741,2.741,0,0,1-1.387.288,4.923,4.923,0,0,1-1.211-.159,5.754,5.754,0,0,1-1.177-.437v1.068a4.835,4.835,0,0,0,2.36.478,3.723,3.723,0,0,0,2.22-.575,1.9,1.9,0,0,0,.792-1.637A1.748,1.748,0,0,0,866.58,388.32Z" transform="translate(-621 -160)"/>
  <rect id="bg_copy_4" data-name="bg copy 4" class="cls-3" x="128.844" y="142.938" width="117" height="64.468"/>
  <path id="Monitor_project_plan" data-name="Monitor project plan" class="cls-2" d="M788.645,321.727l3.47-8.974h0.056q-0.1,1.317-.1,2.441v6.533h1.18V311.588h-1.762l-3.241,8.363h-0.056l-3.213-8.363h-1.776v10.139h1.089v-6.45q0-1.47-.1-2.538h0.056l3.442,8.988h0.95Zm12.842-6.679a3.219,3.219,0,0,0-2.536-1.061,3.29,3.29,0,0,0-2.582,1.037,4.183,4.183,0,0,0-.93,2.895,4.8,4.8,0,0,0,.43,2.1,3.159,3.159,0,0,0,1.222,1.373,3.428,3.428,0,0,0,1.811.478,3.3,3.3,0,0,0,2.588-1.043A4.91,4.91,0,0,0,801.487,315.048Zm-4.278.659a2.03,2.03,0,0,1,1.707-.742,2.06,2.06,0,0,1,1.731.753,3.526,3.526,0,0,1,.587,2.2,3.587,3.587,0,0,1-.587,2.223,2.313,2.313,0,0,1-3.431,0,3.607,3.607,0,0,1-.583-2.22A3.569,3.569,0,0,1,797.209,315.707Zm13.594,6.02v-4.959a2.814,2.814,0,0,0-.694-2.118,2.887,2.887,0,0,0-2.068-.663,3.22,3.22,0,0,0-1.422.309,2.356,2.356,0,0,0-.993.87h-0.055l-0.187-1.04h-0.937v7.6H805.6v-3.988a3.256,3.256,0,0,1,.555-2.129,2.187,2.187,0,0,1,1.749-.645,1.725,1.725,0,0,1,1.325.458,1.983,1.983,0,0,1,.423,1.387v4.917H810.8Zm3.519-7.6H813.17v7.6h1.152v-7.6Zm-1.055-1.481a0.661,0.661,0,0,0,.486.191,0.671,0.671,0,0,0,.479-0.191,0.762,0.762,0,0,0,.2-0.579,0.75,0.75,0,0,0-.2-0.575,0.719,0.719,0,0,0-.965,0,0.764,0.764,0,0,0-.194.579A0.776,0.776,0,0,0,813.267,312.645Zm5.059,7.9a1.536,1.536,0,0,1-.326-1.054v-4.473h2.207v-0.9H818v-1.761h-0.666l-0.486,1.622-1.09.479v0.555h1.09v4.521q0,2.324,2.207,2.323a4.166,4.166,0,0,0,.655-0.058,2.1,2.1,0,0,0,.552-0.15v-0.88a3.887,3.887,0,0,1-.451.093,3.772,3.772,0,0,1-.59.045A1.135,1.135,0,0,1,818.326,320.548Zm9.08-5.5a3.219,3.219,0,0,0-2.536-1.061,3.292,3.292,0,0,0-2.582,1.037,4.183,4.183,0,0,0-.93,2.895,4.785,4.785,0,0,0,.431,2.1,3.164,3.164,0,0,0,1.221,1.373,3.431,3.431,0,0,0,1.811.478,3.3,3.3,0,0,0,2.589-1.043A4.907,4.907,0,0,0,827.406,315.048Zm-4.278.659a2.03,2.03,0,0,1,1.707-.742,2.061,2.061,0,0,1,1.732.753,3.526,3.526,0,0,1,.586,2.2,3.587,3.587,0,0,1-.586,2.223,2.314,2.314,0,0,1-3.432,0,3.607,3.607,0,0,1-.583-2.22A3.569,3.569,0,0,1,823.128,315.707Zm9.4-1.317a3.333,3.333,0,0,0-1.02,1.144h-0.055l-0.132-1.408h-0.951v7.6h1.152v-4.078a2.734,2.734,0,0,1,.656-1.866,2.027,2.027,0,0,1,1.579-.748,3.878,3.878,0,0,1,.832.1l0.16-1.068a4.465,4.465,0,0,0-.909-0.084A2.292,2.292,0,0,0,832.524,314.39Zm-40.287,23.482a5.5,5.5,0,0,0,.013-5.808,2.81,2.81,0,0,0-2.335-1.033,3.142,3.142,0,0,0-1.353.277,2.679,2.679,0,0,0-1.034.9h-0.055l-0.16-1.041h-0.937v11.013h1.152v-3.127a10.3,10.3,0,0,0-.083-1.263h0.083a2.548,2.548,0,0,0,1.031.843,3.283,3.283,0,0,0,1.356.274A2.82,2.82,0,0,0,792.237,337.872Zm-0.916-5.1a3.64,3.64,0,0,1,.558,2.181,3.78,3.78,0,0,1-.558,2.2,1.785,1.785,0,0,1-1.545.8,2.034,2.034,0,0,1-1.714-.69,3.8,3.8,0,0,1-.534-2.292v-0.257a3.314,3.314,0,0,1,.534-2.052,2.044,2.044,0,0,1,1.687-.645A1.84,1.84,0,0,1,791.321,332.768Zm5.922-1.335a3.352,3.352,0,0,0-1.02,1.144h-0.055l-0.132-1.408h-0.951v7.6h1.152v-4.078a2.73,2.73,0,0,1,.656-1.865,2.028,2.028,0,0,1,1.579-.749,3.959,3.959,0,0,1,.833.1l0.159-1.068a4.469,4.469,0,0,0-.909-0.083A2.3,2.3,0,0,0,797.243,331.433Zm9.268,0.659a3.216,3.216,0,0,0-2.536-1.061,3.288,3.288,0,0,0-2.582,1.037,4.183,4.183,0,0,0-.93,2.9,4.777,4.777,0,0,0,.431,2.094,3.152,3.152,0,0,0,1.221,1.373,3.429,3.429,0,0,0,1.811.479,3.3,3.3,0,0,0,2.589-1.044A4.906,4.906,0,0,0,806.511,332.092Zm-4.278.659a2.027,2.027,0,0,1,1.707-.742,2.06,2.06,0,0,1,1.732.752,3.538,3.538,0,0,1,.586,2.2,3.6,3.6,0,0,1-.586,2.223,2.315,2.315,0,0,1-3.432,0A4.525,4.525,0,0,1,802.233,332.751Zm8.39,7.184v-8.766h-1.152v8.849a1.353,1.353,0,0,1-.253.9,1,1,0,0,1-.795.294,3.4,3.4,0,0,1-.944-0.138v0.936a2.79,2.79,0,0,0,1.069.173q2.075,0,2.075-2.247h0Zm-1.055-10.246a0.7,0.7,0,0,0,.965,0,0.762,0.762,0,0,0,.2-0.579,0.752,0.752,0,0,0-.2-0.576,0.72,0.72,0,0,0-.965,0,0.765,0.765,0,0,0-.194.579A0.78,0.78,0,0,0,809.568,329.689Zm8.026,9.1a6.118,6.118,0,0,0,1.155-.377V337.39a6.13,6.13,0,0,1-2.429.513,2.339,2.339,0,0,1-1.807-.693,3.011,3.011,0,0,1-.677-2.032h5.239V334.45a3.6,3.6,0,0,0-.832-2.48,2.873,2.873,0,0,0-2.263-.939,3.006,3.006,0,0,0-2.432,1.082,4.4,4.4,0,0,0-.906,2.919,3.975,3.975,0,0,0,.975,2.851,3.5,3.5,0,0,0,2.662,1.026A6.444,6.444,0,0,0,817.594,338.794Zm-0.24-6.22a2.529,2.529,0,0,1,.486,1.668h-3.976a2.74,2.74,0,0,1,.642-1.651,1.883,1.883,0,0,1,1.46-.6A1.71,1.71,0,0,1,817.354,332.574Zm8.647,5.94v-1.02a5.121,5.121,0,0,1-1.95.409,1.967,1.967,0,0,1-1.676-.749,3.515,3.515,0,0,1-.565-2.149q0-2.955,2.317-2.955a3.715,3.715,0,0,1,.8.1,5.362,5.362,0,0,1,.833.253l0.354-.978a3.6,3.6,0,0,0-.86-0.277,5.181,5.181,0,0,0-1.1-.118,3.315,3.315,0,0,0-2.62,1.04,4.307,4.307,0,0,0-.919,2.947,4.176,4.176,0,0,0,.906,2.875,3.247,3.247,0,0,0,2.557,1.016,4.166,4.166,0,0,0,1.922-.395h0Zm3.366-.923a1.534,1.534,0,0,1-.326-1.054v-4.473h2.206v-0.9h-2.206v-1.761h-0.667l-0.485,1.623-1.09.478v0.555h1.09v4.522q0,2.323,2.206,2.323a4.178,4.178,0,0,0,.656-0.059,2.1,2.1,0,0,0,.552-0.149V337.82a3.7,3.7,0,0,1-.451.094,3.782,3.782,0,0,1-.59.045A1.135,1.135,0,0,1,829.367,337.591Zm-28.373,17.325a5.5,5.5,0,0,0,.014-5.809,2.813,2.813,0,0,0-2.335-1.033,3.142,3.142,0,0,0-1.353.278,2.676,2.676,0,0,0-1.034.9H796.23l-0.159-1.04h-0.937v11.013h1.152V356.1a10.281,10.281,0,0,0-.083-1.262h0.083a2.543,2.543,0,0,0,1.03.842,3.291,3.291,0,0,0,1.357.274A2.816,2.816,0,0,0,800.994,354.916Zm-0.916-5.105a3.637,3.637,0,0,1,.559,2.181,3.778,3.778,0,0,1-.559,2.2,1.781,1.781,0,0,1-1.544.8,2.033,2.033,0,0,1-1.714-.69,3.8,3.8,0,0,1-.534-2.292V351.75a3.315,3.315,0,0,1,.534-2.053,2.042,2.042,0,0,1,1.686-.645A1.837,1.837,0,0,1,800.078,349.811ZM805,345.023h-1.152v10.791H805V345.023Zm7.974,10.791v-5.188a2.521,2.521,0,0,0-.656-1.935,2.9,2.9,0,0,0-2.016-.6,5.362,5.362,0,0,0-1.343.173,5.452,5.452,0,0,0-1.232.479l0.354,0.881a5.014,5.014,0,0,1,2.151-.583,1.582,1.582,0,0,1,1.232.427,1.923,1.923,0,0,1,.385,1.321v0.471l-1.29.042q-3.685.111-3.685,2.413a2.125,2.125,0,0,0,.642,1.658,2.541,2.541,0,0,0,1.773.582,3.457,3.457,0,0,0,1.412-.253,3.2,3.2,0,0,0,1.134-.967h0.056l0.229,1.082h0.854Zm-4.515-1.138a1.185,1.185,0,0,1-.378-0.95,1.285,1.285,0,0,1,.607-1.175,4.2,4.2,0,0,1,1.982-.427l1.152-.048v0.686a2.178,2.178,0,0,1-.615,1.651,2.336,2.336,0,0,1-1.689.589A1.568,1.568,0,0,1,808.454,354.676Zm13.245,1.138v-4.959a2.822,2.822,0,0,0-.694-2.119,2.893,2.893,0,0,0-2.068-.662,3.225,3.225,0,0,0-1.423.309,2.353,2.353,0,0,0-.992.87h-0.056l-0.187-1.04h-0.937v7.6h1.152v-3.988a3.256,3.256,0,0,1,.555-2.129,2.187,2.187,0,0,1,1.749-.645,1.725,1.725,0,0,1,1.325.458,1.983,1.983,0,0,1,.424,1.387v4.917H821.7Z" transform="translate(-621 -160)"/>
  <rect id="bg_copy_3" data-name="bg copy 3" class="cls-4" x="128.844" y="68.625" width="117" height="64.5"/>
  <path id="Manage_communications" data-name="Manage communications" class="cls-2" d="M789.178,257.05l3.47-8.974H792.7q-0.1,1.317-.1,2.441v6.533h1.179V246.911h-1.762l-3.241,8.363h-0.056l-3.213-8.363h-1.776V257.05h1.089V250.6q0-1.47-.1-2.538h0.056l3.442,8.988h0.95Zm12.748,0v-5.188a2.517,2.517,0,0,0-.655-1.934,2.9,2.9,0,0,0-2.016-.6,5.318,5.318,0,0,0-1.343.174,5.4,5.4,0,0,0-1.232.478l0.354,0.881a5.025,5.025,0,0,1,2.151-.583,1.586,1.586,0,0,1,1.232.427,1.925,1.925,0,0,1,.385,1.321v0.472l-1.291.041q-3.684.111-3.684,2.414a2.123,2.123,0,0,0,.641,1.657,2.544,2.544,0,0,0,1.774.583,3.456,3.456,0,0,0,1.412-.254,3.189,3.189,0,0,0,1.134-.967h0.056l0.229,1.082h0.853Zm-4.514-1.138a1.185,1.185,0,0,1-.378-0.95,1.285,1.285,0,0,1,.607-1.175,4.2,4.2,0,0,1,1.982-.427l1.151-.048V254a2.178,2.178,0,0,1-.614,1.651,2.336,2.336,0,0,1-1.689.589A1.568,1.568,0,0,1,797.412,255.912Zm13.244,1.138v-4.959a2.814,2.814,0,0,0-.694-2.118,2.886,2.886,0,0,0-2.068-.663,3.22,3.22,0,0,0-1.422.309,2.347,2.347,0,0,0-.992.87h-0.056l-0.187-1.04H804.3v7.6h1.152v-3.988a3.256,3.256,0,0,1,.555-2.129,2.187,2.187,0,0,1,1.749-.645,1.725,1.725,0,0,1,1.325.458,1.983,1.983,0,0,1,.423,1.387v4.917h1.152Zm7.9,0v-5.188a2.517,2.517,0,0,0-.656-1.934,2.894,2.894,0,0,0-2.016-.6,5.323,5.323,0,0,0-1.343.174,5.422,5.422,0,0,0-1.232.478l0.354,0.881a5.032,5.032,0,0,1,2.152-.583,1.584,1.584,0,0,1,1.231.427,1.925,1.925,0,0,1,.385,1.321v0.472l-1.29.041q-3.685.111-3.685,2.414a2.123,2.123,0,0,0,.642,1.657,2.543,2.543,0,0,0,1.773.583,3.456,3.456,0,0,0,1.412-.254,3.2,3.2,0,0,0,1.135-.967h0.055l0.229,1.082h0.854Zm-4.515-1.138a1.185,1.185,0,0,1-.378-0.95,1.287,1.287,0,0,1,.607-1.175,4.2,4.2,0,0,1,1.982-.427l1.152-.048V254a2.182,2.182,0,0,1-.614,1.651,2.34,2.34,0,0,1-1.69.589A1.569,1.569,0,0,1,814.039,255.912Zm10.483-6.463a3.887,3.887,0,0,0-1.076-.139,3.058,3.058,0,0,0-2.123.677,2.732,2.732,0,0,0-.379,3.256,2.06,2.06,0,0,0,.961.825,2.329,2.329,0,0,0-.7.6,1.217,1.217,0,0,0-.222.728,1.081,1.081,0,0,0,.2.645,1.2,1.2,0,0,0,.49.409,2.271,2.271,0,0,0-1.25.687,1.758,1.758,0,0,0-.444,1.2,1.791,1.791,0,0,0,.809,1.567,4.037,4.037,0,0,0,2.3.555,5.427,5.427,0,0,0,2.956-.662,2.159,2.159,0,0,0,1.014-1.925,1.807,1.807,0,0,0-.663-1.512,3.022,3.022,0,0,0-1.9-.52h-1.346a1.87,1.87,0,0,1-.882-0.149,0.5,0.5,0,0,1-.256-0.461,1.133,1.133,0,0,1,.735-0.978,3.494,3.494,0,0,0,.639.056,3.079,3.079,0,0,0,2.1-.666,2.247,2.247,0,0,0,.764-1.783,2.47,2.47,0,0,0-.5-1.518l1.409-.167v-0.728h-2.63Zm-3,7.8a1.816,1.816,0,0,1,1.221-.375h1.381a2.962,2.962,0,0,1,1.437.24,0.93,0.93,0,0,1,.381.856,1.327,1.327,0,0,1-.7,1.176,4.166,4.166,0,0,1-2.148.433,2.87,2.87,0,0,1-1.492-.319,1.032,1.032,0,0,1-.52-0.936A1.336,1.336,0,0,1,821.524,257.251Zm0.624-6.665a1.692,1.692,0,0,1,1.249-.436,1.511,1.511,0,0,1,1.708,1.712,1.469,1.469,0,0,1-1.687,1.637,1.8,1.8,0,0,1-1.256-.409,1.546,1.546,0,0,1-.451-1.207A1.763,1.763,0,0,1,822.148,250.586Zm11.093,6.488a6.063,6.063,0,0,0,1.156-.378V255.67a6.134,6.134,0,0,1-2.429.513,2.34,2.34,0,0,1-1.808-.694,3.013,3.013,0,0,1-.677-2.031h5.24v-0.729a3.6,3.6,0,0,0-.833-2.479,2.87,2.87,0,0,0-2.262-.94,3.008,3.008,0,0,0-2.432,1.082,4.4,4.4,0,0,0-.906,2.92,3.971,3.971,0,0,0,.975,2.85,3.5,3.5,0,0,0,2.661,1.027A6.509,6.509,0,0,0,833.241,257.074ZM833,250.853a2.529,2.529,0,0,1,.486,1.668h-3.977a2.749,2.749,0,0,1,.642-1.65,1.881,1.881,0,0,1,1.461-.6A1.711,1.711,0,0,1,833,250.853Zm-73.015,22.984v-1.02a5.121,5.121,0,0,1-1.95.409,1.967,1.967,0,0,1-1.676-.749,3.515,3.515,0,0,1-.565-2.149q0-2.955,2.317-2.955a3.731,3.731,0,0,1,.8.1,5.383,5.383,0,0,1,.832.253l0.354-.978a3.6,3.6,0,0,0-.86-0.277,5.181,5.181,0,0,0-1.1-.118,3.311,3.311,0,0,0-2.619,1.04,4.3,4.3,0,0,0-.92,2.947,4.174,4.174,0,0,0,.906,2.875,3.247,3.247,0,0,0,2.557,1.016,4.166,4.166,0,0,0,1.922-.4h0Zm7.429-6.422a3.216,3.216,0,0,0-2.536-1.061,3.287,3.287,0,0,0-2.582,1.037,4.183,4.183,0,0,0-.93,2.895,4.777,4.777,0,0,0,.43,2.094,3.154,3.154,0,0,0,1.222,1.373,3.429,3.429,0,0,0,1.811.479,3.3,3.3,0,0,0,2.588-1.044A4.908,4.908,0,0,0,767.416,267.415Zm-4.278.659a2.027,2.027,0,0,1,1.707-.742,2.059,2.059,0,0,1,1.731.752,3.531,3.531,0,0,1,.587,2.2,3.591,3.591,0,0,1-.587,2.223,2.314,2.314,0,0,1-3.431,0A4.525,4.525,0,0,1,763.138,268.074Zm18.084,6.019v-4.958a2.963,2.963,0,0,0-.642-2.119,2.578,2.578,0,0,0-1.932-.662,3.054,3.054,0,0,0-1.472.347,2.423,2.423,0,0,0-.985.943h-0.055a2.261,2.261,0,0,0-2.332-1.29,2.808,2.808,0,0,0-1.329.312,2.265,2.265,0,0,0-.92.867H771.5l-0.187-1.04h-0.937v7.6h1.152v-3.987a3.5,3.5,0,0,1,.5-2.126,1.881,1.881,0,0,1,1.585-.648,1.513,1.513,0,0,1,1.215.454,2.052,2.052,0,0,1,.388,1.363v4.944h1.152v-4.244a2.933,2.933,0,0,1,.514-1.9,1.948,1.948,0,0,1,1.589-.617,1.505,1.505,0,0,1,1.208.454,2.052,2.052,0,0,1,.388,1.363v4.944h1.152Zm13.22,0v-4.958a2.963,2.963,0,0,0-.642-2.119,2.578,2.578,0,0,0-1.932-.662,3.054,3.054,0,0,0-1.472.347,2.423,2.423,0,0,0-.985.943h-0.056a2.258,2.258,0,0,0-2.331-1.29,2.808,2.808,0,0,0-1.329.312,2.265,2.265,0,0,0-.92.867H784.72l-0.188-1.04H783.6v7.6h1.152v-3.987a3.5,3.5,0,0,1,.5-2.126,1.881,1.881,0,0,1,1.585-.648,1.513,1.513,0,0,1,1.215.454,2.052,2.052,0,0,1,.388,1.363v4.944h1.152v-4.244a2.927,2.927,0,0,1,.514-1.9,1.948,1.948,0,0,1,1.589-.617,1.505,1.505,0,0,1,1.208.454,2.052,2.052,0,0,1,.388,1.363v4.944h1.152Zm2.29-7.6v4.972a2.8,2.8,0,0,0,.691,2.108,2.909,2.909,0,0,0,2.078.659,3.314,3.314,0,0,0,1.433-.3,2.3,2.3,0,0,0,.982-0.86h0.062l0.167,1.019H803.1v-7.6h-1.152v3.994a3.284,3.284,0,0,1-.552,2.129,2.163,2.163,0,0,1-1.745.652,1.726,1.726,0,0,1-1.326-.458,1.983,1.983,0,0,1-.423-1.387v-4.93h-1.166Zm15.163,7.6v-4.958a2.818,2.818,0,0,0-.694-2.119,2.891,2.891,0,0,0-2.068-.662,3.231,3.231,0,0,0-1.422.308,2.351,2.351,0,0,0-.993.871h-0.055l-0.188-1.04h-0.937v7.6h1.152v-3.987a3.248,3.248,0,0,1,.556-2.129,2.186,2.186,0,0,1,1.748-.645,1.726,1.726,0,0,1,1.326.457,1.985,1.985,0,0,1,.423,1.387v4.917H811.9Zm3.519-7.6h-1.152v7.6h1.152v-7.6Zm-1.055-1.481a0.664,0.664,0,0,0,.485.191,0.673,0.673,0,0,0,.479-0.191,0.763,0.763,0,0,0,.2-0.579,0.752,0.752,0,0,0-.2-0.576,0.719,0.719,0,0,0-.964,0,0.761,0.761,0,0,0-.2.579A0.776,0.776,0,0,0,814.359,265.012Zm8.459,8.825v-1.02a5.121,5.121,0,0,1-1.95.409,1.967,1.967,0,0,1-1.676-.749,3.515,3.515,0,0,1-.565-2.149q0-2.955,2.317-2.955a3.715,3.715,0,0,1,.8.1,5.362,5.362,0,0,1,.833.253l0.354-.978a3.6,3.6,0,0,0-.86-0.277,5.181,5.181,0,0,0-1.1-.118,3.315,3.315,0,0,0-2.62,1.04,4.307,4.307,0,0,0-.919,2.947,4.174,4.174,0,0,0,.906,2.875,3.247,3.247,0,0,0,2.557,1.016,4.166,4.166,0,0,0,1.922-.4h0Zm7.335,0.256v-5.187a2.514,2.514,0,0,0-.656-1.935,2.9,2.9,0,0,0-2.016-.6,5.526,5.526,0,0,0-2.574.652l0.354,0.88a5.022,5.022,0,0,1,2.151-.582,1.587,1.587,0,0,1,1.232.426,1.926,1.926,0,0,1,.385,1.321v0.472l-1.291.042q-3.684.111-3.685,2.413a2.122,2.122,0,0,0,.642,1.657,2.539,2.539,0,0,0,1.773.583,3.453,3.453,0,0,0,1.412-.253,3.2,3.2,0,0,0,1.135-.968h0.056l0.229,1.082h0.853Zm-4.514-1.137a1.185,1.185,0,0,1-.378-0.95,1.286,1.286,0,0,1,.607-1.176,4.188,4.188,0,0,1,1.981-.426l1.152-.049v0.687a2.181,2.181,0,0,1-.614,1.65,2.339,2.339,0,0,1-1.69.59A1.572,1.572,0,0,1,825.639,272.956Zm8.449-.042a1.534,1.534,0,0,1-.326-1.054v-4.473h2.207v-0.894h-2.207v-1.762H833.1l-0.486,1.623-1.09.478v0.555h1.09v4.522q0,2.324,2.207,2.323a4.177,4.177,0,0,0,.655-0.059,2.1,2.1,0,0,0,.552-0.149v-0.881a3.658,3.658,0,0,1-.451.094,3.772,3.772,0,0,1-.59.045A1.135,1.135,0,0,1,834.088,272.914Zm4.608-6.421h-1.152v7.6H838.7v-7.6Zm-1.055-1.481a0.665,0.665,0,0,0,.486.191,0.675,0.675,0,0,0,.479-0.191,0.762,0.762,0,0,0,.2-0.579,0.752,0.752,0,0,0-.2-0.576,0.72,0.72,0,0,0-.965,0,0.761,0.761,0,0,0-.194.579A0.776,0.776,0,0,0,837.641,265.012Zm9.122,2.4a3.216,3.216,0,0,0-2.536-1.061,3.288,3.288,0,0,0-2.582,1.037,4.183,4.183,0,0,0-.93,2.895,4.791,4.791,0,0,0,.43,2.094,3.154,3.154,0,0,0,1.222,1.373,3.429,3.429,0,0,0,1.811.479,3.3,3.3,0,0,0,2.589-1.044A4.91,4.91,0,0,0,846.763,267.415Zm-4.278.659a2.027,2.027,0,0,1,1.707-.742,2.059,2.059,0,0,1,1.731.752,3.531,3.531,0,0,1,.587,2.2,3.591,3.591,0,0,1-.587,2.223,2.314,2.314,0,0,1-3.431,0A4.525,4.525,0,0,1,842.485,268.074Zm13.594,6.019v-4.958a2.818,2.818,0,0,0-.694-2.119,2.891,2.891,0,0,0-2.068-.662,3.234,3.234,0,0,0-1.422.308,2.351,2.351,0,0,0-.993.871h-0.055l-0.187-1.04h-0.937v7.6h1.152v-3.987a3.254,3.254,0,0,1,.555-2.129,2.187,2.187,0,0,1,1.749-.645,1.725,1.725,0,0,1,1.325.457,1.985,1.985,0,0,1,.423,1.387v4.917h1.152Zm6.8-3.329a4.993,4.993,0,0,0-1.829-.991,11.092,11.092,0,0,1-1.332-.562,1.53,1.53,0,0,1-.5-0.409,0.862,0.862,0,0,1-.157-0.52,0.793,0.793,0,0,1,.417-0.708,2.387,2.387,0,0,1,1.235-.256,5.519,5.519,0,0,1,2.075.471l0.409-.936a6.068,6.068,0,0,0-2.4-.5,3.53,3.53,0,0,0-2.075.537,1.707,1.707,0,0,0-.756,1.467,1.743,1.743,0,0,0,.219.895,2.058,2.058,0,0,0,.666.669,8.19,8.19,0,0,0,1.509.69,6.1,6.1,0,0,1,1.5.745,0.991,0.991,0,0,1-.1,1.637,2.748,2.748,0,0,1-1.388.288,4.885,4.885,0,0,1-1.211-.16,5.666,5.666,0,0,1-1.176-.437v1.068a4.829,4.829,0,0,0,2.359.479,3.719,3.719,0,0,0,2.221-.576,1.9,1.9,0,0,0,.791-1.636A1.749,1.749,0,0,0,862.877,270.764Z" transform="translate(-621 -160)"/>
  <rect id="bg_copy_3-2" data-name="bg copy 3" class="cls-5" x="2" y="2" width="116.969" height="64.469"/>
  <path id="Execute_management_actions" data-name="Execute management actions" class="cls-2" d="M662.658,181.922h-4.476v-3.731h4.2V177.15h-4.2v-3.266h4.476v-1.047H657v10.139h5.656v-1.054Zm1.124,1.054h1.3l2.151-3.079,2.131,3.079h1.3l-2.783-3.891,2.644-3.71h-1.3l-2,2.913-2.005-2.913h-1.312l2.644,3.71ZM676.707,183a6.085,6.085,0,0,0,1.156-.378V181.6a6.134,6.134,0,0,1-2.429.513,2.341,2.341,0,0,1-1.808-.693,3.013,3.013,0,0,1-.677-2.032h5.24v-0.729a3.6,3.6,0,0,0-.833-2.479,2.87,2.87,0,0,0-2.262-.94,3.011,3.011,0,0,0-2.433,1.082,4.411,4.411,0,0,0-.9,2.92,3.971,3.971,0,0,0,.975,2.85,3.5,3.5,0,0,0,2.661,1.027A6.509,6.509,0,0,0,676.707,183Zm-0.239-6.221a2.538,2.538,0,0,1,.485,1.668h-3.976a2.749,2.749,0,0,1,.642-1.65,1.881,1.881,0,0,1,1.461-.6A1.714,1.714,0,0,1,676.468,176.779Zm8.646,5.94V181.7a5.121,5.121,0,0,1-1.95.409,1.968,1.968,0,0,1-1.675-.749,3.509,3.509,0,0,1-.566-2.15q0-2.953,2.318-2.954a3.723,3.723,0,0,1,.8.1,5.542,5.542,0,0,1,.833.254l0.353-.978a3.6,3.6,0,0,0-.86-0.278,5.244,5.244,0,0,0-1.1-.118,3.311,3.311,0,0,0-2.62,1.041,4.305,4.305,0,0,0-.92,2.947,4.178,4.178,0,0,0,.906,2.875,3.248,3.248,0,0,0,2.557,1.016,4.15,4.15,0,0,0,1.922-.4h0Zm1.721-7.344v4.973a2.8,2.8,0,0,0,.691,2.108,2.909,2.909,0,0,0,2.078.659,3.3,3.3,0,0,0,1.433-.3,2.286,2.286,0,0,0,.982-0.86h0.063l0.166,1.02H693.2v-7.6h-1.152v4a3.288,3.288,0,0,1-.552,2.129,2.163,2.163,0,0,1-1.745.652,1.725,1.725,0,0,1-1.325-.458,1.978,1.978,0,0,1-.424-1.387v-4.931h-1.166ZM697.2,181.8a1.539,1.539,0,0,1-.326-1.054V176.27h2.207v-0.9h-2.207v-1.761h-0.666l-0.486,1.622-1.089.479v0.555h1.089v4.521q0,2.324,2.207,2.324a4.189,4.189,0,0,0,.656-0.059,2.145,2.145,0,0,0,.551-0.149v-0.881a3.887,3.887,0,0,1-.451.093,3.655,3.655,0,0,1-.59.045A1.136,1.136,0,0,1,697.2,181.8Zm7.984,1.2a6.085,6.085,0,0,0,1.156-.378V181.6a6.134,6.134,0,0,1-2.429.513,2.343,2.343,0,0,1-1.808-.693,3.013,3.013,0,0,1-.677-2.032h5.24v-0.729a3.6,3.6,0,0,0-.833-2.479,2.87,2.87,0,0,0-2.262-.94,3.011,3.011,0,0,0-2.433,1.082,4.411,4.411,0,0,0-.9,2.92,3.971,3.971,0,0,0,.975,2.85,3.5,3.5,0,0,0,2.661,1.027A6.509,6.509,0,0,0,705.187,183Zm-0.239-6.221a2.533,2.533,0,0,1,.486,1.668h-3.977a2.749,2.749,0,0,1,.642-1.65,1.881,1.881,0,0,1,1.461-.6A1.714,1.714,0,0,1,704.948,176.779Zm-55.593,23.24v-4.958a2.963,2.963,0,0,0-.642-2.119,2.579,2.579,0,0,0-1.933-.662,3.05,3.05,0,0,0-1.471.347,2.417,2.417,0,0,0-.985.943h-0.056a2.26,2.26,0,0,0-2.332-1.29,2.814,2.814,0,0,0-1.329.312,2.262,2.262,0,0,0-.919.867h-0.056l-0.187-1.04h-0.937v7.6h1.152v-3.987a3.511,3.511,0,0,1,.5-2.126,1.883,1.883,0,0,1,1.586-.648,1.51,1.51,0,0,1,1.214.454,2.047,2.047,0,0,1,.389,1.363v4.944H644.5v-4.244a2.927,2.927,0,0,1,.514-1.9,1.948,1.948,0,0,1,1.589-.617,1.5,1.5,0,0,1,1.207.454,2.052,2.052,0,0,1,.389,1.363v4.944h1.152Zm7.9,0v-5.187a2.518,2.518,0,0,0-.656-1.935,2.9,2.9,0,0,0-2.016-.6,5.518,5.518,0,0,0-2.574.652l0.354,0.88a5.022,5.022,0,0,1,2.151-.582,1.587,1.587,0,0,1,1.232.426,1.932,1.932,0,0,1,.385,1.321v0.472l-1.291.042q-3.686.111-3.685,2.413a2.122,2.122,0,0,0,.642,1.657,2.539,2.539,0,0,0,1.773.583,3.457,3.457,0,0,0,1.412-.253,3.2,3.2,0,0,0,1.135-.968h0.055l0.229,1.082h0.854Zm-4.514-1.137a1.185,1.185,0,0,1-.378-0.95,1.286,1.286,0,0,1,.607-1.176,4.188,4.188,0,0,1,1.981-.426l1.152-.049v0.687a2.179,2.179,0,0,1-.614,1.65,2.341,2.341,0,0,1-1.69.59A1.572,1.572,0,0,1,652.745,198.882Zm13.244,1.137v-4.958a2.818,2.818,0,0,0-.694-2.119,2.893,2.893,0,0,0-2.068-.662,3.238,3.238,0,0,0-1.423.308,2.354,2.354,0,0,0-.992.871h-0.055l-0.188-1.04h-0.937v7.6h1.152v-3.987a3.254,3.254,0,0,1,.555-2.129,2.188,2.188,0,0,1,1.749-.645,1.727,1.727,0,0,1,1.326.457,1.986,1.986,0,0,1,.423,1.387v4.917h1.152Zm7.9,0v-5.187a2.514,2.514,0,0,0-.656-1.935,2.9,2.9,0,0,0-2.016-.6,5.526,5.526,0,0,0-2.574.652l0.354,0.88a5.022,5.022,0,0,1,2.151-.582,1.587,1.587,0,0,1,1.232.426,1.926,1.926,0,0,1,.385,1.321v0.472l-1.291.042q-3.684.111-3.685,2.413a2.122,2.122,0,0,0,.642,1.657,2.539,2.539,0,0,0,1.773.583,3.453,3.453,0,0,0,1.412-.253,3.186,3.186,0,0,0,1.135-.968H672.8l0.229,1.082h0.853Zm-4.514-1.137a1.185,1.185,0,0,1-.378-0.95,1.286,1.286,0,0,1,.607-1.176,4.188,4.188,0,0,1,1.981-.426l1.152-.049v0.687a2.176,2.176,0,0,1-.614,1.65,2.339,2.339,0,0,1-1.69.59A1.572,1.572,0,0,1,669.372,198.882Zm10.482-6.463a3.842,3.842,0,0,0-1.075-.139,3.062,3.062,0,0,0-2.124.676,2.457,2.457,0,0,0-.749,1.924,2.419,2.419,0,0,0,.371,1.332,2.055,2.055,0,0,0,.961.825,2.336,2.336,0,0,0-.7.6,1.222,1.222,0,0,0-.222.728,1.082,1.082,0,0,0,.2.645,1.207,1.207,0,0,0,.489.409,2.261,2.261,0,0,0-1.249.686,1.762,1.762,0,0,0-.444,1.2,1.792,1.792,0,0,0,.808,1.568,4.049,4.049,0,0,0,2.3.554,5.432,5.432,0,0,0,2.956-.662,2.159,2.159,0,0,0,1.013-1.924,1.8,1.8,0,0,0-.663-1.512,3.012,3.012,0,0,0-1.9-.52H678.48a1.881,1.881,0,0,1-.881-0.149,0.5,0.5,0,0,1-.257-0.462,1.131,1.131,0,0,1,.736-0.977,3.485,3.485,0,0,0,.638.055,3.081,3.081,0,0,0,2.1-.666,2.246,2.246,0,0,0,.763-1.782,2.468,2.468,0,0,0-.5-1.519l1.408-.166v-0.728h-2.63Zm-3,7.8a1.826,1.826,0,0,1,1.222-.374h1.381a2.97,2.97,0,0,1,1.436.239,0.93,0.93,0,0,1,.382.857,1.328,1.328,0,0,1-.7,1.175,4.164,4.164,0,0,1-2.147.434,2.88,2.88,0,0,1-1.492-.319,1.033,1.033,0,0,1-.521-0.937A1.34,1.34,0,0,1,676.856,200.22Zm0.625-6.664a1.691,1.691,0,0,1,1.249-.437,1.511,1.511,0,0,1,1.707,1.713,1.469,1.469,0,0,1-1.686,1.637,1.8,1.8,0,0,1-1.256-.41,1.544,1.544,0,0,1-.451-1.206A1.757,1.757,0,0,1,677.481,193.556Zm11.093,6.488a6.2,6.2,0,0,0,1.155-.378v-1.027a6.13,6.13,0,0,1-2.429.513,2.341,2.341,0,0,1-1.807-.693,3.011,3.011,0,0,1-.677-2.032h5.239V195.7a3.6,3.6,0,0,0-.832-2.479,2.87,2.87,0,0,0-2.263-.94,3.008,3.008,0,0,0-2.432,1.082,4.4,4.4,0,0,0-.906,2.919,3.975,3.975,0,0,0,.975,2.851,3.5,3.5,0,0,0,2.662,1.026A6.523,6.523,0,0,0,688.574,200.044Zm-0.24-6.221a2.529,2.529,0,0,1,.486,1.668h-3.976a2.746,2.746,0,0,1,.642-1.651,1.883,1.883,0,0,1,1.46-.6A1.709,1.709,0,0,1,688.334,193.823Zm14.532,6.2v-4.958a2.963,2.963,0,0,0-.642-2.119,2.579,2.579,0,0,0-1.933-.662,3.05,3.05,0,0,0-1.471.347,2.417,2.417,0,0,0-.985.943h-0.056a2.26,2.26,0,0,0-2.332-1.29,2.807,2.807,0,0,0-1.328.312,2.258,2.258,0,0,0-.92.867h-0.055l-0.188-1.04h-0.937v7.6h1.152v-3.987a3.511,3.511,0,0,1,.5-2.126,1.883,1.883,0,0,1,1.586-.648,1.514,1.514,0,0,1,1.215.454,2.052,2.052,0,0,1,.388,1.363v4.944h1.152v-4.244a2.927,2.927,0,0,1,.514-1.9,1.948,1.948,0,0,1,1.589-.617,1.5,1.5,0,0,1,1.207.454,2.052,2.052,0,0,1,.389,1.363v4.944h1.152Zm6.9,0.025a6.207,6.207,0,0,0,1.156-.378v-1.027a6.134,6.134,0,0,1-2.429.513,2.343,2.343,0,0,1-1.808-.693,3.016,3.016,0,0,1-.677-2.032h5.24V195.7a3.6,3.6,0,0,0-.833-2.479,2.867,2.867,0,0,0-2.262-.94,3.008,3.008,0,0,0-2.433,1.082,4.407,4.407,0,0,0-.9,2.919,3.975,3.975,0,0,0,.975,2.851,3.5,3.5,0,0,0,2.661,1.026A6.516,6.516,0,0,0,709.767,200.044Zm-0.239-6.221a2.529,2.529,0,0,1,.486,1.668h-3.977a2.753,2.753,0,0,1,.642-1.651,1.883,1.883,0,0,1,1.461-.6A1.711,1.711,0,0,1,709.528,193.823Zm10.041,6.2v-4.958a2.818,2.818,0,0,0-.694-2.119,2.891,2.891,0,0,0-2.068-.662,3.234,3.234,0,0,0-1.422.308,2.351,2.351,0,0,0-.993.871h-0.055l-0.187-1.04h-0.937v7.6h1.152v-3.987a3.254,3.254,0,0,1,.555-2.129,2.187,2.187,0,0,1,1.749-.645,1.725,1.725,0,0,1,1.325.457,1.986,1.986,0,0,1,.423,1.387v4.917h1.152Zm3.928-1.179a1.539,1.539,0,0,1-.326-1.054v-4.473h2.207v-0.894h-2.207v-1.762h-0.666l-0.486,1.623-1.089.478v0.555h1.089v4.522q0,2.323,2.207,2.323a4.189,4.189,0,0,0,.656-0.059,2.093,2.093,0,0,0,.551-0.149v-0.881a3.658,3.658,0,0,1-.451.094,3.763,3.763,0,0,1-.59.045A1.137,1.137,0,0,1,723.5,198.84Zm-58.92,18.223v-5.188a2.521,2.521,0,0,0-.656-1.935,2.9,2.9,0,0,0-2.016-.6,5.323,5.323,0,0,0-1.343.174,5.422,5.422,0,0,0-1.232.478l0.354,0.881a5.018,5.018,0,0,1,2.152-.583,1.58,1.58,0,0,1,1.231.427,1.923,1.923,0,0,1,.386,1.321v0.471l-1.291.042q-3.686.111-3.685,2.413a2.124,2.124,0,0,0,.642,1.658,2.543,2.543,0,0,0,1.773.582,3.457,3.457,0,0,0,1.412-.253,3.2,3.2,0,0,0,1.135-.967h0.055l0.229,1.082h0.854Zm-4.514-1.138a1.183,1.183,0,0,1-.379-0.95,1.286,1.286,0,0,1,.608-1.175,4.2,4.2,0,0,1,1.981-.427l1.152-.048v0.686a2.182,2.182,0,0,1-.614,1.651,2.34,2.34,0,0,1-1.69.589A1.565,1.565,0,0,1,660.063,215.925Zm11.849,0.881v-1.019a5.121,5.121,0,0,1-1.95.409,1.969,1.969,0,0,1-1.676-.749,3.516,3.516,0,0,1-.566-2.15q0-2.955,2.318-2.954a3.723,3.723,0,0,1,.8.1,5.473,5.473,0,0,1,.833.253l0.354-.977a3.593,3.593,0,0,0-.861-0.278,5.237,5.237,0,0,0-1.1-.118,3.311,3.311,0,0,0-2.62,1.041,4.305,4.305,0,0,0-.919,2.947,4.178,4.178,0,0,0,.9,2.874,3.247,3.247,0,0,0,2.558,1.016,4.153,4.153,0,0,0,1.922-.395h0Zm3.366-.922a1.536,1.536,0,0,1-.327-1.054v-4.473h2.207v-0.9h-2.207V207.7h-0.666l-0.486,1.623-1.089.479v0.555H673.8v4.521q0,2.324,2.207,2.323a4.062,4.062,0,0,0,.656-0.059,2.064,2.064,0,0,0,.552-0.149v-0.88a3.933,3.933,0,0,1-.451.093,3.782,3.782,0,0,1-.59.045A1.133,1.133,0,0,1,675.278,215.884Zm4.607-6.422h-1.152v7.6h1.152v-7.6Zm-1.054-1.481a0.66,0.66,0,0,0,.485.191,0.669,0.669,0,0,0,.479-0.191,0.762,0.762,0,0,0,.2-0.579,0.75,0.75,0,0,0-.2-0.575,0.717,0.717,0,0,0-.964,0,0.764,0.764,0,0,0-.2.579A0.776,0.776,0,0,0,678.831,207.981Zm9.122,2.4a3.221,3.221,0,0,0-2.537-1.061,3.29,3.29,0,0,0-2.581,1.037,4.183,4.183,0,0,0-.93,2.895,4.785,4.785,0,0,0,.43,2.095,3.164,3.164,0,0,0,1.221,1.373,3.434,3.434,0,0,0,1.812.478,3.3,3.3,0,0,0,2.588-1.043A4.91,4.91,0,0,0,687.953,210.384Zm-4.279.659a2.028,2.028,0,0,1,1.708-.742,2.06,2.06,0,0,1,1.731.753,3.526,3.526,0,0,1,.586,2.2,3.587,3.587,0,0,1-.586,2.223,2.316,2.316,0,0,1-3.432,0,3.613,3.613,0,0,1-.583-2.22A3.569,3.569,0,0,1,683.674,211.043Zm13.6,6.02V212.1a2.814,2.814,0,0,0-.694-2.118,2.889,2.889,0,0,0-2.068-.663,3.217,3.217,0,0,0-1.422.309,2.356,2.356,0,0,0-.993.87h-0.055l-0.188-1.04h-0.937v7.6h1.152v-3.988a3.25,3.25,0,0,1,.556-2.129,2.186,2.186,0,0,1,1.748-.645,1.726,1.726,0,0,1,1.326.458,1.983,1.983,0,0,1,.423,1.387v4.917h1.152Zm6.8-3.329a4.986,4.986,0,0,0-1.828-.992,11.2,11.2,0,0,1-1.333-.562,1.528,1.528,0,0,1-.5-0.409,0.859,0.859,0,0,1-.156-0.52,0.793,0.793,0,0,1,.417-0.707,2.386,2.386,0,0,1,1.235-.257,5.507,5.507,0,0,1,2.075.472l0.409-.936a6.073,6.073,0,0,0-2.4-.5,3.521,3.521,0,0,0-2.075.538,1.7,1.7,0,0,0-.756,1.466,1.753,1.753,0,0,0,.218.9,2.052,2.052,0,0,0,.667.669,8.057,8.057,0,0,0,1.509.69,6.06,6.06,0,0,1,1.5.746,0.991,0.991,0,0,1-.1,1.637,2.759,2.759,0,0,1-1.388.287,4.923,4.923,0,0,1-1.211-.159,5.666,5.666,0,0,1-1.176-.437v1.068a4.828,4.828,0,0,0,2.359.478,3.721,3.721,0,0,0,2.221-.575,1.9,1.9,0,0,0,.791-1.637A1.748,1.748,0,0,0,704.066,213.734Z" transform="translate(-621 -160)"/>
  <g id="Connecting_lines" data-name="Connecting lines">
    <path id="Shape_127_copy_3" data-name="Shape 127 copy 3" class="cls-6" d="M801.464,379.412h-1.1V368.487h1.1v10.925Zm-1.1-10.925h1.1l-5.474,7.648h-1.1Zm1.1,34.961h-1.1v-9.833h1.1v9.833Z" transform="translate(-621 -160)"/>
    <path id="Shape_128_copy_3" data-name="Shape 128 copy 3" class="cls-6" d="M800.369,368.487l0.966,0,5.6,7.645h-1.1Z" transform="translate(-621 -160)"/>
    <path id="Shape_127_copy_3-2" data-name="Shape 127 copy 3" class="cls-6" d="M814.6,393.615h-1.1v9.833h1.1v-9.833Zm-1.1,9.833h1.1l-5.474-7.648h-1.095Zm1.1-24.036h-1.1V368.487h1.1v10.925Z" transform="translate(-621 -160)"/>
    <path id="Shape_128_copy_3-2" data-name="Shape 128 copy 3" class="cls-6" d="M813.506,403.448l0.966,0,5.6-7.646H818.98Z" transform="translate(-621 -160)"/>
    <path id="Shape_127_copy_2" data-name="Shape 127 copy 2" class="cls-6" d="M680.942,261.419v-1.093h67.833v1.093H680.942Zm68.193-1.5-0.72.822-8.746-7.647,0.72-.823Z" transform="translate(-621 -160)"/>
    <path id="Shape_128_copy_2" data-name="Shape 128 copy 2" class="cls-6" d="M747.322,259.915l0.72,0.822-8.746,7.648-0.72-.822Z" transform="translate(-621 -160)"/>
    <path id="Shape_127_copy_3-3" data-name="Shape 127 copy 3" class="cls-6" d="M680.942,335.711v-1.093h67.833v1.093H680.942Zm68.193-1.5-0.72.823-8.746-7.648,0.72-.822Z" transform="translate(-621 -160)"/>
    <path id="Shape_128_copy_3-3" data-name="Shape 128 copy 3" class="cls-6" d="M747.322,334.207l0.72,0.823-8.746,7.647-0.72-.822Z" transform="translate(-621 -160)"/>
    <path class="cls-6" d="M682.037,437.316h-1.094V226.458h1.094M934.663,436.223v1.093H867.941v-1.093h66.722Zm0-175.9v1.093H867.941v-1.093h66.722Z" transform="translate(-621 -160)"/>
    <path id="Shape_127_copy_3-4" data-name="Shape 127 copy 3" class="cls-6" d="M867.941,335.711v-1.093h89.683v1.093H867.941Zm90.043-1.5-0.72.823-8.746-7.648,0.72-.822Z" transform="translate(-621 -160)"/>
    <path id="Shape_128_copy_3-4" data-name="Shape 128 copy 3" class="cls-6" d="M957.265,334.207l0.72,0.823-8.746,7.647-0.72-.822Z" transform="translate(-621 -160)"/>
    <path class="cls-6" d="M934.663,437.316h-1.094V260.327h1.094V437.316Z" transform="translate(-621 -160)"/>
    <path id="Shape_127_copy_3-5" data-name="Shape 127 copy 3" class="cls-6" d="M680.942,437.316v-1.093h67.833v1.093H680.942Zm68.193-1.5-0.72.822-8.746-7.647,0.72-.823Z" transform="translate(-621 -160)"/>
    <path id="Shape_128_copy_3-5" data-name="Shape 128 copy 3" class="cls-6" d="M747.322,435.812l0.72,0.822-8.746,7.648-0.72-.822Z" transform="translate(-621 -160)"/>
  </g>
</svg>
