<svg id="Flow_Chart_-_EMC_Execute" data-name="Flow Chart - EMC Execute" xmlns="http://www.w3.org/2000/svg" xmlns:xlink="http://www.w3.org/1999/xlink" width="308" height="288" viewBox="0 0 308 288">
  <defs>
    <style>
      .cls-1, .cls-3, .cls-4, .cls-6 {
        fill: #f2f2f2;
      }

      .cls-1 {
        filter: url(#filter);
      }

      .cls-2 {
        fill: #6b6b6b;
      }

      .cls-2, .cls-5 {
        fill-rule: evenodd;
      }

      .cls-3 {
        filter: url(#filter-2);
      }

      .cls-4 {
        stroke: #01a9da;
        stroke-linejoin: round;
        stroke-opacity: 0.42;
        stroke-width: 1px;
        filter: url(#filter-3);
      }

      .cls-5 {
        fill: #01a9da;
      }

      .cls-6 {
        filter: url(#filter-4);
      }
    </style>
    <filter id="filter" x="115" y="222" width="115" height="66" filterUnits="userSpaceOnUse">
      <feOffset result="offset" dx="0.5" dy="0.866" in="SourceAlpha"/>
      <feGaussianBlur result="blur" stdDeviation="2"/>
      <feFlood result="flood" flood-opacity="0.26"/>
      <feComposite result="composite" operator="in" in2="blur"/>
      <feBlend result="blend" in="SourceGraphic"/>
    </filter>
    <filter id="filter-2" x="115" y="129" width="115" height="66" filterUnits="userSpaceOnUse">
      <feOffset result="offset" dx="0.5" dy="0.866" in="SourceAlpha"/>
      <feGaussianBlur result="blur" stdDeviation="2"/>
      <feFlood result="flood" flood-opacity="0.26"/>
      <feComposite result="composite" operator="in" in2="blur"/>
      <feBlend result="blend" in="SourceGraphic"/>
    </filter>
    <filter id="filter-3" x="108" y="54" width="127" height="78" filterUnits="userSpaceOnUse">
      <feOffset result="offset" dx="0.5" dy="0.866" in="SourceAlpha"/>
      <feGaussianBlur result="blur" stdDeviation="2"/>
      <feFlood result="flood" flood-opacity="0.13"/>
      <feComposite result="composite" operator="in" in2="blur"/>
      <feGaussianBlur result="blur-2" stdDeviation="3.333" in="SourceAlpha"/>
      <feComposite result="composite-2"/>
      <feComposite result="composite-3"/>
      <feComposite result="composite-4"/>
      <feFlood result="flood-2" flood-color="#01a9da" flood-opacity="0.09"/>
      <feComposite result="composite-5" operator="in" in2="composite-4"/>
      <feBlend result="blend" in2="composite"/>
      <feBlend result="blend-2" in="SourceGraphic"/>
    </filter>
    <filter id="filter-4" x="0" y="0" width="114" height="66" filterUnits="userSpaceOnUse">
      <feOffset result="offset" dx="0.5" dy="0.866" in="SourceAlpha"/>
      <feGaussianBlur result="blur" stdDeviation="2"/>
      <feFlood result="flood" flood-opacity="0.26"/>
      <feComposite result="composite" operator="in" in2="blur"/>
      <feBlend result="blend" in="SourceGraphic"/>
    </filter>
  </defs>
  <rect id="bg_copy_5" data-name="bg copy 5" class="cls-1" x="117.875" y="224" width="106.875" height="59"/>
  <path id="Control_and_correct_project_plan" data-name="Control and correct project plan" class="cls-2" d="M851.174,1551.25l0.457-.93a5.679,5.679,0,0,0-2.549-.53,4.669,4.669,0,0,0-2.38.58,3.848,3.848,0,0,0-1.547,1.66,5.607,5.607,0,0,0-.535,2.52,5.13,5.13,0,0,0,1.112,3.53,4.021,4.021,0,0,0,3.16,1.25,6.589,6.589,0,0,0,2.377-.37v-0.94a8.4,8.4,0,0,1-2.212.35,3.009,3.009,0,0,1-2.431-1,4.187,4.187,0,0,1-.852-2.81,4.114,4.114,0,0,1,.884-2.79,3.025,3.025,0,0,1,2.412-1.02,4.912,4.912,0,0,1,2.1.5h0Zm7.1,1.84a2.929,2.929,0,0,0-2.317-.97,3,3,0,0,0-2.358.94,3.851,3.851,0,0,0-.85,2.65,4.357,4.357,0,0,0,.393,1.92,2.864,2.864,0,0,0,1.116,1.26,3.147,3.147,0,0,0,1.654.44,3.006,3.006,0,0,0,2.365-.96,3.848,3.848,0,0,0,.855-2.66A3.8,3.8,0,0,0,858.271,1553.09Zm-3.908.6a1.857,1.857,0,0,1,1.559-.68,1.882,1.882,0,0,1,1.582.69,3.23,3.23,0,0,1,.535,2.01,3.287,3.287,0,0,1-.535,2.04,2.125,2.125,0,0,1-3.135,0,3.341,3.341,0,0,1-.532-2.04A3.263,3.263,0,0,1,854.363,1553.69Zm12.417,5.51v-4.54a2.593,2.593,0,0,0-.633-1.94,2.656,2.656,0,0,0-1.889-.6,2.919,2.919,0,0,0-1.3.28,2.16,2.16,0,0,0-.906.79H862l-0.171-.95h-0.856v6.96h1.052v-3.65a2.973,2.973,0,0,1,.507-1.95,2.008,2.008,0,0,1,1.6-.59,1.573,1.573,0,0,1,1.211.42,1.819,1.819,0,0,1,.386,1.27v4.5h1.052Zm3.588-1.08a1.408,1.408,0,0,1-.3-0.96v-4.1h2.016v-0.82H870.07v-1.61h-0.608l-0.444,1.49-1,.43v0.51h1v4.14a1.834,1.834,0,0,0,2.016,2.13,3.415,3.415,0,0,0,.6-0.06,1.918,1.918,0,0,0,.5-0.13v-0.81a3.856,3.856,0,0,1-.412.09,4.677,4.677,0,0,1-.539.04A1.053,1.053,0,0,1,870.368,1558.12Zm5.128-5.64a3.131,3.131,0,0,0-.931,1.05h-0.051l-0.121-1.29h-0.868v6.96h1.052v-3.73a2.518,2.518,0,0,1,.6-1.71,1.847,1.847,0,0,1,1.442-.69,3.858,3.858,0,0,1,.761.1l0.146-.98a4.2,4.2,0,0,0-.831-0.07A2.131,2.131,0,0,0,875.5,1552.48Zm8.466,0.61a2.929,2.929,0,0,0-2.317-.97,3,3,0,0,0-2.358.94,3.856,3.856,0,0,0-.849,2.65,4.343,4.343,0,0,0,.393,1.92,2.861,2.861,0,0,0,1.115,1.26,3.148,3.148,0,0,0,1.655.44,3,3,0,0,0,2.364-.96,3.844,3.844,0,0,0,.856-2.66A3.8,3.8,0,0,0,883.962,1553.09Zm-3.908.6a1.858,1.858,0,0,1,1.559-.68,1.879,1.879,0,0,1,1.582.69,3.23,3.23,0,0,1,.535,2.01,3.287,3.287,0,0,1-.535,2.04,2.125,2.125,0,0,1-3.135,0,3.341,3.341,0,0,1-.532-2.04A3.263,3.263,0,0,1,880.054,1553.69Zm7.664-4.37h-1.053v9.88h1.053v-9.88Zm-49.811,25.48v-4.75a2.312,2.312,0,0,0-.6-1.77,2.634,2.634,0,0,0-1.841-.55,4.688,4.688,0,0,0-1.227.16,4.935,4.935,0,0,0-1.125.43l0.323,0.81a4.649,4.649,0,0,1,1.965-.53,1.445,1.445,0,0,1,1.125.39,1.758,1.758,0,0,1,.352,1.21v0.43l-1.179.04c-2.244.06-3.366,0.8-3.366,2.21a1.931,1.931,0,0,0,.587,1.51,2.3,2.3,0,0,0,1.619.54,3.057,3.057,0,0,0,1.29-.24,2.814,2.814,0,0,0,1.036-.88h0.051l0.209,0.99h0.78Zm-4.123-1.04a1.088,1.088,0,0,1-.346-0.87,1.18,1.18,0,0,1,.555-1.08,3.837,3.837,0,0,1,1.81-.39l1.052-.04v0.63a2.008,2.008,0,0,1-.561,1.51,2.134,2.134,0,0,1-1.544.54A1.425,1.425,0,0,1,833.784,1573.76Zm12.1,1.04v-4.54a2.589,2.589,0,0,0-.634-1.94,2.653,2.653,0,0,0-1.889-.6,2.918,2.918,0,0,0-1.3.28,2.16,2.16,0,0,0-.906.79H841.1l-0.171-.95h-0.856v6.96h1.052v-3.65a2.973,2.973,0,0,1,.507-1.95,2.008,2.008,0,0,1,1.6-.59,1.569,1.569,0,0,1,1.21.42,1.814,1.814,0,0,1,.387,1.27v4.5h1.052Zm7.03,0h0.856v-9.88h-1.052v2.83l0.025,0.49,0.044,0.5H852.7a2.824,2.824,0,0,0-4.285-.07,4.159,4.159,0,0,0-.761,2.67,4.091,4.091,0,0,0,.758,2.65,2.559,2.559,0,0,0,2.12.94,2.487,2.487,0,0,0,2.181-1.06h0.057Zm-3.676-1.44a3.417,3.417,0,0,1-.489-2.01,3.579,3.579,0,0,1,.492-2.03,1.608,1.608,0,0,1,1.416-.72,1.865,1.865,0,0,1,1.569.63,3.478,3.478,0,0,1,.492,2.11v0.22a2.989,2.989,0,0,1-.485,1.9,1.919,1.919,0,0,1-1.563.58A1.634,1.634,0,0,1,849.235,1573.36Zm14.668,1.2v-0.93a4.684,4.684,0,0,1-1.782.38,1.79,1.79,0,0,1-1.53-.69,3.222,3.222,0,0,1-.517-1.97q0-2.7,2.117-2.7a3.47,3.47,0,0,1,.729.09,5.158,5.158,0,0,1,.761.23l0.323-.89a3.521,3.521,0,0,0-.786-0.26,4.866,4.866,0,0,0-1-.1,3,3,0,0,0-2.392.95,3.934,3.934,0,0,0-.84,2.7,3.829,3.829,0,0,0,.827,2.63,2.962,2.962,0,0,0,2.336.93,3.684,3.684,0,0,0,1.756-.37h0Zm6.785-5.87a2.927,2.927,0,0,0-2.317-.97,3.007,3.007,0,0,0-2.358.94,3.856,3.856,0,0,0-.849,2.65,4.357,4.357,0,0,0,.393,1.92,2.864,2.864,0,0,0,1.116,1.26,3.145,3.145,0,0,0,1.654.44,3,3,0,0,0,2.364-.96,3.844,3.844,0,0,0,.856-2.66A3.8,3.8,0,0,0,870.688,1568.69Zm-3.908.6a2.143,2.143,0,0,1,3.141.01,3.229,3.229,0,0,1,.536,2.01,3.286,3.286,0,0,1-.536,2.04,2.124,2.124,0,0,1-3.134,0,3.34,3.34,0,0,1-.533-2.04A3.27,3.27,0,0,1,866.78,1569.29Zm8.583-1.21a3.144,3.144,0,0,0-.932,1.05h-0.05l-0.121-1.29h-0.868v6.96h1.052v-3.73a2.518,2.518,0,0,1,.6-1.71,1.845,1.845,0,0,1,1.442-.69,3.867,3.867,0,0,1,.761.1l0.146-.98a4.2,4.2,0,0,0-.831-0.07A2.131,2.131,0,0,0,875.363,1568.08Zm5.3,0a3.131,3.131,0,0,0-.931,1.05H879.68l-0.12-1.29h-0.869v6.96h1.052v-3.73a2.518,2.518,0,0,1,.6-1.71,1.847,1.847,0,0,1,1.442-.69,3.858,3.858,0,0,1,.761.1l0.146-.98a4.2,4.2,0,0,0-.83-0.07A2.132,2.132,0,0,0,880.662,1568.08Zm7.464,6.74a5.591,5.591,0,0,0,1.056-.34v-0.94a5.646,5.646,0,0,1-2.219.47,2.15,2.15,0,0,1-1.651-.64,2.747,2.747,0,0,1-.618-1.86h4.786v-0.67a3.286,3.286,0,0,0-.761-2.26,2.6,2.6,0,0,0-2.066-.86,2.746,2.746,0,0,0-2.222.99,4.03,4.03,0,0,0-.827,2.67,3.657,3.657,0,0,0,.89,2.61,3.213,3.213,0,0,0,2.431.94A5.868,5.868,0,0,0,888.126,1574.82Zm-0.218-5.69a2.3,2.3,0,0,1,.443,1.52h-3.632a2.538,2.538,0,0,1,.587-1.51,1.724,1.724,0,0,1,1.334-.54A1.542,1.542,0,0,1,887.908,1569.13Zm7.9,5.43v-0.93a4.68,4.68,0,0,1-1.781.38,1.792,1.792,0,0,1-1.531-.69,3.222,3.222,0,0,1-.517-1.97q0-2.7,2.117-2.7a3.455,3.455,0,0,1,.729.09,5.122,5.122,0,0,1,.761.23l0.323-.89a3.521,3.521,0,0,0-.786-0.26,4.856,4.856,0,0,0-1-.1,3,3,0,0,0-2.393.95,3.934,3.934,0,0,0-.84,2.7,3.834,3.834,0,0,0,.827,2.63,2.964,2.964,0,0,0,2.336.93,3.682,3.682,0,0,0,1.756-.37h0Zm3.074-.84a1.408,1.408,0,0,1-.3-0.96v-4.1H900.6v-0.82h-2.016v-1.61h-0.608l-0.444,1.49-1,.43v0.51h1v4.14a1.834,1.834,0,0,0,2.016,2.13,3.415,3.415,0,0,0,.6-0.06,1.918,1.918,0,0,0,.5-0.13v-0.81a3.856,3.856,0,0,1-.412.09,4.677,4.677,0,0,1-.539.04A1.053,1.053,0,0,1,898.88,1573.72Zm-62.193,15.86a5.046,5.046,0,0,0,.012-5.32,2.562,2.562,0,0,0-2.133-.94,2.861,2.861,0,0,0-1.236.25,2.439,2.439,0,0,0-.944.82h-0.051l-0.146-.95h-0.855v10.08h1.052v-2.86a9.457,9.457,0,0,0-.076-1.16h0.076a2.348,2.348,0,0,0,.941.78,3.122,3.122,0,0,0,1.239.25A2.579,2.579,0,0,0,836.687,1589.58Zm-0.837-4.67a3.3,3.3,0,0,1,.51,1.99,3.434,3.434,0,0,1-.51,2.01,1.619,1.619,0,0,1-1.41.73,1.857,1.857,0,0,1-1.566-.63,3.488,3.488,0,0,1-.488-2.1v-0.23a3.032,3.032,0,0,1,.488-1.88,1.873,1.873,0,0,1,1.54-.59A1.666,1.666,0,0,1,835.85,1584.91Zm5.41-1.23a3.144,3.144,0,0,0-.932,1.05h-0.05l-0.121-1.29h-0.868v6.96h1.052v-3.73a2.518,2.518,0,0,1,.6-1.71,1.847,1.847,0,0,1,1.442-.69,3.867,3.867,0,0,1,.761.1l0.146-.98a4.2,4.2,0,0,0-.831-0.07A2.131,2.131,0,0,0,841.26,1583.68Zm8.466,0.61a2.929,2.929,0,0,0-2.317-.97,3,3,0,0,0-2.358.94,3.856,3.856,0,0,0-.849,2.65,4.343,4.343,0,0,0,.393,1.92,2.855,2.855,0,0,0,1.115,1.26,3.148,3.148,0,0,0,1.655.44,3.005,3.005,0,0,0,2.364-.96,3.849,3.849,0,0,0,.856-2.66A3.8,3.8,0,0,0,849.726,1584.29Zm-3.908.6a1.858,1.858,0,0,1,1.559-.68,1.879,1.879,0,0,1,1.582.69,3.23,3.23,0,0,1,.535,2.01,3.287,3.287,0,0,1-.535,2.04,2.125,2.125,0,0,1-3.135,0,3.341,3.341,0,0,1-.532-2.04A3.263,3.263,0,0,1,845.818,1584.89Zm7.664,6.58v-8.03h-1.053v8.1a1.231,1.231,0,0,1-.231.82,0.9,0.9,0,0,1-.726.27,3.251,3.251,0,0,1-.862-0.12v0.85a2.45,2.45,0,0,0,.976.16,1.746,1.746,0,0,0,1.9-2.05h0Zm-0.964-9.38a0.656,0.656,0,0,0,.881,0,0.713,0.713,0,0,0,.184-0.53,0.683,0.683,0,0,0-.184-0.53,0.656,0.656,0,0,0-.881,0,0.7,0.7,0,0,0-.177.53A0.731,0.731,0,0,0,852.518,1582.09Zm7.331,8.33a5.583,5.583,0,0,0,1.055-.34v-0.94a5.641,5.641,0,0,1-2.218.47,2.152,2.152,0,0,1-1.652-.64,2.757,2.757,0,0,1-.618-1.86H861.2v-0.67a3.286,3.286,0,0,0-.76-2.26,2.6,2.6,0,0,0-2.067-.86,2.747,2.747,0,0,0-2.222.99,4.035,4.035,0,0,0-.827,2.67,3.653,3.653,0,0,0,.891,2.61,3.212,3.212,0,0,0,2.431.94A5.875,5.875,0,0,0,859.849,1590.42Zm-0.219-5.69a2.3,2.3,0,0,1,.444,1.52h-3.632a2.537,2.537,0,0,1,.586-1.51,1.727,1.727,0,0,1,1.334-.54A1.541,1.541,0,0,1,859.63,1584.73Zm7.9,5.43v-0.93a4.676,4.676,0,0,1-1.781.38,1.793,1.793,0,0,1-1.531-.69,3.229,3.229,0,0,1-.516-1.97q0-2.7,2.117-2.7a3.47,3.47,0,0,1,.729.09,5.158,5.158,0,0,1,.761.23l0.323-.89a3.521,3.521,0,0,0-.786-0.26,4.866,4.866,0,0,0-1-.1,3,3,0,0,0-2.393.95,3.934,3.934,0,0,0-.84,2.7,3.829,3.829,0,0,0,.828,2.63,2.962,2.962,0,0,0,2.336.93,3.677,3.677,0,0,0,1.755-.37h0Zm3.075-.84a1.4,1.4,0,0,1-.3-0.96v-4.1h2.016v-0.82h-2.016v-1.61H869.7l-0.443,1.49-1,.43v0.51h1v4.14a1.833,1.833,0,0,0,2.015,2.13,3.406,3.406,0,0,0,.6-0.06,1.918,1.918,0,0,0,.5-0.13v-0.81a3.8,3.8,0,0,1-.412.09,4.66,4.66,0,0,1-.539.04A1.051,1.051,0,0,1,870.6,1589.32Zm11.882,0.26a5.049,5.049,0,0,0,.013-5.32,2.564,2.564,0,0,0-2.133-.94,2.863,2.863,0,0,0-1.237.25,2.439,2.439,0,0,0-.944.82h-0.051l-0.146-.95h-0.855v10.08h1.052v-2.86a9.457,9.457,0,0,0-.076-1.16h0.076a2.354,2.354,0,0,0,.941.78,3.123,3.123,0,0,0,1.24.25A2.578,2.578,0,0,0,882.485,1589.58Zm-0.837-4.67a3.3,3.3,0,0,1,.51,1.99,3.434,3.434,0,0,1-.51,2.01,1.619,1.619,0,0,1-1.41.73,1.857,1.857,0,0,1-1.566-.63,3.488,3.488,0,0,1-.488-2.1v-0.23a3.032,3.032,0,0,1,.488-1.88,1.873,1.873,0,0,1,1.54-.59A1.666,1.666,0,0,1,881.648,1584.91Zm4.491-4.39h-1.052v9.88h1.052v-9.88Zm7.284,9.88v-4.75a2.312,2.312,0,0,0-.6-1.77,2.638,2.638,0,0,0-1.842-.55,4.675,4.675,0,0,0-1.226.16,4.962,4.962,0,0,0-1.126.43l0.324,0.81a4.649,4.649,0,0,1,1.965-.53,1.448,1.448,0,0,1,1.125.39,1.763,1.763,0,0,1,.352,1.21v0.43l-1.179.04c-2.244.06-3.366,0.8-3.366,2.21a1.93,1.93,0,0,0,.586,1.51,2.3,2.3,0,0,0,1.62.54,3.063,3.063,0,0,0,1.29-.24,2.822,2.822,0,0,0,1.036-.88h0.051l0.209,0.99h0.78Zm-4.124-1.04a1.091,1.091,0,0,1-.345-0.87,1.179,1.179,0,0,1,.554-1.08,3.837,3.837,0,0,1,1.81-.39l1.052-.04v0.63a2.008,2.008,0,0,1-.561,1.51,2.132,2.132,0,0,1-1.543.54A1.428,1.428,0,0,1,889.3,1589.36Zm12.1,1.04v-4.54a2.594,2.594,0,0,0-.634-1.94,2.654,2.654,0,0,0-1.889-.6,2.919,2.919,0,0,0-1.3.28,2.172,2.172,0,0,0-.906.79h-0.051l-0.171-.95H895.59v6.96h1.053v-3.65a2.973,2.973,0,0,1,.507-1.95,2.006,2.006,0,0,1,1.6-.59,1.573,1.573,0,0,1,1.211.42,1.814,1.814,0,0,1,.387,1.27v4.5H901.4Z" transform="translate(-695 -1318)"/>
  <path id="Corrective_actions" data-name="Corrective actions" class="cls-2" d="M819.483,1522.25l0.457-.93a5.679,5.679,0,0,0-2.549-.53,4.669,4.669,0,0,0-2.38.58,3.848,3.848,0,0,0-1.547,1.66,5.607,5.607,0,0,0-.535,2.52,5.13,5.13,0,0,0,1.112,3.53,4.021,4.021,0,0,0,3.16,1.25,6.589,6.589,0,0,0,2.377-.37v-0.94a8.4,8.4,0,0,1-2.212.35,3.009,3.009,0,0,1-2.431-1,4.187,4.187,0,0,1-.852-2.81,4.114,4.114,0,0,1,.884-2.79,3.025,3.025,0,0,1,2.412-1.02,4.912,4.912,0,0,1,2.1.5h0Zm7.1,1.84a2.929,2.929,0,0,0-2.317-.97,3,3,0,0,0-2.358.94,3.851,3.851,0,0,0-.85,2.65,4.357,4.357,0,0,0,.393,1.92,2.864,2.864,0,0,0,1.116,1.26,3.147,3.147,0,0,0,1.654.44,3.006,3.006,0,0,0,2.365-.96,3.848,3.848,0,0,0,.855-2.66A3.8,3.8,0,0,0,826.58,1524.09Zm-3.908.6a1.857,1.857,0,0,1,1.559-.68,1.882,1.882,0,0,1,1.582.69,3.23,3.23,0,0,1,.535,2.01,3.287,3.287,0,0,1-.535,2.04,2.125,2.125,0,0,1-3.135,0,3.341,3.341,0,0,1-.532-2.04A3.263,3.263,0,0,1,822.672,1524.69Zm8.582-1.21a3.131,3.131,0,0,0-.931,1.05h-0.051l-0.121-1.29h-0.868v6.96h1.052v-3.73a2.518,2.518,0,0,1,.6-1.71,1.847,1.847,0,0,1,1.442-.69,3.858,3.858,0,0,1,.761.1l0.146-.98a4.2,4.2,0,0,0-.831-0.07A2.131,2.131,0,0,0,831.254,1523.48Zm5.3,0a3.133,3.133,0,0,0-.932,1.05h-0.051l-0.12-1.29h-0.869v6.96h1.053v-3.73a2.513,2.513,0,0,1,.6-1.71,1.845,1.845,0,0,1,1.442-.69,3.858,3.858,0,0,1,.76.1l0.146-.98a4.2,4.2,0,0,0-.83-0.07A2.126,2.126,0,0,0,836.554,1523.48Zm7.464,6.74a5.606,5.606,0,0,0,1.055-.34v-0.94a5.645,5.645,0,0,1-2.218.47,2.152,2.152,0,0,1-1.652-.64,2.747,2.747,0,0,1-.618-1.86h4.786v-0.67a3.286,3.286,0,0,0-.761-2.26,2.6,2.6,0,0,0-2.066-.86,2.747,2.747,0,0,0-2.222.99,4.035,4.035,0,0,0-.827,2.67,3.653,3.653,0,0,0,.891,2.61,3.211,3.211,0,0,0,2.43.94A5.878,5.878,0,0,0,844.018,1530.22Zm-0.219-5.69a2.3,2.3,0,0,1,.444,1.52h-3.632a2.537,2.537,0,0,1,.586-1.51,1.726,1.726,0,0,1,1.334-.54A1.541,1.541,0,0,1,843.8,1524.53Zm7.9,5.43v-0.93a4.676,4.676,0,0,1-1.781.38,1.793,1.793,0,0,1-1.531-.69,3.229,3.229,0,0,1-.516-1.97q0-2.7,2.117-2.7a3.47,3.47,0,0,1,.729.09,5.144,5.144,0,0,1,.76.23l0.324-.89a3.557,3.557,0,0,0-.786-0.26,4.866,4.866,0,0,0-1-.1,3,3,0,0,0-2.393.95,3.934,3.934,0,0,0-.84,2.7,3.834,3.834,0,0,0,.827,2.63,2.965,2.965,0,0,0,2.336.93,3.682,3.682,0,0,0,1.756-.37h0Zm3.075-.84a1.4,1.4,0,0,1-.3-0.96v-4.1h2.015v-0.82h-2.015v-1.61h-0.609l-0.444,1.49-1,.43v0.51h1v4.14a1.834,1.834,0,0,0,2.016,2.13,3.406,3.406,0,0,0,.6-0.06,1.918,1.918,0,0,0,.5-0.13v-0.81a3.8,3.8,0,0,1-.412.09,4.66,4.66,0,0,1-.539.04A1.051,1.051,0,0,1,854.772,1529.12Zm4.208-5.88h-1.052v6.96h1.052v-6.96Zm-0.963-1.35a0.63,0.63,0,0,0,.444.17,0.637,0.637,0,0,0,.437-0.17,0.713,0.713,0,0,0,.184-0.53,0.683,0.683,0,0,0-.184-0.53,0.637,0.637,0,0,0-.437-0.17,0.63,0.63,0,0,0-.444.17,0.7,0.7,0,0,0-.177.53A0.731,0.731,0,0,0,858.017,1521.89Zm5.946,8.31,2.637-6.96h-1.129q-1.293,3.555-1.663,4.61a13.792,13.792,0,0,0-.441,1.4h-0.051a18.894,18.894,0,0,0-.6-1.88l-1.5-4.13H860.1l2.637,6.96h1.23Zm7.889,0.02a5.606,5.606,0,0,0,1.055-.34v-0.94a5.646,5.646,0,0,1-2.219.47,2.15,2.15,0,0,1-1.651-.64,2.747,2.747,0,0,1-.618-1.86h4.786v-0.67a3.286,3.286,0,0,0-.761-2.26,2.6,2.6,0,0,0-2.066-.86,2.746,2.746,0,0,0-2.222.99,4.03,4.03,0,0,0-.827,2.67,3.657,3.657,0,0,0,.89,2.61,3.213,3.213,0,0,0,2.431.94A5.885,5.885,0,0,0,871.852,1530.22Zm-0.219-5.69a2.3,2.3,0,0,1,.444,1.52h-3.633a2.544,2.544,0,0,1,.587-1.51,1.724,1.724,0,0,1,1.334-.54A1.542,1.542,0,0,1,871.633,1524.53Zm11.79,5.67v-4.75a2.312,2.312,0,0,0-.6-1.77,2.634,2.634,0,0,0-1.841-.55,4.688,4.688,0,0,0-1.227.16,4.935,4.935,0,0,0-1.125.43l0.323,0.81a4.649,4.649,0,0,1,1.965-.53,1.445,1.445,0,0,1,1.125.39,1.758,1.758,0,0,1,.352,1.21v0.43l-1.179.04c-2.244.06-3.366,0.8-3.366,2.21a1.931,1.931,0,0,0,.587,1.51,2.3,2.3,0,0,0,1.619.54,3.057,3.057,0,0,0,1.29-.24,2.814,2.814,0,0,0,1.036-.88h0.051l0.209,0.99h0.78Zm-4.123-1.04a1.088,1.088,0,0,1-.346-0.87,1.18,1.18,0,0,1,.555-1.08,3.837,3.837,0,0,1,1.81-.39l1.052-.04v0.63a2.008,2.008,0,0,1-.561,1.51,2.134,2.134,0,0,1-1.544.54A1.425,1.425,0,0,1,879.3,1529.16Zm10.823,0.8v-0.93a4.676,4.676,0,0,1-1.781.38,1.793,1.793,0,0,1-1.531-.69,3.229,3.229,0,0,1-.516-1.97q0-2.7,2.117-2.7a3.47,3.47,0,0,1,.729.09,5.144,5.144,0,0,1,.76.23l0.324-.89a3.557,3.557,0,0,0-.786-0.26,4.866,4.866,0,0,0-1-.1,3,3,0,0,0-2.393.95,3.934,3.934,0,0,0-.84,2.7,3.834,3.834,0,0,0,.827,2.63,2.965,2.965,0,0,0,2.336.93,3.682,3.682,0,0,0,1.756-.37h0Zm3.075-.84a1.4,1.4,0,0,1-.3-0.96v-4.1h2.015v-0.82H892.9v-1.61h-0.609l-0.444,1.49-1,.43v0.51h1v4.14a1.834,1.834,0,0,0,2.016,2.13,3.406,3.406,0,0,0,.6-0.06,1.918,1.918,0,0,0,.5-0.13v-0.81a3.8,3.8,0,0,1-.412.09,4.66,4.66,0,0,1-.539.04A1.051,1.051,0,0,1,893.2,1529.12Zm4.209-5.88h-1.053v6.96h1.053v-6.96Zm-0.964-1.35a0.63,0.63,0,0,0,.444.17,0.637,0.637,0,0,0,.437-0.17,0.713,0.713,0,0,0,.184-0.53,0.683,0.683,0,0,0-.184-0.53,0.637,0.637,0,0,0-.437-0.17,0.63,0.63,0,0,0-.444.17,0.7,0.7,0,0,0-.177.53A0.731,0.731,0,0,0,896.443,1521.89Zm8.332,2.2a2.927,2.927,0,0,0-2.316-.97,3,3,0,0,0-2.358.94,3.851,3.851,0,0,0-.85,2.65,4.357,4.357,0,0,0,.393,1.92,2.864,2.864,0,0,0,1.116,1.26,3.147,3.147,0,0,0,1.654.44,3.006,3.006,0,0,0,2.365-.96,3.848,3.848,0,0,0,.855-2.66A3.8,3.8,0,0,0,904.775,1524.09Zm-3.907.6a1.857,1.857,0,0,1,1.559-.68,1.879,1.879,0,0,1,1.581.69,3.229,3.229,0,0,1,.536,2.01,3.286,3.286,0,0,1-.536,2.04,2.124,2.124,0,0,1-3.134,0,3.34,3.34,0,0,1-.533-2.04A3.263,3.263,0,0,1,900.868,1524.69Zm12.417,5.51v-4.54a2.589,2.589,0,0,0-.634-1.94,2.653,2.653,0,0,0-1.889-.6,2.918,2.918,0,0,0-1.3.28,2.16,2.16,0,0,0-.906.79h-0.051l-0.171-.95h-0.856v6.96h1.052v-3.65a2.973,2.973,0,0,1,.507-1.95,2.008,2.008,0,0,1,1.6-.59,1.569,1.569,0,0,1,1.21.42,1.814,1.814,0,0,1,.387,1.27v4.5h1.052Zm6.209-3.05a4.756,4.756,0,0,0-1.67-.91,9.489,9.489,0,0,1-1.217-.51,1.431,1.431,0,0,1-.46-0.37,0.791,0.791,0,0,1-.142-0.48,0.739,0.739,0,0,1,.38-0.65,2.253,2.253,0,0,1,1.128-.23,4.984,4.984,0,0,1,1.9.43l0.374-.86a5.62,5.62,0,0,0-2.194-.45,3.2,3.2,0,0,0-1.9.49,1.555,1.555,0,0,0-.691,1.34,1.6,1.6,0,0,0,.2.82,1.868,1.868,0,0,0,.608.61,7.37,7.37,0,0,0,1.379.63,5.48,5.48,0,0,1,1.372.69,0.9,0.9,0,0,1-.092,1.49,2.451,2.451,0,0,1-1.267.27,4.365,4.365,0,0,1-1.106-.15,5.318,5.318,0,0,1-1.075-.4v0.98a4.427,4.427,0,0,0,2.155.44,3.4,3.4,0,0,0,2.029-.53,1.741,1.741,0,0,0,.722-1.5A1.613,1.613,0,0,0,919.494,1527.15Z" transform="translate(-695 -1318)"/>
  <rect id="bg_copy_4" data-name="bg copy 4" class="cls-3" x="117.875" y="131" width="106.875" height="59"/>
  <path id="Monitor_project_plan" data-name="Monitor project plan" class="cls-2" d="M848.306,1466.2l3.169-8.21h0.051c-0.059.8-.089,1.54-0.089,2.23v5.98h1.078v-9.28h-1.61l-2.96,7.65h-0.051l-2.935-7.65h-1.623v9.28h1v-5.9c0-.9-0.029-1.68-0.088-2.33h0.05l3.144,8.23h0.869Zm11.73-6.11a2.929,2.929,0,0,0-2.317-.97,3,3,0,0,0-2.358.94,3.856,3.856,0,0,0-.849,2.65,4.357,4.357,0,0,0,.393,1.92,2.868,2.868,0,0,0,1.115,1.26,3.148,3.148,0,0,0,1.655.44,3,3,0,0,0,2.364-.96,3.844,3.844,0,0,0,.856-2.66A3.8,3.8,0,0,0,860.036,1460.09Zm-3.908.6a1.86,1.86,0,0,1,1.559-.68,1.879,1.879,0,0,1,1.582.69,3.229,3.229,0,0,1,.536,2.01,3.286,3.286,0,0,1-.536,2.04,2.125,2.125,0,0,1-3.135,0,3.341,3.341,0,0,1-.532-2.04A3.263,3.263,0,0,1,856.128,1460.69Zm12.418,5.51v-4.54a2.594,2.594,0,0,0-.634-1.94,2.654,2.654,0,0,0-1.889-.6,2.919,2.919,0,0,0-1.3.28,2.172,2.172,0,0,0-.906.79h-0.051l-0.171-.95h-0.856v6.96h1.053v-3.65a2.973,2.973,0,0,1,.507-1.95,2.006,2.006,0,0,1,1.6-.59,1.573,1.573,0,0,1,1.211.42,1.814,1.814,0,0,1,.387,1.27v4.5h1.052Zm3.214-6.96h-1.053v6.96h1.053v-6.96Zm-0.964-1.35a0.656,0.656,0,0,0,.881,0,0.713,0.713,0,0,0,.184-0.53,0.683,0.683,0,0,0-.184-0.53,0.656,0.656,0,0,0-.881,0,0.7,0.7,0,0,0-.177.53A0.731,0.731,0,0,0,870.8,1457.89Zm4.621,7.23a1.4,1.4,0,0,1-.3-0.96v-4.1h2.016v-0.82h-2.016v-1.61h-0.608l-0.444,1.49-1,.43v0.51h1v4.14a1.834,1.834,0,0,0,2.016,2.13,3.415,3.415,0,0,0,.6-0.06,1.918,1.918,0,0,0,.5-0.13v-0.81a3.856,3.856,0,0,1-.412.09,4.677,4.677,0,0,1-.539.04A1.053,1.053,0,0,1,875.417,1465.12Zm8.294-5.03a2.925,2.925,0,0,0-2.316-.97,3,3,0,0,0-2.358.94,3.851,3.851,0,0,0-.85,2.65,4.357,4.357,0,0,0,.393,1.92,2.864,2.864,0,0,0,1.116,1.26,3.147,3.147,0,0,0,1.654.44,3.006,3.006,0,0,0,2.365-.96,3.848,3.848,0,0,0,.855-2.66A3.8,3.8,0,0,0,883.711,1460.09Zm-3.907.6a1.857,1.857,0,0,1,1.559-.68,1.879,1.879,0,0,1,1.581.69,3.223,3.223,0,0,1,.536,2.01,3.28,3.28,0,0,1-.536,2.04,2.124,2.124,0,0,1-3.134,0,3.34,3.34,0,0,1-.533-2.04A3.263,3.263,0,0,1,879.8,1460.69Zm8.582-1.21a3.131,3.131,0,0,0-.931,1.05H887.4l-0.121-1.29h-0.868v6.96h1.052v-3.73a2.518,2.518,0,0,1,.6-1.71,1.847,1.847,0,0,1,1.442-.69,3.858,3.858,0,0,1,.761.1l0.146-.98a4.2,4.2,0,0,0-.831-0.07A2.131,2.131,0,0,0,888.386,1459.48Zm-36.8,21.5a5.049,5.049,0,0,0,.013-5.32,2.564,2.564,0,0,0-2.133-.94,2.855,2.855,0,0,0-1.236.25,2.449,2.449,0,0,0-.945.82h-0.05l-0.146-.95h-0.856v10.08h1.052v-2.86a9.457,9.457,0,0,0-.076-1.16h0.076a2.357,2.357,0,0,0,.942.78,3.122,3.122,0,0,0,1.239.25A2.578,2.578,0,0,0,851.586,1480.98Zm-0.836-4.67a3.3,3.3,0,0,1,.51,1.99,3.434,3.434,0,0,1-.51,2.01,1.622,1.622,0,0,1-1.411.73,1.859,1.859,0,0,1-1.566-.63,3.488,3.488,0,0,1-.488-2.1v-0.23a3.038,3.038,0,0,1,.488-1.88,1.875,1.875,0,0,1,1.541-.59A1.667,1.667,0,0,1,850.75,1476.31Zm5.41-1.23a3.133,3.133,0,0,0-.932,1.05h-0.051l-0.12-1.29h-0.869v6.96h1.053v-3.73a2.513,2.513,0,0,1,.6-1.71,1.845,1.845,0,0,1,1.442-.69,3.858,3.858,0,0,1,.76.1l0.146-.98a4.2,4.2,0,0,0-.83-0.07A2.126,2.126,0,0,0,856.16,1475.08Zm8.465,0.61a2.927,2.927,0,0,0-2.317-.97,3.007,3.007,0,0,0-2.358.94,3.856,3.856,0,0,0-.849,2.65,4.357,4.357,0,0,0,.393,1.92,2.864,2.864,0,0,0,1.116,1.26,3.145,3.145,0,0,0,1.654.44,3,3,0,0,0,2.364-.96,3.844,3.844,0,0,0,.856-2.66A3.8,3.8,0,0,0,864.625,1475.69Zm-3.908.6a2.143,2.143,0,0,1,3.141.01,3.229,3.229,0,0,1,.536,2.01,3.286,3.286,0,0,1-.536,2.04,2.124,2.124,0,0,1-3.134,0,3.34,3.34,0,0,1-.533-2.04A3.27,3.27,0,0,1,860.717,1476.29Zm7.664,6.58v-8.03h-1.052v8.1a1.225,1.225,0,0,1-.232.82,0.9,0.9,0,0,1-.725.27,3.258,3.258,0,0,1-.863-0.12v0.85a2.455,2.455,0,0,0,.977.16,1.746,1.746,0,0,0,1.895-2.05h0Zm-0.964-9.38a0.633,0.633,0,0,0,.444.17,0.64,0.64,0,0,0,.438-0.17,0.717,0.717,0,0,0,.183-0.53,0.686,0.686,0,0,0-.183-0.53,0.64,0.64,0,0,0-.438-0.17,0.633,0.633,0,0,0-.444.17,0.7,0.7,0,0,0-.177.53A0.731,0.731,0,0,0,867.417,1473.49Zm7.331,8.33a5.591,5.591,0,0,0,1.056-.34v-0.94a5.646,5.646,0,0,1-2.219.47,2.15,2.15,0,0,1-1.651-.64,2.747,2.747,0,0,1-.618-1.86H876.1v-0.67a3.286,3.286,0,0,0-.761-2.26,2.6,2.6,0,0,0-2.066-.86,2.746,2.746,0,0,0-2.222.99,4.03,4.03,0,0,0-.827,2.67,3.652,3.652,0,0,0,.89,2.61,3.213,3.213,0,0,0,2.431.94A5.868,5.868,0,0,0,874.748,1481.82Zm-0.218-5.69a2.306,2.306,0,0,1,.443,1.52h-3.632a2.538,2.538,0,0,1,.587-1.51,1.724,1.724,0,0,1,1.334-.54A1.542,1.542,0,0,1,874.53,1476.13Zm7.9,5.43v-0.93a4.68,4.68,0,0,1-1.781.38,1.79,1.79,0,0,1-1.531-.69,3.222,3.222,0,0,1-.517-1.97q0-2.7,2.117-2.7a3.455,3.455,0,0,1,.729.09,5.122,5.122,0,0,1,.761.23l0.323-.89a3.521,3.521,0,0,0-.786-0.26,4.863,4.863,0,0,0-1-.1,3,3,0,0,0-2.393.95,3.934,3.934,0,0,0-.84,2.7,3.834,3.834,0,0,0,.827,2.63,2.964,2.964,0,0,0,2.336.93,3.682,3.682,0,0,0,1.756-.37h0Zm3.074-.84a1.4,1.4,0,0,1-.3-0.96v-4.1h2.016v-0.82H885.2v-1.61H884.6l-0.444,1.49-1,.43v0.51h1v4.14a1.834,1.834,0,0,0,2.016,2.13,3.415,3.415,0,0,0,.6-0.06,1.918,1.918,0,0,0,.5-0.13v-0.81a3.856,3.856,0,0,1-.412.09,4.677,4.677,0,0,1-.539.04A1.053,1.053,0,0,1,885.5,1480.72Zm-25.916,15.86a5.049,5.049,0,0,0,.013-5.32,2.564,2.564,0,0,0-2.133-.94,2.863,2.863,0,0,0-1.237.25,2.439,2.439,0,0,0-.944.82h-0.051l-0.146-.95h-0.855v10.08h1.052v-2.86a9.457,9.457,0,0,0-.076-1.16h0.076a2.354,2.354,0,0,0,.941.78,3.123,3.123,0,0,0,1.24.25A2.578,2.578,0,0,0,859.586,1496.58Zm-0.837-4.67a3.3,3.3,0,0,1,.51,1.99,3.434,3.434,0,0,1-.51,2.01,1.619,1.619,0,0,1-1.41.73,1.857,1.857,0,0,1-1.566-.63,3.488,3.488,0,0,1-.488-2.1v-0.23a3.032,3.032,0,0,1,.488-1.88,1.873,1.873,0,0,1,1.54-.59A1.666,1.666,0,0,1,858.749,1491.91Zm4.491-4.39h-1.052v9.88h1.052v-9.88Zm7.284,9.88v-4.75a2.309,2.309,0,0,0-.6-1.77,2.634,2.634,0,0,0-1.841-.55,4.688,4.688,0,0,0-1.227.16,4.972,4.972,0,0,0-1.125.43l0.324,0.81a4.649,4.649,0,0,1,1.965-.53,1.448,1.448,0,0,1,1.125.39,1.763,1.763,0,0,1,.352,1.21v0.43l-1.179.04c-2.244.06-3.366,0.8-3.366,2.21a1.93,1.93,0,0,0,.586,1.51,2.3,2.3,0,0,0,1.62.54,3.063,3.063,0,0,0,1.29-.24,2.822,2.822,0,0,0,1.036-.88h0.051l0.209,0.99h0.78Zm-4.124-1.04a1.091,1.091,0,0,1-.345-0.87,1.179,1.179,0,0,1,.554-1.08,3.837,3.837,0,0,1,1.81-.39l1.052-.04v0.63a2.008,2.008,0,0,1-.561,1.51,2.132,2.132,0,0,1-1.543.54A1.428,1.428,0,0,1,866.4,1496.36Zm12.1,1.04v-4.54a2.594,2.594,0,0,0-.634-1.94,2.654,2.654,0,0,0-1.889-.6,2.919,2.919,0,0,0-1.3.28,2.172,2.172,0,0,0-.906.79h-0.051l-0.171-.95h-0.856v6.96h1.053v-3.65a2.973,2.973,0,0,1,.507-1.95,2.006,2.006,0,0,1,1.6-.59,1.573,1.573,0,0,1,1.211.42,1.814,1.814,0,0,1,.387,1.27v4.5H878.5Z" transform="translate(-695 -1318)"/>
  <g style="fill: #f2f2f2; filter: url(#filter-3)">
    <rect id="bg_copy_3" data-name="bg copy 3" class="cls-4" x="117.875" y="63" width="106.875" height="59" style="stroke: inherit; filter: none; fill: inherit"/>
  </g>
  <use xlink:href="#bg_copy_3" style="stroke: #01a9da; filter: none; fill: none"/>
  <path id="Manage_communications" data-name="Manage communications" class="cls-5" d="M849.1,1407l2.676-7.44h0.048q-0.024.225-.058,1.29c-0.022.72-.033,1.29-0.033,1.74V1407h1.4v-8.92h-2.06l-2.548,7.1h-0.037l-2.474-7.1h-2.054V1407h1.322v-4.34c0-.97-0.034-2.01-0.1-3.11h0.049l2.584,7.45H849.1Zm11.471,0v-4.55a2.19,2.19,0,0,0-.655-1.76,2.884,2.884,0,0,0-1.942-.56,5.5,5.5,0,0,0-1.231.15,5.041,5.041,0,0,0-1.2.43l0.464,1.03a6.944,6.944,0,0,1,.914-0.36,3.281,3.281,0,0,1,.993-0.15,1.206,1.206,0,0,1,.936.32,1.343,1.343,0,0,1,.3.96v0.36l-1.165.04a4.47,4.47,0,0,0-2.358.58,1.785,1.785,0,0,0-.774,1.58,1.987,1.987,0,0,0,.557,1.51,2.137,2.137,0,0,0,1.551.54,3.079,3.079,0,0,0,1.268-.22,2.8,2.8,0,0,0,.982-0.84h0.048l0.287,0.94h1.024Zm-3.962-1.22a0.914,0.914,0,0,1-.268-0.7,1.031,1.031,0,0,1,.46-0.93,3.034,3.034,0,0,1,1.472-.34l0.865-.03v0.58a1.588,1.588,0,0,1-.472,1.23,1.773,1.773,0,0,1-1.252.43A1.175,1.175,0,0,1,856.605,1405.78Zm11.891-3.18a2.162,2.162,0,0,0-2.425-2.47,2.824,2.824,0,0,0-1.244.26,1.96,1.96,0,0,0-.865.74h-0.073l-0.2-.88h-1.121V1407H864v-3.36a2.93,2.93,0,0,1,.421-1.8,1.579,1.579,0,0,1,1.329-.54,1.229,1.229,0,0,1,1,.38,1.842,1.842,0,0,1,.314,1.17V1407H868.5v-4.4Zm7.235,4.4v-4.55a2.187,2.187,0,0,0-.655-1.76,2.883,2.883,0,0,0-1.941-.56,5.5,5.5,0,0,0-1.231.15,5.025,5.025,0,0,0-1.2.43l0.463,1.03a7,7,0,0,1,.914-0.36,3.283,3.283,0,0,1,.994-0.15,1.2,1.2,0,0,1,.935.32,1.343,1.343,0,0,1,.3.96v0.36l-1.164.04a4.471,4.471,0,0,0-2.359.58,1.785,1.785,0,0,0-.774,1.58,1.983,1.983,0,0,0,.558,1.51,2.137,2.137,0,0,0,1.551.54,3.079,3.079,0,0,0,1.268-.22,2.791,2.791,0,0,0,.981-0.84h0.049l0.286,0.94h1.024Zm-3.962-1.22a0.918,0.918,0,0,1-.268-0.7,1.033,1.033,0,0,1,.46-0.93,3.037,3.037,0,0,1,1.472-.34l0.866-.03v0.58a1.588,1.588,0,0,1-.473,1.23,1.771,1.771,0,0,1-1.252.43A1.175,1.175,0,0,1,871.769,1405.78Zm9.32-5.53a2.755,2.755,0,0,0-.473-0.08,4.2,4.2,0,0,0-.6-0.04,2.92,2.92,0,0,0-1.972.6,2.135,2.135,0,0,0-.692,1.7,2.175,2.175,0,0,0,.327,1.2,1.856,1.856,0,0,0,.85.73,2.535,2.535,0,0,0-.634.52,1.018,1.018,0,0,0-.027,1.21,1.083,1.083,0,0,0,.472.4,2.055,2.055,0,0,0-1.1.59,1.47,1.47,0,0,0-.393,1.04,1.56,1.56,0,0,0,.725,1.39,3.724,3.724,0,0,0,2.1.49,4.927,4.927,0,0,0,2.73-.62,1.986,1.986,0,0,0,.945-1.77,1.657,1.657,0,0,0-.579-1.37,2.6,2.6,0,0,0-1.694-.48H879.9a2.019,2.019,0,0,1-.795-0.11,0.385,0.385,0,0,1-.217-0.35,0.8,0.8,0,0,1,.464-0.67,3.492,3.492,0,0,0,.585.04,3,3,0,0,0,1.981-.59,2.035,2.035,0,0,0,.719-1.65,2,2,0,0,0-.1-0.65,1.821,1.821,0,0,0-.262-0.53l1.152-.21v-0.79h-2.334Zm-2.6,7.02a1.485,1.485,0,0,1,.978-0.29h1.085a2.6,2.6,0,0,1,1.168.18,0.675,0.675,0,0,1,.313.63,1.013,1.013,0,0,1-.572.89,3.594,3.594,0,0,1-1.744.33,2.258,2.258,0,0,1-1.173-.25,0.775,0.775,0,0,1-.417-0.71A0.937,0.937,0,0,1,878.489,1407.27Zm0.573-5.87a1.224,1.224,0,0,1,.942-0.35,1.163,1.163,0,0,1,.935.36,1.474,1.474,0,0,1,.308,1.01,1.137,1.137,0,0,1-1.243,1.33,1.224,1.224,0,0,1-.936-0.34,1.363,1.363,0,0,1-.326-0.98A1.5,1.5,0,0,1,879.062,1401.4Zm9.78,5.62a4.312,4.312,0,0,0,1.06-.36v-1.16a5.764,5.764,0,0,1-1.106.37,4.9,4.9,0,0,1-1.112.12,1.853,1.853,0,0,1-1.408-.53,2.223,2.223,0,0,1-.531-1.51h4.492v-0.78a3.106,3.106,0,0,0-.774-2.23,2.779,2.779,0,0,0-2.109-.81,2.838,2.838,0,0,0-2.261.94,3.835,3.835,0,0,0-.823,2.6,3.478,3.478,0,0,0,.887,2.53,3.231,3.231,0,0,0,2.46.92A6.45,6.45,0,0,0,888.842,1407.02Zm-0.415-5.38a1.881,1.881,0,0,1,.4,1.27H885.77a2.064,2.064,0,0,1,.49-1.26,1.44,1.44,0,0,1,1.094-.44A1.4,1.4,0,0,1,888.427,1401.64Zm-67.033,20.38a2.7,2.7,0,0,0,.82-0.32v-1.25a3.639,3.639,0,0,1-1.811.48,1.51,1.51,0,0,1-1.277-.57,2.818,2.818,0,0,1-.435-1.71c0-1.55.583-2.33,1.749-2.33a4.269,4.269,0,0,1,1.5.36l0.433-1.16a4.568,4.568,0,0,0-1.92-.39,3.081,3.081,0,0,0-2.4.91,4.546,4.546,0,0,0-.037,5.19,2.967,2.967,0,0,0,2.325.89A4.611,4.611,0,0,0,821.394,1422.02Zm7.53-5.95a2.961,2.961,0,0,0-2.316-.94,3.028,3.028,0,0,0-2.371.92,3.653,3.653,0,0,0-.841,2.56,4.177,4.177,0,0,0,.39,1.86,2.79,2.79,0,0,0,1.116,1.22,3.179,3.179,0,0,0,1.67.43,3.028,3.028,0,0,0,2.358-.93A4.276,4.276,0,0,0,828.924,1416.07Zm-3.648.83a1.464,1.464,0,0,1,1.308-.6q1.719,0,1.719,2.31,0,2.34-1.707,2.34-1.725,0-1.725-2.34A3.044,3.044,0,0,1,825.276,1416.9Zm11.828,1.52a2.69,2.69,0,0,1,.387-1.6,1.414,1.414,0,0,1,1.222-.52,1.1,1.1,0,0,1,.917.38,1.891,1.891,0,0,1,.3,1.16V1422h1.432v-4.4a2.7,2.7,0,0,0-.551-1.86,2.252,2.252,0,0,0-1.759-.61,2.629,2.629,0,0,0-1.243.28,2.094,2.094,0,0,0-.841.78h-0.1a2.045,2.045,0,0,0-2.06-1.06,2.55,2.55,0,0,0-1.173.26,1.837,1.837,0,0,0-.814.74h-0.073l-0.2-.88h-1.122V1422h1.433v-3.36a3.178,3.178,0,0,1,.387-1.8,1.394,1.394,0,0,1,1.216-.54,1.09,1.09,0,0,1,.914.38,1.906,1.906,0,0,1,.292,1.16V1422H837.1v-3.58Zm11.934,0a2.69,2.69,0,0,1,.387-1.6,1.414,1.414,0,0,1,1.222-.52,1.1,1.1,0,0,1,.917.38,1.891,1.891,0,0,1,.3,1.16V1422h1.432v-4.4a2.7,2.7,0,0,0-.551-1.86,2.252,2.252,0,0,0-1.759-.61,2.629,2.629,0,0,0-1.243.28,2.094,2.094,0,0,0-.841.78h-0.1a2.045,2.045,0,0,0-2.06-1.06,2.55,2.55,0,0,0-1.173.26,1.837,1.837,0,0,0-.814.74H844.68l-0.2-.88h-1.122V1422h1.433v-3.36a3.178,3.178,0,0,1,.387-1.8,1.394,1.394,0,0,1,1.216-.54,1.09,1.09,0,0,1,.914.38,1.906,1.906,0,0,1,.292,1.16V1422h1.439v-3.58Zm12.135,3.58v-6.75h-1.438v3.36a2.976,2.976,0,0,1-.424,1.81,1.58,1.58,0,0,1-1.326.54,1.2,1.2,0,0,1-.993-0.39,1.779,1.779,0,0,1-.317-1.16v-4.16H855.23v4.41a2.534,2.534,0,0,0,.6,1.85,2.455,2.455,0,0,0,1.828.61,2.827,2.827,0,0,0,1.259-.27,2,2,0,0,0,.85-0.74h0.073l0.2,0.89h1.127Zm7.972-4.4a2.162,2.162,0,0,0-2.425-2.47,2.824,2.824,0,0,0-1.244.26,1.96,1.96,0,0,0-.865.74h-0.073l-0.2-.88h-1.121V1422h1.432v-3.36a2.93,2.93,0,0,1,.421-1.8,1.579,1.579,0,0,1,1.329-.54,1.229,1.229,0,0,1,1,.38,1.842,1.842,0,0,1,.314,1.17V1422h1.438v-4.4Zm3.426-2.35h-1.433V1422h1.433v-6.75Zm-1.308-1.21a0.816,0.816,0,0,0,.6.21,0.8,0.8,0,0,0,.588-0.21,0.779,0.779,0,0,0,.21-0.58,0.73,0.73,0,0,0-.8-0.8,0.816,0.816,0,0,0-.6.21,0.787,0.787,0,0,0-.21.59A0.779,0.779,0,0,0,871.263,1414.04Zm7.132,7.98a2.7,2.7,0,0,0,.819-0.32v-1.25a3.636,3.636,0,0,1-1.81.48,1.509,1.509,0,0,1-1.277-.57,2.818,2.818,0,0,1-.436-1.71c0-1.55.583-2.33,1.75-2.33a4.269,4.269,0,0,1,1.5.36l0.433-1.16a4.568,4.568,0,0,0-1.92-.39,3.084,3.084,0,0,0-2.4.91,4.544,4.544,0,0,0-.036,5.19,2.967,2.967,0,0,0,2.325.89A4.611,4.611,0,0,0,878.4,1422.02Zm7.646-.02v-4.55a2.19,2.19,0,0,0-.655-1.76,2.884,2.884,0,0,0-1.942-.56,5.5,5.5,0,0,0-1.231.15,5.041,5.041,0,0,0-1.2.43l0.464,1.03a6.944,6.944,0,0,1,.914-0.36,3.281,3.281,0,0,1,.993-0.15,1.206,1.206,0,0,1,.936.32,1.343,1.343,0,0,1,.3.96v0.36l-1.164.04a4.471,4.471,0,0,0-2.359.58,1.785,1.785,0,0,0-.774,1.58,1.987,1.987,0,0,0,.557,1.51,2.138,2.138,0,0,0,1.552.54,3.074,3.074,0,0,0,1.267-.22,2.8,2.8,0,0,0,.982-0.84h0.048l0.287,0.94h1.024Zm-3.962-1.22a0.914,0.914,0,0,1-.268-0.7,1.031,1.031,0,0,1,.46-0.93,3.034,3.034,0,0,1,1.472-.34l0.865-.03v0.58a1.588,1.588,0,0,1-.472,1.23,1.773,1.773,0,0,1-1.252.43A1.175,1.175,0,0,1,882.079,1420.78Zm7.793-.06a1.025,1.025,0,0,1-.259-0.77v-3.61h1.919v-1.09h-1.919v-1.5h-0.884l-0.488,1.43-0.987.52v0.64h0.92v3.63a1.849,1.849,0,0,0,2.036,2.15,3.955,3.955,0,0,0,.777-0.07,2.5,2.5,0,0,0,.612-0.17v-1.08a3.46,3.46,0,0,1-1.048.16A0.958,0.958,0,0,1,889.872,1420.72Zm4.507-5.47h-1.433V1422h1.433v-6.75Zm-1.308-1.21a0.816,0.816,0,0,0,.6.21,0.8,0.8,0,0,0,.588-0.21,0.779,0.779,0,0,0,.21-0.58,0.73,0.73,0,0,0-.8-0.8,0.816,0.816,0,0,0-.6.21,0.787,0.787,0,0,0-.21.59A0.779,0.779,0,0,0,893.071,1414.04Zm8.482,2.03a2.961,2.961,0,0,0-2.316-.94,3.026,3.026,0,0,0-2.371.92,3.653,3.653,0,0,0-.842,2.56,4.163,4.163,0,0,0,.391,1.86,2.788,2.788,0,0,0,1.115,1.22,3.179,3.179,0,0,0,1.67.43,3.03,3.03,0,0,0,2.359-.93A4.28,4.28,0,0,0,901.553,1416.07Zm-3.648.83a1.463,1.463,0,0,1,1.307-.6q1.719,0,1.719,2.31,0,2.34-1.707,2.34-1.725,0-1.725-2.34A3.043,3.043,0,0,1,897.905,1416.9Zm12.077,0.7a2.163,2.163,0,0,0-2.426-2.47,2.823,2.823,0,0,0-1.243.26,1.968,1.968,0,0,0-.866.74h-0.073l-0.2-.88h-1.121V1422h1.432v-3.36a2.93,2.93,0,0,1,.421-1.8,1.578,1.578,0,0,1,1.328-.54,1.232,1.232,0,0,1,1,.38,1.842,1.842,0,0,1,.314,1.17V1422h1.438v-4.4Zm6.339,1.64a1.729,1.729,0,0,0-.561-0.62,5.574,5.574,0,0,0-1.213-.59,6.424,6.424,0,0,1-1.289-.61,0.633,0.633,0,0,1-.3-0.53c0-.44.377-0.65,1.133-0.65a5.015,5.015,0,0,1,1.835.45l0.463-1.08a5.392,5.392,0,0,0-2.249-.48,3.305,3.305,0,0,0-1.9.48,1.528,1.528,0,0,0-.7,1.34,1.667,1.667,0,0,0,.411,1.17,4.161,4.161,0,0,0,1.576.91,7.914,7.914,0,0,1,.932.41,1.6,1.6,0,0,1,.482.36,0.612,0.612,0,0,1,.146.42c0,0.54-.441.8-1.323,0.8a5.249,5.249,0,0,1-2.212-.55v1.24a4.754,4.754,0,0,0,2.163.41,3.388,3.388,0,0,0,2.061-.53,1.752,1.752,0,0,0,.719-1.51A1.773,1.773,0,0,0,916.321,1419.24Z" transform="translate(-695 -1318)"/>
  <rect id="bg_copy_3-2" data-name="bg copy 3" class="cls-6" x="2" y="2" width="106.844" height="59"/>
  <path id="Execute_management_actions" data-name="Execute management actions" class="cls-2" d="M733.225,1338.23h-4.089v-3.41h3.842v-0.95h-3.842v-2.99h4.089v-0.96h-5.166v9.28h5.166v-0.97Zm1.027,0.97h1.191l1.966-2.82,1.946,2.82h1.191L738,1335.64l2.415-3.4h-1.185l-1.825,2.67-1.832-2.67h-1.2l2.415,3.4Zm11.806,0.02a5.583,5.583,0,0,0,1.055-.34v-0.94a5.641,5.641,0,0,1-2.218.47,2.152,2.152,0,0,1-1.652-.64,2.747,2.747,0,0,1-.618-1.86h4.786v-0.67a3.286,3.286,0,0,0-.76-2.26,2.6,2.6,0,0,0-2.067-.86,2.747,2.747,0,0,0-2.222.99,4.035,4.035,0,0,0-.827,2.67,3.653,3.653,0,0,0,.891,2.61,3.212,3.212,0,0,0,2.431.94A5.875,5.875,0,0,0,746.058,1339.22Zm-0.219-5.69a2.3,2.3,0,0,1,.444,1.52h-3.632a2.537,2.537,0,0,1,.586-1.51,1.727,1.727,0,0,1,1.334-.54A1.541,1.541,0,0,1,745.839,1333.53Zm7.9,5.43v-0.93a4.676,4.676,0,0,1-1.781.38,1.793,1.793,0,0,1-1.531-.69,3.229,3.229,0,0,1-.516-1.97q0-2.7,2.117-2.7a3.47,3.47,0,0,1,.729.09,5.2,5.2,0,0,1,.761.23l0.323-.89a3.521,3.521,0,0,0-.786-0.26,4.866,4.866,0,0,0-1-.1,3,3,0,0,0-2.393.95,3.934,3.934,0,0,0-.84,2.7,3.829,3.829,0,0,0,.828,2.63,2.962,2.962,0,0,0,2.336.93,3.68,3.68,0,0,0,1.755-.37h0Zm1.572-6.72v4.55a2.56,2.56,0,0,0,.631,1.93,2.62,2.62,0,0,0,1.9.61,2.9,2.9,0,0,0,1.309-.28,2.094,2.094,0,0,0,.9-0.78H760.1l0.152,0.93h0.868v-6.96H760.07v3.66a3.024,3.024,0,0,1-.5,1.95,1.965,1.965,0,0,1-1.594.59,1.607,1.607,0,0,1-1.211-.41,1.831,1.831,0,0,1-.387-1.27v-4.52h-1.065Zm9.471,5.88a1.4,1.4,0,0,1-.3-0.96v-4.1H766.5v-0.82h-2.015v-1.61h-0.609l-0.444,1.49-1,.43v0.51h1v4.14a1.834,1.834,0,0,0,2.016,2.13,3.406,3.406,0,0,0,.6-0.06,1.918,1.918,0,0,0,.5-0.13v-0.81a3.8,3.8,0,0,1-.412.09,4.66,4.66,0,0,1-.539.04A1.051,1.051,0,0,1,764.78,1338.12Zm7.292,1.1a5.591,5.591,0,0,0,1.056-.34v-0.94a5.646,5.646,0,0,1-2.219.47,2.15,2.15,0,0,1-1.651-.64,2.747,2.747,0,0,1-.618-1.86h4.786v-0.67a3.286,3.286,0,0,0-.761-2.26,2.6,2.6,0,0,0-2.066-.86,2.746,2.746,0,0,0-2.222.99,4.03,4.03,0,0,0-.827,2.67,3.657,3.657,0,0,0,.89,2.61,3.213,3.213,0,0,0,2.431.94A5.868,5.868,0,0,0,772.072,1339.22Zm-0.218-5.69a2.306,2.306,0,0,1,.443,1.52h-3.632a2.538,2.538,0,0,1,.587-1.51,1.724,1.724,0,0,1,1.334-.54A1.542,1.542,0,0,1,771.854,1333.53Zm-50.781,21.27v-4.54a2.724,2.724,0,0,0-.586-1.94,2.364,2.364,0,0,0-1.765-.6,2.805,2.805,0,0,0-1.344.31,2.183,2.183,0,0,0-.9.87h-0.051a2.06,2.06,0,0,0-2.13-1.18,2.567,2.567,0,0,0-1.214.28,2.121,2.121,0,0,0-.84.79h-0.05l-0.172-.95h-0.855v6.96h1.052v-3.65a3.238,3.238,0,0,1,.46-1.95,1.73,1.73,0,0,1,1.448-.59,1.371,1.371,0,0,1,1.109.42,1.852,1.852,0,0,1,.355,1.24v4.53h1.053v-3.89a2.65,2.65,0,0,1,.469-1.73,1.769,1.769,0,0,1,1.451-.57,1.365,1.365,0,0,1,1.1.42,1.852,1.852,0,0,1,.355,1.24v4.53h1.052Zm7.22,0v-4.75a2.309,2.309,0,0,0-.6-1.77,2.634,2.634,0,0,0-1.841-.55,4.688,4.688,0,0,0-1.227.16,4.935,4.935,0,0,0-1.125.43l0.323,0.81a4.649,4.649,0,0,1,1.965-.53,1.449,1.449,0,0,1,1.126.39,1.763,1.763,0,0,1,.351,1.21v0.43l-1.179.04c-2.244.06-3.366,0.8-3.366,2.21a1.931,1.931,0,0,0,.587,1.51,2.3,2.3,0,0,0,1.619.54,3.057,3.057,0,0,0,1.29-.24,2.817,2.817,0,0,0,1.037-.88h0.05l0.21,0.99h0.779Zm-4.123-1.04a1.088,1.088,0,0,1-.346-0.87,1.18,1.18,0,0,1,.555-1.08,3.837,3.837,0,0,1,1.81-.39l1.052-.04v0.63a2.008,2.008,0,0,1-.561,1.51,2.132,2.132,0,0,1-1.543.54A1.426,1.426,0,0,1,724.17,1353.76Zm12.1,1.04v-4.54a2.594,2.594,0,0,0-.634-1.94,2.656,2.656,0,0,0-1.889-.6,2.919,2.919,0,0,0-1.3.28,2.16,2.16,0,0,0-.906.79h-0.051l-0.171-.95h-0.856v6.96h1.052v-3.65a2.967,2.967,0,0,1,.508-1.95,2.006,2.006,0,0,1,1.6-.59,1.573,1.573,0,0,1,1.211.42,1.819,1.819,0,0,1,.386,1.27v4.5h1.053Zm7.213,0v-4.75a2.312,2.312,0,0,0-.6-1.77,2.634,2.634,0,0,0-1.841-.55,4.688,4.688,0,0,0-1.227.16,4.935,4.935,0,0,0-1.125.43l0.323,0.81a4.649,4.649,0,0,1,1.965-.53,1.445,1.445,0,0,1,1.125.39,1.758,1.758,0,0,1,.352,1.21v0.43l-1.179.04c-2.244.06-3.366,0.8-3.366,2.21a1.931,1.931,0,0,0,.587,1.51,2.3,2.3,0,0,0,1.619.54,3.057,3.057,0,0,0,1.29-.24,2.817,2.817,0,0,0,1.037-.88h0.05l0.209,0.99h0.78Zm-4.123-1.04a1.088,1.088,0,0,1-.346-0.87,1.18,1.18,0,0,1,.555-1.08,3.837,3.837,0,0,1,1.81-.39l1.052-.04v0.63a2.008,2.008,0,0,1-.561,1.51,2.134,2.134,0,0,1-1.544.54A1.425,1.425,0,0,1,739.358,1353.76Zm9.575-5.92a3.723,3.723,0,0,0-.983-0.12,2.8,2.8,0,0,0-1.94.61,2.272,2.272,0,0,0-.684,1.77,2.2,2.2,0,0,0,.339,1.21,1.874,1.874,0,0,0,.878.76,2.159,2.159,0,0,0-.64.55,1.113,1.113,0,0,0-.2.67,1,1,0,0,0,.18.59,1.088,1.088,0,0,0,.447.37,2.063,2.063,0,0,0-1.141.63,1.73,1.73,0,0,0,.333,2.53,3.672,3.672,0,0,0,2.1.51,4.99,4.99,0,0,0,2.7-.6,2,2,0,0,0,.925-1.77,1.659,1.659,0,0,0-.605-1.38,2.737,2.737,0,0,0-1.734-.48h-1.23a1.743,1.743,0,0,1-.805-0.13,0.451,0.451,0,0,1-.234-0.42,1.046,1.046,0,0,1,.672-0.9,2.718,2.718,0,0,0,.583.05,2.792,2.792,0,0,0,1.914-.61,2.048,2.048,0,0,0,.7-1.63,2.264,2.264,0,0,0-.457-1.39l1.287-.15v-0.67h-2.4Zm-2.739,7.14a1.651,1.651,0,0,1,1.116-.34h1.261a2.651,2.651,0,0,1,1.312.22,0.855,0.855,0,0,1,.349.78,1.208,1.208,0,0,1-.637,1.08,3.842,3.842,0,0,1-1.962.4,2.563,2.563,0,0,1-1.363-.3,0.935,0.935,0,0,1-.475-0.85A1.238,1.238,0,0,1,746.194,1354.98Zm0.571-6.1a1.569,1.569,0,0,1,1.141-.4,1.386,1.386,0,0,1,1.559,1.57,1.344,1.344,0,0,1-1.54,1.5,1.645,1.645,0,0,1-1.148-.38,1.391,1.391,0,0,1-.412-1.1A1.629,1.629,0,0,1,746.765,1348.88Zm10.132,5.94a5.591,5.591,0,0,0,1.056-.34v-0.94a5.646,5.646,0,0,1-2.219.47,2.15,2.15,0,0,1-1.651-.64,2.747,2.747,0,0,1-.618-1.86h4.786v-0.67a3.286,3.286,0,0,0-.761-2.26,2.6,2.6,0,0,0-2.067-.86,2.745,2.745,0,0,0-2.221.99,4.03,4.03,0,0,0-.827,2.67,3.652,3.652,0,0,0,.89,2.61,3.213,3.213,0,0,0,2.431.94A5.875,5.875,0,0,0,756.9,1354.82Zm-0.218-5.69a2.306,2.306,0,0,1,.443,1.52H753.49a2.544,2.544,0,0,1,.586-1.51,1.728,1.728,0,0,1,1.335-.54A1.542,1.542,0,0,1,756.679,1349.13Zm13.273,5.67v-4.54a2.724,2.724,0,0,0-.586-1.94,2.367,2.367,0,0,0-1.766-.6,2.8,2.8,0,0,0-1.343.31,2.186,2.186,0,0,0-.9.87h-0.05a2.06,2.06,0,0,0-2.13-1.18,2.564,2.564,0,0,0-1.214.28,2.121,2.121,0,0,0-.84.79h-0.051l-0.171-.95h-0.855v6.96H761.1v-3.65a3.246,3.246,0,0,1,.459-1.95,1.732,1.732,0,0,1,1.449-.59,1.373,1.373,0,0,1,1.109.42,1.852,1.852,0,0,1,.355,1.24v4.53h1.052v-3.89a2.656,2.656,0,0,1,.469-1.73,1.773,1.773,0,0,1,1.452-.57,1.365,1.365,0,0,1,1.1.42,1.857,1.857,0,0,1,.355,1.24v4.53h1.052Zm6.3,0.02a5.56,5.56,0,0,0,1.055-.34v-0.94a5.641,5.641,0,0,1-2.218.47,2.148,2.148,0,0,1-1.651-.64,2.747,2.747,0,0,1-.618-1.86h4.785v-0.67a3.286,3.286,0,0,0-.76-2.26,2.6,2.6,0,0,0-2.067-.86,2.745,2.745,0,0,0-2.221.99,4.03,4.03,0,0,0-.828,2.67,3.653,3.653,0,0,0,.891,2.61,3.213,3.213,0,0,0,2.431.94A5.875,5.875,0,0,0,776.256,1354.82Zm-0.219-5.69a2.3,2.3,0,0,1,.444,1.52h-3.632a2.537,2.537,0,0,1,.586-1.51,1.728,1.728,0,0,1,1.335-.54A1.539,1.539,0,0,1,776.037,1349.13Zm9.173,5.67v-4.54a2.594,2.594,0,0,0-.634-1.94,2.654,2.654,0,0,0-1.889-.6,2.919,2.919,0,0,0-1.3.28,2.166,2.166,0,0,0-.906.79H780.43l-0.171-.95H779.4v6.96h1.053v-3.65a2.973,2.973,0,0,1,.507-1.95,2.006,2.006,0,0,1,1.6-.59,1.573,1.573,0,0,1,1.211.42,1.819,1.819,0,0,1,.386,1.27v4.5h1.053Zm3.587-1.08a1.407,1.407,0,0,1-.3-0.96v-4.1h2.015v-0.82H788.5v-1.61h-0.609l-0.444,1.49-1,.43v0.51h1v4.14a1.834,1.834,0,0,0,2.016,2.13,3.406,3.406,0,0,0,.6-0.06,1.918,1.918,0,0,0,.5-0.13v-0.81a3.8,3.8,0,0,1-.412.09,4.66,4.66,0,0,1-.539.04A1.055,1.055,0,0,1,788.8,1353.72Zm-53.819,16.68v-4.75a2.312,2.312,0,0,0-.6-1.77,2.638,2.638,0,0,0-1.842-.55,4.675,4.675,0,0,0-1.226.16,4.962,4.962,0,0,0-1.126.43l0.324,0.81a4.649,4.649,0,0,1,1.965-.53,1.448,1.448,0,0,1,1.125.39,1.763,1.763,0,0,1,.352,1.21v0.43l-1.179.04c-2.244.06-3.366,0.8-3.366,2.21a1.93,1.93,0,0,0,.586,1.51,2.3,2.3,0,0,0,1.62.54,3.063,3.063,0,0,0,1.29-.24,2.822,2.822,0,0,0,1.036-.88h0.051l0.209,0.99h0.78Zm-4.124-1.04a1.091,1.091,0,0,1-.345-0.87,1.181,1.181,0,0,1,.554-1.08,3.837,3.837,0,0,1,1.81-.39l1.052-.04v0.63a2.008,2.008,0,0,1-.561,1.51,2.132,2.132,0,0,1-1.543.54A1.428,1.428,0,0,1,730.854,1369.36Zm10.824,0.8v-0.93a4.684,4.684,0,0,1-1.781.38,1.79,1.79,0,0,1-1.531-.69,3.222,3.222,0,0,1-.517-1.97q0-2.7,2.117-2.7a3.462,3.462,0,0,1,.729.09,5.158,5.158,0,0,1,.761.23l0.323-.89a3.521,3.521,0,0,0-.786-0.26,4.863,4.863,0,0,0-1-.1,3,3,0,0,0-2.393.95,3.934,3.934,0,0,0-.84,2.7,3.834,3.834,0,0,0,.827,2.63,2.962,2.962,0,0,0,2.336.93,3.682,3.682,0,0,0,1.756-.37h0Zm3.074-.84a1.4,1.4,0,0,1-.3-0.96v-4.1h2.016v-0.82h-2.016v-1.61h-0.608l-0.444,1.49-1,.43v0.51h1v4.14a1.834,1.834,0,0,0,2.016,2.13,3.415,3.415,0,0,0,.6-0.06,1.929,1.929,0,0,0,.5-0.13v-0.81a3.856,3.856,0,0,1-.412.09,4.677,4.677,0,0,1-.539.04A1.053,1.053,0,0,1,744.752,1369.32Zm4.209-5.88h-1.052v6.96h1.052v-6.96ZM748,1362.09a0.629,0.629,0,0,0,.443.17,0.64,0.64,0,0,0,.438-0.17,0.717,0.717,0,0,0,.183-0.53,0.686,0.686,0,0,0-.183-0.53,0.64,0.64,0,0,0-.438-0.17,0.629,0.629,0,0,0-.443.17,0.7,0.7,0,0,0-.178.53A0.727,0.727,0,0,0,748,1362.09Zm8.332,2.2a2.929,2.929,0,0,0-2.317-.97,3,3,0,0,0-2.358.94,3.856,3.856,0,0,0-.849,2.65,4.357,4.357,0,0,0,.393,1.92,2.868,2.868,0,0,0,1.115,1.26,3.151,3.151,0,0,0,1.655.44,3,3,0,0,0,2.364-.96,3.844,3.844,0,0,0,.856-2.66A3.8,3.8,0,0,0,756.33,1364.29Zm-3.908.6a1.86,1.86,0,0,1,1.559-.68,1.879,1.879,0,0,1,1.582.69,3.229,3.229,0,0,1,.536,2.01,3.286,3.286,0,0,1-.536,2.04,2.125,2.125,0,0,1-3.135,0,3.341,3.341,0,0,1-.532-2.04A3.263,3.263,0,0,1,752.422,1364.89Zm12.418,5.51v-4.54a2.594,2.594,0,0,0-.634-1.94,2.654,2.654,0,0,0-1.889-.6,2.912,2.912,0,0,0-1.3.28,2.169,2.169,0,0,0-.907.79H760.06l-0.171-.95h-0.856v6.96h1.053v-3.65a2.973,2.973,0,0,1,.507-1.95,2.006,2.006,0,0,1,1.6-.59,1.573,1.573,0,0,1,1.211.42,1.814,1.814,0,0,1,.387,1.27v4.5h1.052Zm6.209-3.05a4.772,4.772,0,0,0-1.671-.91,9.555,9.555,0,0,1-1.217-.51,1.437,1.437,0,0,1-.459-0.37,0.792,0.792,0,0,1-.143-0.48,0.74,0.74,0,0,1,.381-0.65,2.248,2.248,0,0,1,1.128-.23,4.98,4.98,0,0,1,1.895.43l0.374-.86a5.611,5.611,0,0,0-2.193-.45,3.2,3.2,0,0,0-1.895.49,1.555,1.555,0,0,0-.691,1.34,1.6,1.6,0,0,0,.2.82,1.862,1.862,0,0,0,.609.61,7.339,7.339,0,0,0,1.379.63,5.5,5.5,0,0,1,1.372.69,0.9,0.9,0,0,1-.092,1.49,2.455,2.455,0,0,1-1.268.27,4.37,4.37,0,0,1-1.106-.15,5.309,5.309,0,0,1-1.074-.4v0.98a4.425,4.425,0,0,0,2.155.44,3.4,3.4,0,0,0,2.028-.53,1.742,1.742,0,0,0,.723-1.5A1.617,1.617,0,0,0,771.049,1367.35Z" transform="translate(-695 -1318)"/>
  <g id="Connecting_lines" data-name="Connecting lines">
    <path id="Shape_127_copy_3" data-name="Shape 127 copy 3" class="cls-5" d="M860.015,1519h-1v-10h1v10Zm-1-10h1l-5,7h-1Zm1,32h-1v-9h1v9Z" transform="translate(-695 -1318)"/>
    <path id="Shape_128_copy_3" data-name="Shape 128 copy 3" class="cls-5" d="M859.015,1509H859.9l5.118,7h-1Z" transform="translate(-695 -1318)"/>
    <path id="Shape_127_copy_3-2" data-name="Shape 127 copy 3" class="cls-5" d="M872.014,1532h-1v9h1v-9Zm-1,9h1l-5-7h-1Zm1-22h-1v-10h1v10Z" transform="translate(-695 -1318)"/>
    <path id="Shape_128_copy_3-2" data-name="Shape 128 copy 3" class="cls-5" d="M871.014,1541H871.9l5.117-7h-1Z" transform="translate(-695 -1318)"/>
    <path id="Shape_127_copy_2" data-name="Shape 127 copy 2" class="cls-5" d="M749.926,1411v-1h61.961v1H749.926Zm62.29-1.38-0.658.76-7.988-7,0.657-.76Z" transform="translate(-695 -1318)"/>
    <path id="Shape_128_copy_2" data-name="Shape 128 copy 2" class="cls-5" d="M810.56,1409.62l0.657,0.76-7.988,7-0.658-.76Z" transform="translate(-695 -1318)"/>
    <path id="Shape_127_copy_3-3" data-name="Shape 127 copy 3" class="cls-5" d="M749.926,1479v-1h61.961v1H749.926Zm62.29-1.38-0.658.76-7.989-7,0.658-.76Z" transform="translate(-695 -1318)"/>
    <path id="Shape_128_copy_3-3" data-name="Shape 128 copy 3" class="cls-5" d="M810.56,1477.62l0.657,0.76-7.989,7-0.657-.76Z" transform="translate(-695 -1318)"/>
    <path class="cls-5" d="M750.926,1572h-1V1379h1m230.757,192v1H920.737v-1h60.946Zm0-161v1H920.737v-1h60.946Z" transform="translate(-695 -1318)"/>
    <path id="Shape_127_copy_3-4" data-name="Shape 127 copy 3" class="cls-5" d="M920.737,1479v-1h81.923v1H920.737Zm82.253-1.38-0.66.76-7.991-7,0.657-.76Z" transform="translate(-695 -1318)"/>
    <path id="Shape_128_copy_3-4" data-name="Shape 128 copy 3" class="cls-5" d="M1002.33,1477.62l0.66,0.76-7.992,7-0.658-.76Z" transform="translate(-695 -1318)"/>
    <path class="cls-5" d="M981.683,1572h-1V1410h1v162Z" transform="translate(-695 -1318)"/>
    <path id="Shape_127_copy_3-5" data-name="Shape 127 copy 3" class="cls-5" d="M749.926,1572v-1h61.961v1H749.926Zm62.29-1.38-0.658.76-7.989-7,0.658-.76Z" transform="translate(-695 -1318)"/>
    <path id="Shape_128_copy_3-5" data-name="Shape 128 copy 3" class="cls-5" d="M810.56,1570.62l0.657,0.76-7.989,7-0.657-.76Z" transform="translate(-695 -1318)"/>
  </g>
</svg>
