<svg id="Flow_Chart_-_EMC_Execute" data-name="Flow Chart - EMC Execute" xmlns="http://www.w3.org/2000/svg" xmlns:xlink="http://www.w3.org/1999/xlink" width="308" height="288" viewBox="0 0 308 288">
  <defs>
    <style>
      .cls-1, .cls-3, .cls-5, .cls-6 {
        fill: #f2f2f2;
      }

      .cls-1 {
        filter: url(#filter);
      }

      .cls-2 {
        fill: #6b6b6b;
      }

      .cls-2, .cls-4 {
        fill-rule: evenodd;
      }

      .cls-3 {
        stroke: #01a9da;
        stroke-linejoin: round;
        stroke-opacity: 0.42;
        stroke-width: 1px;
        filter: url(#filter-2);
      }

      .cls-4 {
        fill: #01a9da;
      }

      .cls-5 {
        filter: url(#filter-3);
      }

      .cls-6 {
        filter: url(#filter-4);
      }
    </style>
    <filter id="filter" x="115" y="222" width="115" height="66" filterUnits="userSpaceOnUse">
      <feOffset result="offset" dx="0.5" dy="0.866" in="SourceAlpha"/>
      <feGaussianBlur result="blur" stdDeviation="2"/>
      <feFlood result="flood" flood-opacity="0.26"/>
      <feComposite result="composite" operator="in" in2="blur"/>
      <feBlend result="blend" in="SourceGraphic"/>
    </filter>
    <filter id="filter-2" x="108" y="122" width="127" height="78" filterUnits="userSpaceOnUse">
      <feOffset result="offset" dx="0.5" dy="0.866" in="SourceAlpha"/>
      <feGaussianBlur result="blur" stdDeviation="2"/>
      <feFlood result="flood" flood-opacity="0.13"/>
      <feComposite result="composite" operator="in" in2="blur"/>
      <feGaussianBlur result="blur-2" stdDeviation="3.333" in="SourceAlpha"/>
      <feComposite result="composite-2"/>
      <feComposite result="composite-3"/>
      <feComposite result="composite-4"/>
      <feFlood result="flood-2" flood-color="#01a9da" flood-opacity="0.09"/>
      <feComposite result="composite-5" operator="in" in2="composite-4"/>
      <feBlend result="blend" in2="composite"/>
      <feBlend result="blend-2" in="SourceGraphic"/>
    </filter>
    <filter id="filter-3" x="115" y="61" width="115" height="66" filterUnits="userSpaceOnUse">
      <feOffset result="offset" dx="0.5" dy="0.866" in="SourceAlpha"/>
      <feGaussianBlur result="blur" stdDeviation="2"/>
      <feFlood result="flood" flood-opacity="0.26"/>
      <feComposite result="composite" operator="in" in2="blur"/>
      <feBlend result="blend" in="SourceGraphic"/>
    </filter>
    <filter id="filter-4" x="0" y="0" width="114" height="66" filterUnits="userSpaceOnUse">
      <feOffset result="offset" dx="0.5" dy="0.866" in="SourceAlpha"/>
      <feGaussianBlur result="blur" stdDeviation="2"/>
      <feFlood result="flood" flood-opacity="0.26"/>
      <feComposite result="composite" operator="in" in2="blur"/>
      <feBlend result="blend" in="SourceGraphic"/>
    </filter>
  </defs>
  <rect id="bg_copy_5" data-name="bg copy 5" class="cls-1" x="117.875" y="224" width="106.875" height="59"/>
  <path id="Control_and_correct_project_plan" data-name="Control and correct project plan" class="cls-2" d="M851.174,1992.25l0.457-.93a5.679,5.679,0,0,0-2.549-.53,4.669,4.669,0,0,0-2.38.58,3.848,3.848,0,0,0-1.547,1.66,5.607,5.607,0,0,0-.535,2.52,5.13,5.13,0,0,0,1.112,3.53,4.021,4.021,0,0,0,3.16,1.25,6.589,6.589,0,0,0,2.377-.37v-0.94a8.4,8.4,0,0,1-2.212.35,3.009,3.009,0,0,1-2.431-1,4.187,4.187,0,0,1-.852-2.81,4.114,4.114,0,0,1,.884-2.79,3.025,3.025,0,0,1,2.412-1.02,4.912,4.912,0,0,1,2.1.5h0Zm7.1,1.84a2.929,2.929,0,0,0-2.317-.97,3,3,0,0,0-2.358.94,3.851,3.851,0,0,0-.85,2.65,4.357,4.357,0,0,0,.393,1.92,2.864,2.864,0,0,0,1.116,1.26,3.147,3.147,0,0,0,1.654.44,3.006,3.006,0,0,0,2.365-.96,3.848,3.848,0,0,0,.855-2.66A3.8,3.8,0,0,0,858.271,1994.09Zm-3.908.6a1.857,1.857,0,0,1,1.559-.68,1.882,1.882,0,0,1,1.582.69,3.23,3.23,0,0,1,.535,2.01,3.287,3.287,0,0,1-.535,2.04,2.125,2.125,0,0,1-3.135,0,3.341,3.341,0,0,1-.532-2.04A3.263,3.263,0,0,1,854.363,1994.69Zm12.417,5.51v-4.54a2.593,2.593,0,0,0-.633-1.94,2.656,2.656,0,0,0-1.889-.6,2.919,2.919,0,0,0-1.3.28,2.16,2.16,0,0,0-.906.79H862l-0.171-.95h-0.856v6.96h1.052v-3.65a2.973,2.973,0,0,1,.507-1.95,2.008,2.008,0,0,1,1.6-.59,1.573,1.573,0,0,1,1.211.42,1.819,1.819,0,0,1,.386,1.27v4.5h1.052Zm3.588-1.08a1.408,1.408,0,0,1-.3-0.96v-4.1h2.016v-0.82H870.07v-1.61h-0.608l-0.444,1.49-1,.43v0.51h1v4.14a1.834,1.834,0,0,0,2.016,2.13,3.415,3.415,0,0,0,.6-0.06,1.918,1.918,0,0,0,.5-0.13v-0.81a3.856,3.856,0,0,1-.412.09,4.677,4.677,0,0,1-.539.04A1.053,1.053,0,0,1,870.368,1999.12Zm5.128-5.64a3.131,3.131,0,0,0-.931,1.05h-0.051l-0.121-1.29h-0.868v6.96h1.052v-3.73a2.518,2.518,0,0,1,.6-1.71,1.847,1.847,0,0,1,1.442-.69,3.858,3.858,0,0,1,.761.1l0.146-.98a4.2,4.2,0,0,0-.831-0.07A2.131,2.131,0,0,0,875.5,1993.48Zm8.466,0.61a2.929,2.929,0,0,0-2.317-.97,3,3,0,0,0-2.358.94,3.856,3.856,0,0,0-.849,2.65,4.343,4.343,0,0,0,.393,1.92,2.861,2.861,0,0,0,1.115,1.26,3.148,3.148,0,0,0,1.655.44,3,3,0,0,0,2.364-.96,3.844,3.844,0,0,0,.856-2.66A3.8,3.8,0,0,0,883.962,1994.09Zm-3.908.6a1.858,1.858,0,0,1,1.559-.68,1.879,1.879,0,0,1,1.582.69,3.23,3.23,0,0,1,.535,2.01,3.287,3.287,0,0,1-.535,2.04,2.125,2.125,0,0,1-3.135,0,3.341,3.341,0,0,1-.532-2.04A3.263,3.263,0,0,1,880.054,1994.69Zm7.664-4.37h-1.053v9.88h1.053v-9.88Zm-49.811,25.48v-4.75a2.312,2.312,0,0,0-.6-1.77,2.634,2.634,0,0,0-1.841-.55,4.688,4.688,0,0,0-1.227.16,4.935,4.935,0,0,0-1.125.43l0.323,0.81a4.649,4.649,0,0,1,1.965-.53,1.445,1.445,0,0,1,1.125.39,1.758,1.758,0,0,1,.352,1.21v0.43l-1.179.04c-2.244.06-3.366,0.8-3.366,2.21a1.931,1.931,0,0,0,.587,1.51,2.3,2.3,0,0,0,1.619.54,3.057,3.057,0,0,0,1.29-.24,2.814,2.814,0,0,0,1.036-.88h0.051l0.209,0.99h0.78Zm-4.123-1.04a1.088,1.088,0,0,1-.346-0.87,1.18,1.18,0,0,1,.555-1.08,3.837,3.837,0,0,1,1.81-.39l1.052-.04v0.63a2.008,2.008,0,0,1-.561,1.51,2.134,2.134,0,0,1-1.544.54A1.425,1.425,0,0,1,833.784,2014.76Zm12.1,1.04v-4.54a2.589,2.589,0,0,0-.634-1.94,2.653,2.653,0,0,0-1.889-.6,2.918,2.918,0,0,0-1.3.28,2.16,2.16,0,0,0-.906.79H841.1l-0.171-.95h-0.856v6.96h1.052v-3.65a2.973,2.973,0,0,1,.507-1.95,2.008,2.008,0,0,1,1.6-.59,1.569,1.569,0,0,1,1.21.42,1.814,1.814,0,0,1,.387,1.27v4.5h1.052Zm7.03,0h0.856v-9.88h-1.052v2.83l0.025,0.49,0.044,0.5H852.7a2.824,2.824,0,0,0-4.285-.07,4.159,4.159,0,0,0-.761,2.67,4.091,4.091,0,0,0,.758,2.65,2.559,2.559,0,0,0,2.12.94,2.487,2.487,0,0,0,2.181-1.06h0.057Zm-3.676-1.44a3.417,3.417,0,0,1-.489-2.01,3.579,3.579,0,0,1,.492-2.03,1.608,1.608,0,0,1,1.416-.72,1.865,1.865,0,0,1,1.569.63,3.478,3.478,0,0,1,.492,2.11v0.22a2.989,2.989,0,0,1-.485,1.9,1.919,1.919,0,0,1-1.563.58A1.634,1.634,0,0,1,849.235,2014.36Zm14.668,1.2v-0.93a4.684,4.684,0,0,1-1.782.38,1.79,1.79,0,0,1-1.53-.69,3.222,3.222,0,0,1-.517-1.97q0-2.7,2.117-2.7a3.47,3.47,0,0,1,.729.09,5.158,5.158,0,0,1,.761.23l0.323-.89a3.521,3.521,0,0,0-.786-0.26,4.866,4.866,0,0,0-1-.1,3,3,0,0,0-2.392.95,3.934,3.934,0,0,0-.84,2.7,3.829,3.829,0,0,0,.827,2.63,2.962,2.962,0,0,0,2.336.93,3.684,3.684,0,0,0,1.756-.37h0Zm6.785-5.87a2.927,2.927,0,0,0-2.317-.97,3.007,3.007,0,0,0-2.358.94,3.856,3.856,0,0,0-.849,2.65,4.357,4.357,0,0,0,.393,1.92,2.864,2.864,0,0,0,1.116,1.26,3.145,3.145,0,0,0,1.654.44,3,3,0,0,0,2.364-.96,3.844,3.844,0,0,0,.856-2.66A3.8,3.8,0,0,0,870.688,2009.69Zm-3.908.6a2.143,2.143,0,0,1,3.141.01,3.229,3.229,0,0,1,.536,2.01,3.286,3.286,0,0,1-.536,2.04,2.124,2.124,0,0,1-3.134,0,3.34,3.34,0,0,1-.533-2.04A3.27,3.27,0,0,1,866.78,2010.29Zm8.583-1.21a3.144,3.144,0,0,0-.932,1.05h-0.05l-0.121-1.29h-0.868v6.96h1.052v-3.73a2.518,2.518,0,0,1,.6-1.71,1.845,1.845,0,0,1,1.442-.69,3.867,3.867,0,0,1,.761.1l0.146-.98a4.2,4.2,0,0,0-.831-0.07A2.131,2.131,0,0,0,875.363,2009.08Zm5.3,0a3.131,3.131,0,0,0-.931,1.05H879.68l-0.12-1.29h-0.869v6.96h1.052v-3.73a2.518,2.518,0,0,1,.6-1.71,1.847,1.847,0,0,1,1.442-.69,3.858,3.858,0,0,1,.761.1l0.146-.98a4.2,4.2,0,0,0-.83-0.07A2.132,2.132,0,0,0,880.662,2009.08Zm7.464,6.74a5.591,5.591,0,0,0,1.056-.34v-0.94a5.646,5.646,0,0,1-2.219.47,2.15,2.15,0,0,1-1.651-.64,2.747,2.747,0,0,1-.618-1.86h4.786v-0.67a3.286,3.286,0,0,0-.761-2.26,2.6,2.6,0,0,0-2.066-.86,2.746,2.746,0,0,0-2.222.99,4.03,4.03,0,0,0-.827,2.67,3.657,3.657,0,0,0,.89,2.61,3.213,3.213,0,0,0,2.431.94A5.868,5.868,0,0,0,888.126,2015.82Zm-0.218-5.69a2.3,2.3,0,0,1,.443,1.52h-3.632a2.538,2.538,0,0,1,.587-1.51,1.724,1.724,0,0,1,1.334-.54A1.542,1.542,0,0,1,887.908,2010.13Zm7.9,5.43v-0.93a4.68,4.68,0,0,1-1.781.38,1.792,1.792,0,0,1-1.531-.69,3.222,3.222,0,0,1-.517-1.97q0-2.7,2.117-2.7a3.455,3.455,0,0,1,.729.09,5.122,5.122,0,0,1,.761.23l0.323-.89a3.521,3.521,0,0,0-.786-0.26,4.856,4.856,0,0,0-1-.1,3,3,0,0,0-2.393.95,3.934,3.934,0,0,0-.84,2.7,3.834,3.834,0,0,0,.827,2.63,2.964,2.964,0,0,0,2.336.93,3.682,3.682,0,0,0,1.756-.37h0Zm3.074-.84a1.408,1.408,0,0,1-.3-0.96v-4.1H900.6v-0.82h-2.016v-1.61h-0.608l-0.444,1.49-1,.43v0.51h1v4.14a1.834,1.834,0,0,0,2.016,2.13,3.415,3.415,0,0,0,.6-0.06,1.918,1.918,0,0,0,.5-0.13v-0.81a3.856,3.856,0,0,1-.412.09,4.677,4.677,0,0,1-.539.04A1.053,1.053,0,0,1,898.88,2014.72Zm-62.193,15.86a5.046,5.046,0,0,0,.012-5.32,2.562,2.562,0,0,0-2.133-.94,2.861,2.861,0,0,0-1.236.25,2.439,2.439,0,0,0-.944.82h-0.051l-0.146-.95h-0.855v10.08h1.052v-2.86a9.457,9.457,0,0,0-.076-1.16h0.076a2.348,2.348,0,0,0,.941.78,3.122,3.122,0,0,0,1.239.25A2.579,2.579,0,0,0,836.687,2030.58Zm-0.837-4.67a3.3,3.3,0,0,1,.51,1.99,3.434,3.434,0,0,1-.51,2.01,1.619,1.619,0,0,1-1.41.73,1.857,1.857,0,0,1-1.566-.63,3.488,3.488,0,0,1-.488-2.1v-0.23a3.032,3.032,0,0,1,.488-1.88,1.873,1.873,0,0,1,1.54-.59A1.666,1.666,0,0,1,835.85,2025.91Zm5.41-1.23a3.144,3.144,0,0,0-.932,1.05h-0.05l-0.121-1.29h-0.868v6.96h1.052v-3.73a2.518,2.518,0,0,1,.6-1.71,1.847,1.847,0,0,1,1.442-.69,3.867,3.867,0,0,1,.761.1l0.146-.98a4.2,4.2,0,0,0-.831-0.07A2.131,2.131,0,0,0,841.26,2024.68Zm8.466,0.61a2.929,2.929,0,0,0-2.317-.97,3,3,0,0,0-2.358.94,3.856,3.856,0,0,0-.849,2.65,4.343,4.343,0,0,0,.393,1.92,2.855,2.855,0,0,0,1.115,1.26,3.148,3.148,0,0,0,1.655.44,3.005,3.005,0,0,0,2.364-.96,3.849,3.849,0,0,0,.856-2.66A3.8,3.8,0,0,0,849.726,2025.29Zm-3.908.6a1.858,1.858,0,0,1,1.559-.68,1.879,1.879,0,0,1,1.582.69,3.23,3.23,0,0,1,.535,2.01,3.287,3.287,0,0,1-.535,2.04,2.125,2.125,0,0,1-3.135,0,3.341,3.341,0,0,1-.532-2.04A3.263,3.263,0,0,1,845.818,2025.89Zm7.664,6.58v-8.03h-1.053v8.1a1.231,1.231,0,0,1-.231.82,0.9,0.9,0,0,1-.726.27,3.251,3.251,0,0,1-.862-0.12v0.85a2.45,2.45,0,0,0,.976.16,1.746,1.746,0,0,0,1.9-2.05h0Zm-0.964-9.38a0.656,0.656,0,0,0,.881,0,0.713,0.713,0,0,0,.184-0.53,0.683,0.683,0,0,0-.184-0.53,0.656,0.656,0,0,0-.881,0,0.7,0.7,0,0,0-.177.53A0.731,0.731,0,0,0,852.518,2023.09Zm7.331,8.33a5.583,5.583,0,0,0,1.055-.34v-0.94a5.641,5.641,0,0,1-2.218.47,2.152,2.152,0,0,1-1.652-.64,2.757,2.757,0,0,1-.618-1.86H861.2v-0.67a3.286,3.286,0,0,0-.76-2.26,2.6,2.6,0,0,0-2.067-.86,2.747,2.747,0,0,0-2.222.99,4.035,4.035,0,0,0-.827,2.67,3.653,3.653,0,0,0,.891,2.61,3.212,3.212,0,0,0,2.431.94A5.875,5.875,0,0,0,859.849,2031.42Zm-0.219-5.69a2.3,2.3,0,0,1,.444,1.52h-3.632a2.537,2.537,0,0,1,.586-1.51,1.727,1.727,0,0,1,1.334-.54A1.541,1.541,0,0,1,859.63,2025.73Zm7.9,5.43v-0.93a4.676,4.676,0,0,1-1.781.38,1.793,1.793,0,0,1-1.531-.69,3.229,3.229,0,0,1-.516-1.97q0-2.7,2.117-2.7a3.47,3.47,0,0,1,.729.09,5.158,5.158,0,0,1,.761.23l0.323-.89a3.521,3.521,0,0,0-.786-0.26,4.866,4.866,0,0,0-1-.1,3,3,0,0,0-2.393.95,3.934,3.934,0,0,0-.84,2.7,3.829,3.829,0,0,0,.828,2.63,2.962,2.962,0,0,0,2.336.93,3.677,3.677,0,0,0,1.755-.37h0Zm3.075-.84a1.4,1.4,0,0,1-.3-0.96v-4.1h2.016v-0.82h-2.016v-1.61H869.7l-0.443,1.49-1,.43v0.51h1v4.14a1.833,1.833,0,0,0,2.015,2.13,3.406,3.406,0,0,0,.6-0.06,1.918,1.918,0,0,0,.5-0.13v-0.81a3.8,3.8,0,0,1-.412.09,4.66,4.66,0,0,1-.539.04A1.051,1.051,0,0,1,870.6,2030.32Zm11.882,0.26a5.049,5.049,0,0,0,.013-5.32,2.564,2.564,0,0,0-2.133-.94,2.863,2.863,0,0,0-1.237.25,2.439,2.439,0,0,0-.944.82h-0.051l-0.146-.95h-0.855v10.08h1.052v-2.86a9.457,9.457,0,0,0-.076-1.16h0.076a2.354,2.354,0,0,0,.941.78,3.123,3.123,0,0,0,1.24.25A2.578,2.578,0,0,0,882.485,2030.58Zm-0.837-4.67a3.3,3.3,0,0,1,.51,1.99,3.434,3.434,0,0,1-.51,2.01,1.619,1.619,0,0,1-1.41.73,1.857,1.857,0,0,1-1.566-.63,3.488,3.488,0,0,1-.488-2.1v-0.23a3.032,3.032,0,0,1,.488-1.88,1.873,1.873,0,0,1,1.54-.59A1.666,1.666,0,0,1,881.648,2025.91Zm4.491-4.39h-1.052v9.88h1.052v-9.88Zm7.284,9.88v-4.75a2.312,2.312,0,0,0-.6-1.77,2.638,2.638,0,0,0-1.842-.55,4.675,4.675,0,0,0-1.226.16,4.962,4.962,0,0,0-1.126.43l0.324,0.81a4.649,4.649,0,0,1,1.965-.53,1.448,1.448,0,0,1,1.125.39,1.763,1.763,0,0,1,.352,1.21v0.43l-1.179.04c-2.244.06-3.366,0.8-3.366,2.21a1.93,1.93,0,0,0,.586,1.51,2.3,2.3,0,0,0,1.62.54,3.063,3.063,0,0,0,1.29-.24,2.822,2.822,0,0,0,1.036-.88h0.051l0.209,0.99h0.78Zm-4.124-1.04a1.091,1.091,0,0,1-.345-0.87,1.179,1.179,0,0,1,.554-1.08,3.837,3.837,0,0,1,1.81-.39l1.052-.04v0.63a2.008,2.008,0,0,1-.561,1.51,2.132,2.132,0,0,1-1.543.54A1.428,1.428,0,0,1,889.3,2030.36Zm12.1,1.04v-4.54a2.594,2.594,0,0,0-.634-1.94,2.654,2.654,0,0,0-1.889-.6,2.919,2.919,0,0,0-1.3.28,2.172,2.172,0,0,0-.906.79h-0.051l-0.171-.95H895.59v6.96h1.053v-3.65a2.973,2.973,0,0,1,.507-1.95,2.006,2.006,0,0,1,1.6-.59,1.573,1.573,0,0,1,1.211.42,1.814,1.814,0,0,1,.387,1.27v4.5H901.4Z" transform="translate(-695 -1759)"/>
  <path id="Corrective_actions" data-name="Corrective actions" class="cls-2" d="M819.483,1963.25l0.457-.93a5.679,5.679,0,0,0-2.549-.53,4.669,4.669,0,0,0-2.38.58,3.848,3.848,0,0,0-1.547,1.66,5.607,5.607,0,0,0-.535,2.52,5.13,5.13,0,0,0,1.112,3.53,4.021,4.021,0,0,0,3.16,1.25,6.589,6.589,0,0,0,2.377-.37v-0.94a8.4,8.4,0,0,1-2.212.35,3.009,3.009,0,0,1-2.431-1,4.187,4.187,0,0,1-.852-2.81,4.114,4.114,0,0,1,.884-2.79,3.025,3.025,0,0,1,2.412-1.02,4.912,4.912,0,0,1,2.1.5h0Zm7.1,1.84a2.929,2.929,0,0,0-2.317-.97,3,3,0,0,0-2.358.94,3.851,3.851,0,0,0-.85,2.65,4.357,4.357,0,0,0,.393,1.92,2.864,2.864,0,0,0,1.116,1.26,3.147,3.147,0,0,0,1.654.44,3.006,3.006,0,0,0,2.365-.96,3.848,3.848,0,0,0,.855-2.66A3.8,3.8,0,0,0,826.58,1965.09Zm-3.908.6a1.857,1.857,0,0,1,1.559-.68,1.882,1.882,0,0,1,1.582.69,3.23,3.23,0,0,1,.535,2.01,3.287,3.287,0,0,1-.535,2.04,2.125,2.125,0,0,1-3.135,0,3.341,3.341,0,0,1-.532-2.04A3.263,3.263,0,0,1,822.672,1965.69Zm8.582-1.21a3.131,3.131,0,0,0-.931,1.05h-0.051l-0.121-1.29h-0.868v6.96h1.052v-3.73a2.518,2.518,0,0,1,.6-1.71,1.847,1.847,0,0,1,1.442-.69,3.858,3.858,0,0,1,.761.1l0.146-.98a4.2,4.2,0,0,0-.831-0.07A2.131,2.131,0,0,0,831.254,1964.48Zm5.3,0a3.133,3.133,0,0,0-.932,1.05h-0.051l-0.12-1.29h-0.869v6.96h1.053v-3.73a2.513,2.513,0,0,1,.6-1.71,1.845,1.845,0,0,1,1.442-.69,3.858,3.858,0,0,1,.76.1l0.146-.98a4.2,4.2,0,0,0-.83-0.07A2.126,2.126,0,0,0,836.554,1964.48Zm7.464,6.74a5.606,5.606,0,0,0,1.055-.34v-0.94a5.645,5.645,0,0,1-2.218.47,2.152,2.152,0,0,1-1.652-.64,2.747,2.747,0,0,1-.618-1.86h4.786v-0.67a3.286,3.286,0,0,0-.761-2.26,2.6,2.6,0,0,0-2.066-.86,2.747,2.747,0,0,0-2.222.99,4.035,4.035,0,0,0-.827,2.67,3.653,3.653,0,0,0,.891,2.61,3.211,3.211,0,0,0,2.43.94A5.878,5.878,0,0,0,844.018,1971.22Zm-0.219-5.69a2.3,2.3,0,0,1,.444,1.52h-3.632a2.537,2.537,0,0,1,.586-1.51,1.726,1.726,0,0,1,1.334-.54A1.541,1.541,0,0,1,843.8,1965.53Zm7.9,5.43v-0.93a4.676,4.676,0,0,1-1.781.38,1.793,1.793,0,0,1-1.531-.69,3.229,3.229,0,0,1-.516-1.97q0-2.7,2.117-2.7a3.47,3.47,0,0,1,.729.09,5.144,5.144,0,0,1,.76.23l0.324-.89a3.557,3.557,0,0,0-.786-0.26,4.866,4.866,0,0,0-1-.1,3,3,0,0,0-2.393.95,3.934,3.934,0,0,0-.84,2.7,3.834,3.834,0,0,0,.827,2.63,2.965,2.965,0,0,0,2.336.93,3.682,3.682,0,0,0,1.756-.37h0Zm3.075-.84a1.4,1.4,0,0,1-.3-0.96v-4.1h2.015v-0.82h-2.015v-1.61h-0.609l-0.444,1.49-1,.43v0.51h1v4.14a1.834,1.834,0,0,0,2.016,2.13,3.406,3.406,0,0,0,.6-0.06,1.918,1.918,0,0,0,.5-0.13v-0.81a3.8,3.8,0,0,1-.412.09,4.66,4.66,0,0,1-.539.04A1.051,1.051,0,0,1,854.772,1970.12Zm4.208-5.88h-1.052v6.96h1.052v-6.96Zm-0.963-1.35a0.63,0.63,0,0,0,.444.17,0.637,0.637,0,0,0,.437-0.17,0.713,0.713,0,0,0,.184-0.53,0.683,0.683,0,0,0-.184-0.53,0.637,0.637,0,0,0-.437-0.17,0.63,0.63,0,0,0-.444.17,0.7,0.7,0,0,0-.177.53A0.731,0.731,0,0,0,858.017,1962.89Zm5.946,8.31,2.637-6.96h-1.129q-1.293,3.555-1.663,4.61a13.792,13.792,0,0,0-.441,1.4h-0.051a18.894,18.894,0,0,0-.6-1.88l-1.5-4.13H860.1l2.637,6.96h1.23Zm7.889,0.02a5.606,5.606,0,0,0,1.055-.34v-0.94a5.646,5.646,0,0,1-2.219.47,2.15,2.15,0,0,1-1.651-.64,2.747,2.747,0,0,1-.618-1.86h4.786v-0.67a3.286,3.286,0,0,0-.761-2.26,2.6,2.6,0,0,0-2.066-.86,2.746,2.746,0,0,0-2.222.99,4.03,4.03,0,0,0-.827,2.67,3.657,3.657,0,0,0,.89,2.61,3.213,3.213,0,0,0,2.431.94A5.885,5.885,0,0,0,871.852,1971.22Zm-0.219-5.69a2.3,2.3,0,0,1,.444,1.52h-3.633a2.544,2.544,0,0,1,.587-1.51,1.724,1.724,0,0,1,1.334-.54A1.542,1.542,0,0,1,871.633,1965.53Zm11.79,5.67v-4.75a2.312,2.312,0,0,0-.6-1.77,2.634,2.634,0,0,0-1.841-.55,4.688,4.688,0,0,0-1.227.16,4.935,4.935,0,0,0-1.125.43l0.323,0.81a4.649,4.649,0,0,1,1.965-.53,1.445,1.445,0,0,1,1.125.39,1.758,1.758,0,0,1,.352,1.21v0.43l-1.179.04c-2.244.06-3.366,0.8-3.366,2.21a1.931,1.931,0,0,0,.587,1.51,2.3,2.3,0,0,0,1.619.54,3.057,3.057,0,0,0,1.29-.24,2.814,2.814,0,0,0,1.036-.88h0.051l0.209,0.99h0.78Zm-4.123-1.04a1.088,1.088,0,0,1-.346-0.87,1.18,1.18,0,0,1,.555-1.08,3.837,3.837,0,0,1,1.81-.39l1.052-.04v0.63a2.008,2.008,0,0,1-.561,1.51,2.134,2.134,0,0,1-1.544.54A1.425,1.425,0,0,1,879.3,1970.16Zm10.823,0.8v-0.93a4.676,4.676,0,0,1-1.781.38,1.793,1.793,0,0,1-1.531-.69,3.229,3.229,0,0,1-.516-1.97q0-2.7,2.117-2.7a3.47,3.47,0,0,1,.729.09,5.144,5.144,0,0,1,.76.23l0.324-.89a3.557,3.557,0,0,0-.786-0.26,4.866,4.866,0,0,0-1-.1,3,3,0,0,0-2.393.95,3.934,3.934,0,0,0-.84,2.7,3.834,3.834,0,0,0,.827,2.63,2.965,2.965,0,0,0,2.336.93,3.682,3.682,0,0,0,1.756-.37h0Zm3.075-.84a1.4,1.4,0,0,1-.3-0.96v-4.1h2.015v-0.82H892.9v-1.61h-0.609l-0.444,1.49-1,.43v0.51h1v4.14a1.834,1.834,0,0,0,2.016,2.13,3.406,3.406,0,0,0,.6-0.06,1.918,1.918,0,0,0,.5-0.13v-0.81a3.8,3.8,0,0,1-.412.09,4.66,4.66,0,0,1-.539.04A1.051,1.051,0,0,1,893.2,1970.12Zm4.209-5.88h-1.053v6.96h1.053v-6.96Zm-0.964-1.35a0.63,0.63,0,0,0,.444.17,0.637,0.637,0,0,0,.437-0.17,0.713,0.713,0,0,0,.184-0.53,0.683,0.683,0,0,0-.184-0.53,0.637,0.637,0,0,0-.437-0.17,0.63,0.63,0,0,0-.444.17,0.7,0.7,0,0,0-.177.53A0.731,0.731,0,0,0,896.443,1962.89Zm8.332,2.2a2.927,2.927,0,0,0-2.316-.97,3,3,0,0,0-2.358.94,3.851,3.851,0,0,0-.85,2.65,4.357,4.357,0,0,0,.393,1.92,2.864,2.864,0,0,0,1.116,1.26,3.147,3.147,0,0,0,1.654.44,3.006,3.006,0,0,0,2.365-.96,3.848,3.848,0,0,0,.855-2.66A3.8,3.8,0,0,0,904.775,1965.09Zm-3.907.6a1.857,1.857,0,0,1,1.559-.68,1.879,1.879,0,0,1,1.581.69,3.229,3.229,0,0,1,.536,2.01,3.286,3.286,0,0,1-.536,2.04,2.124,2.124,0,0,1-3.134,0,3.34,3.34,0,0,1-.533-2.04A3.263,3.263,0,0,1,900.868,1965.69Zm12.417,5.51v-4.54a2.589,2.589,0,0,0-.634-1.94,2.653,2.653,0,0,0-1.889-.6,2.918,2.918,0,0,0-1.3.28,2.16,2.16,0,0,0-.906.79h-0.051l-0.171-.95h-0.856v6.96h1.052v-3.65a2.973,2.973,0,0,1,.507-1.95,2.008,2.008,0,0,1,1.6-.59,1.569,1.569,0,0,1,1.21.42,1.814,1.814,0,0,1,.387,1.27v4.5h1.052Zm6.209-3.05a4.756,4.756,0,0,0-1.67-.91,9.489,9.489,0,0,1-1.217-.51,1.431,1.431,0,0,1-.46-0.37,0.791,0.791,0,0,1-.142-0.48,0.739,0.739,0,0,1,.38-0.65,2.253,2.253,0,0,1,1.128-.23,4.984,4.984,0,0,1,1.9.43l0.374-.86a5.62,5.62,0,0,0-2.194-.45,3.2,3.2,0,0,0-1.9.49,1.555,1.555,0,0,0-.691,1.34,1.6,1.6,0,0,0,.2.82,1.868,1.868,0,0,0,.608.61,7.37,7.37,0,0,0,1.379.63,5.48,5.48,0,0,1,1.372.69,0.9,0.9,0,0,1-.092,1.49,2.451,2.451,0,0,1-1.267.27,4.365,4.365,0,0,1-1.106-.15,5.318,5.318,0,0,1-1.075-.4v0.98a4.427,4.427,0,0,0,2.155.44,3.4,3.4,0,0,0,2.029-.53,1.741,1.741,0,0,0,.722-1.5A1.613,1.613,0,0,0,919.494,1968.15Z" transform="translate(-695 -1759)"/>
  <g style="fill: #f2f2f2; filter: url(#filter-2)">
    <rect id="bg_copy_4" data-name="bg copy 4" class="cls-3" x="117.875" y="131" width="106.875" height="59" style="stroke: inherit; filter: none; fill: inherit"/>
  </g>
  <use xlink:href="#bg_copy_4" style="stroke: #01a9da; filter: none; fill: none"/>
  <path id="Monitor_project_plan" data-name="Monitor project plan" class="cls-4" d="M847.7,1907.2l2.783-7.74h0.051q-0.025.24-.06,1.35t-0.035,1.8v4.59h1.458v-9.28h-2.143l-2.649,7.38h-0.039l-2.573-7.38h-2.136v9.28h1.375v-4.51q0-1.515-.107-3.24h0.05l2.688,7.75H847.7Zm11.81-6.17a3.1,3.1,0,0,0-2.409-.98,3.167,3.167,0,0,0-2.466.96,3.82,3.82,0,0,0-.875,2.67,4.368,4.368,0,0,0,.406,1.93,2.9,2.9,0,0,0,1.16,1.27,3.325,3.325,0,0,0,1.737.45,3.168,3.168,0,0,0,2.453-.97A4.459,4.459,0,0,0,859.507,1901.03Zm-3.794.86a1.533,1.533,0,0,1,1.36-.62c1.191,0,1.787.8,1.787,2.41s-0.592,2.43-1.775,2.43-1.794-.81-1.794-2.43A3.191,3.191,0,0,1,855.713,1901.89Zm12.56,0.73a2.252,2.252,0,0,0-2.523-2.57,3.042,3.042,0,0,0-1.293.27,2.166,2.166,0,0,0-.9.78h-0.076l-0.209-.92h-1.166v7.02H863.6v-3.5a3.082,3.082,0,0,1,.438-1.87,1.653,1.653,0,0,1,1.381-.56,1.252,1.252,0,0,1,1.037.4,1.9,1.9,0,0,1,.326,1.21v4.32h1.5v-4.58Zm3.563-2.44h-1.49v7.02h1.49v-7.02Zm-1.36-1.26a0.87,0.87,0,0,0,.624.22,0.853,0.853,0,0,0,.612-0.22,0.823,0.823,0,0,0,.219-0.6,0.749,0.749,0,0,0-.831-0.83,0.866,0.866,0,0,0-.624.21,0.841,0.841,0,0,0-.219.62A0.823,0.823,0,0,0,870.476,1898.92Zm5.394,6.94a1.038,1.038,0,0,1-.269-0.79v-3.76h2v-1.13h-2v-1.56h-0.919l-0.507,1.48-1.027.55v0.66h0.957v3.78a1.929,1.929,0,0,0,2.117,2.24,4.265,4.265,0,0,0,.808-0.08,3.2,3.2,0,0,0,.637-0.18v-1.12a3.752,3.752,0,0,1-1.09.17A0.991,0.991,0,0,1,875.87,1905.86Zm8.529-4.83a3.1,3.1,0,0,0-2.409-.98,3.166,3.166,0,0,0-2.465.96,3.815,3.815,0,0,0-.875,2.67,4.368,4.368,0,0,0,.406,1.93,2.9,2.9,0,0,0,1.16,1.27,3.319,3.319,0,0,0,1.736.45,3.172,3.172,0,0,0,2.454-.97A4.457,4.457,0,0,0,884.4,1901.03Zm-3.794.86a1.534,1.534,0,0,1,1.36-.62c1.192,0,1.788.8,1.788,2.41s-0.592,2.43-1.775,2.43-1.794-.81-1.794-2.43A3.192,3.192,0,0,1,880.605,1901.89Zm8.742-1.47a2.817,2.817,0,0,0-.91,1h-0.076l-0.2-1.24H887v7.02h1.49v-3.67a2.127,2.127,0,0,1,.554-1.52,1.9,1.9,0,0,1,1.449-.58,2.4,2.4,0,0,1,.659.08l0.146-1.39a3.085,3.085,0,0,0-.742-0.07A2.125,2.125,0,0,0,889.347,1900.42Zm-38.461,21.54a5.229,5.229,0,0,0,.012-5.36,2.442,2.442,0,0,0-2.044-.95,2.338,2.338,0,0,0-2.092,1.07h-0.076c-0.105-.5-0.175-0.81-0.209-0.94h-1.2v10.14h1.489v-2.87q0-.195-0.088-1.08h0.088A2.686,2.686,0,0,0,850.886,1921.96Zm-1.2-4.48a3.155,3.155,0,0,1,.415,1.78,3.261,3.261,0,0,1-.418,1.81,1.336,1.336,0,0,1-1.192.64,1.494,1.494,0,0,1-1.325-.58,3.27,3.27,0,0,1-.406-1.85v-0.23a2.7,2.7,0,0,1,.409-1.66,1.54,1.54,0,0,1,1.3-.52A1.375,1.375,0,0,1,849.688,1917.48Zm6.022-1.46a2.817,2.817,0,0,0-.91,1h-0.076l-0.2-1.24h-1.166v7.02h1.49v-3.67a2.127,2.127,0,0,1,.554-1.52,1.9,1.9,0,0,1,1.449-.58,2.4,2.4,0,0,1,.659.08l0.146-1.39a3.085,3.085,0,0,0-.742-0.07A2.125,2.125,0,0,0,855.71,1916.02Zm8.579,0.61a3.1,3.1,0,0,0-2.408-.98,3.167,3.167,0,0,0-2.466.96,3.82,3.82,0,0,0-.875,2.67,4.368,4.368,0,0,0,.406,1.93,2.9,2.9,0,0,0,1.16,1.27,3.319,3.319,0,0,0,1.736.45,3.172,3.172,0,0,0,2.454-.97A4.457,4.457,0,0,0,864.289,1916.63Zm-3.794.86a1.534,1.534,0,0,1,1.36-.62c1.192,0,1.788.8,1.788,2.41s-0.592,2.43-1.775,2.43-1.794-.81-1.794-2.43A3.192,3.192,0,0,1,860.5,1917.49Zm7.315,7.87a2.2,2.2,0,0,0,.568-1.64v-7.94h-1.49v7.84a0.9,0.9,0,0,1-.951,1.08,3.273,3.273,0,0,1-.881-0.12v1.18a3.246,3.246,0,0,0,1.116.16A2.207,2.207,0,0,0,867.81,1925.36Zm-0.792-10.84a0.871,0.871,0,0,0,.625.22,0.852,0.852,0,0,0,.611-0.22,0.823,0.823,0,0,0,.219-0.6,0.749,0.749,0,0,0-.83-0.83,0.867,0.867,0,0,0-.625.21,0.841,0.841,0,0,0-.219.62A0.823,0.823,0,0,0,867.018,1914.52Zm7.825,8.3a4.637,4.637,0,0,0,1.1-.37v-1.21a6.326,6.326,0,0,1-1.15.39,5.289,5.289,0,0,1-1.157.12,1.94,1.94,0,0,1-1.464-.55,2.312,2.312,0,0,1-.552-1.57H876.3v-0.81a3.208,3.208,0,0,0-.8-2.32,2.865,2.865,0,0,0-2.193-.85,2.946,2.946,0,0,0-2.352.99,3.958,3.958,0,0,0-.856,2.7,3.627,3.627,0,0,0,.923,2.63,3.377,3.377,0,0,0,2.557.96A6.9,6.9,0,0,0,874.843,1922.82Zm-0.431-5.59a1.956,1.956,0,0,1,.419,1.32h-3.182a2.157,2.157,0,0,1,.51-1.32,1.5,1.5,0,0,1,1.138-.45A1.424,1.424,0,0,1,874.412,1917.23Zm7.5,5.59a2.644,2.644,0,0,0,.853-0.33v-1.3a3.8,3.8,0,0,1-1.883.49,1.581,1.581,0,0,1-1.328-.59,2.923,2.923,0,0,1-.453-1.78c0-1.61.606-2.41,1.819-2.41a4.6,4.6,0,0,1,1.56.36l0.45-1.2a4.758,4.758,0,0,0-2-.41,3.224,3.224,0,0,0-2.5.95,3.943,3.943,0,0,0-.865,2.73,3.893,3.893,0,0,0,.827,2.67,3.069,3.069,0,0,0,2.419.93A4.911,4.911,0,0,0,881.914,1922.82Zm4.406-1.36a1.035,1.035,0,0,1-.27-0.79v-3.76h2v-1.13h-2v-1.56h-0.919l-0.507,1.48-1.027.55v0.66h0.958v3.78a1.928,1.928,0,0,0,2.117,2.24,4.265,4.265,0,0,0,.808-0.08,3.218,3.218,0,0,0,.637-0.18v-1.12a3.758,3.758,0,0,1-1.09.17A0.988,0.988,0,0,1,886.32,1921.46Zm-27.051,16.1a5.232,5.232,0,0,0,.013-5.36,2.444,2.444,0,0,0-2.045-.95,2.336,2.336,0,0,0-2.091,1.07h-0.077c-0.1-.5-0.175-0.81-0.209-0.94h-1.2v10.14h1.49v-2.87q0-.2-0.089-1.08h0.089A2.684,2.684,0,0,0,859.269,1937.56Zm-1.2-4.48a3.147,3.147,0,0,1,.415,1.78,3.261,3.261,0,0,1-.418,1.81,1.335,1.335,0,0,1-1.192.64,1.5,1.5,0,0,1-1.325-.58,3.271,3.271,0,0,1-.405-1.85v-0.23a2.7,2.7,0,0,1,.408-1.66,1.54,1.54,0,0,1,1.3-.52A1.375,1.375,0,0,1,858.071,1933.08Zm5.163-4.56h-1.49v9.88h1.49v-9.88Zm7.581,9.88v-4.73a2.285,2.285,0,0,0-.681-1.83,3.029,3.029,0,0,0-2.019-.59,5.408,5.408,0,0,0-1.281.16,4.971,4.971,0,0,0-1.248.45l0.481,1.07a7.6,7.6,0,0,1,.951-0.38,3.546,3.546,0,0,1,1.033-.16,1.288,1.288,0,0,1,.973.34,1.411,1.411,0,0,1,.314,1v0.38l-1.211.04a4.589,4.589,0,0,0-2.453.6,1.857,1.857,0,0,0-.8,1.64,2.091,2.091,0,0,0,.58,1.58,2.243,2.243,0,0,0,1.614.56,3.124,3.124,0,0,0,1.318-.24,2.8,2.8,0,0,0,1.021-.87h0.05l0.3,0.98h1.065Zm-4.12-1.27a0.949,0.949,0,0,1-.279-0.73,1.069,1.069,0,0,1,.479-0.96,3.014,3.014,0,0,1,1.53-.35l0.9-.04v0.61a1.643,1.643,0,0,1-.491,1.27,1.852,1.852,0,0,1-1.3.45A1.2,1.2,0,0,1,866.7,1937.13Zm12.367-3.31a2.252,2.252,0,0,0-2.523-2.57,3.042,3.042,0,0,0-1.293.27,2.166,2.166,0,0,0-.9.78H874.27l-0.209-.92h-1.167v7.02h1.49v-3.5a3.09,3.09,0,0,1,.437-1.87,1.655,1.655,0,0,1,1.382-.56,1.253,1.253,0,0,1,1.037.4,1.9,1.9,0,0,1,.326,1.21v4.32h1.5v-4.58Z" transform="translate(-695 -1759)"/>
  <rect id="bg_copy_3" data-name="bg copy 3" class="cls-5" x="117.875" y="63" width="106.875" height="59"/>
  <path id="Manage_communications" data-name="Manage communications" class="cls-2" d="M849.486,1848l3.047-7.9h0.049c-0.057.78-.085,1.49-0.085,2.15V1848h1.036v-8.92h-1.548l-2.846,7.36H849.09l-2.822-7.36h-1.561V1848h0.957v-5.68c0-.86-0.028-1.6-0.085-2.23h0.049l3.023,7.91h0.835Zm11.2,0v-4.57a2.222,2.222,0,0,0-.576-1.7,2.564,2.564,0,0,0-1.771-.53,4.753,4.753,0,0,0-1.179.15,5.689,5.689,0,0,0-1.082.42l0.311,0.78a4.415,4.415,0,0,1,1.889-.51,1.39,1.39,0,0,1,1.082.37,1.7,1.7,0,0,1,.338,1.16v0.42l-1.134.04c-2.157.06-3.236,0.77-3.236,2.12a1.872,1.872,0,0,0,.564,1.46,2.237,2.237,0,0,0,1.557.51,3.009,3.009,0,0,0,1.24-.22,2.8,2.8,0,0,0,1-.85h0.049l0.2,0.95h0.75Zm-3.965-1a1.044,1.044,0,0,1-.332-0.84,1.12,1.12,0,0,1,.533-1.03,3.7,3.7,0,0,1,1.74-.38l1.012-.04v0.6a1.932,1.932,0,0,1-.54,1.46,2.076,2.076,0,0,1-1.484.52A1.383,1.383,0,0,1,856.718,1847Zm11.632,1v-4.36a2.492,2.492,0,0,0-.609-1.87,2.53,2.53,0,0,0-1.817-.58,2.842,2.842,0,0,0-1.249.27,2.064,2.064,0,0,0-.872.77h-0.049l-0.164-.92h-0.823V1848h1.012v-3.51a2.862,2.862,0,0,1,.487-1.87,1.914,1.914,0,0,1,1.536-.57,1.508,1.508,0,0,1,1.165.4,1.761,1.761,0,0,1,.371,1.22V1848h1.012Zm6.936,0v-4.57a2.222,2.222,0,0,0-.576-1.7,2.561,2.561,0,0,0-1.77-.53,4.755,4.755,0,0,0-1.18.15,5.741,5.741,0,0,0-1.082.42l0.311,0.78a4.423,4.423,0,0,1,1.89-.51,1.392,1.392,0,0,1,1.082.37,1.7,1.7,0,0,1,.338,1.16v0.42l-1.134.04c-2.157.06-3.236,0.77-3.236,2.12a1.872,1.872,0,0,0,.564,1.46,2.233,2.233,0,0,0,1.557.51,3.012,3.012,0,0,0,1.24-.22,2.821,2.821,0,0,0,1-.85h0.048l0.2,0.95h0.749Zm-3.965-1a1.047,1.047,0,0,1-.332-0.84,1.12,1.12,0,0,1,.534-1.03,3.7,3.7,0,0,1,1.74-.38l1.011-.04v0.6a1.931,1.931,0,0,1-.539,1.46,2.078,2.078,0,0,1-1.484.52A1.388,1.388,0,0,1,871.321,1847Zm9.207-5.69a3.439,3.439,0,0,0-.945-0.12,2.718,2.718,0,0,0-1.865.59,2.173,2.173,0,0,0-.658,1.7,2.128,2.128,0,0,0,.326,1.17,1.867,1.867,0,0,0,.844.73,1.948,1.948,0,0,0-.615.53,1.05,1.05,0,0,0-.2.64,0.935,0.935,0,0,0,.173.56,1.049,1.049,0,0,0,.43.37,1.93,1.93,0,0,0-1.1.6,1.66,1.66,0,0,0,.32,2.43,3.506,3.506,0,0,0,2.02.49,4.75,4.75,0,0,0,2.6-.58,1.9,1.9,0,0,0,.89-1.69,1.574,1.574,0,0,0-.582-1.33,2.616,2.616,0,0,0-1.667-.46h-1.183a1.748,1.748,0,0,1-.774-0.13,0.45,0.45,0,0,1-.225-0.41,1,1,0,0,1,.646-0.86,3.285,3.285,0,0,0,.56.05,2.706,2.706,0,0,0,1.841-.59,1.974,1.974,0,0,0,.671-1.57,2.2,2.2,0,0,0-.439-1.33l1.237-.15v-0.64h-2.31Zm-2.633,6.87a1.594,1.594,0,0,1,1.073-.33h1.213a2.6,2.6,0,0,1,1.261.21,0.813,0.813,0,0,1,.335.75,1.178,1.178,0,0,1-.612,1.04,3.7,3.7,0,0,1-1.886.38,2.6,2.6,0,0,1-1.311-.28,0.912,0.912,0,0,1-.457-0.83A1.167,1.167,0,0,1,877.9,1848.18Zm0.548-5.87a1.509,1.509,0,0,1,1.1-.38,1.326,1.326,0,0,1,1.5,1.5,1.3,1.3,0,0,1-1.481,1.45,1.537,1.537,0,0,1-1.1-.37,1.353,1.353,0,0,1-.4-1.06A1.559,1.559,0,0,1,878.443,1842.31Zm9.743,5.71a5.9,5.9,0,0,0,1.015-.33v-0.9a5.391,5.391,0,0,1-2.133.45,2.079,2.079,0,0,1-1.588-.61,2.672,2.672,0,0,1-.594-1.79h4.6v-0.64a3.152,3.152,0,0,0-.732-2.18,2.491,2.491,0,0,0-1.987-.83,2.652,2.652,0,0,0-2.136.95,3.891,3.891,0,0,0-.8,2.57,3.5,3.5,0,0,0,.856,2.51,3.073,3.073,0,0,0,2.337.9A5.5,5.5,0,0,0,888.186,1848.02Zm-0.21-5.47a2.226,2.226,0,0,1,.427,1.46H884.91a2.436,2.436,0,0,1,.564-1.45,1.648,1.648,0,0,1,1.283-.52A1.5,1.5,0,0,1,887.976,1842.55Zm-64.129,20.22v-0.89a4.5,4.5,0,0,1-1.713.36,1.728,1.728,0,0,1-1.472-.66,3.1,3.1,0,0,1-.5-1.89c0-1.74.678-2.6,2.035-2.6a3.86,3.86,0,0,1,.7.08,4.836,4.836,0,0,1,.732.23l0.311-.86a2.918,2.918,0,0,0-.756-0.25,4.5,4.5,0,0,0-.963-0.1,2.9,2.9,0,0,0-2.3.91,3.807,3.807,0,0,0-.808,2.6,3.685,3.685,0,0,0,.8,2.53,2.867,2.867,0,0,0,2.246.89,3.547,3.547,0,0,0,1.688-.35h0Zm6.525-5.65a2.83,2.83,0,0,0-2.228-.93,2.878,2.878,0,0,0-2.267.91,3.694,3.694,0,0,0-.817,2.55,4.2,4.2,0,0,0,.378,1.84,2.746,2.746,0,0,0,1.073,1.21,3.012,3.012,0,0,0,1.59.42,2.874,2.874,0,0,0,2.274-.92A4.325,4.325,0,0,0,830.372,1857.12Zm-3.758.58a2.068,2.068,0,0,1,3.02.01,3.112,3.112,0,0,1,.515,1.94,3.176,3.176,0,0,1-.515,1.96,1.8,1.8,0,0,1-1.508.66,1.77,1.77,0,0,1-1.506-.67A3.99,3.99,0,0,1,826.614,1857.7ZM842.5,1863v-4.36a2.617,2.617,0,0,0-.564-1.87,2.254,2.254,0,0,0-1.7-.58,2.716,2.716,0,0,0-1.292.3,2.174,2.174,0,0,0-.866.83H838.03a1.99,1.99,0,0,0-2.048-1.13,2.5,2.5,0,0,0-1.167.27,2.017,2.017,0,0,0-.807.77h-0.049l-0.165-.92h-0.823V1863h1.012v-3.51a3.079,3.079,0,0,1,.442-1.87,1.653,1.653,0,0,1,1.393-.57,1.315,1.315,0,0,1,1.066.4,1.819,1.819,0,0,1,.342,1.2V1863h1.011v-3.74a2.576,2.576,0,0,1,.452-1.67,1.713,1.713,0,0,1,1.395-.54,1.309,1.309,0,0,1,1.061.4,1.825,1.825,0,0,1,.341,1.2V1863H842.5Zm11.611,0v-4.36a2.617,2.617,0,0,0-.564-1.87,2.254,2.254,0,0,0-1.7-.58,2.716,2.716,0,0,0-1.292.3,2.174,2.174,0,0,0-.866.83h-0.049a1.99,1.99,0,0,0-2.048-1.13,2.5,2.5,0,0,0-1.167.27,2.023,2.023,0,0,0-.807.77H845.57l-0.165-.92h-0.823V1863h1.012v-3.51a3.079,3.079,0,0,1,.442-1.87,1.653,1.653,0,0,1,1.393-.57,1.315,1.315,0,0,1,1.066.4,1.819,1.819,0,0,1,.342,1.2V1863h1.012v-3.74a2.576,2.576,0,0,1,.451-1.67,1.713,1.713,0,0,1,1.4-.54,1.309,1.309,0,0,1,1.061.4,1.825,1.825,0,0,1,.341,1.2V1863h1.012Zm2.011-6.69v4.38a2.445,2.445,0,0,0,.607,1.85,2.534,2.534,0,0,0,1.825.58,2.968,2.968,0,0,0,1.259-.26,2.051,2.051,0,0,0,.862-0.76h0.055l0.146,0.9h0.835v-6.69H860.7v3.52a2.893,2.893,0,0,1-.485,1.87,1.9,1.9,0,0,1-1.533.57,1.507,1.507,0,0,1-1.164-.4,1.739,1.739,0,0,1-.372-1.22v-4.34H856.12Zm13.318,6.69v-4.36a2.488,2.488,0,0,0-.61-1.87,2.526,2.526,0,0,0-1.816-.58,2.839,2.839,0,0,0-1.249.27,2.064,2.064,0,0,0-.872.77h-0.049l-0.164-.92h-0.823V1863h1.012v-3.51a2.862,2.862,0,0,1,.487-1.87,1.914,1.914,0,0,1,1.536-.57,1.507,1.507,0,0,1,1.164.4,1.756,1.756,0,0,1,.372,1.22V1863h1.012Zm3.09-6.69h-1.012V1863h1.012v-6.69Zm-0.926-1.3a0.592,0.592,0,0,0,.426.17,0.6,0.6,0,0,0,.421-0.17,0.823,0.823,0,0,0,0-1.02,0.591,0.591,0,0,0-.421-0.16,0.584,0.584,0,0,0-.426.16A0.846,0.846,0,0,0,871.6,1855.01Zm7.43,7.76v-0.89a4.5,4.5,0,0,1-1.713.36,1.726,1.726,0,0,1-1.472-.66,3.1,3.1,0,0,1-.5-1.89c0-1.74.679-2.6,2.036-2.6a3.869,3.869,0,0,1,.7.08,4.787,4.787,0,0,1,.731.23l0.311-.86a2.918,2.918,0,0,0-.756-0.25,4.5,4.5,0,0,0-.963-0.1,2.906,2.906,0,0,0-2.3.91,3.811,3.811,0,0,0-.807,2.6,3.69,3.69,0,0,0,.795,2.53,2.867,2.867,0,0,0,2.246.89,3.548,3.548,0,0,0,1.689-.35h0Zm6.442,0.23v-4.57a2.222,2.222,0,0,0-.576-1.7,2.562,2.562,0,0,0-1.771-.53,4.753,4.753,0,0,0-1.179.15,5.715,5.715,0,0,0-1.082.42l0.311,0.78a4.422,4.422,0,0,1,1.889-.51,1.389,1.389,0,0,1,1.082.37,1.7,1.7,0,0,1,.339,1.16v0.42l-1.134.04c-2.158.06-3.237,0.77-3.237,2.12a1.872,1.872,0,0,0,.564,1.46,2.238,2.238,0,0,0,1.558.51,3.012,3.012,0,0,0,1.24-.22,2.811,2.811,0,0,0,1-.85h0.049l0.2,0.95h0.75Zm-3.965-1a1.047,1.047,0,0,1-.332-0.84,1.122,1.122,0,0,1,.533-1.03,3.71,3.71,0,0,1,1.74-.38l1.012-.04v0.6a1.935,1.935,0,0,1-.539,1.46,2.08,2.08,0,0,1-1.484.52A1.386,1.386,0,0,1,881.509,1862Zm7.421-.04a1.34,1.34,0,0,1-.287-0.93v-3.93h1.939v-0.79h-1.939v-1.55h-0.585l-0.426,1.43-0.957.42v0.49h0.957v3.98a1.759,1.759,0,0,0,1.938,2.04,4.235,4.235,0,0,0,.576-0.05,1.781,1.781,0,0,0,.484-0.13v-0.78a3.49,3.49,0,0,1-.4.09,4.3,4.3,0,0,1-.518.04A0.987,0.987,0,0,1,888.93,1861.96Zm4.047-5.65h-1.012V1863h1.012v-6.69Zm-0.926-1.3a0.592,0.592,0,0,0,.426.17,0.6,0.6,0,0,0,.421-0.17,0.827,0.827,0,0,0,0-1.02,0.591,0.591,0,0,0-.421-0.16,0.584,0.584,0,0,0-.426.16A0.846,0.846,0,0,0,892.051,1855.01Zm8.011,2.11a2.828,2.828,0,0,0-2.227-.93,2.882,2.882,0,0,0-2.268.91,3.7,3.7,0,0,0-.816,2.55,4.2,4.2,0,0,0,.378,1.84,2.744,2.744,0,0,0,1.072,1.21,3.015,3.015,0,0,0,1.591.42,2.87,2.87,0,0,0,2.273-.92A4.325,4.325,0,0,0,900.062,1857.12Zm-3.757.58a1.792,1.792,0,0,1,1.5-.65,1.811,1.811,0,0,1,1.521.66,3.118,3.118,0,0,1,.515,1.94,3.183,3.183,0,0,1-.515,1.96,1.8,1.8,0,0,1-1.509.66,1.768,1.768,0,0,1-1.5-.67A3.99,3.99,0,0,1,896.305,1857.7Zm11.94,5.3v-4.36a2.492,2.492,0,0,0-.609-1.87,2.53,2.53,0,0,0-1.817-.58,2.842,2.842,0,0,0-1.249.27,2.064,2.064,0,0,0-.872.77h-0.049l-0.164-.92h-0.823V1863h1.012v-3.51a2.862,2.862,0,0,1,.487-1.87,1.914,1.914,0,0,1,1.536-.57,1.506,1.506,0,0,1,1.164.4,1.756,1.756,0,0,1,.372,1.22V1863h1.012Zm5.97-2.93a4.435,4.435,0,0,0-1.606-.87,9.32,9.32,0,0,1-1.17-.5,1.261,1.261,0,0,1-.442-0.36,0.744,0.744,0,0,1-.137-0.45,0.7,0.7,0,0,1,.365-0.63,2.108,2.108,0,0,1,1.085-.22,4.954,4.954,0,0,1,1.823.41l0.359-.82a5.2,5.2,0,0,0-2.108-.44,3.132,3.132,0,0,0-1.823.47,1.511,1.511,0,0,0-.664,1.29,1.536,1.536,0,0,0,.192.79,1.785,1.785,0,0,0,.585.59,7.919,7.919,0,0,0,1.326.61,5.453,5.453,0,0,1,1.319.65,0.847,0.847,0,0,1,.338.67,0.832,0.832,0,0,1-.426.77,2.394,2.394,0,0,1-1.219.26,4.485,4.485,0,0,1-1.064-.14,5.6,5.6,0,0,1-1.033-.39v0.94a4.247,4.247,0,0,0,2.072.42,3.321,3.321,0,0,0,1.951-.5,1.682,1.682,0,0,0,.7-1.44A1.539,1.539,0,0,0,914.215,1860.07Z" transform="translate(-695 -1759)"/>
  <rect id="bg_copy_3-2" data-name="bg copy 3" class="cls-6" x="2" y="2" width="106.844" height="59"/>
  <path id="Execute_management_actions" data-name="Execute management actions" class="cls-2" d="M733.225,1779.23h-4.089v-3.41h3.842v-0.95h-3.842v-2.99h4.089v-0.96h-5.166v9.28h5.166v-0.97Zm1.027,0.97h1.191l1.966-2.82,1.946,2.82h1.191L738,1776.64l2.415-3.4h-1.185l-1.825,2.67-1.832-2.67h-1.2l2.415,3.4Zm11.806,0.02a5.583,5.583,0,0,0,1.055-.34v-0.94a5.641,5.641,0,0,1-2.218.47,2.152,2.152,0,0,1-1.652-.64,2.747,2.747,0,0,1-.618-1.86h4.786v-0.67a3.286,3.286,0,0,0-.76-2.26,2.6,2.6,0,0,0-2.067-.86,2.747,2.747,0,0,0-2.222.99,4.035,4.035,0,0,0-.827,2.67,3.653,3.653,0,0,0,.891,2.61,3.212,3.212,0,0,0,2.431.94A5.875,5.875,0,0,0,746.058,1780.22Zm-0.219-5.69a2.3,2.3,0,0,1,.444,1.52h-3.632a2.537,2.537,0,0,1,.586-1.51,1.727,1.727,0,0,1,1.334-.54A1.541,1.541,0,0,1,745.839,1774.53Zm7.9,5.43v-0.93a4.676,4.676,0,0,1-1.781.38,1.793,1.793,0,0,1-1.531-.69,3.229,3.229,0,0,1-.516-1.97q0-2.7,2.117-2.7a3.47,3.47,0,0,1,.729.09,5.2,5.2,0,0,1,.761.23l0.323-.89a3.521,3.521,0,0,0-.786-0.26,4.866,4.866,0,0,0-1-.1,3,3,0,0,0-2.393.95,3.934,3.934,0,0,0-.84,2.7,3.829,3.829,0,0,0,.828,2.63,2.962,2.962,0,0,0,2.336.93,3.68,3.68,0,0,0,1.755-.37h0Zm1.572-6.72v4.55a2.56,2.56,0,0,0,.631,1.93,2.62,2.62,0,0,0,1.9.61,2.9,2.9,0,0,0,1.309-.28,2.094,2.094,0,0,0,.9-0.78H760.1l0.152,0.93h0.868v-6.96H760.07v3.66a3.024,3.024,0,0,1-.5,1.95,1.965,1.965,0,0,1-1.594.59,1.607,1.607,0,0,1-1.211-.41,1.831,1.831,0,0,1-.387-1.27v-4.52h-1.065Zm9.471,5.88a1.4,1.4,0,0,1-.3-0.96v-4.1H766.5v-0.82h-2.015v-1.61h-0.609l-0.444,1.49-1,.43v0.51h1v4.14a1.834,1.834,0,0,0,2.016,2.13,3.406,3.406,0,0,0,.6-0.06,1.918,1.918,0,0,0,.5-0.13v-0.81a3.8,3.8,0,0,1-.412.09,4.66,4.66,0,0,1-.539.04A1.051,1.051,0,0,1,764.78,1779.12Zm7.292,1.1a5.591,5.591,0,0,0,1.056-.34v-0.94a5.646,5.646,0,0,1-2.219.47,2.15,2.15,0,0,1-1.651-.64,2.747,2.747,0,0,1-.618-1.86h4.786v-0.67a3.286,3.286,0,0,0-.761-2.26,2.6,2.6,0,0,0-2.066-.86,2.746,2.746,0,0,0-2.222.99,4.03,4.03,0,0,0-.827,2.67,3.657,3.657,0,0,0,.89,2.61,3.213,3.213,0,0,0,2.431.94A5.868,5.868,0,0,0,772.072,1780.22Zm-0.218-5.69a2.306,2.306,0,0,1,.443,1.52h-3.632a2.538,2.538,0,0,1,.587-1.51,1.724,1.724,0,0,1,1.334-.54A1.542,1.542,0,0,1,771.854,1774.53Zm-50.781,21.27v-4.54a2.724,2.724,0,0,0-.586-1.94,2.364,2.364,0,0,0-1.765-.6,2.805,2.805,0,0,0-1.344.31,2.183,2.183,0,0,0-.9.87h-0.051a2.06,2.06,0,0,0-2.13-1.18,2.567,2.567,0,0,0-1.214.28,2.121,2.121,0,0,0-.84.79h-0.05l-0.172-.95h-0.855v6.96h1.052v-3.65a3.238,3.238,0,0,1,.46-1.95,1.73,1.73,0,0,1,1.448-.59,1.371,1.371,0,0,1,1.109.42,1.852,1.852,0,0,1,.355,1.24v4.53h1.053v-3.89a2.65,2.65,0,0,1,.469-1.73,1.769,1.769,0,0,1,1.451-.57,1.365,1.365,0,0,1,1.1.42,1.852,1.852,0,0,1,.355,1.24v4.53h1.052Zm7.22,0v-4.75a2.309,2.309,0,0,0-.6-1.77,2.634,2.634,0,0,0-1.841-.55,4.688,4.688,0,0,0-1.227.16,4.935,4.935,0,0,0-1.125.43l0.323,0.81a4.649,4.649,0,0,1,1.965-.53,1.449,1.449,0,0,1,1.126.39,1.763,1.763,0,0,1,.351,1.21v0.43l-1.179.04c-2.244.06-3.366,0.8-3.366,2.21a1.931,1.931,0,0,0,.587,1.51,2.3,2.3,0,0,0,1.619.54,3.057,3.057,0,0,0,1.29-.24,2.817,2.817,0,0,0,1.037-.88h0.05l0.21,0.99h0.779Zm-4.123-1.04a1.088,1.088,0,0,1-.346-0.87,1.18,1.18,0,0,1,.555-1.08,3.837,3.837,0,0,1,1.81-.39l1.052-.04v0.63a2.008,2.008,0,0,1-.561,1.51,2.132,2.132,0,0,1-1.543.54A1.426,1.426,0,0,1,724.17,1794.76Zm12.1,1.04v-4.54a2.594,2.594,0,0,0-.634-1.94,2.656,2.656,0,0,0-1.889-.6,2.919,2.919,0,0,0-1.3.28,2.16,2.16,0,0,0-.906.79h-0.051l-0.171-.95h-0.856v6.96h1.052v-3.65a2.967,2.967,0,0,1,.508-1.95,2.006,2.006,0,0,1,1.6-.59,1.573,1.573,0,0,1,1.211.42,1.819,1.819,0,0,1,.386,1.27v4.5h1.053Zm7.213,0v-4.75a2.312,2.312,0,0,0-.6-1.77,2.634,2.634,0,0,0-1.841-.55,4.688,4.688,0,0,0-1.227.16,4.935,4.935,0,0,0-1.125.43l0.323,0.81a4.649,4.649,0,0,1,1.965-.53,1.445,1.445,0,0,1,1.125.39,1.758,1.758,0,0,1,.352,1.21v0.43l-1.179.04c-2.244.06-3.366,0.8-3.366,2.21a1.931,1.931,0,0,0,.587,1.51,2.3,2.3,0,0,0,1.619.54,3.057,3.057,0,0,0,1.29-.24,2.817,2.817,0,0,0,1.037-.88h0.05l0.209,0.99h0.78Zm-4.123-1.04a1.088,1.088,0,0,1-.346-0.87,1.18,1.18,0,0,1,.555-1.08,3.837,3.837,0,0,1,1.81-.39l1.052-.04v0.63a2.008,2.008,0,0,1-.561,1.51,2.134,2.134,0,0,1-1.544.54A1.425,1.425,0,0,1,739.358,1794.76Zm9.575-5.92a3.723,3.723,0,0,0-.983-0.12,2.8,2.8,0,0,0-1.94.61,2.272,2.272,0,0,0-.684,1.77,2.2,2.2,0,0,0,.339,1.21,1.874,1.874,0,0,0,.878.76,2.159,2.159,0,0,0-.64.55,1.113,1.113,0,0,0-.2.67,1,1,0,0,0,.18.59,1.088,1.088,0,0,0,.447.37,2.063,2.063,0,0,0-1.141.63,1.73,1.73,0,0,0,.333,2.53,3.672,3.672,0,0,0,2.1.51,4.99,4.99,0,0,0,2.7-.6,2,2,0,0,0,.925-1.77,1.659,1.659,0,0,0-.605-1.38,2.737,2.737,0,0,0-1.734-.48h-1.23a1.743,1.743,0,0,1-.805-0.13,0.451,0.451,0,0,1-.234-0.42,1.046,1.046,0,0,1,.672-0.9,2.718,2.718,0,0,0,.583.05,2.792,2.792,0,0,0,1.914-.61,2.048,2.048,0,0,0,.7-1.63,2.264,2.264,0,0,0-.457-1.39l1.287-.15v-0.67h-2.4Zm-2.739,7.14a1.651,1.651,0,0,1,1.116-.34h1.261a2.651,2.651,0,0,1,1.312.22,0.855,0.855,0,0,1,.349.78,1.208,1.208,0,0,1-.637,1.08,3.842,3.842,0,0,1-1.962.4,2.563,2.563,0,0,1-1.363-.3,0.935,0.935,0,0,1-.475-0.85A1.238,1.238,0,0,1,746.194,1795.98Zm0.571-6.1a1.569,1.569,0,0,1,1.141-.4,1.386,1.386,0,0,1,1.559,1.57,1.344,1.344,0,0,1-1.54,1.5,1.645,1.645,0,0,1-1.148-.38,1.391,1.391,0,0,1-.412-1.1A1.629,1.629,0,0,1,746.765,1789.88Zm10.132,5.94a5.591,5.591,0,0,0,1.056-.34v-0.94a5.646,5.646,0,0,1-2.219.47,2.15,2.15,0,0,1-1.651-.64,2.747,2.747,0,0,1-.618-1.86h4.786v-0.67a3.286,3.286,0,0,0-.761-2.26,2.6,2.6,0,0,0-2.067-.86,2.745,2.745,0,0,0-2.221.99,4.03,4.03,0,0,0-.827,2.67,3.652,3.652,0,0,0,.89,2.61,3.213,3.213,0,0,0,2.431.94A5.875,5.875,0,0,0,756.9,1795.82Zm-0.218-5.69a2.306,2.306,0,0,1,.443,1.52H753.49a2.544,2.544,0,0,1,.586-1.51,1.728,1.728,0,0,1,1.335-.54A1.542,1.542,0,0,1,756.679,1790.13Zm13.273,5.67v-4.54a2.724,2.724,0,0,0-.586-1.94,2.367,2.367,0,0,0-1.766-.6,2.8,2.8,0,0,0-1.343.31,2.186,2.186,0,0,0-.9.87h-0.05a2.06,2.06,0,0,0-2.13-1.18,2.564,2.564,0,0,0-1.214.28,2.121,2.121,0,0,0-.84.79h-0.051l-0.171-.95h-0.855v6.96H761.1v-3.65a3.246,3.246,0,0,1,.459-1.95,1.732,1.732,0,0,1,1.449-.59,1.373,1.373,0,0,1,1.109.42,1.852,1.852,0,0,1,.355,1.24v4.53h1.052v-3.89a2.656,2.656,0,0,1,.469-1.73,1.773,1.773,0,0,1,1.452-.57,1.365,1.365,0,0,1,1.1.42,1.857,1.857,0,0,1,.355,1.24v4.53h1.052Zm6.3,0.02a5.56,5.56,0,0,0,1.055-.34v-0.94a5.641,5.641,0,0,1-2.218.47,2.148,2.148,0,0,1-1.651-.64,2.747,2.747,0,0,1-.618-1.86h4.785v-0.67a3.286,3.286,0,0,0-.76-2.26,2.6,2.6,0,0,0-2.067-.86,2.745,2.745,0,0,0-2.221.99,4.03,4.03,0,0,0-.828,2.67,3.653,3.653,0,0,0,.891,2.61,3.213,3.213,0,0,0,2.431.94A5.875,5.875,0,0,0,776.256,1795.82Zm-0.219-5.69a2.3,2.3,0,0,1,.444,1.52h-3.632a2.537,2.537,0,0,1,.586-1.51,1.728,1.728,0,0,1,1.335-.54A1.539,1.539,0,0,1,776.037,1790.13Zm9.173,5.67v-4.54a2.594,2.594,0,0,0-.634-1.94,2.654,2.654,0,0,0-1.889-.6,2.919,2.919,0,0,0-1.3.28,2.166,2.166,0,0,0-.906.79H780.43l-0.171-.95H779.4v6.96h1.053v-3.65a2.973,2.973,0,0,1,.507-1.95,2.006,2.006,0,0,1,1.6-.59,1.573,1.573,0,0,1,1.211.42,1.819,1.819,0,0,1,.386,1.27v4.5h1.053Zm3.587-1.08a1.407,1.407,0,0,1-.3-0.96v-4.1h2.015v-0.82H788.5v-1.61h-0.609l-0.444,1.49-1,.43v0.51h1v4.14a1.834,1.834,0,0,0,2.016,2.13,3.406,3.406,0,0,0,.6-0.06,1.918,1.918,0,0,0,.5-0.13v-0.81a3.8,3.8,0,0,1-.412.09,4.66,4.66,0,0,1-.539.04A1.055,1.055,0,0,1,788.8,1794.72Zm-53.819,16.68v-4.75a2.312,2.312,0,0,0-.6-1.77,2.638,2.638,0,0,0-1.842-.55,4.675,4.675,0,0,0-1.226.16,4.962,4.962,0,0,0-1.126.43l0.324,0.81a4.649,4.649,0,0,1,1.965-.53,1.448,1.448,0,0,1,1.125.39,1.763,1.763,0,0,1,.352,1.21v0.43l-1.179.04c-2.244.06-3.366,0.8-3.366,2.21a1.93,1.93,0,0,0,.586,1.51,2.3,2.3,0,0,0,1.62.54,3.063,3.063,0,0,0,1.29-.24,2.822,2.822,0,0,0,1.036-.88h0.051l0.209,0.99h0.78Zm-4.124-1.04a1.091,1.091,0,0,1-.345-0.87,1.181,1.181,0,0,1,.554-1.08,3.837,3.837,0,0,1,1.81-.39l1.052-.04v0.63a2.008,2.008,0,0,1-.561,1.51,2.132,2.132,0,0,1-1.543.54A1.428,1.428,0,0,1,730.854,1810.36Zm10.824,0.8v-0.93a4.684,4.684,0,0,1-1.781.38,1.79,1.79,0,0,1-1.531-.69,3.222,3.222,0,0,1-.517-1.97q0-2.7,2.117-2.7a3.462,3.462,0,0,1,.729.09,5.158,5.158,0,0,1,.761.23l0.323-.89a3.521,3.521,0,0,0-.786-0.26,4.863,4.863,0,0,0-1-.1,3,3,0,0,0-2.393.95,3.934,3.934,0,0,0-.84,2.7,3.834,3.834,0,0,0,.827,2.63,2.962,2.962,0,0,0,2.336.93,3.682,3.682,0,0,0,1.756-.37h0Zm3.074-.84a1.4,1.4,0,0,1-.3-0.96v-4.1h2.016v-0.82h-2.016v-1.61h-0.608l-0.444,1.49-1,.43v0.51h1v4.14a1.834,1.834,0,0,0,2.016,2.13,3.415,3.415,0,0,0,.6-0.06,1.929,1.929,0,0,0,.5-0.13v-0.81a3.856,3.856,0,0,1-.412.09,4.677,4.677,0,0,1-.539.04A1.053,1.053,0,0,1,744.752,1810.32Zm4.209-5.88h-1.052v6.96h1.052v-6.96ZM748,1803.09a0.629,0.629,0,0,0,.443.17,0.64,0.64,0,0,0,.438-0.17,0.717,0.717,0,0,0,.183-0.53,0.686,0.686,0,0,0-.183-0.53,0.64,0.64,0,0,0-.438-0.17,0.629,0.629,0,0,0-.443.17,0.7,0.7,0,0,0-.178.53A0.727,0.727,0,0,0,748,1803.09Zm8.332,2.2a2.929,2.929,0,0,0-2.317-.97,3,3,0,0,0-2.358.94,3.856,3.856,0,0,0-.849,2.65,4.357,4.357,0,0,0,.393,1.92,2.868,2.868,0,0,0,1.115,1.26,3.151,3.151,0,0,0,1.655.44,3,3,0,0,0,2.364-.96,3.844,3.844,0,0,0,.856-2.66A3.8,3.8,0,0,0,756.33,1805.29Zm-3.908.6a1.86,1.86,0,0,1,1.559-.68,1.879,1.879,0,0,1,1.582.69,3.229,3.229,0,0,1,.536,2.01,3.286,3.286,0,0,1-.536,2.04,2.125,2.125,0,0,1-3.135,0,3.341,3.341,0,0,1-.532-2.04A3.263,3.263,0,0,1,752.422,1805.89Zm12.418,5.51v-4.54a2.594,2.594,0,0,0-.634-1.94,2.654,2.654,0,0,0-1.889-.6,2.912,2.912,0,0,0-1.3.28,2.169,2.169,0,0,0-.907.79H760.06l-0.171-.95h-0.856v6.96h1.053v-3.65a2.973,2.973,0,0,1,.507-1.95,2.006,2.006,0,0,1,1.6-.59,1.573,1.573,0,0,1,1.211.42,1.814,1.814,0,0,1,.387,1.27v4.5h1.052Zm6.209-3.05a4.772,4.772,0,0,0-1.671-.91,9.555,9.555,0,0,1-1.217-.51,1.437,1.437,0,0,1-.459-0.37,0.792,0.792,0,0,1-.143-0.48,0.74,0.74,0,0,1,.381-0.65,2.248,2.248,0,0,1,1.128-.23,4.98,4.98,0,0,1,1.895.43l0.374-.86a5.611,5.611,0,0,0-2.193-.45,3.2,3.2,0,0,0-1.895.49,1.555,1.555,0,0,0-.691,1.34,1.6,1.6,0,0,0,.2.82,1.862,1.862,0,0,0,.609.61,7.339,7.339,0,0,0,1.379.63,5.5,5.5,0,0,1,1.372.69,0.9,0.9,0,0,1-.092,1.49,2.455,2.455,0,0,1-1.268.27,4.37,4.37,0,0,1-1.106-.15,5.309,5.309,0,0,1-1.074-.4v0.98a4.425,4.425,0,0,0,2.155.44,3.4,3.4,0,0,0,2.028-.53,1.742,1.742,0,0,0,.723-1.5A1.617,1.617,0,0,0,771.049,1808.35Z" transform="translate(-695 -1759)"/>
  <g id="Connecting_lines" data-name="Connecting lines">
    <path id="Shape_127_copy_3" data-name="Shape 127 copy 3" class="cls-4" d="M860.015,1960h-1v-10h1v10Zm-1-10h1l-5,7h-1Zm1,32h-1v-9h1v9Z" transform="translate(-695 -1759)"/>
    <path id="Shape_128_copy_3" data-name="Shape 128 copy 3" class="cls-4" d="M859.015,1950H859.9l5.118,7h-1Z" transform="translate(-695 -1759)"/>
    <path id="Shape_127_copy_3-2" data-name="Shape 127 copy 3" class="cls-4" d="M872.014,1973h-1v9h1v-9Zm-1,9h1l-5-7h-1Zm1-22h-1v-10h1v10Z" transform="translate(-695 -1759)"/>
    <path id="Shape_128_copy_3-2" data-name="Shape 128 copy 3" class="cls-4" d="M871.014,1982H871.9l5.117-7h-1Z" transform="translate(-695 -1759)"/>
    <path id="Shape_127_copy_2" data-name="Shape 127 copy 2" class="cls-4" d="M749.926,1852v-1h61.961v1H749.926Zm62.29-1.38-0.658.76-7.988-7,0.657-.76Z" transform="translate(-695 -1759)"/>
    <path id="Shape_128_copy_2" data-name="Shape 128 copy 2" class="cls-4" d="M810.56,1850.62l0.657,0.76-7.988,7-0.658-.76Z" transform="translate(-695 -1759)"/>
    <path id="Shape_127_copy_3-3" data-name="Shape 127 copy 3" class="cls-4" d="M749.926,1920v-1h61.961v1H749.926Zm62.29-1.38-0.658.76-7.989-7,0.658-.76Z" transform="translate(-695 -1759)"/>
    <path id="Shape_128_copy_3-3" data-name="Shape 128 copy 3" class="cls-4" d="M810.56,1918.62l0.657,0.76-7.989,7-0.657-.76Z" transform="translate(-695 -1759)"/>
    <path class="cls-4" d="M750.926,2013h-1V1820h1m230.757,192v1H920.737v-1h60.946Zm0-161v1H920.737v-1h60.946Z" transform="translate(-695 -1759)"/>
    <path id="Shape_127_copy_3-4" data-name="Shape 127 copy 3" class="cls-4" d="M920.737,1920v-1h81.923v1H920.737Zm82.253-1.38-0.66.76-7.991-7,0.657-.76Z" transform="translate(-695 -1759)"/>
    <path id="Shape_128_copy_3-4" data-name="Shape 128 copy 3" class="cls-4" d="M1002.33,1918.62l0.66,0.76-7.992,7-0.658-.76Z" transform="translate(-695 -1759)"/>
    <path class="cls-4" d="M981.683,2013h-1V1851h1v162Z" transform="translate(-695 -1759)"/>
    <path id="Shape_127_copy_3-5" data-name="Shape 127 copy 3" class="cls-4" d="M749.926,2013v-1h61.961v1H749.926Zm62.29-1.38-0.658.76-7.989-7,0.658-.76Z" transform="translate(-695 -1759)"/>
    <path id="Shape_128_copy_3-5" data-name="Shape 128 copy 3" class="cls-4" d="M810.56,2011.62l0.657,0.76-7.989,7-0.657-.76Z" transform="translate(-695 -1759)"/>
  </g>
</svg>
