<svg id="Flow_Chart_-_Plan_Initiate" data-name="Flow Chart - Plan Initiate" xmlns="http://www.w3.org/2000/svg" xmlns:xlink="http://www.w3.org/1999/xlink" width="366" height="195.5" viewBox="0 0 366 195.5">
  <defs>
    <style>
      .cls-1, .cls-3, .cls-4, .cls-6, .cls-7 {
        fill: #f2f2f2;
      }

      .cls-1 {
        filter: url(#filter);
      }

      .cls-2 {
        fill: #6b6b6b;
      }

      .cls-2, .cls-5 {
        fill-rule: evenodd;
      }

      .cls-3 {
        filter: url(#filter-2);
      }

      .cls-4 {
        stroke: #01a9da;
        stroke-linejoin: round;
        stroke-opacity: 0.42;
        stroke-width: 1px;
        filter: url(#filter-3);
      }

      .cls-5 {
        fill: #01a9da;
      }

      .cls-6 {
        filter: url(#filter-4);
      }

      .cls-7 {
        filter: url(#filter-5);
      }
    </style>
    <filter id="filter" x="231" y="110.5" width="115" height="85" filterUnits="userSpaceOnUse">
      <feOffset result="offset" dx="0.5" dy="0.866" in="SourceAlpha"/>
      <feGaussianBlur result="blur" stdDeviation="2"/>
      <feFlood result="flood" flood-opacity="0.26"/>
      <feComposite result="composite" operator="in" in2="blur"/>
      <feBlend result="blend" in="SourceGraphic"/>
    </filter>
    <filter id="filter-2" x="99" y="110.5" width="115" height="85" filterUnits="userSpaceOnUse">
      <feOffset result="offset" dx="0.5" dy="0.866" in="SourceAlpha"/>
      <feGaussianBlur result="blur" stdDeviation="2"/>
      <feFlood result="flood" flood-opacity="0.26"/>
      <feComposite result="composite" operator="in" in2="blur"/>
      <feBlend result="blend" in="SourceGraphic"/>
    </filter>
    <filter id="filter-3" x="224" y="0.5" width="127" height="97" filterUnits="userSpaceOnUse">
      <feOffset result="offset" dx="0.5" dy="0.866" in="SourceAlpha"/>
      <feGaussianBlur result="blur" stdDeviation="2"/>
      <feFlood result="flood" flood-opacity="0.13"/>
      <feComposite result="composite" operator="in" in2="blur"/>
      <feGaussianBlur result="blur-2" stdDeviation="3.333" in="SourceAlpha"/>
      <feComposite result="composite-2"/>
      <feComposite result="composite-3"/>
      <feComposite result="composite-4"/>
      <feFlood result="flood-2" flood-color="#01a9da" flood-opacity="0.09"/>
      <feComposite result="composite-5" operator="in" in2="composite-4"/>
      <feBlend result="blend" in2="composite"/>
      <feBlend result="blend-2" in="SourceGraphic"/>
    </filter>
    <filter id="filter-4" x="99" y="7.5" width="115" height="85" filterUnits="userSpaceOnUse">
      <feOffset result="offset" dx="0.5" dy="0.866" in="SourceAlpha"/>
      <feGaussianBlur result="blur" stdDeviation="2"/>
      <feFlood result="flood" flood-opacity="0.26"/>
      <feComposite result="composite" operator="in" in2="blur"/>
      <feBlend result="blend" in="SourceGraphic"/>
    </filter>
    <filter id="filter-5" x="0" y="8.5" width="83" height="83" filterUnits="userSpaceOnUse">
      <feOffset result="offset" dx="0.5" dy="0.866" in="SourceAlpha"/>
      <feGaussianBlur result="blur" stdDeviation="2"/>
      <feFlood result="flood" flood-opacity="0.26"/>
      <feComposite result="composite" operator="in" in2="blur"/>
      <feBlend result="blend" in="SourceGraphic"/>
    </filter>
  </defs>
  <rect id="bg_copy_8" data-name="bg copy 8" class="cls-1" x="233.781" y="112.5" width="106.907" height="78"/>
  <path id="Plan_and_run_kick-off_meeting" data-name="Plan and run kick-off meeting" class="cls-2" d="M844.205,1186.92h-2.4v9.28h1.078v-3.65h1.091a4.324,4.324,0,0,0,2.749-.76,2.6,2.6,0,0,0,.961-2.17q0-2.7-3.476-2.7h0Zm-1.325.93h1.205a3.149,3.149,0,0,1,1.877.45,1.6,1.6,0,0,1,.6,1.37,1.708,1.708,0,0,1-.64,1.49,3.6,3.6,0,0,1-2.074.46h-0.97v-3.77Zm7.635-1.53h-1.052v9.88h1.052v-9.88Zm7.287,9.88v-4.75a2.312,2.312,0,0,0-.6-1.77,2.639,2.639,0,0,0-1.843-.55,4.688,4.688,0,0,0-1.227.16,4.935,4.935,0,0,0-1.125.43l0.323,0.81a4.653,4.653,0,0,1,1.966-.53,1.449,1.449,0,0,1,1.126.39,1.763,1.763,0,0,1,.351,1.21v0.43l-1.179.04c-2.245.06-3.368,0.8-3.368,2.21a1.931,1.931,0,0,0,.587,1.51,2.3,2.3,0,0,0,1.62.54,3.065,3.065,0,0,0,1.291-.24,2.824,2.824,0,0,0,1.037-.88h0.051l0.209,0.99h0.78Zm-4.125-1.04a1.088,1.088,0,0,1-.346-0.87,1.18,1.18,0,0,1,.555-1.08,3.837,3.837,0,0,1,1.81-.39l1.053-.04v0.63a2.008,2.008,0,0,1-.561,1.51,2.134,2.134,0,0,1-1.544.54A1.426,1.426,0,0,1,853.677,1195.16Zm12.1,1.04v-4.54a2.59,2.59,0,0,0-.635-1.94,2.653,2.653,0,0,0-1.889-.6,2.919,2.919,0,0,0-1.3.28,2.163,2.163,0,0,0-.907.79H861l-0.171-.95h-0.856v6.96h1.052v-3.65a2.967,2.967,0,0,1,.508-1.95,2.008,2.008,0,0,1,1.6-.59,1.573,1.573,0,0,1,1.211.42,1.814,1.814,0,0,1,.387,1.27v4.5h1.053Zm10.59,0v-4.75a2.312,2.312,0,0,0-.6-1.77,2.638,2.638,0,0,0-1.842-.55,4.688,4.688,0,0,0-1.227.16,4.944,4.944,0,0,0-1.126.43l0.323,0.81a4.657,4.657,0,0,1,1.966-.53,1.449,1.449,0,0,1,1.126.39,1.758,1.758,0,0,1,.352,1.21v0.43l-1.18.04c-2.245.06-3.367,0.8-3.367,2.21a1.93,1.93,0,0,0,.586,1.51,2.3,2.3,0,0,0,1.621.54,3.057,3.057,0,0,0,1.29-.24,2.817,2.817,0,0,0,1.037-.88h0.051l0.209,0.99h0.78Zm-4.125-1.04a1.088,1.088,0,0,1-.346-0.87,1.18,1.18,0,0,1,.555-1.08,3.842,3.842,0,0,1,1.811-.39l1.053-.04v0.63a2.008,2.008,0,0,1-.562,1.51,2.134,2.134,0,0,1-1.544.54A1.428,1.428,0,0,1,872.245,1195.16Zm12.1,1.04v-4.54a2.589,2.589,0,0,0-.634-1.94,2.657,2.657,0,0,0-1.89-.6,2.919,2.919,0,0,0-1.3.28,2.169,2.169,0,0,0-.907.79h-0.051l-0.171-.95h-0.856v6.96h1.053v-3.65a2.973,2.973,0,0,1,.507-1.95,2.008,2.008,0,0,1,1.6-.59,1.57,1.57,0,0,1,1.211.42,1.814,1.814,0,0,1,.387,1.27v4.5h1.053Zm7.033,0h0.856v-9.88h-1.053v2.83l0.026,0.49,0.044,0.5h-0.082a2.826,2.826,0,0,0-4.287-.07,4.153,4.153,0,0,0-.761,2.67,4.086,4.086,0,0,0,.758,2.65,2.561,2.561,0,0,0,2.121.94,2.487,2.487,0,0,0,2.181-1.06h0.057Zm-3.678-1.44a3.417,3.417,0,0,1-.489-2.01,3.579,3.579,0,0,1,.492-2.03,1.611,1.611,0,0,1,1.417-.72,1.869,1.869,0,0,1,1.57.63,3.486,3.486,0,0,1,.491,2.11v0.22a2.983,2.983,0,0,1-.485,1.9,1.916,1.916,0,0,1-1.563.58A1.636,1.636,0,0,1,887.7,1194.76Zm12.112-5.28a3.144,3.144,0,0,0-.932,1.05h-0.051l-0.12-1.29h-0.869v6.96H898.9v-3.73a2.518,2.518,0,0,1,.6-1.71,1.849,1.849,0,0,1,1.443-.69,3.867,3.867,0,0,1,.761.1l0.146-.98a4.212,4.212,0,0,0-.831-0.07A2.132,2.132,0,0,0,899.815,1189.48Zm3.254-.24v4.55a2.556,2.556,0,0,0,.631,1.93,2.619,2.619,0,0,0,1.9.61,2.909,2.909,0,0,0,1.31-.28,2.094,2.094,0,0,0,.9-0.78h0.057l0.152,0.93h0.869v-6.96h-1.053v3.66a3.024,3.024,0,0,1-.5,1.95,1.966,1.966,0,0,1-1.6.59,1.607,1.607,0,0,1-1.211-.41,1.831,1.831,0,0,1-.387-1.27v-4.52h-1.065Zm13.856,6.96v-4.54a2.589,2.589,0,0,0-.634-1.94,2.657,2.657,0,0,0-1.89-.6,2.919,2.919,0,0,0-1.3.28,2.169,2.169,0,0,0-.907.79h-0.05l-0.172-.95h-0.856v6.96h1.053v-3.65a2.973,2.973,0,0,1,.507-1.95,2.008,2.008,0,0,1,1.6-.59,1.574,1.574,0,0,1,1.212.42,1.819,1.819,0,0,1,.386,1.27v4.5h1.053Zm-57.538,12.04q0.051-.735.051-1.08v-5.24H858.4v9.88h1.04v-2.6l0.793-.69,2.454,3.29h1.275l-3.013-3.99,2.816-2.97h-1.249l-2.245,2.38a12.245,12.245,0,0,0-.831,1.02h-0.051Zm6.881-3.4h-1.053v6.96h1.053v-6.96Zm-0.964-1.35a0.63,0.63,0,0,0,.444.17,0.64,0.64,0,0,0,.438-0.17,0.717,0.717,0,0,0,.183-0.53,0.686,0.686,0,0,0-.183-0.53,0.64,0.64,0,0,0-.438-0.17,0.63,0.63,0,0,0-.444.17,0.7,0.7,0,0,0-.178.53A0.732,0.732,0,0,0,865.3,1203.49Zm7.731,8.07v-0.93a4.685,4.685,0,0,1-1.783.38,1.793,1.793,0,0,1-1.531-.69,3.222,3.222,0,0,1-.517-1.97q0-2.7,2.118-2.7a3.471,3.471,0,0,1,.73.09,5.2,5.2,0,0,1,.761.23l0.323-.89a3.521,3.521,0,0,0-.786-0.26,4.866,4.866,0,0,0-1-.1,3.005,3.005,0,0,0-2.394.95,3.929,3.929,0,0,0-.841,2.7,3.829,3.829,0,0,0,.828,2.63,2.966,2.966,0,0,0,2.337.93,3.689,3.689,0,0,0,1.757-.37h0Zm2.638-3.32q0.05-.735.05-1.08v-5.24h-1.04v9.88h1.04v-2.6l0.793-.69,2.454,3.29h1.275l-3.012-3.99,2.815-2.97H878.8l-2.245,2.38a12.245,12.245,0,0,0-.831,1.02h-0.05Zm8.358,0.56v-0.97h-3.114v0.97h3.114Zm6.789-3.11a2.931,2.931,0,0,0-2.318-.97,3.006,3.006,0,0,0-2.359.94,3.851,3.851,0,0,0-.85,2.65,4.357,4.357,0,0,0,.393,1.92,2.864,2.864,0,0,0,1.116,1.26,3.151,3.151,0,0,0,1.655.44,3.007,3.007,0,0,0,2.366-.96,3.844,3.844,0,0,0,.856-2.66A3.8,3.8,0,0,0,890.82,1205.69Zm-3.91.6a1.86,1.86,0,0,1,1.56-.68,1.879,1.879,0,0,1,1.582.69,3.223,3.223,0,0,1,.536,2.01,3.28,3.28,0,0,1-.536,2.04,2.127,2.127,0,0,1-3.136,0,3.341,3.341,0,0,1-.532-2.04A3.263,3.263,0,0,1,886.91,1206.29Zm14.148-1.45h-1.769v-0.45a2.207,2.207,0,0,1,.285-1.27,1,1,0,0,1,.882-0.4,3.539,3.539,0,0,1,1.04.2l0.273-.85a4.906,4.906,0,0,0-1.294-.22c-1.493,0-2.239.86-2.239,2.57v0.38l-1.243.39v0.47h1.243v6.14h1.053v-6.14h1.769v-0.82Zm-4.4,0h-1.769v-0.45a2.207,2.207,0,0,1,.285-1.27,1,1,0,0,1,.882-0.4,3.539,3.539,0,0,1,1.04.2l0.272-.85a4.893,4.893,0,0,0-1.293-.22c-1.493,0-2.239.86-2.239,2.57v0.38l-1.243.39v0.47h1.243v6.14h1.053v-6.14h1.769v-0.82Zm-31.185,22.56v-4.54a2.724,2.724,0,0,0-.587-1.94,2.365,2.365,0,0,0-1.766-.6,2.805,2.805,0,0,0-1.344.31,2.186,2.186,0,0,0-.9.87h-0.05a2.061,2.061,0,0,0-2.131-1.18,2.571,2.571,0,0,0-1.215.28,2.121,2.121,0,0,0-.84.79h-0.051l-0.171-.95H855.56v6.96h1.053v-3.65a3.238,3.238,0,0,1,.46-1.95,1.731,1.731,0,0,1,1.449-.59,1.371,1.371,0,0,1,1.109.42,1.852,1.852,0,0,1,.356,1.24v4.53h1.052v-3.89a2.65,2.65,0,0,1,.47-1.73,1.77,1.77,0,0,1,1.452-.57,1.365,1.365,0,0,1,1.1.42,1.852,1.852,0,0,1,.355,1.24v4.53h1.053Zm6.307,0.02a5.591,5.591,0,0,0,1.056-.34v-0.94a5.655,5.655,0,0,1-2.22.47,2.152,2.152,0,0,1-1.652-.64,2.747,2.747,0,0,1-.618-1.86h4.788v-0.67a3.286,3.286,0,0,0-.761-2.26,2.6,2.6,0,0,0-2.068-.86,2.746,2.746,0,0,0-2.222.99,4.03,4.03,0,0,0-.828,2.67,3.653,3.653,0,0,0,.891,2.61,3.216,3.216,0,0,0,2.432.94A5.885,5.885,0,0,0,871.779,1227.42Zm-0.219-5.69a2.3,2.3,0,0,1,.444,1.52H868.37a2.538,2.538,0,0,1,.587-1.51,1.728,1.728,0,0,1,1.335-.54A1.542,1.542,0,0,1,871.56,1221.73Zm7.505,5.69a5.591,5.591,0,0,0,1.056-.34v-0.94a5.646,5.646,0,0,1-2.219.47,2.15,2.15,0,0,1-1.652-.64,2.752,2.752,0,0,1-.619-1.86h4.788v-0.67a3.281,3.281,0,0,0-.761-2.26,2.6,2.6,0,0,0-2.067-.86,2.749,2.749,0,0,0-2.223.99,4.035,4.035,0,0,0-.827,2.67,3.653,3.653,0,0,0,.891,2.61,3.214,3.214,0,0,0,2.432.94A5.875,5.875,0,0,0,879.065,1227.42Zm-0.218-5.69a2.3,2.3,0,0,1,.444,1.52h-3.634a2.537,2.537,0,0,1,.586-1.51,1.728,1.728,0,0,1,1.335-.54A1.543,1.543,0,0,1,878.847,1221.73Zm4.794,4.59a1.4,1.4,0,0,1-.3-0.96v-4.1h2.017v-0.82h-2.017v-1.61h-0.609l-0.444,1.49-1,.43v0.51h1v4.14a1.834,1.834,0,0,0,2.017,2.13,3.415,3.415,0,0,0,.6-0.06,1.918,1.918,0,0,0,.5-0.13v-0.81a3.8,3.8,0,0,1-.412.09,4.66,4.66,0,0,1-.539.04A1.053,1.053,0,0,1,883.641,1226.32Zm4.211-5.88H886.8v6.96h1.053v-6.96Zm-0.964-1.35a0.656,0.656,0,0,0,.881,0,0.713,0.713,0,0,0,.184-0.53,0.683,0.683,0,0,0-.184-0.53,0.656,0.656,0,0,0-.881,0,0.7,0.7,0,0,0-.178.53A0.727,0.727,0,0,0,886.888,1219.09Zm9,8.31v-4.54a2.589,2.589,0,0,0-.634-1.94,2.657,2.657,0,0,0-1.89-.6,2.919,2.919,0,0,0-1.3.28,2.169,2.169,0,0,0-.907.79h-0.051l-0.171-.95h-0.856v6.96h1.053v-3.65a2.973,2.973,0,0,1,.507-1.95,2.008,2.008,0,0,1,1.6-.59,1.57,1.57,0,0,1,1.211.42,1.814,1.814,0,0,1,.387,1.27v4.5h1.053Zm5.448-6.96a3.723,3.723,0,0,0-.983-0.12,2.805,2.805,0,0,0-1.941.61,2.269,2.269,0,0,0-.685,1.77,2.2,2.2,0,0,0,.339,1.21,1.876,1.876,0,0,0,.879.76,2.165,2.165,0,0,0-.641.55,1.12,1.12,0,0,0-.2.67,1,1,0,0,0,.181.59,1.088,1.088,0,0,0,.447.37,2.059,2.059,0,0,0-1.141.63,1.728,1.728,0,0,0,.333,2.53,3.674,3.674,0,0,0,2.1.51,4.99,4.99,0,0,0,2.7-.6,2,2,0,0,0,.926-1.77,1.659,1.659,0,0,0-.605-1.38,2.738,2.738,0,0,0-1.735-.48h-1.23a1.745,1.745,0,0,1-.806-0.13,0.451,0.451,0,0,1-.234-0.42,1.046,1.046,0,0,1,.672-0.9,2.724,2.724,0,0,0,.583.05,2.8,2.8,0,0,0,1.916-.61,2.048,2.048,0,0,0,.7-1.63,2.256,2.256,0,0,0-.456-1.39l1.287-.15v-0.67h-2.4Zm-2.74,7.14a1.651,1.651,0,0,1,1.116-.34h1.262a2.658,2.658,0,0,1,1.313.22,0.857,0.857,0,0,1,.349.78,1.209,1.209,0,0,1-.638,1.08,3.844,3.844,0,0,1-1.963.4,2.566,2.566,0,0,1-1.363-.3,0.936,0.936,0,0,1-.476-0.85A1.238,1.238,0,0,1,898.6,1227.58Zm0.571-6.1a1.57,1.57,0,0,1,1.141-.4,1.386,1.386,0,0,1,1.56,1.57,1.344,1.344,0,0,1-1.541,1.5,1.647,1.647,0,0,1-1.148-.38,1.388,1.388,0,0,1-.412-1.1A1.629,1.629,0,0,1,899.172,1221.48Z" transform="translate(-592 -1056.5)"/>
  <rect id="bg_copy_7" data-name="bg copy 7" class="cls-3" x="101.906" y="112.5" width="106.906" height="78"/>
  <path id="Identify_and_recruit_project_team" data-name="Identify and recruit project team" class="cls-2" d="M726.9,1196.2v-9.28h-1.078v9.28H726.9Zm7.255,0h0.856v-9.88h-1.053v2.83l0.025,0.49,0.045,0.5h-0.083a2.826,2.826,0,0,0-4.287-.07,4.159,4.159,0,0,0-.761,2.67,4.091,4.091,0,0,0,.758,2.65,2.563,2.563,0,0,0,2.122.94,2.487,2.487,0,0,0,2.181-1.06h0.057Zm-3.678-1.44a3.417,3.417,0,0,1-.489-2.01,3.579,3.579,0,0,1,.492-2.03,1.61,1.61,0,0,1,1.417-.72,1.869,1.869,0,0,1,1.57.63,3.486,3.486,0,0,1,.491,2.11v0.22a2.989,2.989,0,0,1-.485,1.9,1.917,1.917,0,0,1-1.563.58A1.636,1.636,0,0,1,730.477,1194.76Zm10.9,1.46a5.591,5.591,0,0,0,1.056-.34v-0.94a5.651,5.651,0,0,1-2.22.47,2.152,2.152,0,0,1-1.652-.64,2.747,2.747,0,0,1-.618-1.86h4.788v-0.67a3.286,3.286,0,0,0-.761-2.26,2.6,2.6,0,0,0-2.067-.86,2.748,2.748,0,0,0-2.223.99,4.03,4.03,0,0,0-.828,2.67,3.653,3.653,0,0,0,.891,2.61,3.216,3.216,0,0,0,2.432.94A5.878,5.878,0,0,0,741.381,1196.22Zm-0.219-5.69a2.3,2.3,0,0,1,.444,1.52h-3.634a2.544,2.544,0,0,1,.587-1.51,1.728,1.728,0,0,1,1.335-.54A1.542,1.542,0,0,1,741.162,1190.53Zm9.177,5.67v-4.54a2.59,2.59,0,0,0-.635-1.94,2.653,2.653,0,0,0-1.889-.6,2.919,2.919,0,0,0-1.3.28,2.163,2.163,0,0,0-.907.79h-0.051l-0.171-.95H744.53v6.96h1.052v-3.65a2.967,2.967,0,0,1,.508-1.95,2.008,2.008,0,0,1,1.6-.59,1.573,1.573,0,0,1,1.211.42,1.814,1.814,0,0,1,.387,1.27v4.5h1.053Zm3.589-1.08a1.4,1.4,0,0,1-.3-0.96v-4.1h2.017v-0.82H753.63v-1.61h-0.609l-0.444,1.49-1,.43v0.51h1v4.14a1.834,1.834,0,0,0,2.017,2.13,3.415,3.415,0,0,0,.6-0.06,1.918,1.918,0,0,0,.5-0.13v-0.81a3.8,3.8,0,0,1-.412.09,4.66,4.66,0,0,1-.539.04A1.053,1.053,0,0,1,753.928,1195.12Zm4.211-5.88h-1.053v6.96h1.053v-6.96Zm-0.964-1.35a0.656,0.656,0,0,0,.881,0,0.713,0.713,0,0,0,.184-0.53,0.683,0.683,0,0,0-.184-0.53,0.656,0.656,0,0,0-.881,0,0.7,0.7,0,0,0-.178.53A0.732,0.732,0,0,0,757.175,1187.89Zm6.329,1.35h-1.769v-0.45a2.207,2.207,0,0,1,.285-1.27,1,1,0,0,1,.881-0.4,3.527,3.527,0,0,1,1.04.2l0.273-.85a4.9,4.9,0,0,0-1.294-.22c-1.492,0-2.238.86-2.238,2.57v0.38l-1.243.39v0.47h1.243v6.14h1.053v-6.14H763.5v-0.82Zm2.968,7-0.387.99a1.612,1.612,0,0,1-1.547,1.22,3.7,3.7,0,0,1-.78-0.08v0.84a3.8,3.8,0,0,0,.951.11,2.19,2.19,0,0,0,1.455-.49,3.939,3.939,0,0,0,1.037-1.67l2.987-7.92h-1.129q-1.458,4.035-1.722,4.82t-0.345,1.11h-0.051a15.338,15.338,0,0,0-.621-1.96l-1.522-3.97h-1.129Zm-46.149,15.56v-4.75a2.309,2.309,0,0,0-.6-1.77,2.635,2.635,0,0,0-1.842-.55,4.688,4.688,0,0,0-1.227.16,4.962,4.962,0,0,0-1.126.43l0.324,0.81a4.649,4.649,0,0,1,1.966-.53,1.446,1.446,0,0,1,1.125.39,1.758,1.758,0,0,1,.352,1.21v0.43l-1.179.04c-2.245.06-3.368,0.8-3.368,2.21a1.931,1.931,0,0,0,.587,1.51,2.3,2.3,0,0,0,1.62.54,3.065,3.065,0,0,0,1.291-.24,2.814,2.814,0,0,0,1.036-.88h0.051l0.209,0.99h0.78Zm-4.125-1.04a1.091,1.091,0,0,1-.345-0.87,1.18,1.18,0,0,1,.555-1.08,3.834,3.834,0,0,1,1.81-.39l1.053-.04v0.63a2.008,2.008,0,0,1-.561,1.51,2.137,2.137,0,0,1-1.545.54A1.43,1.43,0,0,1,716.2,1210.76Zm12.1,1.04v-4.54a2.589,2.589,0,0,0-.634-1.94,2.657,2.657,0,0,0-1.89-.6,2.922,2.922,0,0,0-1.3.28,2.169,2.169,0,0,0-.907.79h-0.05l-0.172-.95h-0.856v6.96h1.053v-3.65a2.973,2.973,0,0,1,.507-1.95,2.01,2.01,0,0,1,1.6-.59,1.574,1.574,0,0,1,1.212.42,1.814,1.814,0,0,1,.387,1.27v4.5H728.3Zm7.033,0h0.856v-9.88h-1.052v2.83l0.025,0.49,0.044,0.5h-0.082a2.826,2.826,0,0,0-4.287-.07,4.159,4.159,0,0,0-.761,2.67,4.091,4.091,0,0,0,.758,2.65,2.561,2.561,0,0,0,2.121.94,2.49,2.49,0,0,0,2.182-1.06H735.2Zm-3.678-1.44a3.417,3.417,0,0,1-.488-2.01,3.587,3.587,0,0,1,.491-2.03,1.612,1.612,0,0,1,1.418-.72,1.868,1.868,0,0,1,1.569.63,3.478,3.478,0,0,1,.492,2.11v0.22a2.982,2.982,0,0,1-.486,1.9,1.916,1.916,0,0,1-1.563.58A1.637,1.637,0,0,1,731.656,1210.36Zm12.113-5.28a3.135,3.135,0,0,0-.933,1.05h-0.05l-0.121-1.29H741.8v6.96h1.053v-3.73a2.518,2.518,0,0,1,.6-1.71,1.849,1.849,0,0,1,1.443-.69,3.858,3.858,0,0,1,.761.1l0.146-.98a4.2,4.2,0,0,0-.831-0.07A2.129,2.129,0,0,0,743.769,1205.08Zm7.467,6.74a5.591,5.591,0,0,0,1.056-.34v-0.94a5.651,5.651,0,0,1-2.22.47,2.152,2.152,0,0,1-1.652-.64,2.747,2.747,0,0,1-.618-1.86h4.788v-0.67a3.286,3.286,0,0,0-.761-2.26,2.6,2.6,0,0,0-2.067-.86,2.747,2.747,0,0,0-2.223.99,4.03,4.03,0,0,0-.828,2.67,3.653,3.653,0,0,0,.891,2.61,3.216,3.216,0,0,0,2.432.94A5.885,5.885,0,0,0,751.236,1211.82Zm-0.219-5.69a2.3,2.3,0,0,1,.444,1.52h-3.634a2.538,2.538,0,0,1,.587-1.51,1.728,1.728,0,0,1,1.335-.54A1.542,1.542,0,0,1,751.017,1206.13Zm7.9,5.43v-0.93a4.684,4.684,0,0,1-1.782.38,1.794,1.794,0,0,1-1.532-.69,3.229,3.229,0,0,1-.516-1.97q0-2.7,2.118-2.7a3.47,3.47,0,0,1,.729.09,5.158,5.158,0,0,1,.761.23l0.323-.89a3.521,3.521,0,0,0-.786-0.26,4.866,4.866,0,0,0-1-.1,3.005,3.005,0,0,0-2.394.95,3.934,3.934,0,0,0-.84,2.7,3.834,3.834,0,0,0,.827,2.63,2.966,2.966,0,0,0,2.337.93,3.686,3.686,0,0,0,1.757-.37h0Zm3.621-6.48a3.133,3.133,0,0,0-.932,1.05h-0.051l-0.12-1.29h-0.869v6.96h1.052v-3.73a2.513,2.513,0,0,1,.6-1.71,1.845,1.845,0,0,1,1.442-.69,3.858,3.858,0,0,1,.761.1l0.146-.98a4.2,4.2,0,0,0-.83-0.07A2.132,2.132,0,0,0,762.54,1205.08Zm3.253-.24v4.55a2.56,2.56,0,0,0,.631,1.93,2.623,2.623,0,0,0,1.9.61,2.9,2.9,0,0,0,1.309-.28,2.082,2.082,0,0,0,.9-0.78h0.058l0.152,0.93h0.869v-6.96h-1.053v3.66a3.024,3.024,0,0,1-.5,1.95,1.966,1.966,0,0,1-1.6.59,1.61,1.61,0,0,1-1.212-.41,1.836,1.836,0,0,1-.386-1.27v-4.52h-1.066Zm9.1,0h-1.053v6.96h1.053v-6.96Zm-0.964-1.35a0.63,0.63,0,0,0,.444.17,0.637,0.637,0,0,0,.437-0.17,0.713,0.713,0,0,0,.184-0.53,0.683,0.683,0,0,0-.184-0.53,0.637,0.637,0,0,0-.437-0.17,0.63,0.63,0,0,0-.444.17,0.7,0.7,0,0,0-.178.53A0.727,0.727,0,0,0,773.93,1203.49Zm4.623,7.23a1.4,1.4,0,0,1-.3-0.96v-4.1h2.016v-0.82h-2.016v-1.61h-0.609l-0.444,1.49-1,.43v0.51h1v4.14a1.834,1.834,0,0,0,2.017,2.13,3.415,3.415,0,0,0,.6-0.06,1.918,1.918,0,0,0,.5-0.13v-0.81a3.8,3.8,0,0,1-.412.09,4.677,4.677,0,0,1-.539.04A1.052,1.052,0,0,1,778.553,1210.72Zm-63.205,15.86a5.044,5.044,0,0,0,.013-5.32,2.565,2.565,0,0,0-2.134-.94,2.855,2.855,0,0,0-1.236.25,2.435,2.435,0,0,0-.945.82H711l-0.146-.95h-0.856v10.08h1.053v-2.86a9.659,9.659,0,0,0-.076-1.16h0.076a2.348,2.348,0,0,0,.941.78,3.13,3.13,0,0,0,1.24.25A2.579,2.579,0,0,0,715.348,1226.58Zm-0.837-4.67a3.3,3.3,0,0,1,.511,1.99,3.426,3.426,0,0,1-.511,2.01,1.62,1.62,0,0,1-1.411.73,1.858,1.858,0,0,1-1.566-.63,3.481,3.481,0,0,1-.488-2.1v-0.23a3.032,3.032,0,0,1,.488-1.88,1.875,1.875,0,0,1,1.541-.59A1.666,1.666,0,0,1,714.511,1221.91Zm5.413-1.23a3.133,3.133,0,0,0-.932,1.05h-0.051l-0.12-1.29h-0.869v6.96H719v-3.73a2.513,2.513,0,0,1,.6-1.71,1.845,1.845,0,0,1,1.442-.69,3.858,3.858,0,0,1,.761.1l0.146-.98a4.2,4.2,0,0,0-.83-0.07A2.132,2.132,0,0,0,719.924,1220.68Zm8.469,0.61a2.929,2.929,0,0,0-2.318-.97,3.008,3.008,0,0,0-2.359.94,3.856,3.856,0,0,0-.849,2.65,4.343,4.343,0,0,0,.393,1.92,2.864,2.864,0,0,0,1.116,1.26,3.151,3.151,0,0,0,1.655.44,3,3,0,0,0,2.365-.96,3.844,3.844,0,0,0,.857-2.66A3.8,3.8,0,0,0,728.393,1221.29Zm-3.909.6a1.859,1.859,0,0,1,1.56-.68,1.881,1.881,0,0,1,1.582.69,3.229,3.229,0,0,1,.536,2.01,3.286,3.286,0,0,1-.536,2.04,2.127,2.127,0,0,1-3.136,0,3.34,3.34,0,0,1-.533-2.04A3.263,3.263,0,0,1,724.484,1221.89Zm7.667,6.58v-8.03H731.1v8.1a1.231,1.231,0,0,1-.231.82,0.908,0.908,0,0,1-.727.27,3.251,3.251,0,0,1-.862-0.12v0.85a2.452,2.452,0,0,0,.977.16,1.746,1.746,0,0,0,1.9-2.05h0Zm-0.964-9.38a0.656,0.656,0,0,0,.881,0,0.713,0.713,0,0,0,.184-0.53,0.683,0.683,0,0,0-.184-0.53,0.656,0.656,0,0,0-.881,0,0.7,0.7,0,0,0-.178.53A0.727,0.727,0,0,0,731.187,1219.09Zm7.334,8.33a5.591,5.591,0,0,0,1.056-.34v-0.94a5.651,5.651,0,0,1-2.22.47,2.152,2.152,0,0,1-1.652-.64,2.747,2.747,0,0,1-.618-1.86h4.788v-0.67a3.286,3.286,0,0,0-.761-2.26,2.6,2.6,0,0,0-2.068-.86,2.746,2.746,0,0,0-2.222.99,4.03,4.03,0,0,0-.828,2.67,3.653,3.653,0,0,0,.891,2.61,3.216,3.216,0,0,0,2.432.94A5.885,5.885,0,0,0,738.521,1227.42Zm-0.219-5.69a2.3,2.3,0,0,1,.444,1.52h-3.634a2.538,2.538,0,0,1,.587-1.51,1.728,1.728,0,0,1,1.335-.54A1.542,1.542,0,0,1,738.3,1221.73Zm7.9,5.43v-0.93a4.684,4.684,0,0,1-1.782.38,1.794,1.794,0,0,1-1.532-.69,3.229,3.229,0,0,1-.517-1.97q0-2.7,2.119-2.7a3.47,3.47,0,0,1,.729.09,5.158,5.158,0,0,1,.761.23l0.323-.89a3.521,3.521,0,0,0-.786-0.26,4.866,4.866,0,0,0-1-.1,3.005,3.005,0,0,0-2.394.95,3.934,3.934,0,0,0-.84,2.7,3.834,3.834,0,0,0,.827,2.63,2.966,2.966,0,0,0,2.337.93,3.686,3.686,0,0,0,1.757-.37h0Zm3.076-.84a1.4,1.4,0,0,1-.3-0.96v-4.1H751v-0.82h-2.017v-1.61h-0.608l-0.444,1.49-1,.43v0.51h1v4.14a1.834,1.834,0,0,0,2.016,2.13,3.416,3.416,0,0,0,.6-0.06,1.918,1.918,0,0,0,.5-0.13v-0.81a3.856,3.856,0,0,1-.412.09,4.677,4.677,0,0,1-.539.04A1.052,1.052,0,0,1,749.28,1226.32Zm7.958,0a1.408,1.408,0,0,1-.3-0.96v-4.1h2.017v-0.82H756.94v-1.61h-0.609l-0.443,1.49-1,.43v0.51h1v4.14a1.834,1.834,0,0,0,2.016,2.13,3.416,3.416,0,0,0,.6-0.06,1.929,1.929,0,0,0,.5-0.13v-0.81a3.827,3.827,0,0,1-.413.09,4.66,4.66,0,0,1-.539.04A1.055,1.055,0,0,1,757.238,1226.32Zm7.3,1.1a5.591,5.591,0,0,0,1.056-.34v-0.94a5.646,5.646,0,0,1-2.219.47,2.15,2.15,0,0,1-1.652-.64,2.752,2.752,0,0,1-.619-1.86h4.788v-0.67a3.281,3.281,0,0,0-.761-2.26,2.6,2.6,0,0,0-2.067-.86,2.749,2.749,0,0,0-2.223.99,4.035,4.035,0,0,0-.827,2.67,3.653,3.653,0,0,0,.891,2.61,3.214,3.214,0,0,0,2.432.94A5.875,5.875,0,0,0,764.534,1227.42Zm-0.218-5.69a2.3,2.3,0,0,1,.444,1.52h-3.634a2.537,2.537,0,0,1,.586-1.51,1.728,1.728,0,0,1,1.335-.54A1.543,1.543,0,0,1,764.316,1221.73Zm8.421,5.67v-4.75a2.309,2.309,0,0,0-.6-1.77,2.636,2.636,0,0,0-1.842-.55,4.688,4.688,0,0,0-1.227.16,4.962,4.962,0,0,0-1.126.43l0.323,0.81a4.657,4.657,0,0,1,1.966-.53,1.449,1.449,0,0,1,1.126.39,1.758,1.758,0,0,1,.352,1.21v0.43l-1.18.04c-2.244.06-3.367,0.8-3.367,2.21a1.931,1.931,0,0,0,.587,1.51,2.3,2.3,0,0,0,1.62.54,3.057,3.057,0,0,0,1.29-.24,2.809,2.809,0,0,0,1.037-.88h0.051l0.209,0.99h0.78Zm-4.125-1.04a1.091,1.091,0,0,1-.346-0.87,1.18,1.18,0,0,1,.555-1.08,3.842,3.842,0,0,1,1.811-.39l1.053-.04v0.63a2,2,0,0,1-.562,1.51,2.134,2.134,0,0,1-1.544.54A1.428,1.428,0,0,1,768.612,1226.36Zm16.206,1.04v-4.54a2.724,2.724,0,0,0-.586-1.94,2.368,2.368,0,0,0-1.767-.6,2.805,2.805,0,0,0-1.344.31,2.183,2.183,0,0,0-.9.87H780.17a2.06,2.06,0,0,0-2.131-1.18,2.564,2.564,0,0,0-1.214.28,2.117,2.117,0,0,0-.841.79h-0.05l-0.172-.95h-0.856v6.96h1.053v-3.65a3.238,3.238,0,0,1,.46-1.95,1.731,1.731,0,0,1,1.449-.59,1.375,1.375,0,0,1,1.11.42,1.857,1.857,0,0,1,.355,1.24v4.53h1.052v-3.89a2.65,2.65,0,0,1,.47-1.73,1.773,1.773,0,0,1,1.452-.57,1.363,1.363,0,0,1,1.1.42,1.852,1.852,0,0,1,.356,1.24v4.53h1.052Z" transform="translate(-592 -1056.5)"/>
  <g style="fill: #f2f2f2; filter: url(#filter-3)">
    <rect id="bg_copy_2" data-name="bg copy 2" class="cls-4" x="233.781" y="9.5" width="106.907" height="78" style="stroke: inherit; filter: none; fill: inherit"/>
  </g>
  <use xlink:href="#bg_copy_2" style="stroke: #01a9da; filter: none; fill: none"/>
  <path id="Develop_Project_Charter" data-name="Develop Project Charter" class="cls-5" d="M861.236,1087.11a4.762,4.762,0,0,0-3.444-1.19h-2.866v9.28h2.594a5.117,5.117,0,0,0,3.671-1.22,4.621,4.621,0,0,0,1.275-3.51A4.478,4.478,0,0,0,861.236,1087.11Zm-3.716,6.81h-1.078v-6.73h1.312q3.114,0,3.114,3.33,0,3.4-3.348,3.4h0Zm11.117,1.3a4.652,4.652,0,0,0,1.1-.37v-1.21a6.334,6.334,0,0,1-1.151.39,5.289,5.289,0,0,1-1.157.12,1.943,1.943,0,0,1-1.465-.55,2.312,2.312,0,0,1-.552-1.57h4.674v-0.81a3.209,3.209,0,0,0-.806-2.32,2.866,2.866,0,0,0-2.194-.85,2.948,2.948,0,0,0-2.353.99,3.958,3.958,0,0,0-.856,2.7,3.627,3.627,0,0,0,.923,2.63,3.382,3.382,0,0,0,2.559.96A6.922,6.922,0,0,0,868.637,1095.22Zm-0.432-5.59a1.956,1.956,0,0,1,.419,1.32H865.44a2.152,2.152,0,0,1,.511-1.32,1.5,1.5,0,0,1,1.138-.45A1.425,1.425,0,0,1,868.205,1089.63Zm6.786,5.57,2.676-7.02h-1.585l-1.427,4.08a11.172,11.172,0,0,0-.444,1.66H874.16a8.235,8.235,0,0,0-.444-1.66l-1.427-4.08h-1.572l2.663,7.02h1.611Zm8.079,0.02a4.659,4.659,0,0,0,1.1-.37v-1.21a6.334,6.334,0,0,1-1.151.39,5.3,5.3,0,0,1-1.158.12,1.944,1.944,0,0,1-1.465-.55,2.317,2.317,0,0,1-.551-1.57h4.673v-0.81a3.208,3.208,0,0,0-.805-2.32,2.866,2.866,0,0,0-2.194-.85,2.948,2.948,0,0,0-2.353.99,3.953,3.953,0,0,0-.856,2.7,3.627,3.627,0,0,0,.923,2.63,3.382,3.382,0,0,0,2.559.96A6.911,6.911,0,0,0,883.07,1095.22Zm-0.431-5.59a1.961,1.961,0,0,1,.419,1.32h-3.184a2.157,2.157,0,0,1,.51-1.32,1.5,1.5,0,0,1,1.139-.45A1.428,1.428,0,0,1,882.639,1089.63Zm5.067-4.31h-1.49v9.88h1.49v-9.88Zm7.464,3.71a3.1,3.1,0,0,0-2.41-.98,3.17,3.17,0,0,0-2.467.96,3.82,3.82,0,0,0-.875,2.67,4.368,4.368,0,0,0,.406,1.93,2.905,2.905,0,0,0,1.161,1.27,3.325,3.325,0,0,0,1.737.45,3.169,3.169,0,0,0,2.454-.97A4.455,4.455,0,0,0,895.17,1089.03Zm-3.795.86a1.533,1.533,0,0,1,1.36-.62c1.192,0,1.788.8,1.788,2.41s-0.592,2.43-1.775,2.43-1.8-.81-1.8-2.43A3.183,3.183,0,0,1,891.375,1089.89Zm12.011,4.47a5.229,5.229,0,0,0,.012-5.36,2.444,2.444,0,0,0-2.045-.95,2.339,2.339,0,0,0-2.093,1.07h-0.076c-0.105-.5-0.175-0.81-0.209-0.94H897.77v10.14h1.49v-2.87q0-.2-0.088-1.08h0.088A2.688,2.688,0,0,0,903.386,1094.36Zm-1.2-4.48a3.146,3.146,0,0,1,.416,1.78,3.26,3.26,0,0,1-.419,1.81,1.336,1.336,0,0,1-1.192.64,1.5,1.5,0,0,1-1.326-.58,3.27,3.27,0,0,1-.406-1.85v-0.23a2.7,2.7,0,0,1,.41-1.66,1.537,1.537,0,0,1,1.3-.52A1.375,1.375,0,0,1,902.187,1089.88Zm-38.522,12.35a4.061,4.061,0,0,0-2.6-.71h-2.669v9.28h1.515v-3.47h0.964a4.167,4.167,0,0,0,2.708-.78,2.7,2.7,0,0,0,.951-2.23A2.541,2.541,0,0,0,863.665,1102.23Zm-3.758.56h1.053a2.428,2.428,0,0,1,1.522.39,1.444,1.444,0,0,1,.488,1.2,1.5,1.5,0,0,1-.545,1.27,2.9,2.9,0,0,1-1.712.4h-0.806v-3.26Zm8.666,1.23a2.827,2.827,0,0,0-.91,1h-0.076l-0.2-1.24h-1.166v7.02h1.49v-3.67a2.123,2.123,0,0,1,.555-1.52,1.9,1.9,0,0,1,1.449-.58,2.4,2.4,0,0,1,.659.08l0.146-1.39a3.079,3.079,0,0,0-.742-0.07A2.128,2.128,0,0,0,868.573,1104.02Zm8.584,0.61a3.1,3.1,0,0,0-2.41-.98,3.169,3.169,0,0,0-2.467.96,3.815,3.815,0,0,0-.875,2.67,4.368,4.368,0,0,0,.406,1.93,2.9,2.9,0,0,0,1.16,1.27,3.327,3.327,0,0,0,1.738.45,3.172,3.172,0,0,0,2.454-.97A4.459,4.459,0,0,0,877.157,1104.63Zm-3.8.86a1.534,1.534,0,0,1,1.36-.62c1.193,0,1.789.8,1.789,2.41s-0.592,2.43-1.776,2.43-1.8-.81-1.8-2.43A3.191,3.191,0,0,1,873.361,1105.49Zm7.318,7.87a2.2,2.2,0,0,0,.568-1.64v-7.94h-1.49v7.84a0.9,0.9,0,0,1-.952,1.08,3.268,3.268,0,0,1-.881-0.12v1.18a3.246,3.246,0,0,0,1.116.16A2.209,2.209,0,0,0,880.679,1113.36Zm-0.792-10.84a0.87,0.87,0,0,0,.624.22,0.853,0.853,0,0,0,.612-0.22,0.823,0.823,0,0,0,.219-0.6,0.749,0.749,0,0,0-.831-0.83,0.866,0.866,0,0,0-.624.21,0.841,0.841,0,0,0-.219.62A0.823,0.823,0,0,0,879.887,1102.52Zm7.828,8.3a4.659,4.659,0,0,0,1.1-.37v-1.21a6.334,6.334,0,0,1-1.151.39,5.289,5.289,0,0,1-1.157.12,1.943,1.943,0,0,1-1.465-.55,2.312,2.312,0,0,1-.552-1.57h4.674v-0.81a3.209,3.209,0,0,0-.806-2.32,2.866,2.866,0,0,0-2.194-.85,2.948,2.948,0,0,0-2.353.99,3.958,3.958,0,0,0-.856,2.7,3.627,3.627,0,0,0,.923,2.63,3.382,3.382,0,0,0,2.559.96A6.911,6.911,0,0,0,887.715,1110.82Zm-0.431-5.59a1.956,1.956,0,0,1,.419,1.32h-3.184a2.152,2.152,0,0,1,.511-1.32,1.5,1.5,0,0,1,1.138-.45A1.425,1.425,0,0,1,887.284,1105.23Zm7.506,5.59a2.653,2.653,0,0,0,.853-0.33v-1.3a3.806,3.806,0,0,1-1.884.49,1.584,1.584,0,0,1-1.329-.59,2.923,2.923,0,0,1-.453-1.78c0-1.61.607-2.41,1.82-2.41a4.6,4.6,0,0,1,1.56.36l0.45-1.2a4.758,4.758,0,0,0-2-.41,3.225,3.225,0,0,0-2.5.95,3.939,3.939,0,0,0-.866,2.73,3.888,3.888,0,0,0,.828,2.67,3.069,3.069,0,0,0,2.419.93A4.93,4.93,0,0,0,894.79,1110.82Zm4.407-1.36a1.035,1.035,0,0,1-.269-0.79v-3.76h2v-1.13h-2v-1.56h-0.92l-0.507,1.48-1.028.55v0.66h0.958v3.78a1.929,1.929,0,0,0,2.118,2.24,4.276,4.276,0,0,0,.809-0.08,3.218,3.218,0,0,0,.637-0.18v-1.12a3.759,3.759,0,0,1-1.091.17A0.99,0.99,0,0,1,899.2,1109.46Zm-37.578,9a7.537,7.537,0,0,1,.993.39l0.545-1.27a5.8,5.8,0,0,0-2.625-.59,4.678,4.678,0,0,0-2.353.57,3.79,3.79,0,0,0-1.531,1.67,5.674,5.674,0,0,0-.53,2.53,5.16,5.16,0,0,0,1.091,3.53,3.963,3.963,0,0,0,3.126,1.24,6.849,6.849,0,0,0,2.474-.42v-1.3a9.3,9.3,0,0,1-1.148.3,5.363,5.363,0,0,1-1.142.12,2.549,2.549,0,0,1-2.083-.87,4.018,4.018,0,0,1-.72-2.59,3.969,3.969,0,0,1,.749-2.56,2.512,2.512,0,0,1,2.054-.92A3.347,3.347,0,0,1,861.619,1118.46Zm9.2,3.36a2.264,2.264,0,0,0-2.549-2.57,2.8,2.8,0,0,0-1.265.28,2.091,2.091,0,0,0-.847.79h-0.1a11.741,11.741,0,0,0,.076-1.29v-2.51h-1.49v9.88h1.49v-3.49a3.1,3.1,0,0,1,.441-1.88,1.655,1.655,0,0,1,1.379-.56,1.253,1.253,0,0,1,1.037.4,1.891,1.891,0,0,1,.326,1.21v4.32h1.5v-4.58Zm7.528,4.58v-4.73a2.285,2.285,0,0,0-.682-1.83,3.03,3.03,0,0,0-2.02-.59,5.408,5.408,0,0,0-1.281.16,4.979,4.979,0,0,0-1.249.45l0.482,1.07a7.48,7.48,0,0,1,.951-0.38,3.548,3.548,0,0,1,1.034-.16,1.289,1.289,0,0,1,.973.34,1.416,1.416,0,0,1,.314,1v0.38l-1.211.04a4.585,4.585,0,0,0-2.454.6,1.855,1.855,0,0,0-.806,1.64,2.091,2.091,0,0,0,.58,1.58,2.243,2.243,0,0,0,1.614.56,3.126,3.126,0,0,0,1.319-.24,2.786,2.786,0,0,0,1.021-.87h0.051l0.3,0.98h1.066Zm-4.122-1.27a0.945,0.945,0,0,1-.279-0.73,1.07,1.07,0,0,1,.478-0.96,3.02,3.02,0,0,1,1.532-.35l0.9-.04v0.61a1.647,1.647,0,0,1-.491,1.27,1.855,1.855,0,0,1-1.3.45A1.2,1.2,0,0,1,874.224,1125.13Zm8.551-5.51a2.827,2.827,0,0,0-.91,1h-0.076l-0.2-1.24h-1.167v7.02h1.49v-3.67a2.123,2.123,0,0,1,.555-1.52,1.9,1.9,0,0,1,1.449-.58,2.407,2.407,0,0,1,.66.08l0.145-1.39a3.074,3.074,0,0,0-.742-0.07A2.128,2.128,0,0,0,882.775,1119.62Zm5.156,5.44a1.035,1.035,0,0,1-.269-0.79v-3.76h2v-1.13h-2v-1.56h-0.92l-0.507,1.48-1.028.55v0.66h0.958v3.78a1.929,1.929,0,0,0,2.118,2.24,4.276,4.276,0,0,0,.809-0.08,3.218,3.218,0,0,0,.637-0.18v-1.12a3.759,3.759,0,0,1-1.091.17A0.99,0.99,0,0,1,887.931,1125.06Zm7.537,1.36a4.659,4.659,0,0,0,1.1-.37v-1.21a6.36,6.36,0,0,1-1.151.39,5.3,5.3,0,0,1-1.158.12,1.944,1.944,0,0,1-1.465-.55,2.317,2.317,0,0,1-.551-1.57h4.673v-0.81a3.208,3.208,0,0,0-.8-2.32,2.866,2.866,0,0,0-2.194-.85,2.948,2.948,0,0,0-2.353.99,3.953,3.953,0,0,0-.856,2.7,3.623,3.623,0,0,0,.923,2.63,3.381,3.381,0,0,0,2.558.96A6.914,6.914,0,0,0,895.468,1126.42Zm-0.431-5.59a1.956,1.956,0,0,1,.418,1.32h-3.183a2.157,2.157,0,0,1,.51-1.32,1.5,1.5,0,0,1,1.139-.45A1.428,1.428,0,0,1,895.037,1120.83Zm5.926-1.21a2.827,2.827,0,0,0-.91,1h-0.076l-0.2-1.24h-1.166v7.02h1.49v-3.67a2.123,2.123,0,0,1,.555-1.52,1.9,1.9,0,0,1,1.449-.58,2.4,2.4,0,0,1,.659.08l0.146-1.39a3.079,3.079,0,0,0-.742-0.07A2.128,2.128,0,0,0,900.963,1119.62Z" transform="translate(-592 -1056.5)"/>
  <rect id="bg_copy" data-name="bg copy" class="cls-6" x="101.906" y="9.5" width="106.906" height="78"/>
  <path id="Identify_Stakeholders" data-name="Identify Stakeholders" class="cls-2" d="M726.9,1102.2v-9.28h-1.078v9.28H726.9Zm7.255,0h0.856v-9.88h-1.053v2.83l0.025,0.49,0.045,0.5h-0.083a2.826,2.826,0,0,0-4.287-.07,4.159,4.159,0,0,0-.761,2.67,4.091,4.091,0,0,0,.758,2.65,2.563,2.563,0,0,0,2.122.94,2.487,2.487,0,0,0,2.181-1.06h0.057Zm-3.678-1.44a3.417,3.417,0,0,1-.489-2.01,3.579,3.579,0,0,1,.492-2.03,1.61,1.61,0,0,1,1.417-.72,1.869,1.869,0,0,1,1.57.63,3.486,3.486,0,0,1,.491,2.11v0.22a2.989,2.989,0,0,1-.485,1.9,1.917,1.917,0,0,1-1.563.58A1.636,1.636,0,0,1,730.477,1100.76Zm10.9,1.46a5.591,5.591,0,0,0,1.056-.34v-0.94a5.651,5.651,0,0,1-2.22.47,2.152,2.152,0,0,1-1.652-.64,2.747,2.747,0,0,1-.618-1.86h4.788v-0.67a3.286,3.286,0,0,0-.761-2.26,2.6,2.6,0,0,0-2.067-.86,2.748,2.748,0,0,0-2.223.99,4.03,4.03,0,0,0-.828,2.67,3.653,3.653,0,0,0,.891,2.61,3.216,3.216,0,0,0,2.432.94A5.878,5.878,0,0,0,741.381,1102.22Zm-0.219-5.69a2.3,2.3,0,0,1,.444,1.52h-3.634a2.544,2.544,0,0,1,.587-1.51,1.728,1.728,0,0,1,1.335-.54A1.542,1.542,0,0,1,741.162,1096.53Zm9.177,5.67v-4.54a2.59,2.59,0,0,0-.635-1.94,2.653,2.653,0,0,0-1.889-.6,2.919,2.919,0,0,0-1.3.28,2.163,2.163,0,0,0-.907.79h-0.051l-0.171-.95H744.53v6.96h1.052v-3.65a2.967,2.967,0,0,1,.508-1.95,2.008,2.008,0,0,1,1.6-.59,1.573,1.573,0,0,1,1.211.42,1.814,1.814,0,0,1,.387,1.27v4.5h1.053Zm3.589-1.08a1.4,1.4,0,0,1-.3-0.96v-4.1h2.017v-0.82H753.63v-1.61h-0.609l-0.444,1.49-1,.43v0.51h1v4.14a1.834,1.834,0,0,0,2.017,2.13,3.415,3.415,0,0,0,.6-0.06,1.918,1.918,0,0,0,.5-0.13v-0.81a3.8,3.8,0,0,1-.412.09,4.66,4.66,0,0,1-.539.04A1.053,1.053,0,0,1,753.928,1101.12Zm4.211-5.88h-1.053v6.96h1.053v-6.96Zm-0.964-1.35a0.656,0.656,0,0,0,.881,0,0.713,0.713,0,0,0,.184-0.53,0.683,0.683,0,0,0-.184-0.53,0.656,0.656,0,0,0-.881,0,0.7,0.7,0,0,0-.178.53A0.732,0.732,0,0,0,757.175,1093.89Zm6.329,1.35h-1.769v-0.45a2.207,2.207,0,0,1,.285-1.27,1,1,0,0,1,.881-0.4,3.527,3.527,0,0,1,1.04.2l0.273-.85a4.9,4.9,0,0,0-1.294-.22c-1.492,0-2.238.86-2.238,2.57v0.38l-1.243.39v0.47h1.243v6.14h1.053v-6.14H763.5v-0.82Zm2.968,7-0.387.99a1.612,1.612,0,0,1-1.547,1.22,3.7,3.7,0,0,1-.78-0.08v0.84a3.8,3.8,0,0,0,.951.11,2.19,2.19,0,0,0,1.455-.49,3.939,3.939,0,0,0,1.037-1.67l2.987-7.92h-1.129q-1.458,4.035-1.722,4.82t-0.345,1.11h-0.051a15.338,15.338,0,0,0-.621-1.96l-1.522-3.97h-1.129Zm-52.582,11.54a5.121,5.121,0,0,0-2.007-1.12,7.067,7.067,0,0,1-1.291-.56,1.712,1.712,0,0,1-.6-0.57,1.561,1.561,0,0,1-.178-0.79,1.211,1.211,0,0,1,.482-1.02,2.132,2.132,0,0,1,1.338-.37,5.773,5.773,0,0,1,2.233.48l0.336-.94a6.42,6.42,0,0,0-2.543-.5,3.362,3.362,0,0,0-2.131.63,2.055,2.055,0,0,0-.8,1.71,2.4,2.4,0,0,0,.554,1.65,4.35,4.35,0,0,0,1.849,1.1,9.407,9.407,0,0,1,1.379.59,1.911,1.911,0,0,1,.647.57,1.477,1.477,0,0,1,.194.79,1.337,1.337,0,0,1-.546,1.14,2.7,2.7,0,0,1-1.623.41,6.759,6.759,0,0,1-1.332-.14,6.52,6.52,0,0,1-1.243-.38v1.04a6.078,6.078,0,0,0,2.537.43,3.831,3.831,0,0,0,2.41-.69,2.277,2.277,0,0,0,.887-1.91A2.212,2.212,0,0,0,713.89,1113.78Zm3.713,2.94a1.4,1.4,0,0,1-.3-0.96v-4.1h2.017v-0.82h-2.017v-1.61H716.7l-0.444,1.49-1,.43v0.51h1v4.14a1.834,1.834,0,0,0,2.017,2.13,3.415,3.415,0,0,0,.6-0.06,1.918,1.918,0,0,0,.5-0.13v-0.81a3.8,3.8,0,0,1-.412.09,4.66,4.66,0,0,1-.539.04A1.053,1.053,0,0,1,717.6,1116.72Zm8.212,1.08v-4.75a2.309,2.309,0,0,0-.6-1.77,2.636,2.636,0,0,0-1.842-.55,4.688,4.688,0,0,0-1.227.16,4.962,4.962,0,0,0-1.126.43l0.324,0.81a4.649,4.649,0,0,1,1.965-.53,1.449,1.449,0,0,1,1.126.39,1.758,1.758,0,0,1,.352,1.21v0.43l-1.18.04c-2.244.06-3.367,0.8-3.367,2.21a1.931,1.931,0,0,0,.587,1.51,2.3,2.3,0,0,0,1.62.54,3.057,3.057,0,0,0,1.29-.24,2.809,2.809,0,0,0,1.037-.88h0.051l0.209,0.99h0.78Zm-4.125-1.04a1.091,1.091,0,0,1-.345-0.87,1.179,1.179,0,0,1,.554-1.08,3.842,3.842,0,0,1,1.811-.39l1.053-.04v0.63a2,2,0,0,1-.562,1.51,2.134,2.134,0,0,1-1.544.54A1.43,1.43,0,0,1,721.69,1116.76Zm7.284-2.52q0.049-.735.05-1.08v-5.24h-1.04v9.88h1.04v-2.6l0.793-.69,2.454,3.29h1.275l-3.012-3.99,2.815-2.97H732.1l-2.245,2.38a12.245,12.245,0,0,0-.831,1.02h-0.05Zm9.965,3.58a5.591,5.591,0,0,0,1.056-.34v-0.94a5.646,5.646,0,0,1-2.219.47,2.15,2.15,0,0,1-1.652-.64,2.752,2.752,0,0,1-.619-1.86h4.788v-0.67a3.281,3.281,0,0,0-.761-2.26,2.6,2.6,0,0,0-2.067-.86,2.749,2.749,0,0,0-2.223.99,4.035,4.035,0,0,0-.827,2.67,3.653,3.653,0,0,0,.891,2.61,3.214,3.214,0,0,0,2.432.94A5.868,5.868,0,0,0,738.939,1117.82Zm-0.218-5.69a2.3,2.3,0,0,1,.444,1.52h-3.634a2.537,2.537,0,0,1,.586-1.51,1.728,1.728,0,0,1,1.335-.54A1.543,1.543,0,0,1,738.721,1112.13Zm9.176,5.67v-4.54a2.572,2.572,0,0,0-.637-1.93,2.7,2.7,0,0,0-1.912-.6,2.783,2.783,0,0,0-1.31.29,2.1,2.1,0,0,0-.885.79H743.09a6.593,6.593,0,0,0,.051-0.9v-2.99h-1.053v9.88h1.053v-3.64a3,3,0,0,1,.5-1.95,1.978,1.978,0,0,1,1.6-.6,1.574,1.574,0,0,1,1.212.42,1.819,1.819,0,0,1,.386,1.27v4.5H747.9Zm7.3-6.11a2.927,2.927,0,0,0-2.317-.97,3.005,3.005,0,0,0-2.359.94,3.851,3.851,0,0,0-.85,2.65,4.357,4.357,0,0,0,.393,1.92,2.864,2.864,0,0,0,1.116,1.26,3.151,3.151,0,0,0,1.655.44,3.008,3.008,0,0,0,2.366-.96,3.849,3.849,0,0,0,.856-2.66A3.8,3.8,0,0,0,755.2,1111.69Zm-3.909.6a1.86,1.86,0,0,1,1.56-.68,1.881,1.881,0,0,1,1.582.69,3.229,3.229,0,0,1,.536,2.01,3.286,3.286,0,0,1-.536,2.04,2.127,2.127,0,0,1-3.136,0,3.34,3.34,0,0,1-.533-2.04A3.263,3.263,0,0,1,751.29,1112.29Zm7.667-4.37H757.9v9.88h1.053v-9.88Zm7.1,9.88h0.856v-9.88h-1.053v2.83l0.025,0.49,0.045,0.5H765.85a2.826,2.826,0,0,0-4.287-.07,4.159,4.159,0,0,0-.761,2.67,4.091,4.091,0,0,0,.758,2.65,2.561,2.561,0,0,0,2.121.94,2.488,2.488,0,0,0,2.182-1.06h0.057Zm-3.679-1.44a3.425,3.425,0,0,1-.488-2.01,3.579,3.579,0,0,1,.492-2.03,1.61,1.61,0,0,1,1.417-.72,1.869,1.869,0,0,1,1.57.63,3.486,3.486,0,0,1,.491,2.11v0.22a2.989,2.989,0,0,1-.485,1.9,1.919,1.919,0,0,1-1.563.58A1.639,1.639,0,0,1,762.381,1116.36Zm10.9,1.46a5.591,5.591,0,0,0,1.056-.34v-0.94a5.651,5.651,0,0,1-2.22.47,2.152,2.152,0,0,1-1.652-.64,2.747,2.747,0,0,1-.618-1.86h4.788v-0.67a3.286,3.286,0,0,0-.761-2.26,2.6,2.6,0,0,0-2.068-.86,2.746,2.746,0,0,0-2.222.99,4.03,4.03,0,0,0-.828,2.67,3.653,3.653,0,0,0,.891,2.61,3.216,3.216,0,0,0,2.432.94A5.885,5.885,0,0,0,773.286,1117.82Zm-0.219-5.69a2.3,2.3,0,0,1,.444,1.52h-3.634a2.538,2.538,0,0,1,.587-1.51,1.728,1.728,0,0,1,1.335-.54A1.542,1.542,0,0,1,773.067,1112.13Zm5.34-1.05a3.122,3.122,0,0,0-.932,1.05h-0.051l-0.121-1.29h-0.868v6.96h1.052v-3.73a2.513,2.513,0,0,1,.6-1.71,1.845,1.845,0,0,1,1.442-.69,3.858,3.858,0,0,1,.761.1l0.146-.98a4.2,4.2,0,0,0-.831-0.07A2.129,2.129,0,0,0,778.407,1111.08Zm7.378,3.67a4.753,4.753,0,0,0-1.671-.91,9.489,9.489,0,0,1-1.217-.51,1.431,1.431,0,0,1-.46-0.37,0.792,0.792,0,0,1-.143-0.48,0.74,0.74,0,0,1,.381-0.65,2.252,2.252,0,0,1,1.129-.23,4.988,4.988,0,0,1,1.9.43l0.374-.86a5.62,5.62,0,0,0-2.194-.45,3.2,3.2,0,0,0-1.9.49,1.556,1.556,0,0,0-.692,1.34,1.6,1.6,0,0,0,.2.82,1.862,1.862,0,0,0,.609.61,7.37,7.37,0,0,0,1.379.63,5.491,5.491,0,0,1,1.373.69,0.9,0.9,0,0,1-.092,1.49,2.457,2.457,0,0,1-1.268.27,4.378,4.378,0,0,1-1.107-.15,5.34,5.34,0,0,1-1.075-.4v0.98a4.432,4.432,0,0,0,2.156.44,3.406,3.406,0,0,0,2.03-.53,1.742,1.742,0,0,0,.723-1.5A1.614,1.614,0,0,0,785.785,1114.75Z" transform="translate(-592 -1056.5)"/>
  <path id="Shape_127_copy" data-name="Shape 127 copy" class="cls-5" d="M801.8,1105v-1h23.977v1H801.8Zm24.306-1.38-0.658.76-7.993-7,0.658-.76Z" transform="translate(-592 -1056.5)"/>
  <path id="Shape_128_copy" data-name="Shape 128 copy" class="cls-5" d="M824.453,1103.62l0.658,0.76-7.993,7-0.658-.76Z" transform="translate(-592 -1056.5)"/>
  <path class="cls-5" d="M669.928,1105v-1h23.977v1H669.928Z" transform="translate(-592 -1056.5)"/>
  <ellipse id="Circle_BG" data-name="Circle BG" class="cls-7" cx="39.969" cy="48.5" rx="37.969" ry="38"/>
  <path id="Start" class="cls-2" d="M623.511,1104.98a5.121,5.121,0,0,0-2.007-1.12,7.067,7.067,0,0,1-1.291-.56,1.628,1.628,0,0,1-.6-0.57,1.551,1.551,0,0,1-.178-0.79,1.211,1.211,0,0,1,.482-1.02,2.129,2.129,0,0,1,1.338-.37,5.773,5.773,0,0,1,2.233.48l0.336-.94a6.42,6.42,0,0,0-2.543-.5,3.362,3.362,0,0,0-2.131.63,2.056,2.056,0,0,0-.806,1.71,2.449,2.449,0,0,0,.555,1.66,4.442,4.442,0,0,0,1.849,1.09,9.407,9.407,0,0,1,1.379.59,1.921,1.921,0,0,1,.647.57,1.477,1.477,0,0,1,.193.79,1.336,1.336,0,0,1-.545,1.14,2.706,2.706,0,0,1-1.623.41,6.759,6.759,0,0,1-1.332-.14,6.5,6.5,0,0,1-1.243-.38v1.04a5.92,5.92,0,0,0,2.537.43,3.828,3.828,0,0,0,2.409-.69,2.275,2.275,0,0,0,.888-1.91A2.216,2.216,0,0,0,623.511,1104.98Zm3.713,2.94a1.385,1.385,0,0,1-.3-0.96v-4.1h2.016v-0.82h-2.016v-1.61h-0.609l-0.444,1.49-1,.43v0.51h1V1107a1.834,1.834,0,0,0,2.017,2.13,3.415,3.415,0,0,0,.6-0.06,1.918,1.918,0,0,0,.5-0.13v-0.81a3.8,3.8,0,0,1-.412.09,4.677,4.677,0,0,1-.539.04A1.019,1.019,0,0,1,627.224,1107.92Zm8.212,1.08v-4.75a2.312,2.312,0,0,0-.6-1.77,2.638,2.638,0,0,0-1.842-.55,4.688,4.688,0,0,0-1.227.16,4.536,4.536,0,0,0-1.126.44l0.323,0.8a4.657,4.657,0,0,1,1.966-.53,1.449,1.449,0,0,1,1.126.39,1.758,1.758,0,0,1,.352,1.21v0.43l-1.18.04c-2.245.07-3.367,0.8-3.367,2.21a1.93,1.93,0,0,0,.586,1.51,2.3,2.3,0,0,0,1.621.54,3.23,3.23,0,0,0,1.29-.23,2.958,2.958,0,0,0,1.037-.89h0.051l0.209,0.99h0.78Zm-4.125-1.04a1.088,1.088,0,0,1-.346-0.87,1.18,1.18,0,0,1,.555-1.08,3.842,3.842,0,0,1,1.811-.39l1.052-.04v0.63a2.008,2.008,0,0,1-.561,1.51,2.134,2.134,0,0,1-1.544.54A1.428,1.428,0,0,1,631.311,1107.96Zm8.266-5.68a3.144,3.144,0,0,0-.932,1.05h-0.051l-0.12-1.29h-0.869V1109h1.053v-3.73a2.518,2.518,0,0,1,.6-1.71,1.847,1.847,0,0,1,1.443-.69,3.867,3.867,0,0,1,.761.1l0.146-.98a4.212,4.212,0,0,0-.831-0.07A2.132,2.132,0,0,0,639.577,1102.28Zm4.757,5.64a1.385,1.385,0,0,1-.3-0.96v-4.1h2.016v-0.82h-2.016v-1.61h-0.609l-0.444,1.49-1,.43v0.51h1V1107a1.834,1.834,0,0,0,2.016,2.13,3.416,3.416,0,0,0,.6-0.06,1.918,1.918,0,0,0,.5-0.13v-0.81a3.856,3.856,0,0,1-.412.09,4.677,4.677,0,0,1-.539.04A1.019,1.019,0,0,1,644.334,1107.92Z" transform="translate(-592 -1056.5)"/>
  <g id="Connecting_lines" data-name="Connecting lines">
    <path class="cls-5" d="M931.681,1106v-1h24.976v1H931.681Zm23.977-1h1v52h-1v-52Zm0,51v1H669.928v-1h285.73Zm-285.73,1h1v51h-1v-51Z" transform="translate(-592 -1056.5)"/>
    <path id="Shape_127_copy_4" data-name="Shape 127 copy 4" class="cls-5" d="M669.928,1208v-1h23.977v1H669.928Zm24.306-1.38-0.657.76-7.993-7,0.658-.76Z" transform="translate(-592 -1056.5)"/>
    <path id="Shape_128_copy_4" data-name="Shape 128 copy 4" class="cls-5" d="M692.577,1206.62l0.658,0.76-7.992,7-0.658-.76Z" transform="translate(-592 -1056.5)"/>
    <path id="Shape_127_copy_5" data-name="Shape 127 copy 5" class="cls-5" d="M800.8,1208v-1h24.977v1H800.8Zm25.306-1.38-0.658.76-7.993-7,0.658-.76Z" transform="translate(-592 -1056.5)"/>
    <path id="Shape_128_copy_5" data-name="Shape 128 copy 5" class="cls-5" d="M824.453,1206.62l0.658,0.76-7.993,7-0.658-.76Z" transform="translate(-592 -1056.5)"/>
    <path id="Shape_127_copy_6" data-name="Shape 127 copy 6" class="cls-5" d="M932.68,1208v-1h24.976v1H932.68Zm25.305-1.38-0.658.76-7.992-7,0.658-.76Z" transform="translate(-592 -1056.5)"/>
    <path id="Shape_128_copy_6" data-name="Shape 128 copy 6" class="cls-5" d="M956.328,1206.62l0.658,0.76-7.992,7-0.658-.76Z" transform="translate(-592 -1056.5)"/>
  </g>
</svg>
