<svg id="Flow_Chart_-_Plan_Initiate" data-name="Flow Chart - Plan Initiate" xmlns="http://www.w3.org/2000/svg" xmlns:xlink="http://www.w3.org/1999/xlink" width="366" height="188" viewBox="0 0 366 188">
  <defs>
    <style>
      .cls-1, .cls-3, .cls-4, .cls-5, .cls-7 {
        fill: #f2f2f2;
      }

      .cls-1 {
        filter: url(#filter);
      }

      .cls-2 {
        fill: #6b6b6b;
      }

      .cls-2, .cls-6 {
        fill-rule: evenodd;
      }

      .cls-3 {
        filter: url(#filter-2);
      }

      .cls-4 {
        filter: url(#filter-3);
      }

      .cls-5 {
        filter: url(#filter-4);
      }

      .cls-6 {
        fill: #01a9da;
      }

      .cls-7 {
        filter: url(#filter-5);
      }
    </style>
    <filter id="filter" x="231" y="103" width="115" height="85" filterUnits="userSpaceOnUse">
      <feOffset result="offset" dx="0.5" dy="0.866" in="SourceAlpha"/>
      <feGaussianBlur result="blur" stdDeviation="2"/>
      <feFlood result="flood" flood-opacity="0.26"/>
      <feComposite result="composite" operator="in" in2="blur"/>
      <feBlend result="blend" in="SourceGraphic"/>
    </filter>
    <filter id="filter-2" x="99" y="103" width="115" height="85" filterUnits="userSpaceOnUse">
      <feOffset result="offset" dx="0.5" dy="0.866" in="SourceAlpha"/>
      <feGaussianBlur result="blur" stdDeviation="2"/>
      <feFlood result="flood" flood-opacity="0.26"/>
      <feComposite result="composite" operator="in" in2="blur"/>
      <feBlend result="blend" in="SourceGraphic"/>
    </filter>
    <filter id="filter-3" x="231" y="0" width="115" height="85" filterUnits="userSpaceOnUse">
      <feOffset result="offset" dx="0.5" dy="0.866" in="SourceAlpha"/>
      <feGaussianBlur result="blur" stdDeviation="2"/>
      <feFlood result="flood" flood-opacity="0.26"/>
      <feComposite result="composite" operator="in" in2="blur"/>
      <feBlend result="blend" in="SourceGraphic"/>
    </filter>
    <filter id="filter-4" x="99" y="0" width="115" height="85" filterUnits="userSpaceOnUse">
      <feOffset result="offset" dx="0.5" dy="0.866" in="SourceAlpha"/>
      <feGaussianBlur result="blur" stdDeviation="2"/>
      <feFlood result="flood" flood-opacity="0.26"/>
      <feComposite result="composite" operator="in" in2="blur"/>
      <feBlend result="blend" in="SourceGraphic"/>
    </filter>
    <filter id="filter-5" x="0" y="1" width="83" height="83" filterUnits="userSpaceOnUse">
      <feOffset result="offset" dx="0.5" dy="0.866" in="SourceAlpha"/>
      <feGaussianBlur result="blur" stdDeviation="2"/>
      <feFlood result="flood" flood-opacity="0.26"/>
      <feComposite result="composite" operator="in" in2="blur"/>
      <feBlend result="blend" in="SourceGraphic"/>
    </filter>
  </defs>
  <rect id="bg_copy_8" data-name="bg copy 8" class="cls-1" x="233.781" y="105" width="106.907" height="78"/>
  <path id="Plan_and_run_kick-off_meeting" data-name="Plan and run kick-off meeting" class="cls-2" d="M844.205,304.919h-2.4v9.28h1.078V310.55h1.091a4.348,4.348,0,0,0,2.749-.759,2.6,2.6,0,0,0,.961-2.168q0-2.7-3.476-2.7h0Zm-1.325.933h1.205a3.148,3.148,0,0,1,1.877.451,1.6,1.6,0,0,1,.6,1.371,1.707,1.707,0,0,1-.64,1.485,3.6,3.6,0,0,1-2.074.464h-0.97v-3.771Zm7.635-1.53h-1.052V314.2h1.052v-9.877ZM857.8,314.2v-4.748a2.31,2.31,0,0,0-.6-1.771,2.649,2.649,0,0,0-1.843-.552,4.862,4.862,0,0,0-1.227.159,4.949,4.949,0,0,0-1.125.438l0.323,0.806A4.575,4.575,0,0,1,855.3,308a1.449,1.449,0,0,1,1.126.39,1.767,1.767,0,0,1,.351,1.209v0.432l-1.179.038q-3.368.1-3.368,2.209a1.945,1.945,0,0,0,.587,1.517,2.317,2.317,0,0,0,1.62.533,3.169,3.169,0,0,0,1.291-.231,2.94,2.94,0,0,0,1.037-.886h0.051l0.209,0.99h0.78Zm-4.125-1.041a1.082,1.082,0,0,1-.346-0.869,1.178,1.178,0,0,1,.555-1.076,3.823,3.823,0,0,1,1.81-.391l1.053-.044v0.628a2,2,0,0,1-.561,1.511,2.134,2.134,0,0,1-1.544.54A1.431,1.431,0,0,1,853.677,313.158Zm12.1,1.041v-4.538a2.579,2.579,0,0,0-.635-1.939,2.636,2.636,0,0,0-1.889-.607,2.948,2.948,0,0,0-1.3.283,2.144,2.144,0,0,0-.907.8H861l-0.171-.953h-0.856V314.2h1.052V310.55a2.977,2.977,0,0,1,.508-1.949,2,2,0,0,1,1.6-.591,1.577,1.577,0,0,1,1.211.419,1.819,1.819,0,0,1,.387,1.27v4.5h1.053Zm10.59,0v-4.748a2.31,2.31,0,0,0-.6-1.771,2.648,2.648,0,0,0-1.842-.552,4.862,4.862,0,0,0-1.227.159,4.957,4.957,0,0,0-1.126.438l0.323,0.806a4.578,4.578,0,0,1,1.966-.533,1.449,1.449,0,0,1,1.126.39,1.762,1.762,0,0,1,.352,1.209v0.432l-1.18.038q-3.368.1-3.367,2.209a1.945,1.945,0,0,0,.586,1.517,2.319,2.319,0,0,0,1.621.533,3.161,3.161,0,0,0,1.29-.231,2.931,2.931,0,0,0,1.037-.886h0.051l0.209,0.99h0.78Zm-4.125-1.041a1.082,1.082,0,0,1-.346-0.869,1.178,1.178,0,0,1,.555-1.076,3.828,3.828,0,0,1,1.811-.391l1.053-.044v0.628a2,2,0,0,1-.562,1.511,2.134,2.134,0,0,1-1.544.54A1.433,1.433,0,0,1,872.245,313.158Zm12.1,1.041v-4.538a2.579,2.579,0,0,0-.634-1.939,2.64,2.64,0,0,0-1.89-.607,2.948,2.948,0,0,0-1.3.283,2.15,2.15,0,0,0-.907.8h-0.051l-0.171-.953h-0.856V314.2h1.053V310.55a2.983,2.983,0,0,1,.507-1.949,2,2,0,0,1,1.6-.591,1.574,1.574,0,0,1,1.211.419,1.819,1.819,0,0,1,.387,1.27v4.5h1.053Zm7.033,0h0.856v-9.877h-1.053v2.832l0.026,0.488,0.044,0.5h-0.082A2.527,2.527,0,0,0,889,307.115a2.559,2.559,0,0,0-2.118.953,4.173,4.173,0,0,0-.761,2.672,4.1,4.1,0,0,0,.758,2.653,2.579,2.579,0,0,0,2.121.933,2.471,2.471,0,0,0,2.181-1.06h0.057Zm-3.678-1.434a3.434,3.434,0,0,1-.489-2.012,3.586,3.586,0,0,1,.492-2.035,1.611,1.611,0,0,1,1.417-.72,1.866,1.866,0,0,1,1.57.631,3.5,3.5,0,0,1,.491,2.111v0.222a2.965,2.965,0,0,1-.485,1.9,1.916,1.916,0,0,1-1.563.587A1.651,1.651,0,0,1,887.7,312.765Zm12.112-5.281a3.056,3.056,0,0,0-.932,1.047h-0.051l-0.12-1.289h-0.869V314.2H898.9v-3.732a2.507,2.507,0,0,1,.6-1.708,1.853,1.853,0,0,1,1.443-.685,3.615,3.615,0,0,1,.761.095l0.146-.977a4.109,4.109,0,0,0-.831-0.077A2.1,2.1,0,0,0,899.815,307.484Zm3.254-.242v4.552a2.566,2.566,0,0,0,.631,1.929,2.653,2.653,0,0,0,1.9.6,3.018,3.018,0,0,0,1.31-.273,2.1,2.1,0,0,0,.9-0.787h0.057l0.152,0.933h0.869v-6.957h-1.053V310.9a3.01,3.01,0,0,1-.5,1.948,1.975,1.975,0,0,1-1.6.6,1.575,1.575,0,0,1-1.211-.419,1.815,1.815,0,0,1-.387-1.269v-4.514h-1.065Zm13.856,6.957v-4.538a2.579,2.579,0,0,0-.634-1.939,2.64,2.64,0,0,0-1.89-.607,2.948,2.948,0,0,0-1.3.283,2.15,2.15,0,0,0-.907.8h-0.05l-0.172-.953h-0.856V314.2h1.053V310.55a2.983,2.983,0,0,1,.507-1.949,2,2,0,0,1,1.6-.591,1.578,1.578,0,0,1,1.212.419,1.824,1.824,0,0,1,.386,1.27v4.5h1.053Zm-57.538,12.039q0.051-.729.051-1.079v-5.237H858.4V329.8h1.04v-2.6l0.793-.686,2.454,3.288h1.275l-3.013-3.992,2.816-2.965h-1.249l-2.245,2.381a12.5,12.5,0,0,0-.831,1.015h-0.051Zm6.881-3.4h-1.053V329.8h1.053v-6.957Zm-0.964-1.355a0.6,0.6,0,0,0,.444.175,0.613,0.613,0,0,0,.438-0.175,0.7,0.7,0,0,0,.183-0.53,0.691,0.691,0,0,0-.183-0.527,0.658,0.658,0,0,0-.882,0,0.7,0.7,0,0,0-.178.53A0.714,0.714,0,0,0,865.3,321.487Zm7.731,8.078v-0.934a4.676,4.676,0,0,1-1.783.375,1.8,1.8,0,0,1-1.531-.686,3.216,3.216,0,0,1-.517-1.967q0-2.7,2.118-2.7a3.357,3.357,0,0,1,.73.092,4.961,4.961,0,0,1,.761.231l0.323-.895a3.308,3.308,0,0,0-.786-0.254,4.743,4.743,0,0,0-1-.108,3.023,3.023,0,0,0-2.394.953,3.94,3.94,0,0,0-.841,2.7,3.824,3.824,0,0,0,.828,2.631,2.966,2.966,0,0,0,2.337.93,3.8,3.8,0,0,0,1.757-.361h0Zm2.638-3.327q0.05-.729.05-1.079v-5.237h-1.04V329.8h1.04v-2.6l0.793-.686,2.454,3.288h1.275l-3.012-3.992,2.815-2.965H878.8l-2.245,2.381a12.5,12.5,0,0,0-.831,1.015h-0.05Zm8.358,0.559v-0.965h-3.114V326.8h3.114Zm6.789-3.11a2.939,2.939,0,0,0-2.318-.972,3.005,3.005,0,0,0-2.359.949,3.835,3.835,0,0,0-.85,2.651,4.386,4.386,0,0,0,.393,1.917,2.891,2.891,0,0,0,1.116,1.256,3.131,3.131,0,0,0,1.655.438,3.014,3.014,0,0,0,2.366-.955A4.5,4.5,0,0,0,890.82,323.687Zm-3.91.6a1.852,1.852,0,0,1,1.56-.68,1.881,1.881,0,0,1,1.582.689,3.23,3.23,0,0,1,.536,2.016,3.28,3.28,0,0,1-.536,2.034,2.113,2.113,0,0,1-3.136,0,3.307,3.307,0,0,1-.532-2.031A3.269,3.269,0,0,1,886.91,324.29Zm14.148-1.448h-1.769v-0.45a2.22,2.22,0,0,1,.285-1.273,1.015,1.015,0,0,1,.882-0.4,3.49,3.49,0,0,1,1.04.2l0.273-.844a4.609,4.609,0,0,0-1.294-.222q-2.24,0-2.239,2.564V322.8l-1.243.381v0.476h1.243V329.8h1.053v-6.138h1.769v-0.819Zm-4.4,0h-1.769v-0.45a2.22,2.22,0,0,1,.285-1.273,1.015,1.015,0,0,1,.882-0.4,3.49,3.49,0,0,1,1.04.2l0.272-.844a4.6,4.6,0,0,0-1.293-.222q-2.239,0-2.239,2.564V322.8l-1.243.381v0.476h1.243V329.8h1.053v-6.138h1.769v-0.819ZM865.472,345.4v-4.538a2.713,2.713,0,0,0-.587-1.939,2.352,2.352,0,0,0-1.766-.607,2.786,2.786,0,0,0-1.344.318,2.214,2.214,0,0,0-.9.863h-0.05a2.066,2.066,0,0,0-2.131-1.181,2.575,2.575,0,0,0-1.215.286,2.076,2.076,0,0,0-.84.794h-0.051l-0.171-.953H855.56V345.4h1.053V341.75a3.212,3.212,0,0,1,.46-1.946,1.716,1.716,0,0,1,1.449-.594,1.379,1.379,0,0,1,1.109.416,1.879,1.879,0,0,1,.356,1.248V345.4h1.052v-3.884a2.688,2.688,0,0,1,.47-1.74,1.78,1.78,0,0,1,1.452-.565,1.373,1.373,0,0,1,1.1.416,1.879,1.879,0,0,1,.355,1.248V345.4h1.053Zm6.307,0.023a5.564,5.564,0,0,0,1.056-.346v-0.94a5.6,5.6,0,0,1-2.22.47,2.138,2.138,0,0,1-1.652-.635,2.758,2.758,0,0,1-.618-1.86h4.788v-0.666a3.3,3.3,0,0,0-.761-2.269,2.621,2.621,0,0,0-2.068-.861,2.747,2.747,0,0,0-2.222.991,4.034,4.034,0,0,0-.828,2.672,3.639,3.639,0,0,0,.891,2.609,3.193,3.193,0,0,0,2.432.939A6,6,0,0,0,871.779,345.422Zm-0.219-5.694a2.316,2.316,0,0,1,.444,1.526H868.37a2.514,2.514,0,0,1,.587-1.51,1.719,1.719,0,0,1,1.335-.546A1.563,1.563,0,0,1,871.56,339.728Zm7.505,5.694a5.564,5.564,0,0,0,1.056-.346v-0.94a5.594,5.594,0,0,1-2.219.47,2.137,2.137,0,0,1-1.652-.635,2.764,2.764,0,0,1-.619-1.86h4.788v-0.666a3.293,3.293,0,0,0-.761-2.269,2.617,2.617,0,0,0-2.067-.861,2.75,2.75,0,0,0-2.223.991,4.039,4.039,0,0,0-.827,2.672,3.639,3.639,0,0,0,.891,2.609,3.192,3.192,0,0,0,2.432.939A5.988,5.988,0,0,0,879.065,345.422Zm-0.218-5.694a2.316,2.316,0,0,1,.444,1.526h-3.634a2.514,2.514,0,0,1,.586-1.51,1.719,1.719,0,0,1,1.335-.546A1.564,1.564,0,0,1,878.847,339.728Zm4.794,4.592a1.408,1.408,0,0,1-.3-0.965v-4.094h2.017v-0.819h-2.017V336.83h-0.609l-0.444,1.485-1,.438v0.508h1V343.4a1.832,1.832,0,0,0,2.017,2.126,3.782,3.782,0,0,0,.6-0.054,1.924,1.924,0,0,0,.5-0.136V344.53a3.521,3.521,0,0,1-.412.085,3.373,3.373,0,0,1-.539.042A1.035,1.035,0,0,1,883.641,344.32Zm4.211-5.878H886.8V345.4h1.053v-6.957Zm-0.964-1.355a0.642,0.642,0,0,0,.881,0,0.7,0.7,0,0,0,.184-0.53,0.688,0.688,0,0,0-.184-0.527,0.657,0.657,0,0,0-.881,0,0.7,0.7,0,0,0-.178.53A0.71,0.71,0,0,0,886.888,337.087Zm9,8.312v-4.538a2.579,2.579,0,0,0-.634-1.939,2.64,2.64,0,0,0-1.89-.607,2.948,2.948,0,0,0-1.3.283,2.15,2.15,0,0,0-.907.8h-0.051l-0.171-.953h-0.856V345.4h1.053V341.75a2.983,2.983,0,0,1,.507-1.949,2,2,0,0,1,1.6-.591,1.574,1.574,0,0,1,1.211.419,1.819,1.819,0,0,1,.387,1.27v4.5h1.053Zm5.448-6.957a3.554,3.554,0,0,0-.983-0.127,2.8,2.8,0,0,0-1.941.619,2.252,2.252,0,0,0-.685,1.762,2.225,2.225,0,0,0,.339,1.219,1.881,1.881,0,0,0,.879.755,2.139,2.139,0,0,0-.641.552,1.126,1.126,0,0,0-.2.667,0.994,0.994,0,0,0,.181.59,1.116,1.116,0,0,0,.447.375,2.063,2.063,0,0,0-1.141.628,1.61,1.61,0,0,0-.406,1.1,1.64,1.64,0,0,0,.739,1.435,3.691,3.691,0,0,0,2.1.507,4.95,4.95,0,0,0,2.7-.606,1.974,1.974,0,0,0,.926-1.761,1.657,1.657,0,0,0-.605-1.384,2.757,2.757,0,0,0-1.735-.476h-1.23a1.7,1.7,0,0,1-.806-0.137,0.453,0.453,0,0,1-.234-0.422,1.038,1.038,0,0,1,.672-0.895,3.171,3.171,0,0,0,.583.051,2.815,2.815,0,0,0,1.916-.609,2.059,2.059,0,0,0,.7-1.632,2.262,2.262,0,0,0-.456-1.39l1.287-.152v-0.667h-2.4Zm-2.74,7.142a1.657,1.657,0,0,1,1.116-.343h1.262a2.708,2.708,0,0,1,1.313.219,0.853,0.853,0,0,1,.349.784A1.217,1.217,0,0,1,902,347.32a3.808,3.808,0,0,1-1.963.4,2.62,2.62,0,0,1-1.363-.292,0.944,0.944,0,0,1-.476-0.857A1.225,1.225,0,0,1,898.6,345.584Zm0.571-6.1a1.545,1.545,0,0,1,1.141-.4,1.382,1.382,0,0,1,1.56,1.567,1.343,1.343,0,0,1-1.541,1.5,1.645,1.645,0,0,1-1.148-.374,1.418,1.418,0,0,1-.412-1.1A1.611,1.611,0,0,1,899.172,339.483Z" transform="translate(-592 -182)"/>
  <rect id="bg_copy_7" data-name="bg copy 7" class="cls-3" x="101.906" y="105" width="106.906" height="78"/>
  <path id="Identify_and_recruit_project_team" data-name="Identify and recruit project team" class="cls-2" d="M726.9,314.2v-9.28h-1.078v9.28H726.9Zm7.255,0h0.856v-9.877h-1.053v2.832l0.025,0.488,0.045,0.5h-0.083a2.525,2.525,0,0,0-2.168-1.029,2.562,2.562,0,0,0-2.119.953,4.179,4.179,0,0,0-.761,2.672,4.11,4.11,0,0,0,.758,2.653,2.581,2.581,0,0,0,2.122.933,2.471,2.471,0,0,0,2.181-1.06h0.057Zm-3.678-1.434a3.434,3.434,0,0,1-.489-2.012,3.586,3.586,0,0,1,.492-2.035A1.61,1.61,0,0,1,731.9,308a1.866,1.866,0,0,1,1.57.631,3.5,3.5,0,0,1,.491,2.111v0.222a2.971,2.971,0,0,1-.485,1.9,1.917,1.917,0,0,1-1.563.587A1.651,1.651,0,0,1,730.477,312.765Zm10.9,1.457a5.564,5.564,0,0,0,1.056-.346v-0.94a5.6,5.6,0,0,1-2.22.47,2.138,2.138,0,0,1-1.652-.635,2.758,2.758,0,0,1-.618-1.86h4.788v-0.666a3.3,3.3,0,0,0-.761-2.269,2.619,2.619,0,0,0-2.067-.861,2.749,2.749,0,0,0-2.223.991,4.034,4.034,0,0,0-.828,2.672,3.639,3.639,0,0,0,.891,2.609,3.193,3.193,0,0,0,2.432.939A5.992,5.992,0,0,0,741.381,314.222Zm-0.219-5.694a2.316,2.316,0,0,1,.444,1.526h-3.634a2.521,2.521,0,0,1,.587-1.51,1.719,1.719,0,0,1,1.335-.546A1.563,1.563,0,0,1,741.162,308.528Zm9.177,5.671v-4.538a2.579,2.579,0,0,0-.635-1.939,2.636,2.636,0,0,0-1.889-.607,2.948,2.948,0,0,0-1.3.283,2.144,2.144,0,0,0-.907.8h-0.051l-0.171-.953H744.53V314.2h1.052V310.55a2.977,2.977,0,0,1,.508-1.949,2,2,0,0,1,1.6-.591,1.577,1.577,0,0,1,1.211.419,1.819,1.819,0,0,1,.387,1.27v4.5h1.053Zm3.589-1.079a1.408,1.408,0,0,1-.3-0.965v-4.094h2.017v-0.819H753.63V305.63h-0.609l-0.444,1.485-1,.438v0.508h1V312.2a1.832,1.832,0,0,0,2.017,2.126,3.782,3.782,0,0,0,.6-0.054,1.924,1.924,0,0,0,.5-0.136V313.33a3.521,3.521,0,0,1-.412.085,3.373,3.373,0,0,1-.539.042A1.035,1.035,0,0,1,753.928,313.12Zm4.211-5.878h-1.053V314.2h1.053v-6.957Zm-0.964-1.355a0.642,0.642,0,0,0,.881,0,0.7,0.7,0,0,0,.184-0.53,0.688,0.688,0,0,0-.184-0.527,0.657,0.657,0,0,0-.881,0,0.7,0.7,0,0,0-.178.53A0.714,0.714,0,0,0,757.175,305.887Zm6.329,1.355h-1.769v-0.45a2.22,2.22,0,0,1,.285-1.273,1.013,1.013,0,0,1,.881-0.4,3.479,3.479,0,0,1,1.04.2l0.273-.844a4.6,4.6,0,0,0-1.294-.222q-2.238,0-2.238,2.564V307.2l-1.243.381v0.476h1.243V314.2h1.053v-6.138H763.5v-0.819Zm2.968,7-0.387.99a1.608,1.608,0,0,1-1.547,1.218,3.645,3.645,0,0,1-.78-0.076v0.845a4.273,4.273,0,0,0,.951.107,2.206,2.206,0,0,0,1.455-.491,3.959,3.959,0,0,0,1.037-1.667l2.987-7.922h-1.129q-1.458,4.038-1.722,4.821t-0.345,1.108h-0.051a15,15,0,0,0-.621-1.961l-1.522-3.968h-1.129ZM720.323,329.8v-4.748a2.307,2.307,0,0,0-.6-1.771,2.644,2.644,0,0,0-1.842-.552,4.862,4.862,0,0,0-1.227.159,4.975,4.975,0,0,0-1.126.438l0.324,0.806a4.585,4.585,0,0,1,1.966-.533,1.446,1.446,0,0,1,1.125.39,1.762,1.762,0,0,1,.352,1.209v0.432l-1.179.038q-3.368.1-3.368,2.209a1.945,1.945,0,0,0,.587,1.517,2.317,2.317,0,0,0,1.62.533,3.169,3.169,0,0,0,1.291-.231,2.929,2.929,0,0,0,1.036-.886h0.051l0.209,0.99h0.78Zm-4.125-1.041a1.084,1.084,0,0,1-.345-0.869,1.178,1.178,0,0,1,.555-1.076,3.82,3.82,0,0,1,1.81-.391l1.053-.044v0.628a2,2,0,0,1-.561,1.511,2.137,2.137,0,0,1-1.545.54A1.435,1.435,0,0,1,716.2,328.758Zm12.1,1.041v-4.538a2.579,2.579,0,0,0-.634-1.939,2.64,2.64,0,0,0-1.89-.607,2.951,2.951,0,0,0-1.3.283,2.15,2.15,0,0,0-.907.8h-0.05l-0.172-.953h-0.856V329.8h1.053V326.15a2.983,2.983,0,0,1,.507-1.949,2,2,0,0,1,1.6-.591,1.578,1.578,0,0,1,1.212.419,1.819,1.819,0,0,1,.387,1.27v4.5H728.3Zm7.033,0h0.856v-9.877h-1.052v2.832l0.025,0.488,0.044,0.5h-0.082a2.526,2.526,0,0,0-2.169-1.029,2.559,2.559,0,0,0-2.118.953,4.179,4.179,0,0,0-.761,2.672,4.11,4.11,0,0,0,.758,2.653,2.579,2.579,0,0,0,2.121.933,2.474,2.474,0,0,0,2.182-1.06H735.2Zm-3.678-1.434a3.435,3.435,0,0,1-.488-2.012,3.594,3.594,0,0,1,.491-2.035,1.612,1.612,0,0,1,1.418-.72,1.866,1.866,0,0,1,1.569.631,3.492,3.492,0,0,1,.492,2.111v0.222a2.964,2.964,0,0,1-.486,1.895,1.916,1.916,0,0,1-1.563.587A1.653,1.653,0,0,1,731.656,328.365Zm12.113-5.281a3.049,3.049,0,0,0-.933,1.047h-0.05l-0.121-1.289H741.8V329.8h1.053v-3.732a2.507,2.507,0,0,1,.6-1.708,1.853,1.853,0,0,1,1.443-.685,3.607,3.607,0,0,1,.761.1l0.146-.977a4.1,4.1,0,0,0-.831-0.077A2.092,2.092,0,0,0,743.769,323.084Zm7.467,6.738a5.564,5.564,0,0,0,1.056-.346v-0.94a5.6,5.6,0,0,1-2.22.47,2.138,2.138,0,0,1-1.652-.635,2.758,2.758,0,0,1-.618-1.86h4.788v-0.666a3.3,3.3,0,0,0-.761-2.269,2.619,2.619,0,0,0-2.067-.861,2.747,2.747,0,0,0-2.223.991,4.034,4.034,0,0,0-.828,2.672,3.639,3.639,0,0,0,.891,2.609,3.193,3.193,0,0,0,2.432.939A6,6,0,0,0,751.236,329.822Zm-0.219-5.694a2.316,2.316,0,0,1,.444,1.526h-3.634a2.514,2.514,0,0,1,.587-1.51,1.719,1.719,0,0,1,1.335-.546A1.563,1.563,0,0,1,751.017,324.128Zm7.9,5.437v-0.934a4.675,4.675,0,0,1-1.782.375,1.8,1.8,0,0,1-1.532-.686,3.223,3.223,0,0,1-.516-1.967q0-2.7,2.118-2.7a3.356,3.356,0,0,1,.729.092,4.927,4.927,0,0,1,.761.231l0.323-.895a3.308,3.308,0,0,0-.786-0.254,4.743,4.743,0,0,0-1-.108,3.023,3.023,0,0,0-2.394.953,3.945,3.945,0,0,0-.84,2.7,3.828,3.828,0,0,0,.827,2.631,2.966,2.966,0,0,0,2.337.93,3.8,3.8,0,0,0,1.757-.361h0Zm3.621-6.481a3.046,3.046,0,0,0-.932,1.047h-0.051l-0.12-1.289h-0.869V329.8h1.052v-3.732a2.5,2.5,0,0,1,.6-1.708,1.85,1.85,0,0,1,1.442-.685,3.607,3.607,0,0,1,.761.1l0.146-.977a4.091,4.091,0,0,0-.83-0.077A2.1,2.1,0,0,0,762.54,323.084Zm3.253-.242v4.552a2.57,2.57,0,0,0,.631,1.929,2.657,2.657,0,0,0,1.9.6,3.013,3.013,0,0,0,1.309-.273,2.084,2.084,0,0,0,.9-0.787h0.058l0.152,0.933h0.869v-6.957h-1.053V326.5a3.01,3.01,0,0,1-.5,1.948,1.975,1.975,0,0,1-1.6.6,1.578,1.578,0,0,1-1.212-.419,1.819,1.819,0,0,1-.386-1.269v-4.514h-1.066Zm9.1,0h-1.053V329.8h1.053v-6.957Zm-0.964-1.355a0.6,0.6,0,0,0,.444.175,0.611,0.611,0,0,0,.437-0.175,0.7,0.7,0,0,0,.184-0.53,0.688,0.688,0,0,0-.184-0.527,0.657,0.657,0,0,0-.881,0,0.7,0.7,0,0,0-.178.53A0.71,0.71,0,0,0,773.93,321.487Zm4.623,7.233a1.408,1.408,0,0,1-.3-0.965v-4.094h2.016v-0.819h-2.016V321.23h-0.609l-0.444,1.485-1,.438v0.508h1V327.8a1.832,1.832,0,0,0,2.017,2.126,3.782,3.782,0,0,0,.6-0.054,1.924,1.924,0,0,0,.5-0.136V328.93a3.521,3.521,0,0,1-.412.085,3.382,3.382,0,0,1-.539.042A1.033,1.033,0,0,1,778.553,328.72Zm-63.205,15.857a5.037,5.037,0,0,0,.013-5.316,2.569,2.569,0,0,0-2.134-.946,2.87,2.87,0,0,0-1.236.254,2.444,2.444,0,0,0-.945.826H711l-0.146-.953h-0.856v10.08h1.053V345.66a9.5,9.5,0,0,0-.076-1.156h0.076a2.327,2.327,0,0,0,.941.772,3.013,3.013,0,0,0,1.24.25A2.57,2.57,0,0,0,715.348,344.577Zm-0.837-4.671a3.326,3.326,0,0,1,.511,2,3.459,3.459,0,0,1-.511,2.012,1.626,1.626,0,0,1-1.411.73,1.853,1.853,0,0,1-1.566-.632,3.479,3.479,0,0,1-.488-2.1V341.68a3.037,3.037,0,0,1,.488-1.879,1.864,1.864,0,0,1,1.541-.591A1.677,1.677,0,0,1,714.511,339.906Zm5.413-1.222a3.046,3.046,0,0,0-.932,1.047h-0.051l-0.12-1.289h-0.869V345.4H719v-3.732a2.5,2.5,0,0,1,.6-1.708,1.85,1.85,0,0,1,1.442-.685,3.607,3.607,0,0,1,.761.1l0.146-.977a4.091,4.091,0,0,0-.83-0.077A2.1,2.1,0,0,0,719.924,338.684Zm8.469,0.6a2.937,2.937,0,0,0-2.318-.972,3.007,3.007,0,0,0-2.359.949,3.84,3.84,0,0,0-.849,2.651,4.372,4.372,0,0,0,.393,1.917,2.891,2.891,0,0,0,1.116,1.256,3.131,3.131,0,0,0,1.655.438,3.011,3.011,0,0,0,2.365-.955A4.494,4.494,0,0,0,728.393,339.287Zm-3.909.6a1.851,1.851,0,0,1,1.56-.68,1.883,1.883,0,0,1,1.582.689,3.237,3.237,0,0,1,.536,2.016,3.289,3.289,0,0,1-.536,2.034,2.113,2.113,0,0,1-3.136,0,3.307,3.307,0,0,1-.533-2.031A3.269,3.269,0,0,1,724.484,339.89Zm7.667,6.576v-8.024H731.1v8.1a1.241,1.241,0,0,1-.231.822,0.908,0.908,0,0,1-.727.27,3.108,3.108,0,0,1-.862-0.127v0.857a2.528,2.528,0,0,0,.977.158q1.9,0,1.9-2.056h0Zm-0.964-9.379a0.642,0.642,0,0,0,.881,0,0.7,0.7,0,0,0,.184-0.53,0.688,0.688,0,0,0-.184-0.527,0.657,0.657,0,0,0-.881,0,0.7,0.7,0,0,0-.178.53A0.71,0.71,0,0,0,731.187,337.087Zm7.334,8.335a5.564,5.564,0,0,0,1.056-.346v-0.94a5.6,5.6,0,0,1-2.22.47,2.138,2.138,0,0,1-1.652-.635,2.758,2.758,0,0,1-.618-1.86h4.788v-0.666a3.3,3.3,0,0,0-.761-2.269,2.619,2.619,0,0,0-2.068-.861,2.747,2.747,0,0,0-2.222.991,4.034,4.034,0,0,0-.828,2.672,3.639,3.639,0,0,0,.891,2.609,3.193,3.193,0,0,0,2.432.939A6,6,0,0,0,738.521,345.422Zm-0.219-5.694a2.316,2.316,0,0,1,.444,1.526h-3.634a2.514,2.514,0,0,1,.587-1.51,1.719,1.719,0,0,1,1.335-.546A1.563,1.563,0,0,1,738.3,339.728Zm7.9,5.437v-0.934a4.675,4.675,0,0,1-1.782.375,1.8,1.8,0,0,1-1.532-.686,3.225,3.225,0,0,1-.517-1.967q0-2.7,2.119-2.7a3.356,3.356,0,0,1,.729.092,4.927,4.927,0,0,1,.761.231l0.323-.895a3.308,3.308,0,0,0-.786-0.254,4.743,4.743,0,0,0-1-.108,3.023,3.023,0,0,0-2.394.953,3.945,3.945,0,0,0-.84,2.7,3.828,3.828,0,0,0,.827,2.631,2.966,2.966,0,0,0,2.337.93,3.8,3.8,0,0,0,1.757-.361h0Zm3.076-.845a1.408,1.408,0,0,1-.3-0.965v-4.094H751v-0.819h-2.017V336.83h-0.608l-0.444,1.485-1,.438v0.508h1V343.4a1.832,1.832,0,0,0,2.016,2.126,3.784,3.784,0,0,0,.6-0.054,1.924,1.924,0,0,0,.5-0.136V344.53a3.566,3.566,0,0,1-.412.085,3.382,3.382,0,0,1-.539.042A1.033,1.033,0,0,1,749.28,344.32Zm7.958,0a1.413,1.413,0,0,1-.3-0.965v-4.094h2.017v-0.819H756.94V336.83h-0.609l-0.443,1.485-1,.438v0.508h1V343.4a1.832,1.832,0,0,0,2.016,2.126,3.784,3.784,0,0,0,.6-0.054,1.935,1.935,0,0,0,.5-0.136V344.53a3.545,3.545,0,0,1-.413.085,3.373,3.373,0,0,1-.539.042A1.036,1.036,0,0,1,757.238,344.32Zm7.3,1.1a5.564,5.564,0,0,0,1.056-.346v-0.94a5.594,5.594,0,0,1-2.219.47,2.137,2.137,0,0,1-1.652-.635,2.764,2.764,0,0,1-.619-1.86h4.788v-0.666a3.293,3.293,0,0,0-.761-2.269,2.617,2.617,0,0,0-2.067-.861,2.75,2.75,0,0,0-2.223.991,4.039,4.039,0,0,0-.827,2.672,3.639,3.639,0,0,0,.891,2.609,3.192,3.192,0,0,0,2.432.939A5.988,5.988,0,0,0,764.534,345.422Zm-0.218-5.694a2.316,2.316,0,0,1,.444,1.526h-3.634a2.514,2.514,0,0,1,.586-1.51,1.719,1.719,0,0,1,1.335-.546A1.564,1.564,0,0,1,764.316,339.728Zm8.421,5.671v-4.748a2.307,2.307,0,0,0-.6-1.771,2.646,2.646,0,0,0-1.842-.552,4.862,4.862,0,0,0-1.227.159,4.975,4.975,0,0,0-1.126.438l0.323,0.806a4.578,4.578,0,0,1,1.966-.533,1.449,1.449,0,0,1,1.126.39,1.762,1.762,0,0,1,.352,1.209v0.432l-1.18.038q-3.366.1-3.367,2.209a1.945,1.945,0,0,0,.587,1.517,2.317,2.317,0,0,0,1.62.533,3.161,3.161,0,0,0,1.29-.231,2.923,2.923,0,0,0,1.037-.886h0.051l0.209,0.99h0.78Zm-4.125-1.041a1.085,1.085,0,0,1-.346-0.869,1.178,1.178,0,0,1,.555-1.076,3.828,3.828,0,0,1,1.811-.391l1.053-.044v0.628a1.993,1.993,0,0,1-.562,1.511,2.134,2.134,0,0,1-1.544.54A1.433,1.433,0,0,1,768.612,344.358Zm16.206,1.041v-4.538a2.713,2.713,0,0,0-.586-1.939,2.354,2.354,0,0,0-1.767-.607,2.786,2.786,0,0,0-1.344.318,2.211,2.211,0,0,0-.9.863H780.17a2.065,2.065,0,0,0-2.131-1.181,2.568,2.568,0,0,0-1.214.286,2.072,2.072,0,0,0-.841.794h-0.05l-0.172-.953h-0.856V345.4h1.053V341.75a3.212,3.212,0,0,1,.46-1.946,1.716,1.716,0,0,1,1.449-.594,1.383,1.383,0,0,1,1.11.416,1.885,1.885,0,0,1,.355,1.248V345.4h1.052v-3.884a2.688,2.688,0,0,1,.47-1.74,1.783,1.783,0,0,1,1.452-.565,1.371,1.371,0,0,1,1.1.416,1.879,1.879,0,0,1,.356,1.248V345.4h1.052Z" transform="translate(-592 -182)"/>
  <rect id="bg_copy_2" data-name="bg copy 2" class="cls-4" x="233.781" y="2" width="106.907" height="78"/>
  <path id="Develop_Project_Charter" data-name="Develop Project Charter" class="cls-2" d="M861.908,205.119a4.54,4.54,0,0,0-3.361-1.2h-2.841v9.28h2.568a4.927,4.927,0,0,0,3.586-1.215,4.688,4.688,0,0,0,1.247-3.514A4.533,4.533,0,0,0,861.908,205.119Zm-0.913,6.2a3.988,3.988,0,0,1-2.9.949h-1.313v-7.414h1.566a3.644,3.644,0,0,1,2.7.921A4.559,4.559,0,0,1,861,211.317Zm8.158,1.905a5.564,5.564,0,0,0,1.056-.346v-0.94a5.594,5.594,0,0,1-2.219.47,2.137,2.137,0,0,1-1.652-.635,2.759,2.759,0,0,1-.619-1.86h4.788v-0.666a3.293,3.293,0,0,0-.761-2.269,2.617,2.617,0,0,0-2.067-.861,2.75,2.75,0,0,0-2.223.991,4.034,4.034,0,0,0-.827,2.672,3.639,3.639,0,0,0,.891,2.609,3.192,3.192,0,0,0,2.432.939A5.988,5.988,0,0,0,869.153,213.222Zm-0.218-5.694a2.322,2.322,0,0,1,.444,1.526h-3.634a2.514,2.514,0,0,1,.586-1.51,1.719,1.719,0,0,1,1.335-.546A1.564,1.564,0,0,1,868.935,207.528Zm6.119,5.671,2.638-6.957h-1.128q-1.294,3.555-1.665,4.612a14.541,14.541,0,0,0-.441,1.393h-0.051a19.319,19.319,0,0,0-.6-1.879l-1.5-4.126h-1.129l2.638,6.957h1.23Zm7.893,0.023a5.578,5.578,0,0,0,1.055-.346v-0.94a5.594,5.594,0,0,1-2.219.47,2.138,2.138,0,0,1-1.652-.635,2.758,2.758,0,0,1-.618-1.86H884.3v-0.666a3.293,3.293,0,0,0-.761-2.269,2.617,2.617,0,0,0-2.067-.861,2.75,2.75,0,0,0-2.223.991,4.039,4.039,0,0,0-.827,2.672,3.639,3.639,0,0,0,.891,2.609,3.192,3.192,0,0,0,2.432.939A6,6,0,0,0,882.947,213.222Zm-0.219-5.694a2.316,2.316,0,0,1,.444,1.526h-3.634a2.52,2.52,0,0,1,.586-1.51,1.719,1.719,0,0,1,1.335-.546A1.564,1.564,0,0,1,882.728,207.528Zm4.42-4.206H886.1V213.2h1.053v-9.877Zm7.372,3.765a2.937,2.937,0,0,0-2.318-.972,3.007,3.007,0,0,0-2.359.949,3.84,3.84,0,0,0-.85,2.651,4.386,4.386,0,0,0,.393,1.917,2.9,2.9,0,0,0,1.117,1.256,3.129,3.129,0,0,0,1.655.438,3.013,3.013,0,0,0,2.365-.955A4.5,4.5,0,0,0,894.52,207.087Zm-3.91.6a1.852,1.852,0,0,1,1.56-.68,1.885,1.885,0,0,1,1.583.689,3.237,3.237,0,0,1,.536,2.016,3.289,3.289,0,0,1-.536,2.034,2.113,2.113,0,0,1-3.136,0,3.307,3.307,0,0,1-.533-2.031A3.269,3.269,0,0,1,890.61,207.69Zm11.97,4.687a5.037,5.037,0,0,0,.013-5.316,2.569,2.569,0,0,0-2.134-.946,2.878,2.878,0,0,0-1.237.254,2.449,2.449,0,0,0-.944.826h-0.051l-0.146-.953h-0.856v10.08h1.053V213.46a9.316,9.316,0,0,0-.077-1.156h0.077a2.327,2.327,0,0,0,.941.772,3.009,3.009,0,0,0,1.24.25A2.57,2.57,0,0,0,902.58,212.377Zm-0.837-4.671a3.333,3.333,0,0,1,.511,2,3.466,3.466,0,0,1-.511,2.012,1.627,1.627,0,0,1-1.411.73,1.852,1.852,0,0,1-1.566-.632,3.479,3.479,0,0,1-.488-2.1V209.48a3.037,3.037,0,0,1,.488-1.879,1.864,1.864,0,0,1,1.541-.591A1.677,1.677,0,0,1,901.743,207.706Zm-39.968,11.813h-2.4v9.28h1.078V225.15h1.091a4.347,4.347,0,0,0,2.749-.759,2.6,2.6,0,0,0,.961-2.168q0-2.7-3.475-2.7h0Zm-1.326.933h1.205a3.152,3.152,0,0,1,1.878.451,1.6,1.6,0,0,1,.6,1.371,1.707,1.707,0,0,1-.641,1.485,3.6,3.6,0,0,1-2.073.464h-0.971v-3.771ZM869,222.084a3.056,3.056,0,0,0-.932,1.047h-0.051l-0.12-1.289h-0.869V228.8h1.053v-3.732a2.507,2.507,0,0,1,.6-1.708,1.853,1.853,0,0,1,1.443-.685,3.615,3.615,0,0,1,.761.095l0.146-.977a4.1,4.1,0,0,0-.831-0.077A2.1,2.1,0,0,0,869,222.084Zm8.47,0.6a2.939,2.939,0,0,0-2.318-.972,3.005,3.005,0,0,0-2.359.949,3.835,3.835,0,0,0-.85,2.651,4.386,4.386,0,0,0,.393,1.917,2.891,2.891,0,0,0,1.116,1.256,3.131,3.131,0,0,0,1.655.438,3.014,3.014,0,0,0,2.366-.955A4.5,4.5,0,0,0,877.474,222.687Zm-3.91.6a1.852,1.852,0,0,1,1.56-.68,1.881,1.881,0,0,1,1.582.689,3.23,3.23,0,0,1,.536,2.016,3.28,3.28,0,0,1-.536,2.034,2.113,2.113,0,0,1-3.136,0,3.307,3.307,0,0,1-.532-2.031A3.269,3.269,0,0,1,873.564,223.29Zm7.667,6.576v-8.024h-1.053v8.1a1.241,1.241,0,0,1-.231.822,0.9,0.9,0,0,1-.726.27,3.115,3.115,0,0,1-.863-0.127v0.857a2.532,2.532,0,0,0,.977.158q1.9,0,1.9-2.056h0Zm-0.964-9.379a0.606,0.606,0,0,0,.444.175,0.613,0.613,0,0,0,.438-0.175,0.7,0.7,0,0,0,.184-0.53,0.691,0.691,0,0,0-.184-0.527,0.658,0.658,0,0,0-.882,0,0.7,0.7,0,0,0-.177.53A0.714,0.714,0,0,0,880.267,220.487Zm7.334,8.335a5.564,5.564,0,0,0,1.056-.346v-0.94a5.594,5.594,0,0,1-2.219.47,2.137,2.137,0,0,1-1.652-.635,2.759,2.759,0,0,1-.619-1.86h4.788v-0.666a3.293,3.293,0,0,0-.761-2.269,2.617,2.617,0,0,0-2.067-.861,2.75,2.75,0,0,0-2.223.991,4.034,4.034,0,0,0-.827,2.672,3.634,3.634,0,0,0,.891,2.609,3.19,3.19,0,0,0,2.432.939A5.988,5.988,0,0,0,887.6,228.822Zm-0.218-5.694a2.322,2.322,0,0,1,.443,1.526h-3.633a2.514,2.514,0,0,1,.586-1.51,1.719,1.719,0,0,1,1.335-.546A1.564,1.564,0,0,1,887.383,223.128Zm7.9,5.437v-0.934a4.675,4.675,0,0,1-1.782.375,1.8,1.8,0,0,1-1.531-.686,3.216,3.216,0,0,1-.517-1.967q0-2.7,2.118-2.7a3.356,3.356,0,0,1,.729.092,4.894,4.894,0,0,1,.761.231l0.324-.9a3.334,3.334,0,0,0-.787-0.254,4.743,4.743,0,0,0-1-.108,3.025,3.025,0,0,0-2.394.953,3.945,3.945,0,0,0-.84,2.7,3.824,3.824,0,0,0,.828,2.631,2.963,2.963,0,0,0,2.337.93,3.8,3.8,0,0,0,1.756-.361h0Zm3.076-.845a1.408,1.408,0,0,1-.3-0.965v-4.094h2.017v-0.819h-2.017V220.23h-0.609l-0.444,1.485-1,.438v0.508h1V226.8a1.832,1.832,0,0,0,2.017,2.126,3.782,3.782,0,0,0,.6-0.054,1.924,1.924,0,0,0,.5-0.136V227.93a3.521,3.521,0,0,1-.412.085,3.373,3.373,0,0,1-.539.042A1.035,1.035,0,0,1,898.36,227.72Zm-34.692,8.726,0.456-.927a5.747,5.747,0,0,0-2.549-.533,4.682,4.682,0,0,0-2.381.584,3.851,3.851,0,0,0-1.548,1.663,5.586,5.586,0,0,0-.535,2.514,5.125,5.125,0,0,0,1.113,3.535,4.018,4.018,0,0,0,3.161,1.244,6.816,6.816,0,0,0,2.378-.361v-0.946a8.285,8.285,0,0,1-2.213.349,3.027,3.027,0,0,1-2.432-.994,4.19,4.19,0,0,1-.853-2.815,4.119,4.119,0,0,1,.884-2.79,3.03,3.03,0,0,1,2.413-1.018,4.913,4.913,0,0,1,2.106.5h0Zm7.768,7.953v-4.538a2.557,2.557,0,0,0-.637-1.927,2.68,2.68,0,0,0-1.912-.606,2.872,2.872,0,0,0-1.31.289,2.153,2.153,0,0,0-.884.79h-0.064a6.484,6.484,0,0,0,.051-0.9v-2.99h-1.053V244.4h1.053v-3.637a3.026,3.026,0,0,1,.5-1.955,1.984,1.984,0,0,1,1.6-.6,1.577,1.577,0,0,1,1.211.419,1.819,1.819,0,0,1,.387,1.27v4.5h1.052Zm7.217,0v-4.748a2.31,2.31,0,0,0-.6-1.771,2.648,2.648,0,0,0-1.842-.552,4.862,4.862,0,0,0-1.227.159,4.957,4.957,0,0,0-1.126.438l0.323,0.806a4.578,4.578,0,0,1,1.966-.533,1.449,1.449,0,0,1,1.126.39,1.762,1.762,0,0,1,.352,1.209v0.432l-1.18.038q-3.367.1-3.367,2.209a1.945,1.945,0,0,0,.586,1.517,2.321,2.321,0,0,0,1.621.533,3.161,3.161,0,0,0,1.29-.231,2.931,2.931,0,0,0,1.037-.886h0.051l0.209,0.99h0.78Zm-4.125-1.041a1.082,1.082,0,0,1-.346-0.869,1.178,1.178,0,0,1,.555-1.076,3.828,3.828,0,0,1,1.811-.391l1.053-.044v0.628a2,2,0,0,1-.562,1.511,2.134,2.134,0,0,1-1.544.54A1.433,1.433,0,0,1,874.528,243.358Zm8.266-5.674a3.056,3.056,0,0,0-.932,1.047h-0.051l-0.12-1.289h-0.869V244.4h1.053v-3.732a2.507,2.507,0,0,1,.6-1.708,1.851,1.851,0,0,1,1.443-.685,3.615,3.615,0,0,1,.761.095l0.146-.977a4.109,4.109,0,0,0-.831-0.077A2.1,2.1,0,0,0,882.794,237.684Zm4.757,5.636a1.408,1.408,0,0,1-.3-0.965v-4.094h2.016v-0.819h-2.016V235.83h-0.609l-0.444,1.485-1,.438v0.508h1V242.4a1.832,1.832,0,0,0,2.016,2.126,3.784,3.784,0,0,0,.6-0.054,1.924,1.924,0,0,0,.5-0.136V243.53a3.566,3.566,0,0,1-.412.085,3.382,3.382,0,0,1-.539.042A1.033,1.033,0,0,1,887.551,243.32Zm7.3,1.1a5.587,5.587,0,0,0,1.056-.346v-0.94a5.6,5.6,0,0,1-2.22.47,2.138,2.138,0,0,1-1.652-.635,2.758,2.758,0,0,1-.618-1.86H896.2v-0.666a3.3,3.3,0,0,0-.761-2.269,2.621,2.621,0,0,0-2.068-.861,2.75,2.75,0,0,0-2.223.991,4.039,4.039,0,0,0-.827,2.672,3.639,3.639,0,0,0,.891,2.609,3.193,3.193,0,0,0,2.432.939A6,6,0,0,0,894.847,244.422Zm-0.219-5.694a2.316,2.316,0,0,1,.444,1.526h-3.634a2.514,2.514,0,0,1,.587-1.51,1.716,1.716,0,0,1,1.335-.546A1.563,1.563,0,0,1,894.628,238.728Zm5.34-1.044a3.049,3.049,0,0,0-.933,1.047h-0.05l-0.121-1.289H898V244.4h1.053v-3.732a2.507,2.507,0,0,1,.6-1.708,1.853,1.853,0,0,1,1.443-.685,3.615,3.615,0,0,1,.761.095l0.146-.977a4.1,4.1,0,0,0-.831-0.077A2.092,2.092,0,0,0,899.968,237.684Z" transform="translate(-592 -182)"/>
  <rect id="bg_copy" data-name="bg copy" class="cls-5" x="101.906" y="2" width="106.906" height="78"/>
  <path id="Identify_Stakeholders" data-name="Identify Stakeholders" class="cls-2" d="M726.9,220.2v-9.28h-1.078v9.28H726.9Zm7.255,0h0.856v-9.877h-1.053v2.832l0.025,0.488,0.045,0.5h-0.083a2.525,2.525,0,0,0-2.168-1.029,2.562,2.562,0,0,0-2.119.953,4.179,4.179,0,0,0-.761,2.672,4.11,4.11,0,0,0,.758,2.653,2.581,2.581,0,0,0,2.122.933,2.471,2.471,0,0,0,2.181-1.06h0.057Zm-3.678-1.434a3.434,3.434,0,0,1-.489-2.012,3.586,3.586,0,0,1,.492-2.035A1.61,1.61,0,0,1,731.9,214a1.866,1.866,0,0,1,1.57.631,3.5,3.5,0,0,1,.491,2.111v0.222a2.971,2.971,0,0,1-.485,1.9,1.917,1.917,0,0,1-1.563.587A1.651,1.651,0,0,1,730.477,218.765Zm10.9,1.457a5.564,5.564,0,0,0,1.056-.346v-0.94a5.6,5.6,0,0,1-2.22.47,2.138,2.138,0,0,1-1.652-.635,2.758,2.758,0,0,1-.618-1.86h4.788v-0.666a3.3,3.3,0,0,0-.761-2.269,2.619,2.619,0,0,0-2.067-.861,2.749,2.749,0,0,0-2.223.991,4.034,4.034,0,0,0-.828,2.672,3.639,3.639,0,0,0,.891,2.609,3.193,3.193,0,0,0,2.432.939A5.992,5.992,0,0,0,741.381,220.222Zm-0.219-5.694a2.316,2.316,0,0,1,.444,1.526h-3.634a2.521,2.521,0,0,1,.587-1.51,1.719,1.719,0,0,1,1.335-.546A1.563,1.563,0,0,1,741.162,214.528Zm9.177,5.671v-4.538a2.579,2.579,0,0,0-.635-1.939,2.636,2.636,0,0,0-1.889-.607,2.948,2.948,0,0,0-1.3.283,2.144,2.144,0,0,0-.907.8h-0.051l-0.171-.953H744.53V220.2h1.052V216.55a2.977,2.977,0,0,1,.508-1.949,2,2,0,0,1,1.6-.591,1.577,1.577,0,0,1,1.211.419,1.819,1.819,0,0,1,.387,1.27v4.5h1.053Zm3.589-1.079a1.408,1.408,0,0,1-.3-0.965v-4.094h2.017v-0.819H753.63V211.63h-0.609l-0.444,1.485-1,.438v0.508h1V218.2a1.832,1.832,0,0,0,2.017,2.126,3.782,3.782,0,0,0,.6-0.054,1.924,1.924,0,0,0,.5-0.136V219.33a3.521,3.521,0,0,1-.412.085,3.373,3.373,0,0,1-.539.042A1.035,1.035,0,0,1,753.928,219.12Zm4.211-5.878h-1.053V220.2h1.053v-6.957Zm-0.964-1.355a0.642,0.642,0,0,0,.881,0,0.7,0.7,0,0,0,.184-0.53,0.688,0.688,0,0,0-.184-0.527,0.657,0.657,0,0,0-.881,0,0.7,0.7,0,0,0-.178.53A0.714,0.714,0,0,0,757.175,211.887Zm6.329,1.355h-1.769v-0.45a2.22,2.22,0,0,1,.285-1.273,1.013,1.013,0,0,1,.881-0.4,3.479,3.479,0,0,1,1.04.2l0.273-.844a4.6,4.6,0,0,0-1.294-.222q-2.238,0-2.238,2.564V213.2l-1.243.381v0.476h1.243V220.2h1.053v-6.138H763.5v-0.819Zm2.968,7-0.387.99a1.608,1.608,0,0,1-1.547,1.218,3.645,3.645,0,0,1-.78-0.076v0.845a4.273,4.273,0,0,0,.951.107,2.206,2.206,0,0,0,1.455-.491,3.959,3.959,0,0,0,1.037-1.667l2.987-7.922h-1.129q-1.458,4.038-1.722,4.821t-0.345,1.108h-0.051a15,15,0,0,0-.621-1.961l-1.522-3.968h-1.129ZM713.89,231.781a5.122,5.122,0,0,0-2.007-1.117,7.421,7.421,0,0,1-1.291-.568,1.668,1.668,0,0,1-.6-0.565,1.571,1.571,0,0,1-.178-0.79,1.214,1.214,0,0,1,.482-1.022,2.158,2.158,0,0,1,1.338-.368,5.759,5.759,0,0,1,2.233.482l0.336-.939a6.27,6.27,0,0,0-2.543-.508,3.346,3.346,0,0,0-2.131.635,2.06,2.06,0,0,0-.8,1.707,2.424,2.424,0,0,0,.554,1.657,4.41,4.41,0,0,0,1.849,1.1,9.088,9.088,0,0,1,1.379.59,1.8,1.8,0,0,1,.647.568,1.467,1.467,0,0,1,.194.791,1.344,1.344,0,0,1-.546,1.139,2.683,2.683,0,0,1-1.623.41,6.54,6.54,0,0,1-1.332-.14,6.667,6.667,0,0,1-1.243-.381V235.5a6.024,6.024,0,0,0,2.537.425,3.849,3.849,0,0,0,2.41-.685,2.279,2.279,0,0,0,.887-1.911A2.2,2.2,0,0,0,713.89,231.781Zm3.713,2.939a1.408,1.408,0,0,1-.3-0.965v-4.094h2.017v-0.819h-2.017V227.23H716.7l-0.444,1.485-1,.438v0.508h1V233.8a1.832,1.832,0,0,0,2.017,2.126,3.782,3.782,0,0,0,.6-0.054,1.924,1.924,0,0,0,.5-0.136V234.93a3.521,3.521,0,0,1-.412.085,3.373,3.373,0,0,1-.539.042A1.035,1.035,0,0,1,717.6,234.72Zm8.212,1.079v-4.748a2.307,2.307,0,0,0-.6-1.771,2.646,2.646,0,0,0-1.842-.552,4.862,4.862,0,0,0-1.227.159,4.975,4.975,0,0,0-1.126.438l0.324,0.806a4.585,4.585,0,0,1,1.965-.533,1.449,1.449,0,0,1,1.126.39,1.762,1.762,0,0,1,.352,1.209v0.432l-1.18.038q-3.366.1-3.367,2.209a1.945,1.945,0,0,0,.587,1.517,2.317,2.317,0,0,0,1.62.533,3.161,3.161,0,0,0,1.29-.231,2.923,2.923,0,0,0,1.037-.886h0.051l0.209,0.99h0.78Zm-4.125-1.041a1.084,1.084,0,0,1-.345-0.869,1.177,1.177,0,0,1,.554-1.076,3.828,3.828,0,0,1,1.811-.391l1.053-.044v0.628a1.993,1.993,0,0,1-.562,1.511,2.134,2.134,0,0,1-1.544.54A1.435,1.435,0,0,1,721.69,234.758Zm7.284-2.52q0.049-.729.05-1.079v-5.237h-1.04V235.8h1.04v-2.6l0.793-.686,2.454,3.288h1.275l-3.012-3.992,2.815-2.965H732.1l-2.245,2.381a12.5,12.5,0,0,0-.831,1.015h-0.05Zm9.965,3.584a5.564,5.564,0,0,0,1.056-.346v-0.94a5.594,5.594,0,0,1-2.219.47,2.137,2.137,0,0,1-1.652-.635,2.764,2.764,0,0,1-.619-1.86h4.788v-0.666a3.293,3.293,0,0,0-.761-2.269,2.617,2.617,0,0,0-2.067-.861,2.75,2.75,0,0,0-2.223.991,4.039,4.039,0,0,0-.827,2.672,3.639,3.639,0,0,0,.891,2.609,3.192,3.192,0,0,0,2.432.939A5.982,5.982,0,0,0,738.939,235.822Zm-0.218-5.694a2.316,2.316,0,0,1,.444,1.526h-3.634a2.514,2.514,0,0,1,.586-1.51,1.719,1.719,0,0,1,1.335-.546A1.564,1.564,0,0,1,738.721,230.128ZM747.9,235.8v-4.538a2.557,2.557,0,0,0-.637-1.927,2.682,2.682,0,0,0-1.912-.606,2.869,2.869,0,0,0-1.31.289,2.156,2.156,0,0,0-.885.79H743.09a6.484,6.484,0,0,0,.051-0.895v-2.99h-1.053V235.8h1.053v-3.637a3.026,3.026,0,0,1,.5-1.955,1.983,1.983,0,0,1,1.6-.6,1.578,1.578,0,0,1,1.212.419,1.824,1.824,0,0,1,.386,1.27v4.5H747.9Zm7.3-6.112a2.935,2.935,0,0,0-2.317-.972,3,3,0,0,0-2.359.949,3.835,3.835,0,0,0-.85,2.651,4.386,4.386,0,0,0,.393,1.917,2.891,2.891,0,0,0,1.116,1.256,3.131,3.131,0,0,0,1.655.438,3.015,3.015,0,0,0,2.366-.955A4.5,4.5,0,0,0,755.2,229.687Zm-3.909.6a1.852,1.852,0,0,1,1.56-.68,1.883,1.883,0,0,1,1.582.689,3.237,3.237,0,0,1,.536,2.016,3.287,3.287,0,0,1-.536,2.034,2.113,2.113,0,0,1-3.136,0,3.307,3.307,0,0,1-.533-2.031A3.269,3.269,0,0,1,751.29,230.29Zm7.667-4.368H757.9V235.8h1.053v-9.877Zm7.1,9.877h0.856v-9.877h-1.053v2.832l0.025,0.488,0.045,0.5H765.85a2.526,2.526,0,0,0-2.169-1.029,2.561,2.561,0,0,0-2.118.953,4.179,4.179,0,0,0-.761,2.672,4.11,4.11,0,0,0,.758,2.653,2.579,2.579,0,0,0,2.121.933,2.472,2.472,0,0,0,2.182-1.06h0.057Zm-3.679-1.434a3.442,3.442,0,0,1-.488-2.012,3.586,3.586,0,0,1,.492-2.035,1.61,1.61,0,0,1,1.417-.72,1.866,1.866,0,0,1,1.57.631,3.5,3.5,0,0,1,.491,2.111v0.222a2.971,2.971,0,0,1-.485,1.895,1.918,1.918,0,0,1-1.563.587A1.654,1.654,0,0,1,762.381,234.365Zm10.9,1.457a5.564,5.564,0,0,0,1.056-.346v-0.94a5.6,5.6,0,0,1-2.22.47,2.138,2.138,0,0,1-1.652-.635,2.758,2.758,0,0,1-.618-1.86h4.788v-0.666a3.3,3.3,0,0,0-.761-2.269,2.619,2.619,0,0,0-2.068-.861,2.747,2.747,0,0,0-2.222.991,4.034,4.034,0,0,0-.828,2.672,3.639,3.639,0,0,0,.891,2.609,3.193,3.193,0,0,0,2.432.939A6,6,0,0,0,773.286,235.822Zm-0.219-5.694a2.316,2.316,0,0,1,.444,1.526h-3.634a2.514,2.514,0,0,1,.587-1.51,1.719,1.719,0,0,1,1.335-.546A1.563,1.563,0,0,1,773.067,230.128Zm5.34-1.044a3.036,3.036,0,0,0-.932,1.047h-0.051l-0.121-1.289h-0.868V235.8h1.052v-3.732a2.5,2.5,0,0,1,.6-1.708,1.85,1.85,0,0,1,1.442-.685,3.607,3.607,0,0,1,.761.095l0.146-.977a4.1,4.1,0,0,0-.831-0.077A2.092,2.092,0,0,0,778.407,229.084Zm7.378,3.669a4.525,4.525,0,0,0-1.671-.908,10.287,10.287,0,0,1-1.217-.514,1.411,1.411,0,0,1-.46-0.375,0.79,0.79,0,0,1-.143-0.476,0.725,0.725,0,0,1,.381-0.647,2.174,2.174,0,0,1,1.129-.235,5.049,5.049,0,0,1,1.9.431l0.374-.857a5.557,5.557,0,0,0-2.194-.457,3.215,3.215,0,0,0-1.9.492,1.563,1.563,0,0,0-.692,1.343,1.6,1.6,0,0,0,.2.819,1.886,1.886,0,0,0,.609.612,7.413,7.413,0,0,0,1.379.632,5.544,5.544,0,0,1,1.373.682,0.907,0.907,0,0,1-.092,1.5,2.5,2.5,0,0,1-1.268.264,4.507,4.507,0,0,1-1.107-.146,5.28,5.28,0,0,1-1.075-.4v0.977a4.411,4.411,0,0,0,2.156.438,3.4,3.4,0,0,0,2.03-.526,1.745,1.745,0,0,0,.723-1.5A1.6,1.6,0,0,0,785.785,232.753Z" transform="translate(-592 -182)"/>
  <path id="Shape_127_copy" data-name="Shape 127 copy" class="cls-6" d="M801.8,223v-1h23.977v1H801.8Zm24.306-1.376-0.658.753-7.993-7,0.658-.753Z" transform="translate(-592 -182)"/>
  <path id="Shape_128_copy" data-name="Shape 128 copy" class="cls-6" d="M824.453,221.623l0.658,0.753-7.993,7-0.658-.753Z" transform="translate(-592 -182)"/>
  <path class="cls-6" d="M669.928,223v-1h23.977v1H669.928Z" transform="translate(-592 -182)"/>
  <ellipse id="Circle_BG" data-name="Circle BG" class="cls-7" cx="39.969" cy="41" rx="37.969" ry="38"/>
  <path id="Start" class="cls-2" d="M623.511,222.982a5.11,5.11,0,0,0-2.007-1.117,7.5,7.5,0,0,1-1.291-.568,1.677,1.677,0,0,1-.6-0.565,1.565,1.565,0,0,1-.178-0.791,1.216,1.216,0,0,1,.482-1.022,2.16,2.16,0,0,1,1.338-.368,5.743,5.743,0,0,1,2.233.483l0.336-.94a6.287,6.287,0,0,0-2.543-.508,3.346,3.346,0,0,0-2.131.635,2.062,2.062,0,0,0-.806,1.708,2.424,2.424,0,0,0,.555,1.656,4.394,4.394,0,0,0,1.849,1.1,8.987,8.987,0,0,1,1.379.59,1.8,1.8,0,0,1,.647.568,1.463,1.463,0,0,1,.193.79,1.343,1.343,0,0,1-.545,1.14,2.686,2.686,0,0,1-1.623.409,6.538,6.538,0,0,1-1.332-.139,6.719,6.719,0,0,1-1.243-.381V226.7a6.039,6.039,0,0,0,2.537.425,3.846,3.846,0,0,0,2.409-.686,2.275,2.275,0,0,0,.888-1.91A2.2,2.2,0,0,0,623.511,222.982Zm3.713,2.939a1.408,1.408,0,0,1-.3-0.965v-4.094h2.016v-0.819h-2.016v-1.612h-0.609l-0.444,1.485-1,.438v0.508h1V225a1.833,1.833,0,0,0,2.017,2.127,3.782,3.782,0,0,0,.6-0.054,1.924,1.924,0,0,0,.5-0.136V226.13a3.3,3.3,0,0,1-.412.086,3.383,3.383,0,0,1-.539.041A1.036,1.036,0,0,1,627.224,225.921ZM635.436,227v-4.748a2.307,2.307,0,0,0-.6-1.771,2.648,2.648,0,0,0-1.842-.552,4.906,4.906,0,0,0-1.227.158,4.957,4.957,0,0,0-1.126.438l0.323,0.807a4.581,4.581,0,0,1,1.966-.534,1.445,1.445,0,0,1,1.126.391,1.762,1.762,0,0,1,.352,1.209v0.432l-1.18.038q-3.368.1-3.367,2.209a1.946,1.946,0,0,0,.586,1.517,2.324,2.324,0,0,0,1.621.533,3.143,3.143,0,0,0,1.29-.232,2.917,2.917,0,0,0,1.037-.885h0.051l0.209,0.99h0.78Zm-4.125-1.041a1.085,1.085,0,0,1-.346-0.87,1.179,1.179,0,0,1,.555-1.076,3.842,3.842,0,0,1,1.811-.39l1.052-.044v0.628a2,2,0,0,1-.561,1.511,2.134,2.134,0,0,1-1.544.539A1.433,1.433,0,0,1,631.311,225.959Zm8.266-5.675a3.069,3.069,0,0,0-.932,1.048h-0.051l-0.12-1.289h-0.869V227h1.053v-3.732a2.5,2.5,0,0,1,.6-1.708,1.851,1.851,0,0,1,1.443-.685,3.55,3.55,0,0,1,.761.095l0.146-.978a4.113,4.113,0,0,0-.831-0.076A2.1,2.1,0,0,0,639.577,220.284Zm4.757,5.637a1.408,1.408,0,0,1-.3-0.965v-4.094h2.016v-0.819h-2.016v-1.612h-0.609l-0.444,1.485-1,.438v0.508h1V225A1.833,1.833,0,0,0,645,227.127a3.784,3.784,0,0,0,.6-0.054,1.924,1.924,0,0,0,.5-0.136V226.13a3.337,3.337,0,0,1-.412.086,3.383,3.383,0,0,1-.539.041A1.036,1.036,0,0,1,644.334,225.921Z" transform="translate(-592 -182)"/>
  <g id="Connecting_lines" data-name="Connecting lines">
    <path class="cls-6" d="M931.681,224v-1h24.976v1H931.681Zm23.977-1h1v52h-1V223Zm0,51v1H669.928v-1h285.73Zm-285.73,1h1v51h-1V275Z" transform="translate(-592 -182)"/>
    <path id="Shape_127_copy_4" data-name="Shape 127 copy 4" class="cls-6" d="M669.928,326v-1h23.977v1H669.928Zm24.306-1.376-0.657.753-7.993-7,0.658-.753Z" transform="translate(-592 -182)"/>
    <path id="Shape_128_copy_4" data-name="Shape 128 copy 4" class="cls-6" d="M692.577,324.623l0.658,0.753-7.992,7-0.658-.753Z" transform="translate(-592 -182)"/>
    <path id="Shape_127_copy_5" data-name="Shape 127 copy 5" class="cls-6" d="M800.8,326v-1h24.977v1H800.8Zm25.306-1.376-0.658.753-7.993-7,0.658-.753Z" transform="translate(-592 -182)"/>
    <path id="Shape_128_copy_5" data-name="Shape 128 copy 5" class="cls-6" d="M824.453,324.623l0.658,0.753-7.993,7-0.658-.753Z" transform="translate(-592 -182)"/>
    <path id="Shape_127_copy_6" data-name="Shape 127 copy 6" class="cls-6" d="M932.68,326v-1h24.976v1H932.68Zm25.305-1.376-0.658.753-7.992-7,0.658-.753Z" transform="translate(-592 -182)"/>
    <path id="Shape_128_copy_6" data-name="Shape 128 copy 6" class="cls-6" d="M956.328,324.623l0.658,0.753-7.992,7-0.658-.753Z" transform="translate(-592 -182)"/>
  </g>
</svg>
