<svg id="Flow_Chart_-_Plan_Initiate" data-name="Flow Chart - Plan Initiate" xmlns="http://www.w3.org/2000/svg" xmlns:xlink="http://www.w3.org/1999/xlink" width="366" height="193.5" viewBox="0 0 366 193.5">
  <defs>
    <style>
      .cls-1, .cls-3, .cls-5, .cls-6, .cls-7 {
        fill: #f2f2f2;
      }

      .cls-1 {
        stroke: #01a9da;
        stroke-linejoin: round;
        stroke-opacity: 0.42;
        stroke-width: 1px;
        filter: url(#filter);
      }

      .cls-2 {
        fill: #01a9da;
      }

      .cls-2, .cls-4 {
        fill-rule: evenodd;
      }

      .cls-3 {
        filter: url(#filter-2);
      }

      .cls-4 {
        fill: #6b6b6b;
      }

      .cls-5 {
        filter: url(#filter-3);
      }

      .cls-6 {
        filter: url(#filter-4);
      }

      .cls-7 {
        filter: url(#filter-5);
      }
    </style>
    <filter id="filter" x="224" y="96" width="127" height="97" filterUnits="userSpaceOnUse">
      <feOffset result="offset" dx="0.5" dy="0.866" in="SourceAlpha"/>
      <feGaussianBlur result="blur" stdDeviation="2"/>
      <feFlood result="flood" flood-opacity="0.13"/>
      <feComposite result="composite" operator="in" in2="blur"/>
      <feGaussianBlur result="blur-2" stdDeviation="3.333" in="SourceAlpha"/>
      <feComposite result="composite-2"/>
      <feComposite result="composite-3"/>
      <feComposite result="composite-4"/>
      <feFlood result="flood-2" flood-color="#01a9da" flood-opacity="0.09"/>
      <feComposite result="composite-5" operator="in" in2="composite-4"/>
      <feBlend result="blend" in2="composite"/>
      <feBlend result="blend-2" in="SourceGraphic"/>
    </filter>
    <filter id="filter-2" x="99" y="103" width="115" height="85" filterUnits="userSpaceOnUse">
      <feOffset result="offset" dx="0.5" dy="0.866" in="SourceAlpha"/>
      <feGaussianBlur result="blur" stdDeviation="2"/>
      <feFlood result="flood" flood-opacity="0.26"/>
      <feComposite result="composite" operator="in" in2="blur"/>
      <feBlend result="blend" in="SourceGraphic"/>
    </filter>
    <filter id="filter-3" x="231" y="0" width="115" height="85" filterUnits="userSpaceOnUse">
      <feOffset result="offset" dx="0.5" dy="0.866" in="SourceAlpha"/>
      <feGaussianBlur result="blur" stdDeviation="2"/>
      <feFlood result="flood" flood-opacity="0.26"/>
      <feComposite result="composite" operator="in" in2="blur"/>
      <feBlend result="blend" in="SourceGraphic"/>
    </filter>
    <filter id="filter-4" x="99" y="0" width="115" height="85" filterUnits="userSpaceOnUse">
      <feOffset result="offset" dx="0.5" dy="0.866" in="SourceAlpha"/>
      <feGaussianBlur result="blur" stdDeviation="2"/>
      <feFlood result="flood" flood-opacity="0.26"/>
      <feComposite result="composite" operator="in" in2="blur"/>
      <feBlend result="blend" in="SourceGraphic"/>
    </filter>
    <filter id="filter-5" x="0" y="1" width="83" height="83" filterUnits="userSpaceOnUse">
      <feOffset result="offset" dx="0.5" dy="0.866" in="SourceAlpha"/>
      <feGaussianBlur result="blur" stdDeviation="2"/>
      <feFlood result="flood" flood-opacity="0.26"/>
      <feComposite result="composite" operator="in" in2="blur"/>
      <feBlend result="blend" in="SourceGraphic"/>
    </filter>
  </defs>
  <g style="fill: #f2f2f2; filter: url(#filter)">
    <rect id="bg_copy_8" data-name="bg copy 8" class="cls-1" x="233.781" y="105" width="106.907" height="78" style="stroke: inherit; filter: none; fill: inherit"/>
  </g>
  <use xlink:href="#bg_copy_8" style="stroke: #01a9da; filter: none; fill: none"/>
  <path id="Plan_and_run_kick-off_meeting" data-name="Plan and run kick-off meeting" class="cls-2" d="M845.7,2069.63a4.061,4.061,0,0,0-2.6-.71h-2.669v9.28h1.515v-3.47h0.964a4.167,4.167,0,0,0,2.708-.78,2.7,2.7,0,0,0,.951-2.23A2.541,2.541,0,0,0,845.7,2069.63Zm-3.758.56h1.053a2.428,2.428,0,0,1,1.522.39,1.442,1.442,0,0,1,.488,1.2,1.5,1.5,0,0,1-.545,1.27,2.894,2.894,0,0,1-1.712.4h-0.806v-3.26Zm7.807-1.87h-1.49v9.88h1.49v-9.88Zm7.585,9.88v-4.73a2.285,2.285,0,0,0-.682-1.83,3.03,3.03,0,0,0-2.02-.59,5.408,5.408,0,0,0-1.281.16,4.979,4.979,0,0,0-1.249.45l0.482,1.07a7.48,7.48,0,0,1,.951-0.38,3.548,3.548,0,0,1,1.034-.16,1.289,1.289,0,0,1,.973.34,1.416,1.416,0,0,1,.314,1v0.38l-1.211.04a4.591,4.591,0,0,0-2.455.6,1.855,1.855,0,0,0-.8,1.64,2.088,2.088,0,0,0,.58,1.58,2.243,2.243,0,0,0,1.614.56,3.126,3.126,0,0,0,1.319-.24,2.786,2.786,0,0,0,1.021-.87h0.051l0.3,0.98h1.066Zm-4.123-1.27a0.949,0.949,0,0,1-.279-0.73,1.071,1.071,0,0,1,.479-0.96,3.02,3.02,0,0,1,1.532-.35l0.9-.04v0.61a1.647,1.647,0,0,1-.491,1.27,1.855,1.855,0,0,1-1.3.45A1.2,1.2,0,0,1,853.21,2076.93Zm12.373-3.31a2.253,2.253,0,0,0-2.524-2.57,3.046,3.046,0,0,0-1.294.27,2.166,2.166,0,0,0-.9.78h-0.076l-0.21-.92h-1.166v7.02h1.49v-3.5a3.09,3.09,0,0,1,.437-1.87,1.657,1.657,0,0,1,1.383-.56,1.253,1.253,0,0,1,1.037.4,1.891,1.891,0,0,1,.326,1.21v4.32h1.5v-4.58Zm10.9,4.58v-4.73a2.285,2.285,0,0,0-.681-1.83,3.03,3.03,0,0,0-2.02-.59,5.408,5.408,0,0,0-1.281.16,4.986,4.986,0,0,0-1.25.45l0.482,1.07a7.554,7.554,0,0,1,.952-0.38,3.541,3.541,0,0,1,1.033-.16,1.29,1.29,0,0,1,.974.34,1.416,1.416,0,0,1,.314,1v0.38l-1.211.04a4.591,4.591,0,0,0-2.455.6,1.855,1.855,0,0,0-.805,1.64,2.088,2.088,0,0,0,.58,1.58,2.243,2.243,0,0,0,1.614.56,3.126,3.126,0,0,0,1.319-.24,2.786,2.786,0,0,0,1.021-.87h0.051l0.3,0.98h1.065Zm-4.122-1.27a0.949,0.949,0,0,1-.279-0.73,1.071,1.071,0,0,1,.479-0.96,3.02,3.02,0,0,1,1.532-.35l0.9-.04v0.61a1.647,1.647,0,0,1-.491,1.27,1.856,1.856,0,0,1-1.3.45A1.2,1.2,0,0,1,872.362,2076.93Zm12.373-3.31a2.253,2.253,0,0,0-2.524-2.57,3.043,3.043,0,0,0-1.294.27,2.166,2.166,0,0,0-.9.78h-0.076l-0.21-.92h-1.167v7.02h1.491v-3.5a3.09,3.09,0,0,1,.437-1.87,1.657,1.657,0,0,1,1.383-.56,1.253,1.253,0,0,1,1.037.4,1.9,1.9,0,0,1,.326,1.21v4.32h1.5v-4.58Zm6.538,3.66h0.07l0.26,0.92h1.167v-9.88h-1.5v2.56a8.871,8.871,0,0,0,.108,1.19h-0.076a2.419,2.419,0,0,0-2.106-1.02,2.467,2.467,0,0,0-2.064.96,4.3,4.3,0,0,0-.745,2.69,4.256,4.256,0,0,0,.736,2.67,2.433,2.433,0,0,0,2.048.96,2.38,2.38,0,0,0,2.1-1.05h0Zm-2.936-.77a3.187,3.187,0,0,1-.412-1.78,3.252,3.252,0,0,1,.425-1.82,1.361,1.361,0,0,1,1.211-.64,1.608,1.608,0,0,1,1.351.56,3.138,3.138,0,0,1,.431,1.88v0.21a2.711,2.711,0,0,1-.431,1.68,1.607,1.607,0,0,1-1.338.52A1.386,1.386,0,0,1,888.337,2076.51Zm12.287-5.09a2.817,2.817,0,0,0-.91,1h-0.076l-0.2-1.24h-1.167v7.02h1.491v-3.67a2.123,2.123,0,0,1,.555-1.52,1.9,1.9,0,0,1,1.449-.58,2.4,2.4,0,0,1,.659.08l0.146-1.39a3.085,3.085,0,0,0-.742-0.07A2.128,2.128,0,0,0,900.624,2071.42Zm9.37,6.78v-7.02h-1.5v3.5a3.1,3.1,0,0,1-.441,1.88,1.656,1.656,0,0,1-1.379.56,1.254,1.254,0,0,1-1.034-.4,1.879,1.879,0,0,1-.329-1.21v-4.33h-1.5v4.59a2.62,2.62,0,0,0,.627,1.92,2.585,2.585,0,0,0,1.9.64,3.04,3.04,0,0,0,1.309-.28,2.186,2.186,0,0,0,.885-0.77h0.076l0.21,0.92h1.173Zm8.295-4.58a2.253,2.253,0,0,0-2.524-2.57,3.043,3.043,0,0,0-1.294.27,2.175,2.175,0,0,0-.9.78h-0.076l-0.209-.92h-1.167v7.02h1.49v-3.5a3.082,3.082,0,0,1,.438-1.87,1.657,1.657,0,0,1,1.383-.56,1.249,1.249,0,0,1,1.036.4,1.891,1.891,0,0,1,.327,1.21v4.32h1.5v-4.58Zm-59.8,16.47,0.076-1.35v-4.82h-1.477v9.88h1.477v-2.41l0.818-.67,2.252,3.08h1.75l-3-4.01,2.822-3.01h-1.718l-2.118,2.26-0.844,1.05h-0.038Zm7.515-3.31h-1.49v7.02h1.49v-7.02Zm-1.36-1.26a0.87,0.87,0,0,0,.624.22,0.853,0.853,0,0,0,.612-0.22,0.823,0.823,0,0,0,.219-0.6,0.749,0.749,0,0,0-.831-0.83,0.866,0.866,0,0,0-.624.21,0.841,0.841,0,0,0-.219.62A0.823,0.823,0,0,0,864.648,2085.52Zm7.419,8.3a2.635,2.635,0,0,0,.853-0.33v-1.3a3.8,3.8,0,0,1-1.883.49,1.583,1.583,0,0,1-1.329-.59,2.923,2.923,0,0,1-.453-1.78c0-1.61.606-2.41,1.82-2.41a4.6,4.6,0,0,1,1.56.36l0.45-1.2a4.762,4.762,0,0,0-2-.41,3.225,3.225,0,0,0-2.5.95,3.939,3.939,0,0,0-.866,2.73,3.888,3.888,0,0,0,.828,2.67,3.068,3.068,0,0,0,2.419.93A4.921,4.921,0,0,0,872.067,2093.82Zm3.9-3.73,0.076-1.35v-4.82h-1.478v9.88h1.478v-2.41l0.818-.67,2.251,3.08h1.75l-3-4.01,2.822-3.01H878.97l-2.118,2.26-0.843,1.05h-0.038Zm8.675,0.86v-1.27h-3.26v1.27h3.26Zm6.862-3.32a3.1,3.1,0,0,0-2.41-.98,3.169,3.169,0,0,0-2.467.96,3.82,3.82,0,0,0-.875,2.67,4.368,4.368,0,0,0,.406,1.93,2.9,2.9,0,0,0,1.16,1.27,3.329,3.329,0,0,0,1.738.45,3.172,3.172,0,0,0,2.454-.97A4.455,4.455,0,0,0,891.508,2087.63Zm-3.8.86a1.535,1.535,0,0,1,1.361-.62c1.192,0,1.788.8,1.788,2.41s-0.592,2.43-1.776,2.43-1.794-.81-1.794-2.43A3.192,3.192,0,0,1,887.712,2088.49Zm9.915-1.71h-1.712v-0.46a1.569,1.569,0,0,1,.232-0.94,0.852,0.852,0,0,1,.739-0.31,3.37,3.37,0,0,1,1.052.17l0.393-1.13a4.844,4.844,0,0,0-1.547-.26,2.384,2.384,0,0,0-1.782.6,2.571,2.571,0,0,0-.583,1.85v0.45l-1.155.46v0.7h1.155v5.89h1.5v-5.89h1.712v-1.13Zm4.712,0h-1.712v-0.46a1.569,1.569,0,0,1,.232-0.94,0.851,0.851,0,0,1,.738-0.31,3.371,3.371,0,0,1,1.053.17l0.393-1.13a4.844,4.844,0,0,0-1.547-.26,2.384,2.384,0,0,0-1.782.6,2.571,2.571,0,0,0-.584,1.85v0.45l-1.154.46v0.7h1.154v5.89h1.5v-5.89h1.712v-1.13Zm-41.9,18.9a2.831,2.831,0,0,1,.4-1.67,1.484,1.484,0,0,1,1.272-.54,1.118,1.118,0,0,1,.954.4,1.926,1.926,0,0,1,.308,1.2v4.33h1.49v-4.58a2.8,2.8,0,0,0-.574-1.93,2.329,2.329,0,0,0-1.829-.64,2.834,2.834,0,0,0-1.294.29,2.172,2.172,0,0,0-.875.82h-0.1a2.13,2.13,0,0,0-2.143-1.11,2.754,2.754,0,0,0-1.221.27,2.027,2.027,0,0,0-.846.78H855.9l-0.209-.92h-1.167v7.02h1.491v-3.5a3.322,3.322,0,0,1,.4-1.87,1.461,1.461,0,0,1,1.265-.56,1.11,1.11,0,0,1,.952.4,1.941,1.941,0,0,1,.3,1.2v4.33h1.5v-3.72Zm10.844,3.74a4.637,4.637,0,0,0,1.1-.37v-1.21a6.308,6.308,0,0,1-1.151.39,5.289,5.289,0,0,1-1.157.12,1.944,1.944,0,0,1-1.465-.55,2.317,2.317,0,0,1-.552-1.57h4.674v-0.81a3.208,3.208,0,0,0-.8-2.32,2.866,2.866,0,0,0-2.194-.85,2.948,2.948,0,0,0-2.353.99,3.953,3.953,0,0,0-.856,2.7,3.627,3.627,0,0,0,.922,2.63,3.385,3.385,0,0,0,2.559.96A6.914,6.914,0,0,0,871.281,2109.42Zm-0.431-5.59a1.956,1.956,0,0,1,.418,1.32h-3.183a2.157,2.157,0,0,1,.51-1.32,1.5,1.5,0,0,1,1.139-.45A1.428,1.428,0,0,1,870.85,2103.83Zm7.914,5.59a4.659,4.659,0,0,0,1.1-.37v-1.21a6.334,6.334,0,0,1-1.151.39,5.3,5.3,0,0,1-1.158.12,1.944,1.944,0,0,1-1.465-.55,2.317,2.317,0,0,1-.551-1.57h4.673v-0.81a3.208,3.208,0,0,0-.805-2.32,2.866,2.866,0,0,0-2.194-.85,2.948,2.948,0,0,0-2.353.99,3.953,3.953,0,0,0-.856,2.7,3.627,3.627,0,0,0,.923,2.63,3.382,3.382,0,0,0,2.559.96A6.911,6.911,0,0,0,878.764,2109.42Zm-0.431-5.59a1.961,1.961,0,0,1,.419,1.32h-3.184a2.152,2.152,0,0,1,.511-1.32,1.5,1.5,0,0,1,1.138-.45A1.428,1.428,0,0,1,878.333,2103.83Zm5.482,4.23a1.038,1.038,0,0,1-.269-0.79v-3.76h2v-1.13h-2v-1.56h-0.92l-0.507,1.48-1.027.55v0.66h0.957v3.78a1.929,1.929,0,0,0,2.118,2.24,4.276,4.276,0,0,0,.809-0.08,3.218,3.218,0,0,0,.637-0.18v-1.12a3.754,3.754,0,0,1-1.091.17A0.991,0.991,0,0,1,883.815,2108.06Zm4.69-5.68h-1.49v7.02h1.49v-7.02Zm-1.36-1.26a0.87,0.87,0,0,0,.624.22,0.853,0.853,0,0,0,.612-0.22,0.823,0.823,0,0,0,.219-0.6,0.749,0.749,0,0,0-.831-0.83,0.866,0.866,0,0,0-.624.21,0.841,0.841,0,0,0-.219.62A0.823,0.823,0,0,0,887.145,2101.12Zm9.661,3.7a2.253,2.253,0,0,0-2.524-2.57,3.039,3.039,0,0,0-1.293.27,2.169,2.169,0,0,0-.9.78h-0.076l-0.209-.92h-1.167v7.02h1.49v-3.5a3.082,3.082,0,0,1,.438-1.87,1.653,1.653,0,0,1,1.382-.56,1.252,1.252,0,0,1,1.037.4,1.891,1.891,0,0,1,.327,1.21v4.32h1.5v-4.58Zm5.568-2.44a4.2,4.2,0,0,0-.491-0.09c-0.218-.02-0.426-0.04-0.625-0.04a3.016,3.016,0,0,0-2.051.63,2.5,2.5,0,0,0-.381,3.01,1.944,1.944,0,0,0,.885.77,2.276,2.276,0,0,0-.66.54,1,1,0,0,0-.222.66,1.052,1.052,0,0,0,.194.6,1.144,1.144,0,0,0,.491.41,2.124,2.124,0,0,0-1.145.61,1.543,1.543,0,0,0-.409,1.09,1.628,1.628,0,0,0,.755,1.44,3.9,3.9,0,0,0,2.188.51,5.189,5.189,0,0,0,2.841-.64,2.1,2.1,0,0,0,.983-1.85,1.73,1.73,0,0,0-.6-1.42,2.722,2.722,0,0,0-1.763-.5h-1.224a1.955,1.955,0,0,1-.828-0.12,0.386,0.386,0,0,1-.225-0.36,0.841,0.841,0,0,1,.482-0.7,3.731,3.731,0,0,0,.609.05,3.156,3.156,0,0,0,2.061-.62,2.293,2.293,0,0,0,.64-2.39,1.961,1.961,0,0,0-.272-0.55l1.2-.22v-0.82h-2.429Zm-2.7,7.3a1.533,1.533,0,0,1,1.017-.31h1.129a2.592,2.592,0,0,1,1.215.2,0.691,0.691,0,0,1,.326.65,1.066,1.066,0,0,1-.6.93,3.73,3.73,0,0,1-1.814.34,2.317,2.317,0,0,1-1.22-.26,0.814,0.814,0,0,1-.435-0.74A0.98,0.98,0,0,1,899.67,2109.68Zm0.6-6.1a1.238,1.238,0,0,1,.979-0.37,1.209,1.209,0,0,1,.974.37,1.581,1.581,0,0,1,.32,1.06,1.183,1.183,0,0,1-1.294,1.38,1.307,1.307,0,0,1-.973-0.35,1.431,1.431,0,0,1-.339-1.02A1.531,1.531,0,0,1,900.266,2103.58Z" transform="translate(-592 -1946)"/>
  <rect id="bg_copy_7" data-name="bg copy 7" class="cls-3" x="101.906" y="105" width="106.906" height="78"/>
  <path id="Identify_and_recruit_project_team" data-name="Identify and recruit project team" class="cls-4" d="M726.9,2078.2v-9.28h-1.078v9.28H726.9Zm7.255,0h0.856v-9.88h-1.053v2.83l0.025,0.49,0.045,0.5h-0.083a2.826,2.826,0,0,0-4.287-.07,4.159,4.159,0,0,0-.761,2.67,4.091,4.091,0,0,0,.758,2.65,2.563,2.563,0,0,0,2.122.94,2.487,2.487,0,0,0,2.181-1.06h0.057Zm-3.678-1.44a3.417,3.417,0,0,1-.489-2.01,3.579,3.579,0,0,1,.492-2.03,1.61,1.61,0,0,1,1.417-.72,1.869,1.869,0,0,1,1.57.63,3.486,3.486,0,0,1,.491,2.11v0.22a2.989,2.989,0,0,1-.485,1.9,1.917,1.917,0,0,1-1.563.58A1.636,1.636,0,0,1,730.477,2076.76Zm10.9,1.46a5.591,5.591,0,0,0,1.056-.34v-0.94a5.651,5.651,0,0,1-2.22.47,2.152,2.152,0,0,1-1.652-.64,2.747,2.747,0,0,1-.618-1.86h4.788v-0.67a3.286,3.286,0,0,0-.761-2.26,2.6,2.6,0,0,0-2.067-.86,2.748,2.748,0,0,0-2.223.99,4.03,4.03,0,0,0-.828,2.67,3.653,3.653,0,0,0,.891,2.61,3.216,3.216,0,0,0,2.432.94A5.878,5.878,0,0,0,741.381,2078.22Zm-0.219-5.69a2.3,2.3,0,0,1,.444,1.52h-3.634a2.544,2.544,0,0,1,.587-1.51,1.728,1.728,0,0,1,1.335-.54A1.542,1.542,0,0,1,741.162,2072.53Zm9.177,5.67v-4.54a2.59,2.59,0,0,0-.635-1.94,2.653,2.653,0,0,0-1.889-.6,2.919,2.919,0,0,0-1.3.28,2.163,2.163,0,0,0-.907.79h-0.051l-0.171-.95H744.53v6.96h1.052v-3.65a2.967,2.967,0,0,1,.508-1.95,2.008,2.008,0,0,1,1.6-.59,1.573,1.573,0,0,1,1.211.42,1.814,1.814,0,0,1,.387,1.27v4.5h1.053Zm3.589-1.08a1.4,1.4,0,0,1-.3-0.96v-4.1h2.017v-0.82H753.63v-1.61h-0.609l-0.444,1.49-1,.43v0.51h1v4.14a1.834,1.834,0,0,0,2.017,2.13,3.415,3.415,0,0,0,.6-0.06,1.918,1.918,0,0,0,.5-0.13v-0.81a3.8,3.8,0,0,1-.412.09,4.66,4.66,0,0,1-.539.04A1.053,1.053,0,0,1,753.928,2077.12Zm4.211-5.88h-1.053v6.96h1.053v-6.96Zm-0.964-1.35a0.656,0.656,0,0,0,.881,0,0.713,0.713,0,0,0,.184-0.53,0.683,0.683,0,0,0-.184-0.53,0.656,0.656,0,0,0-.881,0,0.7,0.7,0,0,0-.178.53A0.732,0.732,0,0,0,757.175,2069.89Zm6.329,1.35h-1.769v-0.45a2.207,2.207,0,0,1,.285-1.27,1,1,0,0,1,.881-0.4,3.527,3.527,0,0,1,1.04.2l0.273-.85a4.9,4.9,0,0,0-1.294-.22c-1.492,0-2.238.86-2.238,2.57v0.38l-1.243.39v0.47h1.243v6.14h1.053v-6.14H763.5v-0.82Zm2.968,7-0.387.99a1.612,1.612,0,0,1-1.547,1.22,3.7,3.7,0,0,1-.78-0.08v0.84a3.8,3.8,0,0,0,.951.11,2.19,2.19,0,0,0,1.455-.49,3.939,3.939,0,0,0,1.037-1.67l2.987-7.92h-1.129q-1.458,4.035-1.722,4.82t-0.345,1.11h-0.051a15.338,15.338,0,0,0-.621-1.96l-1.522-3.97h-1.129Zm-46.149,15.56v-4.75a2.309,2.309,0,0,0-.6-1.77,2.635,2.635,0,0,0-1.842-.55,4.688,4.688,0,0,0-1.227.16,4.962,4.962,0,0,0-1.126.43l0.324,0.81a4.649,4.649,0,0,1,1.966-.53,1.446,1.446,0,0,1,1.125.39,1.758,1.758,0,0,1,.352,1.21v0.43l-1.179.04c-2.245.06-3.368,0.8-3.368,2.21a1.931,1.931,0,0,0,.587,1.51,2.3,2.3,0,0,0,1.62.54,3.065,3.065,0,0,0,1.291-.24,2.814,2.814,0,0,0,1.036-.88h0.051l0.209,0.99h0.78Zm-4.125-1.04a1.091,1.091,0,0,1-.345-0.87,1.18,1.18,0,0,1,.555-1.08,3.834,3.834,0,0,1,1.81-.39l1.053-.04v0.63a2.008,2.008,0,0,1-.561,1.51,2.137,2.137,0,0,1-1.545.54A1.43,1.43,0,0,1,716.2,2092.76Zm12.1,1.04v-4.54a2.589,2.589,0,0,0-.634-1.94,2.657,2.657,0,0,0-1.89-.6,2.922,2.922,0,0,0-1.3.28,2.169,2.169,0,0,0-.907.79h-0.05l-0.172-.95h-0.856v6.96h1.053v-3.65a2.973,2.973,0,0,1,.507-1.95,2.01,2.01,0,0,1,1.6-.59,1.574,1.574,0,0,1,1.212.42,1.814,1.814,0,0,1,.387,1.27v4.5H728.3Zm7.033,0h0.856v-9.88h-1.052v2.83l0.025,0.49,0.044,0.5h-0.082a2.826,2.826,0,0,0-4.287-.07,4.159,4.159,0,0,0-.761,2.67,4.091,4.091,0,0,0,.758,2.65,2.561,2.561,0,0,0,2.121.94,2.49,2.49,0,0,0,2.182-1.06H735.2Zm-3.678-1.44a3.417,3.417,0,0,1-.488-2.01,3.587,3.587,0,0,1,.491-2.03,1.612,1.612,0,0,1,1.418-.72,1.868,1.868,0,0,1,1.569.63,3.478,3.478,0,0,1,.492,2.11v0.22a2.982,2.982,0,0,1-.486,1.9,1.916,1.916,0,0,1-1.563.58A1.637,1.637,0,0,1,731.656,2092.36Zm12.113-5.28a3.135,3.135,0,0,0-.933,1.05h-0.05l-0.121-1.29H741.8v6.96h1.053v-3.73a2.518,2.518,0,0,1,.6-1.71,1.849,1.849,0,0,1,1.443-.69,3.858,3.858,0,0,1,.761.1l0.146-.98a4.2,4.2,0,0,0-.831-0.07A2.129,2.129,0,0,0,743.769,2087.08Zm7.467,6.74a5.591,5.591,0,0,0,1.056-.34v-0.94a5.651,5.651,0,0,1-2.22.47,2.152,2.152,0,0,1-1.652-.64,2.747,2.747,0,0,1-.618-1.86h4.788v-0.67a3.286,3.286,0,0,0-.761-2.26,2.6,2.6,0,0,0-2.067-.86,2.747,2.747,0,0,0-2.223.99,4.03,4.03,0,0,0-.828,2.67,3.653,3.653,0,0,0,.891,2.61,3.216,3.216,0,0,0,2.432.94A5.885,5.885,0,0,0,751.236,2093.82Zm-0.219-5.69a2.3,2.3,0,0,1,.444,1.52h-3.634a2.538,2.538,0,0,1,.587-1.51,1.728,1.728,0,0,1,1.335-.54A1.542,1.542,0,0,1,751.017,2088.13Zm7.9,5.43v-0.93a4.684,4.684,0,0,1-1.782.38,1.794,1.794,0,0,1-1.532-.69,3.229,3.229,0,0,1-.516-1.97q0-2.7,2.118-2.7a3.47,3.47,0,0,1,.729.09,5.158,5.158,0,0,1,.761.23l0.323-.89a3.521,3.521,0,0,0-.786-0.26,4.866,4.866,0,0,0-1-.1,3.005,3.005,0,0,0-2.394.95,3.934,3.934,0,0,0-.84,2.7,3.834,3.834,0,0,0,.827,2.63,2.966,2.966,0,0,0,2.337.93,3.686,3.686,0,0,0,1.757-.37h0Zm3.621-6.48a3.133,3.133,0,0,0-.932,1.05h-0.051l-0.12-1.29h-0.869v6.96h1.052v-3.73a2.513,2.513,0,0,1,.6-1.71,1.845,1.845,0,0,1,1.442-.69,3.858,3.858,0,0,1,.761.1l0.146-.98a4.2,4.2,0,0,0-.83-0.07A2.132,2.132,0,0,0,762.54,2087.08Zm3.253-.24v4.55a2.56,2.56,0,0,0,.631,1.93,2.623,2.623,0,0,0,1.9.61,2.9,2.9,0,0,0,1.309-.28,2.082,2.082,0,0,0,.9-0.78h0.058l0.152,0.93h0.869v-6.96h-1.053v3.66a3.024,3.024,0,0,1-.5,1.95,1.966,1.966,0,0,1-1.6.59,1.61,1.61,0,0,1-1.212-.41,1.836,1.836,0,0,1-.386-1.27v-4.52h-1.066Zm9.1,0h-1.053v6.96h1.053v-6.96Zm-0.964-1.35a0.63,0.63,0,0,0,.444.17,0.637,0.637,0,0,0,.437-0.17,0.713,0.713,0,0,0,.184-0.53,0.683,0.683,0,0,0-.184-0.53,0.637,0.637,0,0,0-.437-0.17,0.63,0.63,0,0,0-.444.17,0.7,0.7,0,0,0-.178.53A0.727,0.727,0,0,0,773.93,2085.49Zm4.623,7.23a1.4,1.4,0,0,1-.3-0.96v-4.1h2.016v-0.82h-2.016v-1.61h-0.609l-0.444,1.49-1,.43v0.51h1v4.14a1.834,1.834,0,0,0,2.017,2.13,3.415,3.415,0,0,0,.6-0.06,1.918,1.918,0,0,0,.5-0.13v-0.81a3.8,3.8,0,0,1-.412.09,4.677,4.677,0,0,1-.539.04A1.052,1.052,0,0,1,778.553,2092.72Zm-63.205,15.86a5.044,5.044,0,0,0,.013-5.32,2.565,2.565,0,0,0-2.134-.94,2.855,2.855,0,0,0-1.236.25,2.435,2.435,0,0,0-.945.82H711l-0.146-.95h-0.856v10.08h1.053v-2.86a9.659,9.659,0,0,0-.076-1.16h0.076a2.348,2.348,0,0,0,.941.78,3.13,3.13,0,0,0,1.24.25A2.579,2.579,0,0,0,715.348,2108.58Zm-0.837-4.67a3.3,3.3,0,0,1,.511,1.99,3.426,3.426,0,0,1-.511,2.01,1.62,1.62,0,0,1-1.411.73,1.858,1.858,0,0,1-1.566-.63,3.481,3.481,0,0,1-.488-2.1v-0.23a3.032,3.032,0,0,1,.488-1.88,1.875,1.875,0,0,1,1.541-.59A1.666,1.666,0,0,1,714.511,2103.91Zm5.413-1.23a3.133,3.133,0,0,0-.932,1.05h-0.051l-0.12-1.29h-0.869v6.96H719v-3.73a2.513,2.513,0,0,1,.6-1.71,1.845,1.845,0,0,1,1.442-.69,3.858,3.858,0,0,1,.761.1l0.146-.98a4.2,4.2,0,0,0-.83-0.07A2.132,2.132,0,0,0,719.924,2102.68Zm8.469,0.61a2.929,2.929,0,0,0-2.318-.97,3.008,3.008,0,0,0-2.359.94,3.856,3.856,0,0,0-.849,2.65,4.343,4.343,0,0,0,.393,1.92,2.864,2.864,0,0,0,1.116,1.26,3.151,3.151,0,0,0,1.655.44,3,3,0,0,0,2.365-.96,3.844,3.844,0,0,0,.857-2.66A3.8,3.8,0,0,0,728.393,2103.29Zm-3.909.6a1.859,1.859,0,0,1,1.56-.68,1.881,1.881,0,0,1,1.582.69,3.229,3.229,0,0,1,.536,2.01,3.286,3.286,0,0,1-.536,2.04,2.127,2.127,0,0,1-3.136,0,3.34,3.34,0,0,1-.533-2.04A3.263,3.263,0,0,1,724.484,2103.89Zm7.667,6.58v-8.03H731.1v8.1a1.231,1.231,0,0,1-.231.82,0.908,0.908,0,0,1-.727.27,3.251,3.251,0,0,1-.862-0.12v0.85a2.452,2.452,0,0,0,.977.16,1.746,1.746,0,0,0,1.9-2.05h0Zm-0.964-9.38a0.656,0.656,0,0,0,.881,0,0.713,0.713,0,0,0,.184-0.53,0.683,0.683,0,0,0-.184-0.53,0.656,0.656,0,0,0-.881,0,0.7,0.7,0,0,0-.178.53A0.727,0.727,0,0,0,731.187,2101.09Zm7.334,8.33a5.591,5.591,0,0,0,1.056-.34v-0.94a5.651,5.651,0,0,1-2.22.47,2.152,2.152,0,0,1-1.652-.64,2.747,2.747,0,0,1-.618-1.86h4.788v-0.67a3.286,3.286,0,0,0-.761-2.26,2.6,2.6,0,0,0-2.068-.86,2.746,2.746,0,0,0-2.222.99,4.03,4.03,0,0,0-.828,2.67,3.653,3.653,0,0,0,.891,2.61,3.216,3.216,0,0,0,2.432.94A5.885,5.885,0,0,0,738.521,2109.42Zm-0.219-5.69a2.3,2.3,0,0,1,.444,1.52h-3.634a2.538,2.538,0,0,1,.587-1.51,1.728,1.728,0,0,1,1.335-.54A1.542,1.542,0,0,1,738.3,2103.73Zm7.9,5.43v-0.93a4.684,4.684,0,0,1-1.782.38,1.794,1.794,0,0,1-1.532-.69,3.229,3.229,0,0,1-.517-1.97q0-2.7,2.119-2.7a3.47,3.47,0,0,1,.729.09,5.158,5.158,0,0,1,.761.23l0.323-.89a3.521,3.521,0,0,0-.786-0.26,4.866,4.866,0,0,0-1-.1,3.005,3.005,0,0,0-2.394.95,3.934,3.934,0,0,0-.84,2.7,3.834,3.834,0,0,0,.827,2.63,2.966,2.966,0,0,0,2.337.93,3.686,3.686,0,0,0,1.757-.37h0Zm3.076-.84a1.4,1.4,0,0,1-.3-0.96v-4.1H751v-0.82h-2.017v-1.61h-0.608l-0.444,1.49-1,.43v0.51h1v4.14a1.834,1.834,0,0,0,2.016,2.13,3.416,3.416,0,0,0,.6-0.06,1.918,1.918,0,0,0,.5-0.13v-0.81a3.856,3.856,0,0,1-.412.09,4.677,4.677,0,0,1-.539.04A1.052,1.052,0,0,1,749.28,2108.32Zm7.958,0a1.408,1.408,0,0,1-.3-0.96v-4.1h2.017v-0.82H756.94v-1.61h-0.609l-0.443,1.49-1,.43v0.51h1v4.14a1.834,1.834,0,0,0,2.016,2.13,3.416,3.416,0,0,0,.6-0.06,1.929,1.929,0,0,0,.5-0.13v-0.81a3.827,3.827,0,0,1-.413.09,4.66,4.66,0,0,1-.539.04A1.055,1.055,0,0,1,757.238,2108.32Zm7.3,1.1a5.591,5.591,0,0,0,1.056-.34v-0.94a5.646,5.646,0,0,1-2.219.47,2.15,2.15,0,0,1-1.652-.64,2.752,2.752,0,0,1-.619-1.86h4.788v-0.67a3.281,3.281,0,0,0-.761-2.26,2.6,2.6,0,0,0-2.067-.86,2.749,2.749,0,0,0-2.223.99,4.035,4.035,0,0,0-.827,2.67,3.653,3.653,0,0,0,.891,2.61,3.214,3.214,0,0,0,2.432.94A5.875,5.875,0,0,0,764.534,2109.42Zm-0.218-5.69a2.3,2.3,0,0,1,.444,1.52h-3.634a2.537,2.537,0,0,1,.586-1.51,1.728,1.728,0,0,1,1.335-.54A1.543,1.543,0,0,1,764.316,2103.73Zm8.421,5.67v-4.75a2.309,2.309,0,0,0-.6-1.77,2.636,2.636,0,0,0-1.842-.55,4.688,4.688,0,0,0-1.227.16,4.962,4.962,0,0,0-1.126.43l0.323,0.81a4.657,4.657,0,0,1,1.966-.53,1.449,1.449,0,0,1,1.126.39,1.758,1.758,0,0,1,.352,1.21v0.43l-1.18.04c-2.244.06-3.367,0.8-3.367,2.21a1.931,1.931,0,0,0,.587,1.51,2.3,2.3,0,0,0,1.62.54,3.057,3.057,0,0,0,1.29-.24,2.809,2.809,0,0,0,1.037-.88h0.051l0.209,0.99h0.78Zm-4.125-1.04a1.091,1.091,0,0,1-.346-0.87,1.18,1.18,0,0,1,.555-1.08,3.842,3.842,0,0,1,1.811-.39l1.053-.04v0.63a2,2,0,0,1-.562,1.51,2.134,2.134,0,0,1-1.544.54A1.428,1.428,0,0,1,768.612,2108.36Zm16.206,1.04v-4.54a2.724,2.724,0,0,0-.586-1.94,2.368,2.368,0,0,0-1.767-.6,2.805,2.805,0,0,0-1.344.31,2.183,2.183,0,0,0-.9.87H780.17a2.06,2.06,0,0,0-2.131-1.18,2.564,2.564,0,0,0-1.214.28,2.117,2.117,0,0,0-.841.79h-0.05l-0.172-.95h-0.856v6.96h1.053v-3.65a3.238,3.238,0,0,1,.46-1.95,1.731,1.731,0,0,1,1.449-.59,1.375,1.375,0,0,1,1.11.42,1.857,1.857,0,0,1,.355,1.24v4.53h1.052v-3.89a2.65,2.65,0,0,1,.47-1.73,1.773,1.773,0,0,1,1.452-.57,1.363,1.363,0,0,1,1.1.42,1.852,1.852,0,0,1,.356,1.24v4.53h1.052Z" transform="translate(-592 -1946)"/>
  <rect id="bg_copy_2" data-name="bg copy 2" class="cls-5" x="233.781" y="2" width="106.907" height="78"/>
  <path id="Develop_Project_Charter" data-name="Develop Project Charter" class="cls-4" d="M861.908,1969.12a4.54,4.54,0,0,0-3.361-1.2h-2.841v9.28h2.568a4.929,4.929,0,0,0,3.586-1.22,4.681,4.681,0,0,0,1.247-3.51A4.537,4.537,0,0,0,861.908,1969.12Zm-0.913,6.2a4,4,0,0,1-2.9.95h-1.313v-7.42h1.566a3.66,3.66,0,0,1,2.7.92A4.567,4.567,0,0,1,861,1975.32Zm8.158,1.9a5.591,5.591,0,0,0,1.056-.34v-0.94a5.646,5.646,0,0,1-2.219.47,2.15,2.15,0,0,1-1.652-.64,2.747,2.747,0,0,1-.619-1.86h4.788v-0.67a3.281,3.281,0,0,0-.761-2.26,2.6,2.6,0,0,0-2.067-.86,2.749,2.749,0,0,0-2.223.99,4.03,4.03,0,0,0-.827,2.67,3.653,3.653,0,0,0,.891,2.61,3.214,3.214,0,0,0,2.432.94A5.875,5.875,0,0,0,869.153,1977.22Zm-0.218-5.69a2.306,2.306,0,0,1,.444,1.52h-3.634a2.537,2.537,0,0,1,.586-1.51,1.728,1.728,0,0,1,1.335-.54A1.543,1.543,0,0,1,868.935,1971.53Zm6.119,5.67,2.638-6.96h-1.128q-1.294,3.555-1.665,4.61a14.359,14.359,0,0,0-.441,1.4h-0.051a18.613,18.613,0,0,0-.6-1.88l-1.5-4.13h-1.129l2.638,6.96h1.23Zm7.893,0.02a5.606,5.606,0,0,0,1.055-.34v-0.94a5.646,5.646,0,0,1-2.219.47,2.152,2.152,0,0,1-1.652-.64,2.747,2.747,0,0,1-.618-1.86H884.3v-0.67a3.281,3.281,0,0,0-.761-2.26,2.6,2.6,0,0,0-2.067-.86,2.749,2.749,0,0,0-2.223.99,4.035,4.035,0,0,0-.827,2.67,3.653,3.653,0,0,0,.891,2.61,3.214,3.214,0,0,0,2.432.94A5.885,5.885,0,0,0,882.947,1977.22Zm-0.219-5.69a2.3,2.3,0,0,1,.444,1.52h-3.634a2.544,2.544,0,0,1,.586-1.51,1.728,1.728,0,0,1,1.335-.54A1.543,1.543,0,0,1,882.728,1971.53Zm4.42-4.21H886.1v9.88h1.053v-9.88Zm7.372,3.77a2.929,2.929,0,0,0-2.318-.97,3.008,3.008,0,0,0-2.359.94,3.856,3.856,0,0,0-.85,2.65,4.357,4.357,0,0,0,.393,1.92,2.872,2.872,0,0,0,1.117,1.26,3.148,3.148,0,0,0,1.655.44,3.006,3.006,0,0,0,2.365-.96,3.844,3.844,0,0,0,.856-2.66A3.8,3.8,0,0,0,894.52,1971.09Zm-3.91.6a1.86,1.86,0,0,1,1.56-.68,1.882,1.882,0,0,1,1.583.69,3.229,3.229,0,0,1,.536,2.01,3.286,3.286,0,0,1-.536,2.04,2.127,2.127,0,0,1-3.136,0,3.34,3.34,0,0,1-.533-2.04A3.263,3.263,0,0,1,890.61,1971.69Zm11.97,4.69a5.044,5.044,0,0,0,.013-5.32,2.565,2.565,0,0,0-2.134-.94,2.863,2.863,0,0,0-1.237.25,2.439,2.439,0,0,0-.944.82h-0.051l-0.146-.95h-0.856v10.08h1.053v-2.86a9.467,9.467,0,0,0-.077-1.16h0.077a2.348,2.348,0,0,0,.941.78,3.126,3.126,0,0,0,1.24.25A2.579,2.579,0,0,0,902.58,1976.38Zm-0.837-4.67a3.3,3.3,0,0,1,.511,1.99,3.433,3.433,0,0,1-.511,2.01,1.621,1.621,0,0,1-1.411.73,1.857,1.857,0,0,1-1.566-.63,3.481,3.481,0,0,1-.488-2.1v-0.23a3.032,3.032,0,0,1,.488-1.88,1.875,1.875,0,0,1,1.541-.59A1.666,1.666,0,0,1,901.743,1971.71Zm-39.968,11.81h-2.4v9.28h1.078v-3.65h1.091a4.322,4.322,0,0,0,2.749-.76,2.6,2.6,0,0,0,.961-2.17q0-2.7-3.475-2.7h0Zm-1.326.93h1.205a3.152,3.152,0,0,1,1.878.45,1.6,1.6,0,0,1,.6,1.37,1.709,1.709,0,0,1-.641,1.49,3.6,3.6,0,0,1-2.073.46h-0.971v-3.77Zm8.555,1.63a3.144,3.144,0,0,0-.932,1.05h-0.051l-0.12-1.29h-0.869v6.96h1.053v-3.73a2.518,2.518,0,0,1,.6-1.71,1.849,1.849,0,0,1,1.443-.69,3.867,3.867,0,0,1,.761.1l0.146-.98a4.205,4.205,0,0,0-.831-0.07A2.132,2.132,0,0,0,869,1986.08Zm8.47,0.61a2.931,2.931,0,0,0-2.318-.97,3.006,3.006,0,0,0-2.359.94,3.851,3.851,0,0,0-.85,2.65,4.357,4.357,0,0,0,.393,1.92,2.864,2.864,0,0,0,1.116,1.26,3.151,3.151,0,0,0,1.655.44,3.007,3.007,0,0,0,2.366-.96,3.844,3.844,0,0,0,.856-2.66A3.8,3.8,0,0,0,877.474,1986.69Zm-3.91.6a1.86,1.86,0,0,1,1.56-.68,1.879,1.879,0,0,1,1.582.69,3.223,3.223,0,0,1,.536,2.01,3.28,3.28,0,0,1-.536,2.04,2.127,2.127,0,0,1-3.136,0,3.341,3.341,0,0,1-.532-2.04A3.263,3.263,0,0,1,873.564,1987.29Zm7.667,6.58v-8.03h-1.053v8.1a1.231,1.231,0,0,1-.231.82,0.9,0.9,0,0,1-.726.27,3.258,3.258,0,0,1-.863-0.12v0.85a2.455,2.455,0,0,0,.977.16,1.746,1.746,0,0,0,1.9-2.05h0Zm-0.964-9.38a0.631,0.631,0,0,0,.444.17,0.64,0.64,0,0,0,.438-0.17,0.717,0.717,0,0,0,.184-0.53,0.687,0.687,0,0,0-.184-0.53,0.64,0.64,0,0,0-.438-0.17,0.631,0.631,0,0,0-.444.17,0.7,0.7,0,0,0-.177.53A0.731,0.731,0,0,0,880.267,1984.49Zm7.334,8.33a5.591,5.591,0,0,0,1.056-.34v-0.94a5.646,5.646,0,0,1-2.219.47,2.15,2.15,0,0,1-1.652-.64,2.747,2.747,0,0,1-.619-1.86h4.788v-0.67a3.281,3.281,0,0,0-.761-2.26,2.6,2.6,0,0,0-2.067-.86,2.749,2.749,0,0,0-2.223.99,4.03,4.03,0,0,0-.827,2.67,3.648,3.648,0,0,0,.891,2.61,3.213,3.213,0,0,0,2.432.94A5.875,5.875,0,0,0,887.6,1992.82Zm-0.218-5.69a2.306,2.306,0,0,1,.443,1.52h-3.633a2.537,2.537,0,0,1,.586-1.51,1.728,1.728,0,0,1,1.335-.54A1.543,1.543,0,0,1,887.383,1987.13Zm7.9,5.43v-0.93a4.684,4.684,0,0,1-1.782.38,1.792,1.792,0,0,1-1.531-.69,3.222,3.222,0,0,1-.517-1.97q0-2.7,2.118-2.7a3.47,3.47,0,0,1,.729.09,5.122,5.122,0,0,1,.761.23l0.324-.89a3.549,3.549,0,0,0-.787-0.26,4.866,4.866,0,0,0-1-.1,3.007,3.007,0,0,0-2.394.95,3.934,3.934,0,0,0-.84,2.7,3.829,3.829,0,0,0,.828,2.63,2.963,2.963,0,0,0,2.337.93,3.682,3.682,0,0,0,1.756-.37h0Zm3.076-.84a1.4,1.4,0,0,1-.3-0.96v-4.1h2.017v-0.82h-2.017v-1.61h-0.609l-0.444,1.49-1,.43v0.51h1v4.14a1.834,1.834,0,0,0,2.017,2.13,3.415,3.415,0,0,0,.6-0.06,1.918,1.918,0,0,0,.5-0.13v-0.81a3.8,3.8,0,0,1-.412.09,4.66,4.66,0,0,1-.539.04A1.053,1.053,0,0,1,898.36,1991.72Zm-34.692,8.73,0.456-.93a5.679,5.679,0,0,0-2.549-.53,4.67,4.67,0,0,0-2.381.58,3.844,3.844,0,0,0-1.548,1.66,5.607,5.607,0,0,0-.535,2.52,5.125,5.125,0,0,0,1.113,3.53,4.021,4.021,0,0,0,3.161,1.25,6.6,6.6,0,0,0,2.378-.37v-0.94a8.413,8.413,0,0,1-2.213.35,3.009,3.009,0,0,1-2.432-1,4.181,4.181,0,0,1-.853-2.81,4.119,4.119,0,0,1,.884-2.79,3.029,3.029,0,0,1,2.413-1.02,4.921,4.921,0,0,1,2.106.5h0Zm7.768,7.95v-4.54a2.572,2.572,0,0,0-.637-1.93,2.7,2.7,0,0,0-1.912-.6,2.785,2.785,0,0,0-1.31.29,2.093,2.093,0,0,0-.884.79h-0.064a6.593,6.593,0,0,0,.051-0.9v-2.99h-1.053v9.88h1.053v-3.64a3,3,0,0,1,.5-1.95,1.978,1.978,0,0,1,1.6-.6,1.573,1.573,0,0,1,1.211.42,1.814,1.814,0,0,1,.387,1.27v4.5h1.052Zm7.217,0v-4.75a2.312,2.312,0,0,0-.6-1.77,2.638,2.638,0,0,0-1.842-.55,4.688,4.688,0,0,0-1.227.16,4.944,4.944,0,0,0-1.126.43l0.323,0.81a4.657,4.657,0,0,1,1.966-.53,1.449,1.449,0,0,1,1.126.39,1.758,1.758,0,0,1,.352,1.21v0.43l-1.18.04c-2.245.06-3.367,0.8-3.367,2.21a1.93,1.93,0,0,0,.586,1.51,2.305,2.305,0,0,0,1.621.54,3.057,3.057,0,0,0,1.29-.24,2.817,2.817,0,0,0,1.037-.88h0.051l0.209,0.99h0.78Zm-4.125-1.04a1.088,1.088,0,0,1-.346-0.87,1.18,1.18,0,0,1,.555-1.08,3.842,3.842,0,0,1,1.811-.39l1.053-.04v0.63a2.008,2.008,0,0,1-.562,1.51,2.134,2.134,0,0,1-1.544.54A1.428,1.428,0,0,1,874.528,2007.36Zm8.266-5.68a3.144,3.144,0,0,0-.932,1.05h-0.051l-0.12-1.29h-0.869v6.96h1.053v-3.73a2.518,2.518,0,0,1,.6-1.71,1.847,1.847,0,0,1,1.443-.69,3.867,3.867,0,0,1,.761.1l0.146-.98a4.212,4.212,0,0,0-.831-0.07A2.132,2.132,0,0,0,882.794,2001.68Zm4.757,5.64a1.4,1.4,0,0,1-.3-0.96v-4.1h2.016v-0.82h-2.016v-1.61h-0.609l-0.444,1.49-1,.43v0.51h1v4.14a1.834,1.834,0,0,0,2.016,2.13,3.416,3.416,0,0,0,.6-0.06,1.918,1.918,0,0,0,.5-0.13v-0.81a3.856,3.856,0,0,1-.412.09,4.677,4.677,0,0,1-.539.04A1.052,1.052,0,0,1,887.551,2007.32Zm7.3,1.1a5.614,5.614,0,0,0,1.056-.34v-0.94a5.655,5.655,0,0,1-2.22.47,2.152,2.152,0,0,1-1.652-.64,2.747,2.747,0,0,1-.618-1.86H896.2v-0.67a3.286,3.286,0,0,0-.761-2.26,2.6,2.6,0,0,0-2.068-.86,2.749,2.749,0,0,0-2.223.99,4.035,4.035,0,0,0-.827,2.67,3.653,3.653,0,0,0,.891,2.61,3.216,3.216,0,0,0,2.432.94A5.885,5.885,0,0,0,894.847,2008.42Zm-0.219-5.69a2.3,2.3,0,0,1,.444,1.52h-3.634a2.538,2.538,0,0,1,.587-1.51,1.725,1.725,0,0,1,1.335-.54A1.542,1.542,0,0,1,894.628,2002.73Zm5.34-1.05a3.135,3.135,0,0,0-.933,1.05h-0.05l-0.121-1.29H898v6.96h1.053v-3.73a2.518,2.518,0,0,1,.6-1.71,1.849,1.849,0,0,1,1.443-.69,3.867,3.867,0,0,1,.761.1l0.146-.98a4.2,4.2,0,0,0-.831-0.07A2.129,2.129,0,0,0,899.968,2001.68Z" transform="translate(-592 -1946)"/>
  <rect id="bg_copy" data-name="bg copy" class="cls-6" x="101.906" y="2" width="106.906" height="78"/>
  <path id="Identify_Stakeholders" data-name="Identify Stakeholders" class="cls-4" d="M726.9,1984.2v-9.28h-1.078v9.28H726.9Zm7.255,0h0.856v-9.88h-1.053v2.83l0.025,0.49,0.045,0.5h-0.083a2.826,2.826,0,0,0-4.287-.07,4.159,4.159,0,0,0-.761,2.67,4.091,4.091,0,0,0,.758,2.65,2.563,2.563,0,0,0,2.122.94,2.487,2.487,0,0,0,2.181-1.06h0.057Zm-3.678-1.44a3.417,3.417,0,0,1-.489-2.01,3.579,3.579,0,0,1,.492-2.03,1.61,1.61,0,0,1,1.417-.72,1.869,1.869,0,0,1,1.57.63,3.486,3.486,0,0,1,.491,2.11v0.22a2.989,2.989,0,0,1-.485,1.9,1.917,1.917,0,0,1-1.563.58A1.636,1.636,0,0,1,730.477,1982.76Zm10.9,1.46a5.591,5.591,0,0,0,1.056-.34v-0.94a5.651,5.651,0,0,1-2.22.47,2.152,2.152,0,0,1-1.652-.64,2.747,2.747,0,0,1-.618-1.86h4.788v-0.67a3.286,3.286,0,0,0-.761-2.26,2.6,2.6,0,0,0-2.067-.86,2.748,2.748,0,0,0-2.223.99,4.03,4.03,0,0,0-.828,2.67,3.653,3.653,0,0,0,.891,2.61,3.216,3.216,0,0,0,2.432.94A5.878,5.878,0,0,0,741.381,1984.22Zm-0.219-5.69a2.3,2.3,0,0,1,.444,1.52h-3.634a2.544,2.544,0,0,1,.587-1.51,1.728,1.728,0,0,1,1.335-.54A1.542,1.542,0,0,1,741.162,1978.53Zm9.177,5.67v-4.54a2.59,2.59,0,0,0-.635-1.94,2.653,2.653,0,0,0-1.889-.6,2.919,2.919,0,0,0-1.3.28,2.163,2.163,0,0,0-.907.79h-0.051l-0.171-.95H744.53v6.96h1.052v-3.65a2.967,2.967,0,0,1,.508-1.95,2.008,2.008,0,0,1,1.6-.59,1.573,1.573,0,0,1,1.211.42,1.814,1.814,0,0,1,.387,1.27v4.5h1.053Zm3.589-1.08a1.4,1.4,0,0,1-.3-0.96v-4.1h2.017v-0.82H753.63v-1.61h-0.609l-0.444,1.49-1,.43v0.51h1v4.14a1.834,1.834,0,0,0,2.017,2.13,3.415,3.415,0,0,0,.6-0.06,1.918,1.918,0,0,0,.5-0.13v-0.81a3.8,3.8,0,0,1-.412.09,4.66,4.66,0,0,1-.539.04A1.053,1.053,0,0,1,753.928,1983.12Zm4.211-5.88h-1.053v6.96h1.053v-6.96Zm-0.964-1.35a0.656,0.656,0,0,0,.881,0,0.713,0.713,0,0,0,.184-0.53,0.683,0.683,0,0,0-.184-0.53,0.656,0.656,0,0,0-.881,0,0.7,0.7,0,0,0-.178.53A0.732,0.732,0,0,0,757.175,1975.89Zm6.329,1.35h-1.769v-0.45a2.207,2.207,0,0,1,.285-1.27,1,1,0,0,1,.881-0.4,3.527,3.527,0,0,1,1.04.2l0.273-.85a4.9,4.9,0,0,0-1.294-.22c-1.492,0-2.238.86-2.238,2.57v0.38l-1.243.39v0.47h1.243v6.14h1.053v-6.14H763.5v-0.82Zm2.968,7-0.387.99a1.612,1.612,0,0,1-1.547,1.22,3.7,3.7,0,0,1-.78-0.08v0.84a3.8,3.8,0,0,0,.951.11,2.19,2.19,0,0,0,1.455-.49,3.939,3.939,0,0,0,1.037-1.67l2.987-7.92h-1.129q-1.458,4.035-1.722,4.82t-0.345,1.11h-0.051a15.338,15.338,0,0,0-.621-1.96l-1.522-3.97h-1.129Zm-52.582,11.54a5.121,5.121,0,0,0-2.007-1.12,7.067,7.067,0,0,1-1.291-.56,1.712,1.712,0,0,1-.6-0.57,1.561,1.561,0,0,1-.178-0.79,1.211,1.211,0,0,1,.482-1.02,2.132,2.132,0,0,1,1.338-.37,5.773,5.773,0,0,1,2.233.48l0.336-.94a6.42,6.42,0,0,0-2.543-.5,3.362,3.362,0,0,0-2.131.63,2.055,2.055,0,0,0-.8,1.71,2.4,2.4,0,0,0,.554,1.65,4.35,4.35,0,0,0,1.849,1.1,9.407,9.407,0,0,1,1.379.59,1.911,1.911,0,0,1,.647.57,1.477,1.477,0,0,1,.194.79,1.337,1.337,0,0,1-.546,1.14,2.7,2.7,0,0,1-1.623.41,6.759,6.759,0,0,1-1.332-.14,6.52,6.52,0,0,1-1.243-.38v1.04a6.078,6.078,0,0,0,2.537.43,3.831,3.831,0,0,0,2.41-.69,2.277,2.277,0,0,0,.887-1.91A2.212,2.212,0,0,0,713.89,1995.78Zm3.713,2.94a1.4,1.4,0,0,1-.3-0.96v-4.1h2.017v-0.82h-2.017v-1.61H716.7l-0.444,1.49-1,.43v0.51h1v4.14a1.834,1.834,0,0,0,2.017,2.13,3.415,3.415,0,0,0,.6-0.06,1.918,1.918,0,0,0,.5-0.13v-0.81a3.8,3.8,0,0,1-.412.09,4.66,4.66,0,0,1-.539.04A1.053,1.053,0,0,1,717.6,1998.72Zm8.212,1.08v-4.75a2.309,2.309,0,0,0-.6-1.77,2.636,2.636,0,0,0-1.842-.55,4.688,4.688,0,0,0-1.227.16,4.962,4.962,0,0,0-1.126.43l0.324,0.81a4.649,4.649,0,0,1,1.965-.53,1.449,1.449,0,0,1,1.126.39,1.758,1.758,0,0,1,.352,1.21v0.43l-1.18.04c-2.244.06-3.367,0.8-3.367,2.21a1.931,1.931,0,0,0,.587,1.51,2.3,2.3,0,0,0,1.62.54,3.057,3.057,0,0,0,1.29-.24,2.809,2.809,0,0,0,1.037-.88h0.051l0.209,0.99h0.78Zm-4.125-1.04a1.091,1.091,0,0,1-.345-0.87,1.179,1.179,0,0,1,.554-1.08,3.842,3.842,0,0,1,1.811-.39l1.053-.04v0.63a2,2,0,0,1-.562,1.51,2.134,2.134,0,0,1-1.544.54A1.43,1.43,0,0,1,721.69,1998.76Zm7.284-2.52q0.049-.735.05-1.08v-5.24h-1.04v9.88h1.04v-2.6l0.793-.69,2.454,3.29h1.275l-3.012-3.99,2.815-2.97H732.1l-2.245,2.38a12.245,12.245,0,0,0-.831,1.02h-0.05Zm9.965,3.58a5.591,5.591,0,0,0,1.056-.34v-0.94a5.646,5.646,0,0,1-2.219.47,2.15,2.15,0,0,1-1.652-.64,2.752,2.752,0,0,1-.619-1.86h4.788v-0.67a3.281,3.281,0,0,0-.761-2.26,2.6,2.6,0,0,0-2.067-.86,2.749,2.749,0,0,0-2.223.99,4.035,4.035,0,0,0-.827,2.67,3.653,3.653,0,0,0,.891,2.61,3.214,3.214,0,0,0,2.432.94A5.868,5.868,0,0,0,738.939,1999.82Zm-0.218-5.69a2.3,2.3,0,0,1,.444,1.52h-3.634a2.537,2.537,0,0,1,.586-1.51,1.728,1.728,0,0,1,1.335-.54A1.543,1.543,0,0,1,738.721,1994.13Zm9.176,5.67v-4.54a2.572,2.572,0,0,0-.637-1.93,2.7,2.7,0,0,0-1.912-.6,2.783,2.783,0,0,0-1.31.29,2.1,2.1,0,0,0-.885.79H743.09a6.593,6.593,0,0,0,.051-0.9v-2.99h-1.053v9.88h1.053v-3.64a3,3,0,0,1,.5-1.95,1.978,1.978,0,0,1,1.6-.6,1.574,1.574,0,0,1,1.212.42,1.819,1.819,0,0,1,.386,1.27v4.5H747.9Zm7.3-6.11a2.927,2.927,0,0,0-2.317-.97,3.005,3.005,0,0,0-2.359.94,3.851,3.851,0,0,0-.85,2.65,4.357,4.357,0,0,0,.393,1.92,2.864,2.864,0,0,0,1.116,1.26,3.151,3.151,0,0,0,1.655.44,3.008,3.008,0,0,0,2.366-.96,3.849,3.849,0,0,0,.856-2.66A3.8,3.8,0,0,0,755.2,1993.69Zm-3.909.6a1.86,1.86,0,0,1,1.56-.68,1.881,1.881,0,0,1,1.582.69,3.229,3.229,0,0,1,.536,2.01,3.286,3.286,0,0,1-.536,2.04,2.127,2.127,0,0,1-3.136,0,3.34,3.34,0,0,1-.533-2.04A3.263,3.263,0,0,1,751.29,1994.29Zm7.667-4.37H757.9v9.88h1.053v-9.88Zm7.1,9.88h0.856v-9.88h-1.053v2.83l0.025,0.49,0.045,0.5H765.85a2.826,2.826,0,0,0-4.287-.07,4.159,4.159,0,0,0-.761,2.67,4.091,4.091,0,0,0,.758,2.65,2.561,2.561,0,0,0,2.121.94,2.488,2.488,0,0,0,2.182-1.06h0.057Zm-3.679-1.44a3.425,3.425,0,0,1-.488-2.01,3.579,3.579,0,0,1,.492-2.03,1.61,1.61,0,0,1,1.417-.72,1.869,1.869,0,0,1,1.57.63,3.486,3.486,0,0,1,.491,2.11v0.22a2.989,2.989,0,0,1-.485,1.9,1.919,1.919,0,0,1-1.563.58A1.639,1.639,0,0,1,762.381,1998.36Zm10.9,1.46a5.591,5.591,0,0,0,1.056-.34v-0.94a5.651,5.651,0,0,1-2.22.47,2.152,2.152,0,0,1-1.652-.64,2.747,2.747,0,0,1-.618-1.86h4.788v-0.67a3.286,3.286,0,0,0-.761-2.26,2.6,2.6,0,0,0-2.068-.86,2.746,2.746,0,0,0-2.222.99,4.03,4.03,0,0,0-.828,2.67,3.653,3.653,0,0,0,.891,2.61,3.216,3.216,0,0,0,2.432.94A5.885,5.885,0,0,0,773.286,1999.82Zm-0.219-5.69a2.3,2.3,0,0,1,.444,1.52h-3.634a2.538,2.538,0,0,1,.587-1.51,1.728,1.728,0,0,1,1.335-.54A1.542,1.542,0,0,1,773.067,1994.13Zm5.34-1.05a3.122,3.122,0,0,0-.932,1.05h-0.051l-0.121-1.29h-0.868v6.96h1.052v-3.73a2.513,2.513,0,0,1,.6-1.71,1.845,1.845,0,0,1,1.442-.69,3.858,3.858,0,0,1,.761.1l0.146-.98a4.2,4.2,0,0,0-.831-0.07A2.129,2.129,0,0,0,778.407,1993.08Zm7.378,3.67a4.753,4.753,0,0,0-1.671-.91,9.489,9.489,0,0,1-1.217-.51,1.431,1.431,0,0,1-.46-0.37,0.792,0.792,0,0,1-.143-0.48,0.74,0.74,0,0,1,.381-0.65,2.252,2.252,0,0,1,1.129-.23,4.988,4.988,0,0,1,1.9.43l0.374-.86a5.62,5.62,0,0,0-2.194-.45,3.2,3.2,0,0,0-1.9.49,1.556,1.556,0,0,0-.692,1.34,1.6,1.6,0,0,0,.2.82,1.862,1.862,0,0,0,.609.61,7.37,7.37,0,0,0,1.379.63,5.491,5.491,0,0,1,1.373.69,0.9,0.9,0,0,1-.092,1.49,2.457,2.457,0,0,1-1.268.27,4.378,4.378,0,0,1-1.107-.15,5.34,5.34,0,0,1-1.075-.4v0.98a4.432,4.432,0,0,0,2.156.44,3.406,3.406,0,0,0,2.03-.53,1.742,1.742,0,0,0,.723-1.5A1.614,1.614,0,0,0,785.785,1996.75Z" transform="translate(-592 -1946)"/>
  <path id="Shape_127_copy" data-name="Shape 127 copy" class="cls-2" d="M801.8,1987v-1h23.977v1H801.8Zm24.306-1.38-0.658.76-7.993-7,0.658-.76Z" transform="translate(-592 -1946)"/>
  <path id="Shape_128_copy" data-name="Shape 128 copy" class="cls-2" d="M824.453,1985.62l0.658,0.76-7.993,7-0.658-.76Z" transform="translate(-592 -1946)"/>
  <path class="cls-2" d="M669.928,1987v-1h23.977v1H669.928Z" transform="translate(-592 -1946)"/>
  <ellipse id="Circle_BG" data-name="Circle BG" class="cls-7" cx="39.969" cy="41" rx="37.969" ry="38"/>
  <path id="Start" class="cls-4" d="M623.511,1986.98a5.121,5.121,0,0,0-2.007-1.12,7.067,7.067,0,0,1-1.291-.56,1.628,1.628,0,0,1-.6-0.57,1.551,1.551,0,0,1-.178-0.79,1.211,1.211,0,0,1,.482-1.02,2.129,2.129,0,0,1,1.338-.37,5.773,5.773,0,0,1,2.233.48l0.336-.94a6.42,6.42,0,0,0-2.543-.5,3.362,3.362,0,0,0-2.131.63,2.056,2.056,0,0,0-.806,1.71,2.449,2.449,0,0,0,.555,1.66,4.442,4.442,0,0,0,1.849,1.09,9.407,9.407,0,0,1,1.379.59,1.921,1.921,0,0,1,.647.57,1.477,1.477,0,0,1,.193.79,1.336,1.336,0,0,1-.545,1.14,2.706,2.706,0,0,1-1.623.41,6.759,6.759,0,0,1-1.332-.14,6.5,6.5,0,0,1-1.243-.38v1.04a5.92,5.92,0,0,0,2.537.43,3.828,3.828,0,0,0,2.409-.69,2.275,2.275,0,0,0,.888-1.91A2.216,2.216,0,0,0,623.511,1986.98Zm3.713,2.94a1.385,1.385,0,0,1-.3-0.96v-4.1h2.016v-0.82h-2.016v-1.61h-0.609l-0.444,1.49-1,.43v0.51h1V1989a1.834,1.834,0,0,0,2.017,2.13,3.415,3.415,0,0,0,.6-0.06,1.918,1.918,0,0,0,.5-0.13v-0.81a3.8,3.8,0,0,1-.412.09,4.677,4.677,0,0,1-.539.04A1.019,1.019,0,0,1,627.224,1989.92Zm8.212,1.08v-4.75a2.312,2.312,0,0,0-.6-1.77,2.638,2.638,0,0,0-1.842-.55,4.688,4.688,0,0,0-1.227.16,4.536,4.536,0,0,0-1.126.44l0.323,0.8a4.657,4.657,0,0,1,1.966-.53,1.449,1.449,0,0,1,1.126.39,1.758,1.758,0,0,1,.352,1.21v0.43l-1.18.04c-2.245.07-3.367,0.8-3.367,2.21a1.93,1.93,0,0,0,.586,1.51,2.3,2.3,0,0,0,1.621.54,3.23,3.23,0,0,0,1.29-.23,2.958,2.958,0,0,0,1.037-.89h0.051l0.209,0.99h0.78Zm-4.125-1.04a1.088,1.088,0,0,1-.346-0.87,1.18,1.18,0,0,1,.555-1.08,3.842,3.842,0,0,1,1.811-.39l1.052-.04v0.63a2.008,2.008,0,0,1-.561,1.51,2.134,2.134,0,0,1-1.544.54A1.428,1.428,0,0,1,631.311,1989.96Zm8.266-5.68a3.144,3.144,0,0,0-.932,1.05h-0.051l-0.12-1.29h-0.869V1991h1.053v-3.73a2.518,2.518,0,0,1,.6-1.71,1.847,1.847,0,0,1,1.443-.69,3.867,3.867,0,0,1,.761.1l0.146-.98a4.212,4.212,0,0,0-.831-0.07A2.132,2.132,0,0,0,639.577,1984.28Zm4.757,5.64a1.385,1.385,0,0,1-.3-0.96v-4.1h2.016v-0.82h-2.016v-1.61h-0.609l-0.444,1.49-1,.43v0.51h1V1989a1.834,1.834,0,0,0,2.016,2.13,3.416,3.416,0,0,0,.6-0.06,1.918,1.918,0,0,0,.5-0.13v-0.81a3.856,3.856,0,0,1-.412.09,4.677,4.677,0,0,1-.539.04A1.019,1.019,0,0,1,644.334,1989.92Z" transform="translate(-592 -1946)"/>
  <g id="Connecting_lines" data-name="Connecting lines">
    <path class="cls-2" d="M931.681,1988v-1h24.976v1H931.681Zm23.977-1h1v52h-1v-52Zm0,51v1H669.928v-1h285.73Zm-285.73,1h1v51h-1v-51Z" transform="translate(-592 -1946)"/>
    <path id="Shape_127_copy_4" data-name="Shape 127 copy 4" class="cls-2" d="M669.928,2090v-1h23.977v1H669.928Zm24.306-1.38-0.657.76-7.993-7,0.658-.76Z" transform="translate(-592 -1946)"/>
    <path id="Shape_128_copy_4" data-name="Shape 128 copy 4" class="cls-2" d="M692.577,2088.62l0.658,0.76-7.992,7-0.658-.76Z" transform="translate(-592 -1946)"/>
    <path id="Shape_127_copy_5" data-name="Shape 127 copy 5" class="cls-2" d="M800.8,2090v-1h24.977v1H800.8Zm25.306-1.38-0.658.76-7.993-7,0.658-.76Z" transform="translate(-592 -1946)"/>
    <path id="Shape_128_copy_5" data-name="Shape 128 copy 5" class="cls-2" d="M824.453,2088.62l0.658,0.76-7.993,7-0.658-.76Z" transform="translate(-592 -1946)"/>
    <path id="Shape_127_copy_6" data-name="Shape 127 copy 6" class="cls-2" d="M932.68,2090v-1h24.976v1H932.68Zm25.305-1.38-0.658.76-7.992-7,0.658-.76Z" transform="translate(-592 -1946)"/>
    <path id="Shape_128_copy_6" data-name="Shape 128 copy 6" class="cls-2" d="M956.328,2088.62l0.658,0.76-7.992,7-0.658-.76Z" transform="translate(-592 -1946)"/>
  </g>
</svg>
