<svg id="Flow_Chart_-_Plan_Initiate" data-name="Flow Chart - Plan Initiate" xmlns="http://www.w3.org/2000/svg" xmlns:xlink="http://www.w3.org/1999/xlink" width="366" height="193.5" viewBox="0 0 366 193.5">
  <defs>
    <style>
      .cls-1, .cls-3, .cls-5, .cls-6, .cls-7 {
        fill: #f2f2f2;
      }

      .cls-1 {
        filter: url(#filter);
      }

      .cls-2 {
        fill: #6b6b6b;
      }

      .cls-2, .cls-4 {
        fill-rule: evenodd;
      }

      .cls-3 {
        stroke: #01a9da;
        stroke-linejoin: round;
        stroke-opacity: 0.42;
        stroke-width: 1px;
        filter: url(#filter-2);
      }

      .cls-4 {
        fill: #01a9da;
      }

      .cls-5 {
        filter: url(#filter-3);
      }

      .cls-6 {
        filter: url(#filter-4);
      }

      .cls-7 {
        filter: url(#filter-5);
      }
    </style>
    <filter id="filter" x="231" y="103" width="115" height="85" filterUnits="userSpaceOnUse">
      <feOffset result="offset" dx="0.5" dy="0.866" in="SourceAlpha"/>
      <feGaussianBlur result="blur" stdDeviation="2"/>
      <feFlood result="flood" flood-opacity="0.26"/>
      <feComposite result="composite" operator="in" in2="blur"/>
      <feBlend result="blend" in="SourceGraphic"/>
    </filter>
    <filter id="filter-2" x="92" y="96" width="127" height="97" filterUnits="userSpaceOnUse">
      <feOffset result="offset" dx="0.5" dy="0.866" in="SourceAlpha"/>
      <feGaussianBlur result="blur" stdDeviation="2"/>
      <feFlood result="flood" flood-opacity="0.13"/>
      <feComposite result="composite" operator="in" in2="blur"/>
      <feGaussianBlur result="blur-2" stdDeviation="3.333" in="SourceAlpha"/>
      <feComposite result="composite-2"/>
      <feComposite result="composite-3"/>
      <feComposite result="composite-4"/>
      <feFlood result="flood-2" flood-color="#01a9da" flood-opacity="0.09"/>
      <feComposite result="composite-5" operator="in" in2="composite-4"/>
      <feBlend result="blend" in2="composite"/>
      <feBlend result="blend-2" in="SourceGraphic"/>
    </filter>
    <filter id="filter-3" x="231" y="0" width="115" height="85" filterUnits="userSpaceOnUse">
      <feOffset result="offset" dx="0.5" dy="0.866" in="SourceAlpha"/>
      <feGaussianBlur result="blur" stdDeviation="2"/>
      <feFlood result="flood" flood-opacity="0.26"/>
      <feComposite result="composite" operator="in" in2="blur"/>
      <feBlend result="blend" in="SourceGraphic"/>
    </filter>
    <filter id="filter-4" x="99" y="0" width="115" height="85" filterUnits="userSpaceOnUse">
      <feOffset result="offset" dx="0.5" dy="0.866" in="SourceAlpha"/>
      <feGaussianBlur result="blur" stdDeviation="2"/>
      <feFlood result="flood" flood-opacity="0.26"/>
      <feComposite result="composite" operator="in" in2="blur"/>
      <feBlend result="blend" in="SourceGraphic"/>
    </filter>
    <filter id="filter-5" x="0" y="1" width="83" height="83" filterUnits="userSpaceOnUse">
      <feOffset result="offset" dx="0.5" dy="0.866" in="SourceAlpha"/>
      <feGaussianBlur result="blur" stdDeviation="2"/>
      <feFlood result="flood" flood-opacity="0.26"/>
      <feComposite result="composite" operator="in" in2="blur"/>
      <feBlend result="blend" in="SourceGraphic"/>
    </filter>
  </defs>
  <rect id="bg_copy_8" data-name="bg copy 8" class="cls-1" x="233.781" y="105" width="106.907" height="78"/>
  <path id="Plan_and_run_kick-off_meeting" data-name="Plan and run kick-off meeting" class="cls-2" d="M844.205,1627.92h-2.4v9.28h1.078v-3.65h1.091a4.324,4.324,0,0,0,2.749-.76,2.6,2.6,0,0,0,.961-2.17q0-2.7-3.476-2.7h0Zm-1.325.93h1.205a3.149,3.149,0,0,1,1.877.45,1.6,1.6,0,0,1,.6,1.37,1.708,1.708,0,0,1-.64,1.49,3.6,3.6,0,0,1-2.074.46h-0.97v-3.77Zm7.635-1.53h-1.052v9.88h1.052v-9.88Zm7.287,9.88v-4.75a2.312,2.312,0,0,0-.6-1.77,2.639,2.639,0,0,0-1.843-.55,4.688,4.688,0,0,0-1.227.16,4.935,4.935,0,0,0-1.125.43l0.323,0.81a4.653,4.653,0,0,1,1.966-.53,1.449,1.449,0,0,1,1.126.39,1.763,1.763,0,0,1,.351,1.21v0.43l-1.179.04c-2.245.06-3.368,0.8-3.368,2.21a1.931,1.931,0,0,0,.587,1.51,2.3,2.3,0,0,0,1.62.54,3.065,3.065,0,0,0,1.291-.24,2.824,2.824,0,0,0,1.037-.88h0.051l0.209,0.99h0.78Zm-4.125-1.04a1.088,1.088,0,0,1-.346-0.87,1.18,1.18,0,0,1,.555-1.08,3.837,3.837,0,0,1,1.81-.39l1.053-.04v0.63a2.008,2.008,0,0,1-.561,1.51,2.134,2.134,0,0,1-1.544.54A1.426,1.426,0,0,1,853.677,1636.16Zm12.1,1.04v-4.54a2.59,2.59,0,0,0-.635-1.94,2.653,2.653,0,0,0-1.889-.6,2.919,2.919,0,0,0-1.3.28,2.163,2.163,0,0,0-.907.79H861l-0.171-.95h-0.856v6.96h1.052v-3.65a2.967,2.967,0,0,1,.508-1.95,2.008,2.008,0,0,1,1.6-.59,1.573,1.573,0,0,1,1.211.42,1.814,1.814,0,0,1,.387,1.27v4.5h1.053Zm10.59,0v-4.75a2.312,2.312,0,0,0-.6-1.77,2.638,2.638,0,0,0-1.842-.55,4.688,4.688,0,0,0-1.227.16,4.944,4.944,0,0,0-1.126.43l0.323,0.81a4.657,4.657,0,0,1,1.966-.53,1.449,1.449,0,0,1,1.126.39,1.758,1.758,0,0,1,.352,1.21v0.43l-1.18.04c-2.245.06-3.367,0.8-3.367,2.21a1.93,1.93,0,0,0,.586,1.51,2.3,2.3,0,0,0,1.621.54,3.057,3.057,0,0,0,1.29-.24,2.817,2.817,0,0,0,1.037-.88h0.051l0.209,0.99h0.78Zm-4.125-1.04a1.088,1.088,0,0,1-.346-0.87,1.18,1.18,0,0,1,.555-1.08,3.842,3.842,0,0,1,1.811-.39l1.053-.04v0.63a2.008,2.008,0,0,1-.562,1.51,2.134,2.134,0,0,1-1.544.54A1.428,1.428,0,0,1,872.245,1636.16Zm12.1,1.04v-4.54a2.589,2.589,0,0,0-.634-1.94,2.657,2.657,0,0,0-1.89-.6,2.919,2.919,0,0,0-1.3.28,2.169,2.169,0,0,0-.907.79h-0.051l-0.171-.95h-0.856v6.96h1.053v-3.65a2.973,2.973,0,0,1,.507-1.95,2.008,2.008,0,0,1,1.6-.59,1.57,1.57,0,0,1,1.211.42,1.814,1.814,0,0,1,.387,1.27v4.5h1.053Zm7.033,0h0.856v-9.88h-1.053v2.83l0.026,0.49,0.044,0.5h-0.082a2.826,2.826,0,0,0-4.287-.07,4.153,4.153,0,0,0-.761,2.67,4.086,4.086,0,0,0,.758,2.65,2.561,2.561,0,0,0,2.121.94,2.487,2.487,0,0,0,2.181-1.06h0.057Zm-3.678-1.44a3.417,3.417,0,0,1-.489-2.01,3.579,3.579,0,0,1,.492-2.03,1.611,1.611,0,0,1,1.417-.72,1.869,1.869,0,0,1,1.57.63,3.486,3.486,0,0,1,.491,2.11v0.22a2.983,2.983,0,0,1-.485,1.9,1.916,1.916,0,0,1-1.563.58A1.636,1.636,0,0,1,887.7,1635.76Zm12.112-5.28a3.144,3.144,0,0,0-.932,1.05h-0.051l-0.12-1.29h-0.869v6.96H898.9v-3.73a2.518,2.518,0,0,1,.6-1.71,1.849,1.849,0,0,1,1.443-.69,3.867,3.867,0,0,1,.761.1l0.146-.98a4.212,4.212,0,0,0-.831-0.07A2.132,2.132,0,0,0,899.815,1630.48Zm3.254-.24v4.55a2.556,2.556,0,0,0,.631,1.93,2.619,2.619,0,0,0,1.9.61,2.909,2.909,0,0,0,1.31-.28,2.094,2.094,0,0,0,.9-0.78h0.057l0.152,0.93h0.869v-6.96h-1.053v3.66a3.024,3.024,0,0,1-.5,1.95,1.966,1.966,0,0,1-1.6.59,1.607,1.607,0,0,1-1.211-.41,1.831,1.831,0,0,1-.387-1.27v-4.52h-1.065Zm13.856,6.96v-4.54a2.589,2.589,0,0,0-.634-1.94,2.657,2.657,0,0,0-1.89-.6,2.919,2.919,0,0,0-1.3.28,2.169,2.169,0,0,0-.907.79h-0.05l-0.172-.95h-0.856v6.96h1.053v-3.65a2.973,2.973,0,0,1,.507-1.95,2.008,2.008,0,0,1,1.6-.59,1.574,1.574,0,0,1,1.212.42,1.819,1.819,0,0,1,.386,1.27v4.5h1.053Zm-57.538,12.04q0.051-.735.051-1.08v-5.24H858.4v9.88h1.04v-2.6l0.793-.69,2.454,3.29h1.275l-3.013-3.99,2.816-2.97h-1.249l-2.245,2.38a12.245,12.245,0,0,0-.831,1.02h-0.051Zm6.881-3.4h-1.053v6.96h1.053v-6.96Zm-0.964-1.35a0.63,0.63,0,0,0,.444.17,0.64,0.64,0,0,0,.438-0.17,0.717,0.717,0,0,0,.183-0.53,0.686,0.686,0,0,0-.183-0.53,0.64,0.64,0,0,0-.438-0.17,0.63,0.63,0,0,0-.444.17,0.7,0.7,0,0,0-.178.53A0.732,0.732,0,0,0,865.3,1644.49Zm7.731,8.07v-0.93a4.685,4.685,0,0,1-1.783.38,1.793,1.793,0,0,1-1.531-.69,3.222,3.222,0,0,1-.517-1.97q0-2.7,2.118-2.7a3.471,3.471,0,0,1,.73.09,5.2,5.2,0,0,1,.761.23l0.323-.89a3.521,3.521,0,0,0-.786-0.26,4.866,4.866,0,0,0-1-.1,3.005,3.005,0,0,0-2.394.95,3.929,3.929,0,0,0-.841,2.7,3.829,3.829,0,0,0,.828,2.63,2.966,2.966,0,0,0,2.337.93,3.689,3.689,0,0,0,1.757-.37h0Zm2.638-3.32q0.05-.735.05-1.08v-5.24h-1.04v9.88h1.04v-2.6l0.793-.69,2.454,3.29h1.275l-3.012-3.99,2.815-2.97H878.8l-2.245,2.38a12.245,12.245,0,0,0-.831,1.02h-0.05Zm8.358,0.56v-0.97h-3.114v0.97h3.114Zm6.789-3.11a2.931,2.931,0,0,0-2.318-.97,3.006,3.006,0,0,0-2.359.94,3.851,3.851,0,0,0-.85,2.65,4.357,4.357,0,0,0,.393,1.92,2.864,2.864,0,0,0,1.116,1.26,3.151,3.151,0,0,0,1.655.44,3.007,3.007,0,0,0,2.366-.96,3.844,3.844,0,0,0,.856-2.66A3.8,3.8,0,0,0,890.82,1646.69Zm-3.91.6a1.86,1.86,0,0,1,1.56-.68,1.879,1.879,0,0,1,1.582.69,3.223,3.223,0,0,1,.536,2.01,3.28,3.28,0,0,1-.536,2.04,2.127,2.127,0,0,1-3.136,0,3.341,3.341,0,0,1-.532-2.04A3.263,3.263,0,0,1,886.91,1647.29Zm14.148-1.45h-1.769v-0.45a2.207,2.207,0,0,1,.285-1.27,1,1,0,0,1,.882-0.4,3.539,3.539,0,0,1,1.04.2l0.273-.85a4.906,4.906,0,0,0-1.294-.22c-1.493,0-2.239.86-2.239,2.57v0.38l-1.243.39v0.47h1.243v6.14h1.053v-6.14h1.769v-0.82Zm-4.4,0h-1.769v-0.45a2.207,2.207,0,0,1,.285-1.27,1,1,0,0,1,.882-0.4,3.539,3.539,0,0,1,1.04.2l0.272-.85a4.893,4.893,0,0,0-1.293-.22c-1.493,0-2.239.86-2.239,2.57v0.38l-1.243.39v0.47h1.243v6.14h1.053v-6.14h1.769v-0.82Zm-31.185,22.56v-4.54a2.724,2.724,0,0,0-.587-1.94,2.365,2.365,0,0,0-1.766-.6,2.805,2.805,0,0,0-1.344.31,2.186,2.186,0,0,0-.9.87h-0.05a2.061,2.061,0,0,0-2.131-1.18,2.571,2.571,0,0,0-1.215.28,2.121,2.121,0,0,0-.84.79h-0.051l-0.171-.95H855.56v6.96h1.053v-3.65a3.238,3.238,0,0,1,.46-1.95,1.731,1.731,0,0,1,1.449-.59,1.371,1.371,0,0,1,1.109.42,1.852,1.852,0,0,1,.356,1.24v4.53h1.052v-3.89a2.65,2.65,0,0,1,.47-1.73,1.77,1.77,0,0,1,1.452-.57,1.365,1.365,0,0,1,1.1.42,1.852,1.852,0,0,1,.355,1.24v4.53h1.053Zm6.307,0.02a5.591,5.591,0,0,0,1.056-.34v-0.94a5.655,5.655,0,0,1-2.22.47,2.152,2.152,0,0,1-1.652-.64,2.747,2.747,0,0,1-.618-1.86h4.788v-0.67a3.286,3.286,0,0,0-.761-2.26,2.6,2.6,0,0,0-2.068-.86,2.746,2.746,0,0,0-2.222.99,4.03,4.03,0,0,0-.828,2.67,3.653,3.653,0,0,0,.891,2.61,3.216,3.216,0,0,0,2.432.94A5.885,5.885,0,0,0,871.779,1668.42Zm-0.219-5.69a2.3,2.3,0,0,1,.444,1.52H868.37a2.538,2.538,0,0,1,.587-1.51,1.728,1.728,0,0,1,1.335-.54A1.542,1.542,0,0,1,871.56,1662.73Zm7.505,5.69a5.591,5.591,0,0,0,1.056-.34v-0.94a5.646,5.646,0,0,1-2.219.47,2.15,2.15,0,0,1-1.652-.64,2.752,2.752,0,0,1-.619-1.86h4.788v-0.67a3.281,3.281,0,0,0-.761-2.26,2.6,2.6,0,0,0-2.067-.86,2.749,2.749,0,0,0-2.223.99,4.035,4.035,0,0,0-.827,2.67,3.653,3.653,0,0,0,.891,2.61,3.214,3.214,0,0,0,2.432.94A5.875,5.875,0,0,0,879.065,1668.42Zm-0.218-5.69a2.3,2.3,0,0,1,.444,1.52h-3.634a2.537,2.537,0,0,1,.586-1.51,1.728,1.728,0,0,1,1.335-.54A1.543,1.543,0,0,1,878.847,1662.73Zm4.794,4.59a1.4,1.4,0,0,1-.3-0.96v-4.1h2.017v-0.82h-2.017v-1.61h-0.609l-0.444,1.49-1,.43v0.51h1v4.14a1.834,1.834,0,0,0,2.017,2.13,3.415,3.415,0,0,0,.6-0.06,1.918,1.918,0,0,0,.5-0.13v-0.81a3.8,3.8,0,0,1-.412.09,4.66,4.66,0,0,1-.539.04A1.053,1.053,0,0,1,883.641,1667.32Zm4.211-5.88H886.8v6.96h1.053v-6.96Zm-0.964-1.35a0.656,0.656,0,0,0,.881,0,0.713,0.713,0,0,0,.184-0.53,0.683,0.683,0,0,0-.184-0.53,0.656,0.656,0,0,0-.881,0,0.7,0.7,0,0,0-.178.53A0.727,0.727,0,0,0,886.888,1660.09Zm9,8.31v-4.54a2.589,2.589,0,0,0-.634-1.94,2.657,2.657,0,0,0-1.89-.6,2.919,2.919,0,0,0-1.3.28,2.169,2.169,0,0,0-.907.79h-0.051l-0.171-.95h-0.856v6.96h1.053v-3.65a2.973,2.973,0,0,1,.507-1.95,2.008,2.008,0,0,1,1.6-.59,1.57,1.57,0,0,1,1.211.42,1.814,1.814,0,0,1,.387,1.27v4.5h1.053Zm5.448-6.96a3.723,3.723,0,0,0-.983-0.12,2.805,2.805,0,0,0-1.941.61,2.269,2.269,0,0,0-.685,1.77,2.2,2.2,0,0,0,.339,1.21,1.876,1.876,0,0,0,.879.76,2.165,2.165,0,0,0-.641.55,1.12,1.12,0,0,0-.2.67,1,1,0,0,0,.181.59,1.088,1.088,0,0,0,.447.37,2.059,2.059,0,0,0-1.141.63,1.728,1.728,0,0,0,.333,2.53,3.674,3.674,0,0,0,2.1.51,4.99,4.99,0,0,0,2.7-.6,2,2,0,0,0,.926-1.77,1.659,1.659,0,0,0-.605-1.38,2.738,2.738,0,0,0-1.735-.48h-1.23a1.745,1.745,0,0,1-.806-0.13,0.451,0.451,0,0,1-.234-0.42,1.046,1.046,0,0,1,.672-0.9,2.724,2.724,0,0,0,.583.05,2.8,2.8,0,0,0,1.916-.61,2.048,2.048,0,0,0,.7-1.63,2.256,2.256,0,0,0-.456-1.39l1.287-.15v-0.67h-2.4Zm-2.74,7.14a1.651,1.651,0,0,1,1.116-.34h1.262a2.658,2.658,0,0,1,1.313.22,0.857,0.857,0,0,1,.349.78,1.209,1.209,0,0,1-.638,1.08,3.844,3.844,0,0,1-1.963.4,2.566,2.566,0,0,1-1.363-.3,0.936,0.936,0,0,1-.476-0.85A1.238,1.238,0,0,1,898.6,1668.58Zm0.571-6.1a1.57,1.57,0,0,1,1.141-.4,1.386,1.386,0,0,1,1.56,1.57,1.344,1.344,0,0,1-1.541,1.5,1.647,1.647,0,0,1-1.148-.38,1.388,1.388,0,0,1-.412-1.1A1.629,1.629,0,0,1,899.172,1662.48Z" transform="translate(-592 -1505)"/>
  <g style="fill: #f2f2f2; filter: url(#filter-2)">
    <rect id="bg_copy_7" data-name="bg copy 7" class="cls-3" x="101.906" y="105" width="106.906" height="78" style="stroke: inherit; filter: none; fill: inherit"/>
  </g>
  <use xlink:href="#bg_copy_7" style="stroke: #01a9da; filter: none; fill: none"/>
  <path id="Identify_and_recruit_project_team" data-name="Identify and recruit project team" class="cls-4" d="M726.021,1637.2v-9.28h-1.515v9.28h1.515Zm6.754-.92h0.07l0.26,0.92h1.167v-9.88h-1.5v2.56a8.871,8.871,0,0,0,.108,1.19h-0.076a2.419,2.419,0,0,0-2.105-1.02,2.468,2.468,0,0,0-2.065.96,4.307,4.307,0,0,0-.745,2.69,4.256,4.256,0,0,0,.736,2.67,2.433,2.433,0,0,0,2.048.96,2.379,2.379,0,0,0,2.1-1.05h0Zm-2.936-.77a3.187,3.187,0,0,1-.412-1.78,3.26,3.26,0,0,1,.425-1.82,1.361,1.361,0,0,1,1.211-.64,1.608,1.608,0,0,1,1.351.56,3.138,3.138,0,0,1,.431,1.88v0.21a2.7,2.7,0,0,1-.431,1.68,1.607,1.607,0,0,1-1.338.52A1.386,1.386,0,0,1,729.839,1635.51Zm10.9,1.71a4.659,4.659,0,0,0,1.1-.37v-1.21a6.334,6.334,0,0,1-1.151.39,5.289,5.289,0,0,1-1.157.12,1.943,1.943,0,0,1-1.465-.55,2.312,2.312,0,0,1-.552-1.57h4.674v-0.81a3.209,3.209,0,0,0-.806-2.32,2.866,2.866,0,0,0-2.194-.85,2.948,2.948,0,0,0-2.353.99,3.958,3.958,0,0,0-.856,2.7,3.627,3.627,0,0,0,.923,2.63,3.382,3.382,0,0,0,2.559.96A6.9,6.9,0,0,0,740.74,1637.22Zm-0.431-5.59a1.956,1.956,0,0,1,.419,1.32h-3.184a2.152,2.152,0,0,1,.511-1.32,1.5,1.5,0,0,1,1.138-.45A1.425,1.425,0,0,1,740.309,1631.63Zm9.747,0.99a2.253,2.253,0,0,0-2.524-2.57,3.042,3.042,0,0,0-1.293.27,2.175,2.175,0,0,0-.9.78h-0.076l-0.209-.92h-1.167v7.02h1.49v-3.5a3.082,3.082,0,0,1,.438-1.87,1.655,1.655,0,0,1,1.382-.56,1.252,1.252,0,0,1,1.037.4,1.891,1.891,0,0,1,.327,1.21v4.32h1.5v-4.58Zm3.98,3.24a1.035,1.035,0,0,1-.27-0.79v-3.76h2v-1.13h-2v-1.56h-0.919l-0.508,1.48-1.027.55v0.66h0.958v3.78a1.929,1.929,0,0,0,2.118,2.24,4.265,4.265,0,0,0,.808-0.08,3.23,3.23,0,0,0,.638-0.18v-1.12a3.764,3.764,0,0,1-1.091.17A0.988,0.988,0,0,1,754.036,1635.86Zm4.689-5.68h-1.49v7.02h1.49v-7.02Zm-1.36-1.26a0.871,0.871,0,0,0,.625.22,0.853,0.853,0,0,0,.612-0.22,0.823,0.823,0,0,0,.219-0.6,0.749,0.749,0,0,0-.831-0.83,0.867,0.867,0,0,0-.625.21,0.841,0.841,0,0,0-.219.62A0.823,0.823,0,0,0,757.365,1628.92Zm7.011,1.26h-1.712v-0.46a1.577,1.577,0,0,1,.231-0.94,0.853,0.853,0,0,1,.739-0.31,3.371,3.371,0,0,1,1.053.17l0.393-1.13a4.85,4.85,0,0,0-1.548-.26,2.384,2.384,0,0,0-1.782.6,2.571,2.571,0,0,0-.583,1.85v0.45l-1.154.46v0.7h1.154v5.89h1.5v-5.89h1.712v-1.13Zm2.942,7.02-0.26.66a1.575,1.575,0,0,1-1.515,1.25,3.525,3.525,0,0,1-.768-0.08v1.18a3.875,3.875,0,0,0,.964.11,2.845,2.845,0,0,0,2.727-2.19l3-7.95h-1.611q-1.458,4.23-1.611,4.73a6.791,6.791,0,0,0-.209.85h-0.051a7.58,7.58,0,0,0-.431-1.6l-1.427-3.98H764.5Zm-48.088,15.6v-4.73a2.285,2.285,0,0,0-.682-1.83,3.03,3.03,0,0,0-2.02-.59,5.408,5.408,0,0,0-1.281.16,4.979,4.979,0,0,0-1.249.45l0.482,1.07a7.48,7.48,0,0,1,.951-0.38,3.548,3.548,0,0,1,1.034-.16,1.289,1.289,0,0,1,.973.34,1.416,1.416,0,0,1,.314,1v0.38l-1.211.04a4.591,4.591,0,0,0-2.455.6,1.857,1.857,0,0,0-.805,1.64,2.088,2.088,0,0,0,.58,1.58,2.243,2.243,0,0,0,1.614.56,3.126,3.126,0,0,0,1.319-.24,2.786,2.786,0,0,0,1.021-.87h0.051l0.3,0.98h1.066Zm-4.123-1.27a0.949,0.949,0,0,1-.279-0.73,1.071,1.071,0,0,1,.479-0.96,3.02,3.02,0,0,1,1.532-.35l0.9-.04v0.61a1.647,1.647,0,0,1-.491,1.27,1.855,1.855,0,0,1-1.3.45A1.2,1.2,0,0,1,715.107,1651.53Zm12.373-3.31a2.253,2.253,0,0,0-2.524-2.57,3.046,3.046,0,0,0-1.294.27,2.166,2.166,0,0,0-.9.78h-0.076l-0.21-.92H721.31v7.02h1.49v-3.5a3.09,3.09,0,0,1,.437-1.87,1.657,1.657,0,0,1,1.383-.56,1.253,1.253,0,0,1,1.037.4,1.891,1.891,0,0,1,.326,1.21v4.32h1.5v-4.58Zm6.538,3.66h0.07l0.26,0.92h1.167v-9.88h-1.5v2.56a8.871,8.871,0,0,0,.108,1.19H734.05a2.419,2.419,0,0,0-2.1-1.02,2.468,2.468,0,0,0-2.065.96,4.307,4.307,0,0,0-.745,2.69,4.256,4.256,0,0,0,.736,2.67,2.433,2.433,0,0,0,2.048.96,2.379,2.379,0,0,0,2.1-1.05h0Zm-2.936-.77a3.187,3.187,0,0,1-.412-1.78,3.26,3.26,0,0,1,.425-1.82,1.361,1.361,0,0,1,1.211-.64,1.608,1.608,0,0,1,1.351.56,3.138,3.138,0,0,1,.431,1.88v0.21a2.7,2.7,0,0,1-.431,1.68,1.607,1.607,0,0,1-1.338.52A1.386,1.386,0,0,1,731.082,1651.11Zm12.287-5.09a2.827,2.827,0,0,0-.91,1h-0.076l-0.2-1.24H741.02v7.02h1.49v-3.67a2.123,2.123,0,0,1,.555-1.52,1.9,1.9,0,0,1,1.449-.58,2.4,2.4,0,0,1,.659.08l0.146-1.39a3.079,3.079,0,0,0-.742-0.07A2.128,2.128,0,0,0,743.369,1646.02Zm7.588,6.8a4.637,4.637,0,0,0,1.1-.37v-1.21a6.308,6.308,0,0,1-1.151.39,5.289,5.289,0,0,1-1.157.12,1.944,1.944,0,0,1-1.465-.55,2.312,2.312,0,0,1-.552-1.57h4.674v-0.81a3.208,3.208,0,0,0-.8-2.32,2.867,2.867,0,0,0-2.194-.85,2.948,2.948,0,0,0-2.353.99,3.953,3.953,0,0,0-.856,2.7,3.627,3.627,0,0,0,.922,2.63,3.383,3.383,0,0,0,2.559.96A6.914,6.914,0,0,0,750.957,1652.82Zm-0.431-5.59a1.956,1.956,0,0,1,.418,1.32h-3.183a2.157,2.157,0,0,1,.51-1.32,1.5,1.5,0,0,1,1.139-.45A1.428,1.428,0,0,1,750.526,1647.23Zm7.5,5.59a2.644,2.644,0,0,0,.853-0.33v-1.3a3.805,3.805,0,0,1-1.883.49,1.582,1.582,0,0,1-1.329-.59,2.923,2.923,0,0,1-.453-1.78c0-1.61.606-2.41,1.82-2.41a4.6,4.6,0,0,1,1.56.36l0.45-1.2a4.763,4.763,0,0,0-2-.41,3.226,3.226,0,0,0-2.5.95,3.939,3.939,0,0,0-.865,2.73,3.893,3.893,0,0,0,.827,2.67,3.071,3.071,0,0,0,2.42.93A4.921,4.921,0,0,0,758.031,1652.82Zm4.851-6.8a2.827,2.827,0,0,0-.91,1H761.9l-0.2-1.24h-1.167v7.02h1.49v-3.67a2.123,2.123,0,0,1,.555-1.52,1.9,1.9,0,0,1,1.449-.58,2.407,2.407,0,0,1,.66.08l0.145-1.39a3.07,3.07,0,0,0-.741-0.07A2.131,2.131,0,0,0,762.882,1646.02Zm9.37,6.78v-7.02h-1.5v3.5a3.1,3.1,0,0,1-.441,1.88,1.658,1.658,0,0,1-1.379.56,1.253,1.253,0,0,1-1.034-.4,1.878,1.878,0,0,1-.33-1.21v-4.33h-1.5v4.59a2.616,2.616,0,0,0,.628,1.92,2.583,2.583,0,0,0,1.9.64,3.045,3.045,0,0,0,1.31-.28,2.192,2.192,0,0,0,.885-0.77h0.076l0.209,0.92h1.173Zm3.615-7.02h-1.49v7.02h1.49v-7.02Zm-1.36-1.26a0.87,0.87,0,0,0,.624.22,0.853,0.853,0,0,0,.612-0.22,0.823,0.823,0,0,0,.219-0.6,0.749,0.749,0,0,0-.831-0.83,0.866,0.866,0,0,0-.624.21,0.841,0.841,0,0,0-.219.62A0.823,0.823,0,0,0,774.507,1644.52Zm5.4,6.94a1.038,1.038,0,0,1-.269-0.79v-3.76h2v-1.13h-2v-1.56h-0.92l-0.507,1.48-1.027.55v0.66h0.957v3.78a1.929,1.929,0,0,0,2.118,2.24,4.276,4.276,0,0,0,.809-0.08,3.218,3.218,0,0,0,.637-0.18v-1.12a3.752,3.752,0,0,1-1.09.17A0.992,0.992,0,0,1,779.9,1651.46Zm-65.937,16.1a5.232,5.232,0,0,0,.013-5.36,2.446,2.446,0,0,0-2.046-.95,2.338,2.338,0,0,0-2.092,1.07h-0.076c-0.106-.5-0.176-0.81-0.21-0.94h-1.2v10.14h1.491v-2.87q0-.2-0.089-1.08h0.089A2.687,2.687,0,0,0,713.966,1667.56Zm-1.2-4.48a3.146,3.146,0,0,1,.416,1.78,3.26,3.26,0,0,1-.419,1.81,1.335,1.335,0,0,1-1.192.64,1.494,1.494,0,0,1-1.325-.58,3.262,3.262,0,0,1-.406-1.85v-0.23a2.7,2.7,0,0,1,.409-1.66,1.539,1.539,0,0,1,1.3-.52A1.375,1.375,0,0,1,712.767,1663.08Zm6.025-1.46a2.817,2.817,0,0,0-.91,1h-0.076l-0.2-1.24h-1.167v7.02h1.491v-3.67a2.123,2.123,0,0,1,.555-1.52,1.9,1.9,0,0,1,1.449-.58,2.4,2.4,0,0,1,.659.08l0.146-1.39a3.079,3.079,0,0,0-.742-0.07A2.128,2.128,0,0,0,718.792,1661.62Zm8.583,0.61a3.1,3.1,0,0,0-2.409-.98,3.167,3.167,0,0,0-2.467.96,3.815,3.815,0,0,0-.875,2.67,4.382,4.382,0,0,0,.4,1.93,2.911,2.911,0,0,0,1.161,1.27,3.327,3.327,0,0,0,1.738.45,3.172,3.172,0,0,0,2.454-.97A4.457,4.457,0,0,0,727.375,1662.23Zm-3.795.86a1.533,1.533,0,0,1,1.36-.62c1.192,0,1.789.8,1.789,2.41s-0.592,2.43-1.776,2.43-1.795-.81-1.795-2.43A3.191,3.191,0,0,1,723.58,1663.09Zm7.318,7.87a2.2,2.2,0,0,0,.568-1.64v-7.94h-1.49v7.84a0.9,0.9,0,0,1-.952,1.08,3.268,3.268,0,0,1-.881-0.12v1.18a3.246,3.246,0,0,0,1.116.16A2.209,2.209,0,0,0,730.9,1670.96Zm-0.792-10.84a0.868,0.868,0,0,0,.624.22,0.853,0.853,0,0,0,.612-0.22,0.823,0.823,0,0,0,.219-0.6,0.749,0.749,0,0,0-.831-0.83,0.864,0.864,0,0,0-.624.21,0.841,0.841,0,0,0-.219.62A0.823,0.823,0,0,0,730.106,1660.12Zm7.828,8.3a4.659,4.659,0,0,0,1.1-.37v-1.21a6.334,6.334,0,0,1-1.151.39,5.3,5.3,0,0,1-1.158.12,1.944,1.944,0,0,1-1.465-.55,2.317,2.317,0,0,1-.551-1.57h4.674v-0.81a3.209,3.209,0,0,0-.806-2.32,2.866,2.866,0,0,0-2.194-.85,2.948,2.948,0,0,0-2.353.99,3.953,3.953,0,0,0-.856,2.7,3.627,3.627,0,0,0,.923,2.63,3.382,3.382,0,0,0,2.559.96A6.911,6.911,0,0,0,737.934,1668.42Zm-0.431-5.59a1.956,1.956,0,0,1,.419,1.32h-3.184a2.152,2.152,0,0,1,.511-1.32,1.5,1.5,0,0,1,1.138-.45A1.428,1.428,0,0,1,737.5,1662.83Zm7.5,5.59a2.884,2.884,0,0,0,.853-0.33v-1.3a3.8,3.8,0,0,1-1.883.49,1.583,1.583,0,0,1-1.329-.59,2.923,2.923,0,0,1-.453-1.78c0-1.61.607-2.41,1.82-2.41a4.6,4.6,0,0,1,1.56.36l0.45-1.2a4.762,4.762,0,0,0-2-.41,3.225,3.225,0,0,0-2.5.95,3.939,3.939,0,0,0-.866,2.73,3.888,3.888,0,0,0,.828,2.67,3.069,3.069,0,0,0,2.419.93A4.921,4.921,0,0,0,745.008,1668.42Zm4.408-1.36a1.035,1.035,0,0,1-.27-0.79v-3.76h2v-1.13h-2v-1.56h-0.919l-0.508,1.48-1.027.55v0.66h0.958v3.78a1.929,1.929,0,0,0,2.118,2.24,4.265,4.265,0,0,0,.808-0.08,3.23,3.23,0,0,0,.638-0.18v-1.12a3.759,3.759,0,0,1-1.091.17A0.99,0.99,0,0,1,749.416,1667.06Zm8.479,0a1.035,1.035,0,0,1-.27-0.79v-3.76h2v-1.13h-2v-1.56h-0.919l-0.508,1.48-1.027.55v0.66h0.958v3.78a1.929,1.929,0,0,0,2.118,2.24,4.265,4.265,0,0,0,.808-0.08,3.23,3.23,0,0,0,.638-0.18v-1.12a3.764,3.764,0,0,1-1.091.17A0.988,0.988,0,0,1,757.9,1667.06Zm7.537,1.36a4.637,4.637,0,0,0,1.1-.37v-1.21a6.334,6.334,0,0,1-1.151.39,5.289,5.289,0,0,1-1.157.12,1.944,1.944,0,0,1-1.465-.55,2.312,2.312,0,0,1-.552-1.57h4.674v-0.81a3.212,3.212,0,0,0-.805-2.32,2.868,2.868,0,0,0-2.195-.85,2.946,2.946,0,0,0-2.352.99,3.953,3.953,0,0,0-.856,2.7,3.627,3.627,0,0,0,.922,2.63,3.382,3.382,0,0,0,2.559.96A6.914,6.914,0,0,0,765.432,1668.42ZM765,1662.83a1.956,1.956,0,0,1,.418,1.32h-3.183a2.151,2.151,0,0,1,.51-1.32,1.5,1.5,0,0,1,1.138-.45A1.429,1.429,0,0,1,765,1662.83Zm9.03,5.57v-4.73a2.282,2.282,0,0,0-.682-1.83,3.025,3.025,0,0,0-2.019-.59,5.408,5.408,0,0,0-1.281.16,4.986,4.986,0,0,0-1.25.45l0.482,1.07a7.6,7.6,0,0,1,.951-0.38,3.553,3.553,0,0,1,1.034-.16,1.292,1.292,0,0,1,.974.34,1.416,1.416,0,0,1,.313,1v0.38l-1.211.04a4.59,4.59,0,0,0-2.454.6,1.855,1.855,0,0,0-.805,1.64,2.088,2.088,0,0,0,.58,1.58,2.243,2.243,0,0,0,1.614.56,3.129,3.129,0,0,0,1.319-.24,2.794,2.794,0,0,0,1.021-.87h0.051l0.3,0.98h1.065Zm-4.122-1.27a0.949,0.949,0,0,1-.279-0.73,1.069,1.069,0,0,1,.479-0.96,3.016,3.016,0,0,1,1.531-.35l0.9-.04v0.61a1.644,1.644,0,0,1-.492,1.27,1.853,1.853,0,0,1-1.3.45A1.2,1.2,0,0,1,769.909,1667.13Zm12.113-2.45a2.831,2.831,0,0,1,.4-1.67,1.484,1.484,0,0,1,1.272-.54,1.118,1.118,0,0,1,.954.4,1.926,1.926,0,0,1,.308,1.2v4.33h1.49v-4.58a2.8,2.8,0,0,0-.574-1.93,2.331,2.331,0,0,0-1.829-.64,2.831,2.831,0,0,0-1.294.29,2.172,2.172,0,0,0-.875.82h-0.1a2.13,2.13,0,0,0-2.143-1.11,2.754,2.754,0,0,0-1.221.27,2.036,2.036,0,0,0-.847.78h-0.076l-0.209-.92h-1.167v7.02h1.49v-3.5a3.32,3.32,0,0,1,.4-1.87,1.461,1.461,0,0,1,1.265-.56,1.11,1.11,0,0,1,.952.4,1.947,1.947,0,0,1,.3,1.2v4.33h1.5v-3.72Z" transform="translate(-592 -1505)"/>
  <rect id="bg_copy_2" data-name="bg copy 2" class="cls-5" x="233.781" y="2" width="106.907" height="78"/>
  <path id="Develop_Project_Charter" data-name="Develop Project Charter" class="cls-2" d="M861.908,1528.12a4.54,4.54,0,0,0-3.361-1.2h-2.841v9.28h2.568a4.929,4.929,0,0,0,3.586-1.22,4.681,4.681,0,0,0,1.247-3.51A4.537,4.537,0,0,0,861.908,1528.12Zm-0.913,6.2a4,4,0,0,1-2.9.95h-1.313v-7.42h1.566a3.66,3.66,0,0,1,2.7.92A4.567,4.567,0,0,1,861,1534.32Zm8.158,1.9a5.591,5.591,0,0,0,1.056-.34v-0.94a5.646,5.646,0,0,1-2.219.47,2.15,2.15,0,0,1-1.652-.64,2.747,2.747,0,0,1-.619-1.86h4.788v-0.67a3.281,3.281,0,0,0-.761-2.26,2.6,2.6,0,0,0-2.067-.86,2.749,2.749,0,0,0-2.223.99,4.03,4.03,0,0,0-.827,2.67,3.653,3.653,0,0,0,.891,2.61,3.214,3.214,0,0,0,2.432.94A5.875,5.875,0,0,0,869.153,1536.22Zm-0.218-5.69a2.306,2.306,0,0,1,.444,1.52h-3.634a2.537,2.537,0,0,1,.586-1.51,1.728,1.728,0,0,1,1.335-.54A1.543,1.543,0,0,1,868.935,1530.53Zm6.119,5.67,2.638-6.96h-1.128q-1.294,3.555-1.665,4.61a14.359,14.359,0,0,0-.441,1.4h-0.051a18.613,18.613,0,0,0-.6-1.88l-1.5-4.13h-1.129l2.638,6.96h1.23Zm7.893,0.02a5.606,5.606,0,0,0,1.055-.34v-0.94a5.646,5.646,0,0,1-2.219.47,2.152,2.152,0,0,1-1.652-.64,2.747,2.747,0,0,1-.618-1.86H884.3v-0.67a3.281,3.281,0,0,0-.761-2.26,2.6,2.6,0,0,0-2.067-.86,2.749,2.749,0,0,0-2.223.99,4.035,4.035,0,0,0-.827,2.67,3.653,3.653,0,0,0,.891,2.61,3.214,3.214,0,0,0,2.432.94A5.885,5.885,0,0,0,882.947,1536.22Zm-0.219-5.69a2.3,2.3,0,0,1,.444,1.52h-3.634a2.544,2.544,0,0,1,.586-1.51,1.728,1.728,0,0,1,1.335-.54A1.543,1.543,0,0,1,882.728,1530.53Zm4.42-4.21H886.1v9.88h1.053v-9.88Zm7.372,3.77a2.929,2.929,0,0,0-2.318-.97,3.008,3.008,0,0,0-2.359.94,3.856,3.856,0,0,0-.85,2.65,4.357,4.357,0,0,0,.393,1.92,2.872,2.872,0,0,0,1.117,1.26,3.148,3.148,0,0,0,1.655.44,3.006,3.006,0,0,0,2.365-.96,3.844,3.844,0,0,0,.856-2.66A3.8,3.8,0,0,0,894.52,1530.09Zm-3.91.6a1.86,1.86,0,0,1,1.56-.68,1.882,1.882,0,0,1,1.583.69,3.229,3.229,0,0,1,.536,2.01,3.286,3.286,0,0,1-.536,2.04,2.127,2.127,0,0,1-3.136,0,3.34,3.34,0,0,1-.533-2.04A3.263,3.263,0,0,1,890.61,1530.69Zm11.97,4.69a5.044,5.044,0,0,0,.013-5.32,2.565,2.565,0,0,0-2.134-.94,2.863,2.863,0,0,0-1.237.25,2.439,2.439,0,0,0-.944.82h-0.051l-0.146-.95h-0.856v10.08h1.053v-2.86a9.467,9.467,0,0,0-.077-1.16h0.077a2.348,2.348,0,0,0,.941.78,3.126,3.126,0,0,0,1.24.25A2.579,2.579,0,0,0,902.58,1535.38Zm-0.837-4.67a3.3,3.3,0,0,1,.511,1.99,3.433,3.433,0,0,1-.511,2.01,1.621,1.621,0,0,1-1.411.73,1.857,1.857,0,0,1-1.566-.63,3.481,3.481,0,0,1-.488-2.1v-0.23a3.032,3.032,0,0,1,.488-1.88,1.875,1.875,0,0,1,1.541-.59A1.666,1.666,0,0,1,901.743,1530.71Zm-39.968,11.81h-2.4v9.28h1.078v-3.65h1.091a4.322,4.322,0,0,0,2.749-.76,2.6,2.6,0,0,0,.961-2.17q0-2.7-3.475-2.7h0Zm-1.326.93h1.205a3.152,3.152,0,0,1,1.878.45,1.6,1.6,0,0,1,.6,1.37,1.709,1.709,0,0,1-.641,1.49,3.6,3.6,0,0,1-2.073.46h-0.971v-3.77Zm8.555,1.63a3.144,3.144,0,0,0-.932,1.05h-0.051l-0.12-1.29h-0.869v6.96h1.053v-3.73a2.518,2.518,0,0,1,.6-1.71,1.849,1.849,0,0,1,1.443-.69,3.867,3.867,0,0,1,.761.1l0.146-.98a4.205,4.205,0,0,0-.831-0.07A2.132,2.132,0,0,0,869,1545.08Zm8.47,0.61a2.931,2.931,0,0,0-2.318-.97,3.006,3.006,0,0,0-2.359.94,3.851,3.851,0,0,0-.85,2.65,4.357,4.357,0,0,0,.393,1.92,2.864,2.864,0,0,0,1.116,1.26,3.151,3.151,0,0,0,1.655.44,3.007,3.007,0,0,0,2.366-.96,3.844,3.844,0,0,0,.856-2.66A3.8,3.8,0,0,0,877.474,1545.69Zm-3.91.6a1.86,1.86,0,0,1,1.56-.68,1.879,1.879,0,0,1,1.582.69,3.223,3.223,0,0,1,.536,2.01,3.28,3.28,0,0,1-.536,2.04,2.127,2.127,0,0,1-3.136,0,3.341,3.341,0,0,1-.532-2.04A3.263,3.263,0,0,1,873.564,1546.29Zm7.667,6.58v-8.03h-1.053v8.1a1.231,1.231,0,0,1-.231.82,0.9,0.9,0,0,1-.726.27,3.258,3.258,0,0,1-.863-0.12v0.85a2.455,2.455,0,0,0,.977.16,1.746,1.746,0,0,0,1.9-2.05h0Zm-0.964-9.38a0.631,0.631,0,0,0,.444.17,0.64,0.64,0,0,0,.438-0.17,0.717,0.717,0,0,0,.184-0.53,0.687,0.687,0,0,0-.184-0.53,0.64,0.64,0,0,0-.438-0.17,0.631,0.631,0,0,0-.444.17,0.7,0.7,0,0,0-.177.53A0.731,0.731,0,0,0,880.267,1543.49Zm7.334,8.33a5.591,5.591,0,0,0,1.056-.34v-0.94a5.646,5.646,0,0,1-2.219.47,2.15,2.15,0,0,1-1.652-.64,2.747,2.747,0,0,1-.619-1.86h4.788v-0.67a3.281,3.281,0,0,0-.761-2.26,2.6,2.6,0,0,0-2.067-.86,2.749,2.749,0,0,0-2.223.99,4.03,4.03,0,0,0-.827,2.67,3.648,3.648,0,0,0,.891,2.61,3.213,3.213,0,0,0,2.432.94A5.875,5.875,0,0,0,887.6,1551.82Zm-0.218-5.69a2.306,2.306,0,0,1,.443,1.52h-3.633a2.537,2.537,0,0,1,.586-1.51,1.728,1.728,0,0,1,1.335-.54A1.543,1.543,0,0,1,887.383,1546.13Zm7.9,5.43v-0.93a4.684,4.684,0,0,1-1.782.38,1.792,1.792,0,0,1-1.531-.69,3.222,3.222,0,0,1-.517-1.97q0-2.7,2.118-2.7a3.47,3.47,0,0,1,.729.09,5.122,5.122,0,0,1,.761.23l0.324-.89a3.549,3.549,0,0,0-.787-0.26,4.866,4.866,0,0,0-1-.1,3.007,3.007,0,0,0-2.394.95,3.934,3.934,0,0,0-.84,2.7,3.829,3.829,0,0,0,.828,2.63,2.963,2.963,0,0,0,2.337.93,3.682,3.682,0,0,0,1.756-.37h0Zm3.076-.84a1.4,1.4,0,0,1-.3-0.96v-4.1h2.017v-0.82h-2.017v-1.61h-0.609l-0.444,1.49-1,.43v0.51h1v4.14a1.834,1.834,0,0,0,2.017,2.13,3.415,3.415,0,0,0,.6-0.06,1.918,1.918,0,0,0,.5-0.13v-0.81a3.8,3.8,0,0,1-.412.09,4.66,4.66,0,0,1-.539.04A1.053,1.053,0,0,1,898.36,1550.72Zm-34.692,8.73,0.456-.93a5.679,5.679,0,0,0-2.549-.53,4.67,4.67,0,0,0-2.381.58,3.844,3.844,0,0,0-1.548,1.66,5.607,5.607,0,0,0-.535,2.52,5.125,5.125,0,0,0,1.113,3.53,4.021,4.021,0,0,0,3.161,1.25,6.6,6.6,0,0,0,2.378-.37v-0.94a8.413,8.413,0,0,1-2.213.35,3.009,3.009,0,0,1-2.432-1,4.181,4.181,0,0,1-.853-2.81,4.119,4.119,0,0,1,.884-2.79,3.029,3.029,0,0,1,2.413-1.02,4.921,4.921,0,0,1,2.106.5h0Zm7.768,7.95v-4.54a2.572,2.572,0,0,0-.637-1.93,2.7,2.7,0,0,0-1.912-.6,2.785,2.785,0,0,0-1.31.29,2.093,2.093,0,0,0-.884.79h-0.064a6.593,6.593,0,0,0,.051-0.9v-2.99h-1.053v9.88h1.053v-3.64a3,3,0,0,1,.5-1.95,1.978,1.978,0,0,1,1.6-.6,1.573,1.573,0,0,1,1.211.42,1.814,1.814,0,0,1,.387,1.27v4.5h1.052Zm7.217,0v-4.75a2.312,2.312,0,0,0-.6-1.77,2.638,2.638,0,0,0-1.842-.55,4.688,4.688,0,0,0-1.227.16,4.944,4.944,0,0,0-1.126.43l0.323,0.81a4.657,4.657,0,0,1,1.966-.53,1.449,1.449,0,0,1,1.126.39,1.758,1.758,0,0,1,.352,1.21v0.43l-1.18.04c-2.245.06-3.367,0.8-3.367,2.21a1.93,1.93,0,0,0,.586,1.51,2.305,2.305,0,0,0,1.621.54,3.057,3.057,0,0,0,1.29-.24,2.817,2.817,0,0,0,1.037-.88h0.051l0.209,0.99h0.78Zm-4.125-1.04a1.088,1.088,0,0,1-.346-0.87,1.18,1.18,0,0,1,.555-1.08,3.842,3.842,0,0,1,1.811-.39l1.053-.04v0.63a2.008,2.008,0,0,1-.562,1.51,2.134,2.134,0,0,1-1.544.54A1.428,1.428,0,0,1,874.528,1566.36Zm8.266-5.68a3.144,3.144,0,0,0-.932,1.05h-0.051l-0.12-1.29h-0.869v6.96h1.053v-3.73a2.518,2.518,0,0,1,.6-1.71,1.847,1.847,0,0,1,1.443-.69,3.867,3.867,0,0,1,.761.1l0.146-.98a4.212,4.212,0,0,0-.831-0.07A2.132,2.132,0,0,0,882.794,1560.68Zm4.757,5.64a1.4,1.4,0,0,1-.3-0.96v-4.1h2.016v-0.82h-2.016v-1.61h-0.609l-0.444,1.49-1,.43v0.51h1v4.14a1.834,1.834,0,0,0,2.016,2.13,3.416,3.416,0,0,0,.6-0.06,1.918,1.918,0,0,0,.5-0.13v-0.81a3.856,3.856,0,0,1-.412.09,4.677,4.677,0,0,1-.539.04A1.052,1.052,0,0,1,887.551,1566.32Zm7.3,1.1a5.614,5.614,0,0,0,1.056-.34v-0.94a5.655,5.655,0,0,1-2.22.47,2.152,2.152,0,0,1-1.652-.64,2.747,2.747,0,0,1-.618-1.86H896.2v-0.67a3.286,3.286,0,0,0-.761-2.26,2.6,2.6,0,0,0-2.068-.86,2.749,2.749,0,0,0-2.223.99,4.035,4.035,0,0,0-.827,2.67,3.653,3.653,0,0,0,.891,2.61,3.216,3.216,0,0,0,2.432.94A5.885,5.885,0,0,0,894.847,1567.42Zm-0.219-5.69a2.3,2.3,0,0,1,.444,1.52h-3.634a2.538,2.538,0,0,1,.587-1.51,1.725,1.725,0,0,1,1.335-.54A1.542,1.542,0,0,1,894.628,1561.73Zm5.34-1.05a3.135,3.135,0,0,0-.933,1.05h-0.05l-0.121-1.29H898v6.96h1.053v-3.73a2.518,2.518,0,0,1,.6-1.71,1.849,1.849,0,0,1,1.443-.69,3.867,3.867,0,0,1,.761.1l0.146-.98a4.2,4.2,0,0,0-.831-0.07A2.129,2.129,0,0,0,899.968,1560.68Z" transform="translate(-592 -1505)"/>
  <rect id="bg_copy" data-name="bg copy" class="cls-6" x="101.906" y="2" width="106.906" height="78"/>
  <path id="Identify_Stakeholders" data-name="Identify Stakeholders" class="cls-2" d="M726.9,1543.2v-9.28h-1.078v9.28H726.9Zm7.255,0h0.856v-9.88h-1.053v2.83l0.025,0.49,0.045,0.5h-0.083a2.826,2.826,0,0,0-4.287-.07,4.159,4.159,0,0,0-.761,2.67,4.091,4.091,0,0,0,.758,2.65,2.563,2.563,0,0,0,2.122.94,2.487,2.487,0,0,0,2.181-1.06h0.057Zm-3.678-1.44a3.417,3.417,0,0,1-.489-2.01,3.579,3.579,0,0,1,.492-2.03,1.61,1.61,0,0,1,1.417-.72,1.869,1.869,0,0,1,1.57.63,3.486,3.486,0,0,1,.491,2.11v0.22a2.989,2.989,0,0,1-.485,1.9,1.917,1.917,0,0,1-1.563.58A1.636,1.636,0,0,1,730.477,1541.76Zm10.9,1.46a5.591,5.591,0,0,0,1.056-.34v-0.94a5.651,5.651,0,0,1-2.22.47,2.152,2.152,0,0,1-1.652-.64,2.747,2.747,0,0,1-.618-1.86h4.788v-0.67a3.286,3.286,0,0,0-.761-2.26,2.6,2.6,0,0,0-2.067-.86,2.748,2.748,0,0,0-2.223.99,4.03,4.03,0,0,0-.828,2.67,3.653,3.653,0,0,0,.891,2.61,3.216,3.216,0,0,0,2.432.94A5.878,5.878,0,0,0,741.381,1543.22Zm-0.219-5.69a2.3,2.3,0,0,1,.444,1.52h-3.634a2.544,2.544,0,0,1,.587-1.51,1.728,1.728,0,0,1,1.335-.54A1.542,1.542,0,0,1,741.162,1537.53Zm9.177,5.67v-4.54a2.59,2.59,0,0,0-.635-1.94,2.653,2.653,0,0,0-1.889-.6,2.919,2.919,0,0,0-1.3.28,2.163,2.163,0,0,0-.907.79h-0.051l-0.171-.95H744.53v6.96h1.052v-3.65a2.967,2.967,0,0,1,.508-1.95,2.008,2.008,0,0,1,1.6-.59,1.573,1.573,0,0,1,1.211.42,1.814,1.814,0,0,1,.387,1.27v4.5h1.053Zm3.589-1.08a1.4,1.4,0,0,1-.3-0.96v-4.1h2.017v-0.82H753.63v-1.61h-0.609l-0.444,1.49-1,.43v0.51h1v4.14a1.834,1.834,0,0,0,2.017,2.13,3.415,3.415,0,0,0,.6-0.06,1.918,1.918,0,0,0,.5-0.13v-0.81a3.8,3.8,0,0,1-.412.09,4.66,4.66,0,0,1-.539.04A1.053,1.053,0,0,1,753.928,1542.12Zm4.211-5.88h-1.053v6.96h1.053v-6.96Zm-0.964-1.35a0.656,0.656,0,0,0,.881,0,0.713,0.713,0,0,0,.184-0.53,0.683,0.683,0,0,0-.184-0.53,0.656,0.656,0,0,0-.881,0,0.7,0.7,0,0,0-.178.53A0.732,0.732,0,0,0,757.175,1534.89Zm6.329,1.35h-1.769v-0.45a2.207,2.207,0,0,1,.285-1.27,1,1,0,0,1,.881-0.4,3.527,3.527,0,0,1,1.04.2l0.273-.85a4.9,4.9,0,0,0-1.294-.22c-1.492,0-2.238.86-2.238,2.57v0.38l-1.243.39v0.47h1.243v6.14h1.053v-6.14H763.5v-0.82Zm2.968,7-0.387.99a1.612,1.612,0,0,1-1.547,1.22,3.7,3.7,0,0,1-.78-0.08v0.84a3.8,3.8,0,0,0,.951.11,2.19,2.19,0,0,0,1.455-.49,3.939,3.939,0,0,0,1.037-1.67l2.987-7.92h-1.129q-1.458,4.035-1.722,4.82t-0.345,1.11h-0.051a15.338,15.338,0,0,0-.621-1.96l-1.522-3.97h-1.129Zm-52.582,11.54a5.121,5.121,0,0,0-2.007-1.12,7.067,7.067,0,0,1-1.291-.56,1.712,1.712,0,0,1-.6-0.57,1.561,1.561,0,0,1-.178-0.79,1.211,1.211,0,0,1,.482-1.02,2.132,2.132,0,0,1,1.338-.37,5.773,5.773,0,0,1,2.233.48l0.336-.94a6.42,6.42,0,0,0-2.543-.5,3.362,3.362,0,0,0-2.131.63,2.055,2.055,0,0,0-.8,1.71,2.4,2.4,0,0,0,.554,1.65,4.35,4.35,0,0,0,1.849,1.1,9.407,9.407,0,0,1,1.379.59,1.911,1.911,0,0,1,.647.57,1.477,1.477,0,0,1,.194.79,1.337,1.337,0,0,1-.546,1.14,2.7,2.7,0,0,1-1.623.41,6.759,6.759,0,0,1-1.332-.14,6.52,6.52,0,0,1-1.243-.38v1.04a6.078,6.078,0,0,0,2.537.43,3.831,3.831,0,0,0,2.41-.69,2.277,2.277,0,0,0,.887-1.91A2.212,2.212,0,0,0,713.89,1554.78Zm3.713,2.94a1.4,1.4,0,0,1-.3-0.96v-4.1h2.017v-0.82h-2.017v-1.61H716.7l-0.444,1.49-1,.43v0.51h1v4.14a1.834,1.834,0,0,0,2.017,2.13,3.415,3.415,0,0,0,.6-0.06,1.918,1.918,0,0,0,.5-0.13v-0.81a3.8,3.8,0,0,1-.412.09,4.66,4.66,0,0,1-.539.04A1.053,1.053,0,0,1,717.6,1557.72Zm8.212,1.08v-4.75a2.309,2.309,0,0,0-.6-1.77,2.636,2.636,0,0,0-1.842-.55,4.688,4.688,0,0,0-1.227.16,4.962,4.962,0,0,0-1.126.43l0.324,0.81a4.649,4.649,0,0,1,1.965-.53,1.449,1.449,0,0,1,1.126.39,1.758,1.758,0,0,1,.352,1.21v0.43l-1.18.04c-2.244.06-3.367,0.8-3.367,2.21a1.931,1.931,0,0,0,.587,1.51,2.3,2.3,0,0,0,1.62.54,3.057,3.057,0,0,0,1.29-.24,2.809,2.809,0,0,0,1.037-.88h0.051l0.209,0.99h0.78Zm-4.125-1.04a1.091,1.091,0,0,1-.345-0.87,1.179,1.179,0,0,1,.554-1.08,3.842,3.842,0,0,1,1.811-.39l1.053-.04v0.63a2,2,0,0,1-.562,1.51,2.134,2.134,0,0,1-1.544.54A1.43,1.43,0,0,1,721.69,1557.76Zm7.284-2.52q0.049-.735.05-1.08v-5.24h-1.04v9.88h1.04v-2.6l0.793-.69,2.454,3.29h1.275l-3.012-3.99,2.815-2.97H732.1l-2.245,2.38a12.245,12.245,0,0,0-.831,1.02h-0.05Zm9.965,3.58a5.591,5.591,0,0,0,1.056-.34v-0.94a5.646,5.646,0,0,1-2.219.47,2.15,2.15,0,0,1-1.652-.64,2.752,2.752,0,0,1-.619-1.86h4.788v-0.67a3.281,3.281,0,0,0-.761-2.26,2.6,2.6,0,0,0-2.067-.86,2.749,2.749,0,0,0-2.223.99,4.035,4.035,0,0,0-.827,2.67,3.653,3.653,0,0,0,.891,2.61,3.214,3.214,0,0,0,2.432.94A5.868,5.868,0,0,0,738.939,1558.82Zm-0.218-5.69a2.3,2.3,0,0,1,.444,1.52h-3.634a2.537,2.537,0,0,1,.586-1.51,1.728,1.728,0,0,1,1.335-.54A1.543,1.543,0,0,1,738.721,1553.13Zm9.176,5.67v-4.54a2.572,2.572,0,0,0-.637-1.93,2.7,2.7,0,0,0-1.912-.6,2.783,2.783,0,0,0-1.31.29,2.1,2.1,0,0,0-.885.79H743.09a6.593,6.593,0,0,0,.051-0.9v-2.99h-1.053v9.88h1.053v-3.64a3,3,0,0,1,.5-1.95,1.978,1.978,0,0,1,1.6-.6,1.574,1.574,0,0,1,1.212.42,1.819,1.819,0,0,1,.386,1.27v4.5H747.9Zm7.3-6.11a2.927,2.927,0,0,0-2.317-.97,3.005,3.005,0,0,0-2.359.94,3.851,3.851,0,0,0-.85,2.65,4.357,4.357,0,0,0,.393,1.92,2.864,2.864,0,0,0,1.116,1.26,3.151,3.151,0,0,0,1.655.44,3.008,3.008,0,0,0,2.366-.96,3.849,3.849,0,0,0,.856-2.66A3.8,3.8,0,0,0,755.2,1552.69Zm-3.909.6a1.86,1.86,0,0,1,1.56-.68,1.881,1.881,0,0,1,1.582.69,3.229,3.229,0,0,1,.536,2.01,3.286,3.286,0,0,1-.536,2.04,2.127,2.127,0,0,1-3.136,0,3.34,3.34,0,0,1-.533-2.04A3.263,3.263,0,0,1,751.29,1553.29Zm7.667-4.37H757.9v9.88h1.053v-9.88Zm7.1,9.88h0.856v-9.88h-1.053v2.83l0.025,0.49,0.045,0.5H765.85a2.826,2.826,0,0,0-4.287-.07,4.159,4.159,0,0,0-.761,2.67,4.091,4.091,0,0,0,.758,2.65,2.561,2.561,0,0,0,2.121.94,2.488,2.488,0,0,0,2.182-1.06h0.057Zm-3.679-1.44a3.425,3.425,0,0,1-.488-2.01,3.579,3.579,0,0,1,.492-2.03,1.61,1.61,0,0,1,1.417-.72,1.869,1.869,0,0,1,1.57.63,3.486,3.486,0,0,1,.491,2.11v0.22a2.989,2.989,0,0,1-.485,1.9,1.919,1.919,0,0,1-1.563.58A1.639,1.639,0,0,1,762.381,1557.36Zm10.9,1.46a5.591,5.591,0,0,0,1.056-.34v-0.94a5.651,5.651,0,0,1-2.22.47,2.152,2.152,0,0,1-1.652-.64,2.747,2.747,0,0,1-.618-1.86h4.788v-0.67a3.286,3.286,0,0,0-.761-2.26,2.6,2.6,0,0,0-2.068-.86,2.746,2.746,0,0,0-2.222.99,4.03,4.03,0,0,0-.828,2.67,3.653,3.653,0,0,0,.891,2.61,3.216,3.216,0,0,0,2.432.94A5.885,5.885,0,0,0,773.286,1558.82Zm-0.219-5.69a2.3,2.3,0,0,1,.444,1.52h-3.634a2.538,2.538,0,0,1,.587-1.51,1.728,1.728,0,0,1,1.335-.54A1.542,1.542,0,0,1,773.067,1553.13Zm5.34-1.05a3.122,3.122,0,0,0-.932,1.05h-0.051l-0.121-1.29h-0.868v6.96h1.052v-3.73a2.513,2.513,0,0,1,.6-1.71,1.845,1.845,0,0,1,1.442-.69,3.858,3.858,0,0,1,.761.1l0.146-.98a4.2,4.2,0,0,0-.831-0.07A2.129,2.129,0,0,0,778.407,1552.08Zm7.378,3.67a4.753,4.753,0,0,0-1.671-.91,9.489,9.489,0,0,1-1.217-.51,1.431,1.431,0,0,1-.46-0.37,0.792,0.792,0,0,1-.143-0.48,0.74,0.74,0,0,1,.381-0.65,2.252,2.252,0,0,1,1.129-.23,4.988,4.988,0,0,1,1.9.43l0.374-.86a5.62,5.62,0,0,0-2.194-.45,3.2,3.2,0,0,0-1.9.49,1.556,1.556,0,0,0-.692,1.34,1.6,1.6,0,0,0,.2.82,1.862,1.862,0,0,0,.609.61,7.37,7.37,0,0,0,1.379.63,5.491,5.491,0,0,1,1.373.69,0.9,0.9,0,0,1-.092,1.49,2.457,2.457,0,0,1-1.268.27,4.378,4.378,0,0,1-1.107-.15,5.34,5.34,0,0,1-1.075-.4v0.98a4.432,4.432,0,0,0,2.156.44,3.406,3.406,0,0,0,2.03-.53,1.742,1.742,0,0,0,.723-1.5A1.614,1.614,0,0,0,785.785,1555.75Z" transform="translate(-592 -1505)"/>
  <path id="Shape_127_copy" data-name="Shape 127 copy" class="cls-4" d="M801.8,1546v-1h23.977v1H801.8Zm24.306-1.38-0.658.76-7.993-7,0.658-.76Z" transform="translate(-592 -1505)"/>
  <path id="Shape_128_copy" data-name="Shape 128 copy" class="cls-4" d="M824.453,1544.62l0.658,0.76-7.993,7-0.658-.76Z" transform="translate(-592 -1505)"/>
  <path class="cls-4" d="M669.928,1546v-1h23.977v1H669.928Z" transform="translate(-592 -1505)"/>
  <ellipse id="Circle_BG" data-name="Circle BG" class="cls-7" cx="39.969" cy="41" rx="37.969" ry="38"/>
  <path id="Start" class="cls-2" d="M623.511,1545.98a5.121,5.121,0,0,0-2.007-1.12,7.067,7.067,0,0,1-1.291-.56,1.628,1.628,0,0,1-.6-0.57,1.551,1.551,0,0,1-.178-0.79,1.211,1.211,0,0,1,.482-1.02,2.129,2.129,0,0,1,1.338-.37,5.773,5.773,0,0,1,2.233.48l0.336-.94a6.42,6.42,0,0,0-2.543-.5,3.362,3.362,0,0,0-2.131.63,2.056,2.056,0,0,0-.806,1.71,2.449,2.449,0,0,0,.555,1.66,4.442,4.442,0,0,0,1.849,1.09,9.407,9.407,0,0,1,1.379.59,1.921,1.921,0,0,1,.647.57,1.477,1.477,0,0,1,.193.79,1.336,1.336,0,0,1-.545,1.14,2.706,2.706,0,0,1-1.623.41,6.759,6.759,0,0,1-1.332-.14,6.5,6.5,0,0,1-1.243-.38v1.04a5.92,5.92,0,0,0,2.537.43,3.828,3.828,0,0,0,2.409-.69,2.275,2.275,0,0,0,.888-1.91A2.216,2.216,0,0,0,623.511,1545.98Zm3.713,2.94a1.385,1.385,0,0,1-.3-0.96v-4.1h2.016v-0.82h-2.016v-1.61h-0.609l-0.444,1.49-1,.43v0.51h1V1548a1.834,1.834,0,0,0,2.017,2.13,3.415,3.415,0,0,0,.6-0.06,1.918,1.918,0,0,0,.5-0.13v-0.81a3.8,3.8,0,0,1-.412.09,4.677,4.677,0,0,1-.539.04A1.019,1.019,0,0,1,627.224,1548.92Zm8.212,1.08v-4.75a2.312,2.312,0,0,0-.6-1.77,2.638,2.638,0,0,0-1.842-.55,4.688,4.688,0,0,0-1.227.16,4.536,4.536,0,0,0-1.126.44l0.323,0.8a4.657,4.657,0,0,1,1.966-.53,1.449,1.449,0,0,1,1.126.39,1.758,1.758,0,0,1,.352,1.21v0.43l-1.18.04c-2.245.07-3.367,0.8-3.367,2.21a1.93,1.93,0,0,0,.586,1.51,2.3,2.3,0,0,0,1.621.54,3.23,3.23,0,0,0,1.29-.23,2.958,2.958,0,0,0,1.037-.89h0.051l0.209,0.99h0.78Zm-4.125-1.04a1.088,1.088,0,0,1-.346-0.87,1.18,1.18,0,0,1,.555-1.08,3.842,3.842,0,0,1,1.811-.39l1.052-.04v0.63a2.008,2.008,0,0,1-.561,1.51,2.134,2.134,0,0,1-1.544.54A1.428,1.428,0,0,1,631.311,1548.96Zm8.266-5.68a3.144,3.144,0,0,0-.932,1.05h-0.051l-0.12-1.29h-0.869V1550h1.053v-3.73a2.518,2.518,0,0,1,.6-1.71,1.847,1.847,0,0,1,1.443-.69,3.867,3.867,0,0,1,.761.1l0.146-.98a4.212,4.212,0,0,0-.831-0.07A2.132,2.132,0,0,0,639.577,1543.28Zm4.757,5.64a1.385,1.385,0,0,1-.3-0.96v-4.1h2.016v-0.82h-2.016v-1.61h-0.609l-0.444,1.49-1,.43v0.51h1V1548a1.834,1.834,0,0,0,2.016,2.13,3.416,3.416,0,0,0,.6-0.06,1.918,1.918,0,0,0,.5-0.13v-0.81a3.856,3.856,0,0,1-.412.09,4.677,4.677,0,0,1-.539.04A1.019,1.019,0,0,1,644.334,1548.92Z" transform="translate(-592 -1505)"/>
  <g id="Connecting_lines" data-name="Connecting lines">
    <path class="cls-4" d="M931.681,1547v-1h24.976v1H931.681Zm23.977-1h1v52h-1v-52Zm0,51v1H669.928v-1h285.73Zm-285.73,1h1v51h-1v-51Z" transform="translate(-592 -1505)"/>
    <path id="Shape_127_copy_4" data-name="Shape 127 copy 4" class="cls-4" d="M669.928,1649v-1h23.977v1H669.928Zm24.306-1.38-0.657.76-7.993-7,0.658-.76Z" transform="translate(-592 -1505)"/>
    <path id="Shape_128_copy_4" data-name="Shape 128 copy 4" class="cls-4" d="M692.577,1647.62l0.658,0.76-7.992,7-0.658-.76Z" transform="translate(-592 -1505)"/>
    <path id="Shape_127_copy_5" data-name="Shape 127 copy 5" class="cls-4" d="M800.8,1649v-1h24.977v1H800.8Zm25.306-1.38-0.658.76-7.993-7,0.658-.76Z" transform="translate(-592 -1505)"/>
    <path id="Shape_128_copy_5" data-name="Shape 128 copy 5" class="cls-4" d="M824.453,1647.62l0.658,0.76-7.993,7-0.658-.76Z" transform="translate(-592 -1505)"/>
    <path id="Shape_127_copy_6" data-name="Shape 127 copy 6" class="cls-4" d="M932.68,1649v-1h24.976v1H932.68Zm25.305-1.38-0.658.76-7.992-7,0.658-.76Z" transform="translate(-592 -1505)"/>
    <path id="Shape_128_copy_6" data-name="Shape 128 copy 6" class="cls-4" d="M956.328,1647.62l0.658,0.76-7.992,7-0.658-.76Z" transform="translate(-592 -1505)"/>
  </g>
</svg>
