<svg id="Flow_Chart_-_WBS" data-name="Flow Chart - WBS" xmlns="http://www.w3.org/2000/svg" xmlns:xlink="http://www.w3.org/1999/xlink" width="531.34" height="296.5" viewBox="0 0 531.34 296.5">
  <defs>
    <style>
      .cls-1, .cls-3, .cls-4, .cls-5, .cls-6, .cls-7, .cls-9 {
        fill: #f2f2f2;
      }

      .cls-1 {
        filter: url(#filter);
      }

      .cls-2 {
        fill: #6b6b6b;
      }

      .cls-2, .cls-8 {
        fill-rule: evenodd;
      }

      .cls-3 {
        filter: url(#filter-2);
      }

      .cls-4 {
        filter: url(#filter-3);
      }

      .cls-5 {
        filter: url(#filter-4);
      }

      .cls-6 {
        filter: url(#filter-5);
      }

      .cls-7 {
        stroke: #01a9da;
        stroke-linejoin: round;
        stroke-opacity: 0.42;
        stroke-width: 1px;
        filter: url(#filter-6);
      }

      .cls-8 {
        fill: #01a9da;
      }

      .cls-9 {
        filter: url(#filter-7);
      }
    </style>
    <filter id="filter" x="264" y="230.5" width="114" height="66" filterUnits="userSpaceOnUse">
      <feOffset result="offset" dx="0.5" dy="0.866" in="SourceAlpha"/>
      <feGaussianBlur result="blur" stdDeviation="2"/>
      <feFlood result="flood" flood-opacity="0.26"/>
      <feComposite result="composite" operator="in" in2="blur"/>
      <feBlend result="blend" in="SourceGraphic"/>
    </filter>
    <filter id="filter-2" x="264" y="166.5" width="114" height="66" filterUnits="userSpaceOnUse">
      <feOffset result="offset" dx="0.5" dy="0.866" in="SourceAlpha"/>
      <feGaussianBlur result="blur" stdDeviation="2"/>
      <feFlood result="flood" flood-opacity="0.26"/>
      <feComposite result="composite" operator="in" in2="blur"/>
      <feBlend result="blend" in="SourceGraphic"/>
    </filter>
    <filter id="filter-3" x="264" y="102.5" width="114" height="66" filterUnits="userSpaceOnUse">
      <feOffset result="offset" dx="0.5" dy="0.866" in="SourceAlpha"/>
      <feGaussianBlur result="blur" stdDeviation="2"/>
      <feFlood result="flood" flood-opacity="0.26"/>
      <feComposite result="composite" operator="in" in2="blur"/>
      <feBlend result="blend" in="SourceGraphic"/>
    </filter>
    <filter id="filter-4" x="405" y="69.5" width="114" height="66" filterUnits="userSpaceOnUse">
      <feOffset result="offset" dx="0.5" dy="0.866" in="SourceAlpha"/>
      <feGaussianBlur result="blur" stdDeviation="2"/>
      <feFlood result="flood" flood-opacity="0.26"/>
      <feComposite result="composite" operator="in" in2="blur"/>
      <feBlend result="blend" in="SourceGraphic"/>
    </filter>
    <filter id="filter-5" x="264" y="7.5" width="114" height="85" filterUnits="userSpaceOnUse">
      <feOffset result="offset" dx="0.5" dy="0.866" in="SourceAlpha"/>
      <feGaussianBlur result="blur" stdDeviation="2"/>
      <feFlood result="flood" flood-opacity="0.26"/>
      <feComposite result="composite" operator="in" in2="blur"/>
      <feBlend result="blend" in="SourceGraphic"/>
    </filter>
    <filter id="filter-6" x="125" y="0.5" width="126" height="97" filterUnits="userSpaceOnUse">
      <feOffset result="offset" dx="0.5" dy="0.866" in="SourceAlpha"/>
      <feGaussianBlur result="blur" stdDeviation="2"/>
      <feFlood result="flood" flood-opacity="0.13"/>
      <feComposite result="composite" operator="in" in2="blur"/>
      <feGaussianBlur result="blur-2" stdDeviation="3.333" in="SourceAlpha"/>
      <feComposite result="composite-2"/>
      <feComposite result="composite-3"/>
      <feComposite result="composite-4"/>
      <feFlood result="flood-2" flood-color="#01a9da" flood-opacity="0.09"/>
      <feComposite result="composite-5" operator="in" in2="composite-4"/>
      <feBlend result="blend" in2="composite"/>
      <feBlend result="blend-2" in="SourceGraphic"/>
    </filter>
    <filter id="filter-7" x="0" y="7.5" width="114" height="85" filterUnits="userSpaceOnUse">
      <feOffset result="offset" dx="0.5" dy="0.866" in="SourceAlpha"/>
      <feGaussianBlur result="blur" stdDeviation="2"/>
      <feFlood result="flood" flood-opacity="0.26"/>
      <feComposite result="composite" operator="in" in2="blur"/>
      <feBlend result="blend" in="SourceGraphic"/>
    </filter>
  </defs>
  <rect id="bg_copy_5" data-name="bg copy 5" class="cls-1" x="266" y="232.5" width="107" height="59"/>
  <path id="Develop_quality_plan" data-name="Develop quality plan" class="cls-2" d="M830.161,1250.12a4.547,4.547,0,0,0-3.364-1.2h-2.844v9.28h2.571a4.937,4.937,0,0,0,3.589-1.22,4.678,4.678,0,0,0,1.248-3.51A4.534,4.534,0,0,0,830.161,1250.12Zm-0.914,6.2a4.006,4.006,0,0,1-2.9.95h-1.314v-7.42H826.6a3.663,3.663,0,0,1,2.707.92A4.564,4.564,0,0,1,829.247,1256.32Zm8.166,1.9a5.6,5.6,0,0,0,1.057-.34v-0.94a5.66,5.66,0,0,1-2.222.47,2.154,2.154,0,0,1-1.653-.64,2.742,2.742,0,0,1-.619-1.86h4.792v-0.67a3.281,3.281,0,0,0-.761-2.26,2.6,2.6,0,0,0-2.07-.86,2.75,2.75,0,0,0-2.224.99,4.025,4.025,0,0,0-.829,2.67,3.649,3.649,0,0,0,.892,2.61,3.22,3.22,0,0,0,2.434.94A5.889,5.889,0,0,0,837.413,1258.22Zm-0.219-5.69a2.3,2.3,0,0,1,.445,1.52H834a2.538,2.538,0,0,1,.588-1.51,1.729,1.729,0,0,1,1.336-.54A1.543,1.543,0,0,1,837.194,1252.53Zm6.126,5.67,2.64-6.96h-1.13q-1.295,3.555-1.666,4.61a14.359,14.359,0,0,0-.441,1.4h-0.051a18.894,18.894,0,0,0-.6-1.88l-1.5-4.13h-1.13l2.64,6.96h1.232Zm7.9,0.02a5.577,5.577,0,0,0,1.057-.34v-0.94a5.656,5.656,0,0,1-2.221.47,2.155,2.155,0,0,1-1.654-.64,2.747,2.747,0,0,1-.619-1.86h4.793v-0.67a3.282,3.282,0,0,0-.762-2.26,2.6,2.6,0,0,0-2.069-.86,2.752,2.752,0,0,0-2.225.99,4.025,4.025,0,0,0-.829,2.67,3.653,3.653,0,0,0,.892,2.61,3.221,3.221,0,0,0,2.435.94A5.885,5.885,0,0,0,851.219,1258.22ZM851,1252.53a2.3,2.3,0,0,1,.445,1.52h-3.637a2.532,2.532,0,0,1,.587-1.51,1.729,1.729,0,0,1,1.336-.54A1.543,1.543,0,0,1,851,1252.53Zm4.425-4.21h-1.054v9.88h1.054v-9.88Zm7.379,3.77a2.935,2.935,0,0,0-2.32-.97,3.013,3.013,0,0,0-2.362.94,3.851,3.851,0,0,0-.85,2.65,4.357,4.357,0,0,0,.393,1.92,2.868,2.868,0,0,0,1.118,1.26,3.152,3.152,0,0,0,1.656.44,3.011,3.011,0,0,0,2.368-.96,3.844,3.844,0,0,0,.857-2.66A3.8,3.8,0,0,0,862.8,1252.09Zm-3.913.6a1.861,1.861,0,0,1,1.561-.68,1.884,1.884,0,0,1,1.584.69,3.229,3.229,0,0,1,.536,2.01,3.286,3.286,0,0,1-.536,2.04,2.13,2.13,0,0,1-3.139,0,3.334,3.334,0,0,1-.533-2.04A3.256,3.256,0,0,1,858.891,1252.69Zm11.981,4.69a5.041,5.041,0,0,0,.012-5.32,2.568,2.568,0,0,0-2.136-.94,2.86,2.86,0,0,0-1.237.25,2.444,2.444,0,0,0-.946.82h-0.051l-0.146-.95h-0.857v10.08h1.054v-2.86a9.659,9.659,0,0,0-.076-1.16h0.076a2.357,2.357,0,0,0,.942.78,3.135,3.135,0,0,0,1.241.25A2.585,2.585,0,0,0,870.872,1257.38Zm-0.838-4.67a3.3,3.3,0,0,1,.511,1.99,3.433,3.433,0,0,1-.511,2.01,1.624,1.624,0,0,1-1.413.73,1.859,1.859,0,0,1-1.567-.63,3.48,3.48,0,0,1-.489-2.1v-0.23a3.025,3.025,0,0,1,.489-1.88,1.876,1.876,0,0,1,1.542-.59A1.669,1.669,0,0,1,870.034,1252.71Zm-40.654,19.65a3.484,3.484,0,0,1-.485-2.01,3.579,3.579,0,0,1,.492-2.03,1.612,1.612,0,0,1,1.418-.72,1.849,1.849,0,0,1,1.568.64,3.488,3.488,0,0,1,.5,2.1v0.23a3.068,3.068,0,0,1-.514,1.91,1.9,1.9,0,0,1-1.536.56A1.661,1.661,0,0,1,829.38,1272.36Zm3.476,0.51h0.082a7.051,7.051,0,0,0-.07,1.08v2.97h1.054v-10.08H833.09l-0.152.95h-0.057a2.813,2.813,0,0,0-4.316-.12,4.191,4.191,0,0,0-.762,2.67,4.129,4.129,0,0,0,.755,2.64,2.544,2.544,0,0,0,2.1.95,2.505,2.505,0,0,0,2.2-1.06h0Zm3.224-6.03v4.55a2.557,2.557,0,0,0,.632,1.93,2.625,2.625,0,0,0,1.9.61,2.91,2.91,0,0,0,1.311-.28,2.091,2.091,0,0,0,.9-0.78h0.057l0.152,0.93h0.87v-6.96h-1.054v3.66a3.024,3.024,0,0,1-.5,1.95,1.97,1.97,0,0,1-1.6.59,1.61,1.61,0,0,1-1.212-.41,1.831,1.831,0,0,1-.387-1.27v-4.52H836.08Zm13.114,6.96v-4.75a2.309,2.309,0,0,0-.6-1.77,2.642,2.642,0,0,0-1.844-.55,4.7,4.7,0,0,0-1.229.16,4.944,4.944,0,0,0-1.126.43l0.323,0.81a4.661,4.661,0,0,1,1.968-.53,1.451,1.451,0,0,1,1.127.39,1.758,1.758,0,0,1,.352,1.21v0.43l-1.18.04c-2.248.06-3.371,0.8-3.371,2.21a1.931,1.931,0,0,0,.587,1.51,2.3,2.3,0,0,0,1.622.54,3.07,3.07,0,0,0,1.292-.24,2.824,2.824,0,0,0,1.037-.88H848.2l0.21,0.99h0.78Zm-4.129-1.04a1.091,1.091,0,0,1-.346-0.87,1.179,1.179,0,0,1,.556-1.08,3.843,3.843,0,0,1,1.812-.39l1.054-.04v0.63a2,2,0,0,1-.562,1.51,2.138,2.138,0,0,1-1.546.54A1.433,1.433,0,0,1,845.065,1272.76Zm7.354-8.84h-1.054v9.88h1.054v-9.88Zm3.288,2.92h-1.054v6.96h1.054v-6.96Zm-0.965-1.35a0.658,0.658,0,0,0,.883,0,0.717,0.717,0,0,0,.184-0.53,0.687,0.687,0,0,0-.184-0.53,0.658,0.658,0,0,0-.883,0,0.7,0.7,0,0,0-.177.53A0.731,0.731,0,0,0,854.742,1265.49Zm4.628,7.23a1.4,1.4,0,0,1-.3-0.96v-4.1h2.019v-0.82h-2.019v-1.61h-0.609l-0.444,1.49-1,.43v0.51h1v4.14a1.835,1.835,0,0,0,2.018,2.13,3.416,3.416,0,0,0,.6-0.06,1.927,1.927,0,0,0,.5-0.13v-0.81a3.827,3.827,0,0,1-.413.09,4.66,4.66,0,0,1-.539.04A1.055,1.055,0,0,1,859.37,1272.72Zm4.862,1.12-0.387.99a1.613,1.613,0,0,1-1.549,1.22,3.714,3.714,0,0,1-.781-0.08v0.84a3.823,3.823,0,0,0,.952.11,2.2,2.2,0,0,0,1.457-.49,3.93,3.93,0,0,0,1.038-1.67l2.99-7.92h-1.13q-1.459,4.035-1.723,4.82t-0.346,1.11H864.7a15.557,15.557,0,0,0-.622-1.96l-1.524-3.97h-1.13Zm-23.467,14.74a5.044,5.044,0,0,0,.013-5.32,2.57,2.57,0,0,0-2.136-.94,2.861,2.861,0,0,0-1.238.25,2.444,2.444,0,0,0-.946.82h-0.051l-0.146-.95H835.4v10.08h1.054v-2.86a9.457,9.457,0,0,0-.076-1.16h0.076a2.353,2.353,0,0,0,.943.78,3.128,3.128,0,0,0,1.241.25A2.584,2.584,0,0,0,840.765,1288.58Zm-0.838-4.67a3.3,3.3,0,0,1,.511,1.99,3.426,3.426,0,0,1-.511,2.01,1.624,1.624,0,0,1-1.412.73,1.861,1.861,0,0,1-1.568-.63,3.48,3.48,0,0,1-.489-2.1v-0.23a3.025,3.025,0,0,1,.489-1.88,1.876,1.876,0,0,1,1.542-.59A1.669,1.669,0,0,1,839.927,1283.91Zm4.5-4.39h-1.053v9.88h1.053v-9.88Zm7.294,9.88v-4.75a2.309,2.309,0,0,0-.6-1.77,2.642,2.642,0,0,0-1.844-.55,4.69,4.69,0,0,0-1.228.16,4.952,4.952,0,0,0-1.127.43l0.324,0.81a4.661,4.661,0,0,1,1.967-.53,1.45,1.45,0,0,1,1.127.39,1.758,1.758,0,0,1,.352,1.21v0.43l-1.18.04c-2.247.06-3.371,0.8-3.371,2.21a1.931,1.931,0,0,0,.587,1.51,2.306,2.306,0,0,0,1.622.54,3.07,3.07,0,0,0,1.292-.24,2.819,2.819,0,0,0,1.038-.88h0.05l0.21,0.99h0.781Zm-4.129-1.04a1.088,1.088,0,0,1-.346-0.87,1.18,1.18,0,0,1,.555-1.08,3.843,3.843,0,0,1,1.812-.39l1.054-.04v0.63a2,2,0,0,1-.562,1.51,2.137,2.137,0,0,1-1.545.54A1.429,1.429,0,0,1,847.589,1288.36Zm12.114,1.04v-4.54a2.59,2.59,0,0,0-.635-1.94,2.658,2.658,0,0,0-1.891-.6,2.928,2.928,0,0,0-1.3.28,2.169,2.169,0,0,0-.907.79h-0.051l-0.171-.95h-0.857v6.96h1.053v-3.65a2.973,2.973,0,0,1,.508-1.95,2.013,2.013,0,0,1,1.6-.59,1.574,1.574,0,0,1,1.212.42,1.814,1.814,0,0,1,.387,1.27v4.5H859.7Z" transform="translate(-528 -1006.5)"/>
  <rect id="bg_copy_4" data-name="bg copy 4" class="cls-3" x="266" y="168.5" width="107" height="59"/>
  <path id="Develop_communication_plan" data-name="Develop communication plan" class="cls-2" d="M830.161,1187.12a4.547,4.547,0,0,0-3.364-1.2h-2.844v9.28h2.571a4.937,4.937,0,0,0,3.589-1.22,4.678,4.678,0,0,0,1.248-3.51A4.534,4.534,0,0,0,830.161,1187.12Zm-0.914,6.2a4.006,4.006,0,0,1-2.9.95h-1.314v-7.42H826.6a3.663,3.663,0,0,1,2.707.92A4.564,4.564,0,0,1,829.247,1193.32Zm8.166,1.9a5.6,5.6,0,0,0,1.057-.34v-0.94a5.66,5.66,0,0,1-2.222.47,2.154,2.154,0,0,1-1.653-.64,2.742,2.742,0,0,1-.619-1.86h4.792v-0.67a3.281,3.281,0,0,0-.761-2.26,2.6,2.6,0,0,0-2.07-.86,2.75,2.75,0,0,0-2.224.99,4.025,4.025,0,0,0-.829,2.67,3.649,3.649,0,0,0,.892,2.61,3.22,3.22,0,0,0,2.434.94A5.889,5.889,0,0,0,837.413,1195.22Zm-0.219-5.69a2.3,2.3,0,0,1,.445,1.52H834a2.538,2.538,0,0,1,.588-1.51,1.729,1.729,0,0,1,1.336-.54A1.543,1.543,0,0,1,837.194,1189.53Zm6.126,5.67,2.64-6.96h-1.13q-1.295,3.555-1.666,4.61a14.359,14.359,0,0,0-.441,1.4h-0.051a18.894,18.894,0,0,0-.6-1.88l-1.5-4.13h-1.13l2.64,6.96h1.232Zm7.9,0.02a5.577,5.577,0,0,0,1.057-.34v-0.94a5.656,5.656,0,0,1-2.221.47,2.155,2.155,0,0,1-1.654-.64,2.747,2.747,0,0,1-.619-1.86h4.793v-0.67a3.282,3.282,0,0,0-.762-2.26,2.6,2.6,0,0,0-2.069-.86,2.752,2.752,0,0,0-2.225.99,4.025,4.025,0,0,0-.829,2.67,3.653,3.653,0,0,0,.892,2.61,3.221,3.221,0,0,0,2.435.94A5.885,5.885,0,0,0,851.219,1195.22ZM851,1189.53a2.3,2.3,0,0,1,.445,1.52h-3.637a2.532,2.532,0,0,1,.587-1.51,1.729,1.729,0,0,1,1.336-.54A1.543,1.543,0,0,1,851,1189.53Zm4.425-4.21h-1.054v9.88h1.054v-9.88Zm7.379,3.77a2.935,2.935,0,0,0-2.32-.97,3.013,3.013,0,0,0-2.362.94,3.851,3.851,0,0,0-.85,2.65,4.357,4.357,0,0,0,.393,1.92,2.868,2.868,0,0,0,1.118,1.26,3.152,3.152,0,0,0,1.656.44,3.011,3.011,0,0,0,2.368-.96,3.844,3.844,0,0,0,.857-2.66A3.8,3.8,0,0,0,862.8,1189.09Zm-3.913.6a1.861,1.861,0,0,1,1.561-.68,1.884,1.884,0,0,1,1.584.69,3.229,3.229,0,0,1,.536,2.01,3.286,3.286,0,0,1-.536,2.04,2.13,2.13,0,0,1-3.139,0,3.334,3.334,0,0,1-.533-2.04A3.256,3.256,0,0,1,858.891,1189.69Zm11.981,4.69a5.041,5.041,0,0,0,.012-5.32,2.568,2.568,0,0,0-2.136-.94,2.86,2.86,0,0,0-1.237.25,2.444,2.444,0,0,0-.946.82h-0.051l-0.146-.95h-0.857v10.08h1.054v-2.86a9.659,9.659,0,0,0-.076-1.16h0.076a2.357,2.357,0,0,0,.942.78,3.135,3.135,0,0,0,1.241.25A2.585,2.585,0,0,0,870.872,1194.38Zm-0.838-4.67a3.3,3.3,0,0,1,.511,1.99,3.433,3.433,0,0,1-.511,2.01,1.624,1.624,0,0,1-1.413.73,1.859,1.859,0,0,1-1.567-.63,3.48,3.48,0,0,1-.489-2.1v-0.23a3.025,3.025,0,0,1,.489-1.88,1.876,1.876,0,0,1,1.542-.59A1.669,1.669,0,0,1,870.034,1189.71Zm-64.159,20.85v-0.93a4.69,4.69,0,0,1-1.784.38,1.8,1.8,0,0,1-1.533-.69,3.222,3.222,0,0,1-.517-1.97q0-2.7,2.12-2.7a3.471,3.471,0,0,1,.73.09,5.172,5.172,0,0,1,.762.23l0.323-.89a3.514,3.514,0,0,0-.787-0.26,4.868,4.868,0,0,0-1-.1,3.011,3.011,0,0,0-2.4.95,3.929,3.929,0,0,0-.841,2.7,3.825,3.825,0,0,0,.829,2.63,2.967,2.967,0,0,0,2.339.93,3.693,3.693,0,0,0,1.758-.37h0Zm6.795-5.87a2.934,2.934,0,0,0-2.32-.97,3.011,3.011,0,0,0-2.361.94,3.852,3.852,0,0,0-.851,2.65,4.343,4.343,0,0,0,.394,1.92,2.86,2.86,0,0,0,1.117,1.26,3.156,3.156,0,0,0,1.657.44,3.009,3.009,0,0,0,2.367-.96,3.839,3.839,0,0,0,.857-2.66A3.8,3.8,0,0,0,812.67,1204.69Zm-3.913.6a1.861,1.861,0,0,1,1.561-.68,1.883,1.883,0,0,1,1.584.69,3.223,3.223,0,0,1,.536,2.01,3.28,3.28,0,0,1-.536,2.04,2.13,2.13,0,0,1-3.139,0,3.34,3.34,0,0,1-.533-2.04A3.256,3.256,0,0,1,808.757,1205.29Zm16.542,5.51v-4.54a2.724,2.724,0,0,0-.587-1.94,2.372,2.372,0,0,0-1.768-.6,2.813,2.813,0,0,0-1.346.31,2.186,2.186,0,0,0-.9.87h-0.051a2.062,2.062,0,0,0-2.133-1.18,2.566,2.566,0,0,0-1.215.28,2.12,2.12,0,0,0-.842.79h-0.05l-0.172-.95h-0.857v6.96h1.054v-3.65a3.238,3.238,0,0,1,.46-1.95,1.736,1.736,0,0,1,1.451-.59,1.377,1.377,0,0,1,1.111.42,1.857,1.857,0,0,1,.355,1.24v4.53h1.054v-3.89a2.65,2.65,0,0,1,.469-1.73,1.777,1.777,0,0,1,1.454-.57,1.369,1.369,0,0,1,1.105.42,1.852,1.852,0,0,1,.355,1.24v4.53H825.3Zm12.092,0v-4.54a2.724,2.724,0,0,0-.587-1.94,2.372,2.372,0,0,0-1.768-.6,2.813,2.813,0,0,0-1.346.31,2.186,2.186,0,0,0-.9.87h-0.051a2.062,2.062,0,0,0-2.133-1.18,2.571,2.571,0,0,0-1.215.28,2.117,2.117,0,0,0-.841.79H828.5l-0.171-.95H827.47v6.96h1.053v-3.65a3.237,3.237,0,0,1,.461-1.95,1.733,1.733,0,0,1,1.45-.59,1.376,1.376,0,0,1,1.111.42,1.852,1.852,0,0,1,.355,1.24v4.53h1.054v-3.89a2.65,2.65,0,0,1,.47-1.73,1.774,1.774,0,0,1,1.453-.57,1.368,1.368,0,0,1,1.105.42,1.852,1.852,0,0,1,.355,1.24v4.53h1.054Zm2.1-6.96v4.55a2.556,2.556,0,0,0,.631,1.93,2.625,2.625,0,0,0,1.9.61,2.91,2.91,0,0,0,1.311-.28,2.085,2.085,0,0,0,.9-0.78h0.058l0.152,0.93h0.87v-6.96h-1.054v3.66a3.017,3.017,0,0,1-.5,1.95,1.967,1.967,0,0,1-1.6.59,1.612,1.612,0,0,1-1.213-.41,1.831,1.831,0,0,1-.387-1.27v-4.52h-1.066Zm13.869,6.96v-4.54a2.589,2.589,0,0,0-.634-1.94,2.662,2.662,0,0,0-1.892-.6,2.923,2.923,0,0,0-1.3.28,2.165,2.165,0,0,0-.908.79h-0.051l-0.171-.95h-0.857v6.96H848.6v-3.65a2.973,2.973,0,0,1,.507-1.95,2.013,2.013,0,0,1,1.6-.59,1.574,1.574,0,0,1,1.212.42,1.809,1.809,0,0,1,.388,1.27v4.5h1.053Zm3.219-6.96H855.52v6.96h1.054v-6.96Zm-0.965-1.35a0.63,0.63,0,0,0,.444.17,0.64,0.64,0,0,0,.438-0.17,0.713,0.713,0,0,0,.184-0.53,0.683,0.683,0,0,0-.184-0.53,0.64,0.64,0,0,0-.438-0.17,0.63,0.63,0,0,0-.444.17,0.7,0.7,0,0,0-.178.53A0.727,0.727,0,0,0,855.609,1202.49Zm7.738,8.07v-0.93a4.694,4.694,0,0,1-1.784.38,1.8,1.8,0,0,1-1.533-.69,3.222,3.222,0,0,1-.517-1.97q0-2.7,2.12-2.7a3.478,3.478,0,0,1,.73.09,5.122,5.122,0,0,1,.761.23l0.324-.89a3.532,3.532,0,0,0-.787-0.26,4.875,4.875,0,0,0-1-.1,3.01,3.01,0,0,0-2.4.95,3.929,3.929,0,0,0-.841,2.7,3.829,3.829,0,0,0,.828,2.63,2.969,2.969,0,0,0,2.339.93,3.694,3.694,0,0,0,1.759-.37h0Zm6.709,0.24v-4.75a2.309,2.309,0,0,0-.6-1.77,2.64,2.64,0,0,0-1.844-.55,4.7,4.7,0,0,0-1.228.16,4.97,4.97,0,0,0-1.127.43l0.324,0.81a4.661,4.661,0,0,1,1.968-.53,1.447,1.447,0,0,1,1.126.39,1.758,1.758,0,0,1,.353,1.21v0.43l-1.181.04c-2.247.06-3.371,0.8-3.371,2.21a1.928,1.928,0,0,0,.588,1.51,2.3,2.3,0,0,0,1.621.54,3.066,3.066,0,0,0,1.292-.24,2.819,2.819,0,0,0,1.038-.88h0.051l0.209,0.99h0.781Zm-4.129-1.04a1.088,1.088,0,0,1-.346-0.87,1.18,1.18,0,0,1,.555-1.08,3.851,3.851,0,0,1,1.813-.39l1.053-.04v0.63a2.008,2.008,0,0,1-.561,1.51,2.139,2.139,0,0,1-1.546.54A1.431,1.431,0,0,1,865.927,1209.76Zm7.728-.04a1.4,1.4,0,0,1-.3-0.96v-4.1h2.018v-0.82h-2.018v-1.61h-0.61l-0.444,1.49-1,.43v0.51h1v4.14a1.835,1.835,0,0,0,2.019,2.13,3.434,3.434,0,0,0,.6-0.06,1.918,1.918,0,0,0,.5-0.13v-0.81a3.8,3.8,0,0,1-.412.09,4.694,4.694,0,0,1-.54.04A1.055,1.055,0,0,1,873.655,1209.72Zm4.215-5.88h-1.054v6.96h1.054v-6.96Zm-0.965-1.35a0.658,0.658,0,0,0,.883,0,0.717,0.717,0,0,0,.184-0.53,0.687,0.687,0,0,0-.184-0.53,0.658,0.658,0,0,0-.883,0,0.7,0.7,0,0,0-.178.53A0.732,0.732,0,0,0,876.905,1202.49Zm8.344,2.2a2.934,2.934,0,0,0-2.32-.97,3.011,3.011,0,0,0-2.361.94,3.852,3.852,0,0,0-.851,2.65,4.343,4.343,0,0,0,.394,1.92,2.866,2.866,0,0,0,1.117,1.26,3.156,3.156,0,0,0,1.657.44,3.009,3.009,0,0,0,2.367-.96,3.839,3.839,0,0,0,.857-2.66A3.792,3.792,0,0,0,885.249,1204.69Zm-3.913.6a1.862,1.862,0,0,1,1.561-.68,1.883,1.883,0,0,1,1.584.69,3.223,3.223,0,0,1,.536,2.01,3.28,3.28,0,0,1-.536,2.04,2.13,2.13,0,0,1-3.139,0,3.34,3.34,0,0,1-.533-2.04A3.263,3.263,0,0,1,881.336,1205.29Zm12.435,5.51v-4.54a2.59,2.59,0,0,0-.635-1.94,2.66,2.66,0,0,0-1.891-.6,2.928,2.928,0,0,0-1.3.28,2.163,2.163,0,0,0-.907.79h-0.051l-0.172-.95h-0.857v6.96h1.054v-3.65a2.967,2.967,0,0,1,.508-1.95,2.011,2.011,0,0,1,1.6-.59,1.574,1.574,0,0,1,1.212.42,1.814,1.814,0,0,1,.387,1.27v4.5h1.054Zm-53.006,14.78a5.044,5.044,0,0,0,.013-5.32,2.57,2.57,0,0,0-2.136-.94,2.861,2.861,0,0,0-1.238.25,2.444,2.444,0,0,0-.946.82h-0.051l-0.146-.95H835.4v10.08h1.054v-2.86a9.457,9.457,0,0,0-.076-1.16h0.076a2.353,2.353,0,0,0,.943.78,3.128,3.128,0,0,0,1.241.25A2.584,2.584,0,0,0,840.765,1225.58Zm-0.838-4.67a3.3,3.3,0,0,1,.511,1.99,3.426,3.426,0,0,1-.511,2.01,1.624,1.624,0,0,1-1.412.73,1.861,1.861,0,0,1-1.568-.63,3.48,3.48,0,0,1-.489-2.1v-0.23a3.025,3.025,0,0,1,.489-1.88,1.876,1.876,0,0,1,1.542-.59A1.669,1.669,0,0,1,839.927,1220.91Zm4.5-4.39h-1.053v9.88h1.053v-9.88Zm7.294,9.88v-4.75a2.309,2.309,0,0,0-.6-1.77,2.642,2.642,0,0,0-1.844-.55,4.69,4.69,0,0,0-1.228.16,4.952,4.952,0,0,0-1.127.43l0.324,0.81a4.661,4.661,0,0,1,1.967-.53,1.45,1.45,0,0,1,1.127.39,1.758,1.758,0,0,1,.352,1.21v0.43l-1.18.04c-2.247.06-3.371,0.8-3.371,2.21a1.931,1.931,0,0,0,.587,1.51,2.306,2.306,0,0,0,1.622.54,3.07,3.07,0,0,0,1.292-.24,2.819,2.819,0,0,0,1.038-.88h0.05l0.21,0.99h0.781Zm-4.129-1.04a1.088,1.088,0,0,1-.346-0.87,1.18,1.18,0,0,1,.555-1.08,3.843,3.843,0,0,1,1.812-.39l1.054-.04v0.63a2,2,0,0,1-.562,1.51,2.137,2.137,0,0,1-1.545.54A1.429,1.429,0,0,1,847.589,1225.36Zm12.114,1.04v-4.54a2.59,2.59,0,0,0-.635-1.94,2.658,2.658,0,0,0-1.891-.6,2.928,2.928,0,0,0-1.3.28,2.169,2.169,0,0,0-.907.79h-0.051l-0.171-.95h-0.857v6.96h1.053v-3.65a2.973,2.973,0,0,1,.508-1.95,2.013,2.013,0,0,1,1.6-.59,1.574,1.574,0,0,1,1.212.42,1.814,1.814,0,0,1,.387,1.27v4.5H859.7Z" transform="translate(-528 -1006.5)"/>
  <rect id="bg_copy_3" data-name="bg copy 3" class="cls-4" x="266" y="104.5" width="107" height="59"/>
  <path id="Develop_risk_management_plan" data-name="Develop risk management plan" class="cls-2" d="M818.144,1120.92a4.547,4.547,0,0,0-3.364-1.2h-2.844V1129h2.571a4.937,4.937,0,0,0,3.589-1.22,4.678,4.678,0,0,0,1.248-3.51A4.534,4.534,0,0,0,818.144,1120.92Zm-0.914,6.2a4.009,4.009,0,0,1-2.9.95h-1.314v-7.42h1.568a3.665,3.665,0,0,1,2.707.92A4.564,4.564,0,0,1,817.23,1127.12Zm8.166,1.9a5.622,5.622,0,0,0,1.057-.34v-0.94a5.66,5.66,0,0,1-2.222.47,2.153,2.153,0,0,1-1.653-.64,2.742,2.742,0,0,1-.619-1.86h4.792v-0.66a3.3,3.3,0,0,0-.761-2.27,2.6,2.6,0,0,0-2.07-.86,2.753,2.753,0,0,0-2.225.99,4.03,4.03,0,0,0-.828,2.67,3.649,3.649,0,0,0,.892,2.61,3.219,3.219,0,0,0,2.434.94A5.889,5.889,0,0,0,825.4,1129.02Zm-0.219-5.69a2.3,2.3,0,0,1,.444,1.52h-3.637a2.538,2.538,0,0,1,.587-1.51,1.73,1.73,0,0,1,1.336-.54A1.574,1.574,0,0,1,825.177,1123.33ZM831.3,1129l2.641-6.96h-1.13q-1.294,3.555-1.666,4.61a13.792,13.792,0,0,0-.441,1.4h-0.051a18.721,18.721,0,0,0-.6-1.88l-1.5-4.13h-1.13l2.641,6.96H831.3Zm7.9,0.02a5.6,5.6,0,0,0,1.057-.34v-0.94a5.66,5.66,0,0,1-2.222.47,2.153,2.153,0,0,1-1.653-.64,2.742,2.742,0,0,1-.619-1.86h4.792v-0.66a3.3,3.3,0,0,0-.761-2.27,2.6,2.6,0,0,0-2.07-.86,2.753,2.753,0,0,0-2.225.99,4.03,4.03,0,0,0-.828,2.67,3.649,3.649,0,0,0,.892,2.61,3.219,3.219,0,0,0,2.434.94A5.889,5.889,0,0,0,839.2,1129.02Zm-0.219-5.69a2.3,2.3,0,0,1,.444,1.52H835.79a2.538,2.538,0,0,1,.587-1.51,1.732,1.732,0,0,1,1.337-.54A1.573,1.573,0,0,1,838.983,1123.33Zm4.424-4.21h-1.053V1129h1.053v-9.88Zm7.38,3.77a2.935,2.935,0,0,0-2.32-.97,3.012,3.012,0,0,0-2.362.94,3.861,3.861,0,0,0-.85,2.66,4.342,4.342,0,0,0,.393,1.91,2.872,2.872,0,0,0,1.117,1.26,3.158,3.158,0,0,0,1.657.44,3.011,3.011,0,0,0,2.368-.96A4.488,4.488,0,0,0,850.787,1122.89Zm-3.914.6a1.863,1.863,0,0,1,1.562-.68,1.884,1.884,0,0,1,1.584.69,4.093,4.093,0,0,1,0,4.05,2.13,2.13,0,0,1-3.139,0,3.321,3.321,0,0,1-.534-2.03A3.276,3.276,0,0,1,846.873,1123.49Zm11.981,4.69a4.131,4.131,0,0,0,.765-2.66,4.177,4.177,0,0,0-.752-2.66,2.568,2.568,0,0,0-2.136-.94,2.867,2.867,0,0,0-1.238.25,2.391,2.391,0,0,0-.945.83H854.5l-0.146-.96h-0.857v10.08h1.054v-2.86a9.467,9.467,0,0,0-.077-1.16h0.077a2.357,2.357,0,0,0,.942.78,3.131,3.131,0,0,0,1.241.25A2.583,2.583,0,0,0,858.854,1128.18Zm-0.837-4.67a3.3,3.3,0,0,1,.511,1.99,3.433,3.433,0,0,1-.511,2.01,1.624,1.624,0,0,1-1.413.73,1.862,1.862,0,0,1-1.568-.63,3.467,3.467,0,0,1-.488-2.09v-0.24a3.032,3.032,0,0,1,.488-1.88,1.88,1.88,0,0,1,1.543-.59A1.669,1.669,0,0,1,858.017,1123.51Zm8.794-1.23a3.135,3.135,0,0,0-.933,1.05h-0.051l-0.12-1.29h-0.87V1129h1.054v-3.73a2.513,2.513,0,0,1,.6-1.71,1.849,1.849,0,0,1,1.444-.69,3.876,3.876,0,0,1,.762.1l0.146-.98a4.216,4.216,0,0,0-.832-0.07A2.135,2.135,0,0,0,866.811,1122.28Zm4.387-.24h-1.054V1129H871.2v-6.96Zm-0.965-1.35a0.63,0.63,0,0,0,.444.17,0.64,0.64,0,0,0,.438-0.17,0.713,0.713,0,0,0,.184-0.53,0.7,0.7,0,0,0-.184-0.53,0.64,0.64,0,0,0-.438-0.17,0.63,0.63,0,0,0-.444.17,0.7,0.7,0,0,0-.178.53A0.727,0.727,0,0,0,870.233,1120.69Zm7.252,5.26a4.633,4.633,0,0,0-1.673-.9,10.679,10.679,0,0,1-1.218-.52,1.447,1.447,0,0,1-.461-0.37,0.792,0.792,0,0,1-.143-0.48,0.74,0.74,0,0,1,.381-0.65,2.259,2.259,0,0,1,1.13-.23,4.993,4.993,0,0,1,1.9.43l0.375-.86a5.634,5.634,0,0,0-2.2-.45,3.211,3.211,0,0,0-1.9.49,1.555,1.555,0,0,0-.691,1.34,1.592,1.592,0,0,0,.2.82,1.862,1.862,0,0,0,.609.61,7.387,7.387,0,0,0,1.38.63,5.5,5.5,0,0,1,1.375.69,0.9,0.9,0,0,1-.092,1.49,2.465,2.465,0,0,1-1.27.27,4.372,4.372,0,0,1-1.107-.15,5.3,5.3,0,0,1-1.076-.4v0.98a4.435,4.435,0,0,0,2.158.44,3.408,3.408,0,0,0,2.031-.53,1.743,1.743,0,0,0,.724-1.5A1.614,1.614,0,0,0,877.485,1125.95Zm3.139-.51q0.051-.735.051-1.08v-5.24h-1.041V1129h1.041v-2.6l0.793-.69,2.457,3.29H885.2l-3.015-3.99,2.819-2.97h-1.251l-2.247,2.38a12.042,12.042,0,0,0-.831,1.02h-0.051Zm-62.036,19.16v-4.54a2.724,2.724,0,0,0-.587-1.94,2.37,2.37,0,0,0-1.768-.6,2.816,2.816,0,0,0-1.346.31,2.249,2.249,0,0,0-.9.87h-0.051a2.062,2.062,0,0,0-2.133-1.18,2.571,2.571,0,0,0-1.215.28,2.073,2.073,0,0,0-.841.8H809.7l-0.171-.96h-0.857v6.96h1.053v-3.65a3.237,3.237,0,0,1,.461-1.95,1.733,1.733,0,0,1,1.45-.59,1.376,1.376,0,0,1,1.111.42,1.852,1.852,0,0,1,.355,1.24v4.53h1.054v-3.88a2.662,2.662,0,0,1,.47-1.74,1.774,1.774,0,0,1,1.453-.57,1.368,1.368,0,0,1,1.105.42,1.852,1.852,0,0,1,.355,1.24v4.53h1.054Zm7.23,0v-4.75a2.309,2.309,0,0,0-.6-1.77,2.64,2.64,0,0,0-1.844-.55,4.7,4.7,0,0,0-1.228.16,4.559,4.559,0,0,0-1.127.44l0.324,0.8a4.661,4.661,0,0,1,1.968-.53,1.451,1.451,0,0,1,1.127.39,1.763,1.763,0,0,1,.352,1.21v0.43l-1.181.04c-2.247.07-3.37,0.8-3.37,2.21a1.928,1.928,0,0,0,.587,1.51,2.3,2.3,0,0,0,1.622.54,3.239,3.239,0,0,0,1.291-.23,2.96,2.96,0,0,0,1.038-.89h0.051l0.209,0.99h0.781Zm-4.129-1.04a1.088,1.088,0,0,1-.346-0.87,1.18,1.18,0,0,1,.555-1.08,3.851,3.851,0,0,1,1.813-.39l1.053-.04v0.63a2.008,2.008,0,0,1-.561,1.51,2.139,2.139,0,0,1-1.546.54A1.431,1.431,0,0,1,821.689,1143.56Zm12.114,1.04v-4.54a2.589,2.589,0,0,0-.634-1.94,2.662,2.662,0,0,0-1.892-.6,2.923,2.923,0,0,0-1.3.28,2.12,2.12,0,0,0-.908.8h-0.051l-0.171-.96h-0.857v6.96h1.054v-3.65a2.967,2.967,0,0,1,.508-1.95,2.009,2.009,0,0,1,1.6-.59,1.578,1.578,0,0,1,1.213.42,1.814,1.814,0,0,1,.387,1.27v4.5H833.8Zm7.224,0v-4.75a2.309,2.309,0,0,0-.6-1.77,2.64,2.64,0,0,0-1.844-.55,4.7,4.7,0,0,0-1.228.16,4.559,4.559,0,0,0-1.127.44l0.324,0.8a4.661,4.661,0,0,1,1.968-.53,1.447,1.447,0,0,1,1.126.39A1.758,1.758,0,0,1,840,1140v0.43l-1.181.04c-2.247.07-3.37,0.8-3.37,2.21a1.928,1.928,0,0,0,.587,1.51,2.3,2.3,0,0,0,1.621.54,3.24,3.24,0,0,0,1.292-.23,2.96,2.96,0,0,0,1.038-.89h0.051l0.209,0.99h0.781Zm-4.129-1.04a1.088,1.088,0,0,1-.346-0.87,1.18,1.18,0,0,1,.555-1.08,3.851,3.851,0,0,1,1.813-.39l1.053-.04v0.63a2.008,2.008,0,0,1-.561,1.51,2.139,2.139,0,0,1-1.546.54A1.431,1.431,0,0,1,836.9,1143.56Zm9.588-5.92a3.725,3.725,0,0,0-.984-0.12,2.808,2.808,0,0,0-1.942.61,2.515,2.515,0,0,0-.346,2.99,1.905,1.905,0,0,0,.879.75,2.165,2.165,0,0,0-.641.55,1.134,1.134,0,0,0-.2.67,1,1,0,0,0,.181.59,1.075,1.075,0,0,0,.447.37,2.059,2.059,0,0,0-1.142.63,1.623,1.623,0,0,0-.407,1.1,1.648,1.648,0,0,0,.74,1.44,3.766,3.766,0,0,0,2.1.5,5,5,0,0,0,2.7-.6,1.98,1.98,0,0,0,.927-1.76,1.664,1.664,0,0,0-.606-1.39,2.742,2.742,0,0,0-1.736-.47h-1.232a1.72,1.72,0,0,1-.806-0.14,0.45,0.45,0,0,1-.235-0.42,1.046,1.046,0,0,1,.673-0.9,2.733,2.733,0,0,0,.584.05,2.8,2.8,0,0,0,1.917-.61,2.045,2.045,0,0,0,.7-1.63,2.247,2.247,0,0,0-.457-1.39l1.289-.15v-0.67h-2.406Zm-2.742,7.14a1.708,1.708,0,0,1,1.117-.34h1.263a2.663,2.663,0,0,1,1.314.22,0.855,0.855,0,0,1,.349.78,1.207,1.207,0,0,1-.638,1.08,3.848,3.848,0,0,1-1.964.4,2.569,2.569,0,0,1-1.365-.3,0.936,0.936,0,0,1-.476-0.85A1.235,1.235,0,0,1,843.744,1144.78Zm0.571-6.1a1.575,1.575,0,0,1,1.143-.4,1.386,1.386,0,0,1,1.561,1.57,1.345,1.345,0,0,1-1.542,1.5,1.644,1.644,0,0,1-1.149-.37,1.425,1.425,0,0,1-.413-1.11A1.634,1.634,0,0,1,844.315,1138.68Zm10.147,5.94a5.622,5.622,0,0,0,1.057-.34v-0.94a5.66,5.66,0,0,1-2.222.47,2.153,2.153,0,0,1-1.653-.64,2.742,2.742,0,0,1-.619-1.86h4.792v-0.66a3.291,3.291,0,0,0-.762-2.27,2.6,2.6,0,0,0-2.069-.86,2.752,2.752,0,0,0-2.225.99,4.03,4.03,0,0,0-.828,2.67,3.649,3.649,0,0,0,.892,2.61,3.219,3.219,0,0,0,2.434.94A5.889,5.889,0,0,0,854.462,1144.62Zm-0.219-5.69a2.3,2.3,0,0,1,.444,1.52H851.05a2.538,2.538,0,0,1,.587-1.51,1.73,1.73,0,0,1,1.336-.54A1.575,1.575,0,0,1,854.243,1138.93Zm13.292,5.67v-4.54a2.724,2.724,0,0,0-.587-1.94,2.372,2.372,0,0,0-1.768-.6,2.813,2.813,0,0,0-1.346.31,2.249,2.249,0,0,0-.9.87h-0.051a2.062,2.062,0,0,0-2.133-1.18,2.571,2.571,0,0,0-1.215.28,2.067,2.067,0,0,0-.841.8h-0.051l-0.172-.96h-0.856v6.96h1.053v-3.65a3.245,3.245,0,0,1,.46-1.95,1.736,1.736,0,0,1,1.451-.59,1.377,1.377,0,0,1,1.111.42,1.852,1.852,0,0,1,.355,1.24v4.53H863.1v-3.88a2.657,2.657,0,0,1,.47-1.74,1.774,1.774,0,0,1,1.453-.57,1.368,1.368,0,0,1,1.105.42,1.852,1.852,0,0,1,.355,1.24v4.53h1.054Zm6.313,0.02a5.622,5.622,0,0,0,1.057-.34v-0.94a5.664,5.664,0,0,1-2.222.47,2.157,2.157,0,0,1-1.654-.64,2.752,2.752,0,0,1-.619-1.86H875.2v-0.66a3.291,3.291,0,0,0-.762-2.27,2.6,2.6,0,0,0-2.069-.86,2.752,2.752,0,0,0-2.225.99,4.03,4.03,0,0,0-.828,2.67,3.653,3.653,0,0,0,.891,2.61,3.221,3.221,0,0,0,2.435.94A5.9,5.9,0,0,0,873.848,1144.62Zm-0.219-5.69a2.3,2.3,0,0,1,.444,1.52h-3.637a2.538,2.538,0,0,1,.587-1.51,1.73,1.73,0,0,1,1.336-.54A1.576,1.576,0,0,1,873.629,1138.93Zm9.185,5.67v-4.54a2.59,2.59,0,0,0-.635-1.94,2.661,2.661,0,0,0-1.892-.6,2.923,2.923,0,0,0-1.3.28,2.126,2.126,0,0,0-.908.8h-0.05l-0.172-.96H877v6.96h1.054v-3.65a2.967,2.967,0,0,1,.508-1.95,2.01,2.01,0,0,1,1.6-.59,1.577,1.577,0,0,1,1.213.42,1.814,1.814,0,0,1,.387,1.27v4.5h1.054Zm3.592-1.08a1.39,1.39,0,0,1-.3-0.96v-4.1h2.019v-0.82h-2.019v-1.61H885.5l-0.445,1.49-1,.43v0.51h1v4.14a1.835,1.835,0,0,0,2.019,2.13,3.416,3.416,0,0,0,.6-0.06,1.918,1.918,0,0,0,.5-0.13v-0.81a3.8,3.8,0,0,1-.412.09,4.678,4.678,0,0,1-.54.04A1.023,1.023,0,0,1,886.406,1143.52Zm-45.16,15.86a4.131,4.131,0,0,0,.765-2.66,4.183,4.183,0,0,0-.752-2.66,2.57,2.57,0,0,0-2.136-.94,2.864,2.864,0,0,0-1.238.25,2.393,2.393,0,0,0-.946.83h-0.051l-0.146-.96h-0.857v10.08h1.054v-2.86a9.457,9.457,0,0,0-.076-1.16h0.076a2.353,2.353,0,0,0,.943.78,3.128,3.128,0,0,0,1.241.25A2.584,2.584,0,0,0,841.246,1159.38Zm-0.838-4.67a3.3,3.3,0,0,1,.511,1.99,3.426,3.426,0,0,1-.511,2.01,1.621,1.621,0,0,1-1.412.73,1.861,1.861,0,0,1-1.568-.63,3.466,3.466,0,0,1-.489-2.09v-0.24a3.038,3.038,0,0,1,.489-1.88,1.878,1.878,0,0,1,1.542-.59A1.668,1.668,0,0,1,840.408,1154.71Zm4.5-4.39h-1.054v9.88h1.054v-9.88Zm7.293,9.88v-4.75a2.309,2.309,0,0,0-.6-1.77,2.642,2.642,0,0,0-1.844-.55,4.7,4.7,0,0,0-1.228.16,4.543,4.543,0,0,0-1.127.44l0.324,0.8a4.661,4.661,0,0,1,1.968-.53,1.449,1.449,0,0,1,1.126.39,1.758,1.758,0,0,1,.353,1.21v0.43l-1.181.04c-2.247.07-3.371,0.8-3.371,2.21a1.928,1.928,0,0,0,.588,1.51,2.3,2.3,0,0,0,1.621.54,3.24,3.24,0,0,0,1.292-.23,2.96,2.96,0,0,0,1.038-.89h0.051l0.209,0.99H852.2Zm-4.129-1.04a1.088,1.088,0,0,1-.346-0.87,1.18,1.18,0,0,1,.555-1.08,3.851,3.851,0,0,1,1.813-.39l1.053-.04v0.63a2,2,0,0,1-.562,1.51,2.135,2.135,0,0,1-1.545.54A1.429,1.429,0,0,1,848.07,1159.16Zm12.114,1.04v-4.54a2.589,2.589,0,0,0-.634-1.94,2.662,2.662,0,0,0-1.892-.6,2.923,2.923,0,0,0-1.3.28,2.12,2.12,0,0,0-.908.8H855.4l-0.171-.96H854.37v6.96h1.054v-3.65a2.973,2.973,0,0,1,.507-1.95,2.013,2.013,0,0,1,1.6-.59,1.574,1.574,0,0,1,1.212.42,1.814,1.814,0,0,1,.388,1.27v4.5h1.053Z" transform="translate(-528 -1006.5)"/>
  <rect id="bg_copy_6" data-name="bg copy 6" class="cls-5" x="407" y="71.5" width="107" height="59"/>
  <path id="Project_plan" data-name="Project plan" class="cls-2" d="M956.589,1101.72h-2.406V1111h1.079v-3.65h1.092a4.331,4.331,0,0,0,2.752-.76,2.6,2.6,0,0,0,.961-2.17q0-2.7-3.478-2.7h0Zm-1.327.93h1.206a3.153,3.153,0,0,1,1.879.45,1.6,1.6,0,0,1,.6,1.37,1.709,1.709,0,0,1-.641,1.49,3.6,3.6,0,0,1-2.076.46h-0.971v-3.77Zm8.563,1.63a3.135,3.135,0,0,0-.933,1.05h-0.051l-0.12-1.29h-0.87V1111h1.054v-3.73a2.513,2.513,0,0,1,.6-1.71,1.849,1.849,0,0,1,1.444-.69,3.858,3.858,0,0,1,.761.1l0.146-.98a4.2,4.2,0,0,0-.831-0.07A2.135,2.135,0,0,0,963.825,1104.28Zm8.477,0.61a2.932,2.932,0,0,0-2.32-.97,3.011,3.011,0,0,0-2.361.94,3.861,3.861,0,0,0-.85,2.66,4.342,4.342,0,0,0,.393,1.91,2.866,2.866,0,0,0,1.117,1.26,3.158,3.158,0,0,0,1.657.44,3.013,3.013,0,0,0,2.368-.96A4.486,4.486,0,0,0,972.3,1104.89Zm-3.913.6a2.147,2.147,0,0,1,3.145.01,4.087,4.087,0,0,1,0,4.05,2.129,2.129,0,0,1-3.138,0,3.321,3.321,0,0,1-.534-2.03A3.276,3.276,0,0,1,968.389,1105.49Zm7.674,6.58v-8.03H975.01v8.1a1.225,1.225,0,0,1-.232.82,0.907,0.907,0,0,1-.727.27,3.258,3.258,0,0,1-.863-0.12v0.85a2.46,2.46,0,0,0,.978.16,1.746,1.746,0,0,0,1.9-2.05h0Zm-0.964-9.38a0.63,0.63,0,0,0,.444.17,0.64,0.64,0,0,0,.438-0.17,0.713,0.713,0,0,0,.184-0.53,0.7,0.7,0,0,0-.184-0.53,0.64,0.64,0,0,0-.438-0.17,0.63,0.63,0,0,0-.444.17,0.7,0.7,0,0,0-.178.53A0.727,0.727,0,0,0,975.1,1102.69Zm7.341,8.33a5.622,5.622,0,0,0,1.057-.34v-0.94a5.664,5.664,0,0,1-2.222.47,2.157,2.157,0,0,1-1.654-.64,2.752,2.752,0,0,1-.619-1.86H983.8v-0.66a3.291,3.291,0,0,0-.762-2.27,2.6,2.6,0,0,0-2.069-.86,2.752,2.752,0,0,0-2.225.99,4.03,4.03,0,0,0-.828,2.67,3.653,3.653,0,0,0,.891,2.61,3.221,3.221,0,0,0,2.435.94A5.9,5.9,0,0,0,982.44,1111.02Zm-0.219-5.69a2.3,2.3,0,0,1,.444,1.52h-3.637a2.538,2.538,0,0,1,.587-1.51,1.73,1.73,0,0,1,1.336-.54A1.576,1.576,0,0,1,982.221,1105.33Zm7.909,5.44v-0.94a4.69,4.69,0,0,1-1.784.38,1.8,1.8,0,0,1-1.533-.69,3.222,3.222,0,0,1-.517-1.97q0-2.7,2.12-2.7a3.471,3.471,0,0,1,.73.09,5.172,5.172,0,0,1,.762.23l0.323-.89a3.514,3.514,0,0,0-.787-0.26,4.868,4.868,0,0,0-1-.1,3.011,3.011,0,0,0-2.4.95,3.929,3.929,0,0,0-.841,2.7,3.829,3.829,0,0,0,.828,2.63,2.971,2.971,0,0,0,2.34.93,3.82,3.82,0,0,0,1.758-.36h0Zm3.078-.85a1.39,1.39,0,0,1-.3-0.96v-4.1h2.019v-0.82H992.91v-1.61H992.3l-0.445,1.49-1,.43v0.51h1V1109a1.835,1.835,0,0,0,2.019,2.13,3.416,3.416,0,0,0,.6-0.06,1.918,1.918,0,0,0,.5-0.13v-0.81a3.8,3.8,0,0,1-.412.09,4.678,4.678,0,0,1-.54.04A1.023,1.023,0,0,1,993.208,1109.92Zm11.9,0.26a4.13,4.13,0,0,0,.76-2.66,4.189,4.189,0,0,0-.75-2.66,2.565,2.565,0,0,0-2.14-.94,2.846,2.846,0,0,0-1.23.25,2.4,2.4,0,0,0-.95.83h-0.05l-0.15-.96h-0.853v10.08h1.053v-2.86a9.7,9.7,0,0,0-.08-1.16h0.08a2.351,2.351,0,0,0,.94.78,3.156,3.156,0,0,0,1.24.25A2.592,2.592,0,0,0,1005.11,1110.18Zm-0.84-4.67a3.3,3.3,0,0,1,.51,1.99,3.434,3.434,0,0,1-.51,2.01,1.619,1.619,0,0,1-1.41.73,1.857,1.857,0,0,1-1.57-.63,3.437,3.437,0,0,1-.49-2.09v-0.24a3.024,3.024,0,0,1,.49-1.88,1.877,1.877,0,0,1,1.54-.59A1.669,1.669,0,0,1,1004.27,1105.51Zm4.5-4.39h-1.06V1111h1.06v-9.88Zm7.29,9.88v-4.75a2.309,2.309,0,0,0-.6-1.77,2.629,2.629,0,0,0-1.84-.55,4.722,4.722,0,0,0-1.23.16,4.5,4.5,0,0,0-1.13.44l0.32,0.8a4.7,4.7,0,0,1,1.97-.53,1.46,1.46,0,0,1,1.13.39,1.784,1.784,0,0,1,.35,1.21v0.43l-1.18.04c-2.25.07-3.37,0.8-3.37,2.21a1.936,1.936,0,0,0,.59,1.51,2.3,2.3,0,0,0,1.62.54,3.2,3.2,0,0,0,1.29-.23,2.947,2.947,0,0,0,1.04-.89h0.05l0.21,0.99h0.78Zm-4.13-1.04a1.093,1.093,0,0,1-.35-0.87,1.184,1.184,0,0,1,.56-1.08,3.828,3.828,0,0,1,1.81-.39l1.06-.04v0.63a1.99,1.99,0,0,1-.57,1.51,2.126,2.126,0,0,1-1.54.54A1.426,1.426,0,0,1,1011.93,1109.96Zm12.12,1.04v-4.54a2.6,2.6,0,0,0-.64-1.94,2.647,2.647,0,0,0-1.89-.6,2.916,2.916,0,0,0-1.3.28,2.149,2.149,0,0,0-.91.8h-0.05l-0.17-.96h-0.86V1111h1.05v-3.65a2.96,2.96,0,0,1,.51-1.95,2.011,2.011,0,0,1,1.6-.59,1.558,1.558,0,0,1,1.21.42,1.8,1.8,0,0,1,.39,1.27v4.5h1.06Z" transform="translate(-528 -1006.5)"/>
  <rect id="bg_copy_2" data-name="bg copy 2" class="cls-6" x="266" y="9.5" width="107" height="78"/>
  <path id="Develop_Project_Schedule" data-name="Develop Project Schedule" class="cls-2" d="M830.161,1034.12a4.547,4.547,0,0,0-3.364-1.2h-2.844v9.28h2.571a4.937,4.937,0,0,0,3.589-1.22,4.678,4.678,0,0,0,1.248-3.51A4.534,4.534,0,0,0,830.161,1034.12Zm-0.914,6.2a4.006,4.006,0,0,1-2.9.95h-1.314v-7.42H826.6a3.663,3.663,0,0,1,2.707.92A4.564,4.564,0,0,1,829.247,1040.32Zm8.166,1.9a5.6,5.6,0,0,0,1.057-.34v-0.94a5.66,5.66,0,0,1-2.222.47,2.154,2.154,0,0,1-1.653-.64,2.742,2.742,0,0,1-.619-1.86h4.792v-0.67a3.281,3.281,0,0,0-.761-2.26,2.6,2.6,0,0,0-2.07-.86,2.75,2.75,0,0,0-2.224.99,4.025,4.025,0,0,0-.829,2.67,3.649,3.649,0,0,0,.892,2.61,3.22,3.22,0,0,0,2.434.94A5.889,5.889,0,0,0,837.413,1042.22Zm-0.219-5.69a2.3,2.3,0,0,1,.445,1.52H834a2.538,2.538,0,0,1,.588-1.51,1.729,1.729,0,0,1,1.336-.54A1.543,1.543,0,0,1,837.194,1036.53Zm6.126,5.67,2.64-6.96h-1.13q-1.295,3.555-1.666,4.61a14.359,14.359,0,0,0-.441,1.4h-0.051a18.894,18.894,0,0,0-.6-1.88l-1.5-4.13h-1.13l2.64,6.96h1.232Zm7.9,0.02a5.577,5.577,0,0,0,1.057-.34v-0.94a5.656,5.656,0,0,1-2.221.47,2.155,2.155,0,0,1-1.654-.64,2.747,2.747,0,0,1-.619-1.86h4.793v-0.67a3.282,3.282,0,0,0-.762-2.26,2.6,2.6,0,0,0-2.069-.86,2.752,2.752,0,0,0-2.225.99,4.025,4.025,0,0,0-.829,2.67,3.653,3.653,0,0,0,.892,2.61,3.221,3.221,0,0,0,2.435.94A5.885,5.885,0,0,0,851.219,1042.22ZM851,1036.53a2.3,2.3,0,0,1,.445,1.52h-3.637a2.532,2.532,0,0,1,.587-1.51,1.729,1.729,0,0,1,1.336-.54A1.543,1.543,0,0,1,851,1036.53Zm4.425-4.21h-1.054v9.88h1.054v-9.88Zm7.379,3.77a2.935,2.935,0,0,0-2.32-.97,3.013,3.013,0,0,0-2.362.94,3.851,3.851,0,0,0-.85,2.65,4.357,4.357,0,0,0,.393,1.92,2.868,2.868,0,0,0,1.118,1.26,3.152,3.152,0,0,0,1.656.44,3.011,3.011,0,0,0,2.368-.96,3.844,3.844,0,0,0,.857-2.66A3.8,3.8,0,0,0,862.8,1036.09Zm-3.913.6a1.861,1.861,0,0,1,1.561-.68,1.884,1.884,0,0,1,1.584.69,3.229,3.229,0,0,1,.536,2.01,3.286,3.286,0,0,1-.536,2.04,2.13,2.13,0,0,1-3.139,0,3.334,3.334,0,0,1-.533-2.04A3.256,3.256,0,0,1,858.891,1036.69Zm11.981,4.69a5.041,5.041,0,0,0,.012-5.32,2.568,2.568,0,0,0-2.136-.94,2.86,2.86,0,0,0-1.237.25,2.444,2.444,0,0,0-.946.82h-0.051l-0.146-.95h-0.857v10.08h1.054v-2.86a9.659,9.659,0,0,0-.076-1.16h0.076a2.357,2.357,0,0,0,.942.78,3.135,3.135,0,0,0,1.241.25A2.585,2.585,0,0,0,870.872,1041.38Zm-0.838-4.67a3.3,3.3,0,0,1,.511,1.99,3.433,3.433,0,0,1-.511,2.01,1.624,1.624,0,0,1-1.413.73,1.859,1.859,0,0,1-1.567-.63,3.48,3.48,0,0,1-.489-2.1v-0.23a3.025,3.025,0,0,1,.489-1.88,1.876,1.876,0,0,1,1.542-.59A1.669,1.669,0,0,1,870.034,1036.71Zm-40.006,11.81h-2.406v9.28H828.7v-3.65h1.092a4.333,4.333,0,0,0,2.752-.76,2.6,2.6,0,0,0,.961-2.17q0-2.7-3.478-2.7h0Zm-1.327.93h1.206a3.153,3.153,0,0,1,1.879.45,1.6,1.6,0,0,1,.6,1.37,1.709,1.709,0,0,1-.641,1.49,3.6,3.6,0,0,1-2.076.46H828.7v-3.77Zm8.563,1.63a3.135,3.135,0,0,0-.933,1.05H836.28l-0.12-1.29h-0.87v6.96h1.054v-3.73a2.513,2.513,0,0,1,.6-1.71,1.848,1.848,0,0,1,1.444-.69,3.858,3.858,0,0,1,.761.1l0.146-.98a4.2,4.2,0,0,0-.831-0.07A2.135,2.135,0,0,0,837.264,1051.08Zm8.477,0.61a2.932,2.932,0,0,0-2.32-.97,3.011,3.011,0,0,0-2.361.94,3.852,3.852,0,0,0-.851,2.65,4.357,4.357,0,0,0,.394,1.92,2.866,2.866,0,0,0,1.117,1.26,3.158,3.158,0,0,0,1.657.44,3.013,3.013,0,0,0,2.368-.96,3.844,3.844,0,0,0,.856-2.66A3.792,3.792,0,0,0,845.741,1051.69Zm-3.913.6a2.147,2.147,0,0,1,3.145.01,3.223,3.223,0,0,1,.537,2.01,3.28,3.28,0,0,1-.537,2.04,2.13,2.13,0,0,1-3.139,0,3.34,3.34,0,0,1-.533-2.04A3.263,3.263,0,0,1,841.828,1052.29Zm7.674,6.58v-8.03h-1.053v8.1a1.231,1.231,0,0,1-.232.82,0.908,0.908,0,0,1-.727.27,3.258,3.258,0,0,1-.863-0.12v0.85a2.455,2.455,0,0,0,.977.16,1.746,1.746,0,0,0,1.9-2.05h0Zm-0.964-9.38a0.63,0.63,0,0,0,.444.17,0.64,0.64,0,0,0,.438-0.17,0.713,0.713,0,0,0,.184-0.53,0.683,0.683,0,0,0-.184-0.53,0.64,0.64,0,0,0-.438-0.17,0.63,0.63,0,0,0-.444.17,0.7,0.7,0,0,0-.178.53A0.727,0.727,0,0,0,848.538,1049.49Zm7.341,8.33a5.591,5.591,0,0,0,1.056-.34v-0.94a5.656,5.656,0,0,1-2.221.47,2.157,2.157,0,0,1-1.654-.64,2.747,2.747,0,0,1-.619-1.86h4.793v-0.67a3.282,3.282,0,0,0-.762-2.26,2.6,2.6,0,0,0-2.069-.86,2.752,2.752,0,0,0-2.225.99,4.03,4.03,0,0,0-.828,2.67,3.653,3.653,0,0,0,.891,2.61,3.221,3.221,0,0,0,2.435.94A5.9,5.9,0,0,0,855.879,1057.82Zm-0.219-5.69a2.3,2.3,0,0,1,.444,1.52h-3.637a2.538,2.538,0,0,1,.587-1.51,1.729,1.729,0,0,1,1.336-.54A1.546,1.546,0,0,1,855.66,1052.13Zm7.909,5.43v-0.93a4.694,4.694,0,0,1-1.784.38,1.8,1.8,0,0,1-1.533-.69,3.222,3.222,0,0,1-.517-1.97q0-2.7,2.12-2.7a3.478,3.478,0,0,1,.73.09,5.172,5.172,0,0,1,.762.23l0.323-.89a3.532,3.532,0,0,0-.787-0.26,4.868,4.868,0,0,0-1-.1,3.01,3.01,0,0,0-2.4.95,3.929,3.929,0,0,0-.841,2.7,3.829,3.829,0,0,0,.828,2.63,2.97,2.97,0,0,0,2.339.93,3.694,3.694,0,0,0,1.759-.37h0Zm3.078-.84a1.4,1.4,0,0,1-.3-0.96v-4.1h2.019v-0.82h-2.019v-1.61H865.74l-0.445,1.49-1,.43v0.51h1v4.14a1.835,1.835,0,0,0,2.019,2.13,3.416,3.416,0,0,0,.6-0.06,1.918,1.918,0,0,0,.5-0.13v-0.81a3.8,3.8,0,0,1-.412.09,4.694,4.694,0,0,1-.54.04A1.055,1.055,0,0,1,866.647,1056.72Zm-40.726,12.66a5.124,5.124,0,0,0-2.009-1.12,7.083,7.083,0,0,1-1.292-.56,1.725,1.725,0,0,1-.6-0.57,1.561,1.561,0,0,1-.178-0.79,1.21,1.21,0,0,1,.483-1.02,2.132,2.132,0,0,1,1.339-.37,5.779,5.779,0,0,1,2.235.48l0.336-.94a6.427,6.427,0,0,0-2.545-.5,3.366,3.366,0,0,0-2.133.63,2.053,2.053,0,0,0-.806,1.71,2.4,2.4,0,0,0,.555,1.65,4.348,4.348,0,0,0,1.85,1.1,9.45,9.45,0,0,1,1.381.59,1.911,1.911,0,0,1,.647.57,1.468,1.468,0,0,1,.194.79,1.337,1.337,0,0,1-.546,1.14,2.709,2.709,0,0,1-1.625.41,6.777,6.777,0,0,1-1.333-.14,6.531,6.531,0,0,1-1.244-.38v1.04a6.088,6.088,0,0,0,2.539.43,3.834,3.834,0,0,0,2.412-.69,2.274,2.274,0,0,0,.889-1.91A2.212,2.212,0,0,0,825.921,1069.38Zm6.827,3.78v-0.93a4.694,4.694,0,0,1-1.784.38,1.8,1.8,0,0,1-1.533-.69,3.222,3.222,0,0,1-.517-1.97q0-2.7,2.12-2.7a3.478,3.478,0,0,1,.73.09,5.172,5.172,0,0,1,.762.23l0.323-.89a3.532,3.532,0,0,0-.787-0.26,4.875,4.875,0,0,0-1-.1,3.01,3.01,0,0,0-2.4.95,3.929,3.929,0,0,0-.841,2.7,3.829,3.829,0,0,0,.828,2.63,2.97,2.97,0,0,0,2.339.93,3.694,3.694,0,0,0,1.759-.37h0Zm7.465,0.24v-4.54a2.572,2.572,0,0,0-.638-1.93,2.7,2.7,0,0,0-1.914-.6,2.787,2.787,0,0,0-1.311.29,2.09,2.09,0,0,0-.885.79H835.4a6.593,6.593,0,0,0,.051-0.9v-2.99H834.4v9.88h1.054v-3.64a3,3,0,0,1,.5-1.95,1.982,1.982,0,0,1,1.6-.6,1.578,1.578,0,0,1,1.213.42,1.814,1.814,0,0,1,.387,1.27v4.5h1.054Zm6.306,0.02a5.622,5.622,0,0,0,1.057-.34v-0.94a5.66,5.66,0,0,1-2.222.47,2.153,2.153,0,0,1-1.653-.64,2.742,2.742,0,0,1-.619-1.86h4.792v-0.67a3.282,3.282,0,0,0-.762-2.26,2.6,2.6,0,0,0-2.069-.86,2.753,2.753,0,0,0-2.225.99,4.03,4.03,0,0,0-.828,2.67,3.649,3.649,0,0,0,.892,2.61,3.219,3.219,0,0,0,2.434.94A5.889,5.889,0,0,0,846.519,1073.42Zm-0.219-5.69a2.3,2.3,0,0,1,.444,1.52h-3.637a2.538,2.538,0,0,1,.587-1.51,1.73,1.73,0,0,1,1.336-.54A1.545,1.545,0,0,1,846.3,1067.73Zm8.246,5.67H855.4v-9.88h-1.054v2.83l0.025,0.49,0.045,0.5h-0.083a2.83,2.83,0,0,0-4.291-.07,4.153,4.153,0,0,0-.762,2.67,4.086,4.086,0,0,0,.759,2.65,2.565,2.565,0,0,0,2.123.94,2.492,2.492,0,0,0,2.184-1.06h0.057Zm-3.682-1.44a3.417,3.417,0,0,1-.489-2.01,3.579,3.579,0,0,1,.492-2.03,1.613,1.613,0,0,1,1.419-.72,1.871,1.871,0,0,1,1.571.63,3.478,3.478,0,0,1,.492,2.11v0.22a2.982,2.982,0,0,1-.486,1.9,1.92,1.92,0,0,1-1.564.58A1.639,1.639,0,0,1,850.864,1071.96Zm6.7-5.52v4.55a2.556,2.556,0,0,0,.631,1.93,2.625,2.625,0,0,0,1.9.61,2.91,2.91,0,0,0,1.311-.28,2.085,2.085,0,0,0,.9-0.78h0.058l0.152,0.93h0.87v-6.96h-1.054v3.66a3.017,3.017,0,0,1-.5,1.95,1.967,1.967,0,0,1-1.6.59,1.612,1.612,0,0,1-1.213-.41,1.831,1.831,0,0,1-.387-1.27v-4.52h-1.066Zm9.109-2.92h-1.054v9.88h1.054v-9.88Zm6.376,9.9a5.622,5.622,0,0,0,1.057-.34v-0.94a5.66,5.66,0,0,1-2.222.47,2.157,2.157,0,0,1-1.654-.64,2.747,2.747,0,0,1-.618-1.86H874.4v-0.67a3.282,3.282,0,0,0-.762-2.26,2.6,2.6,0,0,0-2.069-.86,2.752,2.752,0,0,0-2.225.99,4.03,4.03,0,0,0-.828,2.67,3.649,3.649,0,0,0,.892,2.61,3.219,3.219,0,0,0,2.434.94A5.889,5.889,0,0,0,873.046,1073.42Zm-0.219-5.69a2.3,2.3,0,0,1,.444,1.52h-3.637a2.538,2.538,0,0,1,.587-1.51,1.73,1.73,0,0,1,1.336-.54A1.545,1.545,0,0,1,872.827,1067.73Z" transform="translate(-528 -1006.5)"/>
  <g style="fill: #f2f2f2; filter: url(#filter-6)">
    <rect id="bg_copy" data-name="bg copy" class="cls-7" x="134" y="9.5" width="107" height="78" style="stroke: inherit; filter: none; fill: inherit"/>
  </g>
  <use xlink:href="#bg_copy" style="stroke: #01a9da; filter: none; fill: none"/>
  <path id="Estimate_resources_duration_cost" data-name="Estimate resources, duration, cost" class="cls-8" d="M694.549,1040.91h-3.732V1038h3.5v-1.27h-3.5v-2.53h3.732v-1.28H689.3v9.28h5.249v-1.29Zm6.373-1.58a1.825,1.825,0,0,0-.584-0.65,6.262,6.262,0,0,0-1.263-.61,7.075,7.075,0,0,1-1.342-.63,0.675,0.675,0,0,1-.308-0.56c0-.45.393-0.67,1.18-0.67a5.076,5.076,0,0,1,1.911.47l0.482-1.13a5.665,5.665,0,0,0-2.342-.5,3.463,3.463,0,0,0-1.977.5,1.6,1.6,0,0,0-.727,1.4,1.734,1.734,0,0,0,.429,1.22,4.631,4.631,0,0,0,1.64.94,8.031,8.031,0,0,1,.972.43,1.849,1.849,0,0,1,.5.37,0.644,0.644,0,0,1,.152.44c0,0.56-.459.83-1.377,0.83a5.541,5.541,0,0,1-2.3-.57v1.29a5.111,5.111,0,0,0,2.253.43,3.633,3.633,0,0,0,2.146-.55A2.052,2.052,0,0,0,700.922,1039.33Zm3.71,1.53a1.038,1.038,0,0,1-.269-0.79v-3.76h2v-1.13h-2v-1.56h-0.921l-0.508,1.48-1.028.55v0.66h0.959v3.78a1.93,1.93,0,0,0,2.12,2.24,4.276,4.276,0,0,0,.809-0.08,3.23,3.23,0,0,0,.638-0.18v-1.12a3.766,3.766,0,0,1-1.092.17A0.992,0.992,0,0,1,704.632,1040.86Zm4.7-5.68h-1.492v7.02h1.492v-7.02Zm-1.362-1.26a0.871,0.871,0,0,0,.625.22,0.854,0.854,0,0,0,.613-0.22,0.823,0.823,0,0,0,.219-0.6,0.841,0.841,0,0,0-.219-0.62,0.849,0.849,0,0,0-.613-0.21,0.867,0.867,0,0,0-.625.21,0.841,0.841,0,0,0-.219.62A0.823,0.823,0,0,0,707.965,1033.92Zm9.41,4.56a2.831,2.831,0,0,1,.4-1.67,1.485,1.485,0,0,1,1.273-.54,1.122,1.122,0,0,1,.956.4,1.926,1.926,0,0,1,.307,1.2v4.33h1.492v-4.58a2.8,2.8,0,0,0-.574-1.93,2.337,2.337,0,0,0-1.832-.64,2.841,2.841,0,0,0-1.295.29,2.181,2.181,0,0,0-.876.82h-0.1a2.133,2.133,0,0,0-2.146-1.11,2.761,2.761,0,0,0-1.222.27,2.036,2.036,0,0,0-.847.78h-0.076l-0.21-.92h-1.168v7.02h1.492v-3.5a3.312,3.312,0,0,1,.4-1.87,1.463,1.463,0,0,1,1.267-.56,1.112,1.112,0,0,1,.952.4,1.941,1.941,0,0,1,.3,1.2v4.33h1.5v-3.72Zm11.972,3.72v-4.73a2.282,2.282,0,0,0-.682-1.83,3.034,3.034,0,0,0-2.022-.59,5.422,5.422,0,0,0-1.282.16,4.994,4.994,0,0,0-1.251.45l0.483,1.07a7.494,7.494,0,0,1,.952-0.38,3.555,3.555,0,0,1,1.035-.16,1.292,1.292,0,0,1,.974.34,1.416,1.416,0,0,1,.314,1v0.38l-1.212.04a4.6,4.6,0,0,0-2.457.6,1.855,1.855,0,0,0-.806,1.64,2.088,2.088,0,0,0,.581,1.58,2.244,2.244,0,0,0,1.615.56,3.136,3.136,0,0,0,1.321-.24,2.8,2.8,0,0,0,1.022-.87h0.05l0.3,0.98h1.066Zm-4.126-1.27a0.949,0.949,0,0,1-.279-0.73,1.069,1.069,0,0,1,.479-0.96,3.027,3.027,0,0,1,1.533-.35l0.9-.04v0.61a1.644,1.644,0,0,1-.492,1.27,1.856,1.856,0,0,1-1.3.45A1.207,1.207,0,0,1,725.221,1040.93Zm8.116-.07a1.035,1.035,0,0,1-.27-0.79v-3.76h2v-1.13h-2v-1.56h-0.921l-0.507,1.48-1.029.55v0.66h0.959v3.78a1.93,1.93,0,0,0,2.12,2.24,4.276,4.276,0,0,0,.809-0.08,3.23,3.23,0,0,0,.638-0.18v-1.12a3.766,3.766,0,0,1-1.092.17A0.988,0.988,0,0,1,733.337,1040.86Zm7.544,1.36a4.659,4.659,0,0,0,1.1-.37v-1.21a6.317,6.317,0,0,1-1.152.39,5.3,5.3,0,0,1-1.158.12,1.947,1.947,0,0,1-1.467-.55,2.312,2.312,0,0,1-.552-1.57h4.678v-0.81a3.2,3.2,0,0,0-.806-2.32,2.869,2.869,0,0,0-2.2-.85,2.95,2.95,0,0,0-2.355.99,3.953,3.953,0,0,0-.857,2.7,3.623,3.623,0,0,0,.924,2.63,3.385,3.385,0,0,0,2.561.96A6.934,6.934,0,0,0,740.881,1042.22Zm-0.432-5.59a1.951,1.951,0,0,1,.419,1.32h-3.186a2.152,2.152,0,0,1,.511-1.32,1.5,1.5,0,0,1,1.139-.45A1.429,1.429,0,0,1,740.449,1036.63Zm-53.987,14.39a2.829,2.829,0,0,0-.911,1h-0.076l-0.2-1.24h-1.167v7.02H685.6v-3.67a2.12,2.12,0,0,1,.556-1.52,1.9,1.9,0,0,1,1.45-.58,2.4,2.4,0,0,1,.66.08l0.146-1.39a3.079,3.079,0,0,0-.742-0.07A2.134,2.134,0,0,0,686.462,1051.02Zm7.6,6.8a4.651,4.651,0,0,0,1.105-.37v-1.21a6.368,6.368,0,0,1-1.152.39,5.307,5.307,0,0,1-1.159.12,1.947,1.947,0,0,1-1.466-.55,2.312,2.312,0,0,1-.552-1.57h4.678v-0.81a3.209,3.209,0,0,0-.806-2.32,2.872,2.872,0,0,0-2.2-.85,2.953,2.953,0,0,0-2.355.99,3.953,3.953,0,0,0-.856,2.7,3.623,3.623,0,0,0,.923,2.63,3.388,3.388,0,0,0,2.561.96A6.918,6.918,0,0,0,694.057,1057.82Zm-0.431-5.59a1.961,1.961,0,0,1,.419,1.32h-3.187a2.152,2.152,0,0,1,.511-1.32,1.5,1.5,0,0,1,1.139-.45A1.431,1.431,0,0,1,693.626,1052.23Zm8.106,2.7a1.835,1.835,0,0,0-.584-0.65,6.3,6.3,0,0,0-1.264-.61,7.107,7.107,0,0,1-1.342-.63,0.677,0.677,0,0,1-.308-0.56c0-.45.394-0.67,1.181-0.67a5.072,5.072,0,0,1,1.91.47l0.483-1.13a5.669,5.669,0,0,0-2.343-.5,3.467,3.467,0,0,0-1.977.5,1.6,1.6,0,0,0-.727,1.4,1.734,1.734,0,0,0,.429,1.22,4.489,4.489,0,0,0,1.641.94,8.077,8.077,0,0,1,.971.43,1.818,1.818,0,0,1,.5.37,0.644,0.644,0,0,1,.153.44c0,0.56-.459.83-1.378,0.83a5.541,5.541,0,0,1-2.3-.57v1.29a5.113,5.113,0,0,0,2.254.43,3.63,3.63,0,0,0,2.145-.55A2.055,2.055,0,0,0,701.732,1054.93Zm7.141-3.3a3.107,3.107,0,0,0-2.412-.98,3.174,3.174,0,0,0-2.47.96,3.815,3.815,0,0,0-.876,2.67,4.368,4.368,0,0,0,.407,1.93,2.905,2.905,0,0,0,1.161,1.27,3.336,3.336,0,0,0,1.74.45,3.175,3.175,0,0,0,2.456-.97A4.455,4.455,0,0,0,708.873,1051.63Zm-3.8.86a1.535,1.535,0,0,1,1.361-.62c1.194,0,1.79.8,1.79,2.41s-0.592,2.43-1.777,2.43-1.8-.81-1.8-2.43A3.183,3.183,0,0,1,705.074,1052.49Zm12.527,5.31v-7.02h-1.5v3.5a3.1,3.1,0,0,1-.441,1.88,1.662,1.662,0,0,1-1.381.56,1.255,1.255,0,0,1-1.035-.4,1.878,1.878,0,0,1-.33-1.21v-4.33h-1.5v4.59a2.616,2.616,0,0,0,.628,1.92,2.588,2.588,0,0,0,1.9.64,3.049,3.049,0,0,0,1.311-.28,2.2,2.2,0,0,0,.886-0.77h0.076l0.209,0.92H717.6Zm4.478-6.78a2.829,2.829,0,0,0-.911,1h-0.076l-0.2-1.24h-1.168v7.02h1.492v-3.67a2.123,2.123,0,0,1,.555-1.52,1.907,1.907,0,0,1,1.451-.58,2.407,2.407,0,0,1,.66.08l0.146-1.39a3.088,3.088,0,0,0-.743-0.07A2.134,2.134,0,0,0,722.079,1051.02Zm7.186,6.8a2.644,2.644,0,0,0,.853-0.33v-1.3a3.81,3.81,0,0,1-1.885.49,1.585,1.585,0,0,1-1.33-.59,2.922,2.922,0,0,1-.454-1.78c0-1.61.608-2.41,1.822-2.41a4.606,4.606,0,0,1,1.562.36l0.45-1.2a4.768,4.768,0,0,0-2-.41,3.228,3.228,0,0,0-2.5.95,3.934,3.934,0,0,0-.867,2.73,3.883,3.883,0,0,0,.829,2.67,3.072,3.072,0,0,0,2.421.93A4.94,4.94,0,0,0,729.265,1057.82Zm6.846,0a4.659,4.659,0,0,0,1.1-.37v-1.21a6.368,6.368,0,0,1-1.152.39,5.307,5.307,0,0,1-1.159.12,1.947,1.947,0,0,1-1.466-.55,2.312,2.312,0,0,1-.552-1.57h4.678v-0.81a3.209,3.209,0,0,0-.806-2.32,2.87,2.87,0,0,0-2.2-.85,2.95,2.95,0,0,0-2.355.99,3.948,3.948,0,0,0-.857,2.7,3.627,3.627,0,0,0,.923,2.63,3.389,3.389,0,0,0,2.562.96A6.934,6.934,0,0,0,736.111,1057.82Zm-0.432-5.59a1.956,1.956,0,0,1,.419,1.32h-3.187a2.158,2.158,0,0,1,.511-1.32,1.5,1.5,0,0,1,1.14-.45A1.429,1.429,0,0,1,735.679,1052.23Zm8.106,2.7a1.835,1.835,0,0,0-.584-0.65,6.318,6.318,0,0,0-1.263-.61,7.094,7.094,0,0,1-1.343-.63,0.677,0.677,0,0,1-.308-0.56c0-.45.394-0.67,1.181-0.67a5.081,5.081,0,0,1,1.911.47l0.482-1.13a5.665,5.665,0,0,0-2.342-.5,3.469,3.469,0,0,0-1.978.5,1.6,1.6,0,0,0-.726,1.4,1.733,1.733,0,0,0,.428,1.22,4.5,4.5,0,0,0,1.641.94,8.005,8.005,0,0,1,.971.43,1.841,1.841,0,0,1,.5.37,0.649,0.649,0,0,1,.152.44c0,0.56-.459.83-1.377,0.83a5.549,5.549,0,0,1-2.3-.57v1.29a5.113,5.113,0,0,0,2.254.43,3.627,3.627,0,0,0,2.145-.55A2.055,2.055,0,0,0,743.785,1054.93Zm3.256,1.36h-1.466a31.844,31.844,0,0,1-.654,3.19h1.1a21.2,21.2,0,0,0,1.117-3.05Zm-69.532,16.19h0.07l0.26,0.92h1.168v-9.88h-1.5v2.56a8.871,8.871,0,0,0,.108,1.19h-0.076a2.423,2.423,0,0,0-2.108-1.02,2.47,2.47,0,0,0-2.066.96,4.3,4.3,0,0,0-.746,2.69,4.256,4.256,0,0,0,.737,2.67,2.436,2.436,0,0,0,2.05.96,2.383,2.383,0,0,0,2.1-1.05h0Zm-2.939-.77a3.187,3.187,0,0,1-.413-1.78,3.252,3.252,0,0,1,.426-1.82,1.362,1.362,0,0,1,1.212-.64,1.608,1.608,0,0,1,1.352.56,3.13,3.13,0,0,1,.432,1.88v0.21a2.711,2.711,0,0,1-.432,1.68,1.609,1.609,0,0,1-1.339.52A1.388,1.388,0,0,1,674.57,1071.71Zm12.695,1.69v-7.02h-1.5v3.5a3.1,3.1,0,0,1-.441,1.88,1.659,1.659,0,0,1-1.381.56,1.254,1.254,0,0,1-1.034-.4,1.878,1.878,0,0,1-.33-1.21v-4.33h-1.5v4.59a2.616,2.616,0,0,0,.629,1.92,2.586,2.586,0,0,0,1.9.64,3.049,3.049,0,0,0,1.311-.28,2.186,2.186,0,0,0,.885-0.77h0.077l0.209,0.92h1.174Zm4.479-6.78a2.811,2.811,0,0,0-.911,1h-0.076l-0.2-1.24h-1.168v7.02h1.491v-3.67a2.124,2.124,0,0,1,.556-1.52,1.9,1.9,0,0,1,1.45-.58,2.4,2.4,0,0,1,.66.08l0.146-1.39a3.079,3.079,0,0,0-.742-0.07A2.129,2.129,0,0,0,691.744,1066.62Zm8.712,6.78v-4.73a2.282,2.282,0,0,0-.683-1.83,3.033,3.033,0,0,0-2.021-.59,5.43,5.43,0,0,0-1.283.16,5,5,0,0,0-1.25.45l0.482,1.07a7.554,7.554,0,0,1,.952-0.38,3.56,3.56,0,0,1,1.035-.16,1.294,1.294,0,0,1,.975.34,1.416,1.416,0,0,1,.314,1v0.38l-1.213.04a4.6,4.6,0,0,0-2.456.6,1.853,1.853,0,0,0-.806,1.64,2.088,2.088,0,0,0,.58,1.58,2.248,2.248,0,0,0,1.616.56,3.134,3.134,0,0,0,1.32-.24,2.788,2.788,0,0,0,1.022-.87h0.051l0.3,0.98h1.067Zm-4.126-1.27a0.946,0.946,0,0,1-.28-0.73,1.069,1.069,0,0,1,.48-0.96,3.022,3.022,0,0,1,1.533-.35l0.9-.04v0.61a1.644,1.644,0,0,1-.492,1.27,1.857,1.857,0,0,1-1.3.45A1.2,1.2,0,0,1,696.33,1072.13Zm8.115-.07a1.035,1.035,0,0,1-.27-0.79v-3.76h2v-1.13h-2v-1.56h-0.92l-0.508,1.48-1.028.55v0.66h0.958v3.78a1.93,1.93,0,0,0,2.121,2.24,4.276,4.276,0,0,0,.809-0.08,3.23,3.23,0,0,0,.638-0.18v-1.12a3.766,3.766,0,0,1-1.092.17A0.992,0.992,0,0,1,704.445,1072.06Zm4.694-5.68h-1.491v7.02h1.491v-7.02Zm-1.361-1.26a0.871,0.871,0,0,0,.625.22,0.855,0.855,0,0,0,.613-0.22,0.823,0.823,0,0,0,.219-0.6,0.841,0.841,0,0,0-.219-0.62,0.851,0.851,0,0,0-.613-0.21,0.867,0.867,0,0,0-.625.21,0.841,0.841,0,0,0-.219.62A0.823,0.823,0,0,0,707.778,1065.12Zm8.833,2.11a3.107,3.107,0,0,0-2.413-.98,3.173,3.173,0,0,0-2.469.96,3.815,3.815,0,0,0-.876,2.67,4.382,4.382,0,0,0,.406,1.93,2.908,2.908,0,0,0,1.162,1.27,3.333,3.333,0,0,0,1.739.45,3.176,3.176,0,0,0,2.457-.97A4.455,4.455,0,0,0,716.611,1067.23Zm-3.8.86a1.538,1.538,0,0,1,1.362-.62c1.193,0,1.79.8,1.79,2.41s-0.592,2.43-1.777,2.43-1.8-.81-1.8-2.43A3.191,3.191,0,0,1,712.811,1068.09Zm12.578,0.73a2.254,2.254,0,0,0-2.526-2.57,3.048,3.048,0,0,0-1.3.27,2.169,2.169,0,0,0-.9.78H720.59l-0.209-.92h-1.168v7.02h1.492v-3.5a3.082,3.082,0,0,1,.438-1.87,1.658,1.658,0,0,1,1.384-.56,1.253,1.253,0,0,1,1.037.4,1.891,1.891,0,0,1,.327,1.21v4.32h1.5v-4.58Zm3.53,3.07h-1.467a32.107,32.107,0,0,1-.653,3.19h1.1a21.32,21.32,0,0,0,1.117-3.05Zm9.327,1.53a2.89,2.89,0,0,0,.854-0.33v-1.3a3.81,3.81,0,0,1-1.885.49,1.585,1.585,0,0,1-1.33-.59,2.922,2.922,0,0,1-.454-1.78c0-1.61.608-2.41,1.822-2.41a4.606,4.606,0,0,1,1.562.36l0.45-1.2a4.768,4.768,0,0,0-2-.41,3.228,3.228,0,0,0-2.5.95,3.934,3.934,0,0,0-.867,2.73,3.883,3.883,0,0,0,.829,2.67,3.072,3.072,0,0,0,2.421.93A4.924,4.924,0,0,0,738.246,1073.42Zm7.843-6.19a3.1,3.1,0,0,0-2.412-.98,3.173,3.173,0,0,0-2.469.96,3.815,3.815,0,0,0-.876,2.67,4.368,4.368,0,0,0,.406,1.93,2.908,2.908,0,0,0,1.162,1.27,3.33,3.33,0,0,0,1.739.45,3.175,3.175,0,0,0,2.456-.97A4.451,4.451,0,0,0,746.089,1067.23Zm-3.8.86a1.535,1.535,0,0,1,1.362-.62c1.193,0,1.79.8,1.79,2.41s-0.593,2.43-1.778,2.43-1.8-.81-1.8-2.43A3.183,3.183,0,0,1,742.29,1068.09Zm10.927,2.44a1.825,1.825,0,0,0-.584-0.65,6.262,6.262,0,0,0-1.263-.61,7.075,7.075,0,0,1-1.342-.63,0.675,0.675,0,0,1-.308-0.56c0-.45.393-0.67,1.181-0.67a5.072,5.072,0,0,1,1.91.47l0.483-1.13a5.669,5.669,0,0,0-2.343-.5,3.467,3.467,0,0,0-1.977.5,1.6,1.6,0,0,0-.727,1.4,1.734,1.734,0,0,0,.429,1.22,4.628,4.628,0,0,0,1.641.94,8.077,8.077,0,0,1,.971.43,1.833,1.833,0,0,1,.5.37,0.644,0.644,0,0,1,.153.44c0,0.56-.46.83-1.378,0.83a5.541,5.541,0,0,1-2.3-.57v1.29a5.111,5.111,0,0,0,2.253.43,3.633,3.633,0,0,0,2.146-.55A2.052,2.052,0,0,0,753.217,1070.53Zm3.711,1.53a1.035,1.035,0,0,1-.27-0.79v-3.76h2v-1.13h-2v-1.56h-0.921l-0.507,1.48-1.029.55v0.66h0.959v3.78a1.93,1.93,0,0,0,2.12,2.24,4.276,4.276,0,0,0,.809-0.08,3.21,3.21,0,0,0,.638-0.18v-1.12a3.766,3.766,0,0,1-1.092.17A0.988,0.988,0,0,1,756.928,1072.06Z" transform="translate(-528 -1006.5)"/>
  <path id="Shape_127_copy" data-name="Shape 127 copy" class="cls-8" d="M770,1055v-1h24v1H770Zm24.329-1.38-0.658.76-8-7,0.658-.76Z" transform="translate(-528 -1006.5)"/>
  <path id="Shape_128_copy" data-name="Shape 128 copy" class="cls-8" d="M792.671,1053.62l0.658,0.76-8,7-0.658-.76Z" transform="translate(-528 -1006.5)"/>
  <path class="cls-8" d="M638,1055v-1h24v1H638Zm24.329-1.38-0.658.76-8-7,0.658-.76Z" transform="translate(-528 -1006.5)"/>
  <path class="cls-8" d="M660.671,1053.62l0.658,0.76-8,7-0.658-.76Z" transform="translate(-528 -1006.5)"/>
  <rect id="bg" class="cls-9" x="2" y="9.5" width="107" height="78"/>
  <path id="Develop_Work_Breakdown_Structure_WBS_" data-name="Develop Work Breakdown Structure (WBS)" class="cls-2" d="M548.945,1026.92a4.547,4.547,0,0,0-3.364-1.2h-2.844V1035h2.571a4.937,4.937,0,0,0,3.589-1.22,4.678,4.678,0,0,0,1.248-3.51A4.534,4.534,0,0,0,548.945,1026.92Zm-0.914,6.2a4.006,4.006,0,0,1-2.9.95h-1.314v-7.42h1.568a3.663,3.663,0,0,1,2.707.92A4.564,4.564,0,0,1,548.031,1033.12Zm8.166,1.9a5.6,5.6,0,0,0,1.057-.34v-0.94a5.66,5.66,0,0,1-2.222.47,2.154,2.154,0,0,1-1.653-.64,2.742,2.742,0,0,1-.619-1.86h4.792v-0.66a3.29,3.29,0,0,0-.761-2.27,2.6,2.6,0,0,0-2.07-.86,2.75,2.75,0,0,0-2.224.99,4.025,4.025,0,0,0-.829,2.67,3.649,3.649,0,0,0,.892,2.61,3.22,3.22,0,0,0,2.434.94A5.889,5.889,0,0,0,556.2,1035.02Zm-0.219-5.69a2.3,2.3,0,0,1,.445,1.52h-3.638a2.538,2.538,0,0,1,.588-1.51,1.729,1.729,0,0,1,1.336-.54A1.573,1.573,0,0,1,555.978,1029.33ZM562.1,1035l2.64-6.96h-1.129q-1.3,3.555-1.667,4.61a14.359,14.359,0,0,0-.441,1.4h-0.051a18.894,18.894,0,0,0-.6-1.88l-1.5-4.13h-1.13l2.64,6.96H562.1Zm7.9,0.02a5.577,5.577,0,0,0,1.057-.34v-0.94a5.656,5.656,0,0,1-2.221.47,2.155,2.155,0,0,1-1.654-.64,2.747,2.747,0,0,1-.619-1.86h4.793v-0.66a3.291,3.291,0,0,0-.762-2.27,2.6,2.6,0,0,0-2.069-.86,2.752,2.752,0,0,0-2.225.99,4.025,4.025,0,0,0-.829,2.67,3.653,3.653,0,0,0,.892,2.61,3.221,3.221,0,0,0,2.435.94A5.885,5.885,0,0,0,570,1035.02Zm-0.219-5.69a2.3,2.3,0,0,1,.445,1.52h-3.637a2.532,2.532,0,0,1,.587-1.51,1.729,1.729,0,0,1,1.336-.54A1.573,1.573,0,0,1,569.784,1029.33Zm4.425-4.21h-1.054V1035h1.054v-9.88Zm7.379,3.77a2.935,2.935,0,0,0-2.32-.97,3.014,3.014,0,0,0-2.362.94,3.861,3.861,0,0,0-.85,2.66,4.342,4.342,0,0,0,.393,1.91,2.868,2.868,0,0,0,1.118,1.26,3.152,3.152,0,0,0,1.656.44,3.011,3.011,0,0,0,2.368-.96A4.488,4.488,0,0,0,581.588,1028.89Zm-3.913.6a1.861,1.861,0,0,1,1.561-.68,1.884,1.884,0,0,1,1.584.69,4.093,4.093,0,0,1,0,4.05,2.13,2.13,0,0,1-3.139,0,3.321,3.321,0,0,1-.533-2.03A3.269,3.269,0,0,1,577.675,1029.49Zm11.981,4.69a4.131,4.131,0,0,0,.765-2.66,4.177,4.177,0,0,0-.753-2.66,2.568,2.568,0,0,0-2.136-.94,2.86,2.86,0,0,0-1.237.25,2.393,2.393,0,0,0-.946.83H585.3l-0.146-.96h-0.857v10.08h1.054v-2.86a9.659,9.659,0,0,0-.076-1.16h0.076a2.353,2.353,0,0,0,.943.78,3.126,3.126,0,0,0,1.24.25A2.585,2.585,0,0,0,589.656,1034.18Zm-0.838-4.67a3.3,3.3,0,0,1,.511,1.99,3.433,3.433,0,0,1-.511,2.01,1.624,1.624,0,0,1-1.412.73,1.86,1.86,0,0,1-1.568-.63,3.466,3.466,0,0,1-.489-2.09v-0.24a3.025,3.025,0,0,1,.489-1.88,1.876,1.876,0,0,1,1.542-.59A1.669,1.669,0,0,1,588.818,1029.51Zm17.561-3.79h-1.143l-1.46,5.72a18.531,18.531,0,0,0-.457,2.2,17.507,17.507,0,0,0-.514-2.23l-1.746-5.69h-1.142l-1.663,5.64a15.561,15.561,0,0,0-.508,2.28,21.284,21.284,0,0,0-.444-2.19l-1.467-5.73h-1.142l2.469,9.28h1.066l1.816-6.18a14.168,14.168,0,0,0,.444-1.83,5.839,5.839,0,0,0,.171.75q0.165,0.63.3,1.05l1.872,6.21H603.9Zm6.439,3.17a2.932,2.932,0,0,0-2.32-.97,3.011,3.011,0,0,0-2.361.94,3.862,3.862,0,0,0-.851,2.66,4.328,4.328,0,0,0,.394,1.91,2.866,2.866,0,0,0,1.117,1.26,3.158,3.158,0,0,0,1.657.44,3.013,3.013,0,0,0,2.368-.96A4.49,4.49,0,0,0,612.818,1028.89Zm-3.913.6a2.147,2.147,0,0,1,3.145.01,4.087,4.087,0,0,1,0,4.05,2.13,2.13,0,0,1-3.139,0,3.328,3.328,0,0,1-.533-2.03A3.276,3.276,0,0,1,608.905,1029.49Zm8.6-1.21a3.135,3.135,0,0,0-.933,1.05h-0.051l-0.121-1.29h-0.869V1035h1.053v-3.73a2.513,2.513,0,0,1,.6-1.71,1.849,1.849,0,0,1,1.444-.69,3.876,3.876,0,0,1,.762.1l0.146-.98a4.209,4.209,0,0,0-.832-0.07A2.134,2.134,0,0,0,617.5,1028.28Zm4.323,3.16q0.049-.735.05-1.08v-5.24h-1.041V1035h1.041v-2.6l0.794-.69,2.456,3.29H626.4l-3.015-3.99,2.818-2.97h-1.25l-2.247,2.38a12.091,12.091,0,0,0-.832,1.02h-0.05Zm-71.04,19.16h3.237a3.557,3.557,0,0,0,2.352-.7,2.372,2.372,0,0,0,.841-1.94,2.148,2.148,0,0,0-2.114-2.22v-0.07a2.172,2.172,0,0,0,1.343-.69,2.021,2.021,0,0,0,.46-1.36,1.955,1.955,0,0,0-.825-1.75,4.935,4.935,0,0,0-2.673-.55h-2.621v9.28Zm1.079-8.35h1.587a3.49,3.49,0,0,1,1.777.35,1.22,1.22,0,0,1,.559,1.13,1.365,1.365,0,0,1-.5,1.2,2.883,2.883,0,0,1-1.644.36h-1.777v-3.04Zm1.847,3.96a3.116,3.116,0,0,1,1.768.4,1.449,1.449,0,0,1,.581,1.27,1.6,1.6,0,0,1-.568,1.36,2.757,2.757,0,0,1-1.692.44h-1.936v-3.47h1.847Zm7.312-2.33a3.135,3.135,0,0,0-.933,1.05h-0.05l-0.121-1.29h-0.87v6.96H560.1v-3.73a2.513,2.513,0,0,1,.6-1.71,1.849,1.849,0,0,1,1.444-.69,3.876,3.876,0,0,1,.762.1l0.146-.98a4.216,4.216,0,0,0-.832-0.07A2.135,2.135,0,0,0,561.021,1043.88Zm7.475,6.74a5.622,5.622,0,0,0,1.057-.34v-0.94a5.66,5.66,0,0,1-2.222.47,2.157,2.157,0,0,1-1.654-.64,2.747,2.747,0,0,1-.618-1.86h4.792v-0.66a3.291,3.291,0,0,0-.762-2.27,2.6,2.6,0,0,0-2.069-.86,2.752,2.752,0,0,0-2.225.99,4.03,4.03,0,0,0-.828,2.67,3.649,3.649,0,0,0,.892,2.61,3.219,3.219,0,0,0,2.434.94A5.889,5.889,0,0,0,568.5,1050.62Zm-0.219-5.69a2.3,2.3,0,0,1,.444,1.52h-3.637a2.538,2.538,0,0,1,.587-1.51,1.73,1.73,0,0,1,1.336-.54A1.575,1.575,0,0,1,568.277,1044.93Zm8.43,5.67v-4.75a2.309,2.309,0,0,0-.6-1.77,2.642,2.642,0,0,0-1.844-.55,4.7,4.7,0,0,0-1.229.16,4.536,4.536,0,0,0-1.126.44l0.323,0.8a4.665,4.665,0,0,1,1.968-.53,1.451,1.451,0,0,1,1.127.39,1.758,1.758,0,0,1,.352,1.21v0.43l-1.18.04c-2.248.07-3.371,0.8-3.371,2.21a1.931,1.931,0,0,0,.587,1.51,2.3,2.3,0,0,0,1.622.54,3.244,3.244,0,0,0,1.292-.23,2.969,2.969,0,0,0,1.038-.89h0.05l0.21,0.99h0.781Zm-4.13-1.04a1.091,1.091,0,0,1-.346-0.87,1.181,1.181,0,0,1,.556-1.08,3.843,3.843,0,0,1,1.812-.39l1.054-.04v0.63a2,2,0,0,1-.562,1.51,2.138,2.138,0,0,1-1.546.54A1.433,1.433,0,0,1,572.577,1049.56Zm7.291-2.52q0.049-.735.05-1.08v-5.24h-1.041v9.88h1.041V1048l0.794-.69,2.456,3.29h1.276l-3.015-3.99,2.819-2.97H583l-2.247,2.38a12.3,12.3,0,0,0-.832,1.02h-0.05Zm10.708,3.56h0.857v-9.88h-1.054v2.83l0.026,0.49,0.044,0.5h-0.082a2.83,2.83,0,0,0-4.291-.07,4.153,4.153,0,0,0-.762,2.67,4.086,4.086,0,0,0,.759,2.65,2.564,2.564,0,0,0,2.123.94,2.489,2.489,0,0,0,2.183-1.06h0.058Zm-3.681-1.43a3.473,3.473,0,0,1-.489-2.02,3.579,3.579,0,0,1,.492-2.03,1.613,1.613,0,0,1,1.418-.72,1.87,1.87,0,0,1,1.571.63,3.478,3.478,0,0,1,.492,2.11v0.22a2.983,2.983,0,0,1-.485,1.9,1.922,1.922,0,0,1-1.565.58A1.654,1.654,0,0,1,586.9,1049.17Zm11.917-4.68a2.934,2.934,0,0,0-2.32-.97,3.011,3.011,0,0,0-2.361.94,3.862,3.862,0,0,0-.851,2.66,4.328,4.328,0,0,0,.394,1.91,2.866,2.866,0,0,0,1.117,1.26,3.156,3.156,0,0,0,1.657.44,3.009,3.009,0,0,0,2.367-.96A4.488,4.488,0,0,0,598.812,1044.49Zm-3.913.6a1.862,1.862,0,0,1,1.561-.68,1.882,1.882,0,0,1,1.584.69,4.087,4.087,0,0,1,0,4.05,2.13,2.13,0,0,1-3.139,0,3.328,3.328,0,0,1-.533-2.03A3.276,3.276,0,0,1,594.9,1045.09Zm13.552,5.51,1.924-6.96h-1.092q-1.213,4.65-1.324,5.13a6.46,6.46,0,0,0-.136.7h-0.051a13.523,13.523,0,0,0-.482-1.83l-1.245-4H604.9l-1.276,4c-0.076.22-.166,0.52-0.27,0.91s-0.179.69-.225,0.93h-0.051a16.321,16.321,0,0,0-.4-1.84c-0.235-.92-0.577-2.25-1.025-4h-1.105l1.9,6.96h1.219l1.314-4.07q0.19-.6.444-1.71h0.051c0.22,0.88.37,1.45,0.451,1.7l1.276,4.08h1.25Zm9,0v-4.54a2.59,2.59,0,0,0-.635-1.94,2.661,2.661,0,0,0-1.892-.6,2.923,2.923,0,0,0-1.3.28,2.126,2.126,0,0,0-.908.8h-0.05l-0.172-.96h-0.857v6.96h1.054v-3.65a2.967,2.967,0,0,1,.508-1.95,2.01,2.01,0,0,1,1.6-.59,1.575,1.575,0,0,1,1.213.42,1.814,1.814,0,0,1,.387,1.27v4.5h1.054Zm-55.666,11.58a5.124,5.124,0,0,0-2.009-1.12,7.114,7.114,0,0,1-1.292-.56,1.64,1.64,0,0,1-.6-0.57,1.561,1.561,0,0,1-.177-0.79,1.209,1.209,0,0,1,.482-1.02,2.134,2.134,0,0,1,1.339-.37,5.779,5.779,0,0,1,2.235.48l0.336-.94a6.427,6.427,0,0,0-2.545-.5,3.366,3.366,0,0,0-2.133.63,2.056,2.056,0,0,0-.806,1.71,2.449,2.449,0,0,0,.555,1.66,4.452,4.452,0,0,0,1.851,1.09,9.429,9.429,0,0,1,1.38.59,1.916,1.916,0,0,1,.648.57,1.477,1.477,0,0,1,.193.79,1.337,1.337,0,0,1-.546,1.14,2.709,2.709,0,0,1-1.625.41,6.777,6.777,0,0,1-1.333-.14,6.531,6.531,0,0,1-1.244-.38v1.04a5.934,5.934,0,0,0,2.539.43,3.834,3.834,0,0,0,2.412-.69,2.274,2.274,0,0,0,.889-1.91A2.212,2.212,0,0,0,561.78,1062.18Zm3.717,2.94a1.4,1.4,0,0,1-.3-0.96v-4.1h2.019v-0.82H565.2v-1.61h-0.609l-0.444,1.49-1,.43v0.51h1v4.14a1.835,1.835,0,0,0,2.018,2.13,3.416,3.416,0,0,0,.6-0.06,1.938,1.938,0,0,0,.5-0.13v-0.81a3.883,3.883,0,0,1-.413.09,4.678,4.678,0,0,1-.54.04A1.019,1.019,0,0,1,565.5,1065.12Zm5.135-5.64a3.135,3.135,0,0,0-.933,1.05h-0.051l-0.121-1.29h-0.869v6.96h1.053v-3.73a2.513,2.513,0,0,1,.6-1.71,1.851,1.851,0,0,1,1.444-.69,3.876,3.876,0,0,1,.762.1l0.146-.98a4.205,4.205,0,0,0-.831-0.07A2.135,2.135,0,0,0,570.632,1059.48Zm3.256-.24v4.55a2.557,2.557,0,0,0,.632,1.93,2.624,2.624,0,0,0,1.9.61,2.91,2.91,0,0,0,1.311-.28,2.091,2.091,0,0,0,.9-0.78h0.057l0.152,0.93h0.87v-6.96h-1.054v3.66a3.024,3.024,0,0,1-.5,1.95,1.97,1.97,0,0,1-1.6.59,1.61,1.61,0,0,1-1.212-.41,1.831,1.831,0,0,1-.387-1.27v-4.52h-1.067Zm12.594,6.73v-0.94a4.69,4.69,0,0,1-1.784.38,1.8,1.8,0,0,1-1.533-.69,3.222,3.222,0,0,1-.517-1.97q0-2.7,2.12-2.7a3.471,3.471,0,0,1,.73.09,5.172,5.172,0,0,1,.762.23l0.323-.89a3.514,3.514,0,0,0-.787-0.26,4.868,4.868,0,0,0-1-.1,3.011,3.011,0,0,0-2.4.95,3.929,3.929,0,0,0-.841,2.7,3.825,3.825,0,0,0,.829,2.63,2.967,2.967,0,0,0,2.339.93,3.82,3.82,0,0,0,1.758-.36h0Zm3.079-.85a1.4,1.4,0,0,1-.3-0.96v-4.1h2.019v-0.82h-2.019v-1.61h-0.609l-0.445,1.49-1,.43v0.51h1v4.14a1.835,1.835,0,0,0,2.019,2.13,3.416,3.416,0,0,0,.6-0.06,1.938,1.938,0,0,0,.5-0.13v-0.81a3.883,3.883,0,0,1-.413.09,4.678,4.678,0,0,1-.54.04A1.019,1.019,0,0,1,589.561,1065.12Zm3.085-5.88v4.55a2.556,2.556,0,0,0,.631,1.93,2.625,2.625,0,0,0,1.9.61,2.91,2.91,0,0,0,1.311-.28,2.091,2.091,0,0,0,.9-0.78h0.057l0.153,0.93h0.869v-6.96h-1.053v3.66a3.023,3.023,0,0,1-.5,1.95,1.968,1.968,0,0,1-1.6.59,1.611,1.611,0,0,1-1.213-.41,1.831,1.831,0,0,1-.387-1.27v-4.52h-1.066Zm10.029,0.24a3.135,3.135,0,0,0-.933,1.05h-0.051l-0.121-1.29H600.7v6.96h1.053v-3.73a2.513,2.513,0,0,1,.6-1.71,1.849,1.849,0,0,1,1.444-.69,3.876,3.876,0,0,1,.762.1l0.146-.98a4.205,4.205,0,0,0-.831-0.07A2.135,2.135,0,0,0,602.675,1059.48Zm7.474,6.74a5.6,5.6,0,0,0,1.057-.34v-0.94a5.66,5.66,0,0,1-2.222.47,2.153,2.153,0,0,1-1.653-.64,2.742,2.742,0,0,1-.619-1.86H611.5v-0.66a3.3,3.3,0,0,0-.761-2.27,2.6,2.6,0,0,0-2.07-.86,2.753,2.753,0,0,0-2.225.99,4.03,4.03,0,0,0-.828,2.67,3.649,3.649,0,0,0,.892,2.61,3.219,3.219,0,0,0,2.434.94A5.889,5.889,0,0,0,610.149,1066.22Zm-0.219-5.69a2.3,2.3,0,0,1,.445,1.52h-3.638a2.544,2.544,0,0,1,.587-1.51,1.732,1.732,0,0,1,1.337-.54A1.573,1.573,0,0,1,609.93,1060.53Zm-42.564,20.81a7.5,7.5,0,0,0,1.422,2.52H569.8a9.3,9.3,0,0,1-1.352-2.66,9.614,9.614,0,0,1-.469-2.97,10.012,10.012,0,0,1,.46-3.02,8.964,8.964,0,0,1,1.374-2.69h-1.028a7.834,7.834,0,0,0-1.419,2.57,9.862,9.862,0,0,0-.492,3.15A9.609,9.609,0,0,0,567.366,1081.34Zm14.7-8.82h-1.143l-1.46,5.72a18.734,18.734,0,0,0-.457,2.2,17.338,17.338,0,0,0-.514-2.23l-1.746-5.69H575.6l-1.663,5.64a15.561,15.561,0,0,0-.508,2.28,21.284,21.284,0,0,0-.444-2.19l-1.467-5.73h-1.142l2.469,9.28h1.066l1.816-6.18a14.168,14.168,0,0,0,.444-1.83,5.739,5.739,0,0,0,.172.75q0.165,0.63.3,1.05l1.872,6.21h1.067Zm1.453,9.28h3.238a3.557,3.557,0,0,0,2.352-.7,2.375,2.375,0,0,0,.841-1.94,2.148,2.148,0,0,0-2.114-2.22v-0.07a2.169,2.169,0,0,0,1.342-.69,2.017,2.017,0,0,0,.461-1.36,1.955,1.955,0,0,0-.826-1.75,4.931,4.931,0,0,0-2.672-.55h-2.622v9.28Zm1.08-8.35h1.586a3.494,3.494,0,0,1,1.778.35,1.219,1.219,0,0,1,.558,1.13,1.365,1.365,0,0,1-.5,1.2,2.883,2.883,0,0,1-1.644.36h-1.777v-3.04Zm1.847,3.96a3.113,3.113,0,0,1,1.767.4,1.446,1.446,0,0,1,.581,1.27,1.6,1.6,0,0,1-.568,1.36,2.754,2.754,0,0,1-1.691.44h-1.936v-3.47h1.847Zm10.184,0.37a5.116,5.116,0,0,0-2.009-1.12,7.1,7.1,0,0,1-1.291-.56,1.624,1.624,0,0,1-.6-0.57,1.551,1.551,0,0,1-.178-0.79,1.21,1.21,0,0,1,.483-1.02,2.132,2.132,0,0,1,1.339-.37,5.774,5.774,0,0,1,2.234.48l0.337-.94a6.432,6.432,0,0,0-2.546-.5,3.37,3.37,0,0,0-2.133.63,2.056,2.056,0,0,0-.806,1.71,2.444,2.444,0,0,0,.556,1.66,4.447,4.447,0,0,0,1.85,1.09,9.45,9.45,0,0,1,1.381.59,1.921,1.921,0,0,1,.647.57,1.477,1.477,0,0,1,.194.79,1.337,1.337,0,0,1-.546,1.14,2.711,2.711,0,0,1-1.625.41,6.769,6.769,0,0,1-1.333-.14,6.509,6.509,0,0,1-1.244-.38v1.04a5.927,5.927,0,0,0,2.539.43,3.838,3.838,0,0,0,2.412-.69,2.276,2.276,0,0,0,.889-1.91A2.213,2.213,0,0,0,596.625,1077.78Zm4.009-2.68a7.781,7.781,0,0,0-1.422-2.58h-1.028a8.964,8.964,0,0,1,1.374,2.69,10.012,10.012,0,0,1,.46,3.02,9.676,9.676,0,0,1-.469,2.98,9.241,9.241,0,0,1-1.352,2.65h1.015a7.448,7.448,0,0,0,1.419-2.51,9.573,9.573,0,0,0,.492-3.11A9.9,9.9,0,0,0,600.634,1075.1Z" transform="translate(-528 -1006.5)"/>
  <g id="Connecting_lines" data-name="Connecting lines">
    <path class="cls-8" d="M901,1055v-1h17v1H901Zm17,214h-1V1055h1m0,213v1H901v-1h17Zm0-64v1H901v-1h17Zm0-64v1H901v-1h17Z" transform="translate(-528 -1006.5)"/>
    <path id="Shape_127_copy_2" data-name="Shape 127 copy 2" class="cls-8" d="M918,1108v-1h17v1H918Zm17.329-1.38-0.658.76-8-7,0.658-.76Z" transform="translate(-528 -1006.5)"/>
    <path id="Shape_128_copy_2" data-name="Shape 128 copy 2" class="cls-8" d="M933.671,1106.62l0.658,0.76-8,7-0.658-.76Z" transform="translate(-528 -1006.5)"/>
    <path id="Shape_127_copy_3" data-name="Shape 127 copy 3" class="cls-8" d="M1042,1108v-1h17v1h-17Zm17.33-1.38-0.66.76-8-7,0.66-.76Z" transform="translate(-528 -1006.5)"/>
    <path id="Shape_128_copy_3" data-name="Shape 128 copy 3" class="cls-8" d="M1057.67,1106.62l0.66,0.76-8,7-0.66-.76Z" transform="translate(-528 -1006.5)"/>
  </g>
</svg>
