<svg id="Flow_Chart_-_WBS" data-name="Flow Chart - WBS" xmlns="http://www.w3.org/2000/svg" xmlns:xlink="http://www.w3.org/1999/xlink" width="538.84" height="296.5" viewBox="0 0 538.84 296.5">
  <defs>
    <style>
      .cls-1, .cls-3, .cls-4, .cls-5, .cls-6, .cls-7, .cls-9 {
        fill: #f2f2f2;
      }

      .cls-1 {
        filter: url(#filter);
      }

      .cls-2 {
        fill: #6b6b6b;
      }

      .cls-2, .cls-8 {
        fill-rule: evenodd;
      }

      .cls-3 {
        filter: url(#filter-2);
      }

      .cls-4 {
        filter: url(#filter-3);
      }

      .cls-5 {
        filter: url(#filter-4);
      }

      .cls-6 {
        filter: url(#filter-5);
      }

      .cls-7 {
        filter: url(#filter-6);
      }

      .cls-8 {
        fill: #01a9da;
      }

      .cls-9 {
        stroke: #01a9da;
        stroke-linejoin: round;
        stroke-opacity: 0.42;
        stroke-width: 1px;
        filter: url(#filter-7);
      }
    </style>
    <filter id="filter" x="271.5" y="230.5" width="114" height="66" filterUnits="userSpaceOnUse">
      <feOffset result="offset" dx="0.5" dy="0.866" in="SourceAlpha"/>
      <feGaussianBlur result="blur" stdDeviation="2"/>
      <feFlood result="flood" flood-opacity="0.26"/>
      <feComposite result="composite" operator="in" in2="blur"/>
      <feBlend result="blend" in="SourceGraphic"/>
    </filter>
    <filter id="filter-2" x="271.5" y="166.5" width="114" height="66" filterUnits="userSpaceOnUse">
      <feOffset result="offset" dx="0.5" dy="0.866" in="SourceAlpha"/>
      <feGaussianBlur result="blur" stdDeviation="2"/>
      <feFlood result="flood" flood-opacity="0.26"/>
      <feComposite result="composite" operator="in" in2="blur"/>
      <feBlend result="blend" in="SourceGraphic"/>
    </filter>
    <filter id="filter-3" x="271.5" y="102.5" width="114" height="66" filterUnits="userSpaceOnUse">
      <feOffset result="offset" dx="0.5" dy="0.866" in="SourceAlpha"/>
      <feGaussianBlur result="blur" stdDeviation="2"/>
      <feFlood result="flood" flood-opacity="0.26"/>
      <feComposite result="composite" operator="in" in2="blur"/>
      <feBlend result="blend" in="SourceGraphic"/>
    </filter>
    <filter id="filter-4" x="412.5" y="69.5" width="114" height="66" filterUnits="userSpaceOnUse">
      <feOffset result="offset" dx="0.5" dy="0.866" in="SourceAlpha"/>
      <feGaussianBlur result="blur" stdDeviation="2"/>
      <feFlood result="flood" flood-opacity="0.26"/>
      <feComposite result="composite" operator="in" in2="blur"/>
      <feBlend result="blend" in="SourceGraphic"/>
    </filter>
    <filter id="filter-5" x="271.5" y="7.5" width="114" height="85" filterUnits="userSpaceOnUse">
      <feOffset result="offset" dx="0.5" dy="0.866" in="SourceAlpha"/>
      <feGaussianBlur result="blur" stdDeviation="2"/>
      <feFlood result="flood" flood-opacity="0.26"/>
      <feComposite result="composite" operator="in" in2="blur"/>
      <feBlend result="blend" in="SourceGraphic"/>
    </filter>
    <filter id="filter-6" x="139.5" y="7.5" width="114" height="85" filterUnits="userSpaceOnUse">
      <feOffset result="offset" dx="0.5" dy="0.866" in="SourceAlpha"/>
      <feGaussianBlur result="blur" stdDeviation="2"/>
      <feFlood result="flood" flood-opacity="0.26"/>
      <feComposite result="composite" operator="in" in2="blur"/>
      <feBlend result="blend" in="SourceGraphic"/>
    </filter>
    <filter id="filter-7" x="0.5" y="0.5" width="126" height="97" filterUnits="userSpaceOnUse">
      <feOffset result="offset" dx="0.5" dy="0.866" in="SourceAlpha"/>
      <feGaussianBlur result="blur" stdDeviation="2"/>
      <feFlood result="flood" flood-opacity="0.13"/>
      <feComposite result="composite" operator="in" in2="blur"/>
      <feGaussianBlur result="blur-2" stdDeviation="3.333" in="SourceAlpha"/>
      <feComposite result="composite-2"/>
      <feComposite result="composite-3"/>
      <feComposite result="composite-4"/>
      <feFlood result="flood-2" flood-color="#01a9da" flood-opacity="0.09"/>
      <feComposite result="composite-5" operator="in" in2="composite-4"/>
      <feBlend result="blend" in2="composite"/>
      <feBlend result="blend-2" in="SourceGraphic"/>
    </filter>
  </defs>
  <rect id="bg_copy_5" data-name="bg copy 5" class="cls-1" x="273.5" y="232.5" width="107" height="59"/>
  <path id="Develop_quality_plan" data-name="Develop quality plan" class="cls-2" d="M815.161,812.119a4.547,4.547,0,0,0-3.364-1.2h-2.844v9.28h2.571a4.935,4.935,0,0,0,3.589-1.215,4.684,4.684,0,0,0,1.248-3.514A4.53,4.53,0,0,0,815.161,812.119Zm-0.914,6.2a3.992,3.992,0,0,1-2.9.949h-1.314v-7.414H811.6a3.647,3.647,0,0,1,2.707.921A4.555,4.555,0,0,1,814.247,818.317Zm8.166,1.9a5.572,5.572,0,0,0,1.057-.346v-0.94a5.608,5.608,0,0,1-2.222.47,2.141,2.141,0,0,1-1.653-.635,2.754,2.754,0,0,1-.619-1.86h4.792v-0.666a3.293,3.293,0,0,0-.761-2.269,2.624,2.624,0,0,0-2.07-.861,2.751,2.751,0,0,0-2.224.991,4.029,4.029,0,0,0-.829,2.672,3.635,3.635,0,0,0,.892,2.609,3.2,3.2,0,0,0,2.434.939A6,6,0,0,0,822.413,820.222Zm-0.219-5.694a2.316,2.316,0,0,1,.445,1.526H819a2.515,2.515,0,0,1,.588-1.51,1.719,1.719,0,0,1,1.336-.546A1.564,1.564,0,0,1,822.194,814.528Zm6.126,5.671,2.64-6.957h-1.13q-1.295,3.555-1.666,4.612a14.541,14.541,0,0,0-.441,1.393h-0.051a19.622,19.622,0,0,0-.6-1.879l-1.5-4.126h-1.13l2.64,6.957h1.232Zm7.9,0.023a5.549,5.549,0,0,0,1.057-.346v-0.94a5.6,5.6,0,0,1-2.221.47,2.142,2.142,0,0,1-1.654-.635,2.759,2.759,0,0,1-.619-1.86h4.793v-0.666a3.293,3.293,0,0,0-.762-2.269,2.623,2.623,0,0,0-2.069-.861,2.753,2.753,0,0,0-2.225.991,4.029,4.029,0,0,0-.829,2.672,3.639,3.639,0,0,0,.892,2.609,3.2,3.2,0,0,0,2.435.939A6,6,0,0,0,836.219,820.222ZM836,814.528a2.311,2.311,0,0,1,.445,1.526h-3.637a2.508,2.508,0,0,1,.587-1.51,1.719,1.719,0,0,1,1.336-.546A1.564,1.564,0,0,1,836,814.528Zm4.425-4.206h-1.054V820.2h1.054v-9.877Zm7.379,3.765a2.943,2.943,0,0,0-2.32-.972,3.012,3.012,0,0,0-2.362.949,3.835,3.835,0,0,0-.85,2.651,4.386,4.386,0,0,0,.393,1.917,2.9,2.9,0,0,0,1.118,1.256,3.132,3.132,0,0,0,1.656.438,3.018,3.018,0,0,0,2.368-.955A4.494,4.494,0,0,0,847.8,814.087Zm-3.913.6a1.853,1.853,0,0,1,1.561-.68,1.887,1.887,0,0,1,1.584.689,3.237,3.237,0,0,1,.536,2.016,3.289,3.289,0,0,1-.536,2.034,2.117,2.117,0,0,1-3.139,0,3.3,3.3,0,0,1-.533-2.031A3.263,3.263,0,0,1,843.891,814.69Zm11.981,4.687a5.034,5.034,0,0,0,.012-5.316,2.572,2.572,0,0,0-2.136-.946,2.875,2.875,0,0,0-1.237.254,2.454,2.454,0,0,0-.946.826h-0.051l-0.146-.953h-0.857v10.08h1.054V820.46a9.5,9.5,0,0,0-.076-1.156h0.076a2.337,2.337,0,0,0,.942.772,3.017,3.017,0,0,0,1.241.25A2.576,2.576,0,0,0,855.872,819.377Zm-0.838-4.671a3.333,3.333,0,0,1,.511,2,3.466,3.466,0,0,1-.511,2.012,1.631,1.631,0,0,1-1.413.73,1.854,1.854,0,0,1-1.567-.632,3.478,3.478,0,0,1-.489-2.1V816.48a3.03,3.03,0,0,1,.489-1.879,1.865,1.865,0,0,1,1.542-.591A1.681,1.681,0,0,1,855.034,814.706ZM814.38,834.355a3.462,3.462,0,0,1-.485-2,3.586,3.586,0,0,1,.492-2.035,1.612,1.612,0,0,1,1.418-.72,1.858,1.858,0,0,1,1.568.641,3.48,3.48,0,0,1,.5,2.1v0.235a3.054,3.054,0,0,1-.514,1.9,1.912,1.912,0,0,1-1.536.565A1.644,1.644,0,0,1,814.38,834.355Zm3.476,0.511h0.082a7.167,7.167,0,0,0-.07,1.079v2.977h1.054v-10.08H818.09l-0.152.953h-0.057a2.8,2.8,0,0,0-4.316-.121,4.181,4.181,0,0,0-.762,2.666,4.134,4.134,0,0,0,.755,2.641,2.54,2.54,0,0,0,2.1.945,2.489,2.489,0,0,0,2.2-1.06h0Zm3.224-6.024v4.552a2.566,2.566,0,0,0,.632,1.929,2.66,2.66,0,0,0,1.9.6,3.019,3.019,0,0,0,1.311-.273,2.093,2.093,0,0,0,.9-0.787h0.057l0.152,0.933h0.87v-6.957h-1.054V832.5a3.01,3.01,0,0,1-.5,1.948,1.979,1.979,0,0,1-1.6.6,1.578,1.578,0,0,1-1.212-.419,1.815,1.815,0,0,1-.387-1.269v-4.514H821.08Zm13.114,6.957v-4.748a2.307,2.307,0,0,0-.6-1.771,2.652,2.652,0,0,0-1.844-.552,4.877,4.877,0,0,0-1.229.159,4.957,4.957,0,0,0-1.126.438l0.323,0.806a4.6,4.6,0,0,1,1.968-.533,1.451,1.451,0,0,1,1.127.39,1.762,1.762,0,0,1,.352,1.209v0.432l-1.18.038q-3.372.1-3.371,2.209a1.945,1.945,0,0,0,.587,1.517,2.32,2.32,0,0,0,1.622.533,3.174,3.174,0,0,0,1.292-.231,2.94,2.94,0,0,0,1.037-.886H833.2l0.21,0.99h0.78Zm-4.129-1.041a1.085,1.085,0,0,1-.346-0.869,1.176,1.176,0,0,1,.556-1.076,3.829,3.829,0,0,1,1.812-.391l1.054-.044v0.628a1.993,1.993,0,0,1-.562,1.511,2.138,2.138,0,0,1-1.546.54A1.437,1.437,0,0,1,830.065,834.758Zm7.354-8.836h-1.054V835.8h1.054v-9.877Zm3.288,2.92h-1.054V835.8h1.054v-6.957Zm-0.965-1.355a0.644,0.644,0,0,0,.883,0,0.7,0.7,0,0,0,.184-0.53,0.691,0.691,0,0,0-.184-0.527,0.66,0.66,0,0,0-.883,0,0.7,0.7,0,0,0-.177.53A0.714,0.714,0,0,0,839.742,827.487Zm4.628,7.233a1.408,1.408,0,0,1-.3-0.965v-4.094h2.019v-0.819h-2.019V827.23h-0.609l-0.444,1.485-1,.438v0.508h1V833.8a1.833,1.833,0,0,0,2.018,2.126,3.784,3.784,0,0,0,.6-0.054,1.933,1.933,0,0,0,.5-0.136V834.93a3.545,3.545,0,0,1-.413.085,3.373,3.373,0,0,1-.539.042A1.037,1.037,0,0,1,844.37,834.72Zm4.862,1.118-0.387.99a1.61,1.61,0,0,1-1.549,1.219,3.659,3.659,0,0,1-.781-0.077v0.845a4.3,4.3,0,0,0,.952.107,2.212,2.212,0,0,0,1.457-.491,3.949,3.949,0,0,0,1.038-1.667l2.99-7.922h-1.13q-1.459,4.038-1.723,4.821t-0.346,1.108H849.7a15.2,15.2,0,0,0-.622-1.961l-1.524-3.968h-1.13Zm-23.467,14.739a5.037,5.037,0,0,0,.013-5.316,2.574,2.574,0,0,0-2.136-.946,2.876,2.876,0,0,0-1.238.254,2.454,2.454,0,0,0-.946.826h-0.051l-0.146-.953H820.4v10.08h1.054V851.66a9.307,9.307,0,0,0-.076-1.156h0.076a2.333,2.333,0,0,0,.943.772,3.011,3.011,0,0,0,1.241.25A2.575,2.575,0,0,0,825.765,850.577Zm-0.838-4.671a3.326,3.326,0,0,1,.511,2,3.459,3.459,0,0,1-.511,2.012,1.63,1.63,0,0,1-1.412.73,1.856,1.856,0,0,1-1.568-.632,3.478,3.478,0,0,1-.489-2.1V847.68a3.03,3.03,0,0,1,.489-1.879,1.865,1.865,0,0,1,1.542-.591A1.681,1.681,0,0,1,824.927,845.906Zm4.5-4.384h-1.053V851.4h1.053v-9.877Zm7.294,9.877v-4.748a2.307,2.307,0,0,0-.6-1.771,2.652,2.652,0,0,0-1.844-.552,4.864,4.864,0,0,0-1.228.159,4.965,4.965,0,0,0-1.127.438l0.324,0.806a4.582,4.582,0,0,1,1.967-.533,1.45,1.45,0,0,1,1.127.39,1.762,1.762,0,0,1,.352,1.209v0.432l-1.18.038q-3.371.1-3.371,2.209a1.945,1.945,0,0,0,.587,1.517,2.322,2.322,0,0,0,1.622.533,3.174,3.174,0,0,0,1.292-.231,2.933,2.933,0,0,0,1.038-.886h0.05l0.21,0.99h0.781Zm-4.129-1.041a1.082,1.082,0,0,1-.346-0.869,1.178,1.178,0,0,1,.555-1.076,3.829,3.829,0,0,1,1.812-.391l1.054-.044v0.628a1.993,1.993,0,0,1-.562,1.511,2.137,2.137,0,0,1-1.545.54A1.434,1.434,0,0,1,832.589,850.358ZM844.7,851.4v-4.538a2.579,2.579,0,0,0-.635-1.939,2.641,2.641,0,0,0-1.891-.607,2.957,2.957,0,0,0-1.3.283,2.15,2.15,0,0,0-.907.8h-0.051l-0.171-.953h-0.857V851.4h1.053V847.75a2.983,2.983,0,0,1,.508-1.949,2,2,0,0,1,1.6-.591,1.578,1.578,0,0,1,1.212.419,1.819,1.819,0,0,1,.387,1.27v4.5H844.7Z" transform="translate(-505.5 -568.5)"/>
  <rect id="bg_copy_4" data-name="bg copy 4" class="cls-3" x="273.5" y="168.5" width="107" height="59"/>
  <path id="Develop_communication_plan" data-name="Develop communication plan" class="cls-2" d="M815.161,749.119a4.547,4.547,0,0,0-3.364-1.2h-2.844v9.28h2.571a4.935,4.935,0,0,0,3.589-1.215,4.684,4.684,0,0,0,1.248-3.514A4.53,4.53,0,0,0,815.161,749.119Zm-0.914,6.2a3.992,3.992,0,0,1-2.9.949h-1.314v-7.414H811.6a3.647,3.647,0,0,1,2.707.921A4.555,4.555,0,0,1,814.247,755.317Zm8.166,1.9a5.572,5.572,0,0,0,1.057-.346v-0.94a5.608,5.608,0,0,1-2.222.47,2.141,2.141,0,0,1-1.653-.635,2.754,2.754,0,0,1-.619-1.86h4.792v-0.666a3.293,3.293,0,0,0-.761-2.269,2.624,2.624,0,0,0-2.07-.861,2.751,2.751,0,0,0-2.224.991,4.029,4.029,0,0,0-.829,2.672,3.635,3.635,0,0,0,.892,2.609,3.2,3.2,0,0,0,2.434.939A6,6,0,0,0,822.413,757.222Zm-0.219-5.694a2.316,2.316,0,0,1,.445,1.526H819a2.515,2.515,0,0,1,.588-1.51,1.719,1.719,0,0,1,1.336-.546A1.564,1.564,0,0,1,822.194,751.528Zm6.126,5.671,2.64-6.957h-1.13q-1.295,3.555-1.666,4.612a14.541,14.541,0,0,0-.441,1.393h-0.051a19.622,19.622,0,0,0-.6-1.879l-1.5-4.126h-1.13l2.64,6.957h1.232Zm7.9,0.023a5.549,5.549,0,0,0,1.057-.346v-0.94a5.6,5.6,0,0,1-2.221.47,2.142,2.142,0,0,1-1.654-.635,2.759,2.759,0,0,1-.619-1.86h4.793v-0.666a3.293,3.293,0,0,0-.762-2.269,2.623,2.623,0,0,0-2.069-.861,2.753,2.753,0,0,0-2.225.991,4.029,4.029,0,0,0-.829,2.672,3.639,3.639,0,0,0,.892,2.609,3.2,3.2,0,0,0,2.435.939A6,6,0,0,0,836.219,757.222ZM836,751.528a2.311,2.311,0,0,1,.445,1.526h-3.637a2.508,2.508,0,0,1,.587-1.51,1.719,1.719,0,0,1,1.336-.546A1.564,1.564,0,0,1,836,751.528Zm4.425-4.206h-1.054V757.2h1.054v-9.877Zm7.379,3.765a2.943,2.943,0,0,0-2.32-.972,3.012,3.012,0,0,0-2.362.949,3.835,3.835,0,0,0-.85,2.651,4.386,4.386,0,0,0,.393,1.917,2.9,2.9,0,0,0,1.118,1.256,3.132,3.132,0,0,0,1.656.438,3.018,3.018,0,0,0,2.368-.955A4.494,4.494,0,0,0,847.8,751.087Zm-3.913.6a1.853,1.853,0,0,1,1.561-.68,1.887,1.887,0,0,1,1.584.689,3.237,3.237,0,0,1,.536,2.016,3.289,3.289,0,0,1-.536,2.034,2.117,2.117,0,0,1-3.139,0,3.3,3.3,0,0,1-.533-2.031A3.263,3.263,0,0,1,843.891,751.69Zm11.981,4.687a5.034,5.034,0,0,0,.012-5.316,2.572,2.572,0,0,0-2.136-.946,2.875,2.875,0,0,0-1.237.254,2.454,2.454,0,0,0-.946.826h-0.051l-0.146-.953h-0.857v10.08h1.054V757.46a9.5,9.5,0,0,0-.076-1.156h0.076a2.337,2.337,0,0,0,.942.772,3.017,3.017,0,0,0,1.241.25A2.576,2.576,0,0,0,855.872,756.377Zm-0.838-4.671a3.333,3.333,0,0,1,.511,2,3.466,3.466,0,0,1-.511,2.012,1.631,1.631,0,0,1-1.413.73,1.854,1.854,0,0,1-1.567-.632,3.478,3.478,0,0,1-.489-2.1V753.48a3.03,3.03,0,0,1,.489-1.879,1.865,1.865,0,0,1,1.542-.591A1.681,1.681,0,0,1,855.034,751.706Zm-64.159,20.859v-0.934a4.681,4.681,0,0,1-1.784.375,1.8,1.8,0,0,1-1.533-.686,3.216,3.216,0,0,1-.517-1.967q0-2.7,2.12-2.7a3.357,3.357,0,0,1,.73.092,4.941,4.941,0,0,1,.762.231l0.323-.895a3.3,3.3,0,0,0-.787-0.254,4.745,4.745,0,0,0-1-.108,3.029,3.029,0,0,0-2.4.953,3.94,3.94,0,0,0-.841,2.7,3.819,3.819,0,0,0,.829,2.631,2.967,2.967,0,0,0,2.339.93,3.807,3.807,0,0,0,1.758-.361h0Zm6.795-5.878a2.942,2.942,0,0,0-2.32-.972,3.01,3.01,0,0,0-2.361.949,3.835,3.835,0,0,0-.851,2.651,4.372,4.372,0,0,0,.394,1.917,2.887,2.887,0,0,0,1.117,1.256,3.136,3.136,0,0,0,1.657.438,3.016,3.016,0,0,0,2.367-.955A4.494,4.494,0,0,0,797.67,766.687Zm-3.913.6a1.853,1.853,0,0,1,1.561-.68,1.885,1.885,0,0,1,1.584.689,3.23,3.23,0,0,1,.536,2.016,3.28,3.28,0,0,1-.536,2.034,2.117,2.117,0,0,1-3.139,0,3.307,3.307,0,0,1-.533-2.031A3.263,3.263,0,0,1,793.757,767.29ZM810.3,772.8v-4.538a2.713,2.713,0,0,0-.587-1.939,2.358,2.358,0,0,0-1.768-.607,2.794,2.794,0,0,0-1.346.318,2.214,2.214,0,0,0-.9.863h-0.051a2.067,2.067,0,0,0-2.133-1.181A2.569,2.569,0,0,0,802.3,766a2.075,2.075,0,0,0-.842.794h-0.05l-0.172-.953h-0.857V772.8h1.054V769.15a3.212,3.212,0,0,1,.46-1.946,1.721,1.721,0,0,1,1.451-.594,1.385,1.385,0,0,1,1.111.416,1.885,1.885,0,0,1,.355,1.248V772.8h1.054v-3.884a2.689,2.689,0,0,1,.469-1.74,1.787,1.787,0,0,1,1.454-.565,1.377,1.377,0,0,1,1.105.416,1.879,1.879,0,0,1,.355,1.248V772.8H810.3Zm12.092,0v-4.538a2.713,2.713,0,0,0-.587-1.939,2.358,2.358,0,0,0-1.768-.607,2.794,2.794,0,0,0-1.346.318,2.214,2.214,0,0,0-.9.863h-0.051a2.067,2.067,0,0,0-2.133-1.181,2.575,2.575,0,0,0-1.215.286,2.072,2.072,0,0,0-.841.794H813.5l-0.171-.953H812.47V772.8h1.053V769.15a3.211,3.211,0,0,1,.461-1.946,1.718,1.718,0,0,1,1.45-.594,1.384,1.384,0,0,1,1.111.416,1.879,1.879,0,0,1,.355,1.248V772.8h1.054v-3.884a2.688,2.688,0,0,1,.47-1.74,1.784,1.784,0,0,1,1.453-.565,1.376,1.376,0,0,1,1.105.416,1.879,1.879,0,0,1,.355,1.248V772.8h1.054Zm2.1-6.957v4.552a2.566,2.566,0,0,0,.631,1.929,2.66,2.66,0,0,0,1.9.6,3.019,3.019,0,0,0,1.311-.273,2.087,2.087,0,0,0,.9-0.787h0.058l0.152,0.933h0.87v-6.957h-1.054V769.5a3,3,0,0,1-.5,1.948,1.976,1.976,0,0,1-1.6.6,1.58,1.58,0,0,1-1.213-.419,1.815,1.815,0,0,1-.387-1.269v-4.514h-1.066Zm13.869,6.957v-4.538a2.579,2.579,0,0,0-.634-1.939,2.646,2.646,0,0,0-1.892-.607,2.952,2.952,0,0,0-1.3.283,2.147,2.147,0,0,0-.908.8h-0.051l-0.171-.953h-0.857V772.8H833.6V769.15a2.983,2.983,0,0,1,.507-1.949,2,2,0,0,1,1.6-.591,1.578,1.578,0,0,1,1.212.419,1.814,1.814,0,0,1,.388,1.27v4.5h1.053Zm3.219-6.957H840.52V772.8h1.054v-6.957Zm-0.965-1.355a0.6,0.6,0,0,0,.444.175,0.613,0.613,0,0,0,.438-0.175,0.7,0.7,0,0,0,.184-0.53,0.688,0.688,0,0,0-.184-0.527,0.658,0.658,0,0,0-.882,0,0.7,0.7,0,0,0-.178.53A0.71,0.71,0,0,0,840.609,764.487Zm7.738,8.078v-0.934a4.685,4.685,0,0,1-1.784.375,1.8,1.8,0,0,1-1.533-.686,3.216,3.216,0,0,1-.517-1.967q0-2.7,2.12-2.7a3.365,3.365,0,0,1,.73.092,4.894,4.894,0,0,1,.761.231l0.324-.895a3.318,3.318,0,0,0-.787-0.254,4.752,4.752,0,0,0-1-.108,3.028,3.028,0,0,0-2.4.953,3.94,3.94,0,0,0-.841,2.7,3.824,3.824,0,0,0,.828,2.631,2.969,2.969,0,0,0,2.339.93,3.808,3.808,0,0,0,1.759-.361h0Zm6.709,0.234v-4.748a2.307,2.307,0,0,0-.6-1.771,2.65,2.65,0,0,0-1.844-.552,4.87,4.87,0,0,0-1.228.159,4.983,4.983,0,0,0-1.127.438l0.324,0.806a4.6,4.6,0,0,1,1.968-.533,1.447,1.447,0,0,1,1.126.39,1.762,1.762,0,0,1,.353,1.209v0.432l-1.181.038q-3.37.1-3.371,2.209a1.942,1.942,0,0,0,.588,1.517,2.319,2.319,0,0,0,1.621.533,3.171,3.171,0,0,0,1.292-.231,2.933,2.933,0,0,0,1.038-.886h0.051l0.209,0.99h0.781Zm-4.129-1.041a1.082,1.082,0,0,1-.346-0.869,1.178,1.178,0,0,1,.555-1.076,3.837,3.837,0,0,1,1.813-.391l1.053-.044v0.628a2,2,0,0,1-.561,1.511,2.139,2.139,0,0,1-1.546.54A1.436,1.436,0,0,1,850.927,771.758Zm7.728-.038a1.408,1.408,0,0,1-.3-0.965v-4.094h2.018v-0.819h-2.018V764.23h-0.61l-0.444,1.485-1,.438v0.508h1V770.8a1.833,1.833,0,0,0,2.019,2.126,3.8,3.8,0,0,0,.6-0.054,1.924,1.924,0,0,0,.5-0.136V771.93a3.521,3.521,0,0,1-.412.085,3.4,3.4,0,0,1-.54.042A1.037,1.037,0,0,1,858.655,771.72Zm4.215-5.878h-1.054V772.8h1.054v-6.957Zm-0.965-1.355a0.644,0.644,0,0,0,.883,0,0.7,0.7,0,0,0,.184-0.53,0.691,0.691,0,0,0-.184-0.527,0.66,0.66,0,0,0-.883,0,0.7,0.7,0,0,0-.178.53A0.714,0.714,0,0,0,861.905,764.487Zm8.344,2.2a2.942,2.942,0,0,0-2.32-.972,3.01,3.01,0,0,0-2.361.949,3.835,3.835,0,0,0-.851,2.651,4.372,4.372,0,0,0,.394,1.917,2.893,2.893,0,0,0,1.117,1.256,3.136,3.136,0,0,0,1.657.438,3.016,3.016,0,0,0,2.367-.955A4.494,4.494,0,0,0,870.249,766.687Zm-3.913.6a1.854,1.854,0,0,1,1.561-.68,1.885,1.885,0,0,1,1.584.689,3.23,3.23,0,0,1,.536,2.016,3.28,3.28,0,0,1-.536,2.034,2.117,2.117,0,0,1-3.139,0,3.307,3.307,0,0,1-.533-2.031A3.269,3.269,0,0,1,866.336,767.29Zm12.435,5.509v-4.538a2.579,2.579,0,0,0-.635-1.939,2.643,2.643,0,0,0-1.891-.607,2.957,2.957,0,0,0-1.3.283,2.144,2.144,0,0,0-.907.8h-0.051l-0.172-.953h-0.857V772.8h1.054V769.15a2.977,2.977,0,0,1,.508-1.949,2,2,0,0,1,1.6-.591,1.578,1.578,0,0,1,1.212.419,1.819,1.819,0,0,1,.387,1.27v4.5h1.054Zm-53.006,14.778a5.037,5.037,0,0,0,.013-5.316,2.574,2.574,0,0,0-2.136-.946,2.876,2.876,0,0,0-1.238.254,2.454,2.454,0,0,0-.946.826h-0.051l-0.146-.953H820.4v10.08h1.054V788.66a9.307,9.307,0,0,0-.076-1.156h0.076a2.333,2.333,0,0,0,.943.772,3.011,3.011,0,0,0,1.241.25A2.575,2.575,0,0,0,825.765,787.577Zm-0.838-4.671a3.326,3.326,0,0,1,.511,2,3.459,3.459,0,0,1-.511,2.012,1.63,1.63,0,0,1-1.412.73,1.856,1.856,0,0,1-1.568-.632,3.478,3.478,0,0,1-.489-2.1V784.68a3.03,3.03,0,0,1,.489-1.879,1.865,1.865,0,0,1,1.542-.591A1.681,1.681,0,0,1,824.927,782.906Zm4.5-4.384h-1.053V788.4h1.053v-9.877Zm7.294,9.877v-4.748a2.307,2.307,0,0,0-.6-1.771,2.652,2.652,0,0,0-1.844-.552,4.864,4.864,0,0,0-1.228.159,4.965,4.965,0,0,0-1.127.438l0.324,0.806a4.582,4.582,0,0,1,1.967-.533,1.45,1.45,0,0,1,1.127.39,1.762,1.762,0,0,1,.352,1.209v0.432l-1.18.038q-3.371.1-3.371,2.209a1.945,1.945,0,0,0,.587,1.517,2.322,2.322,0,0,0,1.622.533,3.174,3.174,0,0,0,1.292-.231,2.933,2.933,0,0,0,1.038-.886h0.05l0.21,0.99h0.781Zm-4.129-1.041a1.082,1.082,0,0,1-.346-0.869,1.178,1.178,0,0,1,.555-1.076,3.829,3.829,0,0,1,1.812-.391l1.054-.044v0.628a1.993,1.993,0,0,1-.562,1.511,2.137,2.137,0,0,1-1.545.54A1.434,1.434,0,0,1,832.589,787.358ZM844.7,788.4v-4.538a2.579,2.579,0,0,0-.635-1.939,2.641,2.641,0,0,0-1.891-.607,2.957,2.957,0,0,0-1.3.283,2.15,2.15,0,0,0-.907.8h-0.051l-0.171-.953h-0.857V788.4h1.053V784.75a2.983,2.983,0,0,1,.508-1.949,2,2,0,0,1,1.6-.591,1.578,1.578,0,0,1,1.212.419,1.819,1.819,0,0,1,.387,1.27v4.5H844.7Z" transform="translate(-505.5 -568.5)"/>
  <rect id="bg_copy_3" data-name="bg copy 3" class="cls-4" x="273.5" y="104.5" width="107" height="59"/>
  <path id="Develop_risk_management_plan" data-name="Develop risk management plan" class="cls-2" d="M803.144,682.919a4.551,4.551,0,0,0-3.364-1.2h-2.844V691h2.571a4.931,4.931,0,0,0,3.589-1.216,4.682,4.682,0,0,0,1.248-3.513A4.531,4.531,0,0,0,803.144,682.919Zm-0.914,6.2a4,4,0,0,1-2.9.949h-1.314v-7.414h1.568a3.653,3.653,0,0,1,2.707.92A4.556,4.556,0,0,1,802.23,689.118Zm8.166,1.9a5.6,5.6,0,0,0,1.057-.346v-0.939a5.608,5.608,0,0,1-2.222.47,2.139,2.139,0,0,1-1.653-.635,2.754,2.754,0,0,1-.619-1.86h4.792v-0.667a3.3,3.3,0,0,0-.761-2.269,2.626,2.626,0,0,0-2.07-.86,2.753,2.753,0,0,0-2.225.99,4.035,4.035,0,0,0-.828,2.673,3.636,3.636,0,0,0,.892,2.609,3.2,3.2,0,0,0,2.434.939A5.923,5.923,0,0,0,810.4,691.022Zm-0.219-5.694a2.321,2.321,0,0,1,.444,1.527h-3.637a2.517,2.517,0,0,1,.587-1.511,1.721,1.721,0,0,1,1.336-.546A1.564,1.564,0,0,1,810.177,685.328ZM816.3,691l2.641-6.957h-1.13q-1.294,3.555-1.666,4.612a13.87,13.87,0,0,0-.441,1.393h-0.051a19.345,19.345,0,0,0-.6-1.879l-1.5-4.126h-1.13L815.071,691H816.3Zm7.9,0.022a5.572,5.572,0,0,0,1.057-.346v-0.939a5.608,5.608,0,0,1-2.222.47,2.139,2.139,0,0,1-1.653-.635,2.754,2.754,0,0,1-.619-1.86h4.792v-0.667a3.3,3.3,0,0,0-.761-2.269,2.626,2.626,0,0,0-2.07-.86,2.753,2.753,0,0,0-2.225.99,4.035,4.035,0,0,0-.828,2.673,3.636,3.636,0,0,0,.892,2.609,3.2,3.2,0,0,0,2.434.939A5.923,5.923,0,0,0,824.2,691.022Zm-0.219-5.694a2.321,2.321,0,0,1,.444,1.527H820.79a2.517,2.517,0,0,1,.587-1.511,1.723,1.723,0,0,1,1.337-.546A1.564,1.564,0,0,1,823.983,685.328Zm4.424-4.2h-1.053V691h1.053v-9.877Zm7.38,3.764a2.946,2.946,0,0,0-2.32-.971,3.007,3.007,0,0,0-2.362.949,3.832,3.832,0,0,0-.85,2.65,4.386,4.386,0,0,0,.393,1.917,2.9,2.9,0,0,0,1.117,1.257,3.138,3.138,0,0,0,1.657.438,3.018,3.018,0,0,0,2.368-.955A4.5,4.5,0,0,0,835.787,684.887Zm-3.914.6a1.854,1.854,0,0,1,1.562-.679,1.887,1.887,0,0,1,1.584.689,3.236,3.236,0,0,1,.536,2.015,3.292,3.292,0,0,1-.536,2.035,2.116,2.116,0,0,1-3.139,0A4.142,4.142,0,0,1,831.873,685.49Zm11.981,4.688a5.037,5.037,0,0,0,.013-5.316,2.569,2.569,0,0,0-2.136-.946,2.883,2.883,0,0,0-1.238.254,2.44,2.44,0,0,0-.945.825H839.5l-0.146-.952h-0.857v10.08h1.054V691.26a9.288,9.288,0,0,0-.077-1.155h0.077a2.334,2.334,0,0,0,.942.771,3.014,3.014,0,0,0,1.241.251A2.574,2.574,0,0,0,843.854,690.178Zm-0.837-4.672a3.335,3.335,0,0,1,.511,2,3.469,3.469,0,0,1-.511,2.013,1.633,1.633,0,0,1-1.413.73,1.86,1.86,0,0,1-1.568-.632,3.48,3.48,0,0,1-.488-2.1V687.28a3.039,3.039,0,0,1,.488-1.879,1.871,1.871,0,0,1,1.543-.59A1.682,1.682,0,0,1,843.017,685.506Zm8.794-1.222a3.062,3.062,0,0,0-.933,1.048h-0.051l-0.12-1.289h-0.87V691h1.054v-3.732a2.5,2.5,0,0,1,.6-1.708,1.853,1.853,0,0,1,1.444-.685,3.559,3.559,0,0,1,.762.1l0.146-.978a4.116,4.116,0,0,0-.832-0.076A2.1,2.1,0,0,0,851.811,684.284Zm4.387-.241h-1.054V691H856.2v-6.957Zm-0.965-1.355a0.608,0.608,0,0,0,.444.174,0.617,0.617,0,0,0,.438-0.174,0.7,0.7,0,0,0,.184-0.53,0.686,0.686,0,0,0-.184-0.527,0.656,0.656,0,0,0-.882,0,0.7,0.7,0,0,0-.178.53A0.712,0.712,0,0,0,855.233,682.688Zm7.252,5.265a4.561,4.561,0,0,0-1.673-.908,10.077,10.077,0,0,1-1.218-.514,1.413,1.413,0,0,1-.461-0.374,0.79,0.79,0,0,1-.143-0.476,0.728,0.728,0,0,1,.381-0.648,2.191,2.191,0,0,1,1.13-.235,5.037,5.037,0,0,1,1.9.432l0.375-.857a5.554,5.554,0,0,0-2.2-.457,3.226,3.226,0,0,0-1.9.492,1.56,1.56,0,0,0-.691,1.342,1.588,1.588,0,0,0,.2.819,1.879,1.879,0,0,0,.609.613,7.441,7.441,0,0,0,1.38.631,5.542,5.542,0,0,1,1.375.683,0.907,0.907,0,0,1-.092,1.5,2.513,2.513,0,0,1-1.27.263,4.453,4.453,0,0,1-1.107-.146,5.132,5.132,0,0,1-1.076-.4v0.978a4.414,4.414,0,0,0,2.158.438,3.4,3.4,0,0,0,2.031-.527,1.743,1.743,0,0,0,.724-1.5A1.6,1.6,0,0,0,862.485,687.953Zm3.139-.514c0.034-.487.051-0.846,0.051-1.079v-5.237h-1.041V691h1.041v-2.6l0.793-.685L868.925,691H870.2l-3.015-3.993L870,684.043h-1.251l-2.247,2.38a12.27,12.27,0,0,0-.831,1.016h-0.051ZM803.588,706.6v-4.539a2.714,2.714,0,0,0-.587-1.939,2.356,2.356,0,0,0-1.768-.606,2.807,2.807,0,0,0-1.346.317,2.222,2.222,0,0,0-.9.864h-0.051a2.067,2.067,0,0,0-2.133-1.181,2.563,2.563,0,0,0-1.215.286,2.07,2.07,0,0,0-.841.793H794.7l-0.171-.952h-0.857V706.6h1.053v-3.65a3.208,3.208,0,0,1,.461-1.945,1.718,1.718,0,0,1,1.45-.594,1.384,1.384,0,0,1,1.111.416,1.878,1.878,0,0,1,.355,1.247V706.6h1.054v-3.885a2.685,2.685,0,0,1,.47-1.739,1.78,1.78,0,0,1,1.453-.565,1.376,1.376,0,0,1,1.105.416,1.878,1.878,0,0,1,.355,1.247V706.6h1.054Zm7.23,0v-4.748a2.3,2.3,0,0,0-.6-1.771,2.65,2.65,0,0,0-1.844-.552,4.914,4.914,0,0,0-1.228.158,4.983,4.983,0,0,0-1.127.438l0.324,0.807a4.585,4.585,0,0,1,1.968-.534,1.448,1.448,0,0,1,1.127.391A1.767,1.767,0,0,1,809.79,702v0.432l-1.181.038q-3.371.1-3.37,2.209a1.943,1.943,0,0,0,.587,1.517,2.325,2.325,0,0,0,1.622.533,3.152,3.152,0,0,0,1.291-.232,2.919,2.919,0,0,0,1.038-.885h0.051l0.209,0.99h0.781Zm-4.129-1.041a1.085,1.085,0,0,1-.346-0.87,1.179,1.179,0,0,1,.555-1.076,3.851,3.851,0,0,1,1.813-.39l1.053-.044v0.628a2,2,0,0,1-.561,1.511,2.139,2.139,0,0,1-1.546.539A1.435,1.435,0,0,1,806.689,705.559ZM818.8,706.6v-4.539a2.581,2.581,0,0,0-.634-1.939,2.645,2.645,0,0,0-1.892-.606,2.952,2.952,0,0,0-1.3.282,2.153,2.153,0,0,0-.908.8h-0.051l-0.171-.952h-0.857V706.6h1.054v-3.65a2.98,2.98,0,0,1,.508-1.949,2,2,0,0,1,1.6-.59,1.581,1.581,0,0,1,1.213.419,1.816,1.816,0,0,1,.387,1.27v4.5H818.8Zm7.224,0v-4.748a2.3,2.3,0,0,0-.6-1.771,2.65,2.65,0,0,0-1.844-.552,4.914,4.914,0,0,0-1.228.158,4.983,4.983,0,0,0-1.127.438l0.324,0.807a4.585,4.585,0,0,1,1.968-.534,1.444,1.444,0,0,1,1.126.391A1.762,1.762,0,0,1,825,702v0.432l-1.181.038q-3.37.1-3.37,2.209a1.943,1.943,0,0,0,.587,1.517,2.324,2.324,0,0,0,1.621.533,3.153,3.153,0,0,0,1.292-.232,2.919,2.919,0,0,0,1.038-.885h0.051l0.209,0.99h0.781Zm-4.129-1.041a1.085,1.085,0,0,1-.346-0.87,1.179,1.179,0,0,1,.555-1.076,3.851,3.851,0,0,1,1.813-.39l1.053-.044v0.628a2,2,0,0,1-.561,1.511,2.139,2.139,0,0,1-1.546.539A1.435,1.435,0,0,1,821.9,705.559Zm9.588-5.916a3.519,3.519,0,0,0-.984-0.127,2.8,2.8,0,0,0-1.942.619,2.252,2.252,0,0,0-.686,1.761,2.215,2.215,0,0,0,.34,1.219,1.879,1.879,0,0,0,.879.756,2.111,2.111,0,0,0-.641.552,1.114,1.114,0,0,0-.2.666,0.991,0.991,0,0,0,.181.591,1.093,1.093,0,0,0,.447.374,2.064,2.064,0,0,0-1.142.629,1.608,1.608,0,0,0-.407,1.1,1.639,1.639,0,0,0,.74,1.434,3.689,3.689,0,0,0,2.1.508,4.961,4.961,0,0,0,2.7-.606,1.975,1.975,0,0,0,.927-1.762,1.652,1.652,0,0,0-.606-1.383,2.754,2.754,0,0,0-1.736-.476h-1.232a1.714,1.714,0,0,1-.806-0.137,0.454,0.454,0,0,1-.235-0.422,1.036,1.036,0,0,1,.673-0.895,3.182,3.182,0,0,0,.584.051,2.813,2.813,0,0,0,1.917-.61,2.054,2.054,0,0,0,.7-1.631,2.254,2.254,0,0,0-.457-1.39l1.289-.153v-0.666h-2.406Zm-2.742,7.141a1.665,1.665,0,0,1,1.117-.343h1.263a2.713,2.713,0,0,1,1.314.219,0.852,0.852,0,0,1,.349.784,1.213,1.213,0,0,1-.638,1.076,3.8,3.8,0,0,1-1.964.4,2.623,2.623,0,0,1-1.365-.292,0.945,0.945,0,0,1-.476-0.857A1.224,1.224,0,0,1,828.744,706.784Zm0.571-6.1a1.546,1.546,0,0,1,1.143-.4,1.383,1.383,0,0,1,1.561,1.568,1.344,1.344,0,0,1-1.542,1.5,1.646,1.646,0,0,1-1.149-.375,1.414,1.414,0,0,1-.413-1.1A1.613,1.613,0,0,1,829.315,700.684Zm10.147,5.938a5.6,5.6,0,0,0,1.057-.346v-0.939a5.608,5.608,0,0,1-2.222.47,2.139,2.139,0,0,1-1.653-.635,2.754,2.754,0,0,1-.619-1.86h4.792v-0.667a3.3,3.3,0,0,0-.762-2.269,2.623,2.623,0,0,0-2.069-.86,2.752,2.752,0,0,0-2.225.99,4.035,4.035,0,0,0-.828,2.673,3.636,3.636,0,0,0,.892,2.609,3.2,3.2,0,0,0,2.434.939A5.923,5.923,0,0,0,839.462,706.622Zm-0.219-5.694a2.321,2.321,0,0,1,.444,1.527H836.05a2.517,2.517,0,0,1,.587-1.511,1.721,1.721,0,0,1,1.336-.546A1.566,1.566,0,0,1,839.243,700.928Zm13.292,5.672v-4.539a2.714,2.714,0,0,0-.587-1.939,2.358,2.358,0,0,0-1.768-.606,2.8,2.8,0,0,0-1.346.317,2.222,2.222,0,0,0-.9.864h-0.051a2.067,2.067,0,0,0-2.133-1.181,2.563,2.563,0,0,0-1.215.286,2.064,2.064,0,0,0-.841.793h-0.051l-0.172-.952h-0.856V706.6h1.053v-3.65a3.215,3.215,0,0,1,.46-1.945,1.721,1.721,0,0,1,1.451-.594,1.385,1.385,0,0,1,1.111.416,1.878,1.878,0,0,1,.355,1.247V706.6H848.1v-3.885a2.68,2.68,0,0,1,.47-1.739,1.78,1.78,0,0,1,1.453-.565,1.376,1.376,0,0,1,1.105.416,1.878,1.878,0,0,1,.355,1.247V706.6h1.054Zm6.313,0.022a5.6,5.6,0,0,0,1.057-.346v-0.939a5.611,5.611,0,0,1-2.222.47,2.143,2.143,0,0,1-1.654-.635,2.764,2.764,0,0,1-.619-1.86H860.2v-0.667a3.3,3.3,0,0,0-.762-2.269,2.624,2.624,0,0,0-2.069-.86,2.752,2.752,0,0,0-2.225.99,4.035,4.035,0,0,0-.828,2.673,3.64,3.64,0,0,0,.891,2.609,3.2,3.2,0,0,0,2.435.939A5.93,5.93,0,0,0,858.848,706.622Zm-0.219-5.694a2.321,2.321,0,0,1,.444,1.527h-3.637a2.517,2.517,0,0,1,.587-1.511,1.721,1.721,0,0,1,1.336-.546A1.567,1.567,0,0,1,858.629,700.928Zm9.185,5.672v-4.539a2.581,2.581,0,0,0-.635-1.939,2.644,2.644,0,0,0-1.892-.606,2.952,2.952,0,0,0-1.3.282,2.159,2.159,0,0,0-.908.8h-0.05l-0.172-.952H862V706.6h1.054v-3.65a2.98,2.98,0,0,1,.508-1.949,2,2,0,0,1,1.6-.59,1.58,1.58,0,0,1,1.213.419,1.816,1.816,0,0,1,.387,1.27v4.5h1.054Zm3.592-1.079a1.413,1.413,0,0,1-.3-0.965v-4.094h2.019v-0.819h-2.019v-1.612H870.5l-0.445,1.485-1,.438v0.508h1V704.6a1.834,1.834,0,0,0,2.019,2.127,3.784,3.784,0,0,0,.6-0.054,1.924,1.924,0,0,0,.5-0.136V705.73a3.3,3.3,0,0,1-.412.086,3.387,3.387,0,0,1-.54.041A1.039,1.039,0,0,1,871.406,705.521Zm-45.16,15.857a5.037,5.037,0,0,0,.013-5.316,2.572,2.572,0,0,0-2.136-.946,2.879,2.879,0,0,0-1.238.254,2.443,2.443,0,0,0-.946.825h-0.051l-0.146-.952h-0.857v10.08h1.054V722.46a9.28,9.28,0,0,0-.076-1.155h0.076a2.33,2.33,0,0,0,.943.771,3.011,3.011,0,0,0,1.241.251A2.575,2.575,0,0,0,826.246,721.378Zm-0.838-4.672a3.328,3.328,0,0,1,.511,2,3.462,3.462,0,0,1-.511,2.013,1.63,1.63,0,0,1-1.412.73,1.859,1.859,0,0,1-1.568-.632,3.48,3.48,0,0,1-.489-2.1V718.48a3.045,3.045,0,0,1,.489-1.879,1.869,1.869,0,0,1,1.542-.59A1.681,1.681,0,0,1,825.408,716.706Zm4.5-4.383h-1.054V722.2h1.054v-9.877ZM837.2,722.2v-4.748a2.3,2.3,0,0,0-.6-1.771,2.652,2.652,0,0,0-1.844-.552,4.914,4.914,0,0,0-1.228.158,4.965,4.965,0,0,0-1.127.438l0.324,0.807a4.585,4.585,0,0,1,1.968-.534,1.445,1.445,0,0,1,1.126.391,1.762,1.762,0,0,1,.353,1.209v0.432l-1.181.038q-3.37.1-3.371,2.209a1.944,1.944,0,0,0,.588,1.517,2.324,2.324,0,0,0,1.621.533,3.153,3.153,0,0,0,1.292-.232,2.919,2.919,0,0,0,1.038-.885h0.051l0.209,0.99H837.2Zm-4.129-1.041a1.085,1.085,0,0,1-.346-0.87,1.179,1.179,0,0,1,.555-1.076,3.851,3.851,0,0,1,1.813-.39l1.053-.044v0.628a2,2,0,0,1-.562,1.511,2.135,2.135,0,0,1-1.545.539A1.434,1.434,0,0,1,833.07,721.159Zm12.114,1.041v-4.539a2.581,2.581,0,0,0-.634-1.939,2.645,2.645,0,0,0-1.892-.606,2.952,2.952,0,0,0-1.3.282,2.153,2.153,0,0,0-.908.8H840.4l-0.171-.952H839.37V722.2h1.054v-3.65a2.987,2.987,0,0,1,.507-1.949,2,2,0,0,1,1.6-.59,1.578,1.578,0,0,1,1.212.419,1.816,1.816,0,0,1,.388,1.27v4.5h1.053Z" transform="translate(-505.5 -568.5)"/>
  <rect id="bg_copy_6" data-name="bg copy 6" class="cls-5" x="414.5" y="71.5" width="107" height="59"/>
  <path id="Project_plan" data-name="Project plan" class="cls-2" d="M941.589,663.72h-2.406V673h1.079v-3.65h1.092a4.362,4.362,0,0,0,2.752-.758,2.6,2.6,0,0,0,.961-2.168q0-2.7-3.478-2.7h0Zm-1.327.933h1.206a3.146,3.146,0,0,1,1.879.451,1.6,1.6,0,0,1,.6,1.371,1.709,1.709,0,0,1-.641,1.485,3.608,3.608,0,0,1-2.076.463h-0.971v-3.77Zm8.563,1.631a3.062,3.062,0,0,0-.933,1.048h-0.051l-0.12-1.289h-0.87V673h1.054v-3.732a2.5,2.5,0,0,1,.6-1.708,1.853,1.853,0,0,1,1.444-.685,3.543,3.543,0,0,1,.761.1l0.146-.978a4.1,4.1,0,0,0-.831-0.076A2.1,2.1,0,0,0,948.825,666.284Zm8.477,0.6a2.943,2.943,0,0,0-2.32-.971,3.006,3.006,0,0,0-2.361.949,3.832,3.832,0,0,0-.85,2.65,4.386,4.386,0,0,0,.393,1.917,2.891,2.891,0,0,0,1.117,1.257,3.138,3.138,0,0,0,1.657.438,3.019,3.019,0,0,0,2.368-.955A4.494,4.494,0,0,0,957.3,666.887Zm-3.913.6a1.854,1.854,0,0,1,1.562-.679,1.883,1.883,0,0,1,1.583.689,3.229,3.229,0,0,1,.537,2.015,3.285,3.285,0,0,1-.537,2.035,2.114,2.114,0,0,1-3.138,0A4.142,4.142,0,0,1,953.389,667.49Zm7.674,6.576v-8.023H960.01v8.1a1.235,1.235,0,0,1-.232.822,0.91,0.91,0,0,1-.727.269,3.078,3.078,0,0,1-.863-0.127v0.857a2.535,2.535,0,0,0,.978.159q1.9,0,1.9-2.057h0Zm-0.964-9.378a0.608,0.608,0,0,0,.444.174,0.617,0.617,0,0,0,.438-0.174,0.7,0.7,0,0,0,.184-0.53,0.686,0.686,0,0,0-.184-0.527,0.656,0.656,0,0,0-.882,0,0.7,0.7,0,0,0-.178.53A0.712,0.712,0,0,0,960.1,664.688Zm7.341,8.334a5.6,5.6,0,0,0,1.057-.346v-0.939a5.611,5.611,0,0,1-2.222.47,2.143,2.143,0,0,1-1.654-.635,2.764,2.764,0,0,1-.619-1.86H968.8v-0.667a3.3,3.3,0,0,0-.762-2.269,2.624,2.624,0,0,0-2.069-.86,2.752,2.752,0,0,0-2.225.99,4.035,4.035,0,0,0-.828,2.673,3.64,3.64,0,0,0,.891,2.609,3.2,3.2,0,0,0,2.435.939A5.93,5.93,0,0,0,967.44,673.022Zm-0.219-5.694a2.321,2.321,0,0,1,.444,1.527h-3.637a2.517,2.517,0,0,1,.587-1.511,1.721,1.721,0,0,1,1.336-.546A1.567,1.567,0,0,1,967.221,667.328Zm7.909,5.437v-0.933a4.681,4.681,0,0,1-1.784.375,1.8,1.8,0,0,1-1.533-.686,3.219,3.219,0,0,1-.517-1.968q0-2.7,2.12-2.7a3.42,3.42,0,0,1,.73.092,5.052,5.052,0,0,1,.762.232l0.323-.895a3.3,3.3,0,0,0-.787-0.254,4.745,4.745,0,0,0-1-.108,3.028,3.028,0,0,0-2.4.952,3.943,3.943,0,0,0-.841,2.7,3.825,3.825,0,0,0,.828,2.631,2.971,2.971,0,0,0,2.34.93,3.806,3.806,0,0,0,1.758-.362h0Zm3.078-.844a1.413,1.413,0,0,1-.3-0.965v-4.094h2.019v-0.819H977.91v-1.612H977.3l-0.445,1.485-1,.438v0.508h1V671a1.834,1.834,0,0,0,2.019,2.127,3.784,3.784,0,0,0,.6-0.054,1.924,1.924,0,0,0,.5-0.136V672.13a3.3,3.3,0,0,1-.412.086,3.387,3.387,0,0,1-.54.041A1.039,1.039,0,0,1,978.208,671.921Zm11.9,0.257a5.037,5.037,0,0,0,.013-5.316,2.572,2.572,0,0,0-2.136-.946,2.879,2.879,0,0,0-1.238.254,2.443,2.443,0,0,0-.946.825h-0.05l-0.146-.952h-0.857v10.08H985.8V673.26a9.28,9.28,0,0,0-.076-1.155H985.8a2.33,2.33,0,0,0,.943.771,3.011,3.011,0,0,0,1.241.251A2.575,2.575,0,0,0,990.107,672.178Zm-0.838-4.672a3.328,3.328,0,0,1,.511,2,3.462,3.462,0,0,1-.511,2.013,1.63,1.63,0,0,1-1.412.73,1.859,1.859,0,0,1-1.568-.632,3.48,3.48,0,0,1-.489-2.1V669.28a3.045,3.045,0,0,1,.489-1.879,1.869,1.869,0,0,1,1.543-.59A1.68,1.68,0,0,1,989.269,667.506Zm4.5-4.383h-1.054V673h1.054v-9.877ZM1001.06,673v-4.748a2.3,2.3,0,0,0-.6-1.771,2.65,2.65,0,0,0-1.844-.552,4.914,4.914,0,0,0-1.228.158,4.983,4.983,0,0,0-1.127.438l0.324,0.807a4.585,4.585,0,0,1,1.968-.534,1.444,1.444,0,0,1,1.126.391,1.762,1.762,0,0,1,.351,1.209v0.432l-1.179.038q-3.37.1-3.371,2.209a1.944,1.944,0,0,0,.588,1.517,2.324,2.324,0,0,0,1.621.533,3.153,3.153,0,0,0,1.292-.232,2.929,2.929,0,0,0,1.039-.885h0.05l0.21,0.99h0.78Zm-4.129-1.041a1.085,1.085,0,0,1-.346-0.87,1.179,1.179,0,0,1,.555-1.076,3.851,3.851,0,0,1,1.813-.39l1.057-.044v0.628a2,2,0,0,1-.565,1.511,2.139,2.139,0,0,1-1.546.539A1.435,1.435,0,0,1,996.931,671.959ZM1009.05,673v-4.539a2.594,2.594,0,0,0-.64-1.939,2.63,2.63,0,0,0-1.89-.606,2.944,2.944,0,0,0-1.3.282,2.183,2.183,0,0,0-.91.8h-0.05l-0.17-.952h-0.86V673h1.05v-3.65a2.974,2.974,0,0,1,.51-1.949,2,2,0,0,1,1.6-.59,1.561,1.561,0,0,1,1.21.419,1.806,1.806,0,0,1,.39,1.27V673h1.06Z" transform="translate(-505.5 -568.5)"/>
  <rect id="bg_copy_2" data-name="bg copy 2" class="cls-6" x="273.5" y="9.5" width="107" height="78"/>
  <path id="Develop_Project_Schedule" data-name="Develop Project Schedule" class="cls-2" d="M815.161,596.119a4.547,4.547,0,0,0-3.364-1.2h-2.844v9.28h2.571a4.935,4.935,0,0,0,3.589-1.215,4.684,4.684,0,0,0,1.248-3.514A4.53,4.53,0,0,0,815.161,596.119Zm-0.914,6.2a3.992,3.992,0,0,1-2.9.949h-1.314v-7.414H811.6a3.647,3.647,0,0,1,2.707.921A4.555,4.555,0,0,1,814.247,602.317Zm8.166,1.9a5.572,5.572,0,0,0,1.057-.346v-0.94a5.608,5.608,0,0,1-2.222.47,2.141,2.141,0,0,1-1.653-.635,2.754,2.754,0,0,1-.619-1.86h4.792v-0.666a3.293,3.293,0,0,0-.761-2.269,2.624,2.624,0,0,0-2.07-.861,2.751,2.751,0,0,0-2.224.991,4.029,4.029,0,0,0-.829,2.672,3.635,3.635,0,0,0,.892,2.609,3.2,3.2,0,0,0,2.434.939A6,6,0,0,0,822.413,604.222Zm-0.219-5.694a2.316,2.316,0,0,1,.445,1.526H819a2.515,2.515,0,0,1,.588-1.51,1.719,1.719,0,0,1,1.336-.546A1.564,1.564,0,0,1,822.194,598.528Zm6.126,5.671,2.64-6.957h-1.13q-1.295,3.555-1.666,4.612a14.541,14.541,0,0,0-.441,1.393h-0.051a19.622,19.622,0,0,0-.6-1.879l-1.5-4.126h-1.13l2.64,6.957h1.232Zm7.9,0.023a5.549,5.549,0,0,0,1.057-.346v-0.94a5.6,5.6,0,0,1-2.221.47,2.142,2.142,0,0,1-1.654-.635,2.759,2.759,0,0,1-.619-1.86h4.793v-0.666a3.293,3.293,0,0,0-.762-2.269,2.623,2.623,0,0,0-2.069-.861,2.753,2.753,0,0,0-2.225.991,4.029,4.029,0,0,0-.829,2.672,3.639,3.639,0,0,0,.892,2.609,3.2,3.2,0,0,0,2.435.939A6,6,0,0,0,836.219,604.222ZM836,598.528a2.311,2.311,0,0,1,.445,1.526h-3.637a2.508,2.508,0,0,1,.587-1.51,1.719,1.719,0,0,1,1.336-.546A1.564,1.564,0,0,1,836,598.528Zm4.425-4.206h-1.054V604.2h1.054v-9.877Zm7.379,3.765a2.943,2.943,0,0,0-2.32-.972,3.012,3.012,0,0,0-2.362.949,3.835,3.835,0,0,0-.85,2.651,4.386,4.386,0,0,0,.393,1.917,2.9,2.9,0,0,0,1.118,1.256,3.132,3.132,0,0,0,1.656.438,3.018,3.018,0,0,0,2.368-.955A4.494,4.494,0,0,0,847.8,598.087Zm-3.913.6a1.853,1.853,0,0,1,1.561-.68,1.887,1.887,0,0,1,1.584.689,3.237,3.237,0,0,1,.536,2.016,3.289,3.289,0,0,1-.536,2.034,2.117,2.117,0,0,1-3.139,0,3.3,3.3,0,0,1-.533-2.031A3.263,3.263,0,0,1,843.891,598.69Zm11.981,4.687a5.034,5.034,0,0,0,.012-5.316,2.572,2.572,0,0,0-2.136-.946,2.875,2.875,0,0,0-1.237.254,2.454,2.454,0,0,0-.946.826h-0.051l-0.146-.953h-0.857v10.08h1.054V604.46a9.5,9.5,0,0,0-.076-1.156h0.076a2.337,2.337,0,0,0,.942.772,3.017,3.017,0,0,0,1.241.25A2.576,2.576,0,0,0,855.872,603.377Zm-0.838-4.671a3.333,3.333,0,0,1,.511,2,3.466,3.466,0,0,1-.511,2.012,1.631,1.631,0,0,1-1.413.73,1.854,1.854,0,0,1-1.567-.632,3.478,3.478,0,0,1-.489-2.1V600.48a3.03,3.03,0,0,1,.489-1.879,1.865,1.865,0,0,1,1.542-.591A1.681,1.681,0,0,1,855.034,598.706Zm-40.006,11.813h-2.406v9.28H813.7V616.15h1.092a4.358,4.358,0,0,0,2.752-.759,2.6,2.6,0,0,0,.961-2.168q0-2.7-3.478-2.7h0Zm-1.327.933h1.206a3.153,3.153,0,0,1,1.879.451,1.6,1.6,0,0,1,.6,1.371,1.707,1.707,0,0,1-.641,1.485,3.609,3.609,0,0,1-2.076.464H813.7v-3.771Zm8.563,1.632a3.049,3.049,0,0,0-.933,1.047H821.28l-0.12-1.289h-0.87V619.8h1.054v-3.732a2.5,2.5,0,0,1,.6-1.708,1.852,1.852,0,0,1,1.444-.685,3.607,3.607,0,0,1,.761.1l0.146-.977a4.1,4.1,0,0,0-.831-0.077A2.1,2.1,0,0,0,822.264,613.084Zm8.477,0.6a2.94,2.94,0,0,0-2.32-.972,3.01,3.01,0,0,0-2.361.949,3.835,3.835,0,0,0-.851,2.651,4.386,4.386,0,0,0,.394,1.917,2.893,2.893,0,0,0,1.117,1.256,3.138,3.138,0,0,0,1.657.438,3.019,3.019,0,0,0,2.368-.955A4.5,4.5,0,0,0,830.741,613.687Zm-3.913.6a1.855,1.855,0,0,1,1.562-.68,1.883,1.883,0,0,1,1.583.689,3.23,3.23,0,0,1,.537,2.016,3.28,3.28,0,0,1-.537,2.034,2.117,2.117,0,0,1-3.139,0,3.307,3.307,0,0,1-.533-2.031A3.269,3.269,0,0,1,826.828,614.29Zm7.674,6.576v-8.024h-1.053v8.1a1.241,1.241,0,0,1-.232.822,0.908,0.908,0,0,1-.727.27,3.115,3.115,0,0,1-.863-0.127v0.857a2.532,2.532,0,0,0,.977.158q1.9,0,1.9-2.056h0Zm-0.964-9.379a0.6,0.6,0,0,0,.444.175,0.613,0.613,0,0,0,.438-0.175,0.7,0.7,0,0,0,.184-0.53,0.688,0.688,0,0,0-.184-0.527,0.658,0.658,0,0,0-.882,0,0.7,0.7,0,0,0-.178.53A0.71,0.71,0,0,0,833.538,611.487Zm7.341,8.335a5.564,5.564,0,0,0,1.056-.346v-0.94a5.6,5.6,0,0,1-2.221.47,2.143,2.143,0,0,1-1.654-.635,2.759,2.759,0,0,1-.619-1.86h4.793v-0.666a3.293,3.293,0,0,0-.762-2.269,2.623,2.623,0,0,0-2.069-.861,2.753,2.753,0,0,0-2.225.991,4.034,4.034,0,0,0-.828,2.672,3.639,3.639,0,0,0,.891,2.609,3.2,3.2,0,0,0,2.435.939A6.017,6.017,0,0,0,840.879,619.822Zm-0.219-5.694a2.316,2.316,0,0,1,.444,1.526h-3.637a2.514,2.514,0,0,1,.587-1.51,1.719,1.719,0,0,1,1.336-.546A1.567,1.567,0,0,1,840.66,614.128Zm7.909,5.437v-0.934a4.685,4.685,0,0,1-1.784.375,1.8,1.8,0,0,1-1.533-.686,3.216,3.216,0,0,1-.517-1.967q0-2.7,2.12-2.7a3.365,3.365,0,0,1,.73.092,4.941,4.941,0,0,1,.762.231l0.323-.895a3.318,3.318,0,0,0-.787-0.254,4.745,4.745,0,0,0-1-.108,3.028,3.028,0,0,0-2.4.953,3.94,3.94,0,0,0-.841,2.7,3.824,3.824,0,0,0,.828,2.631,2.97,2.97,0,0,0,2.339.93,3.808,3.808,0,0,0,1.759-.361h0Zm3.078-.845a1.408,1.408,0,0,1-.3-0.965v-4.094h2.019v-0.819h-2.019V611.23H850.74l-0.445,1.485-1,.438v0.508h1V617.8a1.833,1.833,0,0,0,2.019,2.126,3.784,3.784,0,0,0,.6-0.054,1.924,1.924,0,0,0,.5-0.136V618.93a3.521,3.521,0,0,1-.412.085,3.4,3.4,0,0,1-.54.042A1.037,1.037,0,0,1,851.647,618.72Zm-40.726,12.661a5.126,5.126,0,0,0-2.009-1.117,7.438,7.438,0,0,1-1.292-.568,1.681,1.681,0,0,1-.6-0.565,1.571,1.571,0,0,1-.178-0.79,1.212,1.212,0,0,1,.483-1.022,2.157,2.157,0,0,1,1.339-.368,5.764,5.764,0,0,1,2.235.482l0.336-.939a6.276,6.276,0,0,0-2.545-.508,3.35,3.35,0,0,0-2.133.635,2.058,2.058,0,0,0-.806,1.707,2.425,2.425,0,0,0,.555,1.657,4.408,4.408,0,0,0,1.85,1.1,9.129,9.129,0,0,1,1.381.59,1.8,1.8,0,0,1,.647.568,1.458,1.458,0,0,1,.194.791,1.344,1.344,0,0,1-.546,1.139,2.688,2.688,0,0,1-1.625.41,6.557,6.557,0,0,1-1.333-.14,6.678,6.678,0,0,1-1.244-.381V635.1a6.034,6.034,0,0,0,2.539.425,3.851,3.851,0,0,0,2.412-.685,2.275,2.275,0,0,0,.889-1.911A2.2,2.2,0,0,0,810.921,631.381Zm6.827,3.784v-0.934a4.685,4.685,0,0,1-1.784.375,1.8,1.8,0,0,1-1.533-.686,3.218,3.218,0,0,1-.517-1.967q0-2.7,2.12-2.7a3.365,3.365,0,0,1,.73.092,4.941,4.941,0,0,1,.762.231l0.323-.895a3.318,3.318,0,0,0-.787-0.254,4.752,4.752,0,0,0-1-.108,3.028,3.028,0,0,0-2.4.953,3.94,3.94,0,0,0-.841,2.7,3.824,3.824,0,0,0,.828,2.631,2.97,2.97,0,0,0,2.339.93,3.808,3.808,0,0,0,1.759-.361h0Zm7.465,0.234v-4.538a2.557,2.557,0,0,0-.638-1.927,2.687,2.687,0,0,0-1.914-.606,2.874,2.874,0,0,0-1.311.289,2.15,2.15,0,0,0-.885.79H820.4a6.484,6.484,0,0,0,.051-0.9v-2.99H819.4V635.4h1.054v-3.637a3.026,3.026,0,0,1,.5-1.955,1.987,1.987,0,0,1,1.6-.6,1.581,1.581,0,0,1,1.213.419,1.819,1.819,0,0,1,.387,1.27v4.5h1.054Zm6.306,0.023a5.6,5.6,0,0,0,1.057-.346v-0.94a5.608,5.608,0,0,1-2.222.47,2.139,2.139,0,0,1-1.653-.635,2.754,2.754,0,0,1-.619-1.86h4.792v-0.666a3.293,3.293,0,0,0-.762-2.269,2.62,2.62,0,0,0-2.069-.861,2.754,2.754,0,0,0-2.225.991,4.034,4.034,0,0,0-.828,2.672,3.635,3.635,0,0,0,.892,2.609,3.2,3.2,0,0,0,2.434.939A6,6,0,0,0,831.519,635.422Zm-0.219-5.694a2.316,2.316,0,0,1,.444,1.526h-3.637a2.514,2.514,0,0,1,.587-1.51,1.721,1.721,0,0,1,1.336-.546A1.566,1.566,0,0,1,831.3,629.728Zm8.246,5.671H840.4v-9.877h-1.054v2.832l0.025,0.488,0.045,0.5h-0.083a2.53,2.53,0,0,0-2.171-1.029,2.564,2.564,0,0,0-2.12.953,4.173,4.173,0,0,0-.762,2.672,4.1,4.1,0,0,0,.759,2.653,2.583,2.583,0,0,0,2.123.933,2.476,2.476,0,0,0,2.184-1.06h0.057Zm-3.682-1.434a3.434,3.434,0,0,1-.489-2.012,3.586,3.586,0,0,1,.492-2.035,1.613,1.613,0,0,1,1.419-.72,1.868,1.868,0,0,1,1.571.631,3.492,3.492,0,0,1,.492,2.111v0.222a2.964,2.964,0,0,1-.486,1.895,1.919,1.919,0,0,1-1.564.587A1.655,1.655,0,0,1,835.864,633.965Zm6.7-5.523v4.552a2.566,2.566,0,0,0,.631,1.929,2.66,2.66,0,0,0,1.9.6,3.019,3.019,0,0,0,1.311-.273,2.087,2.087,0,0,0,.9-0.787h0.058l0.152,0.933h0.87v-6.957h-1.054V632.1a3,3,0,0,1-.5,1.948,1.976,1.976,0,0,1-1.6.6,1.58,1.58,0,0,1-1.213-.419,1.815,1.815,0,0,1-.387-1.269v-4.514h-1.066Zm9.109-2.92h-1.054V635.4h1.054v-9.877Zm6.376,9.9a5.6,5.6,0,0,0,1.057-.346v-0.94a5.608,5.608,0,0,1-2.222.47,2.143,2.143,0,0,1-1.654-.635,2.758,2.758,0,0,1-.618-1.86H859.4v-0.666a3.293,3.293,0,0,0-.762-2.269,2.62,2.62,0,0,0-2.069-.861,2.753,2.753,0,0,0-2.225.991,4.034,4.034,0,0,0-.828,2.672,3.635,3.635,0,0,0,.892,2.609,3.2,3.2,0,0,0,2.434.939A6,6,0,0,0,858.046,635.422Zm-0.219-5.694a2.316,2.316,0,0,1,.444,1.526h-3.637a2.514,2.514,0,0,1,.587-1.51,1.721,1.721,0,0,1,1.336-.546A1.566,1.566,0,0,1,857.827,629.728Z" transform="translate(-505.5 -568.5)"/>
  <rect id="bg_copy" data-name="bg copy" class="cls-7" x="141.5" y="9.5" width="107" height="78"/>
  <path id="Estimate_resources_duration_cost" data-name="Estimate resources, duration, cost" class="cls-2" d="M680.711,603.235h-4.094V599.82h3.846v-0.953h-3.846v-2.989h4.094v-0.959h-5.173v9.28h5.173v-0.964Zm5.951-2.082a4.547,4.547,0,0,0-1.673-.908,10.362,10.362,0,0,1-1.219-.514,1.422,1.422,0,0,1-.46-0.375,0.79,0.79,0,0,1-.143-0.476,0.725,0.725,0,0,1,.381-0.647,2.181,2.181,0,0,1,1.13-.235,5.054,5.054,0,0,1,1.9.431l0.375-.857a5.572,5.572,0,0,0-2.2-.457,3.226,3.226,0,0,0-1.9.492,1.563,1.563,0,0,0-.692,1.343,1.6,1.6,0,0,0,.2.819,1.9,1.9,0,0,0,.61.612,7.429,7.429,0,0,0,1.38.632,5.549,5.549,0,0,1,1.375.682,0.907,0.907,0,0,1-.092,1.5,2.512,2.512,0,0,1-1.27.264,4.514,4.514,0,0,1-1.108-.146,5.258,5.258,0,0,1-1.075-.4v0.977a4.414,4.414,0,0,0,2.158.438,3.4,3.4,0,0,0,2.031-.526,1.746,1.746,0,0,0,.724-1.5A1.6,1.6,0,0,0,686.662,601.153Zm3.577,1.967a1.408,1.408,0,0,1-.3-0.965v-4.094h2.019v-0.819H689.94V595.63h-0.609l-0.444,1.485-1,.438v0.508h1V602.2a1.832,1.832,0,0,0,2.018,2.126,3.784,3.784,0,0,0,.6-0.054,1.944,1.944,0,0,0,.5-0.136V603.33a3.545,3.545,0,0,1-.413.085,3.373,3.373,0,0,1-.539.042A1.035,1.035,0,0,1,690.239,603.12Zm4.215-5.878H693.4V604.2h1.054v-6.957Zm-0.965-1.355a0.6,0.6,0,0,0,.444.175,0.613,0.613,0,0,0,.438-0.175,0.7,0.7,0,0,0,.184-0.53,0.688,0.688,0,0,0-.184-0.527,0.658,0.658,0,0,0-.882,0,0.7,0.7,0,0,0-.178.53A0.71,0.71,0,0,0,693.489,595.887Zm13.12,8.312v-4.538a2.708,2.708,0,0,0-.587-1.939,2.357,2.357,0,0,0-1.768-.607,2.79,2.79,0,0,0-1.345.318,2.216,2.216,0,0,0-.9.863h-0.051a2.066,2.066,0,0,0-2.132-1.181,2.576,2.576,0,0,0-1.216.286,2.072,2.072,0,0,0-.841.794h-0.051l-0.171-.953h-0.857V604.2h1.054V600.55a3.212,3.212,0,0,1,.46-1.946,1.719,1.719,0,0,1,1.45-.594,1.384,1.384,0,0,1,1.111.416,1.879,1.879,0,0,1,.356,1.248V604.2h1.053v-3.884a2.688,2.688,0,0,1,.47-1.74,1.786,1.786,0,0,1,1.454-.565,1.375,1.375,0,0,1,1.1.416,1.879,1.879,0,0,1,.356,1.248V604.2h1.053Zm7.23,0v-4.748a2.307,2.307,0,0,0-.6-1.771,2.648,2.648,0,0,0-1.844-.552,4.87,4.87,0,0,0-1.228.159,4.983,4.983,0,0,0-1.127.438l0.324,0.806a4.582,4.582,0,0,1,1.968-.533,1.451,1.451,0,0,1,1.127.39,1.762,1.762,0,0,1,.352,1.209v0.432l-1.181.038q-3.37.1-3.37,2.209a1.942,1.942,0,0,0,.587,1.517,2.32,2.32,0,0,0,1.622.533,3.169,3.169,0,0,0,1.291-.231,2.933,2.933,0,0,0,1.038-.886h0.051l0.21,0.99h0.78Zm-4.129-1.041a1.082,1.082,0,0,1-.346-0.869,1.176,1.176,0,0,1,.556-1.076,3.829,3.829,0,0,1,1.812-.391l1.054-.044v0.628a2,2,0,0,1-.562,1.511,2.139,2.139,0,0,1-1.546.54A1.436,1.436,0,0,1,709.71,603.158Zm7.728-.038a1.408,1.408,0,0,1-.3-0.965v-4.094h2.019v-0.819H717.14V595.63h-0.609l-0.445,1.485-1,.438v0.508h1V602.2a1.833,1.833,0,0,0,2.019,2.126,3.784,3.784,0,0,0,.6-0.054,1.924,1.924,0,0,0,.5-0.136V603.33a3.521,3.521,0,0,1-.412.085,3.4,3.4,0,0,1-.54.042A1.037,1.037,0,0,1,717.438,603.12Zm7.3,1.1a5.549,5.549,0,0,0,1.057-.346v-0.94a5.6,5.6,0,0,1-2.221.47,2.142,2.142,0,0,1-1.654-.635,2.759,2.759,0,0,1-.619-1.86H726.1v-0.666a3.293,3.293,0,0,0-.762-2.269,2.623,2.623,0,0,0-2.069-.861,2.753,2.753,0,0,0-2.225.991,4.029,4.029,0,0,0-.829,2.672,3.639,3.639,0,0,0,.892,2.609,3.2,3.2,0,0,0,2.434.939A6,6,0,0,0,724.741,604.222Zm-0.219-5.694a2.311,2.311,0,0,1,.445,1.526H721.33a2.508,2.508,0,0,1,.587-1.51,1.719,1.719,0,0,1,1.336-.546A1.564,1.564,0,0,1,724.522,598.528Zm-52.317,14.556a3.049,3.049,0,0,0-.933,1.047h-0.051l-0.12-1.289h-0.87V619.8h1.054v-3.732a2.507,2.507,0,0,1,.6-1.708,1.855,1.855,0,0,1,1.445-.685,3.615,3.615,0,0,1,.761.1l0.146-.977a4.1,4.1,0,0,0-.831-0.077A2.1,2.1,0,0,0,672.205,613.084Zm7.474,6.738a5.549,5.549,0,0,0,1.057-.346v-0.94a5.6,5.6,0,0,1-2.221.47,2.142,2.142,0,0,1-1.654-.635,2.759,2.759,0,0,1-.619-1.86h4.793v-0.666a3.293,3.293,0,0,0-.762-2.269,2.623,2.623,0,0,0-2.069-.861,2.753,2.753,0,0,0-2.225.991,4.029,4.029,0,0,0-.829,2.672,3.639,3.639,0,0,0,.892,2.609,3.2,3.2,0,0,0,2.434.939A6,6,0,0,0,679.679,619.822Zm-0.219-5.694a2.311,2.311,0,0,1,.445,1.526h-3.638a2.515,2.515,0,0,1,.588-1.51,1.719,1.719,0,0,1,1.336-.546A1.564,1.564,0,0,1,679.46,614.128Zm7.424,2.625a4.538,4.538,0,0,0-1.673-.908,10.248,10.248,0,0,1-1.218-.514,1.427,1.427,0,0,1-.461-0.375,0.789,0.789,0,0,1-.142-0.476,0.726,0.726,0,0,1,.38-0.647,2.181,2.181,0,0,1,1.13-.235,5.054,5.054,0,0,1,1.9.431l0.375-.857a5.565,5.565,0,0,0-2.2-.457,3.22,3.22,0,0,0-1.9.492,1.56,1.56,0,0,0-.692,1.343,1.593,1.593,0,0,0,.2.819,1.886,1.886,0,0,0,.609.612,7.414,7.414,0,0,0,1.381.632,5.556,5.556,0,0,1,1.374.682,0.907,0.907,0,0,1-.092,1.5,2.509,2.509,0,0,1-1.27.264,4.507,4.507,0,0,1-1.107-.146,5.267,5.267,0,0,1-1.076-.4v0.977a4.414,4.414,0,0,0,2.158.438,3.4,3.4,0,0,0,2.031-.526,1.744,1.744,0,0,0,.724-1.5A1.6,1.6,0,0,0,686.884,616.753Zm7.293-3.066a2.94,2.94,0,0,0-2.32-.972,3.01,3.01,0,0,0-2.361.949,3.835,3.835,0,0,0-.851,2.651,4.386,4.386,0,0,0,.394,1.917,2.893,2.893,0,0,0,1.117,1.256,3.138,3.138,0,0,0,1.657.438,3.019,3.019,0,0,0,2.368-.955A4.492,4.492,0,0,0,694.177,613.687Zm-3.913.6a1.855,1.855,0,0,1,1.562-.68,1.883,1.883,0,0,1,1.583.689,3.23,3.23,0,0,1,.537,2.016,3.28,3.28,0,0,1-.537,2.034,2.117,2.117,0,0,1-3.139,0,3.307,3.307,0,0,1-.533-2.031A3.269,3.269,0,0,1,690.264,614.29Zm6.545-1.448v4.552a2.566,2.566,0,0,0,.631,1.929,2.66,2.66,0,0,0,1.9.6,3.019,3.019,0,0,0,1.311-.273,2.093,2.093,0,0,0,.9-0.787h0.057l0.153,0.933h0.869v-6.957h-1.053V616.5a3.009,3.009,0,0,1-.5,1.948,1.977,1.977,0,0,1-1.6.6,1.578,1.578,0,0,1-1.213-.419,1.815,1.815,0,0,1-.387-1.269v-4.514h-1.066Zm10.029,0.242a3.049,3.049,0,0,0-.933,1.047h-0.051l-0.121-1.289h-0.869V619.8h1.053v-3.732a2.5,2.5,0,0,1,.6-1.708,1.853,1.853,0,0,1,1.444-.685,3.624,3.624,0,0,1,.762.1l0.146-.977a4.1,4.1,0,0,0-.831-0.077A2.1,2.1,0,0,0,706.838,613.084Zm7.871,6.481v-0.934a4.681,4.681,0,0,1-1.784.375,1.8,1.8,0,0,1-1.533-.686,3.216,3.216,0,0,1-.517-1.967q0-2.7,2.12-2.7a3.357,3.357,0,0,1,.73.092,4.941,4.941,0,0,1,.762.231l0.323-.895a3.3,3.3,0,0,0-.787-0.254,4.745,4.745,0,0,0-1-.108,3.029,3.029,0,0,0-2.4.953,3.94,3.94,0,0,0-.841,2.7,3.824,3.824,0,0,0,.828,2.631,2.971,2.971,0,0,0,2.34.93,3.807,3.807,0,0,0,1.758-.361h0Zm5.792,0.257a5.572,5.572,0,0,0,1.057-.346v-0.94a5.608,5.608,0,0,1-2.222.47,2.139,2.139,0,0,1-1.653-.635,2.754,2.754,0,0,1-.619-1.86h4.792v-0.666a3.3,3.3,0,0,0-.761-2.269,2.624,2.624,0,0,0-2.07-.861,2.754,2.754,0,0,0-2.225.991,4.034,4.034,0,0,0-.828,2.672,3.635,3.635,0,0,0,.892,2.609,3.2,3.2,0,0,0,2.434.939A6,6,0,0,0,720.5,619.822Zm-0.219-5.694a2.316,2.316,0,0,1,.444,1.526h-3.637a2.514,2.514,0,0,1,.587-1.51,1.723,1.723,0,0,1,1.337-.546A1.564,1.564,0,0,1,720.282,614.128Zm7.424,2.625a4.547,4.547,0,0,0-1.673-.908,10.362,10.362,0,0,1-1.219-.514,1.422,1.422,0,0,1-.46-0.375,0.79,0.79,0,0,1-.143-0.476,0.725,0.725,0,0,1,.381-0.647,2.181,2.181,0,0,1,1.13-.235,5.054,5.054,0,0,1,1.9.431l0.375-.857a5.572,5.572,0,0,0-2.2-.457,3.226,3.226,0,0,0-1.9.492,1.563,1.563,0,0,0-.692,1.343,1.6,1.6,0,0,0,.2.819,1.9,1.9,0,0,0,.61.612,7.429,7.429,0,0,0,1.38.632,5.549,5.549,0,0,1,1.375.682,0.907,0.907,0,0,1-.092,1.5,2.512,2.512,0,0,1-1.27.264,4.514,4.514,0,0,1-1.108-.146,5.289,5.289,0,0,1-1.076-.4v0.977a4.421,4.421,0,0,0,2.159.438,3.405,3.405,0,0,0,2.031-.526,1.746,1.746,0,0,0,.724-1.5A1.6,1.6,0,0,0,727.706,616.753Zm2.1,1.536q-0.082.583-.289,1.555t-0.378,1.631h0.794q0.336-.723.647-1.564t0.476-1.476l-0.1-.146H729.8ZM664.718,635.4h0.857v-9.877h-1.054v2.832l0.026,0.488,0.044,0.5h-0.083a2.528,2.528,0,0,0-2.17-1.029,2.565,2.565,0,0,0-2.121.953,4.179,4.179,0,0,0-.761,2.672,4.11,4.11,0,0,0,.758,2.653,2.585,2.585,0,0,0,2.124.933,2.475,2.475,0,0,0,2.183-1.06h0.057Zm-3.682-1.434a3.435,3.435,0,0,1-.488-2.012,3.586,3.586,0,0,1,.491-2.035,1.613,1.613,0,0,1,1.419-.72,1.867,1.867,0,0,1,1.571.631,3.492,3.492,0,0,1,.492,2.111v0.222a2.971,2.971,0,0,1-.485,1.895,1.921,1.921,0,0,1-1.565.587A1.655,1.655,0,0,1,661.036,633.965Zm6.7-5.523v4.552a2.566,2.566,0,0,0,.632,1.929,2.658,2.658,0,0,0,1.9.6,3.019,3.019,0,0,0,1.311-.273,2.093,2.093,0,0,0,.9-0.787h0.057l0.152,0.933h0.87v-6.957H672.5V632.1a3.01,3.01,0,0,1-.5,1.948,1.979,1.979,0,0,1-1.6.6,1.578,1.578,0,0,1-1.212-.419,1.815,1.815,0,0,1-.388-1.269v-4.514h-1.066Zm10.029,0.242a3.049,3.049,0,0,0-.933,1.047h-0.051l-0.12-1.289h-0.87V635.4h1.054v-3.732a2.5,2.5,0,0,1,.6-1.708,1.853,1.853,0,0,1,1.444-.685,3.624,3.624,0,0,1,.762.1l0.146-.977a4.112,4.112,0,0,0-.832-0.077A2.1,2.1,0,0,0,677.762,628.684Zm8.392,6.715v-4.748a2.307,2.307,0,0,0-.6-1.771,2.652,2.652,0,0,0-1.844-.552,4.87,4.87,0,0,0-1.228.159,4.965,4.965,0,0,0-1.127.438l0.324,0.806a4.582,4.582,0,0,1,1.968-.533,1.449,1.449,0,0,1,1.126.39,1.762,1.762,0,0,1,.353,1.209v0.432l-1.181.038q-3.371.1-3.371,2.209a1.942,1.942,0,0,0,.588,1.517,2.319,2.319,0,0,0,1.621.533,3.171,3.171,0,0,0,1.292-.231,2.933,2.933,0,0,0,1.038-.886h0.051l0.209,0.99h0.781Zm-4.129-1.041a1.082,1.082,0,0,1-.346-0.869,1.178,1.178,0,0,1,.555-1.076,3.837,3.837,0,0,1,1.813-.391l1.053-.044v0.628a1.993,1.993,0,0,1-.562,1.511,2.135,2.135,0,0,1-1.545.54A1.434,1.434,0,0,1,682.025,634.358Zm7.728-.038a1.408,1.408,0,0,1-.3-0.965v-4.094h2.018v-0.819h-2.018V626.83h-0.61l-0.444,1.485-1,.438v0.508h1V633.4a1.833,1.833,0,0,0,2.019,2.126,3.782,3.782,0,0,0,.6-0.054,1.921,1.921,0,0,0,.5-0.136V634.53a3.5,3.5,0,0,1-.413.085,3.373,3.373,0,0,1-.539.042A1.037,1.037,0,0,1,689.753,634.32Zm4.215-5.878h-1.054V635.4h1.054v-6.957ZM693,627.087a0.643,0.643,0,0,0,.882,0,0.7,0.7,0,0,0,.184-0.53,0.688,0.688,0,0,0-.184-0.527,0.658,0.658,0,0,0-.882,0,0.7,0.7,0,0,0-.178.53A0.714,0.714,0,0,0,693,627.087Zm8.344,2.2a2.942,2.942,0,0,0-2.32-.972,3.01,3.01,0,0,0-2.361.949,3.835,3.835,0,0,0-.851,2.651,4.372,4.372,0,0,0,.394,1.917,2.887,2.887,0,0,0,1.117,1.256,3.136,3.136,0,0,0,1.657.438,3.016,3.016,0,0,0,2.367-.955A4.494,4.494,0,0,0,701.347,629.287Zm-3.913.6a1.853,1.853,0,0,1,1.561-.68,1.885,1.885,0,0,1,1.584.689,3.23,3.23,0,0,1,.536,2.016,3.282,3.282,0,0,1-.536,2.034,2.117,2.117,0,0,1-3.139,0,3.307,3.307,0,0,1-.533-2.031A3.263,3.263,0,0,1,697.434,629.89Zm12.435,5.509v-4.538a2.579,2.579,0,0,0-.635-1.939,2.644,2.644,0,0,0-1.892-.607,2.952,2.952,0,0,0-1.3.283,2.152,2.152,0,0,0-.908.8h-0.05l-0.172-.953h-0.857V635.4h1.054V631.75a2.977,2.977,0,0,1,.508-1.949,2,2,0,0,1,1.6-.591,1.578,1.578,0,0,1,1.213.419,1.819,1.819,0,0,1,.387,1.27v4.5h1.054Zm2.114-1.51q-0.082.584-.289,1.555t-0.378,1.631h0.794q0.336-.723.647-1.564t0.476-1.476l-0.095-.146h-1.155Zm11.152,1.276v-0.934a4.68,4.68,0,0,1-1.783.375,1.8,1.8,0,0,1-1.533-.686,3.218,3.218,0,0,1-.518-1.967q0-2.7,2.121-2.7a3.372,3.372,0,0,1,.73.092,4.927,4.927,0,0,1,.761.231l0.324-.895a3.318,3.318,0,0,0-.787-0.254,4.752,4.752,0,0,0-1-.108,3.026,3.026,0,0,0-2.4.953,3.94,3.94,0,0,0-.841,2.7,3.824,3.824,0,0,0,.828,2.631,2.969,2.969,0,0,0,2.339.93,3.8,3.8,0,0,0,1.758-.361h0Zm6.8-5.878a2.943,2.943,0,0,0-2.32-.972,3.011,3.011,0,0,0-2.362.949,3.835,3.835,0,0,0-.85,2.651,4.386,4.386,0,0,0,.393,1.917,2.893,2.893,0,0,0,1.117,1.256,3.138,3.138,0,0,0,1.657.438,3.019,3.019,0,0,0,2.368-.955A4.494,4.494,0,0,0,729.931,629.287Zm-3.914.6a1.855,1.855,0,0,1,1.562-.68,1.887,1.887,0,0,1,1.584.689,3.237,3.237,0,0,1,.536,2.016,3.289,3.289,0,0,1-.536,2.034,2.117,2.117,0,0,1-3.139,0A4.142,4.142,0,0,1,726.017,629.89Zm10.674,2.463a4.547,4.547,0,0,0-1.673-.908,10.362,10.362,0,0,1-1.219-.514,1.422,1.422,0,0,1-.46-0.375,0.79,0.79,0,0,1-.143-0.476,0.725,0.725,0,0,1,.381-0.647,2.181,2.181,0,0,1,1.13-.235,5.054,5.054,0,0,1,1.9.431l0.375-.857a5.572,5.572,0,0,0-2.2-.457,3.226,3.226,0,0,0-1.9.492,1.562,1.562,0,0,0-.691,1.343,1.6,1.6,0,0,0,.2.819,1.9,1.9,0,0,0,.61.612,7.429,7.429,0,0,0,1.38.632,5.549,5.549,0,0,1,1.375.682,0.907,0.907,0,0,1-.092,1.5,2.512,2.512,0,0,1-1.27.264,4.514,4.514,0,0,1-1.108-.146,5.258,5.258,0,0,1-1.075-.4v0.977a4.414,4.414,0,0,0,2.158.438A3.4,3.4,0,0,0,736.4,635a1.746,1.746,0,0,0,.724-1.5A1.6,1.6,0,0,0,736.691,632.353Zm3.577,1.967a1.408,1.408,0,0,1-.3-0.965v-4.094h2.019v-0.819h-2.019V626.83H739.36l-0.444,1.485-1,.438v0.508h1V633.4a1.833,1.833,0,0,0,2.018,2.126,3.784,3.784,0,0,0,.6-0.054,1.944,1.944,0,0,0,.5-0.136V634.53a3.545,3.545,0,0,1-.413.085,3.373,3.373,0,0,1-.539.042A1.037,1.037,0,0,1,740.268,634.32Z" transform="translate(-505.5 -568.5)"/>
  <path id="Shape_127_copy" data-name="Shape 127 copy" class="cls-8" d="M755,617v-1h24v1H755Zm24.329-1.376-0.658.753-8-7,0.658-.753Z" transform="translate(-505.5 -568.5)"/>
  <path id="Shape_128_copy" data-name="Shape 128 copy" class="cls-8" d="M777.671,615.623l0.658,0.753-8,7-0.658-.753Z" transform="translate(-505.5 -568.5)"/>
  <path class="cls-8" d="M623,617v-1h24v1H623Zm24.329-1.376-0.658.753-8-7,0.658-.753Z" transform="translate(-505.5 -568.5)"/>
  <path class="cls-8" d="M645.671,615.623l0.658,0.753-8,7-0.658-.753Z" transform="translate(-505.5 -568.5)"/>
  <g style="fill: #f2f2f2; filter: url(#filter-7)">
    <rect id="bg" class="cls-9" x="9.5" y="9.5" width="107" height="78" style="stroke: inherit; filter: none; fill: inherit"/>
  </g>
  <use xlink:href="#bg" style="stroke: #01a9da; filter: none; fill: none"/>
  <path id="Develop_Work_Breakdown_Structure_WBS_" data-name="Develop Work Breakdown Structure (WBS)" class="cls-8" d="M532.644,588.913a4.75,4.75,0,0,0-3.447-1.193h-2.869V597h2.6a5.12,5.12,0,0,0,3.675-1.216,4.622,4.622,0,0,0,1.276-3.513A4.46,4.46,0,0,0,532.644,588.913Zm-3.72,6.811h-1.079v-6.735h1.314q3.117,0,3.117,3.333,0,3.4-3.352,3.4h0Zm11.128,1.295a4.607,4.607,0,0,0,1.1-.368v-1.213a6.08,6.08,0,0,1-1.152.391,5.438,5.438,0,0,1-1.159.117,1.924,1.924,0,0,1-1.466-.549,2.3,2.3,0,0,1-.552-1.571h4.678V593.02a3.227,3.227,0,0,0-.806-2.323,2.892,2.892,0,0,0-2.2-.844,2.961,2.961,0,0,0-2.355.983,3.978,3.978,0,0,0-.857,2.705,3.63,3.63,0,0,0,.923,2.631,3.4,3.4,0,0,0,2.562.955A6.775,6.775,0,0,0,540.052,597.019Zm-0.432-5.589a1.944,1.944,0,0,1,.419,1.317h-3.187a2.154,2.154,0,0,1,.511-1.314,1.5,1.5,0,0,1,1.14-.451A1.434,1.434,0,0,1,539.62,591.43Zm6.792,5.57,2.679-7.021H547.5l-1.429,4.082a11.148,11.148,0,0,0-.444,1.663H545.58a8.071,8.071,0,0,0-.444-1.663l-1.428-4.082h-1.574L544.8,597h1.612Zm8.087,0.019a4.607,4.607,0,0,0,1.1-.368v-1.213a6.033,6.033,0,0,1-1.152.391,5.429,5.429,0,0,1-1.158.117,1.925,1.925,0,0,1-1.467-.549,2.3,2.3,0,0,1-.552-1.571h4.678V593.02a3.223,3.223,0,0,0-.806-2.323,2.891,2.891,0,0,0-2.2-.844,2.961,2.961,0,0,0-2.355.983,3.983,3.983,0,0,0-.857,2.705,3.626,3.626,0,0,0,.924,2.631,3.393,3.393,0,0,0,2.561.955A6.775,6.775,0,0,0,554.5,597.019Zm-0.432-5.589a1.939,1.939,0,0,1,.419,1.317H551.3a2.148,2.148,0,0,1,.511-1.314,1.5,1.5,0,0,1,1.139-.451A1.434,1.434,0,0,1,554.067,591.43Zm5.072-4.307h-1.492V597h1.492v-9.877Zm7.471,3.71a3.09,3.09,0,0,0-2.412-.98,3.176,3.176,0,0,0-2.469.958,3.806,3.806,0,0,0-.876,2.666,4.347,4.347,0,0,0,.406,1.93,2.939,2.939,0,0,0,1.162,1.276,3.365,3.365,0,0,0,1.739.444,3.161,3.161,0,0,0,2.456-.965,3.827,3.827,0,0,0,.883-2.685A3.786,3.786,0,0,0,566.61,590.833Zm-3.8.86a1.527,1.527,0,0,1,1.362-.622q1.789,0,1.79,2.406,0,2.432-1.778,2.431-1.8,0-1.8-2.431A3.172,3.172,0,0,1,562.811,591.693Zm12.022,4.469a5.221,5.221,0,0,0,.013-5.357,2.436,2.436,0,0,0-2.047-.952,2.338,2.338,0,0,0-2.1,1.066h-0.076c-0.106-.5-0.175-0.808-0.209-0.94h-1.206v10.144H570.7v-2.875c0-.127-0.029-0.487-0.089-1.08H570.7A2.7,2.7,0,0,0,574.833,596.162Zm-1.2-4.485a3.167,3.167,0,0,1,.416,1.787,3.28,3.28,0,0,1-.419,1.809,1.347,1.347,0,0,1-1.194.635,1.509,1.509,0,0,1-1.326-.574,3.282,3.282,0,0,1-.407-1.857v-0.222a2.7,2.7,0,0,1,.41-1.663,1.55,1.55,0,0,1,1.3-.521A1.387,1.387,0,0,1,573.634,591.677Zm18.195-3.957h-1.536l-1.32,5.395a16.557,16.557,0,0,0-.457,2.311,20.389,20.389,0,0,0-.47-2.26L586.5,587.72h-1.5l-1.511,5.421q-0.114.413-.254,1.079t-0.209,1.206a23.185,23.185,0,0,0-.445-2.3l-1.326-5.408H579.7l1.219,4.634,1.2,4.646h1.651l1.536-5.51q0.095-.317.238-0.965t0.206-1.053c0.021,0.177.083,0.494,0.184,0.949s0.187,0.8.254,1.044L587.76,597h1.651Zm6.494,3.113a3.092,3.092,0,0,0-2.412-.98,3.176,3.176,0,0,0-2.469.958,3.806,3.806,0,0,0-.876,2.666,4.347,4.347,0,0,0,.406,1.93,2.939,2.939,0,0,0,1.162,1.276,3.365,3.365,0,0,0,1.739.444,3.161,3.161,0,0,0,2.456-.965,3.832,3.832,0,0,0,.883-2.685A3.791,3.791,0,0,0,598.323,590.833Zm-3.8.86a1.527,1.527,0,0,1,1.361-.622q1.791,0,1.791,2.406,0,2.432-1.778,2.431-1.8,0-1.8-2.431A3.164,3.164,0,0,1,594.524,591.693Zm8.753-1.472a2.783,2.783,0,0,0-.911,1H602.29l-0.2-1.238h-1.168V597h1.491v-3.669a2.108,2.108,0,0,1,.556-1.517,1.91,1.91,0,0,1,1.45-.584,2.8,2.8,0,0,1,.66.076l0.146-1.39a3.609,3.609,0,0,0-.742-0.063A2.163,2.163,0,0,0,603.277,590.221Zm4.656,3.072,0.077-1.352v-4.818h-1.479V597h1.479v-2.406l0.818-.673L611.082,597h1.752l-3-4,2.825-3.016h-1.72l-2.12,2.26-0.845,1.054h-0.038ZM534.443,612.6h3.352a3.754,3.754,0,0,0,2.428-.708,2.381,2.381,0,0,0,.873-1.958,2.195,2.195,0,0,0-.461-1.469,2.387,2.387,0,0,0-1.437-.727v-0.064A1.872,1.872,0,0,0,540.4,607a2.14,2.14,0,0,0,.419-1.352,1.958,1.958,0,0,0-.854-1.765,5.234,5.234,0,0,0-2.771-.558h-2.755v9.28Zm1.517-8.011h1.314a2.965,2.965,0,0,1,1.5.292,1.028,1.028,0,0,1,.473.946,1.155,1.155,0,0,1-.438,1.025,2.5,2.5,0,0,1-1.391.3h-1.46v-2.565Zm1.537,3.8a2.63,2.63,0,0,1,1.5.349,1.225,1.225,0,0,1,.5,1.073,1.346,1.346,0,0,1-.486,1.152,2.364,2.364,0,0,1-1.437.365H535.96v-2.939H537.5Zm7.722-2.564a2.765,2.765,0,0,0-.911,1h-0.077l-0.2-1.238h-1.168V612.6h1.491v-3.669a2.108,2.108,0,0,1,.556-1.517,1.911,1.911,0,0,1,1.45-.584,2.8,2.8,0,0,1,.66.076l0.146-1.39a3.609,3.609,0,0,0-.742-0.063A2.158,2.158,0,0,0,545.219,605.821Zm7.594,6.8a4.6,4.6,0,0,0,1.105-.368v-1.213a6.08,6.08,0,0,1-1.152.391,5.438,5.438,0,0,1-1.159.117,1.924,1.924,0,0,1-1.466-.549,2.3,2.3,0,0,1-.552-1.571h4.678V608.62a3.227,3.227,0,0,0-.806-2.323,2.894,2.894,0,0,0-2.2-.844,2.961,2.961,0,0,0-2.355.983,3.978,3.978,0,0,0-.857,2.7,3.63,3.63,0,0,0,.923,2.631,3.4,3.4,0,0,0,2.562.955A6.756,6.756,0,0,0,552.813,612.619Zm-0.431-5.589a1.944,1.944,0,0,1,.419,1.317h-3.187a2.154,2.154,0,0,1,.511-1.314,1.5,1.5,0,0,1,1.14-.451A1.434,1.434,0,0,1,552.382,607.03Zm9.039,5.57v-4.729a2.287,2.287,0,0,0-.682-1.834,3.034,3.034,0,0,0-2.022-.584,5.727,5.727,0,0,0-1.282.155,5.2,5.2,0,0,0-1.251.454l0.483,1.066a7.943,7.943,0,0,1,.952-0.374,3.362,3.362,0,0,1,1.034-.159,1.285,1.285,0,0,1,.975.333,1.424,1.424,0,0,1,.314,1.006v0.375l-1.213.038a4.649,4.649,0,0,0-2.456.6,1.854,1.854,0,0,0-.806,1.638,2.086,2.086,0,0,0,.581,1.58,2.23,2.23,0,0,0,1.615.559,3.22,3.22,0,0,0,1.32-.232,2.86,2.86,0,0,0,1.022-.873h0.051l0.3,0.978h1.067Zm-4.126-1.273a0.938,0.938,0,0,1-.279-0.727,1.068,1.068,0,0,1,.479-0.961,3.072,3.072,0,0,1,1.533-.352l0.9-.039v0.61a1.646,1.646,0,0,1-.492,1.273,1.85,1.85,0,0,1-1.3.453A1.2,1.2,0,0,1,557.295,611.327Zm7.611-2.434,0.076-1.352v-4.818H563.5V612.6h1.479v-2.406l0.819-.673,2.253,3.079h1.752l-3-4,2.824-3.016h-1.72l-2.12,2.26-0.844,1.054h-0.038Zm10.5,2.787h0.07l0.26,0.92H576.9v-9.877h-1.5v2.558a8.948,8.948,0,0,0,.108,1.194h-0.076a2.42,2.42,0,0,0-2.108-1.022,2.468,2.468,0,0,0-2.066.961,5.219,5.219,0,0,0-.01,5.361,2.446,2.446,0,0,0,2.051.952,2.385,2.385,0,0,0,2.1-1.047h0Zm-2.939-.772a3.184,3.184,0,0,1-.413-1.78,3.268,3.268,0,0,1,.426-1.819,1.371,1.371,0,0,1,1.212-.638,1.6,1.6,0,0,1,1.352.559,3.144,3.144,0,0,1,.432,1.885v0.21a2.73,2.73,0,0,1-.432,1.679,1.623,1.623,0,0,1-1.339.517A1.391,1.391,0,0,1,572.466,610.908Zm11.908-4.475a3.09,3.09,0,0,0-2.412-.98,3.176,3.176,0,0,0-2.469.958,3.806,3.806,0,0,0-.876,2.666,4.347,4.347,0,0,0,.406,1.93,2.939,2.939,0,0,0,1.162,1.276,3.365,3.365,0,0,0,1.739.444,3.161,3.161,0,0,0,2.456-.965A4.449,4.449,0,0,0,584.374,606.433Zm-3.8.86a1.527,1.527,0,0,1,1.362-.622q1.789,0,1.79,2.406,0,2.431-1.778,2.431-1.8,0-1.8-2.431A3.164,3.164,0,0,1,580.575,607.293ZM594.41,612.6l1.98-7.021h-1.5l-0.908,3.46a19.729,19.729,0,0,0-.444,2.184h-0.051a7.357,7.357,0,0,0-.168-1c-0.1-.427-0.175-0.745-0.238-0.952l-1.035-3.7h-1.637l-1.067,3.7q-0.095.3-.225,0.9t-0.194,1.063h-0.038q-0.126-.913-0.431-2.2l-0.895-3.46h-1.524l1.968,7.021h1.65l0.933-3.263q0.216-.717.584-2.431h0.057q0.432,1.9.6,2.419l0.908,3.275h1.676Zm9.362-4.577a2.252,2.252,0,0,0-2.526-2.57,3.034,3.034,0,0,0-1.295.272,2.078,2.078,0,0,0-.9.775h-0.076l-0.21-.921H597.6V612.6h1.492v-3.5a3.081,3.081,0,0,1,.438-1.872,1.651,1.651,0,0,1,1.384-.559,1.266,1.266,0,0,1,1.038.4,1.9,1.9,0,0,1,.326,1.213V612.6h1.5v-4.577ZM545.85,624.588a2.33,2.33,0,0,0-.7-0.831,6.892,6.892,0,0,0-1.5-.794,8.473,8.473,0,0,1-1.257-.6,1.545,1.545,0,0,1-.5-0.485,1.191,1.191,0,0,1-.153-0.619,1.053,1.053,0,0,1,.381-0.848,1.7,1.7,0,0,1,1.117-.32,5.793,5.793,0,0,1,2.209.52l0.483-1.238a6.519,6.519,0,0,0-2.654-.584,3.425,3.425,0,0,0-2.215.667,2.223,2.223,0,0,0-.825,1.828,2.484,2.484,0,0,0,.52,1.587,4.294,4.294,0,0,0,1.79,1.174,5.922,5.922,0,0,1,1.625.857,1.153,1.153,0,0,1,.394.883,1.117,1.117,0,0,1-.429.92,2.116,2.116,0,0,1-1.329.343,5.68,5.68,0,0,1-1.33-.172,6.977,6.977,0,0,1-1.349-.469v1.434a5.885,5.885,0,0,0,2.577.489,3.892,3.892,0,0,0,2.469-.705,2.333,2.333,0,0,0,.895-1.942A2.5,2.5,0,0,0,545.85,624.588Zm3.767,2.276a1.059,1.059,0,0,1-.269-0.8v-3.758h2v-1.13h-2v-1.561h-0.921l-0.508,1.485-1.028.546v0.66h0.959v3.784a1.926,1.926,0,0,0,2.12,2.234,4.363,4.363,0,0,0,.809-0.073,3.032,3.032,0,0,0,.638-0.181V626.95a3.636,3.636,0,0,1-1.092.171A0.986,0.986,0,0,1,549.617,626.864Zm5.555-5.443a2.765,2.765,0,0,0-.911,1h-0.076l-0.2-1.238H552.82V628.2h1.492v-3.669a2.111,2.111,0,0,1,.555-1.517,1.911,1.911,0,0,1,1.45-.584,2.814,2.814,0,0,1,.661.076l0.146-1.39a3.626,3.626,0,0,0-.743-0.063A2.158,2.158,0,0,0,555.172,621.421Zm9.378,6.779v-7.021h-1.5v3.5a3.1,3.1,0,0,1-.441,1.882,1.646,1.646,0,0,1-1.381.562,1.259,1.259,0,0,1-1.034-.4,1.879,1.879,0,0,1-.33-1.209v-4.33h-1.5v4.59a2.63,2.63,0,0,0,.629,1.923,2.573,2.573,0,0,0,1.9.635,2.964,2.964,0,0,0,1.311-.279,2.124,2.124,0,0,0,.885-0.768h0.077l0.209,0.92h1.174Zm6.059,0.025a2.914,2.914,0,0,0,.854-0.336v-1.3a3.818,3.818,0,0,1-1.885.5,1.57,1.57,0,0,1-1.33-.594,2.892,2.892,0,0,1-.454-1.774q0-2.418,1.822-2.418a4.5,4.5,0,0,1,1.561.368l0.451-1.2a4.7,4.7,0,0,0-2-.412,3.214,3.214,0,0,0-2.5.952,4.715,4.715,0,0,0-.038,5.392,3.074,3.074,0,0,0,2.422.93A5.1,5.1,0,0,0,570.609,628.225Zm4.412-1.361a1.055,1.055,0,0,1-.27-0.8v-3.758h2v-1.13h-2v-1.561h-0.92l-0.508,1.485-1.029.546v0.66h0.959v3.784a1.926,1.926,0,0,0,2.12,2.234,4.363,4.363,0,0,0,.809-0.073,3.014,3.014,0,0,0,.638-0.181V626.95a3.635,3.635,0,0,1-1.091.171A0.986,0.986,0,0,1,575.021,626.864Zm9.328,1.336v-7.021h-1.5v3.5a3.1,3.1,0,0,1-.442,1.882,1.645,1.645,0,0,1-1.38.562,1.26,1.26,0,0,1-1.035-.4,1.879,1.879,0,0,1-.33-1.209v-4.33h-1.5v4.59a2.63,2.63,0,0,0,.628,1.923,2.574,2.574,0,0,0,1.9.635,2.964,2.964,0,0,0,1.311-.279,2.133,2.133,0,0,0,.886-0.768h0.076l0.209,0.92h1.175Zm4.478-6.779a2.774,2.774,0,0,0-.911,1H587.84l-0.2-1.238h-1.168V628.2h1.492v-3.669a2.111,2.111,0,0,1,.555-1.517,1.912,1.912,0,0,1,1.451-.584,2.812,2.812,0,0,1,.66.076l0.146-1.39a3.619,3.619,0,0,0-.743-0.063A2.158,2.158,0,0,0,588.827,621.421Zm7.6,6.8a4.607,4.607,0,0,0,1.1-.368v-1.213a6.033,6.033,0,0,1-1.152.391,5.422,5.422,0,0,1-1.158.117,1.921,1.921,0,0,1-1.466-.549,2.3,2.3,0,0,1-.553-1.571h4.678V624.22a3.223,3.223,0,0,0-.806-2.323,2.891,2.891,0,0,0-2.2-.844,2.961,2.961,0,0,0-2.355.983,3.983,3.983,0,0,0-.857,2.705,3.626,3.626,0,0,0,.924,2.631,3.393,3.393,0,0,0,2.561.955A6.775,6.775,0,0,0,596.422,628.219Zm-0.432-5.589a1.939,1.939,0,0,1,.419,1.317h-3.186a2.148,2.148,0,0,1,.511-1.314,1.5,1.5,0,0,1,1.139-.451A1.434,1.434,0,0,1,595.99,622.63Zm-44.113,20.707a7.5,7.5,0,0,0,1.422,2.52h1.289a9.058,9.058,0,0,1-1.34-2.628,9.709,9.709,0,0,1-.469-3,9.981,9.981,0,0,1,.469-3.031,9.067,9.067,0,0,1,1.352-2.675h-1.3a7.819,7.819,0,0,0-1.419,2.571,9.832,9.832,0,0,0-.492,3.148A9.583,9.583,0,0,0,551.877,643.337Zm15.317-8.817h-1.536l-1.32,5.395a16.411,16.411,0,0,0-.457,2.311,20.389,20.389,0,0,0-.47-2.26l-1.549-5.446h-1.5l-1.511,5.421q-0.114.412-.254,1.079t-0.209,1.206q-0.134-1-.445-2.3l-1.326-5.408h-1.549l1.218,4.634,1.2,4.646h1.651l1.536-5.51q0.095-.317.238-0.965t0.206-1.053c0.021,0.177.083,0.494,0.184,0.949s0.186,0.8.254,1.044l1.574,5.535h1.651Zm1.314,9.28h3.352a3.755,3.755,0,0,0,2.428-.708,2.384,2.384,0,0,0,.872-1.958,2.194,2.194,0,0,0-.46-1.469,2.39,2.39,0,0,0-1.438-.727v-0.064a1.875,1.875,0,0,0,1.207-.679,2.139,2.139,0,0,0,.418-1.352,1.957,1.957,0,0,0-.853-1.765,5.236,5.236,0,0,0-2.771-.558h-2.755v9.28Zm1.517-8.011h1.314a2.958,2.958,0,0,1,1.5.292,1.026,1.026,0,0,1,.473.946,1.155,1.155,0,0,1-.438,1.025,2.5,2.5,0,0,1-1.39.3h-1.46v-2.565Zm1.536,3.8a2.632,2.632,0,0,1,1.5.349,1.225,1.225,0,0,1,.5,1.073,1.346,1.346,0,0,1-.486,1.152,2.369,2.369,0,0,1-1.438.365h-1.612v-2.939h1.536Zm10.658,0.6a2.33,2.33,0,0,0-.7-0.831,6.892,6.892,0,0,0-1.5-.794,8.322,8.322,0,0,1-1.257-.6,1.56,1.56,0,0,1-.5-0.485,1.2,1.2,0,0,1-.152-0.619,1.053,1.053,0,0,1,.381-0.848,1.7,1.7,0,0,1,1.117-.32,5.793,5.793,0,0,1,2.209.52l0.483-1.238a6.519,6.519,0,0,0-2.654-.584,3.423,3.423,0,0,0-2.215.667,2.223,2.223,0,0,0-.825,1.828,2.484,2.484,0,0,0,.52,1.587,4.294,4.294,0,0,0,1.79,1.174,5.922,5.922,0,0,1,1.625.857,1.153,1.153,0,0,1,.394.883,1.117,1.117,0,0,1-.429.92,2.118,2.118,0,0,1-1.33.343,5.678,5.678,0,0,1-1.329-.172A6.977,6.977,0,0,1,576.5,642v1.434a5.885,5.885,0,0,0,2.577.489,3.894,3.894,0,0,0,2.469-.705,2.333,2.333,0,0,0,.895-1.942A2.5,2.5,0,0,0,582.219,640.188Zm3.9-3.088a7.781,7.781,0,0,0-1.422-2.58h-1.3a9.2,9.2,0,0,1,1.352,2.675,9.943,9.943,0,0,1,.469,3.031,9.7,9.7,0,0,1-.466,3,9.12,9.12,0,0,1-1.343,2.635H584.7a7.439,7.439,0,0,0,1.419-2.508,9.56,9.56,0,0,0,.492-3.11A9.881,9.881,0,0,0,586.123,637.1Z" transform="translate(-505.5 -568.5)"/>
  <g id="Connecting_lines" data-name="Connecting lines">
    <path class="cls-8" d="M886,617v-1h17v1H886Zm17,214h-1V617h1m0,213v1H886v-1h17Zm0-64v1H886v-1h17Zm0-64v1H886v-1h17Z" transform="translate(-505.5 -568.5)"/>
    <path id="Shape_127_copy_2" data-name="Shape 127 copy 2" class="cls-8" d="M903,670v-1h17v1H903Zm17.329-1.376-0.658.753-8-7,0.658-.753Z" transform="translate(-505.5 -568.5)"/>
    <path id="Shape_128_copy_2" data-name="Shape 128 copy 2" class="cls-8" d="M918.671,668.623l0.658,0.753-8,7-0.658-.753Z" transform="translate(-505.5 -568.5)"/>
    <path id="Shape_127_copy_3" data-name="Shape 127 copy 3" class="cls-8" d="M1027,670v-1h17v1h-17Zm17.33-1.376-0.66.753-8-7,0.66-.753Z" transform="translate(-505.5 -568.5)"/>
    <path id="Shape_128_copy_3" data-name="Shape 128 copy 3" class="cls-8" d="M1042.67,668.623l0.66,0.753-8,7-0.66-.753Z" transform="translate(-505.5 -568.5)"/>
  </g>
</svg>
