<svg id="Flow_Chart_-_Close" data-name="Flow Chart - Close" xmlns="http://www.w3.org/2000/svg" xmlns:xlink="http://www.w3.org/1999/xlink" width="348" height="98" viewBox="0 0 348 98">
  <defs>
    <style>
      .cls-1, .cls-3, .cls-5 {
        fill: #f2f2f2;
      }

      .cls-1 {
        stroke: #01a9da;
        stroke-linejoin: round;
        stroke-opacity: 0.42;
        stroke-width: 1px;
        filter: url(#filter);
      }

      .cls-2 {
        fill: #01a9da;
      }

      .cls-2, .cls-4 {
        fill-rule: evenodd;
      }

      .cls-3 {
        filter: url(#filter-2);
      }

      .cls-4 {
        fill: #6b6b6b;
      }

      .cls-5 {
        filter: url(#filter-3);
      }
    </style>
    <filter id="filter" x="125" y="0.5" width="127" height="97" filterUnits="userSpaceOnUse">
      <feOffset result="offset" dx="0.5" dy="0.866" in="SourceAlpha"/>
      <feGaussianBlur result="blur" stdDeviation="2"/>
      <feFlood result="flood" flood-opacity="0.13"/>
      <feComposite result="composite" operator="in" in2="blur"/>
      <feGaussianBlur result="blur-2" stdDeviation="3.333" in="SourceAlpha"/>
      <feComposite result="composite-2"/>
      <feComposite result="composite-3"/>
      <feComposite result="composite-4"/>
      <feFlood result="flood-2" flood-color="#01a9da" flood-opacity="0.09"/>
      <feComposite result="composite-5" operator="in" in2="composite-4"/>
      <feBlend result="blend" in2="composite"/>
      <feBlend result="blend-2" in="SourceGraphic"/>
    </filter>
    <filter id="filter-2" x="0" y="7.5" width="115" height="85" filterUnits="userSpaceOnUse">
      <feOffset result="offset" dx="0.5" dy="0.866" in="SourceAlpha"/>
      <feGaussianBlur result="blur" stdDeviation="2"/>
      <feFlood result="flood" flood-opacity="0.13"/>
      <feComposite result="composite" operator="in" in2="blur"/>
      <feBlend result="blend" in="SourceGraphic"/>
    </filter>
    <filter id="filter-3" x="265" y="8.5" width="83" height="83" filterUnits="userSpaceOnUse">
      <feOffset result="offset" dx="0.5" dy="0.866" in="SourceAlpha"/>
      <feGaussianBlur result="blur" stdDeviation="2"/>
      <feFlood result="flood" flood-opacity="0.26"/>
      <feComposite result="composite" operator="in" in2="blur"/>
      <feBlend result="blend" in="SourceGraphic"/>
    </filter>
  </defs>
  <g style="fill: #f2f2f2; filter: url(#filter)">
    <rect id="bg_copy_2" data-name="bg copy 2" class="cls-1" x="134.781" y="9.5" width="106.907" height="78" style="stroke: inherit; filter: none; fill: inherit"/>
  </g>
  <use xlink:href="#bg_copy_2" style="stroke: #01a9da; filter: none; fill: none"/>
  <path id="Project_summary" data-name="Project summary" class="cls-2" d="M806.665,1147.63a4.061,4.061,0,0,0-2.6-.71h-2.669v9.28h1.515v-3.47h0.964a4.167,4.167,0,0,0,2.708-.78,2.7,2.7,0,0,0,.951-2.23A2.541,2.541,0,0,0,806.665,1147.63Zm-3.758.56h1.053a2.428,2.428,0,0,1,1.522.39,1.444,1.444,0,0,1,.488,1.2,1.5,1.5,0,0,1-.545,1.27,2.9,2.9,0,0,1-1.712.4h-0.806v-3.26Zm8.666,1.23a2.827,2.827,0,0,0-.91,1h-0.076l-0.2-1.24h-1.166v7.02h1.49v-3.67a2.123,2.123,0,0,1,.555-1.52,1.9,1.9,0,0,1,1.449-.58,2.4,2.4,0,0,1,.659.08l0.146-1.39a3.079,3.079,0,0,0-.742-0.07A2.128,2.128,0,0,0,811.573,1149.42Zm8.584,0.61a3.1,3.1,0,0,0-2.41-.98,3.169,3.169,0,0,0-2.467.96,3.815,3.815,0,0,0-.875,2.67,4.368,4.368,0,0,0,.406,1.93,2.9,2.9,0,0,0,1.16,1.27,3.327,3.327,0,0,0,1.738.45,3.172,3.172,0,0,0,2.454-.97A4.459,4.459,0,0,0,820.157,1150.03Zm-3.8.86a1.534,1.534,0,0,1,1.36-.62c1.193,0,1.789.8,1.789,2.41s-0.592,2.43-1.776,2.43-1.8-.81-1.8-2.43A3.191,3.191,0,0,1,816.361,1150.89Zm7.318,7.87a2.2,2.2,0,0,0,.568-1.64v-7.94h-1.49v7.84a0.9,0.9,0,0,1-.952,1.08,3.268,3.268,0,0,1-.881-0.12v1.18a3.246,3.246,0,0,0,1.116.16A2.209,2.209,0,0,0,823.679,1158.76Zm-0.792-10.84a0.87,0.87,0,0,0,.624.22,0.853,0.853,0,0,0,.612-0.22,0.823,0.823,0,0,0,.219-0.6,0.749,0.749,0,0,0-.831-0.83,0.866,0.866,0,0,0-.624.21,0.841,0.841,0,0,0-.219.62A0.823,0.823,0,0,0,822.887,1147.92Zm7.828,8.3a4.659,4.659,0,0,0,1.1-.37v-1.21a6.334,6.334,0,0,1-1.151.39,5.289,5.289,0,0,1-1.157.12,1.943,1.943,0,0,1-1.465-.55,2.312,2.312,0,0,1-.552-1.57h4.674v-0.81a3.209,3.209,0,0,0-.806-2.32,2.866,2.866,0,0,0-2.194-.85,2.948,2.948,0,0,0-2.353.99,3.958,3.958,0,0,0-.856,2.7,3.627,3.627,0,0,0,.923,2.63,3.382,3.382,0,0,0,2.559.96A6.911,6.911,0,0,0,830.715,1156.22Zm-0.431-5.59a1.956,1.956,0,0,1,.419,1.32h-3.184a2.152,2.152,0,0,1,.511-1.32,1.5,1.5,0,0,1,1.138-.45A1.425,1.425,0,0,1,830.284,1150.63Zm7.506,5.59a2.906,2.906,0,0,0,.853-0.33v-1.3a3.806,3.806,0,0,1-1.884.49,1.584,1.584,0,0,1-1.329-.59,2.923,2.923,0,0,1-.453-1.78c0-1.61.607-2.41,1.82-2.41a4.6,4.6,0,0,1,1.56.36l0.45-1.2a4.758,4.758,0,0,0-2-.41,3.225,3.225,0,0,0-2.5.95,3.939,3.939,0,0,0-.866,2.73,3.888,3.888,0,0,0,.828,2.67,3.069,3.069,0,0,0,2.419.93A4.93,4.93,0,0,0,837.79,1156.22Zm4.407-1.36a1.035,1.035,0,0,1-.269-0.79v-3.76h2v-1.13h-2v-1.56h-0.92l-0.507,1.48-1.028.55v0.66h0.958v3.78a1.929,1.929,0,0,0,2.118,2.24,4.276,4.276,0,0,0,.809-0.08,3.218,3.218,0,0,0,.637-0.18v-1.12a3.759,3.759,0,0,1-1.091.17A0.99,0.99,0,0,1,842.2,1154.86Zm-44.109,14.07a1.835,1.835,0,0,0-.584-0.65,6.276,6.276,0,0,0-1.262-.61,7.088,7.088,0,0,1-1.341-.63,0.677,0.677,0,0,1-.308-0.56c0-.45.394-0.67,1.18-0.67a5.068,5.068,0,0,1,1.909.47l0.482-1.13a5.659,5.659,0,0,0-2.34-.5,3.462,3.462,0,0,0-1.976.5,1.6,1.6,0,0,0-.726,1.4,1.738,1.738,0,0,0,.428,1.22,4.486,4.486,0,0,0,1.639.94,8.005,8.005,0,0,1,.971.43,1.849,1.849,0,0,1,.5.37,0.649,0.649,0,0,1,.152.44c0,0.56-.459.83-1.376,0.83a5.529,5.529,0,0,1-2.3-.57v1.29a5.1,5.1,0,0,0,2.251.43,3.626,3.626,0,0,0,2.144-.55A2.057,2.057,0,0,0,798.088,1168.93Zm7.92,2.87v-7.02h-1.5v3.5a3.1,3.1,0,0,1-.441,1.88,1.658,1.658,0,0,1-1.379.56,1.253,1.253,0,0,1-1.034-.4,1.878,1.878,0,0,1-.33-1.21v-4.33h-1.5v4.59a2.616,2.616,0,0,0,.628,1.92,2.585,2.585,0,0,0,1.9.64,3.044,3.044,0,0,0,1.309-.28,2.186,2.186,0,0,0,.885-0.77h0.076l0.209,0.92h1.173Zm8.035-3.72a2.824,2.824,0,0,1,.4-1.67,1.481,1.481,0,0,1,1.271-.54,1.119,1.119,0,0,1,.955.4,1.926,1.926,0,0,1,.307,1.2v4.33h1.491v-4.58a2.807,2.807,0,0,0-.574-1.93,2.333,2.333,0,0,0-1.83-.64,2.83,2.83,0,0,0-1.293.29,2.168,2.168,0,0,0-.876.82h-0.1a2.131,2.131,0,0,0-2.144-1.11,2.749,2.749,0,0,0-1.22.27,2.03,2.03,0,0,0-.847.78h-0.076l-0.209-.92h-1.167v7.02h1.49v-3.5a3.312,3.312,0,0,1,.4-1.87,1.46,1.46,0,0,1,1.265-.56,1.11,1.11,0,0,1,.951.4,1.94,1.94,0,0,1,.305,1.2v4.33h1.5v-3.72Zm12.417,0a2.824,2.824,0,0,1,.4-1.67,1.481,1.481,0,0,1,1.271-.54,1.119,1.119,0,0,1,.955.4,1.926,1.926,0,0,1,.307,1.2v4.33h1.491v-4.58a2.807,2.807,0,0,0-.574-1.93,2.333,2.333,0,0,0-1.83-.64,2.837,2.837,0,0,0-1.294.29,2.172,2.172,0,0,0-.875.82h-0.1a2.131,2.131,0,0,0-2.144-1.11,2.749,2.749,0,0,0-1.22.27,2.03,2.03,0,0,0-.847.78h-0.076l-0.209-.92H820.55v7.02h1.49v-3.5a3.312,3.312,0,0,1,.4-1.87,1.46,1.46,0,0,1,1.265-.56,1.11,1.11,0,0,1,.951.4,1.94,1.94,0,0,1,.305,1.2v4.33h1.5v-3.72Zm11.961,3.72v-4.73a2.285,2.285,0,0,0-.682-1.83,3.03,3.03,0,0,0-2.02-.59,5.408,5.408,0,0,0-1.281.16,4.979,4.979,0,0,0-1.249.45l0.482,1.07a7.48,7.48,0,0,1,.951-0.38,3.548,3.548,0,0,1,1.034-.16,1.289,1.289,0,0,1,.973.34,1.416,1.416,0,0,1,.314,1v0.38l-1.211.04a4.591,4.591,0,0,0-2.455.6,1.857,1.857,0,0,0-.805,1.64,2.091,2.091,0,0,0,.58,1.58,2.243,2.243,0,0,0,1.614.56,3.126,3.126,0,0,0,1.319-.24,2.786,2.786,0,0,0,1.021-.87h0.051l0.3,0.98h1.066Zm-4.122-1.27a0.946,0.946,0,0,1-.28-0.73,1.071,1.071,0,0,1,.479-0.96,3.02,3.02,0,0,1,1.532-.35l0.9-.04v0.61a1.647,1.647,0,0,1-.491,1.27,1.855,1.855,0,0,1-1.3.45A1.2,1.2,0,0,1,834.3,1170.53Zm8.551-5.51a2.827,2.827,0,0,0-.91,1h-0.076l-0.2-1.24H840.5v7.02h1.49v-3.67a2.123,2.123,0,0,1,.555-1.52,1.9,1.9,0,0,1,1.449-.58,2.4,2.4,0,0,1,.659.08l0.146-1.39a3.079,3.079,0,0,0-.742-0.07A2.128,2.128,0,0,0,842.85,1165.02Zm5,6.78-0.26.66a1.576,1.576,0,0,1-1.516,1.25,3.516,3.516,0,0,1-.767-0.08v1.18a3.864,3.864,0,0,0,.964.11,2.845,2.845,0,0,0,2.726-2.19l3-7.95h-1.611q-1.458,4.23-1.61,4.73a6.644,6.644,0,0,0-.21.85h-0.05a7.586,7.586,0,0,0-.432-1.6l-1.427-3.98h-1.623Z" transform="translate(-634 -1110.5)"/>
  <rect id="bg_copy" data-name="bg copy" class="cls-3" x="2.906" y="9.5" width="106.906" height="78"/>
  <path id="Project_acceptance" data-name="Project acceptance" class="cls-4" d="M672.9,1146.92h-2.4v9.28h1.078v-3.65h1.091a4.324,4.324,0,0,0,2.749-.76,2.6,2.6,0,0,0,.961-2.17q0-2.7-3.476-2.7h0Zm-1.325.93h1.205a3.149,3.149,0,0,1,1.877.45,1.6,1.6,0,0,1,.6,1.37,1.709,1.709,0,0,1-.641,1.49,3.6,3.6,0,0,1-2.074.46h-0.97v-3.77Zm8.555,1.63a3.133,3.133,0,0,0-.932,1.05h-0.051l-0.121-1.29h-0.868v6.96h1.052v-3.73a2.513,2.513,0,0,1,.6-1.71,1.845,1.845,0,0,1,1.442-.69,3.858,3.858,0,0,1,.761.1l0.146-.98a4.2,4.2,0,0,0-.831-0.07A2.129,2.129,0,0,0,680.129,1149.48Zm8.469,0.61a2.929,2.929,0,0,0-2.318-.97,3.008,3.008,0,0,0-2.359.94,3.856,3.856,0,0,0-.85,2.65,4.343,4.343,0,0,0,.394,1.92,2.864,2.864,0,0,0,1.116,1.26,3.148,3.148,0,0,0,1.655.44,3,3,0,0,0,2.365-.96,3.844,3.844,0,0,0,.857-2.66A3.8,3.8,0,0,0,688.6,1150.09Zm-3.909.6a1.858,1.858,0,0,1,1.56-.68,1.881,1.881,0,0,1,1.582.69,3.229,3.229,0,0,1,.536,2.01,3.286,3.286,0,0,1-.536,2.04,2.127,2.127,0,0,1-3.136,0,3.34,3.34,0,0,1-.533-2.04A3.263,3.263,0,0,1,684.689,1150.69Zm7.667,6.58v-8.03H691.3v8.1a1.225,1.225,0,0,1-.232.82,0.9,0.9,0,0,1-.726.27,3.251,3.251,0,0,1-.862-0.12v0.85a2.45,2.45,0,0,0,.976.16,1.746,1.746,0,0,0,1.9-2.05h0Zm-0.964-9.38a0.656,0.656,0,0,0,.881,0,0.713,0.713,0,0,0,.184-0.53,0.683,0.683,0,0,0-.184-0.53,0.656,0.656,0,0,0-.881,0,0.7,0.7,0,0,0-.178.53A0.727,0.727,0,0,0,691.392,1147.89Zm7.334,8.33a5.591,5.591,0,0,0,1.056-.34v-0.94a5.655,5.655,0,0,1-2.22.47,2.152,2.152,0,0,1-1.652-.64,2.747,2.747,0,0,1-.618-1.86h4.788v-0.67a3.286,3.286,0,0,0-.761-2.26,2.6,2.6,0,0,0-2.068-.86,2.746,2.746,0,0,0-2.222.99,4.03,4.03,0,0,0-.828,2.67,3.653,3.653,0,0,0,.891,2.61,3.216,3.216,0,0,0,2.432.94A5.885,5.885,0,0,0,698.726,1156.22Zm-0.219-5.69a2.3,2.3,0,0,1,.444,1.52h-3.634a2.538,2.538,0,0,1,.587-1.51,1.728,1.728,0,0,1,1.335-.54A1.542,1.542,0,0,1,698.507,1150.53Zm7.9,5.43v-0.93a4.684,4.684,0,0,1-1.782.38,1.794,1.794,0,0,1-1.532-.69,3.229,3.229,0,0,1-.517-1.97q0-2.7,2.119-2.7a3.47,3.47,0,0,1,.729.09,5.158,5.158,0,0,1,.761.23l0.323-.89a3.521,3.521,0,0,0-.786-0.26,4.866,4.866,0,0,0-1-.1,3.005,3.005,0,0,0-2.394.95,3.934,3.934,0,0,0-.84,2.7,3.834,3.834,0,0,0,.827,2.63,2.966,2.966,0,0,0,2.337.93,3.686,3.686,0,0,0,1.757-.37h0Zm3.075-.84a1.408,1.408,0,0,1-.3-0.96v-4.1H711.2v-0.82h-2.017v-1.61h-0.608l-0.444,1.49-1,.43v0.51h1v4.14a1.834,1.834,0,0,0,2.016,2.13,3.416,3.416,0,0,0,.6-0.06,1.918,1.918,0,0,0,.5-0.13v-0.81a3.856,3.856,0,0,1-.412.09,4.677,4.677,0,0,1-.539.04A1.055,1.055,0,0,1,709.484,1155.12ZM662.5,1171.8v-4.75a2.312,2.312,0,0,0-.6-1.77,2.638,2.638,0,0,0-1.842-.55,4.688,4.688,0,0,0-1.227.16,4.944,4.944,0,0,0-1.126.43l0.323,0.81a4.657,4.657,0,0,1,1.966-.53,1.449,1.449,0,0,1,1.126.39,1.758,1.758,0,0,1,.352,1.21v0.43l-1.18.04c-2.245.06-3.367,0.8-3.367,2.21a1.928,1.928,0,0,0,.587,1.51,2.3,2.3,0,0,0,1.62.54,3.057,3.057,0,0,0,1.29-.24,2.809,2.809,0,0,0,1.037-.88h0.051l0.209,0.99h0.78Zm-4.125-1.04a1.091,1.091,0,0,1-.346-0.87,1.18,1.18,0,0,1,.555-1.08,3.842,3.842,0,0,1,1.811-.39l1.053-.04v0.63a2.008,2.008,0,0,1-.562,1.51,2.134,2.134,0,0,1-1.544.54A1.428,1.428,0,0,1,658.377,1170.76Zm10.828,0.8v-0.93a4.677,4.677,0,0,1-1.782.38,1.792,1.792,0,0,1-1.531-.69,3.222,3.222,0,0,1-.517-1.97q0-2.7,2.118-2.7a3.462,3.462,0,0,1,.729.09,5.122,5.122,0,0,1,.761.23l0.324-.89a3.532,3.532,0,0,0-.787-0.26,4.863,4.863,0,0,0-1-.1,3.005,3.005,0,0,0-2.394.95,3.929,3.929,0,0,0-.841,2.7,3.829,3.829,0,0,0,.828,2.63,2.966,2.966,0,0,0,2.337.93,3.682,3.682,0,0,0,1.756-.37h0Zm6.184,0v-0.93a4.684,4.684,0,0,1-1.782.38,1.794,1.794,0,0,1-1.532-.69,3.222,3.222,0,0,1-.517-1.97q0-2.7,2.118-2.7a3.471,3.471,0,0,1,.73.09,5.2,5.2,0,0,1,.761.23l0.323-.89a3.521,3.521,0,0,0-.786-0.26,4.866,4.866,0,0,0-1-.1,3.005,3.005,0,0,0-2.394.95,3.929,3.929,0,0,0-.841,2.7,3.829,3.829,0,0,0,.828,2.63,2.966,2.966,0,0,0,2.337.93,3.689,3.689,0,0,0,1.757-.37h0Zm5.786,0.26a5.591,5.591,0,0,0,1.056-.34v-0.94a5.646,5.646,0,0,1-2.219.47,2.15,2.15,0,0,1-1.652-.64,2.742,2.742,0,0,1-.619-1.86h4.788v-0.67a3.281,3.281,0,0,0-.761-2.26,2.6,2.6,0,0,0-2.067-.86,2.749,2.749,0,0,0-2.223.99,4.03,4.03,0,0,0-.827,2.67,3.648,3.648,0,0,0,.891,2.61,3.213,3.213,0,0,0,2.432.94A5.875,5.875,0,0,0,681.175,1171.82Zm-0.219-5.69a2.3,2.3,0,0,1,.444,1.52h-3.633a2.537,2.537,0,0,1,.586-1.51,1.728,1.728,0,0,1,1.335-.54A1.54,1.54,0,0,1,680.956,1166.13Zm8.723,4.85a5.044,5.044,0,0,0,.013-5.32,2.565,2.565,0,0,0-2.134-.94,2.855,2.855,0,0,0-1.236.25,2.435,2.435,0,0,0-.945.82h-0.051l-0.146-.95h-0.856v10.08h1.053v-2.86a9.659,9.659,0,0,0-.076-1.16h0.076a2.348,2.348,0,0,0,.941.78,3.13,3.13,0,0,0,1.24.25A2.579,2.579,0,0,0,689.679,1170.98Zm-0.837-4.67a3.3,3.3,0,0,1,.511,1.99,3.426,3.426,0,0,1-.511,2.01,1.62,1.62,0,0,1-1.411.73,1.858,1.858,0,0,1-1.566-.63,3.481,3.481,0,0,1-.488-2.1v-0.23a3.032,3.032,0,0,1,.488-1.88,1.875,1.875,0,0,1,1.541-.59A1.666,1.666,0,0,1,688.842,1166.31Zm4.868,4.41a1.4,1.4,0,0,1-.3-0.96v-4.1h2.016v-0.82h-2.016v-1.61H692.8l-0.444,1.49-1,.43v0.51h1v4.14a1.834,1.834,0,0,0,2.016,2.13,3.416,3.416,0,0,0,.6-0.06,1.918,1.918,0,0,0,.5-0.13v-0.81a3.856,3.856,0,0,1-.412.09,4.677,4.677,0,0,1-.539.04A1.052,1.052,0,0,1,693.71,1170.72Zm8.212,1.08v-4.75a2.312,2.312,0,0,0-.6-1.77,2.638,2.638,0,0,0-1.842-.55,4.69,4.69,0,0,0-1.228.16,4.935,4.935,0,0,0-1.125.43l0.323,0.81a4.657,4.657,0,0,1,1.966-.53,1.449,1.449,0,0,1,1.126.39,1.763,1.763,0,0,1,.352,1.21v0.43l-1.18.04c-2.245.06-3.367,0.8-3.367,2.21a1.93,1.93,0,0,0,.586,1.51,2.3,2.3,0,0,0,1.621.54,3.06,3.06,0,0,0,1.29-.24,2.817,2.817,0,0,0,1.037-.88h0.051l0.209,0.99h0.78Zm-4.125-1.04a1.088,1.088,0,0,1-.346-0.87,1.18,1.18,0,0,1,.555-1.08,3.842,3.842,0,0,1,1.811-.39l1.052-.04v0.63a2.008,2.008,0,0,1-.561,1.51,2.134,2.134,0,0,1-1.544.54A1.428,1.428,0,0,1,697.8,1170.76Zm12.1,1.04v-4.54a2.594,2.594,0,0,0-.634-1.94,2.657,2.657,0,0,0-1.89-.6,2.919,2.919,0,0,0-1.3.28,2.169,2.169,0,0,0-.907.79h-0.051l-0.171-.95h-0.856v6.96h1.053v-3.65a2.973,2.973,0,0,1,.507-1.95,2.008,2.008,0,0,1,1.6-.59,1.572,1.572,0,0,1,1.211.42,1.814,1.814,0,0,1,.387,1.27v4.5H709.9Zm6.7-.24v-0.93a4.684,4.684,0,0,1-1.782.38,1.794,1.794,0,0,1-1.532-.69,3.229,3.229,0,0,1-.517-1.97q0-2.7,2.118-2.7a3.471,3.471,0,0,1,.73.09,5.2,5.2,0,0,1,.761.23l0.323-.89a3.521,3.521,0,0,0-.786-0.26,4.866,4.866,0,0,0-1-.1,3.005,3.005,0,0,0-2.394.95,3.934,3.934,0,0,0-.84,2.7,3.829,3.829,0,0,0,.827,2.63,2.966,2.966,0,0,0,2.337.93,3.686,3.686,0,0,0,1.757-.37h0Zm5.786,0.26a5.591,5.591,0,0,0,1.056-.34v-0.94a5.646,5.646,0,0,1-2.219.47,2.15,2.15,0,0,1-1.652-.64,2.752,2.752,0,0,1-.619-1.86h4.788v-0.67a3.281,3.281,0,0,0-.761-2.26,2.6,2.6,0,0,0-2.067-.86,2.749,2.749,0,0,0-2.223.99,4.035,4.035,0,0,0-.827,2.67,3.653,3.653,0,0,0,.891,2.61,3.214,3.214,0,0,0,2.432.94A5.875,5.875,0,0,0,722.383,1171.82Zm-0.218-5.69a2.3,2.3,0,0,1,.444,1.52h-3.634a2.537,2.537,0,0,1,.586-1.51,1.728,1.728,0,0,1,1.335-.54A1.543,1.543,0,0,1,722.165,1166.13Z" transform="translate(-634 -1110.5)"/>
  <path id="Shape_127_copy" data-name="Shape 127 copy" class="cls-2" d="M744.8,1159v-1h23.978v1H744.8Zm24.307-1.38-0.658.76-7.993-7,0.658-.76Z" transform="translate(-634 -1110.5)"/>
  <path id="Shape_128_copy" data-name="Shape 128 copy" class="cls-2" d="M767.453,1157.62l0.658,0.76-7.993,7-0.658-.76Z" transform="translate(-634 -1110.5)"/>
  <ellipse id="Circle_BG" data-name="Circle BG" class="cls-5" cx="304.969" cy="48.5" rx="37.969" ry="38"/>
  <path id="Finish" class="cls-4" d="M923.611,1159.03h3.843v-0.96h-3.843v-3.39h4.09v-0.96h-5.168V1163h1.078v-3.97Zm6.519-2.99h-1.053V1163h1.053v-6.96Zm-0.964-1.35a0.633,0.633,0,0,0,.444.17,0.64,0.64,0,0,0,.438-0.17,0.717,0.717,0,0,0,.184-0.53,0.7,0.7,0,0,0-.184-0.53,0.64,0.64,0,0,0-.438-0.17,0.633,0.633,0,0,0-.444.17,0.7,0.7,0,0,0-.177.53A0.731,0.731,0,0,0,929.166,1154.69Zm9,8.31v-4.54a2.589,2.589,0,0,0-.634-1.94,2.655,2.655,0,0,0-1.89-.6,2.922,2.922,0,0,0-1.3.28,2.115,2.115,0,0,0-.906.8H933.39l-0.171-.96h-0.857V1163h1.053v-3.65a2.967,2.967,0,0,1,.508-1.95,2.007,2.007,0,0,1,1.6-.59,1.573,1.573,0,0,1,1.211.42,1.814,1.814,0,0,1,.387,1.27v4.5h1.052Zm3.216-6.96h-1.053V1163h1.053v-6.96Zm-0.964-1.35a0.656,0.656,0,0,0,.881,0,0.713,0.713,0,0,0,.184-0.53,0.7,0.7,0,0,0-.184-0.53,0.656,0.656,0,0,0-.881,0,0.7,0.7,0,0,0-.178.53A0.727,0.727,0,0,0,940.423,1154.69Zm7.245,5.26a4.629,4.629,0,0,0-1.671-.9,10.848,10.848,0,0,1-1.218-.52,1.437,1.437,0,0,1-.459-0.37,0.792,0.792,0,0,1-.143-0.48,0.741,0.741,0,0,1,.38-0.65,2.255,2.255,0,0,1,1.129-.23,4.98,4.98,0,0,1,1.9.43l0.375-.86a5.621,5.621,0,0,0-2.2-.45,3.2,3.2,0,0,0-1.9.49,1.555,1.555,0,0,0-.691,1.34,1.6,1.6,0,0,0,.2.82,1.862,1.862,0,0,0,.609.61,7.339,7.339,0,0,0,1.379.63,5.491,5.491,0,0,1,1.373.69,0.9,0.9,0,0,1-.092,1.49,2.457,2.457,0,0,1-1.268.27,4.372,4.372,0,0,1-1.107-.15,5.318,5.318,0,0,1-1.075-.4v0.98a4.429,4.429,0,0,0,2.156.44,3.406,3.406,0,0,0,2.03-.53,1.741,1.741,0,0,0,.722-1.5A1.613,1.613,0,0,0,947.668,1159.95Zm7.956,3.05v-4.54a2.572,2.572,0,0,0-.638-1.93,2.7,2.7,0,0,0-1.912-.6,2.9,2.9,0,0,0-1.309.29,2.09,2.09,0,0,0-.885.79h-0.063a6.614,6.614,0,0,0,.05-0.9v-2.99h-1.052V1163h1.052v-3.64a3.023,3.023,0,0,1,.5-1.95,1.976,1.976,0,0,1,1.6-.6,1.573,1.573,0,0,1,1.211.42,1.814,1.814,0,0,1,.387,1.27v4.5h1.053Z" transform="translate(-634 -1110.5)"/>
  <g id="Connecting_lines" data-name="Connecting lines">
    <path id="Shape_127_copy_6" data-name="Shape 127 copy 6" class="cls-2" d="M875.68,1159v-1h24.976v1H875.68Zm25.305-1.38-0.658.76-7.992-7,0.658-.76Z" transform="translate(-634 -1110.5)"/>
    <path id="Shape_128_copy_6" data-name="Shape 128 copy 6" class="cls-2" d="M899.328,1157.62l0.658,0.76-7.992,7-0.658-.76Z" transform="translate(-634 -1110.5)"/>
  </g>
</svg>
